<?xml version="1.0" encoding="UTF-8" standalone="no"?>
<svg
   xmlns:dc="http://purl.org/dc/elements/1.1/"
   xmlns:cc="http://creativecommons.org/ns#"
   xmlns:rdf="http://www.w3.org/1999/02/22-rdf-syntax-ns#"
   xmlns:svg="http://www.w3.org/2000/svg"
   xmlns="http://www.w3.org/2000/svg"
   xmlns:sodipodi="http://sodipodi.sourceforge.net/DTD/sodipodi-0.dtd"
   xmlns:inkscape="http://www.inkscape.org/namespaces/inkscape"
   version="1.1"
   viewBox="0 -288 1024 2048"
   id="svg6"
   sodipodi:docname="ccedilla.svg"
   width="1024"
   height="2048"
   inkscape:version="0.92.0 r">
  <metadata
     id="metadata12">
    <rdf:RDF>
      <cc:Work
         rdf:about="">
        <dc:format>image/svg+xml</dc:format>
        <dc:type
           rdf:resource="http://purl.org/dc/dcmitype/StillImage" />
        <dc:title />
      </cc:Work>
    </rdf:RDF>
  </metadata>
  <defs
     id="defs10" />
  <sodipodi:namedview
     pagecolor="#ffffff"
     bordercolor="#666666"
     borderopacity="1"
     objecttolerance="10"
     gridtolerance="10"
     guidetolerance="10"
     inkscape:pageopacity="0"
     inkscape:pageshadow="2"
     inkscape:window-width="1364"
     inkscape:window-height="730"
     id="namedview8"
     showgrid="false"
     inkscape:zoom="0.587792"
     inkscape:cx="285.64698"
     inkscape:cy="-312.6057"
     inkscape:window-x="0"
     inkscape:window-y="18"
     inkscape:window-maximized="0"
     inkscape:current-layer="layer3"
     inkscape:measure-start="812.669,393.487"
     inkscape:measure-end="881.319,393.487"
     showguides="true"
     inkscape:guide-bbox="true">
    <sodipodi:guide
       position="532.61017,1118.1017"
       orientation="1,0"
       id="guide5888"
       inkscape:locked="false" />
    <sodipodi:guide
       position="825.77129,-279.05375"
       orientation="1,0"
       id="guide5890"
       inkscape:locked="false" />
    <sodipodi:guide
       position="262.86142,920"
       orientation="0,1"
       id="guide47"
       inkscape:locked="false"
       inkscape:label=""
       inkscape:color="rgb(0,0,255)" />
    <sodipodi:guide
       position="1401.8837,900"
       orientation="0,1"
       id="guide4523"
       inkscape:locked="false"
       inkscape:label=""
       inkscape:color="rgb(0,0,255)" />
    <sodipodi:guide
       position="660.59618,30"
       orientation="0,1"
       id="guide4525"
       inkscape:locked="false"
       inkscape:label=""
       inkscape:color="rgb(0,0,255)" />
    <sodipodi:guide
       position="589.34782,50"
       orientation="0,1"
       id="guide4527"
       inkscape:locked="false"
       inkscape:label=""
       inkscape:color="rgb(0,0,255)" />
  </sodipodi:namedview>
  <g
     inkscape:groupmode="layer"
     id="layer3"
     inkscape:label="trace"
     style="display:inline">
    <path
       style="color:#000000;font-style:normal;font-variant:normal;font-weight:normal;font-stretch:normal;font-size:medium;line-height:normal;font-family:sans-serif;font-variant-ligatures:normal;font-variant-position:normal;font-variant-caps:normal;font-variant-numeric:normal;font-variant-alternates:normal;font-feature-settings:normal;text-indent:0;text-align:start;text-decoration:none;text-decoration-line:none;text-decoration-style:solid;text-decoration-color:#000000;letter-spacing:normal;word-spacing:normal;text-transform:none;writing-mode:lr-tb;direction:ltr;text-orientation:mixed;dominant-baseline:auto;baseline-shift:baseline;text-anchor:start;white-space:normal;shape-padding:0;clip-rule:nonzero;display:inline;overflow:visible;visibility:visible;opacity:1;isolation:auto;mix-blend-mode:normal;color-interpolation:sRGB;color-interpolation-filters:linearRGB;solid-color:#000000;solid-opacity:1;vector-effect:none;fill:#000000;fill-opacity:1;fill-rule:evenodd;stroke:none;stroke-width:100;stroke-linecap:butt;stroke-linejoin:miter;stroke-miterlimit:4;stroke-dasharray:none;stroke-dashoffset:0;stroke-opacity:1;color-rendering:auto;image-rendering:auto;shape-rendering:auto;text-rendering:auto;enable-background:accumulate"
       d="m 490.85938,1078 c -109.3252,0 -206.32935,49.2432 -270.51758,135.4551 -64.18824,86.2118 -97.58008,206.2463 -97.58008,351.6035 0,290.2223 171.07901,487.297 381.13281,502.0625 l -1.88476,35.3945 -0.61329,9.3418 0.10743,0.1348 -0.13868,2.623 7.40039,6.4668 21.39844,26.7891 19.33399,-14.1191 c 0,0 7.55025,-4.168 12.50586,-4.168 h 0.4375 l 0.43554,-0.016 c 2.41921,-0.085 30.88867,13.3865 30.88867,55.7187 0,18.9426 -4.29851,37.5869 -10.46093,48.9922 -6.09734,11.2848 -10.52401,14.155 -17.26758,14.2148 -11.1374,-0.3683 -19.40265,-2.7733 -25.16602,-5.0664 -2.92546,-1.1639 -5.15319,-2.2736 -7.03906,-3.2578 -0.94293,-0.492 -1.74307,-0.9335 -2.97656,-1.5566 -0.61674,-0.3116 -1.30296,-0.6706 -2.66602,-1.2266 -1.36305,-0.556 -2.37998,-1.9902 -9.9375,-1.9902 v 50 c -7.34219,0 -8.02758,-1.3377 -8.94726,-1.7129 -0.91969,-0.3752 -1.04929,-0.4683 -0.9961,-0.4414 0.10639,0.054 1.09824,0.5804 2.39258,1.2558 1.83244,0.9563 4.41735,2.254 7.55078,3.6426 v 6.6758 c -3.82303,0 -5.7878,-0.3227 -6.89843,-0.6836 0.0556,0.027 0.0526,0.027 0.10937,0.055 2.7188,1.3182 6.86985,3.2364 12.06055,5.125 10.38139,3.7772 25.15687,7.5117 43.32031,7.5117 29.09713,0 52.82093,-19.2854 65.19727,-42.4355 12.37633,-23.1502 17.22656,-50.9224 17.22656,-79.877 0,-28.2833 -8.10555,-54.165 -22.44727,-74.2129 -14.34172,-20.0478 -36.34646,-35.0559 -62.11133,-35.1211 -3.83619,-0.01 -7.41887,0.268 -10.84375,0.6875 l 0.54102,-8.2441 c 141.22776,-4.992 237.06487,-60.2026 292.39844,-131.4473 58.03876,-74.7277 72.85156,-160.9622 72.85156,-222.2343 h -47.22656 c 0,-0 0,-0 0,-0.01 h -100 c 0,140.7561 -94.51793,234.0664 -239.10352,234.0664 -101.11284,0 -161.12474,-38.4148 -204.60156,-105.9785 -43.47682,-67.5638 -65.64649,-168.5725 -65.64649,-283.5039 0,-125.934 26.32304,-217.2391 70.32227,-274.291 C 377.39962,1227.1747 438.74368,1198 532.80273,1198 c 88.88809,0 145.77674,27.1627 182.84375,65.5977 37.06702,38.4349 55.44141,91.0192 55.44141,147.8222 h 100 c 0,-0.2421 -0.007,-0.4844 -0.008,-0.7265 h 48.07812 c 0,-85.1584 -29.16387,-168.5897 -88.08008,-231.0137 C 772.16193,1117.2557 683.66338,1078 575.45898,1078 Z m 20.49414,1216.1328 c -0.66072,-0.321 -0.8545,-0.4168 -1.30469,-0.6387 0.2693,0.1862 0.61927,0.416 1.30469,0.6387 z m -1.30469,-0.6387 c -0.16707,-0.1155 -0.30898,-0.2187 -0.46289,-0.2793 -0.80403,-0.3164 -0.86345,-0.3705 -0.75391,-0.3183 0.10135,0.048 0.79666,0.3906 1.2168,0.5976 z"
       transform="translate(0,-288)"
       id="path5546-0-3-2-5-5"
       inkscape:connector-curvature="0" />
  </g>
  <g
     inkscape:groupmode="layer"
     id="layer4"
     inkscape:label="trace 1" />
</svg>
