<?xml version="1.0" encoding="UTF-8" standalone="no"?>
<svg
   xmlns:dc="http://purl.org/dc/elements/1.1/"
   xmlns:cc="http://creativecommons.org/ns#"
   xmlns:rdf="http://www.w3.org/1999/02/22-rdf-syntax-ns#"
   xmlns:svg="http://www.w3.org/2000/svg"
   xmlns="http://www.w3.org/2000/svg"
   xmlns:sodipodi="http://sodipodi.sourceforge.net/DTD/sodipodi-0.dtd"
   xmlns:inkscape="http://www.inkscape.org/namespaces/inkscape"
   version="1.1"
   viewBox="0 -288 1504 2048"
   id="svg6"
   sodipodi:docname="m.svg"
   width="1504"
   height="2048"
   inkscape:version="0.92.0 r">
  <metadata
     id="metadata12">
    <rdf:RDF>
      <cc:Work
         rdf:about="">
        <dc:format>image/svg+xml</dc:format>
        <dc:type
           rdf:resource="http://purl.org/dc/dcmitype/StillImage" />
        <dc:title />
      </cc:Work>
    </rdf:RDF>
  </metadata>
  <defs
     id="defs10" />
  <sodipodi:namedview
     pagecolor="#ffffff"
     bordercolor="#666666"
     borderopacity="1"
     objecttolerance="10"
     gridtolerance="10"
     guidetolerance="10"
     inkscape:pageopacity="0"
     inkscape:pageshadow="2"
     inkscape:window-width="1364"
     inkscape:window-height="730"
     id="namedview8"
     showgrid="false"
     inkscape:zoom="0.20795676"
     inkscape:cx="-1968.1697"
     inkscape:cy="221.42519"
     inkscape:window-x="0"
     inkscape:window-y="18"
     inkscape:window-maximized="0"
     inkscape:current-layer="layer2"
     inkscape:measure-start="155.556,1178.32"
     inkscape:measure-end="261.789,1178.32"
     showguides="true"
     inkscape:guide-bbox="true">
    <sodipodi:guide
       position="584.0817,1100.7104"
       orientation="0,1"
       id="guide474"
       inkscape:locked="false" />
    <sodipodi:guide
       position="631.60541,1119.8732"
       orientation="0,1"
       id="guide476"
       inkscape:locked="false" />
  </sodipodi:namedview>
  <g
     inkscape:groupmode="layer"
     id="layer2"
     inkscape:label="trace">
    <path
       style="color:#000000;font-style:normal;font-variant:normal;font-weight:normal;font-stretch:normal;font-size:medium;line-height:normal;font-family:sans-serif;font-variant-ligatures:normal;font-variant-position:normal;font-variant-caps:normal;font-variant-numeric:normal;font-variant-alternates:normal;font-feature-settings:normal;text-indent:0;text-align:start;text-decoration:none;text-decoration-line:none;text-decoration-style:solid;text-decoration-color:#000000;letter-spacing:normal;word-spacing:normal;text-transform:none;writing-mode:lr-tb;direction:ltr;text-orientation:mixed;dominant-baseline:auto;baseline-shift:baseline;text-anchor:start;white-space:normal;shape-padding:0;clip-rule:nonzero;display:inline;overflow:visible;visibility:visible;opacity:1;isolation:auto;mix-blend-mode:normal;color-interpolation:sRGB;color-interpolation-filters:linearRGB;solid-color:#000000;solid-opacity:1;vector-effect:none;fill:#000000;fill-opacity:1;fill-rule:evenodd;stroke:none;stroke-width:100;stroke-linecap:butt;stroke-linejoin:miter;stroke-miterlimit:4;stroke-dasharray:none;stroke-dashoffset:0;stroke-opacity:1;color-rendering:auto;image-rendering:auto;shape-rendering:auto;text-rendering:auto;enable-background:accumulate"
       d="m 264.64648,876.50781 c -0.003,0.0124 -0.007,0.0584 -0.008,0.13281 -0.005,0.28977 0.01,1.02788 0.0566,1.86719 -0.0193,-1.18754 -0.0368,-2.04667 -0.0488,-2 z m 0.0488,2 c 0.0166,1.02097 0.0352,2.17269 0.0352,4.49219 h -100 V 1088.3242 1897.0508 2048 H 202.5 264.73047 302.5 V 1079.5566 C 323.63398,1055.7424 382.6757,1003 491.20508,1003 c 99.69131,0 132.81876,33.257 155.30469,80.3125 22.48592,47.0555 24.99609,114.1683 24.99609,166.7344 v 797.9433 h 36.375 v 0.02 h 100 V 1175.334 c 0,-10.582 -0.43991,-27.7354 -3.24609,-48.8379 C 850.90283,1073.2225 929.88409,1003 1024.8027,1003 c 99.6934,0 132.8261,33.2586 155.3145,80.3145 22.4884,47.0558 24.998,114.1679 24.998,166.7324 V 2048 h 86.3614 l 50,0.055 0.957,-869.0508 v -0.027 c 0,-26.2451 -2.6732,-93.5841 -37.4024,-161.5918 C 1270.3041,949.37709 1194.2866,883 1075.7441,883 h -58.8964 C 900.68099,883 816.47429,948.9196 765.2832,1006.0781 728.40932,942.26879 654.02196,883 541.17383,883 H 482.2832 c -83.38798,0 -150.58282,33.18648 -200.88867,72.40039 -1.2442,-5.42805 -2.56358,-11.14691 -3.75,-16.35156 -3.91478,-17.17354 -7.42762,-32.80064 -9.88867,-44.30274 -1.23053,-5.75104 -2.20241,-10.50765 -2.77734,-13.56836 -0.14755,-0.78543 -0.23359,-1.78494 -0.28321,-2.66992 z"
       transform="translate(0,-288)"
       id="path5236-3-9-6"
       inkscape:connector-curvature="0" />
  </g>
</svg>
