<!--?xml version="1.0" encoding="UTF-8" standalone="no"?-->
<svg xmlns:dc="http://purl.org/dc/elements/1.1/" xmlns:cc="http://creativecommons.org/ns#" xmlns:rdf="http://www.w3.org/1999/02/22-rdf-syntax-ns#" xmlns:svg="http://www.w3.org/2000/svg" xmlns="http://www.w3.org/2000/svg" xmlns:sodipodi="http://sodipodi.sourceforge.net/DTD/sodipodi-0.dtd" xmlns:inkscape="http://www.inkscape.org/namespaces/inkscape" version="1.1" viewBox="0 -288 976 2048" id="svg6" sodipodi:docname="a.svg" width="976" height="2048" inkscape:version="0.92.1 r">
  <metadata id="metadata12">
    <rdf:rdf>
      <cc:work rdf:about="">
        <dc:format>image/svg+xml</dc:format>
        <dc:type rdf:resource="http://purl.org/dc/dcmitype/StillImage"></dc:type>
        <dc:title></dc:title>
      </cc:work>
    </rdf:rdf>
  </metadata>
  <defs id="defs10"></defs>
  <sodipodi:namedview pagecolor="#ffffff" bordercolor="#666666" borderopacity="1" objecttolerance="10" gridtolerance="10" guidetolerance="10" inkscape:pageopacity="0" inkscape:pageshadow="2" inkscape:window-width="2558" inkscape:window-height="1402" id="namedview8" showgrid="false" inkscape:zoom="0.32911105" inkscape:cx="-1075.8911" inkscape:cy="-610.19014" inkscape:window-x="0" inkscape:window-y="18" inkscape:window-maximized="0" inkscape:current-layer="layer2" inkscape:measure-start="489.366,1118.33" inkscape:measure-end="489.366,1096.66"></sodipodi:namedview>
  <g inkscape:groupmode="layer" id="layer2" inkscape:label="trace" style="display:inline" transform="matrix(1,0,0,0.90,0,175)">
    <g id="g4495" transform="matrix(1,0,0,0.90,0,175)">
      <path class="int" style="display: inline; fill: none; fill-rule: evenodd; stroke: rgb(0, 0, 0); stroke-width: 100; stroke-linecap: round; stroke-linejoin: round; stroke-miterlimit: 4; stroke-dasharray: none; stroke-opacity: 1;" d="M 230.95385,920.17367 C 230.95385,841.17412 267.52426,665 488.09979,665 c 134.98718,0 239.91096,65.12439 239.91096,258.89196 V 1538.6641 C 741.3979,1612.4427 766.47981,1745.3822 766.745,1760" id="path5546-1-6-6-4" inkscape:connector-curvature="0" sodipodi:nodetypes="ccscc"></path>
      <path class="ext" style="display: inline; fill: none; fill-rule: evenodd; stroke: rgb(0, 0, 0); stroke-width: 100; stroke-linecap: round; stroke-linejoin: round; stroke-miterlimit: 4; stroke-dasharray: none; stroke-opacity: 1;" d="M 180.89614,920.17367 C 180.89614,752.15993 310.31941,645 431.45538,645 h 111.35959 c 129.91327,0 223.92962,90.2603 223.92962,270.33382 L 766.745,1760" id="path5546-0-3-9" inkscape:connector-curvature="0" sodipodi:nodetypes="ccccc"></path>
      <path class="ext" style="display: inline; fill: none; fill-rule: evenodd; stroke: rgb(0, 0, 0); stroke-width: 100; stroke-linecap: round; stroke-linejoin: round; stroke-miterlimit: 4; stroke-dasharray: none; stroke-opacity: 1;" d="m 768.54297,1069.0948 c -152.82387,0 -602.6788,9.1394 -602.6788,361.1906 0,0 -0.0651,3.1451 0.12093,8.7694 1.57185,47.514 25.06298,289.9675 267.21588,289.9675 164.61371,0 333.39541,-235.2983 333.39541,-235.2983" id="path5578-1-7-7" inkscape:connector-curvature="0" sodipodi:nodetypes="ccssc"></path>
      <path class="int" style="display: inline; fill: none; fill-rule: evenodd; stroke: rgb(0, 0, 0); stroke-width: 100; stroke-linecap: round; stroke-linejoin: round; stroke-miterlimit: 4; stroke-dasharray: none; stroke-opacity: 1;" d="m 727.56115,1071.7272 c -173.03655,0 -515.10535,62.4492 -515.10535,367.292 0,107.9549 59.02364,255.9808 229.52861,255.9808 148.04922,0 285.89249,-158.1731 285.89249,-158.1731" id="path5578-9-5-5-8" inkscape:connector-curvature="0" sodipodi:nodetypes="cssc"></path>
    </g>
  </g>
</svg>
