<!--?xml version="1.0" encoding="UTF-8" standalone="no"?-->
<svg xmlns:dc="http://purl.org/dc/elements/1.1/" xmlns:cc="http://creativecommons.org/ns#" xmlns:rdf="http://www.w3.org/1999/02/22-rdf-syntax-ns#" xmlns:svg="http://www.w3.org/2000/svg" xmlns="http://www.w3.org/2000/svg" xmlns:sodipodi="http://sodipodi.sourceforge.net/DTD/sodipodi-0.dtd" xmlns:inkscape="http://www.inkscape.org/namespaces/inkscape" version="1.1" viewBox="0 -288 1024 2048" id="svg6" sodipodi:docname="percent.svg" width="1024" height="2048" inkscape:version="0.92.1 r">
  <metadata id="metadata12">
    <rdf:rdf>
      <cc:work rdf:about="">
        <dc:format>image/svg+xml</dc:format>
        <dc:type rdf:resource="http://purl.org/dc/dcmitype/StillImage"></dc:type>
        <dc:title></dc:title>
      </cc:work>
    </rdf:rdf>
  </metadata>
  <defs id="defs10"></defs>
  <sodipodi:namedview pagecolor="#ffffff" bordercolor="#666666" borderopacity="1" objecttolerance="10" gridtolerance="10" guidetolerance="10" inkscape:pageopacity="0" inkscape:pageshadow="2" inkscape:window-width="2558" inkscape:window-height="1402" id="namedview8" showgrid="false" inkscape:zoom="0.23578073" inkscape:cx="1786.6114" inkscape:cy="1084.1863" inkscape:window-x="0" inkscape:window-y="18" inkscape:window-maximized="0" inkscape:current-layer="g4486" inkscape:measure-start="-236.901,671.22" inkscape:measure-end="767.108,671.22"></sodipodi:namedview>
  <g inkscape:groupmode="layer" id="layer3" inkscape:label="trace" transform="matrix(1,0,0,0.90,0,175)">
    <g id="g4486" transform="matrix(1,0,0,0.90,0,175)">
      <g id="g4504" transform="matrix(1,0,0,0.90,0,175)">
        <path style="fill: none; fill-rule: evenodd; stroke: rgb(0, 0, 0); stroke-width: 100; stroke-linecap: round; stroke-linejoin: miter; stroke-miterlimit: 4; stroke-dasharray: none; stroke-opacity: 1;" d="M 447.95351,-90.815606 149.08351,1806.3705" id="path4590" inkscape:connector-curvature="0" sodipodi:nodetypes="cc" class="ext"></path>
        <path style="fill: none; fill-rule: evenodd; stroke: rgb(0, 0, 0); stroke-width: 100; stroke-linecap: round; stroke-linejoin: miter; stroke-miterlimit: 4; stroke-dasharray: none; stroke-opacity: 1;" d="M 413.74906,-92.36852 183.80559,1809.8553" id="path4590-3" inkscape:connector-curvature="0" sodipodi:nodetypes="cc" class="int"></path>
        <path class="ext" sodipodi:nodetypes="sssss" inkscape:connector-curvature="0" id="path4589" d="M 67.93094,438.46607 C 107.22227,585.1033 72.758476,721.7455 -9.0460897,743.66496 -90.850652,765.58442 -189.01826,664.4807 -228.30959,517.84348 c -39.29133,-146.63722 -4.82754,-283.27942 76.97702,-305.19889 81.804564,-21.91947 179.972183,79.18425 219.26351,225.82148 z" style="opacity: 1; vector-effect: none; fill: none; fill-opacity: 1; stroke: rgb(0, 0, 0); stroke-width: 100; stroke-linecap: round; stroke-linejoin: miter; stroke-miterlimit: 4; stroke-dasharray: none; stroke-dashoffset: 0; stroke-opacity: 1; paint-order: stroke markers;"></path>
        <path class="int" sodipodi:nodetypes="sssss" inkscape:connector-curvature="0" id="path4589-2" d="m 47.034316,444.06534 c 34.350772,128.19883 10.413998,266.7054 -59.84967,285.5325 -70.26367,18.8271 -160.246816,-89.15472 -194.597596,-217.35356 -34.35077,-128.19883 -10.93163,-268.63726 59.33204,-287.46435 70.263669,-18.8271 160.764451,91.08658 195.115226,219.28541 z" style="opacity: 1; vector-effect: none; fill: none; fill-opacity: 1; stroke: rgb(0, 0, 0); stroke-width: 100; stroke-linecap: round; stroke-linejoin: miter; stroke-miterlimit: 4; stroke-dasharray: none; stroke-dashoffset: 0; stroke-opacity: 1; paint-order: stroke markers;"></path>
        <path class="ext" sodipodi:nodetypes="sssss" inkscape:connector-curvature="0" id="path4589-6" d="m 817.42857,1262.3879 c 39.29134,146.6372 4.82754,283.2794 -76.97702,305.1989 -81.80457,21.9194 -179.97218,-79.1843 -219.26351,-225.8215 -39.29133,-146.6372 -4.82754,-283.2794 76.97703,-305.1989 81.80455,-21.9195 179.97217,79.1842 219.2635,225.8215 z" style="opacity: 1; vector-effect: none; fill: none; fill-opacity: 1; stroke: rgb(0, 0, 0); stroke-width: 100; stroke-linecap: round; stroke-linejoin: miter; stroke-miterlimit: 4; stroke-dasharray: none; stroke-dashoffset: 0; stroke-opacity: 1; paint-order: stroke markers;"></path>
        <path class="int" sodipodi:nodetypes="sssss" inkscape:connector-curvature="0" id="path4589-2-5" d="m 796.53195,1267.9871 c 34.35078,128.1989 10.414,266.7054 -59.84967,285.5325 -70.26367,18.8271 -160.24682,-89.1547 -194.5976,-217.3535 -34.35077,-128.1989 -10.93163,-268.6373 59.33204,-287.4644 70.26368,-18.8271 160.76446,91.0866 195.11523,219.2854 z" style="opacity: 1; vector-effect: none; fill: none; fill-opacity: 1; stroke: rgb(0, 0, 0); stroke-width: 100; stroke-linecap: round; stroke-linejoin: miter; stroke-miterlimit: 4; stroke-dasharray: none; stroke-dashoffset: 0; stroke-opacity: 1; paint-order: stroke markers;"></path>
      </g>
    </g>
  </g>
</svg>
