<?xml version="1.0" encoding="UTF-8" standalone="no"?>
<!--?xml version="1.0" encoding="UTF-8" standalone="no"?-->

<svg
   xmlns:dc="http://purl.org/dc/elements/1.1/"
   xmlns:cc="http://creativecommons.org/ns#"
   xmlns:rdf="http://www.w3.org/1999/02/22-rdf-syntax-ns#"
   xmlns:svg="http://www.w3.org/2000/svg"
   xmlns="http://www.w3.org/2000/svg"
   xmlns:sodipodi="http://sodipodi.sourceforge.net/DTD/sodipodi-0.dtd"
   xmlns:inkscape="http://www.inkscape.org/namespaces/inkscape"
   version="1.1"
   viewBox="0 -288 976 2048"
   id="svg6"
   sodipodi:docname="a.svg"
   width="976"
   height="2048"
   inkscape:version="0.92.1 r">
  <metadata
     id="metadata12">
    <rdf:rdf>
      <cc:work
         rdf:about="">
        <dc:format>image/svg+xml</dc:format>
        <dc:type
           rdf:resource="http://purl.org/dc/dcmitype/StillImage" />
        <dc:title />
      </cc:work>
    </rdf:rdf>
    <rdf:RDF>
      <cc:Work
         rdf:about="">
        <dc:format>image/svg+xml</dc:format>
        <dc:type
           rdf:resource="http://purl.org/dc/dcmitype/StillImage" />
      </cc:Work>
    </rdf:RDF>
  </metadata>
  <defs
     id="defs10" />
  <sodipodi:namedview
     pagecolor="#ffffff"
     bordercolor="#666666"
     borderopacity="1"
     objecttolerance="10"
     gridtolerance="10"
     guidetolerance="10"
     inkscape:pageopacity="0"
     inkscape:pageshadow="2"
     inkscape:window-width="2558"
     inkscape:window-height="1402"
     id="namedview8"
     showgrid="false"
     inkscape:zoom="4.0329724"
     inkscape:cx="447.75797"
     inkscape:cy="470.10315"
     inkscape:window-x="0"
     inkscape:window-y="18"
     inkscape:window-maximized="0"
     inkscape:current-layer="g17"
     inkscape:measure-start="489.366,1118.33"
     inkscape:measure-end="489.366,1096.66" />
  <g
     inkscape:groupmode="layer"
     id="layer2"
     inkscape:label="trace"
     style="display:inline">
    <g
       id="g17"
       transform="matrix(1,0,0,0.78761932,0,373.78977)"
       style="stroke-width:1.12678695">
      <path
         style="color:#000000;font-style:normal;font-variant:normal;font-weight:normal;font-stretch:normal;font-size:medium;line-height:normal;font-family:sans-serif;font-variant-ligatures:normal;font-variant-position:normal;font-variant-caps:normal;font-variant-numeric:normal;font-variant-alternates:normal;font-feature-settings:normal;text-indent:0;text-align:start;text-decoration:none;text-decoration-line:none;text-decoration-style:solid;text-decoration-color:#000000;letter-spacing:normal;word-spacing:normal;text-transform:none;writing-mode:lr-tb;direction:ltr;text-orientation:mixed;dominant-baseline:auto;baseline-shift:baseline;text-anchor:start;white-space:normal;shape-padding:0;clip-rule:nonzero;display:inline;overflow:visible;visibility:visible;opacity:1;isolation:auto;mix-blend-mode:normal;color-interpolation:sRGB;color-interpolation-filters:linearRGB;solid-color:#000000;solid-opacity:1;vector-effect:none;fill:#000000;fill-opacity:1;fill-rule:evenodd;stroke:none;stroke-width:88.74791718;stroke-linecap:butt;stroke-linejoin:round;stroke-miterlimit:4;stroke-dasharray:none;stroke-dashoffset:0;stroke-opacity:1;color-rendering:auto;image-rendering:auto;shape-rendering:auto;text-rendering:auto;enable-background:accumulate"
         d="m 431.45508,1130.4238 c -150.62348,0 -300.5586,103.5586 -300.5586,256.1133 h 50.05664 49.94336 50.05664 c 0,-25.034 8.62415,-68.6216 37.18555,-101.6582 28.56141,-33.0366 72.98487,-59.9414 169.96094,-59.9414 59.45278,0 105.22847,11.0179 136.33789,34.041 31.10942,23.0231 53.57422,61.287 53.57422,130.4863 v 76.3575 c -80.93729,2.8756 -185.97102,11.7556 -284.71289,39.1191 -71.17743,19.7248 -140.06613,49.4328 -192.20313,95.8438 -52.00682,46.295 -85.05203,109.507 -85.21679,186.9492 -0.004,0.1954 -0.0805,3.704 0.13281,8.7832 0.96515,22.9785 6.98008,84.4948 49.47851,145.7988 42.49844,61.304 129.94714,120.666 267.71094,120.666 106.13014,0 195.86697,-54.041 262.61719,-103.3086 0.3927,-0.2898 0.77485,-0.5793 1.16602,-0.8691 2.09035,9.014 4.14987,17.9355 6.10546,26.4863 3.9686,17.3525 7.52156,33.2263 10.04688,45.2246 2.52532,11.9984 3.78523,25.4931 3.61719,18.1973 L 766.67578,2048 h 50.06836 v -665.2754 c 0,-77.7683 -26.07131,-141.3203 -75.74414,-185.6914 -49.67283,-44.3711 -121.64935,-66.6094 -198.18555,-66.6094 z m 246.55664,416.541 v 309.3301 c -33.81238,26.5131 -137.67667,101.1289 -236.02734,101.1289 -70.78314,0 -109.80938,-21.3269 -138.01563,-52.4316 -28.20625,-31.1047 -41.51367,-74.4661 -41.51367,-109.8027 0,-104.5359 72.59414,-161.0771 171.52734,-199.3301 78.64942,-30.4103 173.08533,-44.423 244.0293,-48.8946 z"
         transform="matrix(1,0,0,1.2696489,0,-840.24065)"
         id="path5546-1-6-6-4"
         inkscape:connector-curvature="0" />
    </g>
  </g>
</svg>
