<?xml version="1.0" encoding="UTF-8" standalone="no"?>
<!--?xml version="1.0" encoding="UTF-8" standalone="no"?-->

<svg
   xmlns:dc="http://purl.org/dc/elements/1.1/"
   xmlns:cc="http://creativecommons.org/ns#"
   xmlns:rdf="http://www.w3.org/1999/02/22-rdf-syntax-ns#"
   xmlns:svg="http://www.w3.org/2000/svg"
   xmlns="http://www.w3.org/2000/svg"
   xmlns:sodipodi="http://sodipodi.sourceforge.net/DTD/sodipodi-0.dtd"
   xmlns:inkscape="http://www.inkscape.org/namespaces/inkscape"
   version="1.1"
   viewBox="0 -288 1296 2048"
   id="svg6"
   sodipodi:docname="A.svg"
   width="1296"
   height="2048"
   inkscape:version="0.92.1 r">
  <metadata
     id="metadata12">
    <rdf:rdf>
      <cc:work
         rdf:about="">
        <dc:format>image/svg+xml</dc:format>
        <dc:type
           rdf:resource="http://purl.org/dc/dcmitype/StillImage" />
        <dc:title />
      </cc:work>
    </rdf:rdf>
    <rdf:RDF>
      <cc:Work
         rdf:about="">
        <dc:format>image/svg+xml</dc:format>
        <dc:type
           rdf:resource="http://purl.org/dc/dcmitype/StillImage" />
      </cc:Work>
    </rdf:RDF>
  </metadata>
  <defs
     id="defs10" />
  <sodipodi:namedview
     pagecolor="#ffffff"
     bordercolor="#666666"
     borderopacity="1"
     objecttolerance="10"
     gridtolerance="10"
     guidetolerance="10"
     inkscape:pageopacity="0"
     inkscape:pageshadow="2"
     inkscape:window-width="2558"
     inkscape:window-height="1402"
     id="namedview8"
     showgrid="false"
     showguides="true"
     inkscape:guide-bbox="true"
     inkscape:measure-start="142.668,36.8175"
     inkscape:measure-end="191.276,23.7931"
     inkscape:zoom="1.8518656"
     inkscape:cx="-811.01863"
     inkscape:cy="458.75557"
     inkscape:window-x="0"
     inkscape:window-y="18"
     inkscape:window-maximized="0"
     inkscape:current-layer="layer2">
    <sodipodi:guide
       position="647.37424,895.89231"
       orientation="1,0"
       id="guide5107"
       inkscape:locked="false" />
    <sodipodi:guide
       position="-91.118644,1361.3559"
       orientation="1,0"
       id="guide5194"
       inkscape:locked="false" />
  </sodipodi:namedview>
  <g
     inkscape:groupmode="layer"
     id="layer2"
     inkscape:label="trace"
     style="display:inline">
    <path
       style="color:#000000;font-style:normal;font-variant:normal;font-weight:normal;font-stretch:normal;font-size:medium;line-height:normal;font-family:sans-serif;font-variant-ligatures:normal;font-variant-position:normal;font-variant-caps:normal;font-variant-numeric:normal;font-variant-alternates:normal;font-feature-settings:normal;text-indent:0;text-align:start;text-decoration:none;text-decoration-line:none;text-decoration-style:solid;text-decoration-color:#000000;letter-spacing:normal;word-spacing:normal;text-transform:none;writing-mode:lr-tb;direction:ltr;text-orientation:mixed;dominant-baseline:auto;baseline-shift:baseline;text-anchor:start;white-space:normal;shape-padding:0;clip-rule:nonzero;display:inline;overflow:visible;visibility:visible;opacity:1;isolation:auto;mix-blend-mode:normal;color-interpolation:sRGB;color-interpolation-filters:linearRGB;solid-color:#000000;solid-opacity:1;vector-effect:none;fill:#050000;fill-opacity:1;fill-rule:evenodd;stroke:none;stroke-width:88.99533081;stroke-linecap:butt;stroke-linejoin:miter;stroke-miterlimit:4;stroke-dasharray:none;stroke-dashoffset:0;stroke-opacity:1;color-rendering:auto;image-rendering:auto;shape-rendering:auto;text-rendering:auto;enable-background:accumulate"
       d="m 565.41992,815.47656 -11.13281,28.11914 c 0,0 -116.21423,293.5497 -232.43945,588.8691 -58.11262,147.6598 -116.22511,295.7549 -159.84375,407.8946 -21.80933,56.0698 -39.9878,103.1334 -52.77735,136.7812 -6.39477,16.824 -11.432212,30.2623 -14.978513,40.0176 -1.773151,4.8777 -3.161173,8.7867 -4.267578,12.0957 -0.553203,1.6545 -1.029168,3.1078 -1.554688,4.9316 -0.525519,1.8239 -2.076172,-1.8602 -2.076172,13.8145 H 175.3457 c 0,3.4341 -0.0824,5.59 -0.1875,7.2852 0.66367,-1.9248 1.41173,-4.0824 2.57227,-7.2852 h 55.61523 c 0,3.914 -0.1791,5.5054 -0.35937,6.5469 0.58874,-2.0089 1.61287,-5.2987 3.06055,-9.7012 3.02825,-9.2092 7.67771,-22.7106 13.62109,-39.5645 11.88676,-33.7074 28.99472,-80.9927 49.5332,-137.125 25.84707,-70.6407 57.38155,-155.9329 90.69531,-245.6601 h 517.65625 c 32.95539,88.6474 64.1371,172.9724 89.72852,243.0898 20.53045,56.2512 37.62895,103.7708 49.49025,137.8125 5.9307,17.0209 10.5641,30.7183 13.5605,40.0977 1.4558,4.5567 2.4885,8.0202 3.0489,10.0469 -0.1028,-1.1434 -0.2325,-1.2753 -0.2325,-5.543 h 55.6114 c 1.1458,3.1634 1.9175,5.3767 2.5761,7.2871 -0.1051,-1.6953 -0.1875,-3.8521 -0.1875,-7.2871 h 30.9961 58 c 0,-15.6747 -1.5506,-11.9906 -2.0761,-13.8145 -0.5256,-1.8238 -1.0015,-3.2771 -1.5547,-4.9316 -1.1064,-3.309 -2.4945,-7.218 -4.2676,-12.0957 -3.5463,-9.7553 -8.5837,-23.1936 -14.9785,-40.0176 -12.7896,-33.6478 -30.968,-80.7114 -52.7774,-136.7812 C 1090.8716,1728.2197 1032.7591,1580.1246 974.64648,1432.4648 858.42125,1137.1454 742.20703,843.5957 742.20703,843.5957 l -11.13281,-28.11914 z m 82.875,116.08594 c 26.34854,69.6924 105.46354,279.0778 198.26367,527.3027 9.33436,24.9679 18.59102,49.7926 27.85743,74.6348 h -451.4375 c 8.97491,-24.1094 17.93218,-48.1808 26.96875,-72.4141 92.86538,-249.0358 172.06421,-459.6581 198.34765,-529.5234 z"
       transform="translate(0,-288)"
       id="path5109-6"
       inkscape:connector-curvature="0" />
  </g>
</svg>
