<?xml version="1.0" encoding="UTF-8" standalone="no"?>
<!--?xml version="1.0" encoding="UTF-8" standalone="no"?-->

<svg
   xmlns:dc="http://purl.org/dc/elements/1.1/"
   xmlns:cc="http://creativecommons.org/ns#"
   xmlns:rdf="http://www.w3.org/1999/02/22-rdf-syntax-ns#"
   xmlns:svg="http://www.w3.org/2000/svg"
   xmlns="http://www.w3.org/2000/svg"
   xmlns:sodipodi="http://sodipodi.sourceforge.net/DTD/sodipodi-0.dtd"
   xmlns:inkscape="http://www.inkscape.org/namespaces/inkscape"
   version="1.1"
   viewBox="0 -288 1304 2048"
   id="svg6"
   sodipodi:docname="B.svg"
   width="1304"
   height="2048"
   inkscape:version="0.92.1 r">
  <metadata
     id="metadata12">
    <rdf:rdf>
      <cc:work
         rdf:about="">
        <dc:format>image/svg+xml</dc:format>
        <dc:type
           rdf:resource="http://purl.org/dc/dcmitype/StillImage" />
        <dc:title />
      </cc:work>
    </rdf:rdf>
    <rdf:RDF>
      <cc:Work
         rdf:about="">
        <dc:format>image/svg+xml</dc:format>
        <dc:type
           rdf:resource="http://purl.org/dc/dcmitype/StillImage" />
      </cc:Work>
    </rdf:RDF>
  </metadata>
  <defs
     id="defs10" />
  <sodipodi:namedview
     pagecolor="#ffffff"
     bordercolor="#666666"
     borderopacity="1"
     objecttolerance="10"
     gridtolerance="10"
     guidetolerance="10"
     inkscape:pageopacity="0"
     inkscape:pageshadow="2"
     inkscape:window-width="2558"
     inkscape:window-height="1402"
     id="namedview8"
     showgrid="false"
     inkscape:zoom="2.6189332"
     inkscape:cx="-80.71079"
     inkscape:cy="665.44153"
     inkscape:window-x="0"
     inkscape:window-y="18"
     inkscape:window-maximized="0"
     inkscape:current-layer="layer4"
     showguides="true"
     inkscape:guide-bbox="true"
     inkscape:measure-start="496.269,1540.2"
     inkscape:measure-end="496.269,1389.86">
    <sodipodi:guide
       position="751.69046,763.96296"
       orientation="1,0"
       id="guide844"
       inkscape:locked="false" />
  </sodipodi:namedview>
  <g
     inkscape:groupmode="layer"
     id="layer3"
     inkscape:label="traces"
     style="display:inline" />
  <g
     inkscape:groupmode="layer"
     id="layer4"
     inkscape:label="traces 2"
     style="display:inline">
    <path
       style="color:#000000;font-style:normal;font-variant:normal;font-weight:normal;font-stretch:normal;font-size:medium;line-height:normal;font-family:sans-serif;font-variant-ligatures:normal;font-variant-position:normal;font-variant-caps:normal;font-variant-numeric:normal;font-variant-alternates:normal;font-feature-settings:normal;text-indent:0;text-align:start;text-decoration:none;text-decoration-line:none;text-decoration-style:solid;text-decoration-color:#000000;letter-spacing:normal;word-spacing:normal;text-transform:none;writing-mode:lr-tb;direction:ltr;text-orientation:mixed;dominant-baseline:auto;baseline-shift:baseline;text-anchor:start;white-space:normal;shape-padding:0;clip-rule:nonzero;display:inline;overflow:visible;visibility:visible;opacity:1;isolation:auto;mix-blend-mode:normal;color-interpolation:sRGB;color-interpolation-filters:linearRGB;solid-color:#000000;solid-opacity:1;vector-effect:none;fill:#000000;fill-opacity:1;fill-rule:evenodd;stroke:none;stroke-width:88.66976929;stroke-linecap:butt;stroke-linejoin:miter;stroke-miterlimit:4;stroke-dasharray:none;stroke-dashoffset:0;stroke-opacity:1;color-rendering:auto;image-rendering:auto;shape-rendering:auto;text-rendering:auto;enable-background:accumulate"
       d="M 167.79688,817.12305 V 2048 h 600.8125 c 155.20224,0 264.74522,-35.4569 335.88282,-99.7539 71.1376,-64.297 98.0586,-154.2476 98.0586,-245.1914 0,-134.5881 -70.4829,-231.517 -176.7637,-282.8789 -24.9062,-12.0363 -51.67867,-22.0009 -80.00585,-30.3086 5.68785,-2.3692 11.33258,-4.7991 16.87891,-7.3633 99.42174,-45.9652 176.39064,-133.0171 176.39064,-257.0859 0,-87.2776 -35.6321,-169.08387 -107.3028,-224.17386 C 960.07749,846.15415 856.66832,817.12305 721.29688,817.12305 Z M 296.45703,935.48047 H 719.2207 c 210.31613,0 278.64844,105.19653 278.64844,179.18163 v 0.5313 l 0.0117,0.5293 c 2.00851,83.8718 -39.43191,137.4241 -108.62109,177.6933 -61.92794,36.0431 -145.9313,56.0326 -226.45899,59.834 -13.38202,0.4561 -26.78472,0.6816 -40.14258,0.6816 H 296.45703 Z m 0,507.11913 H 622.6582 c 22.07256,0 43.64034,0.3664 64.67188,1.0977 102.07291,4.2955 192.96779,21.4774 257.05273,54.166 74.94059,38.2258 115.09959,89.545 115.09959,183.5332 v 0.4336 l 0.01,0.4336 c 1.5478,79.161 -18.5154,135.5442 -66.9004,176.6074 -48.38492,41.0632 -132.19706,68.9355 -265.44141,68.9355 h -0.008 l -430.6836,0.1348 z"
       transform="translate(0,-288)"
       id="path5236-7-72-2"
       inkscape:connector-curvature="0" />
  </g>
</svg>
