<?xml version="1.0" encoding="UTF-8" standalone="no"?>
<!--?xml version="1.0" encoding="UTF-8" standalone="no"?-->

<svg
   xmlns:dc="http://purl.org/dc/elements/1.1/"
   xmlns:cc="http://creativecommons.org/ns#"
   xmlns:rdf="http://www.w3.org/1999/02/22-rdf-syntax-ns#"
   xmlns:svg="http://www.w3.org/2000/svg"
   xmlns="http://www.w3.org/2000/svg"
   xmlns:sodipodi="http://sodipodi.sourceforge.net/DTD/sodipodi-0.dtd"
   xmlns:inkscape="http://www.inkscape.org/namespaces/inkscape"
   version="1.1"
   viewBox="0 -288 1016 2048"
   id="svg6"
   sodipodi:docname="d.svg"
   width="1016"
   height="2048"
   inkscape:version="0.92.1 r">
  <metadata
     id="metadata12">
    <rdf:rdf>
      <cc:work
         rdf:about="">
        <dc:format>image/svg+xml</dc:format>
        <dc:type
           rdf:resource="http://purl.org/dc/dcmitype/StillImage" />
        <dc:title />
      </cc:work>
    </rdf:rdf>
    <rdf:RDF>
      <cc:Work
         rdf:about="">
        <dc:format>image/svg+xml</dc:format>
        <dc:type
           rdf:resource="http://purl.org/dc/dcmitype/StillImage" />
      </cc:Work>
    </rdf:RDF>
  </metadata>
  <defs
     id="defs10" />
  <sodipodi:namedview
     pagecolor="#ffffff"
     bordercolor="#666666"
     borderopacity="1"
     objecttolerance="10"
     gridtolerance="10"
     guidetolerance="10"
     inkscape:pageopacity="0"
     inkscape:pageshadow="2"
     inkscape:window-width="2558"
     inkscape:window-height="1402"
     id="namedview8"
     showgrid="false"
     inkscape:zoom="2.1916939"
     inkscape:cx="-190.5484"
     inkscape:cy="78.472149"
     inkscape:window-x="0"
     inkscape:window-y="18"
     inkscape:window-maximized="0"
     inkscape:current-layer="layer3"
     showguides="true"
     inkscape:guide-bbox="true">
    <sodipodi:guide
       position="490.72363,829.15372"
       orientation="1,0"
       id="guide7019"
       inkscape:locked="false" />
  </sodipodi:namedview>
  <g
     inkscape:groupmode="layer"
     id="layer3"
     inkscape:label="trace"
     style="display:inline">
    <path
       style="color:#000000;font-style:normal;font-variant:normal;font-weight:normal;font-stretch:normal;font-size:medium;line-height:normal;font-family:sans-serif;font-variant-ligatures:normal;font-variant-position:normal;font-variant-caps:normal;font-variant-numeric:normal;font-variant-alternates:normal;font-feature-settings:normal;text-indent:0;text-align:start;text-decoration:none;text-decoration-line:none;text-decoration-style:solid;text-decoration-color:#000000;letter-spacing:normal;word-spacing:normal;text-transform:none;writing-mode:lr-tb;direction:ltr;text-orientation:mixed;dominant-baseline:auto;baseline-shift:baseline;text-anchor:start;white-space:normal;shape-padding:0;clip-rule:nonzero;display:inline;overflow:visible;visibility:visible;opacity:1;isolation:auto;mix-blend-mode:normal;color-interpolation:sRGB;color-interpolation-filters:linearRGB;solid-color:#000000;solid-opacity:1;vector-effect:none;fill:#000000;fill-opacity:0.99708198;fill-rule:evenodd;stroke:none;stroke-width:89.3026123;stroke-linecap:butt;stroke-linejoin:miter;stroke-miterlimit:4;stroke-dasharray:none;stroke-dashoffset:0;stroke-opacity:1;color-rendering:auto;image-rendering:auto;shape-rendering:auto;text-rendering:auto;enable-background:accumulate"
       d="M 723.4082,752.27344 V 992.73242 1199.373 c -52.06983,-47.7421 -121.0008,-86.58 -205.17578,-86.58 l -84.59765,0 c -99.62105,0 -183.06638,55.2192 -234.76563,140.5547 -51.69925,85.3355 -76.75781,199.8669 -76.75781,332.5722 0,145.9791 36.04862,266.2458 102.46289,351.4922 66.35548,85.171 164.39739,132.8328 273.8789,131.5528 106.08671,-0.084 188.17339,-49.3612 245.82813,-102.3829 1.40408,6.0546 2.82354,12.1648 4.15625,17.9805 3.94865,17.2312 7.48259,33.0974 9.95508,45.2715 2.47249,12.1741 3.5283,24.1391 3.4414,18.9023 L 806.48047,2048 h 44.65039 v -166.541 -470.0606 h 0.0859 c 0,-1.3996 -0.035,-2.7207 -0.0859,-4.0078 V 992.73242 752.27344 H 812.71094 Z M 491.57812,1218.8438 c 106.38473,0 174.3924,50.7783 209.41211,87.0644 8.20842,10.2322 15.70148,20.6057 22.41797,30.7324 v 515.5977 c -28.67523,28.1495 -113.20339,99.5234 -233.27343,99.5234 -84.45251,0 -137.47298,-33.5895 -177.11524,-96.3965 -39.64226,-62.8069 -61.28906,-157.9771 -61.28906,-270.6445 0,-136.2825 23.75029,-229.951 62.8457,-285.5117 39.09541,-55.5607 92.00045,-80.3652 177.00195,-80.3652 z"
       transform="translate(0,-288)"
       id="path5236-72-2"
       inkscape:connector-curvature="0" />
  </g>
</svg>
