<?xml version="1.0" encoding="UTF-8" standalone="no"?>
<!--?xml version="1.0" encoding="UTF-8" standalone="no"?-->

<svg
   xmlns:dc="http://purl.org/dc/elements/1.1/"
   xmlns:cc="http://creativecommons.org/ns#"
   xmlns:rdf="http://www.w3.org/1999/02/22-rdf-syntax-ns#"
   xmlns:svg="http://www.w3.org/2000/svg"
   xmlns="http://www.w3.org/2000/svg"
   xmlns:sodipodi="http://sodipodi.sourceforge.net/DTD/sodipodi-0.dtd"
   xmlns:inkscape="http://www.inkscape.org/namespaces/inkscape"
   version="1.1"
   viewBox="0 -288 1024 2048"
   id="svg6"
   sodipodi:docname="eight.svg"
   width="1024"
   height="2048"
   inkscape:version="0.92.1 r">
  <metadata
     id="metadata12">
    <rdf:rdf>
      <cc:work
         rdf:about="">
        <dc:format>image/svg+xml</dc:format>
        <dc:type
           rdf:resource="http://purl.org/dc/dcmitype/StillImage" />
        <dc:title />
      </cc:work>
    </rdf:rdf>
    <rdf:RDF>
      <cc:Work
         rdf:about="">
        <dc:format>image/svg+xml</dc:format>
        <dc:type
           rdf:resource="http://purl.org/dc/dcmitype/StillImage" />
      </cc:Work>
    </rdf:RDF>
  </metadata>
  <defs
     id="defs10" />
  <sodipodi:namedview
     pagecolor="#ffffff"
     bordercolor="#666666"
     borderopacity="1"
     objecttolerance="10"
     gridtolerance="10"
     guidetolerance="10"
     inkscape:pageopacity="0"
     inkscape:pageshadow="2"
     inkscape:window-width="2558"
     inkscape:window-height="1402"
     id="namedview8"
     showgrid="false"
     inkscape:zoom="0.43342988"
     inkscape:cx="-4981.6047"
     inkscape:cy="1485.0467"
     inkscape:window-x="0"
     inkscape:window-y="18"
     inkscape:window-maximized="0"
     inkscape:current-layer="layer3"
     inkscape:measure-start="518.14,-132.547"
     inkscape:measure-end="518.14,289.194"
     showguides="true"
     inkscape:guide-bbox="true">
    <sodipodi:guide
       position="186.77207,501.25482"
       orientation="0,1"
       id="guide895"
       inkscape:locked="false" />
    <sodipodi:guide
       position="514.5623,791.70672"
       orientation="1,0"
       id="guide172"
       inkscape:locked="false" />
    <sodipodi:guide
       position="332.87455,183.7588"
       orientation="1,0"
       id="guide174"
       inkscape:locked="false" />
    <sodipodi:guide
       position="514.5623,205.59899"
       orientation="0,1"
       id="guide176"
       inkscape:locked="false" />
    <sodipodi:guide
       position="170.20282,953.0605"
       orientation="0,1"
       id="guide178"
       inkscape:locked="false" />
  </sodipodi:namedview>
  <g
     inkscape:groupmode="layer"
     id="layer3"
     inkscape:label="trace"
     style="display:inline">
    <path
       style="color:#000000;font-style:normal;font-variant:normal;font-weight:normal;font-stretch:normal;font-size:medium;line-height:normal;font-family:sans-serif;font-variant-ligatures:normal;font-variant-position:normal;font-variant-caps:normal;font-variant-numeric:normal;font-variant-alternates:normal;font-feature-settings:normal;text-indent:0;text-align:start;text-decoration:none;text-decoration-line:none;text-decoration-style:solid;text-decoration-color:#000000;letter-spacing:normal;word-spacing:normal;text-transform:none;writing-mode:lr-tb;direction:ltr;text-orientation:mixed;dominant-baseline:auto;baseline-shift:baseline;text-anchor:start;white-space:normal;shape-padding:0;clip-rule:nonzero;display:inline;overflow:visible;visibility:visible;opacity:1;isolation:auto;mix-blend-mode:normal;color-interpolation:sRGB;color-interpolation-filters:linearRGB;solid-color:#000000;solid-opacity:1;vector-effect:none;fill:#010000;fill-opacity:1;fill-rule:evenodd;stroke:none;stroke-width:88.67889404;stroke-linecap:butt;stroke-linejoin:round;stroke-miterlimit:4;stroke-dasharray:none;stroke-dashoffset:0;stroke-opacity:1;color-rendering:auto;image-rendering:auto;shape-rendering:auto;text-rendering:auto;enable-background:accumulate"
       d="m 465.34766,819.32031 c -53.33255,0 -122.71571,21.76914 -185.62696,72.23438 -62.91125,50.46524 -115.75407,133.63481 -115.7539,246.53911 a 44.343881,44.343881 0 0 0 0.0137,1.1113 c 2.21892,88.528 36.09055,162.1775 95.67187,215.5703 33.86941,30.3515 75.07998,54.6184 122.71875,75.4082 -52.79801,23.2274 -100.15129,50.9932 -139.54882,84.9336 -67.2802,57.9609 -110.85547,136.7782 -110.85547,229.9687 0,114.2172 49.18705,200.2832 122.58593,250.6934 73.39889,50.4102 166.47173,68.2207 260.09961,68.2207 93.62789,0 186.70268,-17.8105 260.10157,-68.2207 73.39888,-50.4102 122.58593,-136.4762 122.58593,-250.6934 0,-93.2545 -43.80368,-172.0732 -111.25,-230.0097 -39.45775,-33.8943 -86.85103,-61.6285 -139.64453,-84.836 48.07671,-20.8459 89.84617,-45.1905 124.16797,-75.623 60.2833,-53.4521 94.72656,-127.7326 94.72656,-216.5234 a 44.343881,44.343881 0 0 0 -0.0137,-1.1114 C 862.50994,1024.6172 810.07041,942.17305 747.91016,891.72656 685.7499,841.28007 617.29884,819.32031 563.95898,819.32031 Z m 48.95898,113.84375 c 67.53288,0 126.63484,19.39009 167.41797,53.19727 40.78313,33.80717 65.74414,81.06047 65.74414,150.08597 0,70.4218 -17.74086,115.733 -55.39453,154.2109 -35.86582,36.651 -94.17458,67.2278 -177.76758,92.7852 -83.57903,-25.5518 -141.6913,-56.0526 -177.375,-92.627 -37.4628,-38.3979 -55.09375,-83.7187 -55.09375,-154.3691 0,-69.0891 24.85243,-116.361 65.45508,-150.1348 40.60265,-33.77377 99.48079,-53.14844 167.01367,-53.14844 z m 0,543.10354 c 0.43515,0.132 0.86436,0.2679 1.29883,0.4004 166.26621,53.0618 260.99075,170.8823 259.82031,273.4062 l -0.004,0.252 v 0.2539 c 0,103.6218 -96.18089,197.2168 -260.42188,197.2168 -164.24099,0 -261.11523,-93.7512 -261.11523,-197.2168 v -0.2539 l -0.004,-0.252 c -1.17216,-102.6746 92.92305,-220.3589 259.12891,-273.4062 0.4339,-0.1323 0.86228,-0.2685 1.29687,-0.4004 z"
       transform="translate(0,-288)"
       id="path5848-2-9-9-9-6"
       inkscape:connector-curvature="0" />
  </g>
</svg>
