<?xml version="1.0" encoding="UTF-8" standalone="no"?>
<!--?xml version="1.0" encoding="UTF-8" standalone="no"?-->

<svg
   xmlns:dc="http://purl.org/dc/elements/1.1/"
   xmlns:cc="http://creativecommons.org/ns#"
   xmlns:rdf="http://www.w3.org/1999/02/22-rdf-syntax-ns#"
   xmlns:svg="http://www.w3.org/2000/svg"
   xmlns="http://www.w3.org/2000/svg"
   xmlns:sodipodi="http://sodipodi.sourceforge.net/DTD/sodipodi-0.dtd"
   xmlns:inkscape="http://www.inkscape.org/namespaces/inkscape"
   version="1.1"
   viewBox="0 -288 1392 2048"
   id="svg6"
   sodipodi:docname="G.svg"
   width="1392"
   height="2048"
   inkscape:version="0.92.1 r">
  <metadata
     id="metadata12">
    <rdf:rdf>
      <cc:work
         rdf:about="">
        <dc:format>image/svg+xml</dc:format>
        <dc:type
           rdf:resource="http://purl.org/dc/dcmitype/StillImage" />
        <dc:title />
      </cc:work>
    </rdf:rdf>
    <rdf:RDF>
      <cc:Work
         rdf:about="">
        <dc:format>image/svg+xml</dc:format>
        <dc:type
           rdf:resource="http://purl.org/dc/dcmitype/StillImage" />
      </cc:Work>
    </rdf:RDF>
  </metadata>
  <defs
     id="defs10" />
  <sodipodi:namedview
     pagecolor="#ffffff"
     bordercolor="#666666"
     borderopacity="1"
     objecttolerance="10"
     gridtolerance="10"
     guidetolerance="10"
     inkscape:pageopacity="0"
     inkscape:pageshadow="2"
     inkscape:window-width="2558"
     inkscape:window-height="1402"
     id="namedview8"
     showgrid="false"
     inkscape:zoom="1.9446258"
     inkscape:cx="350.94377"
     inkscape:cy="909.8738"
     inkscape:window-x="0"
     inkscape:window-y="18"
     inkscape:window-maximized="0"
     inkscape:current-layer="layer2" />
  <g
     inkscape:groupmode="layer"
     id="layer2"
     inkscape:label="trace"
     style="display:inline">
    <path
       style="color:#000000;font-style:normal;font-variant:normal;font-weight:normal;font-stretch:normal;font-size:medium;line-height:normal;font-family:sans-serif;font-variant-ligatures:normal;font-variant-position:normal;font-variant-caps:normal;font-variant-numeric:normal;font-variant-alternates:normal;font-feature-settings:normal;text-indent:0;text-align:start;text-decoration:none;text-decoration-line:none;text-decoration-style:solid;text-decoration-color:#000000;letter-spacing:normal;word-spacing:normal;text-transform:none;writing-mode:lr-tb;direction:ltr;text-orientation:mixed;dominant-baseline:auto;baseline-shift:baseline;text-anchor:start;white-space:normal;shape-padding:0;clip-rule:nonzero;display:inline;overflow:visible;visibility:visible;opacity:1;isolation:auto;mix-blend-mode:normal;color-interpolation:sRGB;color-interpolation-filters:linearRGB;solid-color:#000000;solid-opacity:1;vector-effect:none;fill:#000000;fill-opacity:1;fill-rule:evenodd;stroke:none;stroke-width:88.94813538;stroke-linecap:butt;stroke-linejoin:miter;stroke-miterlimit:4;stroke-dasharray:none;stroke-dashoffset:0;stroke-opacity:1;color-rendering:auto;image-rendering:auto;shape-rendering:auto;text-rendering:auto;enable-background:accumulate"
       d="m 660.98828,810.37109 c -190.19282,0 -329.41586,72.61133 -414.90234,188.42774 -85.48648,115.81637 -118.74414,269.63607 -118.74414,433.71287 0,181.4577 48.75971,338.8125 147.74609,451.4063 98.98638,112.5937 247.39712,176.8828 432.17188,176.8828 175.00475,0 304.58753,-39.8618 391.93753,-109.6738 6.4825,-5.181 12.7036,-10.5313 18.6797,-16.0313 0.6254,3.217 1.0986,5.6096 1.7265,8.8457 4.9894,25.7152 9.9778,51.6529 13.6934,71.4727 1.8577,9.9098 3.3993,18.3125 4.4375,24.2246 0.4934,2.8102 0.853,4.9638 1.0742,6.3652 -0.011,-0.8703 -0.025,-1.4706 -0.025,-2.9766 h 88.9473 V 1424.9512 H 1187.7422 785 v 88.9472 h 313.793 v 307.5606 c -2.5883,2.6507 -6.6066,6.3721 -12.3067,10.7695 -48.151,37.1467 -187.63965,103.3653 -379.69333,103.3653 -150.34569,0 -259.03894,-58.5332 -334.08789,-150.1407 -75.04895,-91.6074 -114.9961,-218.5125 -114.9961,-352.7715 0,-158.9991 39.16885,-288.6528 112.29102,-377.123 73.12217,-88.47018 180.27664,-139.89844 333.25977,-139.89844 273.21969,0 383.26563,144.63584 383.26563,234.21684 h 88.9492 c 0,-0.2024 -0.01,-0.4051 -0.01,-0.6075 h 56.9374 c 0,-92.4221 -50.1328,-178.99725 -132.0976,-240.1777 -81.9648,-61.18046 -196.1711,-98.72071 -331.60743,-98.72071 z M 1138.8086,2046.0039 c 0.061,4.8082 0.2385,1.497 0.057,0.3301 -0.011,-0.068 -0.045,-0.2574 -0.057,-0.3301 z"
       transform="translate(0,-288)"
       id="path5236-7-72-2"
       inkscape:connector-curvature="0" />
  </g>
</svg>
