<?xml version="1.0" encoding="UTF-8" standalone="no"?>
<!--?xml version="1.0" encoding="UTF-8" standalone="no"?-->

<svg
   xmlns:dc="http://purl.org/dc/elements/1.1/"
   xmlns:cc="http://creativecommons.org/ns#"
   xmlns:rdf="http://www.w3.org/1999/02/22-rdf-syntax-ns#"
   xmlns:svg="http://www.w3.org/2000/svg"
   xmlns="http://www.w3.org/2000/svg"
   xmlns:sodipodi="http://sodipodi.sourceforge.net/DTD/sodipodi-0.dtd"
   xmlns:inkscape="http://www.inkscape.org/namespaces/inkscape"
   version="1.1"
   viewBox="0 -288 944 2048"
   id="svg6"
   sodipodi:docname="g.svg"
   width="944"
   height="2048"
   inkscape:version="0.92.1 r">
  <metadata
     id="metadata12">
    <rdf:rdf>
      <cc:work
         rdf:about="">
        <dc:format>image/svg+xml</dc:format>
        <dc:type
           rdf:resource="http://purl.org/dc/dcmitype/StillImage" />
        <dc:title />
      </cc:work>
    </rdf:rdf>
    <rdf:RDF>
      <cc:Work
         rdf:about="">
        <dc:format>image/svg+xml</dc:format>
        <dc:type
           rdf:resource="http://purl.org/dc/dcmitype/StillImage" />
      </cc:Work>
    </rdf:RDF>
  </metadata>
  <defs
     id="defs10" />
  <sodipodi:namedview
     pagecolor="#ffffff"
     bordercolor="#666666"
     borderopacity="1"
     objecttolerance="10"
     gridtolerance="10"
     guidetolerance="10"
     inkscape:pageopacity="0"
     inkscape:pageshadow="2"
     inkscape:window-width="2558"
     inkscape:window-height="1402"
     id="namedview8"
     showgrid="false"
     inkscape:zoom="1.0073136"
     inkscape:cx="-1498.1626"
     inkscape:cy="441.63857"
     inkscape:window-x="0"
     inkscape:window-y="18"
     inkscape:window-maximized="0"
     inkscape:current-layer="layer3"
     inkscape:measure-start="186.958,-216.373"
     inkscape:measure-end="186.958,-156.795" />
  <g
     inkscape:groupmode="layer"
     id="layer3"
     inkscape:label="trace">
    <path
       style="color:#000000;font-style:normal;font-variant:normal;font-weight:normal;font-stretch:normal;font-size:medium;line-height:normal;font-family:sans-serif;font-variant-ligatures:normal;font-variant-position:normal;font-variant-caps:normal;font-variant-numeric:normal;font-variant-alternates:normal;font-feature-settings:normal;text-indent:0;text-align:start;text-decoration:none;text-decoration-line:none;text-decoration-style:solid;text-decoration-color:#000000;letter-spacing:normal;word-spacing:normal;text-transform:none;writing-mode:lr-tb;direction:ltr;text-orientation:mixed;dominant-baseline:auto;baseline-shift:baseline;text-anchor:start;white-space:normal;shape-padding:0;clip-rule:nonzero;display:inline;overflow:visible;visibility:visible;opacity:1;isolation:auto;mix-blend-mode:normal;color-interpolation:sRGB;color-interpolation-filters:linearRGB;solid-color:#000000;solid-opacity:1;vector-effect:none;fill:#000000;fill-opacity:1;fill-rule:evenodd;stroke:none;stroke-width:89.02451324;stroke-linecap:butt;stroke-linejoin:miter;stroke-miterlimit:4;stroke-dasharray:none;stroke-dashoffset:0;stroke-opacity:1;color-rendering:auto;image-rendering:auto;shape-rendering:auto;text-rendering:auto;enable-background:accumulate"
       d="m 399.63477,1115.0742 c -96.76603,0 -175.43546,47.1547 -219.44532,126.0176 -44.00986,78.8629 -59.93945,184.6401 -59.93945,315.7754 0,144.9514 17.4719,256.2862 67.77148,336.9824 50.24889,80.6149 137.33951,122.2127 244.39649,120.9707 92.78388,-0.069 165.77801,-40.7604 220.06445,-89.7148 v 28.2129 c 0,72.7898 -18.46282,116.8918 -50.88281,145.9257 -32.41999,29.034 -85.15169,46.3399 -163.88477,46.3399 -140.44778,0 -239.66406,-14.7598 -239.66406,-14.7598 l -5.78516,38.9492 c -2.11887,-0.2981 -3.34179,-0.4902 -3.34179,-0.4902 l -13.97071,87.9219 c 0,0 84.30233,13.1953 252.49219,13.1953 h 0.70703 l 0.70508,-0.023 c 91.36243,-2.899 181.02758,-17.3289 249.57813,-72.4942 68.22343,-54.902 105.62558,-148.4664 99.23633,-281.1699 v -795.168 h -89.02344 c 0,1.2176 -5.07696,34.6776 -12.49805,67.9844 -0.39847,1.7884 -0.84074,3.697 -1.24805,5.5098 -45.13316,-44.8109 -108.51241,-79.9649 -190.66992,-79.9649 z m 39.94335,105.666 c 83.64447,0 137.5255,26.8438 172.04297,52.8731 21.35278,16.1019 34.17443,30.7747 40.86133,39.6367 v 474.3086 c -22.09739,28.3979 -98.11094,112.9102 -220.34765,112.9102 -85.24572,0 -120.25811,-28.1475 -146.8086,-83.004 -26.55048,-54.8564 -35.73437,-141.8486 -35.73437,-241.1875 0,-126.652 12.57633,-221.2761 41.03906,-276.5488 28.46273,-55.2727 64.97864,-78.9883 148.94726,-78.9883 z"
       transform="translate(0,-288)"
       id="path5829-3-3"
       inkscape:connector-curvature="0" />
  </g>
</svg>
