<?xml version="1.0" encoding="UTF-8" standalone="no"?>
<!--?xml version="1.0" encoding="UTF-8" standalone="no"?-->

<svg
   xmlns:dc="http://purl.org/dc/elements/1.1/"
   xmlns:cc="http://creativecommons.org/ns#"
   xmlns:rdf="http://www.w3.org/1999/02/22-rdf-syntax-ns#"
   xmlns:svg="http://www.w3.org/2000/svg"
   xmlns="http://www.w3.org/2000/svg"
   xmlns:sodipodi="http://sodipodi.sourceforge.net/DTD/sodipodi-0.dtd"
   xmlns:inkscape="http://www.inkscape.org/namespaces/inkscape"
   version="1.1"
   viewBox="0 -288 1040 2048"
   id="svg6"
   sodipodi:docname="nine.svg"
   width="1040"
   height="2048"
   inkscape:version="0.92.1 r">
  <metadata
     id="metadata12">
    <rdf:rdf>
      <cc:work
         rdf:about="">
        <dc:format>image/svg+xml</dc:format>
        <dc:type
           rdf:resource="http://purl.org/dc/dcmitype/StillImage" />
        <dc:title />
      </cc:work>
    </rdf:rdf>
    <rdf:RDF>
      <cc:Work
         rdf:about="">
        <dc:format>image/svg+xml</dc:format>
        <dc:type
           rdf:resource="http://purl.org/dc/dcmitype/StillImage" />
      </cc:Work>
    </rdf:RDF>
  </metadata>
  <defs
     id="defs10" />
  <sodipodi:namedview
     pagecolor="#ffffff"
     bordercolor="#666666"
     borderopacity="1"
     objecttolerance="10"
     gridtolerance="10"
     guidetolerance="10"
     inkscape:pageopacity="0"
     inkscape:pageshadow="2"
     inkscape:window-width="2558"
     inkscape:window-height="1402"
     id="namedview8"
     showgrid="false"
     inkscape:zoom="0.66974485"
     inkscape:cx="502.82518"
     inkscape:cy="-21.990081"
     inkscape:window-x="0"
     inkscape:window-y="18"
     inkscape:window-maximized="0"
     inkscape:current-layer="layer3"
     showguides="true"
     inkscape:guide-bbox="true"
     inkscape:measure-start="513.27,-28.08"
     inkscape:measure-end="513.27,158.652">
    <sodipodi:guide
       position="1065.0344,577.42827"
       orientation="0,1"
       id="guide44"
       inkscape:locked="false" />
    <sodipodi:guide
       position="513.26958,889.05623"
       orientation="1,0"
       id="guide61"
       inkscape:locked="false" />
    <sodipodi:guide
       position="286.55127,7.1488883"
       orientation="1,0"
       id="guide48"
       inkscape:locked="false" />
    <sodipodi:guide
       position="852.93056,248.53885"
       orientation="0,1"
       id="guide50"
       inkscape:locked="false" />
    <sodipodi:guide
       position="1269.6161,908.44409"
       orientation="0,1"
       id="guide52"
       inkscape:locked="false" />
    <sodipodi:guide
       position="748.77593,1110.8423"
       orientation="1,0"
       id="guide54"
       inkscape:locked="false" />
    <sodipodi:guide
       position="469.83442,686.23119"
       orientation="1,0"
       id="guide51"
       inkscape:locked="false" />
    <sodipodi:guide
       position="553.6638,736.91872"
       orientation="1,0"
       id="guide53"
       inkscape:locked="false" />
    <sodipodi:guide
       position="741.98791,1528.4331"
       orientation="1,0"
       id="guide55"
       inkscape:locked="false" />
  </sodipodi:namedview>
  <g
     inkscape:groupmode="layer"
     id="layer3"
     inkscape:label="trace">
    <g
       transform="matrix(1,0,0,-0.79013247,0,1761.5208)"
       id="g4"
       style="display:inline;fill:#b3b3b3;stroke-width:1.12499356" />
    <path
       style="color:#000000;font-style:normal;font-variant:normal;font-weight:normal;font-stretch:normal;font-size:medium;line-height:normal;font-family:sans-serif;font-variant-ligatures:normal;font-variant-position:normal;font-variant-caps:normal;font-variant-numeric:normal;font-variant-alternates:normal;font-feature-settings:normal;text-indent:0;text-align:start;text-decoration:none;text-decoration-line:none;text-decoration-style:solid;text-decoration-color:#000000;letter-spacing:normal;word-spacing:normal;text-transform:none;writing-mode:lr-tb;direction:ltr;text-orientation:mixed;dominant-baseline:auto;baseline-shift:baseline;text-anchor:start;white-space:normal;shape-padding:0;clip-rule:nonzero;display:inline;overflow:visible;visibility:visible;opacity:1;isolation:auto;mix-blend-mode:normal;color-interpolation:sRGB;color-interpolation-filters:linearRGB;solid-color:#000000;solid-opacity:1;vector-effect:none;fill:#000000;fill-opacity:1;fill-rule:evenodd;stroke:none;stroke-width:88.88939667;stroke-linecap:butt;stroke-linejoin:miter;stroke-miterlimit:4;stroke-dasharray:none;stroke-dashoffset:0;stroke-opacity:1;color-rendering:auto;image-rendering:auto;shape-rendering:auto;text-rendering:auto;enable-background:accumulate"
       d="m 512.0625,539.78906 c -100.09195,0 -189.21024,23.63059 -251.13477,88.86328 -61.92452,65.2327 -91.06054,164.58453 -91.06054,301.41797 0,120.71649 28.97202,218.18569 89.16406,285.98439 60.19204,67.7987 149.4456,100.9648 253.03125,100.9648 68.4417,0 124.2923,-13.1299 168.40039,-31.1836 -31.86635,68.4798 -69.25302,132.6551 -107.01172,189.6153 -49.54631,74.7421 -99.28631,137.0612 -136.59375,180.9629 -18.65372,21.9508 -34.17368,39.2747 -45.17187,51.4472 -5.4991,6.0863 -9.8277,10.8341 -13.14844,14.5703 -1.66037,1.8681 -3.01322,3.3983 -4.58789,5.3243 -0.78734,0.9629 -1.58424,1.9086 -3.01953,3.9843 -0.71765,1.0379 -1.59673,2.2694 -3.01758,4.9766 -1.42086,2.7072 -5.16602,4.8282 -5.16602,20.8633 h 88.89063 c 0,15.9431 -3.69522,17.9258 -5.01758,20.4453 -1.32236,2.5195 -2.05396,3.5143 -2.57617,4.2695 -1.04442,1.5105 -1.25935,1.7026 -1.27735,1.7246 -0.036,0.044 0.89517,-1.0545 2.2129,-2.5371 2.63544,-2.9652 7.04299,-7.8102 12.6621,-14.0293 11.23824,-12.4382 27.48532,-30.572 46.95118,-53.4785 38.93172,-45.813 90.84331,-110.8068 142.94922,-189.4101 104.21181,-157.2068 210.70312,-369.0465 210.70312,-594.49419 0,-136.93794 -29.70438,-236.49266 -92.42187,-301.64648 -62.7175,-65.15382 -152.62211,-88.63477 -253.75977,-88.63477 z m 0,88.88867 c 87.84944,0 148.81366,18.89849 189.71875,61.39258 40.90509,42.49409 67.57422,115.85818 67.57422,240 0,71.00979 -12.72051,142.25269 -33.46485,211.37889 -5.46635,7.0432 -18.1369,21.2595 -43.2871,38.0586 -35.42993,23.6655 -92.12872,48.6211 -180.54102,48.6211 -85.53136,0 -145.15488,-24.4518 -186.55859,-71.0879 -41.40372,-46.636 -66.74805,-120.417 -66.74805,-226.97069 0,-124.2336 26.37346,-197.8004 66.64062,-240.21875 40.26717,-42.41835 100.02468,-61.17383 186.66602,-61.17383 z"
       id="path5546-1-6-6-0-9-4"
       inkscape:connector-curvature="0" />
    <path
       style="color:#000000;font-style:normal;font-variant:normal;font-weight:normal;font-stretch:normal;font-size:medium;line-height:normal;font-family:sans-serif;font-variant-ligatures:normal;font-variant-position:normal;font-variant-caps:normal;font-variant-numeric:normal;font-variant-alternates:normal;font-feature-settings:normal;text-indent:0;text-align:start;text-decoration:none;text-decoration-line:none;text-decoration-style:solid;text-decoration-color:#000000;letter-spacing:normal;word-spacing:normal;text-transform:none;writing-mode:lr-tb;direction:ltr;text-orientation:mixed;dominant-baseline:auto;baseline-shift:baseline;text-anchor:start;white-space:normal;shape-padding:0;clip-rule:nonzero;display:inline;overflow:visible;visibility:visible;opacity:1;isolation:auto;mix-blend-mode:normal;color-interpolation:sRGB;color-interpolation-filters:linearRGB;solid-color:#000000;solid-opacity:1;vector-effect:none;fill:#000000;fill-opacity:1;fill-rule:evenodd;stroke:none;stroke-width:88.88939667;stroke-linecap:butt;stroke-linejoin:miter;stroke-miterlimit:4;stroke-dasharray:none;stroke-dashoffset:0;stroke-opacity:1;color-rendering:auto;image-rendering:auto;shape-rendering:auto;text-rendering:auto;enable-background:accumulate"
       d="m 470.20898,512.13477 c -102.97611,0 -191.06627,40.55164 -248.88281,113.05859 -57.81653,72.50695 -85.86133,173.07494 -85.86133,292.23437 0,119.52637 29.64373,222.76057 89.46485,297.77737 59.82112,75.0168 150.67167,118.6015 257.42383,118.6015 86.25202,0 171.93063,-18.9999 243.03125,-65.041 -31.70256,76.5285 -69.96104,147.3856 -108.62305,209.2578 -46.7427,74.8041 -93.63959,136.514 -128.81836,179.8711 -17.58939,21.6786 -32.2196,38.7406 -42.625,50.791 -5.2027,6.0253 -9.3053,10.7391 -12.52344,14.5547 -1.60907,1.9079 -2.94194,3.4962 -4.55469,5.6075 -0.80637,1.0556 -1.64973,2.1285 -3.10156,4.4316 -0.72591,1.1515 -1.61937,2.5437 -2.92773,5.3633 -1.30837,2.8196 -4.19727,5.9647 -4.19727,18.9375 h 88.88867 c 0,12.8653 -2.84324,15.8574 -4.05859,18.4765 -1.21535,2.6192 -1.96842,3.7663 -2.50977,4.625 -1.08269,1.7175 -1.37524,2.0205 -1.45507,2.125 -0.15966,0.209 0.66188,-0.831 1.86523,-2.2578 2.4067,-2.8535 6.55455,-7.6351 11.85156,-13.7695 10.59402,-12.2689 25.96344,-30.1895 44.37305,-52.8789 36.81922,-45.3789 85.92116,-109.9495 135.17578,-188.7734 98.50925,-157.648 198.74805,-372.6975 198.74805,-607.69927 0,-117.92111 -27.64545,-217.78829 -85.49805,-290.16796 C 747.5423,554.88055 659.31595,513.94957 554.91797,512.21289 h -0.002 c -4.81189,-0.0801 -6.62791,-0.0247 -14.43946,-0.0332 -7.8126,-0.008 -18.02873,-0.0168 -28.24609,-0.0234 -20.43472,-0.0132 -40.66417,-0.0215 -42.02149,-0.0215 z m 0,88.88867 c 0.91211,0 21.5437,0.008 41.96485,0.0215 10.21057,0.007 20.41953,0.015 28.20703,0.0234 7.7875,0.008 16.74734,0.083 13.05664,0.0215 83.2405,1.38433 141.14906,29.90673 182.52148,81.66797 41.37243,51.76125 66.04297,130.7218 66.04297,234.66992 0,126.63977 -38.53778,204.68227 -95.45898,254.62107 -56.92121,49.9389 -136.67494,72.8672 -224.18945,72.8672 -83.78987,0 -144.16023,-30.248 -187.92579,-85.1308 -43.76555,-54.8828 -70.07421,-137.6153 -70.07421,-242.35747 0,-105.10924 25.12784,-184.96642 66.47265,-236.8164 41.34482,-51.84999 98.40593,-79.58789 179.38281,-79.58789 z"
       id="path5546-0-3-2-5-5-3"
       inkscape:connector-curvature="0" />
  </g>
</svg>
