<?xml version="1.0" encoding="UTF-8" standalone="no"?>
<!--?xml version="1.0" encoding="UTF-8" standalone="no"?-->

<svg
   xmlns:dc="http://purl.org/dc/elements/1.1/"
   xmlns:cc="http://creativecommons.org/ns#"
   xmlns:rdf="http://www.w3.org/1999/02/22-rdf-syntax-ns#"
   xmlns:svg="http://www.w3.org/2000/svg"
   xmlns="http://www.w3.org/2000/svg"
   xmlns:sodipodi="http://sodipodi.sourceforge.net/DTD/sodipodi-0.dtd"
   xmlns:inkscape="http://www.inkscape.org/namespaces/inkscape"
   version="1.1"
   viewBox="0 -288 1016 2048"
   id="svg6"
   sodipodi:docname="p.svg"
   width="1016"
   height="2048"
   inkscape:version="0.92.1 r">
  <metadata
     id="metadata12">
    <rdf:rdf>
      <cc:work
         rdf:about="">
        <dc:format>image/svg+xml</dc:format>
        <dc:type
           rdf:resource="http://purl.org/dc/dcmitype/StillImage" />
        <dc:title />
      </cc:work>
    </rdf:rdf>
    <rdf:RDF>
      <cc:Work
         rdf:about="">
        <dc:format>image/svg+xml</dc:format>
        <dc:type
           rdf:resource="http://purl.org/dc/dcmitype/StillImage" />
      </cc:Work>
    </rdf:RDF>
  </metadata>
  <defs
     id="defs10" />
  <sodipodi:namedview
     pagecolor="#ffffff"
     bordercolor="#666666"
     borderopacity="1"
     objecttolerance="10"
     gridtolerance="10"
     guidetolerance="10"
     inkscape:pageopacity="0"
     inkscape:pageshadow="2"
     inkscape:window-width="2558"
     inkscape:window-height="1402"
     id="namedview8"
     showgrid="false"
     inkscape:zoom="1.1921616"
     inkscape:cx="-1232.5178"
     inkscape:cy="411.69144"
     inkscape:window-x="0"
     inkscape:window-y="18"
     inkscape:window-maximized="0"
     inkscape:current-layer="layer2" />
  <g
     inkscape:groupmode="layer"
     id="layer2"
     inkscape:label="trace">
    <path
       style="color:#000000;font-style:normal;font-variant:normal;font-weight:normal;font-stretch:normal;font-size:medium;line-height:normal;font-family:sans-serif;font-variant-ligatures:normal;font-variant-position:normal;font-variant-caps:normal;font-variant-numeric:normal;font-variant-alternates:normal;font-feature-settings:normal;text-indent:0;text-align:start;text-decoration:none;text-decoration-line:none;text-decoration-style:solid;text-decoration-color:#000000;letter-spacing:normal;word-spacing:normal;text-transform:none;writing-mode:lr-tb;direction:ltr;text-orientation:mixed;dominant-baseline:auto;baseline-shift:baseline;text-anchor:start;white-space:normal;shape-padding:0;clip-rule:nonzero;display:inline;overflow:visible;visibility:visible;opacity:1;isolation:auto;mix-blend-mode:normal;color-interpolation:sRGB;color-interpolation-filters:linearRGB;solid-color:#000000;solid-opacity:1;vector-effect:none;fill:#000000;fill-opacity:0.99708198;fill-rule:evenodd;stroke:none;stroke-width:89.41390228;stroke-linecap:butt;stroke-linejoin:miter;stroke-miterlimit:4;stroke-dasharray:none;stroke-dashoffset:0;stroke-opacity:1;color-rendering:auto;image-rendering:auto;shape-rendering:auto;text-rendering:auto;enable-background:accumulate"
       d="m 507.11133,1111.6738 c -54.36802,0 -106.40632,28.2996 -165.06836,60.92 -15.46107,8.5974 -30.93364,17.6694 -46.09961,26.9335 -6.39041,3.5997 -12.45089,7.1405 -18.13281,10.5684 -3.05925,-12.5694 -6.17086,-25.3141 -9.02149,-37.1543 -3.97508,-16.5106 -7.53517,-31.5956 -10.01172,-42.8281 -1.23827,-5.6162 -2.20776,-10.3033 -2.77539,-13.3692 -0.28381,-1.5329 -0.37866,-3.2768 -0.40234,-3.7656 -0.0237,-0.4888 0.0234,0.2783 0.0234,3.7695 h -89.41211 l -0.002,237.8125 V 2276 h 89.41407 38.42187 v -286.168 c 62.43933,40.5245 147.00847,79.0371 242.98438,79.0371 115.44188,0 208.38011,-61.3488 265.43164,-153.5644 57.05153,-92.2156 83.24609,-213.9279 83.24609,-347.9356 0,-129.3431 -18.32956,-238.3982 -63.39648,-320.3652 -45.06698,-81.967 -123.71762,-134.6484 -220.62305,-134.6484 h 0.32227 l -94.73829,-0.6817 z m 34.72265,105.7285 c 64.33612,0.1284 108.65391,9.7419 142.74805,50.3165 35.19395,41.8834 64.05664,129.9797 64.05664,298.9335 0,115.6959 -18.90516,215.9121 -57.25,282.2383 -38.32727,66.2959 -90.1302,102.1016 -180.53125,102.5801 -75.01231,-0.018 -131.30327,-19.765 -169.79101,-40.5469 -17.82099,-11.6637 -33.65803,-23.4112 -47.02149,-34.0351 v -522.3282 -47.414 c 41.9571,-26.8471 149.95737,-89.7285 241.18555,-89.7285 h 0.1582 0.15625 c 2.11735,-0.015 4.21371,-0.02 6.28906,-0.016 z"
       transform="translate(0,-288)"
       id="path5236-72-2"
       inkscape:connector-curvature="0" />
  </g>
</svg>
