<?xml version="1.0" encoding="UTF-8" standalone="no"?>
<!--?xml version="1.0" encoding="UTF-8" standalone="no"?-->

<svg
   xmlns:dc="http://purl.org/dc/elements/1.1/"
   xmlns:cc="http://creativecommons.org/ns#"
   xmlns:rdf="http://www.w3.org/1999/02/22-rdf-syntax-ns#"
   xmlns:svg="http://www.w3.org/2000/svg"
   xmlns="http://www.w3.org/2000/svg"
   xmlns:sodipodi="http://sodipodi.sourceforge.net/DTD/sodipodi-0.dtd"
   xmlns:inkscape="http://www.inkscape.org/namespaces/inkscape"
   version="1.1"
   viewBox="0 -288 1448 2048"
   id="svg6"
   sodipodi:docname="Q.svg"
   width="1448"
   height="2048"
   inkscape:version="0.92.1 r">
  <metadata
     id="metadata12">
    <rdf:rdf>
      <cc:work
         rdf:about="">
        <dc:format>image/svg+xml</dc:format>
        <dc:type
           rdf:resource="http://purl.org/dc/dcmitype/StillImage" />
        <dc:title />
      </cc:work>
    </rdf:rdf>
    <rdf:RDF>
      <cc:Work
         rdf:about="">
        <dc:format>image/svg+xml</dc:format>
        <dc:type
           rdf:resource="http://purl.org/dc/dcmitype/StillImage" />
      </cc:Work>
    </rdf:RDF>
  </metadata>
  <defs
     id="defs10" />
  <sodipodi:namedview
     pagecolor="#ffffff"
     bordercolor="#666666"
     borderopacity="1"
     objecttolerance="10"
     gridtolerance="10"
     guidetolerance="10"
     inkscape:pageopacity="0"
     inkscape:pageshadow="2"
     inkscape:window-width="2558"
     inkscape:window-height="1402"
     id="namedview8"
     showgrid="false"
     inkscape:zoom="0.86685979"
     inkscape:cx="93.995241"
     inkscape:cy="-316.49145"
     inkscape:window-x="0"
     inkscape:window-y="18"
     inkscape:window-maximized="0"
     inkscape:current-layer="layer5"
     showguides="true"
     inkscape:guide-bbox="true"
     inkscape:measure-start="1179.37,-369.024"
     inkscape:measure-end="1179.37,-60.2488">
    <sodipodi:guide
       position="1149.8305,670.37288"
       orientation="1,0"
       id="guide969"
       inkscape:locked="false" />
    <sodipodi:guide
       position="373.24241,1370.8989"
       orientation="1,0"
       id="guide4555"
       inkscape:locked="false" />
    <sodipodi:guide
       position="347.07582,1457.8992"
       orientation="1,0"
       id="guide4557"
       inkscape:locked="false" />
    <sodipodi:guide
       position="201.10513,1171.3809"
       orientation="0,1"
       id="guide4559"
       inkscape:locked="false" />
    <sodipodi:guide
       position="720.3631,1549.8653"
       orientation="1,0"
       id="guide4561"
       inkscape:locked="false" />
  </sodipodi:namedview>
  <g
     inkscape:groupmode="layer"
     id="layer3"
     inkscape:label="trace"
     style="display:inline" />
  <g
     inkscape:groupmode="layer"
     id="layer4"
     inkscape:label="trace2" />
  <g
     inkscape:groupmode="layer"
     id="layer5"
     inkscape:label="trace3">
    <path
       style="color:#000000;font-style:normal;font-variant:normal;font-weight:normal;font-stretch:normal;font-size:medium;line-height:normal;font-family:sans-serif;font-variant-ligatures:normal;font-variant-position:normal;font-variant-caps:normal;font-variant-numeric:normal;font-variant-alternates:normal;font-feature-settings:normal;text-indent:0;text-align:start;text-decoration:none;text-decoration-line:none;text-decoration-style:solid;text-decoration-color:#000000;letter-spacing:normal;word-spacing:normal;text-transform:none;writing-mode:lr-tb;direction:ltr;text-orientation:mixed;dominant-baseline:auto;baseline-shift:baseline;text-anchor:start;white-space:normal;shape-padding:0;clip-rule:nonzero;display:inline;overflow:visible;visibility:visible;opacity:1;isolation:auto;mix-blend-mode:normal;color-interpolation:sRGB;color-interpolation-filters:linearRGB;solid-color:#000000;solid-opacity:1;vector-effect:none;fill:#000000;fill-opacity:1;fill-rule:evenodd;stroke:none;stroke-width:88.80220032;stroke-linecap:butt;stroke-linejoin:miter;stroke-miterlimit:4;stroke-dasharray:none;stroke-dashoffset:0;stroke-opacity:1;color-rendering:auto;image-rendering:auto;shape-rendering:auto;text-rendering:auto;enable-background:accumulate"
       d="m 676.98828,817.76562 c -164.53194,10e-6 -302.80103,72.21403 -396.68945,185.94138 -93.88843,113.7274 -144.88477,267.6964 -144.88477,434.2325 0,179.7568 50.24894,335.6867 149.24024,447.5468 98.99093,111.8598 245.97971,176.6648 426.57226,178.7032 3.00062,0.034 6.01138,0.051 9.03125,0.051 9.11251,0 18.13761,-0.1644 27.08008,-0.4785 24.20812,42.4034 53.99045,78.324 88.45313,107.9219 C 935.12732,2256.9975 1067.5356,2288 1204.627,2288 v -22.0801 -66.7226 -22.0801 c -124.8968,0 -235.35412,-23.6482 -312.24614,-84.8887 -14.7285,-11.7305 -28.49316,-24.8987 -41.12891,-39.7539 123.97823,-23.2504 226.76285,-80.2147 302.18755,-164.2129 100.5989,-112.0342 151.6621,-269.078 151.6621,-450.3222 0,-166.5291 -50.9548,-320.4973 -144.8262,-434.2286 C 1066.404,889.97936 928.12946,817.76564 763.5293,817.76562 Z m 43.99024,125.73047 c 162.34147,0 271.33234,58.41531 344.30078,148.87891 72.9684,90.4636 108.8809,216.4454 108.8809,350.7344 0,150.7584 -37.33,272.0147 -105.9454,356.6875 -63.3942,78.2298 -153.79609,128.0866 -277.61324,141.6972 -11.11949,-33.8391 -18.94769,-72.6164 -22.89453,-117.2304 -0.20746,-2.3452 -0.40192,-4.7085 -0.58789,-7.086 -0.1942,-2.494 -0.37824,-5.0049 -0.54883,-7.5312 -1.01577,-15.0431 -1.60844,-30.662 -1.76367,-46.8789 -0.001,-0.1257 -0.005,-0.2492 -0.006,-0.375 -0.0247,-2.7218 -0.0371,-5.4619 -0.0371,-8.2207 h -88.80078 c 0,3.0375 0.0152,6.0605 0.0449,9.0683 1e-5,7e-4 0,0 0,0 0.65991,67.4353 8.7013,127.9319 23.17578,181.6855 -143.21041,-4.2656 -246.68925,-52.3293 -318.03906,-133.2285 -74.80325,-84.8148 -115.50781,-209.7179 -115.50781,-367.8027 0,-134.656 36.19935,-260.786 109.58008,-351.3613 73.38072,-90.5754 182.96202,-149.03911 345.76172,-149.03911 z"
       transform="translate(0,-288)"
       id="path144"
       inkscape:connector-curvature="0" />
  </g>
</svg>
