<?xml version="1.0" encoding="UTF-8" standalone="no"?>
<!--?xml version="1.0" encoding="UTF-8" standalone="no"?-->

<svg
   xmlns:dc="http://purl.org/dc/elements/1.1/"
   xmlns:cc="http://creativecommons.org/ns#"
   xmlns:rdf="http://www.w3.org/1999/02/22-rdf-syntax-ns#"
   xmlns:svg="http://www.w3.org/2000/svg"
   xmlns="http://www.w3.org/2000/svg"
   xmlns:sodipodi="http://sodipodi.sourceforge.net/DTD/sodipodi-0.dtd"
   xmlns:inkscape="http://www.inkscape.org/namespaces/inkscape"
   version="1.1"
   viewBox="0 -288 1016 2048"
   id="svg6"
   sodipodi:docname="two.svg"
   width="1016"
   height="2048"
   inkscape:version="0.92.1 r">
  <metadata
     id="metadata12">
    <rdf:rdf>
      <cc:work
         rdf:about="">
        <dc:format>image/svg+xml</dc:format>
        <dc:type
           rdf:resource="http://purl.org/dc/dcmitype/StillImage" />
        <dc:title />
      </cc:work>
    </rdf:rdf>
    <rdf:RDF>
      <cc:Work
         rdf:about="">
        <dc:format>image/svg+xml</dc:format>
        <dc:type
           rdf:resource="http://purl.org/dc/dcmitype/StillImage" />
      </cc:Work>
    </rdf:RDF>
  </metadata>
  <defs
     id="defs10" />
  <sodipodi:namedview
     pagecolor="#ffffff"
     bordercolor="#666666"
     borderopacity="1"
     objecttolerance="10"
     gridtolerance="10"
     guidetolerance="10"
     inkscape:pageopacity="0"
     inkscape:pageshadow="2"
     inkscape:window-width="2558"
     inkscape:window-height="1402"
     id="namedview8"
     showgrid="false"
     inkscape:zoom="0.50191232"
     inkscape:cx="-4119.7143"
     inkscape:cy="670.8299"
     inkscape:window-x="0"
     inkscape:window-y="18"
     inkscape:window-maximized="0"
     inkscape:current-layer="layer2"
     inkscape:measure-start="919.738,1129.44"
     inkscape:measure-end="1103.69,1114.72" />
  <g
     inkscape:groupmode="layer"
     id="layer2"
     inkscape:label="trace"
     style="display:inline">
    <path
       style="color:#000000;font-style:normal;font-variant:normal;font-weight:normal;font-stretch:normal;font-size:medium;line-height:normal;font-family:sans-serif;font-variant-ligatures:normal;font-variant-position:normal;font-variant-caps:normal;font-variant-numeric:normal;font-variant-alternates:normal;font-feature-settings:normal;text-indent:0;text-align:start;text-decoration:none;text-decoration-line:none;text-decoration-style:solid;text-decoration-color:#000000;letter-spacing:normal;word-spacing:normal;text-transform:none;writing-mode:lr-tb;direction:ltr;text-orientation:mixed;dominant-baseline:auto;baseline-shift:baseline;text-anchor:start;white-space:normal;shape-padding:0;clip-rule:nonzero;display:inline;overflow:visible;visibility:visible;opacity:1;isolation:auto;mix-blend-mode:normal;color-interpolation:sRGB;color-interpolation-filters:linearRGB;solid-color:#000000;solid-opacity:1;vector-effect:none;fill:#000000;fill-opacity:1;fill-rule:evenodd;stroke:none;stroke-width:88.66831207;stroke-linecap:butt;stroke-linejoin:miter;stroke-miterlimit:4;stroke-dasharray:none;stroke-dashoffset:0;stroke-opacity:1;color-rendering:auto;image-rendering:auto;shape-rendering:auto;text-rendering:auto;enable-background:accumulate"
       d="m 451.45508,819.33203 c -146.78292,0 -296.89258,127.1331 -296.89258,323.52347 h 44.05664 44.61133 44.05664 c 0,-47.4257 14.97624,-103.8038 49.5918,-145.81058 34.61555,-42.00675 87.6054,-73.32031 179.2207,-73.32031 60.08471,0 119.63203,10.64041 159.90625,37.63281 40.27421,26.9924 67.66992,67.64578 67.66992,153.81058 0,156.2242 -109.99205,261.3281 -209.95898,363.5156 -4.56513,4.6665 -9.14222,9.2959 -13.72461,13.8984 -67.49734,65.8526 -154.48542,143.8692 -227.52149,226.4922 -77.98383,88.2203 -144.22461,181.9686 -144.22461,284.5918 V 2048 h 723.19727 v -31.4492 h 0.0293 v -88.668 H 301.32812 c 9.58408,-63.1092 39.74095,-116.3247 84.68555,-171.5058 51.71831,-63.4977 122.96676,-126.922 196.6836,-201.0879 4.45565,-4.3557 8.85595,-8.6806 13.17578,-12.9649 72.6677,-72.0694 139.17499,-137.9813 189.23242,-207.3183 50.05743,-69.3371 83.97267,-144.1156 83.97265,-228.1387 v -0.5449 l -0.0137,-0.545 C 866.72663,1010.6539 827.25762,935.46321 768.98828,887.88477 710.71895,840.30632 636.31319,819.33203 562.81445,819.33203 Z"
       transform="translate(0,-288)"
       id="path5546-0-3-9"
       inkscape:connector-curvature="0" />
  </g>
</svg>
