<?xml version="1.0" encoding="UTF-8" standalone="no"?>
<!--?xml version="1.0" encoding="UTF-8" standalone="no"?-->

<svg
   xmlns:dc="http://purl.org/dc/elements/1.1/"
   xmlns:cc="http://creativecommons.org/ns#"
   xmlns:rdf="http://www.w3.org/1999/02/22-rdf-syntax-ns#"
   xmlns:svg="http://www.w3.org/2000/svg"
   xmlns="http://www.w3.org/2000/svg"
   xmlns:sodipodi="http://sodipodi.sourceforge.net/DTD/sodipodi-0.dtd"
   xmlns:inkscape="http://www.inkscape.org/namespaces/inkscape"
   version="1.1"
   viewBox="0 -288 1232 2048"
   id="svg6"
   sodipodi:docname="X.svg"
   width="1232"
   height="2048"
   inkscape:version="0.92.1 r">
  <metadata
     id="metadata12">
    <rdf:rdf>
      <cc:work
         rdf:about="">
        <dc:format>image/svg+xml</dc:format>
        <dc:type
           rdf:resource="http://purl.org/dc/dcmitype/StillImage" />
        <dc:title />
      </cc:work>
    </rdf:rdf>
    <rdf:RDF>
      <cc:Work
         rdf:about="">
        <dc:format>image/svg+xml</dc:format>
        <dc:type
           rdf:resource="http://purl.org/dc/dcmitype/StillImage" />
      </cc:Work>
    </rdf:RDF>
  </metadata>
  <defs
     id="defs10" />
  <sodipodi:namedview
     pagecolor="#ffffff"
     bordercolor="#666666"
     borderopacity="1"
     objecttolerance="10"
     gridtolerance="10"
     guidetolerance="10"
     inkscape:pageopacity="0"
     inkscape:pageshadow="2"
     inkscape:window-width="2558"
     inkscape:window-height="1402"
     id="namedview8"
     showgrid="false"
     inkscape:zoom="1.1921617"
     inkscape:cx="2011.5409"
     inkscape:cy="1571.6088"
     inkscape:window-x="0"
     inkscape:window-y="18"
     inkscape:window-maximized="0"
     inkscape:current-layer="layer3"
     inkscape:measure-start="316.934,14.2978"
     inkscape:measure-end="23.8296,14.2978" />
  <g
     inkscape:groupmode="layer"
     id="layer3"
     inkscape:label="trace">
    <path
       style="color:#000000;font-style:normal;font-variant:normal;font-weight:normal;font-stretch:normal;font-size:medium;line-height:normal;font-family:sans-serif;font-variant-ligatures:normal;font-variant-position:normal;font-variant-caps:normal;font-variant-numeric:normal;font-variant-alternates:normal;font-feature-settings:normal;text-indent:0;text-align:start;text-decoration:none;text-decoration-line:none;text-decoration-style:solid;text-decoration-color:#000000;letter-spacing:normal;word-spacing:normal;text-transform:none;writing-mode:lr-tb;direction:ltr;text-orientation:mixed;dominant-baseline:auto;baseline-shift:baseline;text-anchor:start;white-space:normal;shape-padding:0;clip-rule:nonzero;display:inline;overflow:visible;visibility:visible;opacity:1;isolation:auto;mix-blend-mode:normal;color-interpolation:sRGB;color-interpolation-filters:linearRGB;solid-color:#000000;solid-opacity:1;vector-effect:none;fill:#050000;fill-opacity:1;fill-rule:evenodd;stroke:none;stroke-width:89.16039276;stroke-linecap:butt;stroke-linejoin:miter;stroke-miterlimit:4;stroke-dasharray:none;stroke-dashoffset:0;stroke-opacity:1;color-rendering:auto;image-rendering:auto;shape-rendering:auto;text-rendering:auto;enable-background:accumulate"
       d="m 186.5332,795.86523 c 0.14951,0.24647 0.45348,0.68424 1.28907,2.36329 0.16403,0.32962 0.49523,0.4762 0.82812,0.67187 -0.34176,-0.49104 -1.13144,-1.57536 -1.38477,-1.94727 -0.6451,-0.94709 -1.03144,-1.58081 -0.73242,-1.08789 z m 856.9082,0 c 0.299,-0.49293 -0.087,0.14081 -0.7324,1.08789 -0.2533,0.37191 -1.043,1.45623 -1.3848,1.94727 0.3329,-0.19567 0.6641,-0.34225 0.8281,-0.67187 0.8356,-1.67905 1.1396,-2.11682 1.2891,-2.36329 z m -852.87109,5.73633 c 0.93296,2.25096 1.75,6.48002 1.75,16.02344 h -89.16015 c 0,20.66432 3.77789,18.19226 4.83984,20.32617 1.06195,2.13391 1.70406,3.17129 2.30273,4.15821 1.19735,1.9738 2.15041,3.38838 3.27344,5.0371 2.24607,3.29746 5.02084,7.18755 8.57813,12.08985 7.11458,9.8046 17.22742,23.4291 30.07422,40.56055 25.69359,34.26288 62.23193,82.42202 106.06836,139.94922 82.37031,108.0958 190.8999,249.7645 300.54296,392.9277 -109.76635,143.3439 -218.10815,284.9385 -300.58203,393.4981 -43.84714,57.7155 -80.39693,106.1072 -106.12695,140.6816 -12.86501,17.2872 -22.9978,31.0799 -30.17383,41.1289 -3.58801,5.0245 -6.40118,9.046 -8.73633,12.5821 -1.16757,1.768 -2.18131,3.3227 -3.46679,5.5625 -0.64275,1.1199 -1.3482,2.3302 -2.42383,4.6953 -1.07564,2.365 -4.16992,2.6024 -4.16992,18.9863 h 54.14257 c 0,0.012 0,0.021 0,0.033 h 35.01758 c -0.004,16.1401 -2.97947,16.0266 -3.82812,17.8926 -0.84927,1.8673 -1.21658,2.4381 -1.41016,2.7754 -0.38715,0.6745 -0.0596,0.097 0.54102,-0.8125 1.20113,-1.8189 3.63616,-5.3403 6.89257,-9.9004 2.03412,-2.8485 4.51494,-6.2716 7.19727,-9.9551 h 44.75195 c 0,9.0407 -0.79674,12.8172 -1.64257,14.6445 1.06442,-1.7047 2.34192,-3.7283 3.84179,-6.0722 5.76734,-9.0131 14.52771,-22.3804 25.69922,-39.2383 22.34303,-33.7158 54.41954,-81.5288 92.91992,-138.668 68.12293,-101.1026 157.09795,-232.5162 247.70313,-366.4844 90.6054,133.9686 179.58199,265.3816 247.70508,366.4844 38.50038,57.1392 70.57689,104.9522 92.91992,138.668 11.17151,16.8579 19.92992,30.2252 25.69726,39.2383 1.49988,2.3439 2.77882,4.3675 3.84375,6.0722 -0.84583,-1.8273 -1.64257,-5.6038 -1.64257,-14.6445 h 44.75193 c 2.6824,3.6835 5.1632,7.1066 7.1973,9.9551 3.2564,4.5601 5.6914,8.0815 6.8926,9.9004 0.6005,0.9094 0.9262,1.487 0.539,0.8125 -0.1936,-0.3373 -0.5589,-0.9081 -1.4082,-2.7754 -0.8486,-1.866 -3.8238,-1.7525 -3.8281,-17.8926 h 35.0176 c 0,-0.012 0,-0.021 0,-0.033 h 54.1426 c 0,-16.3839 -3.0943,-16.6213 -4.17,-18.9863 -1.0756,-2.3651 -1.7811,-3.5754 -2.4238,-4.6953 -1.2855,-2.2398 -2.2992,-3.7945 -3.4668,-5.5625 -2.3351,-3.5361 -5.1483,-7.5576 -8.7363,-12.5821 -7.1761,-10.049 -17.3089,-23.8417 -30.1738,-41.1289 -25.7301,-34.5744 -62.2799,-82.9661 -106.127,-140.6816 -82.47388,-108.5596 -190.81568,-250.1542 -300.58203,-393.4981 109.64305,-143.1632 218.17265,-284.8319 300.54296,-392.9277 43.83647,-57.5272 80.37477,-105.68633 106.06837,-139.94922 12.8468,-17.13145 22.9596,-30.75595 30.0742,-40.56055 3.5573,-4.90231 6.3321,-8.79239 8.5781,-12.08985 1.1231,-1.64872 2.0761,-3.06329 3.2735,-5.0371 0.5987,-0.98691 1.2408,-2.0243 2.3027,-4.15821 1.062,-2.13391 4.8399,0.33813 4.8399,-20.32617 h -58.4122 -30.748 c 0,-9.54341 0.817,-13.77248 1.75,-16.02344 -1.2318,1.7377 -2.0013,2.86251 -3.7481,5.26953 -2.2092,3.04456 -4.9348,6.75486 -7.8847,10.75391 h -48.53127 c 0,-6.95187 0.47522,-10.26407 1.02735,-12.38086 -1.08115,1.90163 -1.97325,3.51646 -3.84375,6.61524 -5.59012,9.26086 -14.28176,23.05339 -25.39649,40.30468 -22.22945,34.50258 -54.26873,83.06832 -92.73437,140.80078 C 791.16561,1093.7152 704.25552,1222.6852 614.98828,1354.8145 525.72082,1222.6849 438.80915,1093.7155 371.68164,992.96484 333.216,935.23238 301.17672,886.66664 278.94727,852.16406 267.83254,834.91277 259.1409,821.12024 253.55078,811.85938 c -1.8705,-3.09877 -2.7626,-4.71361 -3.84375,-6.61524 0.55213,2.11679 1.02734,5.42898 1.02735,12.38086 h -48.53126 c -2.94995,-3.99905 -5.67552,-7.70935 -7.88476,-10.75391 -1.74663,-2.40702 -2.5163,-3.53183 -3.74805,-5.26953 z M 985.15234,2064.4863 c 0.2498,0.5397 0.50079,0.9245 0.74024,1.2051 -0.27053,-0.4373 -0.42674,-0.7032 -0.74024,-1.2051 z m 0.74024,1.2051 c 0.57733,0.9332 1.21746,1.9608 1.58203,2.5703 0.55786,0.9327 0.88331,1.5457 0.61328,1.0352 -0.13501,-0.2553 -0.40908,-0.7149 -1.10937,-2.3457 -0.21414,-0.4987 -0.62333,-0.7176 -1.08594,-1.2598 z m -741.07031,-1.2051 c -0.31335,0.5019 -0.46984,0.7678 -0.74024,1.2051 0.23945,-0.2806 0.49044,-0.6654 0.74024,-1.2051 z m -0.74024,1.2051 c -0.46261,0.5422 -0.8718,0.7611 -1.08594,1.2598 -0.70029,1.6308 -0.97436,2.0904 -1.10937,2.3457 -0.27003,0.5105 0.0554,-0.1025 0.61328,-1.0352 0.36457,-0.6095 1.00498,-1.6371 1.58203,-2.5703 z"
       transform="translate(0,-288)"
       id="path5109-6"
       inkscape:connector-curvature="0" />
  </g>
</svg>
