<?xml version="1.0" encoding="UTF-8" standalone="no"?>
<!--?xml version="1.0" encoding="UTF-8" standalone="no"?-->

<svg
   xmlns:dc="http://purl.org/dc/elements/1.1/"
   xmlns:cc="http://creativecommons.org/ns#"
   xmlns:rdf="http://www.w3.org/1999/02/22-rdf-syntax-ns#"
   xmlns:svg="http://www.w3.org/2000/svg"
   xmlns="http://www.w3.org/2000/svg"
   xmlns:sodipodi="http://sodipodi.sourceforge.net/DTD/sodipodi-0.dtd"
   xmlns:inkscape="http://www.inkscape.org/namespaces/inkscape"
   version="1.1"
   viewBox="0 -288 976 2048"
   id="svg6"
   sodipodi:docname="y.svg"
   width="976"
   height="2048"
   inkscape:version="0.92.1 r">
  <metadata
     id="metadata12">
    <rdf:rdf>
      <cc:work
         rdf:about="">
        <dc:format>image/svg+xml</dc:format>
        <dc:type
           rdf:resource="http://purl.org/dc/dcmitype/StillImage" />
        <dc:title />
      </cc:work>
    </rdf:rdf>
    <rdf:RDF>
      <cc:Work
         rdf:about="">
        <dc:format>image/svg+xml</dc:format>
        <dc:type
           rdf:resource="http://purl.org/dc/dcmitype/StillImage" />
      </cc:Work>
    </rdf:RDF>
  </metadata>
  <defs
     id="defs10" />
  <sodipodi:namedview
     pagecolor="#ffffff"
     bordercolor="#666666"
     borderopacity="1"
     objecttolerance="10"
     gridtolerance="10"
     guidetolerance="10"
     inkscape:pageopacity="0"
     inkscape:pageshadow="2"
     inkscape:window-width="2558"
     inkscape:window-height="1402"
     id="namedview8"
     showgrid="false"
     inkscape:zoom="0.7748808"
     inkscape:cx="-1884.8547"
     inkscape:cy="1144.0251"
     inkscape:window-x="0"
     inkscape:window-y="18"
     inkscape:window-maximized="0"
     inkscape:current-layer="layer3"
     inkscape:measure-start="505.188,-278.807"
     inkscape:measure-end="188.254,-278.807"
     showguides="true"
     inkscape:guide-bbox="true">
    <sodipodi:guide
       position="842.77032,1176.6247"
       orientation="1,0"
       id="guide4527"
       inkscape:locked="false" />
    <sodipodi:guide
       position="137.32824,1138.2237"
       orientation="1,0"
       id="guide4520"
       inkscape:locked="false" />
    <sodipodi:guide
       position="170.08397,1161.5454"
       orientation="1,0"
       id="guide4522"
       inkscape:locked="false" />
    <sodipodi:guide
       position="505.1881,1241.5236"
       orientation="1,0"
       id="guide4524"
       inkscape:locked="false" />
    <sodipodi:guide
       position="824.20725,1164.9709"
       orientation="0,1"
       id="guide4526"
       inkscape:locked="false" />
  </sodipodi:namedview>
  <g
     inkscape:groupmode="layer"
     id="layer3"
     inkscape:label="trace">
    <path
       style="color:#000000;font-style:normal;font-variant:normal;font-weight:normal;font-stretch:normal;font-size:medium;line-height:normal;font-family:sans-serif;font-variant-ligatures:normal;font-variant-position:normal;font-variant-caps:normal;font-variant-numeric:normal;font-variant-alternates:normal;font-feature-settings:normal;text-indent:0;text-align:start;text-decoration:none;text-decoration-line:none;text-decoration-style:solid;text-decoration-color:#000000;letter-spacing:normal;word-spacing:normal;text-transform:none;writing-mode:lr-tb;direction:ltr;text-orientation:mixed;dominant-baseline:auto;baseline-shift:baseline;text-anchor:start;white-space:normal;shape-padding:0;clip-rule:nonzero;display:inline;overflow:visible;visibility:visible;opacity:1;isolation:auto;mix-blend-mode:normal;color-interpolation:sRGB;color-interpolation-filters:linearRGB;solid-color:#000000;solid-opacity:1;vector-effect:none;fill:#050000;fill-opacity:1;fill-rule:evenodd;stroke:none;stroke-width:89.24266815;stroke-linecap:butt;stroke-linejoin:miter;stroke-miterlimit:4;stroke-dasharray:none;stroke-dashoffset:0;stroke-opacity:1;color-rendering:auto;image-rendering:auto;shape-rendering:auto;text-rendering:auto;enable-background:accumulate"
       d="m 228.97656,1108.373 c -0.0162,-0.048 0.0658,0.1352 0.35547,1.2149 0.28972,1.0797 1.37305,1.0431 1.37305,10.7773 h -49.0625 c -1.71178,-3.601 -3.18323,-6.7522 -4.16406,-8.959 0.21805,1.9059 0.38085,4.5726 0.38086,8.959 H 141.46289 88.617188 c 0,16.4593 2.38135,15.0804 3.408203,17.9024 1.026852,2.822 2.013462,5.1553 3.162109,7.7793 2.297293,5.2479 5.20328,11.3967 8.86914,18.9258 7.33172,15.0581 17.62148,35.3698 30.32422,60.0351 25.40548,49.3306 60.38187,115.8884 99.17578,189.418 73.12665,138.6034 159.79341,301.9334 220.57422,419.498 -13.37838,24.1593 -57.12532,103.1925 -108.55859,196.8067 -30.02034,54.6402 -60.04079,109.5113 -82.63477,151.3261 -11.29699,20.9074 -20.72222,38.5208 -27.46484,51.4122 -3.37132,6.4456 -6.05099,11.6598 -8.1211,15.871 -1.03505,2.1056 -1.89785,3.8927 -2.82422,6.004 -0.46318,1.0556 -0.93482,2.1273 -1.62109,4.0273 -0.68627,1.9 -2.82617,0.5054 -2.82617,15.8105 h 89.24219 c 0,6.8027 -0.42966,9.9011 -0.92383,11.6563 1.4476,-2.9006 3.32391,-6.5905 5.9707,-11.6563 h 47.53516 c 0,4.123 -0.13876,6.5334 -0.32032,8.2559 0.71863,-1.8658 1.42743,-3.7215 2.7168,-6.8828 3.51255,-8.6121 8.90057,-21.3591 15.7832,-37.3555 13.76527,-31.9927 33.56576,-77.1385 57.33399,-130.9238 47.53646,-107.5706 110.98411,-249.7945 174.44141,-392.0586 63.45727,-142.2641 126.92287,-284.5668 174.57421,-392.4863 23.82567,-53.9598 43.68786,-99.2991 57.68946,-131.9082 7.0008,-16.3046 12.52268,-29.3868 16.45312,-39.0645 1.96522,-4.8388 3.51712,-8.7706 4.80274,-12.2812 0.6428,-1.7554 1.2127,-3.3498 1.85742,-5.4571 0.64471,-2.1072 2.32031,-0.5656 2.32031,-14.6543 h -52.4668 -36.77539 c 0,-4.2744 0.1581,-6.6036 0.35743,-8.2675 -0.71551,1.874 -1.4574,3.8252 -2.7793,7.08 -0.14379,0.3541 -0.3382,0.8196 -0.48828,1.1875 h -49.55664 c 0,-3.7732 0.1158,-5.8856 0.26367,-7.3945 -0.29904,0.8967 -0.43011,1.3249 -0.84571,2.5332 -1.81035,5.2637 -4.63782,13.2101 -8.25585,23.1953 -7.23607,19.9704 -17.6729,48.2363 -30.20313,81.8926 -25.06046,67.3125 -58.52423,156.2707 -91.98828,244.9199 -37.42305,99.137 -70.78466,187.1715 -96.20703,254.1797 -49.13926,-106.9225 -106.7001,-234.6128 -156.29688,-346.0078 -32.80949,-73.6906 -62.1382,-140.2568 -83.19336,-188.8418 -10.52757,-24.2925 -18.99928,-44.1211 -24.71679,-57.8809 -2.85876,-6.8799 -5.04546,-12.2902 -6.32813,-15.6211 -0.64133,-1.6654 -1.06716,-2.8702 -1.09961,-2.9668 z m 78.16406,1180.9649 c -0.10289,0.1025 -0.2402,0.1873 -0.29882,0.3496 -0.4556,1.2614 -0.58264,1.4928 -0.5918,1.5137 -0.0137,0.031 0.45176,-0.9498 0.89062,-1.8633 z"
       transform="translate(0,-288)"
       id="path5109-6"
       inkscape:connector-curvature="0" />
  </g>
</svg>
