<!--?xml version="1.0" encoding="UTF-8" standalone="no"?-->
<svg xmlns:dc="http://purl.org/dc/elements/1.1/" xmlns:cc="http://creativecommons.org/ns#" xmlns:rdf="http://www.w3.org/1999/02/22-rdf-syntax-ns#" xmlns:svg="http://www.w3.org/2000/svg" xmlns="http://www.w3.org/2000/svg" xmlns:sodipodi="http://sodipodi.sourceforge.net/DTD/sodipodi-0.dtd" xmlns:inkscape="http://www.inkscape.org/namespaces/inkscape" version="1.1" viewBox="0 -288 1024 2048" id="svg6" sodipodi:docname="eight.svg" width="1024" height="2048" inkscape:version="0.92.1 r">
  <metadata id="metadata12">
    <rdf:rdf>
      <cc:work rdf:about="">
        <dc:format>image/svg+xml</dc:format>
        <dc:type rdf:resource="http://purl.org/dc/dcmitype/StillImage"></dc:type>
        <dc:title></dc:title>
      </cc:work>
    </rdf:rdf>
  </metadata>
  <defs id="defs10"></defs>
  <sodipodi:namedview pagecolor="#ffffff" bordercolor="#666666" borderopacity="1" objecttolerance="10" gridtolerance="10" guidetolerance="10" inkscape:pageopacity="0" inkscape:pageshadow="2" inkscape:window-width="2558" inkscape:window-height="1402" id="namedview8" showgrid="false" inkscape:zoom="0.090283198" inkscape:cx="-4986.2191" inkscape:cy="1485.0467" inkscape:window-x="0" inkscape:window-y="18" inkscape:window-maximized="0" inkscape:current-layer="layer3" inkscape:measure-start="518.14,-132.547" inkscape:measure-end="518.14,289.194" showguides="true" inkscape:guide-bbox="true">
    <sodipodi:guide position="186.77207,501.25482" orientation="0,1" id="guide895" inkscape:locked="false"></sodipodi:guide>
    <sodipodi:guide position="514.5623,791.70672" orientation="1,0" id="guide172" inkscape:locked="false"></sodipodi:guide>
    <sodipodi:guide position="332.87455,183.7588" orientation="1,0" id="guide174" inkscape:locked="false"></sodipodi:guide>
    <sodipodi:guide position="514.5623,205.59899" orientation="0,1" id="guide176" inkscape:locked="false"></sodipodi:guide>
    <sodipodi:guide position="170.20282,953.0605" orientation="0,1" id="guide178" inkscape:locked="false"></sodipodi:guide>
  </sodipodi:namedview>
  <g inkscape:groupmode="layer" id="layer3" inkscape:label="trace" style="display:inline">
    <g id="g16" transform="matrix(1,0,0,0.78639456,0,371.19797)" style="stroke-width:1.12766409">
      <path class="ext" style="display: inline; fill: none; fill-rule: evenodd; stroke: rgb(1, 0, 0); stroke-width: 29.4; stroke-linecap: butt; stroke-linejoin: round; stroke-miterlimit: 4; stroke-dasharray: none; stroke-opacity: 1;" d="m 563.95913,260.00001 c 78.3001,0 252.04669,95.59369 257.04076,348.97677 0,199.29723 -110.57595,298.757 -306.69335,371.02322 -196.11739,72.2663 -337.99989,197.1273 -337.99989,400.8439 0,260.6223 162.81535,349.1561 338.34662,349.1561 175.53127,0 338.34662,-88.5338 338.34662,-349.1561 C 852.99989,1177.1273 710.42393,1052.2662 514.30654,980 318.18914,907.73378 212.25596,809.3403 208.30665,608.97677 208.30636,355.54448 387.04731,259.99999 465.34741,259.99999 Z" id="path5848-2-9-9-9-6" inkscape:connector-curvature="0" sodipodi:nodetypes="cccccccccc"></path>
      <path class="int" style="display: inline; fill: none; fill-rule: evenodd; stroke: rgb(1, 0, 0); stroke-width: 32.4; stroke-linecap: butt; stroke-linejoin: miter; stroke-miterlimit: 4; stroke-dasharray: none; stroke-opacity: 1;" d="M 237.499,606.88359 C 237.499,807.58366 325.75111,910.27482 514.30654,980 702.86198,1049.7252 821.27,1219.8004 819.76149,1387.8299 819.76149,1554.7175 697.14406,1695 515,1695 332.85594,1695 209.54505,1554.7175 209.54505,1387.8299 208.03654,1219.8004 325.75111,1049.7252 514.30654,980 702.86198,910.27483 791.80754,807.20712 791.80754,606.8836 791.80754,402.02866 666.20983,292 514.30654,292 362.40325,291.99999 237.499,402.02865 237.499,606.88359 Z" id="path5848-2-90-2-3-7" inkscape:connector-curvature="0" sodipodi:nodetypes="ccccccccc"></path>
    </g>
  </g>
</svg>
