<?xml version="1.0" encoding="UTF-8" standalone="no"?>
<svg
   xmlns:dc="http://purl.org/dc/elements/1.1/"
   xmlns:cc="http://creativecommons.org/ns#"
   xmlns:rdf="http://www.w3.org/1999/02/22-rdf-syntax-ns#"
   xmlns:svg="http://www.w3.org/2000/svg"
   xmlns="http://www.w3.org/2000/svg"
   xmlns:sodipodi="http://sodipodi.sourceforge.net/DTD/sodipodi-0.dtd"
   xmlns:inkscape="http://www.inkscape.org/namespaces/inkscape"
   version="1.1"
   viewBox="0 -288 1016 2048"
   id="svg6"
   sodipodi:docname="b.svg"
   width="1016"
   height="2048"
   inkscape:version="0.92.0 r">
  <metadata
     id="metadata12">
    <rdf:RDF>
      <cc:Work
         rdf:about="">
        <dc:format>image/svg+xml</dc:format>
        <dc:type
           rdf:resource="http://purl.org/dc/dcmitype/StillImage" />
        <dc:title />
      </cc:Work>
    </rdf:RDF>
  </metadata>
  <defs
     id="defs10" />
  <sodipodi:namedview
     pagecolor="#ffffff"
     bordercolor="#666666"
     borderopacity="1"
     objecttolerance="10"
     gridtolerance="10"
     guidetolerance="10"
     inkscape:pageopacity="0"
     inkscape:pageshadow="2"
     inkscape:window-width="1364"
     inkscape:window-height="730"
     id="namedview8"
     showgrid="false"
     inkscape:zoom="1.0958038"
     inkscape:cx="147.15944"
     inkscape:cy="983.94193"
     inkscape:window-x="0"
     inkscape:window-y="18"
     inkscape:window-maximized="0"
     inkscape:current-layer="layer2"
     inkscape:measure-start="169.22,1.62712"
     inkscape:measure-end="269.017,1.62712" />
  <g
     inkscape:groupmode="layer"
     id="layer2"
     inkscape:label="trace">
    <path
       style="color:#000000;font-style:normal;font-variant:normal;font-weight:normal;font-stretch:normal;font-size:medium;line-height:normal;font-family:sans-serif;font-variant-ligatures:normal;font-variant-position:normal;font-variant-caps:normal;font-variant-numeric:normal;font-variant-alternates:normal;font-feature-settings:normal;text-indent:0;text-align:start;text-decoration:none;text-decoration-line:none;text-decoration-style:solid;text-decoration-color:#000000;letter-spacing:normal;word-spacing:normal;text-transform:none;writing-mode:lr-tb;direction:ltr;text-orientation:mixed;dominant-baseline:auto;baseline-shift:baseline;text-anchor:start;white-space:normal;shape-padding:0;clip-rule:nonzero;display:inline;overflow:visible;visibility:visible;opacity:1;isolation:auto;mix-blend-mode:normal;color-interpolation:sRGB;color-interpolation-filters:linearRGB;solid-color:#000000;solid-opacity:1;vector-effect:none;fill:#000000;fill-opacity:0.99708174;fill-rule:evenodd;stroke:none;stroke-width:100;stroke-linecap:butt;stroke-linejoin:miter;stroke-miterlimit:4;stroke-dasharray:none;stroke-dashoffset:0;stroke-opacity:1;color-rendering:auto;image-rendering:auto;shape-rendering:auto;text-rendering:auto;enable-background:accumulate"
       d="M 168.91602,422.94141 V 724.45898 1838.8555 l 0.002,208.83 h 100 c 0,10.5327 -0.22654,3.9735 0.37891,0.5079 0.60543,-3.4657 1.60242,-8.7159 2.86132,-15.045 2.51781,-12.6581 6.09483,-29.7776 10.08008,-48.5879 1.74806,-8.2507 3.66633,-17.2133 5.52149,-25.9101 C 352.07227,2012.1871 440.62145,2068 545.0293,2068 666.40415,2068 759.73733,1987.2354 813.60156,1873.877 867.4658,1760.5185 891,1611.7072 891,1446.6406 891,1286.8703 875.03047,1153.6964 833.28125,1053.6172 791.53203,953.538 712.38357,883.42578 609.6875,883.42578 l 0.45117,0.002 -94.80273,-0.85351 h -0.22461 c -31.31557,0 -56.64692,10.88929 -84.60352,24.64844 -27.9566,13.75914 -57.25612,31.82282 -86.73437,51.97656 -8.24766,5.63877 -16.4939,11.4483 -24.69922,17.35742 -4.01356,2.55436 -7.93057,5.11006 -11.73633,7.65625 V 724.45898 422.94141 h -38.42187 -61.57813 z m 380.83789,580.02539 c 62.00525,-0.078 97.55231,7.9071 130.99414,59.9316 34.52059,53.7027 62.59765,169.4867 62.59765,382.8457 0,146.8026 -17.33965,275.5294 -54.99414,360.8204 -37.63613,85.2492 -84.54908,125.8677 -169.58203,126.4316 -99.99414,-0.072 -174.03146,-56.7251 -205.86133,-86.2715 -1.91434,-1.8716 -3.74115,-3.6975 -5.57031,-5.5273 v -729.2657 c 0.0165,-0.013 0.0324,-0.027 0.0488,-0.041 C 346.93323,1080.4955 453.60877,1003 543.23047,1003 h 0.2207 l 0.21875,-0 c 2.05605,-0.018 4.08382,-0.029 6.08399,-0.031 z"
       transform="translate(0,-288)"
       id="path5236-72-2"
       inkscape:connector-curvature="0" />
  </g>
</svg>
