<?xml version="1.0" encoding="UTF-8" standalone="no"?>
<svg
   xmlns:dc="http://purl.org/dc/elements/1.1/"
   xmlns:cc="http://creativecommons.org/ns#"
   xmlns:rdf="http://www.w3.org/1999/02/22-rdf-syntax-ns#"
   xmlns:svg="http://www.w3.org/2000/svg"
   xmlns="http://www.w3.org/2000/svg"
   xmlns:sodipodi="http://sodipodi.sourceforge.net/DTD/sodipodi-0.dtd"
   xmlns:inkscape="http://www.inkscape.org/namespaces/inkscape"
   version="1.1"
   viewBox="0 -288 1304 2048"
   id="svg6"
   sodipodi:docname="B.svg"
   width="1304"
   height="2048"
   inkscape:version="0.92.0 r">
  <metadata
     id="metadata12">
    <rdf:RDF>
      <cc:Work
         rdf:about="">
        <dc:format>image/svg+xml</dc:format>
        <dc:type
           rdf:resource="http://purl.org/dc/dcmitype/StillImage" />
        <dc:title />
      </cc:Work>
    </rdf:RDF>
  </metadata>
  <defs
     id="defs10" />
  <sodipodi:namedview
     pagecolor="#ffffff"
     bordercolor="#666666"
     borderopacity="1"
     objecttolerance="10"
     gridtolerance="10"
     guidetolerance="10"
     inkscape:pageopacity="0"
     inkscape:pageshadow="2"
     inkscape:window-width="1364"
     inkscape:window-height="730"
     id="namedview8"
     showgrid="false"
     inkscape:zoom="0.20982283"
     inkscape:cx="-689.53643"
     inkscape:cy="200.62458"
     inkscape:window-x="0"
     inkscape:window-y="18"
     inkscape:window-maximized="0"
     inkscape:current-layer="layer3"
     showguides="true"
     inkscape:guide-bbox="true"
     inkscape:measure-start="496.269,1540.2"
     inkscape:measure-end="496.269,1389.86">
    <sodipodi:guide
       position="751.69046,763.96296"
       orientation="1,0"
       id="guide844"
       inkscape:locked="false" />
  </sodipodi:namedview>
  <g
     inkscape:groupmode="layer"
     id="layer3"
     inkscape:label="traces"
     style="display:inline">
    <path
       style="color:#000000;font-style:normal;font-variant:normal;font-weight:normal;font-stretch:normal;font-size:medium;line-height:normal;font-family:sans-serif;font-variant-ligatures:normal;font-variant-position:normal;font-variant-caps:normal;font-variant-numeric:normal;font-variant-alternates:normal;font-feature-settings:normal;text-indent:0;text-align:start;text-decoration:none;text-decoration-line:none;text-decoration-style:solid;text-decoration-color:#000000;letter-spacing:normal;word-spacing:normal;text-transform:none;writing-mode:lr-tb;direction:ltr;text-orientation:mixed;dominant-baseline:auto;baseline-shift:baseline;text-anchor:start;white-space:normal;shape-padding:0;clip-rule:nonzero;display:inline;overflow:visible;visibility:visible;opacity:1;isolation:auto;mix-blend-mode:normal;color-interpolation:sRGB;color-interpolation-filters:linearRGB;solid-color:#000000;solid-opacity:1;vector-effect:none;fill:#000000;fill-opacity:1;fill-rule:evenodd;stroke:none;stroke-width:100;stroke-linecap:butt;stroke-linejoin:miter;stroke-miterlimit:4;stroke-dasharray:none;stroke-dashoffset:0;stroke-opacity:1;color-rendering:auto;image-rendering:auto;shape-rendering:auto;text-rendering:auto;enable-background:accumulate"
       d="M 162.13281,495.24023 V 2048 h 606.47657 c 158.1273,0 272.81562,-47.8128 343.87892,-129.5059 71.0633,-81.693 95.7285,-190.3585 95.7285,-302.8379 0,-165.8523 -66.8732,-284.8219 -175.5371,-351.6132 -30.4211,-18.6986 -63.56168,-33.5565 -98.88282,-45.4239 12.13703,-5.7594 24.04501,-11.9533 35.60351,-18.75 101.67631,-59.7883 175.31641,-167.5864 175.31641,-318.90035 0,-106.68521 -32.8127,-205.56026 -105.0352,-276.16797 C 967.45927,534.19307 859.45224,495.24023 721.29688,495.24023 Z M 302.12305,633 H 719.2207 c 101.70991,0 167.31727,33.2346 210.1836,78.04492 42.86632,44.81032 62.79883,103.79338 62.79882,156.24414 v 0.46875 l 0.01,0.47071 c 2.12777,113.02156 -42.67409,184.82788 -110.40039,234.96288 -60.5153,44.797 -141.65394,69.2485 -219.50391,73.9512 C 649.10628,1177.7154 635.86858,1178 622.6582,1178 H 302.12305 Z m 0,645 H 622.6582 c 22.07241,0 43.59125,0.4663 64.53125,1.3965 100.01413,5.3851 187.97425,26.6728 250.125,66.9941 72.84265,47.2579 116.50195,116.5437 116.50195,241.7207 v 0.3848 l 0.01,0.3828 c 1.5993,104.038 -21.018,181.9395 -69.22268,233.9727 -48.20464,52.0331 -126.85588,85.0527 -257.45118,85.0527 h -0.01 l -425.01563,0.1719 z"
       transform="translate(0,-288)"
       id="path5236-7-72-2"
       inkscape:connector-curvature="0" />
  </g>
  <g
     inkscape:groupmode="layer"
     id="layer4"
     inkscape:label="traces 2"
     style="display:inline" />
</svg>
