<?xml version="1.0" encoding="UTF-8" standalone="no"?>
<svg
   xmlns:dc="http://purl.org/dc/elements/1.1/"
   xmlns:cc="http://creativecommons.org/ns#"
   xmlns:rdf="http://www.w3.org/1999/02/22-rdf-syntax-ns#"
   xmlns:svg="http://www.w3.org/2000/svg"
   xmlns="http://www.w3.org/2000/svg"
   xmlns:sodipodi="http://sodipodi.sourceforge.net/DTD/sodipodi-0.dtd"
   xmlns:inkscape="http://www.inkscape.org/namespaces/inkscape"
   version="1.1"
   viewBox="0 -288 1024 2048"
   id="svg6"
   sodipodi:docname="c.svg"
   width="1024"
   height="2048"
   inkscape:version="0.92.0 r">
  <metadata
     id="metadata12">
    <rdf:RDF>
      <cc:Work
         rdf:about="">
        <dc:format>image/svg+xml</dc:format>
        <dc:type
           rdf:resource="http://purl.org/dc/dcmitype/StillImage" />
        <dc:title />
      </cc:Work>
    </rdf:RDF>
  </metadata>
  <defs
     id="defs10" />
  <sodipodi:namedview
     pagecolor="#ffffff"
     bordercolor="#666666"
     borderopacity="1"
     objecttolerance="10"
     gridtolerance="10"
     guidetolerance="10"
     inkscape:pageopacity="0"
     inkscape:pageshadow="2"
     inkscape:window-width="1364"
     inkscape:window-height="730"
     id="namedview8"
     showgrid="false"
     inkscape:zoom="0.49665318"
     inkscape:cx="468.69905"
     inkscape:cy="372.14943"
     inkscape:window-x="0"
     inkscape:window-y="18"
     inkscape:window-maximized="0"
     inkscape:current-layer="layer3"
     inkscape:measure-start="812.669,393.487"
     inkscape:measure-end="881.319,393.487"
     showguides="true"
     inkscape:guide-bbox="true">
    <sodipodi:guide
       position="532.61017,1118.1017"
       orientation="1,0"
       id="guide5888"
       inkscape:locked="false" />
    <sodipodi:guide
       position="820.72326,678.05548"
       orientation="1,0"
       id="guide5890"
       inkscape:locked="false" />
    <sodipodi:guide
       position="262.86142,886.3148"
       orientation="0,1"
       id="guide47"
       inkscape:locked="false" />
  </sodipodi:namedview>
  <g
     inkscape:groupmode="layer"
     id="layer3"
     inkscape:label="trace"
     style="display:inline">
    <path
       style="color:#000000;font-style:normal;font-variant:normal;font-weight:normal;font-stretch:normal;font-size:medium;line-height:normal;font-family:sans-serif;font-variant-ligatures:normal;font-variant-position:normal;font-variant-caps:normal;font-variant-numeric:normal;font-variant-alternates:normal;font-feature-settings:normal;text-indent:0;text-align:start;text-decoration:none;text-decoration-line:none;text-decoration-style:solid;text-decoration-color:#000000;letter-spacing:normal;word-spacing:normal;text-transform:none;writing-mode:lr-tb;direction:ltr;text-orientation:mixed;dominant-baseline:auto;baseline-shift:baseline;text-anchor:start;white-space:normal;shape-padding:0;clip-rule:nonzero;display:inline;overflow:visible;visibility:visible;opacity:1;isolation:auto;mix-blend-mode:normal;color-interpolation:sRGB;color-interpolation-filters:linearRGB;solid-color:#000000;solid-opacity:1;vector-effect:none;fill:#000000;fill-opacity:1;fill-rule:evenodd;stroke:none;stroke-width:100;stroke-linecap:butt;stroke-linejoin:miter;stroke-miterlimit:4;stroke-dasharray:none;stroke-dashoffset:0;stroke-opacity:1;color-rendering:auto;image-rendering:auto;shape-rendering:auto;text-rendering:auto;enable-background:accumulate"
       d="m 490.85938,883.00586 c -113.65731,0 -211.40267,66.60268 -273.54688,172.60354 -62.14421,106.0008 -94.55078,251.3762 -94.55078,426.6738 0,182.6006 43.30764,327.7975 117.19336,429.3887 73.80438,101.4793 180.5541,157.9672 293.83008,156.3222 155.3405,-0.13 259.64682,-72.984 315.85156,-162.3144 56.25497,-89.4102 70.01953,-190.9729 70.01953,-262.6738 h -47.22656 c 0,-0 0,-0 0,-0.01 h -100 c 0,91.473 -27.41753,168.9911 -70.375,222.123 -42.95748,53.132 -99.73394,82.877 -168.72852,82.877 -98.48236,0 -157.59147,-43.6837 -202.57422,-127.6445 -44.98275,-83.9609 -67.67382,-209.7867 -67.67383,-353.4707 0,-157.4695 27.24582,-277.5554 73.4043,-353.1582 C 382.6409,1038.1237 442.12635,1003 532.80273,1003 c 86.86369,0 141.62558,30.4905 179.82813,78.1289 38.20255,47.6384 58.45703,116.0957 58.45703,190.3828 h 100 c 0,-0.2964 -0.007,-0.5923 -0.008,-0.8887 h 48.07812 c 0,-99.8744 -27.39102,-195.339 -85.36523,-267.9668 C 775.81875,930.02428 685.49929,883.00586 575.45898,883.00586 Z"
       transform="translate(0,-288)"
       id="path5546-0-3-2-5-5"
       inkscape:connector-curvature="0" />
  </g>
</svg>
