<?xml version="1.0" encoding="UTF-8" standalone="no"?>
<svg
   xmlns:dc="http://purl.org/dc/elements/1.1/"
   xmlns:cc="http://creativecommons.org/ns#"
   xmlns:rdf="http://www.w3.org/1999/02/22-rdf-syntax-ns#"
   xmlns:svg="http://www.w3.org/2000/svg"
   xmlns="http://www.w3.org/2000/svg"
   xmlns:sodipodi="http://sodipodi.sourceforge.net/DTD/sodipodi-0.dtd"
   xmlns:inkscape="http://www.inkscape.org/namespaces/inkscape"
   version="1.1"
   viewBox="0 -288 944 2048"
   id="svg6"
   sodipodi:docname="g.svg"
   width="944"
   height="2048"
   inkscape:version="0.92.0 r">
  <metadata
     id="metadata12">
    <rdf:RDF>
      <cc:Work
         rdf:about="">
        <dc:format>image/svg+xml</dc:format>
        <dc:type
           rdf:resource="http://purl.org/dc/dcmitype/StillImage" />
        <dc:title />
      </cc:Work>
    </rdf:RDF>
  </metadata>
  <defs
     id="defs10" />
  <sodipodi:namedview
     pagecolor="#ffffff"
     bordercolor="#666666"
     borderopacity="1"
     objecttolerance="10"
     gridtolerance="10"
     guidetolerance="10"
     inkscape:pageopacity="0"
     inkscape:pageshadow="2"
     inkscape:window-width="1364"
     inkscape:window-height="730"
     id="namedview8"
     showgrid="false"
     inkscape:zoom="0.4565286"
     inkscape:cx="-499.30377"
     inkscape:cy="441.63857"
     inkscape:window-x="0"
     inkscape:window-y="18"
     inkscape:window-maximized="0"
     inkscape:current-layer="layer3"
     inkscape:measure-start="186.958,-216.373"
     inkscape:measure-end="186.958,-156.795" />
  <g
     inkscape:groupmode="layer"
     id="layer3"
     inkscape:label="trace">
    <path
       style="color:#000000;font-style:normal;font-variant:normal;font-weight:normal;font-stretch:normal;font-size:medium;line-height:normal;font-family:sans-serif;font-variant-ligatures:normal;font-variant-position:normal;font-variant-caps:normal;font-variant-numeric:normal;font-variant-alternates:normal;font-feature-settings:normal;text-indent:0;text-align:start;text-decoration:none;text-decoration-line:none;text-decoration-style:solid;text-decoration-color:#000000;letter-spacing:normal;word-spacing:normal;text-transform:none;writing-mode:lr-tb;direction:ltr;text-orientation:mixed;dominant-baseline:auto;baseline-shift:baseline;text-anchor:start;white-space:normal;shape-padding:0;clip-rule:nonzero;display:inline;overflow:visible;visibility:visible;opacity:1;isolation:auto;mix-blend-mode:normal;color-interpolation:sRGB;color-interpolation-filters:linearRGB;solid-color:#000000;solid-opacity:1;vector-effect:none;fill:#000000;fill-opacity:1;fill-rule:evenodd;stroke:none;stroke-width:100;stroke-linecap:butt;stroke-linejoin:miter;stroke-miterlimit:4;stroke-dasharray:none;stroke-dashoffset:0;stroke-opacity:1;color-rendering:auto;image-rendering:auto;shape-rendering:auto;text-rendering:auto;enable-background:accumulate"
       d="m 399.63477,881 c -102.01645,0 -183.49384,63.19477 -226.30274,159.9863 -42.8089,96.7916 -58.57031,227.2687 -58.57031,391.291 0,181.4574 17.19609,318.4192 66.20703,417.6309 48.9678,99.1244 140.33939,155.6762 251.70898,154.0352 90.28182,-0.1713 161.28136,-47.032 214.31641,-103.0235 v 31.5879 c 0,94.8676 -20.69972,156.1681 -53.14258,192.8281 -32.44285,36.66 -80.12453,55.9317 -156.13672,55.9317 -139.13333,0 -236.99414,-18.377 -236.99414,-18.377 l -11.22851,59.9121 -17.38281,86.6973 c 0,0 86.20236,16.9277 255.33593,16.9277 h 1 l 1,-0.039 c 93.07886,-3.7266 187.71991,-23.9156 256.70899,-93.9668 68.76088,-69.8196 103.42303,-181.4096 97.00586,-346.0196 V 883 h -100 c 0,6.17942 -5.18307,45.7642 -12.44141,87.20898 C 625.97006,919.83053 564.36643,881 484.23242,881 Z m 39.94335,120.998 c 133.05128,0 191.75218,88.5502 207.41602,117.5547 v 608.5 c -19.97767,32.1413 -97.8605,143.9356 -214.85937,143.9356 -40.00418,0 -66.05761,-9.6477 -87.38477,-26.1582 -21.32716,-16.5106 -38.91869,-41.9723 -52.80664,-78.1778 -27.7759,-72.411 -36.86523,-184.6885 -36.86524,-310.8847 2e-5,-160.7541 12.50967,-282.8323 42.27344,-355.7617 29.76377,-72.9295 62.87276,-99.0079 142.22656,-99.0079 z"
       transform="translate(0,-288)"
       id="path5829-3-3"
       inkscape:connector-curvature="0" />
  </g>
</svg>
