<?xml version="1.0" encoding="UTF-8" standalone="no"?>
<svg
   xmlns:dc="http://purl.org/dc/elements/1.1/"
   xmlns:cc="http://creativecommons.org/ns#"
   xmlns:rdf="http://www.w3.org/1999/02/22-rdf-syntax-ns#"
   xmlns:svg="http://www.w3.org/2000/svg"
   xmlns="http://www.w3.org/2000/svg"
   xmlns:sodipodi="http://sodipodi.sourceforge.net/DTD/sodipodi-0.dtd"
   xmlns:inkscape="http://www.inkscape.org/namespaces/inkscape"
   version="1.1"
   viewBox="0 -288 1392 2048"
   id="svg6"
   sodipodi:docname="G.svg"
   width="1392"
   height="2048"
   inkscape:version="0.92.0 r">
  <metadata
     id="metadata12">
    <rdf:RDF>
      <cc:Work
         rdf:about="">
        <dc:format>image/svg+xml</dc:format>
        <dc:type
           rdf:resource="http://purl.org/dc/dcmitype/StillImage" />
        <dc:title />
      </cc:Work>
    </rdf:RDF>
  </metadata>
  <defs
     id="defs10" />
  <sodipodi:namedview
     pagecolor="#ffffff"
     bordercolor="#666666"
     borderopacity="1"
     objecttolerance="10"
     gridtolerance="10"
     guidetolerance="10"
     inkscape:pageopacity="0"
     inkscape:pageshadow="2"
     inkscape:window-width="1364"
     inkscape:window-height="730"
     id="namedview8"
     showgrid="false"
     inkscape:zoom="0.31159779"
     inkscape:cx="-735.11474"
     inkscape:cy="-50.739215"
     inkscape:window-x="0"
     inkscape:window-y="18"
     inkscape:window-maximized="0"
     inkscape:current-layer="layer2" />
  <g
     inkscape:groupmode="layer"
     id="layer2"
     inkscape:label="trace"
     style="display:inline">
    <path
       style="color:#000000;font-style:normal;font-variant:normal;font-weight:normal;font-stretch:normal;font-size:medium;line-height:normal;font-family:sans-serif;font-variant-ligatures:normal;font-variant-position:normal;font-variant-caps:normal;font-variant-numeric:normal;font-variant-alternates:normal;font-feature-settings:normal;text-indent:0;text-align:start;text-decoration:none;text-decoration-line:none;text-decoration-style:solid;text-decoration-color:#000000;letter-spacing:normal;word-spacing:normal;text-transform:none;writing-mode:lr-tb;direction:ltr;text-orientation:mixed;dominant-baseline:auto;baseline-shift:baseline;text-anchor:start;white-space:normal;shape-padding:0;clip-rule:nonzero;display:inline;overflow:visible;visibility:visible;opacity:1;isolation:auto;mix-blend-mode:normal;color-interpolation:sRGB;color-interpolation-filters:linearRGB;solid-color:#000000;solid-opacity:1;vector-effect:none;fill:#000000;fill-opacity:1;fill-rule:evenodd;stroke:none;stroke-width:100;stroke-linecap:butt;stroke-linejoin:miter;stroke-miterlimit:4;stroke-dasharray:none;stroke-dashoffset:0;stroke-opacity:1;color-rendering:auto;image-rendering:auto;shape-rendering:auto;text-rendering:auto;enable-background:accumulate"
       d="m 660.98828,496.21094 c -194.74634,0 -337.8545,95.52016 -422.29687,240.11718 -84.44238,144.59704 -116.87696,334.92618 -116.87696,540.01758 0,226.3765 47.3549,420.6969 145.62891,561.9844 98.27401,141.2875 250.81285,225.9199 439.81641,225.9199 177.85729,0 311.95773,-52.503 399.70313,-141.1406 2.1637,-2.1857 4.2885,-4.3963 6.3926,-6.6211 0.177,1.1523 0.3092,1.999 0.4863,3.1523 4.992,32.5195 9.982,65.3209 13.707,90.4356 1.8625,12.5573 3.411,23.2131 4.4649,30.7988 0.5269,3.7929 0.9327,6.8421 1.1699,8.7656 0.048,0.3891 0.07,0.9203 0.09,1.4239 -0.01,-0.7618 -0.016,-1.4793 -0.016,-3.0645 h 100 V 1273 H 1193.2676 785 v 100 h 308.2676 v 399.4395 c -0.7206,1.4403 -1.4528,2.8733 -2.1934,4.3007 -2.7902,3.5404 -6.9393,8.2729 -12.3301,13.5293 -47.5794,46.3939 -184.0269,128.1524 -371.95113,128.1524 -145.32027,0 -250.6945,-70.548 -326.5332,-187.5528 -75.83871,-117.0047 -117.0254,-281.3336 -117.02539,-454.3086 0,-203.691 40.3633,-371.99184 114.33203,-485.10738 C 451.53513,678.33759 554.64954,616.86328 703.25977,616.86328 969.75878,616.86328 1081,793.37818 1081,919.11133 h 100 c 0,-0.2555 -0.01,-0.51196 -0.01,-0.76758 h 56.9375 c 0,-221.65907 -191.4118,-422.13281 -469.23043,-422.13281 z M 1133.2734,2051.0645 c 0.025,2.524 0.06,1.5254 0,0 z"
       transform="translate(0,-288)"
       id="path5236-7-72-2"
       inkscape:connector-curvature="0" />
  </g>
</svg>
