<?xml version="1.0" encoding="UTF-8" standalone="no"?>
<svg
   xmlns:dc="http://purl.org/dc/elements/1.1/"
   xmlns:cc="http://creativecommons.org/ns#"
   xmlns:rdf="http://www.w3.org/1999/02/22-rdf-syntax-ns#"
   xmlns:svg="http://www.w3.org/2000/svg"
   xmlns="http://www.w3.org/2000/svg"
   xmlns:sodipodi="http://sodipodi.sourceforge.net/DTD/sodipodi-0.dtd"
   xmlns:inkscape="http://www.inkscape.org/namespaces/inkscape"
   version="1.1"
   viewBox="0 -288 1112 2048"
   id="svg6"
   sodipodi:docname="J.svg"
   width="1112"
   height="2048"
   inkscape:version="0.92.0 r">
  <metadata
     id="metadata12">
    <rdf:RDF>
      <cc:Work
         rdf:about="">
        <dc:format>image/svg+xml</dc:format>
        <dc:type
           rdf:resource="http://purl.org/dc/dcmitype/StillImage" />
        <dc:title />
      </cc:Work>
    </rdf:RDF>
  </metadata>
  <defs
     id="defs10" />
  <sodipodi:namedview
     pagecolor="#ffffff"
     bordercolor="#666666"
     borderopacity="1"
     objecttolerance="10"
     gridtolerance="10"
     guidetolerance="10"
     inkscape:pageopacity="0"
     inkscape:pageshadow="2"
     inkscape:window-width="1364"
     inkscape:window-height="730"
     id="namedview8"
     showgrid="false"
     inkscape:zoom="0.30221943"
     inkscape:cx="-1668.5048"
     inkscape:cy="486.64179"
     inkscape:window-x="0"
     inkscape:window-y="18"
     inkscape:window-maximized="0"
     inkscape:current-layer="layer3"
     inkscape:measure-start="120.108,85.841"
     inkscape:measure-end="120.108,197.642" />
  <g
     inkscape:groupmode="layer"
     id="layer3"
     inkscape:label="trace">
    <path
       style="color:#000000;font-style:normal;font-variant:normal;font-weight:normal;font-stretch:normal;font-size:medium;line-height:normal;font-family:sans-serif;font-variant-ligatures:normal;font-variant-position:normal;font-variant-caps:normal;font-variant-numeric:normal;font-variant-alternates:normal;font-feature-settings:normal;text-indent:0;text-align:start;text-decoration:none;text-decoration-line:none;text-decoration-style:solid;text-decoration-color:#000000;letter-spacing:normal;word-spacing:normal;text-transform:none;writing-mode:lr-tb;direction:ltr;text-orientation:mixed;dominant-baseline:auto;baseline-shift:baseline;text-anchor:start;white-space:normal;shape-padding:0;clip-rule:nonzero;display:inline;overflow:visible;visibility:visible;opacity:1;isolation:auto;mix-blend-mode:normal;color-interpolation:sRGB;color-interpolation-filters:linearRGB;solid-color:#000000;solid-opacity:1;vector-effect:none;fill:#000000;fill-opacity:1;fill-rule:evenodd;stroke:none;stroke-width:100;stroke-linecap:butt;stroke-linejoin:miter;stroke-miterlimit:4;stroke-dasharray:none;stroke-dashoffset:0;stroke-opacity:1;color-rendering:auto;image-rendering:auto;shape-rendering:auto;text-rendering:auto;enable-background:accumulate"
       d="m 806.78906,498 v 1031.4707 c 0,168.1366 -45.50141,260.4529 -109.33203,315.5781 -63.83061,55.1252 -153.65166,76.0549 -251.86133,77.961 -66.44645,1.2895 -143.27172,-17.6344 -202.81445,-37.709 -29.77136,-10.0373 -55.29417,-20.2175 -73.6875,-27.918 -9.19667,-3.8502 -16.56955,-7.0621 -22.12305,-9.4609 -2.77674,-1.1994 -5.03306,-2.1744 -7.33984,-3.1153 -1.15339,-0.4704 -2.24519,-0.9181 -4.09375,-1.5703 -1.84856,-0.6522 2.70938,-3.0957 -17.53711,-3.0957 v 57.166 42.834 c -4.88787,0 -8.19313,-0.1409 -10.52734,-0.3515 2.78933,1.205 6.38613,2.7635 10.52734,4.541 v 52.9765 c -3.8113,0 -6.45167,-0.104 -8.32227,-0.2578 0.12482,0.047 0.10347,0.036 0.23243,0.084 4.48312,1.6845 11.64144,4.491 20.55468,7.8867 17.8265,6.7915 42.96308,16.0303 73.3125,25.2989 60.69885,18.537 142.44428,37.4585 232.39454,37.6816 h 1.0625 l 1.0625,-0.041 c 91.7223,-3.6722 221.03488,-20.196 328.75781,-101.7774 107.54273,-81.4449 185.13599,-228.6367 175.90039,-463.2519 v 0.8515 l -0.041,-2.0253 c 0.016,0.3936 0.0255,0.7807 0.041,1.1738 V 498 H 906.78906 842.95508 Z M 101.86523,1937.4004 c 0.057,0.023 0.33185,0.1427 0.40235,0.1719 -0.0114,-0.01 0.0122,-0.028 -0.002,-0.033 -0.92861,-0.3277 -0.78625,-0.2961 -0.40039,-0.1387 z"
       transform="translate(0,-288)"
       id="path5829-3-3"
       inkscape:connector-curvature="0" />
  </g>
</svg>
