<?xml version="1.0" encoding="UTF-8" standalone="no"?>
<svg
   xmlns:dc="http://purl.org/dc/elements/1.1/"
   xmlns:cc="http://creativecommons.org/ns#"
   xmlns:rdf="http://www.w3.org/1999/02/22-rdf-syntax-ns#"
   xmlns:svg="http://www.w3.org/2000/svg"
   xmlns="http://www.w3.org/2000/svg"
   xmlns:sodipodi="http://sodipodi.sourceforge.net/DTD/sodipodi-0.dtd"
   xmlns:inkscape="http://www.inkscape.org/namespaces/inkscape"
   version="1.1"
   viewBox="0 -288 1224 2048"
   id="svg6"
   sodipodi:docname="K.svg"
   width="1224"
   height="2048"
   inkscape:version="0.92.0 r">
  <metadata
     id="metadata12">
    <rdf:RDF>
      <cc:Work
         rdf:about="">
        <dc:format>image/svg+xml</dc:format>
        <dc:type
           rdf:resource="http://purl.org/dc/dcmitype/StillImage" />
        <dc:title />
      </cc:Work>
    </rdf:RDF>
  </metadata>
  <defs
     id="defs10" />
  <sodipodi:namedview
     pagecolor="#ffffff"
     bordercolor="#666666"
     borderopacity="1"
     objecttolerance="10"
     gridtolerance="10"
     guidetolerance="10"
     inkscape:pageopacity="0"
     inkscape:pageshadow="2"
     inkscape:window-width="1364"
     inkscape:window-height="730"
     id="namedview8"
     showgrid="false"
     inkscape:zoom="0.27395094"
     inkscape:cx="-2015.6404"
     inkscape:cy="425.03623"
     inkscape:window-x="0"
     inkscape:window-y="18"
     inkscape:window-maximized="0"
     inkscape:current-layer="layer3"
     inkscape:measure-start="728.887,1159.89"
     inkscape:measure-end="796.441,1159.89" />
  <g
     inkscape:groupmode="layer"
     id="layer3"
     inkscape:label="trace"
     style="display:inline">
    <path
       style="color:#000000;font-style:normal;font-variant:normal;font-weight:normal;font-stretch:normal;font-size:medium;line-height:normal;font-family:sans-serif;font-variant-ligatures:normal;font-variant-position:normal;font-variant-caps:normal;font-variant-numeric:normal;font-variant-alternates:normal;font-feature-settings:normal;text-indent:0;text-align:start;text-decoration:none;text-decoration-line:none;text-decoration-style:solid;text-decoration-color:#000000;letter-spacing:normal;word-spacing:normal;text-transform:none;writing-mode:lr-tb;direction:ltr;text-orientation:mixed;dominant-baseline:auto;baseline-shift:baseline;text-anchor:start;white-space:normal;shape-padding:0;clip-rule:nonzero;display:inline;overflow:visible;visibility:visible;opacity:1;isolation:auto;mix-blend-mode:normal;color-interpolation:sRGB;color-interpolation-filters:linearRGB;solid-color:#000000;solid-opacity:1;vector-effect:none;fill:#000000;fill-opacity:1;fill-rule:evenodd;stroke:none;stroke-width:100;stroke-linecap:butt;stroke-linejoin:miter;stroke-miterlimit:4;stroke-dasharray:none;stroke-dashoffset:0;stroke-opacity:1;color-rendering:auto;image-rendering:auto;shape-rendering:auto;text-rendering:auto;enable-background:accumulate"
       d="m 1016.1641,465.87109 c 0.1841,-0.21077 -0.2385,0.27024 -0.8672,0.95118 -0.7477,0.80975 -2.4618,2.61618 -3.8555,4.09375 0.5237,-3.4e-4 0.9797,-0.0256 1.2207,-0.39063 1.3493,-2.04332 1.9143,-2.70336 2.3516,-3.25781 0.8746,-1.10891 1.0583,-1.2911 1.1504,-1.39649 z m -49.16019,1.49219 c -0.0481,0.0574 -0.21969,0.26475 -0.44336,0.52149 -0.89472,1.02694 -2.85514,3.21347 -5.47266,6.07031 -5.23504,5.71368 -13.25885,14.32042 -23.49609,25.20508 -20.47448,21.76932 -49.90207,52.76669 -85.22266,89.82226 -70.64117,74.11114 -164.91375,172.51604 -259.19531,270.75391 -94.28156,98.23786 -188.58101,196.31867 -259.31836,269.83397 -12.97272,13.4822 -20.11299,20.8893 -31.35547,32.5684 V 498 H 264.73047 202.5 164.73047 V 2048 H 202.5 264.73047 302.5 v -708.7285 c 21.88856,-22.0488 49.45611,-49.9559 81.65625,-82.6524 24.6657,-25.0459 52.43423,-53.3035 81.3457,-82.748 50.70854,89.4959 136.14195,240.5119 225.33789,399.4824 67.88286,120.985 135.76438,242.7106 186.54688,335.4414 25.39125,46.3654 46.52887,85.5276 61.09766,113.4063 7.28438,13.9393 12.95289,25.1276 16.46289,32.459 1.755,3.6656 2.98811,6.4492 3.3789,7.4023 0.1954,0.4766 0.17675,0.5516 -0.21484,-0.6777 -0.3916,-1.2294 -1.96289,-1.8591 -1.96289,-13.3848 h 42.09765 c 2.27961,4.135 4.44251,8.0681 6.03321,11.0234 1.9215,3.57 3.3448,6.3019 3.9629,7.543 0.309,0.6206 0.4375,0.9525 0.078,0.1231 -0.1796,-0.4148 -0.4797,-1.0557 -1.0996,-2.8594 -0.6199,-1.8038 -2.6133,-2.0464 -2.6133,-15.8301 h 51.541 48.459 c 0,-13.9484 -2.0605,-14.4727 -2.8164,-16.6719 -0.7558,-2.1992 -1.2596,-3.3493 -1.709,-4.3867 -0.8987,-2.0747 -1.5735,-3.4398 -2.3261,-4.9512 -1.5053,-3.0228 -3.2338,-6.298 -5.4219,-10.3632 -4.3763,-8.1306 -10.4838,-19.1581 -18.2285,-32.9649 -15.4896,-27.6136 -37.4485,-66.1796 -63.7891,-112.1484 C 957.63525,1774.5761 887.47717,1653.1251 817.31836,1532.0039 692.31381,1316.1979 581.63182,1126.066 555.83984,1081.7676 593.95263,1042.8741 632.9876,1003.011 672.45312,962.66016 777.05733,855.70939 881.50615,748.6646 959.8418,668.11914 c 39.16782,-40.27273 71.7996,-73.91154 94.709,-97.65625 11.4547,-11.87235 20.4637,-21.25378 26.7441,-27.86133 3.1402,-3.30377 5.571,-5.88398 7.4707,-7.9414 0.9499,-1.02871 1.7229,-1.86926 2.709,-2.99805 0.4931,-0.5644 0.9801,-1.10362 2.0566,-2.46875 0.5384,-0.68257 1.1782,-1.44432 2.5782,-3.56445 1.4,-2.12013 8.3144,6.19457 8.3144,-27.62891 h -48 -52 c 0,-11.55251 0.832,-17.94843 1.9453,-21.74805 -5.254,5.51369 -12.18055,12.73523 -20.86715,21.74805 h -29.07812 c 0,-18.46414 4.11083,-20.0757 5.53906,-22.8418 1.42823,-2.76609 2.23557,-3.90489 2.84375,-4.80859 1.21637,-1.80741 1.63071,-2.2714 1.90039,-2.61133 0.26968,-0.33993 0.345,-0.43242 0.29688,-0.375 z"
       transform="translate(0,-288)"
       id="path5236-3-9-6"
       inkscape:connector-curvature="0" />
  </g>
</svg>
