<?xml version="1.0" encoding="UTF-8" standalone="no"?>
<svg
   xmlns:dc="http://purl.org/dc/elements/1.1/"
   xmlns:cc="http://creativecommons.org/ns#"
   xmlns:rdf="http://www.w3.org/1999/02/22-rdf-syntax-ns#"
   xmlns:svg="http://www.w3.org/2000/svg"
   xmlns="http://www.w3.org/2000/svg"
   xmlns:sodipodi="http://sodipodi.sourceforge.net/DTD/sodipodi-0.dtd"
   xmlns:inkscape="http://www.inkscape.org/namespaces/inkscape"
   version="1.1"
   viewBox="0 -288 1016 2048"
   id="svg6"
   sodipodi:docname="p.svg"
   width="1016"
   height="2048"
   inkscape:version="0.92.0 r">
  <metadata
     id="metadata12">
    <rdf:RDF>
      <cc:Work
         rdf:about="">
        <dc:format>image/svg+xml</dc:format>
        <dc:type
           rdf:resource="http://purl.org/dc/dcmitype/StillImage" />
        <dc:title />
      </cc:Work>
    </rdf:RDF>
  </metadata>
  <defs
     id="defs10" />
  <sodipodi:namedview
     pagecolor="#ffffff"
     bordercolor="#666666"
     borderopacity="1"
     objecttolerance="10"
     gridtolerance="10"
     guidetolerance="10"
     inkscape:pageopacity="0"
     inkscape:pageshadow="2"
     inkscape:window-width="1364"
     inkscape:window-height="730"
     id="namedview8"
     showgrid="false"
     inkscape:zoom="0.54030434"
     inkscape:cx="-388.53485"
     inkscape:cy="411.69144"
     inkscape:window-x="0"
     inkscape:window-y="18"
     inkscape:window-maximized="0"
     inkscape:current-layer="layer2" />
  <g
     inkscape:groupmode="layer"
     id="layer2"
     inkscape:label="trace">
    <path
       style="color:#000000;font-style:normal;font-variant:normal;font-weight:normal;font-stretch:normal;font-size:medium;line-height:normal;font-family:sans-serif;font-variant-ligatures:normal;font-variant-position:normal;font-variant-caps:normal;font-variant-numeric:normal;font-variant-alternates:normal;font-feature-settings:normal;text-indent:0;text-align:start;text-decoration:none;text-decoration-line:none;text-decoration-style:solid;text-decoration-color:#000000;letter-spacing:normal;word-spacing:normal;text-transform:none;writing-mode:lr-tb;direction:ltr;text-orientation:mixed;dominant-baseline:auto;baseline-shift:baseline;text-anchor:start;white-space:normal;shape-padding:0;clip-rule:nonzero;display:inline;overflow:visible;visibility:visible;opacity:1;isolation:auto;mix-blend-mode:normal;color-interpolation:sRGB;color-interpolation-filters:linearRGB;solid-color:#000000;solid-opacity:1;vector-effect:none;fill:#000000;fill-opacity:0.99708174;fill-rule:evenodd;stroke:none;stroke-width:100;stroke-linecap:butt;stroke-linejoin:miter;stroke-miterlimit:4;stroke-dasharray:none;stroke-dashoffset:0;stroke-opacity:1;color-rendering:auto;image-rendering:auto;shape-rendering:auto;text-rendering:auto;enable-background:accumulate"
       d="m 261.05664,879.26953 c -0.0958,0.0883 -0.13867,1.22056 -0.13867,3.73047 h -100 l -0.002,297.459 V 2333 h 38.42187 61.57813 38.42187 V 1978.2324 C 361.08598,2025.5602 442.72916,2068 537.0293,2068 658.40415,2068 753.21658,1987.8872 809.25781,1874.5859 865.29905,1761.2846 891,1612.1235 891,1446.6406 891,1286.4436 872.89593,1152.8157 828.9082,1052.7461 784.92047,952.67646 704.38357,883.42578 601.6875,883.42578 l 0.45117,0.002 -94.80273,-0.85351 h -0.22461 c -31.60027,0 -56.9618,11.13563 -84.98828,25.15625 -28.02648,14.02061 -57.38833,32.41913 -86.90235,52.94726 -17.6857,12.30109 -35.36385,25.35342 -52.56836,38.64844 -2.78917,-14.33396 -5.62476,-28.87322 -8.22851,-42.40039 -3.98222,-20.68868 -7.55459,-39.60896 -10.06445,-53.84766 -1.88241,-10.679 -2.87768,-23.08703 -3.25782,-23.7832 -0.0158,-0.029 -0.0312,-0.038 -0.0449,-0.0254 z m 280.70508,123.69927 c 62.16955,-0.037 100.48775,8.5938 135.54297,60.7753 36.18602,53.8648 66.04101,168.9477 66.04101,382 0,146.3596 -19.18996,274.6857 -58.63867,360.0352 -39.43044,85.31 -88.90015,126.6541 -173.94336,127.2168 -66.97927,-0.041 -118.91061,-21.1694 -156.00781,-44.709 -21.22161,-16.8936 -40.02281,-34.1857 -55.41797,-49.4062 v -658.4219 -66.0586 c 6.95807,-5.849 14.10849,-11.7547 21.42578,-17.668 12.78269,-9.8252 28.33514,-21.0602 46.0293,-32.3886 C 416.7491,1032.3601 481.95614,1003 535.23047,1003 h 0.2207 l 0.21875,-0 c 2.0558,-0.018 4.08633,-0.028 6.0918,-0.029 z"
       transform="translate(0,-288)"
       id="path5236-72-2"
       inkscape:connector-curvature="0" />
  </g>
</svg>
