<?xml version="1.0" encoding="UTF-8" standalone="no"?>
<svg
   xmlns:dc="http://purl.org/dc/elements/1.1/"
   xmlns:cc="http://creativecommons.org/ns#"
   xmlns:rdf="http://www.w3.org/1999/02/22-rdf-syntax-ns#"
   xmlns:svg="http://www.w3.org/2000/svg"
   xmlns="http://www.w3.org/2000/svg"
   xmlns:sodipodi="http://sodipodi.sourceforge.net/DTD/sodipodi-0.dtd"
   xmlns:inkscape="http://www.inkscape.org/namespaces/inkscape"
   version="1.1"
   viewBox="0 -288 1016 2048"
   id="svg6"
   sodipodi:docname="q.svg"
   width="1016"
   height="2048"
   inkscape:version="0.92.0 r">
  <metadata
     id="metadata12">
    <rdf:RDF>
      <cc:Work
         rdf:about="">
        <dc:format>image/svg+xml</dc:format>
        <dc:type
           rdf:resource="http://purl.org/dc/dcmitype/StillImage" />
        <dc:title />
      </cc:Work>
    </rdf:RDF>
  </metadata>
  <defs
     id="defs10" />
  <sodipodi:namedview
     pagecolor="#ffffff"
     bordercolor="#666666"
     borderopacity="1"
     objecttolerance="10"
     gridtolerance="10"
     guidetolerance="10"
     inkscape:pageopacity="0"
     inkscape:pageshadow="2"
     inkscape:window-width="1364"
     inkscape:window-height="730"
     id="namedview8"
     showgrid="false"
     inkscape:zoom="0.45652858"
     inkscape:cx="-269.24376"
     inkscape:cy="91.682273"
     inkscape:window-x="0"
     inkscape:window-y="18"
     inkscape:window-maximized="0"
     inkscape:current-layer="layer2" />
  <g
     inkscape:groupmode="layer"
     id="layer2"
     inkscape:label="trace">
    <path
       style="color:#000000;font-style:normal;font-variant:normal;font-weight:normal;font-stretch:normal;font-size:medium;line-height:normal;font-family:sans-serif;font-variant-ligatures:normal;font-variant-position:normal;font-variant-caps:normal;font-variant-numeric:normal;font-variant-alternates:normal;font-feature-settings:normal;text-indent:0;text-align:start;text-decoration:none;text-decoration-line:none;text-decoration-style:solid;text-decoration-color:#000000;letter-spacing:normal;word-spacing:normal;text-transform:none;writing-mode:lr-tb;direction:ltr;text-orientation:mixed;dominant-baseline:auto;baseline-shift:baseline;text-anchor:start;white-space:normal;shape-padding:0;clip-rule:nonzero;display:inline;overflow:visible;visibility:visible;opacity:1;isolation:auto;mix-blend-mode:normal;color-interpolation:sRGB;color-interpolation-filters:linearRGB;solid-color:#000000;solid-opacity:1;vector-effect:none;fill:#000000;fill-opacity:0.99708174;fill-rule:evenodd;stroke:none;stroke-width:100;stroke-linecap:butt;stroke-linejoin:miter;stroke-miterlimit:4;stroke-dasharray:none;stroke-dashoffset:0;stroke-opacity:1;color-rendering:auto;image-rendering:auto;shape-rendering:auto;text-rendering:auto;enable-background:accumulate"
       d="m 433.63477,881 c -105.8592,0 -190.91523,72.62182 -241.59571,177.5176 -50.68048,104.8957 -75.27734,245.4415 -75.27734,409.7597 0,180.3799 35.01353,327.2196 100.56445,432.7227 65.46922,105.3716 166.66577,168.6177 281.2168,166.9863 91.39693,-0.1169 164.63126,-44.3456 219.51562,-96.5429 V 2190.8926 2333 h 38.42188 61.57812 38.42188 v -142.1074 -941.4531 h 0.084 c 0,-1.4805 -0.0339,-2.8961 -0.084,-4.2833 V 1076.4961 883 h -0.006 c -0.001,-0.17739 0.004,-0.3185 0.002,-0.5 l -49.99609,0.5 h -50 v 0.38867 c -0.0154,-1.43424 -0.0379,-2.06358 -0.0781,-2.01953 -0.12473,0.13675 -0.41279,6.35944 -1.13867,12.23242 -0.96784,7.83064 -2.42714,18.51925 -4.19726,30.86914 -3.17425,22.14616 -7.3595,49.73255 -11.64844,77.4316 C 686.35732,937.18352 613.02692,881 518.23242,881 Z m 57.94335,120.998 c 133.41494,0 208.1021,116.822 226.48047,149.6915 v 655.9453 C 691.45443,1840.3693 605.95559,1933 490.13477,1933 c -79.06025,0 -129.49823,-38.5732 -170.21289,-119.459 -40.71468,-80.8857 -62.84376,-203.5091 -62.84376,-346.7734 0,-172.6838 24.35949,-294.0807 64.58399,-365.7617 40.22449,-71.6811 88.96595,-99.0079 169.91601,-99.0079 z"
       transform="translate(0,-288)"
       id="path5236-72-2"
       inkscape:connector-curvature="0" />
  </g>
</svg>
