<?xml version="1.0" encoding="UTF-8" standalone="no"?>
<svg
   xmlns:dc="http://purl.org/dc/elements/1.1/"
   xmlns:cc="http://creativecommons.org/ns#"
   xmlns:rdf="http://www.w3.org/1999/02/22-rdf-syntax-ns#"
   xmlns:svg="http://www.w3.org/2000/svg"
   xmlns="http://www.w3.org/2000/svg"
   xmlns:sodipodi="http://sodipodi.sourceforge.net/DTD/sodipodi-0.dtd"
   xmlns:inkscape="http://www.inkscape.org/namespaces/inkscape"
   version="1.1"
   viewBox="0 -288 928 2048"
   id="svg6"
   sodipodi:docname="question.svg"
   width="928"
   height="2048"
   inkscape:version="0.92.0 r">
  <metadata
     id="metadata12">
    <rdf:RDF>
      <cc:Work
         rdf:about="">
        <dc:format>image/svg+xml</dc:format>
        <dc:type
           rdf:resource="http://purl.org/dc/dcmitype/StillImage" />
        <dc:title />
      </cc:Work>
    </rdf:RDF>
  </metadata>
  <defs
     id="defs10" />
  <sodipodi:namedview
     pagecolor="#ffffff"
     bordercolor="#666666"
     borderopacity="1"
     objecttolerance="10"
     gridtolerance="10"
     guidetolerance="10"
     inkscape:pageopacity="0"
     inkscape:pageshadow="2"
     inkscape:window-width="1364"
     inkscape:window-height="730"
     id="namedview8"
     showgrid="false"
     inkscape:zoom="0.27300211"
     inkscape:cx="-1623.4793"
     inkscape:cy="-414.95934"
     inkscape:window-x="0"
     inkscape:window-y="18"
     inkscape:window-maximized="0"
     inkscape:current-layer="layer2"
     inkscape:measure-start="113.256,1340.1"
     inkscape:measure-end="113.256,1431.14"
     showguides="false"
     inkscape:guide-bbox="true">
    <sodipodi:guide
       position="427.10985,489.7839"
       orientation="1,0"
       id="guide132"
       inkscape:locked="false" />
    <sodipodi:guide
       position="465.17694,293.51362"
       orientation="1,0"
       id="guide134"
       inkscape:locked="false" />
  </sodipodi:namedview>
  <g
     inkscape:groupmode="layer"
     id="layer2"
     inkscape:label="trace"
     style="display:inline">
    <path
       style="color:#000000;font-style:normal;font-variant:normal;font-weight:normal;font-stretch:normal;font-size:medium;line-height:normal;font-family:sans-serif;font-variant-ligatures:normal;font-variant-position:normal;font-variant-caps:normal;font-variant-numeric:normal;font-variant-alternates:normal;font-feature-settings:normal;text-indent:0;text-align:start;text-decoration:none;text-decoration-line:none;text-decoration-style:solid;text-decoration-color:#000000;letter-spacing:normal;word-spacing:normal;text-transform:none;writing-mode:lr-tb;direction:ltr;text-orientation:mixed;dominant-baseline:auto;baseline-shift:baseline;text-anchor:start;white-space:normal;shape-padding:0;clip-rule:nonzero;display:inline;overflow:visible;visibility:visible;opacity:1;isolation:auto;mix-blend-mode:normal;color-interpolation:sRGB;color-interpolation-filters:linearRGB;solid-color:#000000;solid-opacity:1;vector-effect:none;fill:#000000;fill-opacity:1;fill-rule:evenodd;stroke:none;stroke-width:100;stroke-linecap:butt;stroke-linejoin:miter;stroke-miterlimit:4;stroke-dasharray:none;stroke-dashoffset:0;stroke-opacity:1;color-rendering:auto;image-rendering:auto;shape-rendering:auto;text-rendering:auto;enable-background:accumulate"
       d="m 397.45508,498 c -92.58492,0 -169.67273,48.18792 -225.08594,93.78906 -27.7066,22.80057 -50.23225,45.53207 -66.52734,63.19922 -8.147553,8.83358 -14.743875,16.41933 -19.496097,21.9707 -4.752222,5.55138 -11.271236,12.41967 -5.882812,7.03125 l 31.763669,31.76368 c -0.53388,0.74624 -1.33758,1.86664 -1.71679,2.39257 0.51834,-0.55492 0.98604,-1.06025 2.02734,-2.08203 l 38.63672,38.63672 c 0.0752,-0.0752 0.12371,-0.1255 0.19726,-0.19922 l 31.14063,32.98438 c 9.40761,-8.88162 7.10183,-8.07575 8.57617,-10.10938 1.47434,-2.03363 2.9653,-4.14142 4.78125,-6.66211 3.63191,-5.04138 8.45227,-11.5967 14.66016,-19.33984 12.41577,-15.48628 30.29247,-35.55234 53.32617,-55.17969 C 309.92287,656.94061 374.69168,620 462.09961,620 c 58.27328,0 113.4135,11.816 152.36719,44.64648 38.95368,32.83049 69.54492,89.47684 69.54492,203.2461 0,131.00711 -64.60942,202.65272 -141.97656,296.17582 -77.36715,93.523 -164.92578,208.1206 -164.92578,394.1484 h 100 c 0,-0.158 0.004,-0.3128 0.004,-0.4707 h 37.27344 c 0,-169.7849 64.24922,-239.3285 140.5,-324.8496 76.25078,-85.5212 165.85742,-187.6909 165.85742,-375.56252 v -0.48242 l -0.01,-0.48437 C 818.4791,739.6381 781.52019,648.61817 722.96484,587.80469 664.4095,526.99121 586.02457,498 508.81445,498 Z M 377.70312,1783.5059 V 2048 h 100 37.76758 v -264.4941 h -37.76758 z"
       transform="translate(0,-288)"
       id="path5546-0-3-9"
       inkscape:connector-curvature="0" />
  </g>
</svg>
