<?xml version="1.0" encoding="UTF-8" standalone="no"?>
<svg
   xmlns:dc="http://purl.org/dc/elements/1.1/"
   xmlns:cc="http://creativecommons.org/ns#"
   xmlns:rdf="http://www.w3.org/1999/02/22-rdf-syntax-ns#"
   xmlns:svg="http://www.w3.org/2000/svg"
   xmlns="http://www.w3.org/2000/svg"
   xmlns:sodipodi="http://sodipodi.sourceforge.net/DTD/sodipodi-0.dtd"
   xmlns:inkscape="http://www.inkscape.org/namespaces/inkscape"
   version="1.1"
   viewBox="0 -288 944 2048"
   id="svg6"
   sodipodi:docname="s.svg"
   width="944"
   height="2048"
   inkscape:version="0.92.0 r">
  <metadata
     id="metadata12">
    <rdf:RDF>
      <cc:Work
         rdf:about="">
        <dc:format>image/svg+xml</dc:format>
        <dc:type
           rdf:resource="http://purl.org/dc/dcmitype/StillImage" />
        <dc:title />
      </cc:Work>
    </rdf:RDF>
  </metadata>
  <defs
     id="defs10" />
  <sodipodi:namedview
     pagecolor="#ffffff"
     bordercolor="#666666"
     borderopacity="1"
     objecttolerance="10"
     gridtolerance="10"
     guidetolerance="10"
     inkscape:pageopacity="0"
     inkscape:pageshadow="2"
     inkscape:window-width="1364"
     inkscape:window-height="730"
     id="namedview8"
     showgrid="false"
     inkscape:zoom="0.16140723"
     inkscape:cx="287.75205"
     inkscape:cy="722.42279"
     inkscape:window-x="0"
     inkscape:window-y="18"
     inkscape:window-maximized="0"
     inkscape:current-layer="layer3"
     showguides="true"
     inkscape:guide-bbox="true"
     inkscape:measure-start="481.627,77.6468"
     inkscape:measure-end="481.627,47.1864">
    <sodipodi:guide
       position="438.23729,503.32203"
       orientation="1,0"
       id="guide5650"
       inkscape:locked="false" />
    <sodipodi:guide
       position="525.01695,507.66102"
       orientation="1,0"
       id="guide5652"
       inkscape:locked="false" />
  </sodipodi:namedview>
  <g
     inkscape:groupmode="layer"
     id="layer3"
     inkscape:label="trace2"
     style="display:inline">
    <path
       style="color:#000000;font-style:normal;font-variant:normal;font-weight:normal;font-stretch:normal;font-size:medium;line-height:normal;font-family:sans-serif;font-variant-ligatures:normal;font-variant-position:normal;font-variant-caps:normal;font-variant-numeric:normal;font-variant-alternates:normal;font-feature-settings:normal;text-indent:0;text-align:start;text-decoration:none;text-decoration-line:none;text-decoration-style:solid;text-decoration-color:#000000;letter-spacing:normal;word-spacing:normal;text-transform:none;writing-mode:lr-tb;direction:ltr;text-orientation:mixed;dominant-baseline:auto;baseline-shift:baseline;text-anchor:start;white-space:normal;shape-padding:0;clip-rule:nonzero;display:inline;overflow:visible;visibility:visible;opacity:1;isolation:auto;mix-blend-mode:normal;color-interpolation:sRGB;color-interpolation-filters:linearRGB;solid-color:#000000;solid-opacity:1;vector-effect:none;fill:#010000;fill-opacity:1;fill-rule:evenodd;stroke:none;stroke-width:100;stroke-linecap:butt;stroke-linejoin:miter;stroke-miterlimit:4;stroke-dasharray:none;stroke-dashoffset:0;stroke-opacity:1;color-rendering:auto;image-rendering:auto;shape-rendering:auto;text-rendering:auto;enable-background:accumulate"
       d="m 486.50586,882.96094 -82.10352,0.0781 c -52.98069,0 -115.61665,21.35227 -171.48437,67.89258 -55.86772,46.54031 -101.63882,122.30336 -101.63867,221.45316 0,99.0694 32.03174,174.9156 87.58984,224.8535 54.19135,48.7093 123.92412,73.0693 200.64063,93.8847 1.53926,0.4637 3.08937,0.9466 4.62109,1.3985 l 85.73047,25.293 18.77344,5.5703 c 101.63287,33.3462 153.37109,110.4798 153.37109,209.7441 0,87.3628 -32.70623,129.2288 -73.0625,157.1484 -40.35627,27.9197 -93.38022,37.1563 -117.7793,37.1563 -111.29354,0 -157.74583,-38.7704 -186.71484,-86.4551 -28.96902,-47.6847 -35.23047,-110.4266 -35.23047,-149.0215 h -46.64453 -53.35547 -46.64453 c 0,71.5649 14.77073,162.3227 68.74609,239.7735 C 245.29567,2009.181 341.95582,2068 480.89844,2068 c 0.59938,0 1.46423,3e-4 2.42968,-0.014 75.17395,-0.479 156.50856,-19.6825 220.66407,-74.7754 64.16928,-55.1046 105.66797,-145.2072 105.66797,-267.6054 0,-74.7308 -21.27951,-140.8581 -63.77149,-191.2891 -42.32721,-50.2355 -103.03477,-83.3091 -175.58594,-102.8789 l 0.43555,0.1289 -1.2793,-0.3613 c 0.28277,0.076 0.56135,0.1562 0.84375,0.2324 l -14.84179,-4.4023 c -5.42022,-1.7448 -10.91505,-3.3828 -16.49414,-4.8946 l 0.19922,0.059 -0.0996,-0.027 -0.0996,-0.031 -0.64844,-0.1914 -85.86133,-25.4707 a 50.005,50.005 0 0 0 -1.2793,-0.3613 c -1.28736,-0.345 -2.52794,-0.6966 -3.80468,-1.043 -49.54324,-15.0738 -97.57651,-36.5162 -131.18555,-67.3183 -34.75199,-31.8496 -57.15039,-71.4147 -57.15039,-139.8243 0,-108.3543 70.21277,-184.7663 191.24023,-184.9179 86.87736,1.6969 132.27525,32.1078 162.6875,73.7754 30.47834,41.758 43.44262,99.5448 43.72071,150.5312 l 44.42187,-0.2422 c 4.8e-4,0.077 0.003,0.1533 0.004,0.2305 l 99.99805,-0.5449 c -1.0644,-194.84 -143.90124,-343.96443 -314.60352,-343.80276 z"
       transform="translate(0,-288)"
       id="path5848-2-90-2-3"
       inkscape:connector-curvature="0" />
  </g>
  <g
     inkscape:groupmode="layer"
     id="layer4"
     inkscape:label="trace3"
     style="display:inline" />
</svg>
