<?xml version="1.0" encoding="UTF-8" standalone="no"?>
<svg
   xmlns:dc="http://purl.org/dc/elements/1.1/"
   xmlns:cc="http://creativecommons.org/ns#"
   xmlns:rdf="http://www.w3.org/1999/02/22-rdf-syntax-ns#"
   xmlns:svg="http://www.w3.org/2000/svg"
   xmlns="http://www.w3.org/2000/svg"
   xmlns:sodipodi="http://sodipodi.sourceforge.net/DTD/sodipodi-0.dtd"
   xmlns:inkscape="http://www.inkscape.org/namespaces/inkscape"
   version="1.1"
   viewBox="0 -288 1040 2048"
   id="svg6"
   sodipodi:docname="six.svg"
   width="1040"
   height="2048"
   inkscape:version="0.92.0 r">
  <metadata
     id="metadata12">
    <rdf:RDF>
      <cc:Work
         rdf:about="">
        <dc:format>image/svg+xml</dc:format>
        <dc:type
           rdf:resource="http://purl.org/dc/dcmitype/StillImage" />
        <dc:title />
      </cc:Work>
    </rdf:RDF>
  </metadata>
  <defs
     id="defs10" />
  <sodipodi:namedview
     pagecolor="#ffffff"
     bordercolor="#666666"
     borderopacity="1"
     objecttolerance="10"
     gridtolerance="10"
     guidetolerance="10"
     inkscape:pageopacity="0"
     inkscape:pageshadow="2"
     inkscape:window-width="1364"
     inkscape:window-height="730"
     id="namedview8"
     showgrid="false"
     inkscape:zoom="0.35767853"
     inkscape:cx="-496.12778"
     inkscape:cy="606.61017"
     inkscape:window-x="0"
     inkscape:window-y="18"
     inkscape:window-maximized="0"
     inkscape:current-layer="layer3"
     showguides="true"
     inkscape:guide-bbox="true"
     inkscape:measure-start="513.27,-28.08"
     inkscape:measure-end="513.27,158.652">
    <sodipodi:guide
       position="1065.0344,577.42827"
       orientation="0,1"
       id="guide44"
       inkscape:locked="false" />
    <sodipodi:guide
       position="513.26958,889.05623"
       orientation="1,0"
       id="guide61"
       inkscape:locked="false" />
    <sodipodi:guide
       position="286.55127,7.1488883"
       orientation="1,0"
       id="guide48"
       inkscape:locked="false" />
    <sodipodi:guide
       position="852.93056,248.53885"
       orientation="0,1"
       id="guide50"
       inkscape:locked="false" />
    <sodipodi:guide
       position="860.39849,906.5684"
       orientation="0,1"
       id="guide52"
       inkscape:locked="false" />
    <sodipodi:guide
       position="748.77593,1110.8423"
       orientation="1,0"
       id="guide54"
       inkscape:locked="false" />
  </sodipodi:namedview>
  <g
     inkscape:groupmode="layer"
     id="layer3"
     inkscape:label="trace">
    <path
       style="color:#000000;font-style:normal;font-variant:normal;font-weight:normal;font-stretch:normal;font-size:medium;line-height:normal;font-family:sans-serif;font-variant-ligatures:normal;font-variant-position:normal;font-variant-caps:normal;font-variant-numeric:normal;font-variant-alternates:normal;font-feature-settings:normal;text-indent:0;text-align:start;text-decoration:none;text-decoration-line:none;text-decoration-style:solid;text-decoration-color:#000000;letter-spacing:normal;word-spacing:normal;text-transform:none;writing-mode:lr-tb;direction:ltr;text-orientation:mixed;dominant-baseline:auto;baseline-shift:baseline;text-anchor:start;white-space:normal;shape-padding:0;clip-rule:nonzero;display:inline;overflow:visible;visibility:visible;opacity:1;isolation:auto;mix-blend-mode:normal;color-interpolation:sRGB;color-interpolation-filters:linearRGB;solid-color:#000000;solid-opacity:1;vector-effect:none;fill:#000000;fill-opacity:1;fill-rule:evenodd;stroke:none;stroke-width:100;stroke-linecap:butt;stroke-linejoin:miter;stroke-miterlimit:4;stroke-dasharray:none;stroke-dashoffset:0;stroke-opacity:1;color-rendering:auto;image-rendering:auto;shape-rendering:auto;text-rendering:auto;enable-background:accumulate"
       d="m 576,473.00977 c -0.0469,0.0726 -0.98919,1.47563 -2.32031,3.37109 -2.66224,3.79091 -7.06691,9.91837 -12.68164,17.7832 -0.82046,1.14926 -1.85353,2.61046 -2.72657,3.83594 h -44.37304 c 0,-8.87102 0.62239,-13.77608 1.42968,-16.63281 -2.46727,3.64816 -5.12001,7.54668 -9.23242,13.57422 -10.58581,15.51557 -25.92256,38.14616 -44.28906,66.79492 -36.73299,57.29752 -85.69498,138.80431 -134.73633,238.13281 -98.0827,198.657 -197.16211,468.83916 -197.16211,761.43746 0,148.079 26.99303,271.9427 90.55469,362.8711 63.56166,90.9285 166.20713,143.0994 291.97461,143.8223 126.34013,0.7263 229.55948,-51.529 293.27734,-142.7969 63.71787,-91.2678 90.73243,-215.7125 90.73243,-363.8965 0,-147.5496 -23.97359,-273.1508 -78.93555,-367.0566 -54.96196,-93.9058 -147.37821,-153.666 -260.05274,-153.666 h -84.5996 c -35.82951,0 -75.03125,9.8354 -113.72461,30.1172 30.63137,-80.63293 65.71166,-156.10719 101.01757,-223.5137 49.74704,-94.97767 99.60832,-174.02982 136.99024,-229.70312 18.69096,-27.83666 34.23718,-49.7988 45.24414,-65.2168 5.50348,-7.709 9.83497,-13.72557 13.1289,-18.41602 1.64698,-2.34522 2.9887,-4.26701 4.48047,-6.57617 0.74589,-1.15458 1.49891,-2.29636 2.75196,-4.58984 0.62652,-1.14674 1.38633,-2.51145 2.52929,-5.26758 1.14297,-2.75614 3.88672,-5.14714 3.88672,-19.41797 h -55.26562 -44.73438 c 0,-14.15442 2.69577,-16.37004 3.74024,-18.88867 1.04447,-2.51863 1.6568,-3.58402 2.08789,-4.37305 0.86217,-1.57805 1.03126,-1.76482 1.00781,-1.72851 z m -56.00977,1.37304 c 0.0412,-0.0682 -0.7691,1.18924 -1.59961,2.45508 0.15135,-0.1122 0.38445,-0.18812 0.47461,-0.36914 0.86988,-1.74641 1.09912,-2.04305 1.125,-2.08594 z m -5.69531,667.44729 c 79.94305,0 134.99155,30.7755 177.99024,96.3047 42.99869,65.5291 69.75976,169.6487 69.75976,307.1718 0,159.6047 -27.96032,258.2336 -68.84961,312.7481 C 652.30602,1912.5692 598.08606,1933 514.29492,1933 c -85.03364,0 -140.46089,-20.6669 -181.94336,-75.207 -41.48247,-54.5401 -69.79687,-152.9609 -69.79687,-312.4864 0,-91.3666 12.72377,-182.5671 33.52539,-270.7734 26.6631,-45.66 58.13925,-77.6377 88.05859,-98.8672 32.37506,-19.3538 75.01668,-33.8359 130.15625,-33.8359 z"
       transform="translate(0,-288)"
       id="path5546-1-6-6-0-9-4"
       inkscape:connector-curvature="0" />
  </g>
</svg>
