<?xml version="1.0" encoding="UTF-8" standalone="no"?>
<svg
   xmlns:dc="http://purl.org/dc/elements/1.1/"
   xmlns:cc="http://creativecommons.org/ns#"
   xmlns:rdf="http://www.w3.org/1999/02/22-rdf-syntax-ns#"
   xmlns:svg="http://www.w3.org/2000/svg"
   xmlns="http://www.w3.org/2000/svg"
   xmlns:sodipodi="http://sodipodi.sourceforge.net/DTD/sodipodi-0.dtd"
   xmlns:inkscape="http://www.inkscape.org/namespaces/inkscape"
   version="1.1"
   viewBox="0 -288 1024 2048"
   id="svg6"
   sodipodi:docname="three.svg"
   width="1024"
   height="2048"
   inkscape:version="0.92.0 r">
  <metadata
     id="metadata12">
    <rdf:RDF>
      <cc:Work
         rdf:about="">
        <dc:format>image/svg+xml</dc:format>
        <dc:type
           rdf:resource="http://purl.org/dc/dcmitype/StillImage" />
        <dc:title />
      </cc:Work>
    </rdf:RDF>
  </metadata>
  <defs
     id="defs10" />
  <sodipodi:namedview
     pagecolor="#ffffff"
     bordercolor="#666666"
     borderopacity="1"
     objecttolerance="10"
     gridtolerance="10"
     guidetolerance="10"
     inkscape:pageopacity="0"
     inkscape:pageshadow="2"
     inkscape:window-width="1364"
     inkscape:window-height="730"
     id="namedview8"
     showgrid="false"
     inkscape:zoom="0.38004909"
     inkscape:cx="952.11886"
     inkscape:cy="682.76918"
     inkscape:window-x="0"
     inkscape:window-y="18"
     inkscape:window-maximized="0"
     inkscape:current-layer="layer3"
     inkscape:measure-start="148.403,112.827"
     inkscape:measure-end="148.403,207.358"
     showguides="true"
     inkscape:guide-bbox="true">
    <sodipodi:guide
       position="845.51112,411.80334"
       orientation="1,0"
       id="guide4527"
       inkscape:locked="false" />
    <sodipodi:guide
       position="137.32824,1138.2237"
       orientation="1,0"
       id="guide4520"
       inkscape:locked="false" />
    <sodipodi:guide
       position="505.1881,1241.5236"
       orientation="1,0"
       id="guide4524"
       inkscape:locked="false" />
    <sodipodi:guide
       position="2685.0253,1156.4501"
       orientation="0,1"
       id="guide4526"
       inkscape:locked="false" />
  </sodipodi:namedview>
  <g
     inkscape:groupmode="layer"
     id="layer3"
     inkscape:label="trace"
     style="display:inline">
    <path
       style="color:#000000;font-style:normal;font-variant:normal;font-weight:normal;font-stretch:normal;font-size:medium;line-height:normal;font-family:sans-serif;font-variant-ligatures:normal;font-variant-position:normal;font-variant-caps:normal;font-variant-numeric:normal;font-variant-alternates:normal;font-feature-settings:normal;text-indent:0;text-align:start;text-decoration:none;text-decoration-line:none;text-decoration-style:solid;text-decoration-color:#000000;letter-spacing:normal;word-spacing:normal;text-transform:none;writing-mode:lr-tb;direction:ltr;text-orientation:mixed;dominant-baseline:auto;baseline-shift:baseline;text-anchor:start;white-space:normal;shape-padding:0;clip-rule:nonzero;display:inline;overflow:visible;visibility:visible;opacity:1;isolation:auto;mix-blend-mode:normal;color-interpolation:sRGB;color-interpolation-filters:linearRGB;solid-color:#000000;solid-opacity:1;vector-effect:none;fill:#000000;fill-opacity:1;fill-rule:evenodd;stroke:none;stroke-width:100;stroke-linecap:butt;stroke-linejoin:miter;stroke-miterlimit:4;stroke-dasharray:none;stroke-dashoffset:0;stroke-opacity:1;color-rendering:auto;image-rendering:auto;shape-rendering:auto;text-rendering:auto;enable-background:accumulate"
       d="m 156.75586,498 v 35 h -0.52734 v 100 h 549.5039 L 340,1099.8984 v 11.4004 91.1035 13.1543 h 50 c 102.98711,0 193.02335,18.7475 254.77344,68.3399 61.75009,49.5924 104.13281,132.3314 104.13281,287.2012 0,112.8476 -25.66431,203.681 -70.89844,263.5136 -45.14756,59.7182 -108.23623,93.2488 -204.55859,93.377 -86.06927,-2.0455 -159.51517,-29.8832 -213.28516,-57.9317 -26.94551,-14.0558 -48.76946,-28.0371 -65.02539,-38.8769 -8.12796,-5.4199 -14.74608,-9.9945 -20.82812,-13.9453 -3.04102,-1.9754 -5.8322,-3.7776 -9.76172,-5.8946 -3.92953,-2.1169 -4.3769,-7.3261 -27.22071,-7.3261 v 54.6562 45.3438 c -8.44753,0 -12.65444,-0.7164 -15.43945,-1.543 3.67612,2.4269 8.87201,5.9495 15.43945,10.3438 v 45.8554 c -7.46611,0 -11.31785,-0.5293 -14.01367,-1.1582 4.24919,2.5487 10.20754,6.235 18.29493,11.0957 17.8105,10.7045 43.30159,25.3849 75.00585,40.0879 63.40853,29.406 152.31069,59.3047 258.33985,59.3047 132.96253,0 242.13512,-56.0766 312.48828,-147.8398 70.35316,-91.7633 103.69141,-215.6217 103.69141,-353.879 0,-169.749 -59.43312,-292.0515 -154.69532,-365.5566 -73.79662,-56.9421 -164.90459,-84.5824 -261.29687,-94.1855 L 872.12305,638.34375 V 498 Z"
       transform="translate(0,-288)"
       id="path5236-7-72-2-3"
       inkscape:connector-curvature="0" />
  </g>
</svg>
