<?xml version="1.0" encoding="UTF-8" standalone="no"?>
<svg
   xmlns:dc="http://purl.org/dc/elements/1.1/"
   xmlns:cc="http://creativecommons.org/ns#"
   xmlns:rdf="http://www.w3.org/1999/02/22-rdf-syntax-ns#"
   xmlns:svg="http://www.w3.org/2000/svg"
   xmlns="http://www.w3.org/2000/svg"
   xmlns:sodipodi="http://sodipodi.sourceforge.net/DTD/sodipodi-0.dtd"
   xmlns:inkscape="http://www.inkscape.org/namespaces/inkscape"
   version="1.1"
   viewBox="0 -288 1296 2048"
   id="svg6"
   sodipodi:docname="V.svg"
   width="1296"
   height="2048"
   inkscape:version="0.92.0 r">
  <metadata
     id="metadata12">
    <rdf:RDF>
      <cc:Work
         rdf:about="">
        <dc:format>image/svg+xml</dc:format>
        <dc:type
           rdf:resource="http://purl.org/dc/dcmitype/StillImage" />
        <dc:title />
      </cc:Work>
    </rdf:RDF>
  </metadata>
  <defs
     id="defs10" />
  <sodipodi:namedview
     pagecolor="#ffffff"
     bordercolor="#666666"
     borderopacity="1"
     objecttolerance="10"
     gridtolerance="10"
     guidetolerance="10"
     inkscape:pageopacity="0"
     inkscape:pageshadow="2"
     inkscape:window-width="1364"
     inkscape:window-height="730"
     id="namedview8"
     showgrid="false"
     inkscape:zoom="0.29673431"
     inkscape:cx="96.995403"
     inkscape:cy="1048.1702"
     inkscape:window-x="0"
     inkscape:window-y="18"
     inkscape:window-maximized="0"
     inkscape:current-layer="layer3"
     inkscape:measure-start="121.623,1547.26"
     inkscape:measure-end="200.943,1547.26"
     showguides="true"
     inkscape:guide-bbox="true">
    <sodipodi:guide
       position="650.11518,-83.75717"
       orientation="1,0"
       id="guide3860"
       inkscape:locked="false" />
    <sodipodi:guide
       position="750.5399,497.41965"
       orientation="0,1"
       id="guide893"
       inkscape:locked="false" />
    <sodipodi:guide
       position="1214.479,1532.0582"
       orientation="0,1"
       id="guide61"
       inkscape:locked="false" />
  </sodipodi:namedview>
  <g
     inkscape:groupmode="layer"
     id="layer3"
     inkscape:label="trace"
     style="display:inline">
    <path
       style="color:#000000;font-style:normal;font-variant:normal;font-weight:normal;font-stretch:normal;font-size:medium;line-height:normal;font-family:sans-serif;font-variant-ligatures:normal;font-variant-position:normal;font-variant-caps:normal;font-variant-numeric:normal;font-variant-alternates:normal;font-feature-settings:normal;text-indent:0;text-align:start;text-decoration:none;text-decoration-line:none;text-decoration-style:solid;text-decoration-color:#000000;letter-spacing:normal;word-spacing:normal;text-transform:none;writing-mode:lr-tb;direction:ltr;text-orientation:mixed;dominant-baseline:auto;baseline-shift:baseline;text-anchor:start;white-space:normal;shape-padding:0;clip-rule:nonzero;display:inline;overflow:visible;visibility:visible;opacity:1;isolation:auto;mix-blend-mode:normal;color-interpolation:sRGB;color-interpolation-filters:linearRGB;solid-color:#000000;solid-opacity:1;vector-effect:none;fill:#000000;fill-opacity:1;fill-rule:evenodd;stroke:none;stroke-width:100;stroke-linecap:butt;stroke-linejoin:miter;stroke-miterlimit:4;stroke-dasharray:none;stroke-dashoffset:0;stroke-opacity:1;color-rendering:auto;image-rendering:auto;shape-rendering:auto;text-rendering:auto;enable-background:accumulate"
       d="m 174.7793,491.03906 c 0.15409,1.27847 0.33398,2.15065 0.33398,6.96094 H 135.13477 75.113281 c 0,13.81806 1.146308,11.0796 1.59961,13.06055 0.453301,1.98095 0.900269,3.70423 1.43164,5.69922 1.062743,3.98996 2.444935,8.87858 4.21875,14.99218 3.547631,12.2272 8.623796,29.18195 15.070313,50.40821 12.893036,42.4525 31.238776,101.87054 53.249996,172.65234 44.02244,141.5636 102.68327,328.5065 161.34375,514.8848 117.32098,372.7565 234.63282,743.2285 234.63282,743.2285 l 11.05468,34.9062 h 10.81641 l 0.0488,0.1739 h 164.40625 l 0.0488,-0.1739 h 10.8164 l 11.05274,-34.9062 c 0,0 117.31379,-370.4721 234.63476,-743.2285 58.66044,-186.3783 117.32134,-373.32121 161.34374,-514.8848 22.0112,-70.7818 40.357,-130.19984 53.25,-172.65234 6.4465,-21.22626 11.5207,-38.18101 15.0684,-50.40821 1.7738,-6.1136 3.1579,-11.00222 4.2207,-14.99218 0.5313,-1.99499 0.9764,-3.71827 1.4297,-5.69922 0.4533,-1.98095 1.5996,0.75751 1.5996,-13.06055 h -60.0215 -39.9785 c 0,-4.80484 0.1782,-5.67327 0.332,-6.95312 -0.4358,1.63552 -1.1291,4.11254 -1.9355,6.95312 h -58.418 c 0,-3.70334 0.1242,-4.73069 0.2383,-5.70117 -0.076,0.34356 -0.067,0.33014 -0.17,0.77734 -0.6346,2.75557 -1.7523,7.3015 -3.2402,13.1211 -2.9757,11.63918 -7.4631,28.54227 -13.1894,49.70703 -11.4528,42.32952 -27.8878,101.83332 -47.6133,172.61523 -39.45107,141.56383 -92.08798,328.32357 -144.72658,514.37497 -96.96295,342.7162 -185.48259,653.3493 -200.18555,704.9375 H 644.02148 C 629.31853,1896.2438 540.80083,1585.6107 443.83789,1242.8945 391.19929,1056.843 338.5604,870.08337 299.10938,728.51953 279.38386,657.73761 262.95078,598.23382 251.49805,555.9043 c -5.72637,-21.16476 -10.21568,-38.06785 -13.19141,-49.70703 -1.48787,-5.8196 -2.60366,-10.36553 -3.23828,-13.1211 -0.10329,-0.4485 -0.0961,-0.43509 -0.17188,-0.77929 0.11416,0.97014 0.23829,1.99847 0.23829,5.70312 H 176.7168 c -0.80751,-2.84453 -1.50166,-5.32501 -1.9375,-6.96094 z"
       transform="translate(0,-288)"
       id="path5236-7-72-2-3"
       inkscape:connector-curvature="0" />
  </g>
</svg>
