<?xml version="1.0" encoding="UTF-8" standalone="no"?>
<svg
   xmlns:dc="http://purl.org/dc/elements/1.1/"
   xmlns:cc="http://creativecommons.org/ns#"
   xmlns:rdf="http://www.w3.org/1999/02/22-rdf-syntax-ns#"
   xmlns:svg="http://www.w3.org/2000/svg"
   xmlns="http://www.w3.org/2000/svg"
   xmlns:sodipodi="http://sodipodi.sourceforge.net/DTD/sodipodi-0.dtd"
   xmlns:inkscape="http://www.inkscape.org/namespaces/inkscape"
   version="1.1"
   viewBox="0 -288 944 2048"
   id="svg6"
   sodipodi:docname="x.svg"
   width="944"
   height="2048"
   inkscape:version="0.92.0 r">
  <metadata
     id="metadata12">
    <rdf:RDF>
      <cc:Work
         rdf:about="">
        <dc:format>image/svg+xml</dc:format>
        <dc:type
           rdf:resource="http://purl.org/dc/dcmitype/StillImage" />
        <dc:title />
      </cc:Work>
    </rdf:RDF>
  </metadata>
  <defs
     id="defs10" />
  <sodipodi:namedview
     pagecolor="#ffffff"
     bordercolor="#666666"
     borderopacity="1"
     objecttolerance="10"
     gridtolerance="10"
     guidetolerance="10"
     inkscape:pageopacity="0"
     inkscape:pageshadow="2"
     inkscape:window-width="1364"
     inkscape:window-height="730"
     id="namedview8"
     showgrid="false"
     inkscape:zoom="0.70237365"
     inkscape:cx="-126.23087"
     inkscape:cy="361.70951"
     inkscape:window-x="0"
     inkscape:window-y="18"
     inkscape:window-maximized="0"
     inkscape:current-layer="layer3"
     inkscape:measure-start="316.934,14.2978"
     inkscape:measure-end="23.8296,14.2978" />
  <g
     inkscape:groupmode="layer"
     id="layer3"
     inkscape:label="trace">
    <path
       style="color:#000000;font-style:normal;font-variant:normal;font-weight:normal;font-stretch:normal;font-size:medium;line-height:normal;font-family:sans-serif;font-variant-ligatures:normal;font-variant-position:normal;font-variant-caps:normal;font-variant-numeric:normal;font-variant-alternates:normal;font-feature-settings:normal;text-indent:0;text-align:start;text-decoration:none;text-decoration-line:none;text-decoration-style:solid;text-decoration-color:#000000;letter-spacing:normal;word-spacing:normal;text-transform:none;writing-mode:lr-tb;direction:ltr;text-orientation:mixed;dominant-baseline:auto;baseline-shift:baseline;text-anchor:start;white-space:normal;shape-padding:0;clip-rule:nonzero;display:inline;overflow:visible;visibility:visible;opacity:1;isolation:auto;mix-blend-mode:normal;color-interpolation:sRGB;color-interpolation-filters:linearRGB;solid-color:#000000;solid-opacity:1;vector-effect:none;fill:#050000;fill-opacity:1;fill-rule:evenodd;stroke:none;stroke-width:100;stroke-linecap:butt;stroke-linejoin:miter;stroke-miterlimit:4;stroke-dasharray:none;stroke-dashoffset:0;stroke-opacity:1;color-rendering:auto;image-rendering:auto;shape-rendering:auto;text-rendering:auto;enable-background:accumulate"
       d="m 208.4082,865.33008 c -0.057,-0.12898 -0.0298,-0.0671 0.11719,0.29492 0.14701,0.36206 0.41403,0.96581 0.9668,2.69922 0.55277,1.73341 2.24804,2.39819 2.24804,14.67578 H 164.1543 111.74023 c 0,12.4848 1.77302,13.49469 2.47852,15.70703 0.7055,2.21234 1.20229,3.42867 1.65234,4.53711 0.90011,2.21688 1.61935,3.76674 2.43164,5.49414 1.62459,3.45481 3.54632,7.30261 5.98633,12.08203 4.88003,9.55886 11.73074,22.57931 20.42188,38.88086 17.38227,32.60311 42.04745,78.15663 71.63476,132.48243 55.80713,102.4685 129.36013,236.5611 203.62305,372.0039 -74.345,135.6157 -147.7834,269.7148 -203.66406,372.7324 -29.59816,54.5651 -54.27401,100.4132 -71.69141,133.4141 -8.7087,16.5004 -15.5799,29.7385 -20.51367,39.6074 -2.46689,4.9345 -4.42541,8.9528 -6.11328,12.6875 -0.84394,1.8673 -1.60644,3.5854 -2.54102,6.0508 -0.93457,2.4653 -3.70508,-0.5281 -3.70508,19.3203 h 50.14258 c 0,0.015 0,0.026 0,0.041 h 49.85742 c -0.001,5.9834 -0.2682,9.2624 -0.60546,11.5938 0.78267,-1.6277 1.24072,-2.6374 2.41015,-4.9766 0.98298,-1.9662 2.12324,-4.2165 3.34766,-6.6172 h 44.99023 c 0,4.5939 -0.12622,7.6331 -0.30469,9.834 0.69162,-1.671 1.1439,-2.8137 2.18555,-5.2422 3.64957,-8.5085 9.25527,-21.1774 16.41406,-37.1133 14.31759,-31.8717 34.91132,-76.9741 59.63282,-130.8007 38.15352,-83.0726 86.91238,-188.6234 137.17773,-297.4903 50.26523,108.8666 99.02235,214.4179 137.17578,297.4903 24.7215,53.8266 45.31523,98.929 59.63282,130.8007 7.15878,15.9359 12.76449,28.6048 16.41406,37.1133 1.04085,2.4266 1.49222,3.5679 2.18359,5.2383 -0.17834,-2.2008 -0.30469,-5.238 -0.30469,-9.8301 h 44.99219 c 1.22442,2.4007 2.36468,4.651 3.34766,6.6172 1.16943,2.3392 1.62748,3.3489 2.41015,4.9766 -0.33727,-2.3314 -0.60411,-5.6104 -0.60546,-11.5938 h 49.85546 c 0,-0.015 10e-6,-0.026 0,-0.041 h 50.14454 c -10e-6,-19.8484 -2.77051,-16.855 -3.70508,-19.3203 -0.93458,-2.4654 -1.69708,-4.1835 -2.54102,-6.0508 -1.68787,-3.7347 -3.64639,-7.753 -6.11328,-12.6875 -4.93377,-9.8689 -11.80497,-23.107 -20.51367,-39.6074 -17.4174,-33.0009 -42.09325,-78.849 -71.69141,-133.4141 -55.88066,-103.0177 -129.31906,-237.1167 -203.66406,-372.7324 74.26292,-135.4428 147.81592,-269.5354 203.62305,-372.0039 29.58731,-54.3258 54.25249,-99.87932 71.63476,-132.48243 8.69114,-16.30155 15.54185,-29.322 20.42188,-38.88086 2.44001,-4.77942 4.36173,-8.62722 5.98633,-12.08203 0.81228,-1.7274 1.53153,-3.27726 2.43164,-5.49414 0.45005,-1.10844 0.94684,-2.32477 1.65234,-4.53711 0.7055,-2.21234 2.47851,-3.22223 2.47852,-15.70703 h -52.41407 -47.58593 c 0,-12.27759 1.69527,-12.94237 2.24804,-14.67578 0.55277,-1.73341 0.81979,-2.33716 0.9668,-2.69922 0.29401,-0.72413 0.10917,-0.2509 -0.27149,0.55859 -0.76131,1.619 -2.37878,4.9001 -4.55664,9.16602 -1.14885,2.25035 -2.48183,4.83128 -3.94726,7.65039 h -46.85352 c 0,-3.82694 0.10255,-5.92934 0.20508,-7.92383 -0.66671,1.82708 -1.31265,3.62832 -2.5957,6.85547 -3.52167,8.85774 -9.0681,22.05322 -16.17969,38.48438 -14.22317,32.86231 -34.78216,78.90681 -59.47266,133.47658 -37.70943,83.3436 -85.1166,186.7192 -134.78906,294.5937 -49.67258,-107.8748 -97.0815,-211.2499 -134.79101,-294.5937 -24.6905,-54.56977 -45.24949,-100.61427 -59.47266,-133.47658 -7.11159,-16.43116 -12.65802,-29.62664 -16.17969,-38.48438 -1.282,-3.22452 -1.92896,-5.02262 -2.5957,-6.84961 0.1024,1.99419 0.20508,4.09385 0.20508,7.91797 h -46.85352 c -1.46543,-2.81911 -2.79841,-5.40004 -3.94726,-7.65039 -2.17786,-4.26592 -3.79534,-7.54702 -4.55664,-9.16602 -0.19034,-0.40474 -0.33164,-0.72453 -0.38868,-0.85351 z"
       transform="translate(0,-288)"
       id="path5109-6"
       inkscape:connector-curvature="0" />
  </g>
</svg>
