<?xml version="1.0" encoding="UTF-8" standalone="no"?>
<svg
   xmlns:dc="http://purl.org/dc/elements/1.1/"
   xmlns:cc="http://creativecommons.org/ns#"
   xmlns:rdf="http://www.w3.org/1999/02/22-rdf-syntax-ns#"
   xmlns:svg="http://www.w3.org/2000/svg"
   xmlns="http://www.w3.org/2000/svg"
   xmlns:sodipodi="http://sodipodi.sourceforge.net/DTD/sodipodi-0.dtd"
   xmlns:inkscape="http://www.inkscape.org/namespaces/inkscape"
   version="1.1"
   viewBox="0 -288 976 2048"
   id="svg6"
   sodipodi:docname="y.svg"
   width="976"
   height="2048"
   inkscape:version="0.92.0 r">
  <metadata
     id="metadata12">
    <rdf:RDF>
      <cc:Work
         rdf:about="">
        <dc:format>image/svg+xml</dc:format>
        <dc:type
           rdf:resource="http://purl.org/dc/dcmitype/StillImage" />
        <dc:title />
      </cc:Work>
    </rdf:RDF>
  </metadata>
  <defs
     id="defs10" />
  <sodipodi:namedview
     pagecolor="#ffffff"
     bordercolor="#666666"
     borderopacity="1"
     objecttolerance="10"
     gridtolerance="10"
     guidetolerance="10"
     inkscape:pageopacity="0"
     inkscape:pageshadow="2"
     inkscape:window-width="1364"
     inkscape:window-height="730"
     id="namedview8"
     showgrid="false"
     inkscape:zoom="0.35118682"
     inkscape:cx="-586.37869"
     inkscape:cy="1144.0251"
     inkscape:window-x="0"
     inkscape:window-y="18"
     inkscape:window-maximized="0"
     inkscape:current-layer="layer3"
     inkscape:measure-start="505.188,-278.807"
     inkscape:measure-end="188.254,-278.807"
     showguides="true"
     inkscape:guide-bbox="true">
    <sodipodi:guide
       position="842.77032,1176.6247"
       orientation="1,0"
       id="guide4527"
       inkscape:locked="false" />
    <sodipodi:guide
       position="137.32824,1138.2237"
       orientation="1,0"
       id="guide4520"
       inkscape:locked="false" />
    <sodipodi:guide
       position="170.08397,1161.5454"
       orientation="1,0"
       id="guide4522"
       inkscape:locked="false" />
    <sodipodi:guide
       position="505.1881,1241.5236"
       orientation="1,0"
       id="guide4524"
       inkscape:locked="false" />
    <sodipodi:guide
       position="824.20725,1164.9709"
       orientation="0,1"
       id="guide4526"
       inkscape:locked="false" />
  </sodipodi:namedview>
  <g
     inkscape:groupmode="layer"
     id="layer3"
     inkscape:label="trace">
    <path
       style="color:#000000;font-style:normal;font-variant:normal;font-weight:normal;font-stretch:normal;font-size:medium;line-height:normal;font-family:sans-serif;font-variant-ligatures:normal;font-variant-position:normal;font-variant-caps:normal;font-variant-numeric:normal;font-variant-alternates:normal;font-feature-settings:normal;text-indent:0;text-align:start;text-decoration:none;text-decoration-line:none;text-decoration-style:solid;text-decoration-color:#000000;letter-spacing:normal;word-spacing:normal;text-transform:none;writing-mode:lr-tb;direction:ltr;text-orientation:mixed;dominant-baseline:auto;baseline-shift:baseline;text-anchor:start;white-space:normal;shape-padding:0;clip-rule:nonzero;display:inline;overflow:visible;visibility:visible;opacity:1;isolation:auto;mix-blend-mode:normal;color-interpolation:sRGB;color-interpolation-filters:linearRGB;solid-color:#000000;solid-opacity:1;vector-effect:none;fill:#050000;fill-opacity:1;fill-rule:evenodd;stroke:none;stroke-width:100;stroke-linecap:butt;stroke-linejoin:miter;stroke-miterlimit:4;stroke-dasharray:none;stroke-dashoffset:0;stroke-opacity:1;color-rendering:auto;image-rendering:auto;shape-rendering:auto;text-rendering:auto;enable-background:accumulate"
       d="m 775.34766,875.4082 c -0.50916,1.73291 -1.35451,4.45168 -2.34961,7.5918 h -50.5293 c 0,-4.51698 0.16857,-5.8364 0.33008,-6.96875 -0.37487,1.45869 -0.81771,3.16701 -1.56055,5.87891 -1.84753,6.74478 -4.6879,16.76012 -8.3164,29.33398 -7.25704,25.14772 -17.69857,60.65757 -30.23438,102.93556 -25.07161,84.5559 -58.53893,196.2616 -92.00586,307.5801 -33.06824,109.9923 -65.87249,218.7284 -90.66016,300.7968 -47.58958,-130.2879 -102.04652,-282.019 -149.3457,-415.4082 -32.81876,-92.5527 -62.15728,-176.1571 -83.23437,-237.22457 -10.53855,-30.53374 -19.02102,-55.46326 -24.77539,-72.85156 -2.87719,-8.69416 -5.08353,-15.54869 -6.42774,-19.93165 -0.16029,-0.52264 -0.16589,-0.56931 -0.30078,-1.01953 0.0726,1.76449 0.14648,3.5549 0.14648,6.87891 h -50.375 c -0.93189,-2.51778 -1.82968,-4.95502 -2.43164,-6.68164 -0.14102,-0.40452 -0.1209,-0.37509 -0.24218,-0.73242 0.12076,1.65006 0.20312,4.01051 0.20312,7.41406 H 83.238281 c 0,14.85277 1.799613,14.15425 2.69336,17.23828 0.893746,3.08404 1.820476,5.84642 2.919921,9 2.198893,6.30717 5.068811,13.94496 8.705079,23.32227 7.272539,18.7546 17.546849,44.21942 30.234379,75.15235 25.37505,61.8658 60.3449,145.4234 99.13476,237.7383 74.28948,176.7993 162.5114,385.5481 223.45703,533.7422 -10.60191,24.0348 -57.86014,131.1986 -111.50976,253.8066 -30.01555,68.5959 -60.03018,137.4797 -82.60547,189.9395 -11.28765,26.2298 -20.70509,48.3248 -27.41211,64.4257 -3.35351,8.0505 -6.01382,14.5546 -8.01953,19.6778 -1.00286,2.5615 -1.82661,4.7126 -2.64844,7.0644 -0.41092,1.1759 -0.81504,2.3441 -1.36328,4.25 -0.54824,1.9059 -2.12305,0.9422 -2.12305,14.6426 h 52.58203 47.41797 c 0,5.8743 -0.29586,8.6066 -0.63672,10.2285 0.97693,-2.4905 2.45428,-6.1229 4.14063,-10.2285 h 49.07812 c 0,3.2554 -0.0734,5.4198 -0.17773,6.9355 0.75626,-2.5226 1.83607,-6.0099 3.43164,-10.9218 3.5598,-10.9589 8.96378,-27.0059 15.85937,-47.1289 13.79119,-40.2461 33.5967,-96.9491 57.3711,-164.5 47.5488,-135.1019 110.9999,-313.6846 174.45703,-492.3125 63.45713,-178.6279 126.92024,-357.2997 174.55859,-492.7676 23.81918,-67.734 43.67382,-124.6442 57.64844,-165.50978 6.98731,-20.43277 12.49344,-36.81608 16.375,-48.8164 1.94078,-6.00017 3.46445,-10.85228 4.67188,-14.99219 0.60371,-2.06996 1.12524,-3.91134 1.66796,-6.13867 0.54273,-2.22733 1.78907,-1.17771 1.78907,-13.84766 h -52.4668 -47.5332 c 0,-4.8822 0.21232,-6.32973 0.41211,-7.5918 z M 313.20117,2345.4863 c -0.0795,0.098 -0.23194,0.3646 -0.27539,0.5157 -0.31756,1.1039 -0.37904,1.219 -0.33594,1.0957 0.0386,-0.1105 0.41593,-1.0894 0.61133,-1.6114 z"
       transform="translate(0,-288)"
       id="path5109-6"
       inkscape:connector-curvature="0" />
  </g>
</svg>
