<?xml version="1.0" encoding="UTF-8" standalone="no"?>
<svg
   xmlns:dc="http://purl.org/dc/elements/1.1/"
   xmlns:cc="http://creativecommons.org/ns#"
   xmlns:rdf="http://www.w3.org/1999/02/22-rdf-syntax-ns#"
   xmlns:svg="http://www.w3.org/2000/svg"
   xmlns="http://www.w3.org/2000/svg"
   xmlns:sodipodi="http://sodipodi.sourceforge.net/DTD/sodipodi-0.dtd"
   xmlns:inkscape="http://www.inkscape.org/namespaces/inkscape"
   version="1.1"
   viewBox="0 -288 1024 2048"
   id="svg6"
   sodipodi:docname="zero.svg"
   width="1024"
   height="2048"
   inkscape:version="0.92.0 r">
  <metadata
     id="metadata12">
    <rdf:RDF>
      <cc:Work
         rdf:about="">
        <dc:format>image/svg+xml</dc:format>
        <dc:type
           rdf:resource="http://purl.org/dc/dcmitype/StillImage" />
        <dc:title />
      </cc:Work>
    </rdf:RDF>
  </metadata>
  <defs
     id="defs10" />
  <sodipodi:namedview
     pagecolor="#ffffff"
     bordercolor="#666666"
     borderopacity="1"
     objecttolerance="10"
     gridtolerance="10"
     guidetolerance="10"
     inkscape:pageopacity="0"
     inkscape:pageshadow="2"
     inkscape:window-width="1364"
     inkscape:window-height="730"
     id="namedview8"
     showgrid="false"
     inkscape:zoom="0.71225019"
     inkscape:cx="815.7943"
     inkscape:cy="708.32437"
     inkscape:window-x="0"
     inkscape:window-y="18"
     inkscape:window-maximized="0"
     inkscape:current-layer="layer3"
     showguides="true"
     inkscape:guide-bbox="true"
     inkscape:measure-start="737.77,749.401"
     inkscape:measure-end="977.046,749.401">
    <sodipodi:guide
       position="1870.5355,32.898866"
       orientation="0,1"
       id="guide48"
       inkscape:locked="false" />
    <sodipodi:guide
       position="511.54799,1557.4822"
       orientation="1,0"
       id="guide50"
       inkscape:locked="false" />
    <sodipodi:guide
       position="523.5216,24.820802"
       orientation="0,1"
       id="guide52"
       inkscape:locked="false" />
    <sodipodi:guide
       position="845.77662,327.3438"
       orientation="0,1"
       id="guide54"
       inkscape:locked="false" />
    <sodipodi:guide
       position="465.26022,1176.4437"
       orientation="0,1"
       id="guide56"
       inkscape:locked="false" />
  </sodipodi:namedview>
  <g
     inkscape:groupmode="layer"
     id="layer3"
     inkscape:label="trace"
     style="display:inline">
    <path
       style="color:#000000;font-style:normal;font-variant:normal;font-weight:normal;font-stretch:normal;font-size:medium;line-height:normal;font-family:sans-serif;font-variant-ligatures:normal;font-variant-position:normal;font-variant-caps:normal;font-variant-numeric:normal;font-variant-alternates:normal;font-feature-settings:normal;text-indent:0;text-align:start;text-decoration:none;text-decoration-line:none;text-decoration-style:solid;text-decoration-color:#000000;letter-spacing:normal;word-spacing:normal;text-transform:none;writing-mode:lr-tb;direction:ltr;text-orientation:mixed;dominant-baseline:auto;baseline-shift:baseline;text-anchor:start;white-space:normal;shape-padding:0;clip-rule:nonzero;display:inline;overflow:visible;visibility:visible;opacity:1;isolation:auto;mix-blend-mode:normal;color-interpolation:sRGB;color-interpolation-filters:linearRGB;solid-color:#000000;solid-opacity:1;vector-effect:none;fill:#000000;fill-opacity:1;fill-rule:evenodd;stroke:none;stroke-width:82.42415619;stroke-linecap:butt;stroke-linejoin:miter;stroke-miterlimit:4;stroke-dasharray:none;stroke-dashoffset:0;stroke-opacity:1;color-rendering:auto;image-rendering:auto;shape-rendering:auto;text-rendering:auto;enable-background:accumulate"
       d="m 488.51562,496.21094 c -62.26055,0 -119.45509,26.46816 -166.13867,69.55273 -46.68358,43.08457 -84.46573,102.37921 -115.05859,173.23047 -61.18573,141.70252 -93.78516,330.85286 -93.78516,537.30466 0,225.9655 32.42541,416.9796 98.29102,555.8946 65.86561,138.9149 172.65856,228.4551 307.20508,227.0156 134.305,-1.437 240.05508,-91.6784 305.34961,-230.3613 65.29452,-138.683 97.21679,-328.442 97.21679,-552.5489 0,-206.4552 -32.6242,-395.60609 -93.82226,-537.30661 C 797.1744,668.14192 759.38781,608.84896 712.71094,565.76562 666.03406,522.6823 608.85437,496.21094 546.61328,496.21094 Z m 29.96485,122.85742 c 94.72342,0.0608 155.75493,51.93932 202.67773,164.51562 46.92281,112.57631 70.20703,283.18862 70.20703,492.93162 0,179.8483 -20.88085,350.9997 -67.45898,471.9551 -23.28906,60.4777 -52.80479,107.9099 -86.82422,138.9414 -34.01942,31.0315 -71.45123,47.0254 -120.00195,47.0254 -48.38099,0 -85.61548,-15.9649 -119.47461,-46.9648 -33.85913,-31 -63.22908,-78.4062 -86.38281,-138.8301 -46.30747,-120.8479 -66.97461,-291.7717 -66.97461,-471.1153 0,-199.7512 23.51265,-370.71445 70.99414,-486.40035 C 338.98293,733.284 368.3926,689.7347 401.72852,661.51562 435.06443,633.29656 471.766,619.03837 518.48047,619.06836 Z"
       transform="translate(0,-288)"
       id="path144"
       inkscape:connector-curvature="0" />
  </g>
  <g
     inkscape:groupmode="layer"
     id="layer4"
     inkscape:label="trace2" />
</svg>
