<!--?xml version="1.0" encoding="UTF-8" standalone="no"?-->
<svg xmlns:dc="http://purl.org/dc/elements/1.1/" xmlns:cc="http://creativecommons.org/ns#" xmlns:rdf="http://www.w3.org/1999/02/22-rdf-syntax-ns#" xmlns:svg="http://www.w3.org/2000/svg" xmlns="http://www.w3.org/2000/svg" xmlns:sodipodi="http://sodipodi.sourceforge.net/DTD/sodipodi-0.dtd" xmlns:inkscape="http://www.inkscape.org/namespaces/inkscape" version="1.1" viewBox="0 -288 1264 2048" id="svg6" sodipodi:docname="at.svg" width="1264" height="2048" inkscape:version="0.92.1 r">
  <metadata id="metadata12">
    <rdf:rdf>
      <cc:work rdf:about="">
        <dc:format>image/svg+xml</dc:format>
        <dc:type rdf:resource="http://purl.org/dc/dcmitype/StillImage"></dc:type>
        <dc:title></dc:title>
      </cc:work>
    </rdf:rdf>
  </metadata>
  <defs id="defs10"></defs>
  <sodipodi:namedview pagecolor="#ffffff" bordercolor="#666666" borderopacity="1" objecttolerance="10" gridtolerance="10" guidetolerance="10" inkscape:pageopacity="0" inkscape:pageshadow="2" inkscape:window-width="1364" inkscape:window-height="730" id="namedview8" showgrid="false" inkscape:zoom="0.25182839" inkscape:cx="807.12566" inkscape:cy="470.72964" inkscape:window-x="0" inkscape:window-y="18" inkscape:window-maximized="0" inkscape:current-layer="svg6">
    <sodipodi:guide position="856.97735,475.0747" orientation="-935.61546,0" id="guide4546" inkscape:locked="false"></sodipodi:guide>
    <sodipodi:guide position="856.97735,1410.6902" orientation="-256.36605,0" id="guide4548" inkscape:locked="false"></sodipodi:guide>
    <sodipodi:guide position="887.9811,285.61165" orientation="-177.5595,0.00012911092" id="guide4550" inkscape:locked="false"></sodipodi:guide>
    <sodipodi:guide position="887.98123,463.17116" orientation="-947.51901,0" id="guide4552" inkscape:locked="false"></sodipodi:guide>
    <sodipodi:guide position="887.98123,1410.6902" orientation="-256.36605,0" id="guide4554" inkscape:locked="false"></sodipodi:guide>
    <sodipodi:guide position="587.11602,1235.0777" orientation="0,68.266422" id="guide4556" inkscape:locked="false"></sodipodi:guide>
  </sodipodi:namedview>
  <g transform="matrix(1,0,0,0.90,0,175)" id="g4514">
    <path class="int" style="display: inline; fill: none; fill-rule: evenodd; stroke: rgb(0, 0, 0); stroke-width: 100; stroke-linecap: round; stroke-linejoin: bevel; stroke-miterlimit: 4; stroke-dasharray: none; stroke-opacity: 0.997082;" d="m 807.71361,452.83753 v 150.55943 618.26994 l 177.69839,-0.1566 c 0,0 127.0223,-99.1705 127.0223,-422.61044 0,-286.88367 -134.99684,-503.35162 -430.85572,-503.35162 -400.2346,0 -491.63994,326.85763 -491.63994,602.39593 0,386.00413 235.33358,522.91493 461.04891,531.60173 316.78105,0 374.42815,-44.8891 414.04685,-44.8891" id="path5236-72-2" inkscape:connector-curvature="0" sodipodi:nodetypes="ccccccccc"></path>
    <path class="ext" style="display: inline; fill: none; fill-rule: evenodd; stroke: rgb(0, 0, 0); stroke-width: 100; stroke-linecap: round; stroke-linejoin: bevel; stroke-miterlimit: 4; stroke-dasharray: none; stroke-opacity: 0.997082;" d="M 834.6164,1159.8588 V 603.39696 452.83753 l -1.1e-4,768.98907 h 183.72431 l 2.6026,-0.13 c 0,0 128.6407,-134.3914 129.9091,-438.61839 0,-305.44811 -163.87223,-510.16874 -481.73782,-510.16874 -358.14627,0 -511.96771,244.61247 -511.96771,610.37893 0,262.6431 122.88653,572.0703 523.37977,572.0703 176.91996,0 348.42176,-47.4218 384.27466,-47.4218" id="path5236-7-72-2" inkscape:connector-curvature="0" sodipodi:nodetypes="ccccccccccc"></path>
    <path class="ext" sodipodi:nodetypes="cccccc" inkscape:connector-curvature="0" id="path5546-0-3-2-5-5" d="m 834.09963,1064.098 c 0,0 -75.30178,179.7589 -212.92689,179.7589 -134.07712,2.0984 -229.28359,-139.8576 -229.28359,-380.30531 0,-220.21941 68.14547,-371.69648 184.62631,-371.69648 h 58.52662 c 125.77525,0 199.47167,190.51678 199.47167,220.3009" style="display: inline; fill: none; fill-rule: evenodd; stroke: rgb(0, 0, 0); stroke-width: 100; stroke-linecap: round; stroke-linejoin: bevel; stroke-miterlimit: 4; stroke-dasharray: none; stroke-opacity: 1;"></path>
    <path class="int" sodipodi:nodetypes="csccc" inkscape:connector-curvature="0" id="path5546-1-6-6-0-9-4" d="m 808.05916,1108.1336 c 0,0 -73.79243,96.8639 -192.45586,96.8639 -135.31243,0 -183.42461,-140.4015 -183.42461,-345.43183 0,-245.07816 52.94109,-335.28403 184.42251,-335.28403 130.29319,0 191.13918,107.31791 191.13918,107.31791" style="display: inline; fill: none; fill-rule: evenodd; stroke: rgb(0, 0, 0); stroke-width: 100; stroke-linecap: round; stroke-linejoin: bevel; stroke-miterlimit: 4; stroke-dasharray: none; stroke-opacity: 1;"></path>
  </g>
</svg>
