<?xml version="1.0" encoding="UTF-8" standalone="no"?>
<svg
   xmlns:dc="http://purl.org/dc/elements/1.1/"
   xmlns:cc="http://creativecommons.org/ns#"
   xmlns:rdf="http://www.w3.org/1999/02/22-rdf-syntax-ns#"
   xmlns:svg="http://www.w3.org/2000/svg"
   xmlns="http://www.w3.org/2000/svg"
   id="svg2931"
   version="1.1"
   viewBox="0 0 45.233299 26.407255"
   height="26.407255mm"
   width="45.233299mm">
  <defs
     id="defs2925" />
  <metadata
     id="metadata2928">
    <rdf:RDF>
      <cc:Work
         rdf:about="">
        <dc:format>image/svg+xml</dc:format>
        <dc:type
           rdf:resource="http://purl.org/dc/dcmitype/StillImage" />
        <dc:title></dc:title>
      </cc:Work>
    </rdf:RDF>
  </metadata>
  <g
     transform="translate(54.366649,7.245296)"
     id="layer1">
    <path
       id="path9692"
       d="m -54.209207,-7.244449 v 0.136877 19.267875 0.136313 h 0.132474 1.983459 0.1327 v -0.136313 -0.4318 c 0.72472,0.377895 1.532355,0.568678 2.412944,0.568678 1.451073,0 2.57048,-0.561905 3.301802,-1.667369 0.73135,-1.105465 1.086246,-2.736991 1.086246,-4.892886 V 4.698348 c 0,-2.595316 -0.368273,-4.352713 -1.167497,-5.284611 -0.771115,-0.899725 -1.596983,-1.369342 -2.464364,-1.369342 h -1.134308 c -0.616911,0 -1.291815,0.305929 -2.034823,0.888717 v -6.040684 -0.137724 h -0.1327 -1.983459 z m 23.382984,0 v 0.136877 17.095611 c 0,0.748171 0.198967,1.334628 0.608584,1.728328 0.411565,0.3937 1.018286,0.580814 1.796034,0.580814 h 0.84915 0.132701 V 12.159738 10.364241 10.22821 h -0.132701 -0.84915 c -0.06646,0 -0.08263,-0.01411 -0.09971,-0.03895 -0.01355,-0.02822 -0.05009,-0.09313 -0.05009,-0.200942 v -17.09589 -0.136877 h -0.132475 -1.983458 z m -7.635098,5.289408 c -1.288571,0 -2.313432,0.426438 -3.03149,1.276491 -0.711454,0.840458 -1.102839,1.849967 -1.16586,3.009053 v 0.144498 h 0.14955 1.983373 0.115879 l 0.01355,-0.115711 c 0.115882,-0.803204 0.354782,-1.374704 0.673327,-1.722402 0.314817,-0.344029 0.789348,-0.522958 1.457622,-0.522958 0.671716,0 1.190752,0.152965 1.570508,0.4445 0.366326,0.28194 0.558914,0.765104 0.558914,1.49606 v 0.914682 c -2.122792,0.169051 -3.739613,0.67056 -4.835792,1.528234 -1.117799,0.874606 -1.679985,2.121746 -1.679985,3.696828 0,1.342813 0.30336,2.37236 0.931981,3.067756 0.628595,0.694548 1.570511,1.036037 2.792759,1.036037 1.011598,0 1.945246,-0.30734 2.791037,-0.90678 v 0.770185 0.136313 h 0.132471 1.983459 0.132531 V 12.161432 2.05449 c 0,-1.410264 -0.387971,-2.452229 -1.184091,-3.082431 -0.772781,-0.611858 -1.560575,-0.926535 -2.351531,-0.926535 z m 16.111021,0 c -0.917053,0 -1.757849,0.364631 -2.502492,1.07696 -0.749554,0.716844 -1.129312,1.642533 -1.129312,2.743764 0,1.476023 0.457679,2.569916 1.379728,3.228623 0.890523,0.635564 1.756212,1.023337 2.597036,1.155135 0,0 0,0 0,0 l 0.751276,0.18796 v 0 0 c 0.482544,0.05927 0.842433,0.222391 1.101118,0.480342 0.275477,0.274602 0.450963,0.52832 0.53563,0.753533 0.08263,0.227189 0.132701,0.559647 0.132701,0.9906 0,0.541303 -0.149324,0.920045 -0.427877,1.172916 -0.273474,0.246944 -0.774446,0.390595 -1.512429,0.390595 -0.668303,0 -1.179125,-0.179211 -1.560548,-0.53086 -0.373041,-0.343746 -0.636778,-0.972819 -0.759516,-1.900484 l -0.01355,-0.119098 h -0.115881 -1.983429 -0.148929 v 0.149296 c 0.132532,1.53416 0.611943,2.676877 1.466004,3.399084 0.842461,0.714022 1.887191,1.071316 3.111076,1.071316 1.218918,0 2.213892,-0.306776 2.966805,-0.928511 0.757936,-0.625405 1.136001,-1.541216 1.136001,-2.703407 0,-0.834531 -0.148873,-1.548835 -0.439392,-2.139244 -0.293709,-0.587587 -0.72136,-1.06426 -1.275278,-1.422965 -0.552224,-0.357293 -1.243781,-0.629355 -2.071313,-0.820702 v 0 l -0.752941,-0.189089 v 0 0 c -0.608584,-0.121355 -1.084552,-0.362091 -1.441055,-0.718255 -0.348516,-0.34798 -0.525751,-0.841023 -0.525751,-1.509042 0,-0.53848 0.149606,-0.933027 0.4745,-1.220329 0.308638,-0.281376 0.822565,-0.43688 1.560547,-0.43688 0.59865,0 1.094543,0.190782 1.512429,0.577709 0.409561,0.380717 0.650043,0.955886 0.711426,1.751753 V 2.66155 h 0.132732 1.985067 0.148872 V 2.51931 c -0.06644,-1.409982 -0.500888,-2.520527 -1.316792,-3.303693 -0.805971,-0.774982 -1.711453,-1.172069 -2.693191,-1.172069 h -1.038154 z m 11.739626,0 c -1.290236,0 -2.313376,0.426438 -3.033155,1.276491 -0.711426,0.840458 -1.101147,1.849967 -1.16586,3.009053 v 0.144498 h 0.1489 1.983402 0.11588 l 0.01355,-0.115711 c 0.116332,-0.803204 0.354781,-1.374704 0.673297,-1.722402 0.315355,-0.344029 0.78946,-0.522958 1.457734,-0.522958 0.51579,0 0.941945,0.08947 1.283575,0.264725 V -1.92315 C -9.2829,-1.94573 -9.423645,-1.95843 -9.567917,-1.95843 Z M -49.350216,0.20791 c 0.70976,0 1.215588,0.341207 1.577144,1.080347 0.361497,0.738857 0.55228,1.8796 0.55228,3.41122 v 0.944597 c 0,1.5621 -0.205938,2.724574 -0.598736,3.478671 -0.3913,0.753534 -0.945245,1.106594 -1.719691,1.106594 -0.893855,0 -1.691529,-0.289843 -2.412915,-0.874889 V 1.272734 c 0.910391,-0.714586 1.776079,-1.064824 2.601918,-1.064824 z m 40.212149,2.849598 c -1.71148,0.225213 -3.044754,0.699911 -3.990001,1.439898 -1.117741,0.874606 -1.681621,2.121746 -1.681621,3.696828 0,1.342813 0.305336,2.37236 0.933647,3.067191 0.628537,0.695113 1.572204,1.03632 2.792702,1.03632 0.684925,0 1.334996,-0.140547 1.945273,-0.417971 V 9.623972 c -0.62357,0.4064 -1.179096,0.605367 -1.661696,0.605367 -0.636806,0 -1.086217,-0.17018 -1.38636,-0.498687 -0.300003,-0.327378 -0.459571,-0.831144 -0.459571,-1.53162 0,0 0,0 0,0 0.03356,-0.874607 0.402816,-1.547707 1.144298,-2.06248 0.565432,-0.392853 1.354836,-0.6858 2.363131,-0.871502 V 3.059483 Z m -27.004856,2.080824 v 3.841044 c -0.975161,0.842151 -1.815931,1.249963 -2.507488,1.249963 -0.63514,0 -1.086215,-0.17018 -1.386358,-0.498969 -0.298509,-0.32766 -0.459571,-0.831427 -0.459571,-1.53162 0,0 0,0 0,0 0.03355,-0.874607 0.402786,-1.547989 1.144241,-2.062762 0.716449,-0.496711 1.789401,-0.833967 3.20898,-0.996809 z m -16.359799,4.349891 v 0.09116 c -0.09993,0.03895 -0.149804,0.134338 -0.165946,0.254564 v 0.07931 c 0,0.122766 0.06646,0.221262 0.165946,0.259644 v 0.09116 c -0.165946,-0.05814 -0.247142,-0.210538 -0.247142,-0.387773 0,-0.176672 0.08269,-0.329918 0.247142,-0.388056 z m 0.132729,0.06971 v 0.08467 c -0.09974,0.03189 -0.165722,0.124742 -0.165722,0.231422 v 0.0285 h -0.08221 v -0.0285 c 0,-0.150707 0.09968,-0.280811 0.243728,-0.316654 z m -0.688256,0.174413 h 0.08331 c 0.03356,0 0.06649,0.01411 0.09974,0.03895 0.03356,0.0254 0.05007,0.06632 0.05007,0.12446 v 0 0 c 0,0.05616 -0.01355,0.09821 -0.05007,0.122202 -0.03356,0.0254 -0.06649,0.03895 -0.09974,0.03895 h -0.08331 v -0.03556 h 0.08331 c 0.01355,0 0.04942,-0.01411 0.06649,-0.02822 0.01355,-0.02258 0.05006,-0.04995 0.05006,-0.09821 v 0 c 0,-0.04713 -0.01355,-0.07761 -0.05006,-0.09765 -0.01355,-0.02258 -0.0501,-0.0285 -0.06649,-0.0285 h -0.08331 v -0.03161 z m -0.353343,0.02258 c 0,0 0,0 0,0 0,0 0,0 0,0 v 0.03528 c 0,0.01411 0,0.03528 0,0.03528 v 0.01976 0.02258 0.03528 0.04318 c 0,0 0,0.01411 0,0.01976 0,0 0,0.01411 0,0.01411 0,0 0,0 0,0.01411 0,0 0,0.01411 0,0.01411 0,0 0,0 0,0 0,0 0,0 0,0 0,0 0,0 0,0.01411 0,0 0,0.01411 0,0.01411 0,0 0,0 0,0 0,0 0,0 0,0 0,0 0,0 0,0 0,0 0,0 0,0 0,0 0,0 0,0 0,0 0,0 0,0 0,0 0,0 0,0 0,0 0,0 0,0 0,0 0,0 0,0 0,0 0,0 0,0 0,0 0,0 0,0 0,0 0,0 0,0 0,0 0,0 0.01355,0 0,0 0.01355,0 0.01355,0 0,0 0,0 0,0 0,0 0,0 0,0 0,0 0,0 0,0 v 0 c 0,0 0,0 0,0 0,0 0,0 0,0 0,0 0,0 0.01355,0 0,0 0.01326,0 0.01326,0 0,0 0,0 0,0 0,0 0,0 0.01355,0 0,0 0,0 0,0 v 0 c 0,0 0.03355,0 0.05006,0 h 0.04964 v 0 c 0,0 0,0 0.03356,0 h 0.01355 v 0 0 0 0 h 0.03355 c 0,0 0.03356,0 0.03356,0 0,0 0,0 0,0 0,0 0,0 0,0 0,0 0,0 0,0 0,0 0,0 0,0 0,0 0,0 0,0 0,0 0,0 0,0 0,0 0,0 0,0 0,0 0,0 0,0 0,0 0,0 0,0 0,0 0,0 0,0 0,0 0,0 0,0 0,0 0,0 0,0 0,0 0,0 0,-0.01411 0,0 0,-0.01411 0,-0.01411 0,0 0,-0.01411 0,-0.01411 0,0 0,0 0,0 0,0 0,0 0,-0.01411 0,0 0,-0.01411 0,-0.02258 0,0 0,-0.01411 0,-0.01411 0,0 0,-0.02822 0,-0.05757 0,-0.03528 0,-0.05644 0,-0.05785 v 0 c 0,0 0,-0.01411 0,-0.03556 0,-0.02258 0,-0.03528 0,-0.03528 0,0 0,0 0,0 0,0 0,0 0,0 0,0 0,0 0,0.01976 0,0 0,0.01411 0,0.02258 0,0 0,0.03867 0,0.07733 0,0.06322 0,0.07648 0,0.08269 0,0 0,0.01411 0,0.01411 0,0 0,0 0,0 0,0 0,0 0,0.01411 0,0 0,0 0,0 0,0 0,0 0,0.01411 0,0 0,0.01411 0,0.01411 0,0 0,0 0,0 0,0 0,0 0,0 0,0 0,0 0,0 0,0 0,0 0,0 0,0 0,0 0,0 0,0 0,0 0,0 0,0 0,0 0,0 0,0 0,0 0,0 0,0 0,0 0,0 0,0 0,0 0,0 0,0 0,0 0,0 0,0 0,0 0,0 0,0 -0.01355,0 -0.01355,0 h -0.01326 -0.03359 c 0,0 -0.01355,0 -0.01355,0 0,0 0,0 0,0 0,0 -0.01355,0 -0.03355,0 h -0.01355 -0.03356 -0.03358 -0.0501 c -0.01355,0 -0.03355,0 -0.03355,0 0,0 0,0 0,0 0,0 0,0 0,0 0,0 0,0 0,0 0,0 0,0 0,0 0,0 0,0 0,0 0,0 0,0 0,0 0,0 0,0 0,0 0,0 0,0 0,0 v 0 c 0,0 0,0 0,0 0,0 0,0 0,0 0,0 0,0 0,0 0,0 0,0 0,0 0,0 0,0 -0.01355,0 0,0 0,0 0,0 0,0 0,0 0,0 0,0 0,0 0,0 0,0 0,0 0,0 0,0 0,0 0,0 0,0 0,0 0,0 0,0 0,0 0,0 0,0 0,0 0,0 0,0 0,0 0,-0.01411 0,0 0,-0.01411 0,-0.01411 0,0 0,0 0,-0.01411 0,0 0,0 0,-0.01411 0,0 0,0 0,0 0,0 0,-0.01411 0,-0.01411 0,0 0,-0.01411 0,-0.02258 0,0 0,-0.01411 0,-0.01411 0,0 0,-0.01411 0,-0.03528 0,-0.01411 0,-0.03161 0,-0.03895 0,0 0,-0.01411 0,-0.01411 0,0 0,0 0,0 0,0 0,0 0,0 0,0 0,0 0,-0.01411 0,0 0,-0.01411 0,-0.01411 0,0 0,0 0,-0.01411 0,0 0,-0.01411 0,-0.01411 0,0 0,-0.01411 0,-0.03895 0,-0.03528 0,-0.03528 0,-0.03866 0,0 0,0 0,0 z m 0.321649,0.05786 h 0.148929 v 0.03528 h -0.148929 z m -0.605338,0.05955 c 0.03356,0 0.04964,0.01411 0.08263,0.0285 v 0.08156 0.248074 c 0,0 0,0.03866 0,0.07338 0,0.01411 0,0.02822 0.01355,0.03895 0,0 0,0.01411 0,0.02258 v 0 c 0,0 0,0.01411 0,0.01411 0,0 0,0.01411 0.01355,0.02258 0.01355,0.01976 0.05009,0.03528 0.08264,0.03895 v 0.07761 c -0.132503,-0.02822 -0.238874,-0.148731 -0.238874,-0.296051 V 9.877986 Z m 0.605338,0.01411 h 0.148929 v 0.03189 h -0.148929 z m 0.480965,0.05532 c 0.132474,0.02822 0.235542,0.144216 0.235542,0.302825 v 0.463408 h -0.08266 v -0.463408 c 0,-0.06999 -0.01355,-0.142805 -0.06646,-0.18034 -0.05007,-0.03528 -0.08244,-0.04318 -0.08244,-0.04318 z m -0.469223,0.01411 h 0.132728 v 0.03161 h -0.148928 z m -0.132731,0 h 0.09974 l -0.08289,0.103011 h -0.09971 z m 0.996725,0.17526 0.01326,0.0429 -0.116332,0.257387 h -0.03355 z m -1.02489,0 h 0.149747 v 0.03528 h -0.149747 z m 0.179184,0 h 0.08218 v 0.0793 h -0.08218 z m 0.132728,0 h 0.09971 v 0.08128 h -0.09971 z m 0.132702,0.01411 c 0.148929,0.04318 0.272119,0.184855 0.28843,0.349108 l -0.08241,0.03867 v -0.03867 c 0,-0.08636 -0.05006,-0.168204 -0.116303,-0.218157 -0.03356,-0.02822 -0.08269,-0.04346 -0.08269,-0.04346 z m -0.560522,0.01411 h 0.08263 v 0.176953 h -0.08263 z m 0.115879,0.05249 0.165524,0.342336 h -0.03358 l -0.132728,-0.29972 z m 0.132731,0.03895 h 0.242287 v 0.114582 c 0,0.150707 -0.09974,0.280811 -0.245647,0.316089 v -0.08467 c 0.09971,-0.03189 0.165722,-0.125871 0.165722,-0.231422 v -0.03528 h -0.165722 z m -0.349985,0 c 0.08289,0.06181 0.132532,0.144215 0.132532,0.347697 v 0.4191 h -0.08269 v -0.336691 -0.08043 c 0,-0.139136 0,-0.200096 -0.05004,-0.23876 z m 0.651737,0.02258 c 0.09971,0.05024 0.165523,0.147602 0.165523,0.276295 v 0.127564 h -0.149127 c 0,-0.03528 0,-0.07338 0,-0.07338 h 0.08264 v -0.05532 c 0,-0.110349 -0.03358,-0.168769 -0.08264,-0.193886 z m 0.595347,0.0714 v 0.110631 c -0.03358,0.03895 -0.05007,0.09991 -0.05007,0.239606 v 0.07987 0.337256 h -0.08289 v -0.418536 c 0,-0.202917 0.0501,-0.286173 0.132731,-0.347697 z m 0.11588,0 v 0.110631 c -0.03358,0.03895 -0.05006,0.09991 -0.05006,0.239606 v 0.07987 0.337256 h -0.08264 v -0.418536 c 0,-0.202917 0.04959,-0.286173 0.1327,-0.347697 z m 0.18415,0 v 0.09285 c 0,0 -0.03355,0.01411 -0.06649,0.04318 -0.03356,0.04346 -0.05004,0.108091 -0.05004,0.167075 v 0.463691 h -0.08269 v -0.463691 c 0,-0.158891 0.09974,-0.251742 0.195834,-0.301977 z m -1.200629,0.01411 h 0.09971 v 0.08156 h -0.09971 z m -0.197837,0.02258 c 0.09968,0.04741 0.165719,0.14732 0.165719,0.275167 v 0.128128 h -0.148871 c 0,-0.03556 0,-0.07309 0,-0.07309 h 0.08264 v -0.05503 c 0,-0.110914 -0.03356,-0.168769 -0.08264,-0.193887 z m 0.477829,0.07789 h 0.08241 l -0.03356,0.04995 -0.03356,0.05278 h -0.08264 z m 1.079556,0.02822 v 0.08156 0 c -0.03355,0 -0.06643,0.01976 -0.08263,0.03528 -0.05009,0.03895 -0.08289,0.107809 -0.08289,0.186549 v 0.328225 h -0.08238 v -0.328225 c 0,-0.158891 0.09971,-0.275166 0.238903,-0.303106 z m -1.852393,0 c 0.06643,0.06152 0.132702,0.144216 0.132702,0.347698 v 0.418254 h -0.08331 v -0.336974 -0.07959 c 0,-0.139136 0,-0.200378 -0.04987,-0.239325 z m -0.184179,0 c 0.09974,0.05024 0.197839,0.142805 0.197839,0.30226 v 0.463692 h -0.08263 v -0.463704 c 0,-0.05955 -0.01355,-0.124177 -0.05007,-0.167075 -0.01326,-0.02822 -0.05009,-0.03528 -0.06649,-0.04346 z m 0.875623,0.08975 v 0 l 0.08263,0.102729 h -0.08263 l -0.03358,-0.05249 z m 0.301836,0.0254 h 0.115882 v 0.07818 h -0.115882 z m -1.452737,0.01411 c 0.132728,0.02822 0.2389,0.149296 0.2389,0.296051 v 0.344029 c -0.03358,0 -0.05007,-0.01411 -0.08218,-0.02822 v -0.08156 -0.24892 c 0,0 0,-0.03866 0,-0.07338 0,-0.01411 0,-0.02822 -0.01355,-0.03895 0,0 0,-0.01411 0,-0.02258 0,0 0,0 0,0 0,0 0,-0.01411 0,-0.01411 0,0 0,-0.01411 -0.01355,-0.02258 -0.01355,-0.02258 -0.04961,-0.03528 -0.08241,-0.03866 v -0.07761 z m 0.202353,0.01411 c 0.09948,0.04967 0.149352,0.14732 0.149352,0.273474 v 0.354189 h -0.08263 V 10.90442 c 0,-0.06971 -0.01355,-0.147885 -0.06649,-0.185703 z m 1.112774,0.0762 v 0 c 0,0 0.01355,0 0.01355,0 0,0 0,0 0.01355,0 0,0 0.01355,0 0.01355,0 0,0 0,0 0,0 0,0 0,0 0,0 0,0 0,0 0,0 0,0 0,0 0,0 0,0 0,0 0.01355,0 0,0 0,0 0,0 0,0 0,0 0,0 0,0 0,0 0,0 0,0 0,0 0,0 0,0 0,0 0,0 0,0 0,0 0,0 0,0 0,0 0,0 0,0 0,0 0.01355,0 0,0 0.01355,0 0.03355,0 0,0 0.01355,0 0.03356,0 v 0 c 0,0 0,0 0,0 0,0 0,0 0,0 0,0 0,0 0,0 0,0 0,0 0,0 0,0 0,0 0,0.02258 0,0.01411 0,0.02258 0,0.02822 0,0 0,0.02258 0,0.02822 0,0 0,0.02258 0,0.0285 0,0.01411 0,0.0254 0,0.02822 0,0 0,0.01411 0,0.01411 0,0 0,0 0,0 0,0 0,0 0,0.01411 0,0 0,0.0254 0,0.03895 0,0.01411 0,0.03866 0,0.05249 0,0.01411 0,0.0254 0,0.0254 0,0 0,0.01411 0,0.03528 0,0.02258 0,0.03528 0,0.03895 0,0 0,0 0,0 0,0 0,0 0,0 0,0 0,-0.01411 0,-0.01411 0,0 0,0 0,0 0,0 0,0 0,0 0,0 0,0 0,0 0,0 0,0 0,0 0,0 0,0 0,0 0,0 0,0 0,0 0,0 0,0 0,0 0,0 0,0 0,0 0,0 0,0.01411 0,0.01411 0,0 0,0.01411 0,0.02258 0,0 0,0 0,0.01411 0,0 0,0 0,0 0,0 0,0 0,0.01411 0,0 0,0.01411 0,0.01411 0,0 0,0 0,0 0,0 0,0.01976 0,0.03895 0,0.01411 0,0.03528 0,0.03528 0,0 0,0.01411 0,0.01411 0,0 0,0.01411 0,0.01411 0,0 0,0 0,0 0,0 0,0 0,0 0,0 0,0 0,0 0,0 0,0 0,0.01411 0,0.01411 0,0.01411 0,0.01411 0,0 0,0 0,0 0,0 0,0 0,0 0,0 0,0 -0.01355,0 0,0 -0.01355,0 -0.01355,0 0,0 0,0 -0.01355,0 0,0 -0.01326,0 -0.01326,0 0,0 0,0 -0.03359,0 0,0 -0.03355,0 -0.04939,0 -0.01355,0 -0.03356,0 -0.03356,0 0,0 0,0 -0.01355,0 0,0 0,0 0,0 0,0 0,0 0,0 0,0 0,0 0,0 0,0 0,0 -0.01326,0 0,0 -0.01355,0 -0.01355,0 0,0 0,0 0,0 0,0 0,0 -0.01355,0 0,0 -0.01355,0 -0.01355,0 0,0 0,0 0,0 0,0 0,0 0,0 0,0 0,0 0,0 0,0 0,0 0,0 0,0 0,0 0,0 0,0 0,0 0,0 0,0 0,0 -0.01326,0 0,0 0,0 0,0 0,0 0,0 0,0 0,0 0,0 0,0 0,0 0,0 0,0 0,0 0,0 0,0 0,0 0,0 -0.01355,0 0,0 0,0 -0.01355,0 0,0 0,0 -0.01326,0 0,0 -0.01355,0 -0.01355,0 0,0 0,0 0,0 0,0 0,0 0,0 0,0 0,0 0,0 0,0 0,0 0,-0.01411 0,0 0,-0.01411 0,-0.02822 0,-0.01411 0,-0.05983 0,-0.106398 0,-0.04741 0,-0.09962 0,-0.114582 0,-0.01411 0,-0.03161 0,-0.0429 0,0 0,-0.01411 0,-0.01411 0,0 0,0 0,0 0,0 0,0 0,-0.01411 0,0 0,-0.01411 0,-0.01411 0,0 0,-0.01411 0,-0.01411 0,0 0,-0.01411 0,-0.01411 0,0 0,0 0,0 0,0 0,0 0,0 0,0 0,0 0,-0.01411 0,0 0,-0.01411 0,-0.01411 0,0 0,-0.01411 0,-0.01411 0,0 0,-0.01411 0,-0.01411 0,0 0,0 0,-0.01411 v 0 c 0,0 0,-0.01411 0,-0.01976 0,-0.01411 0,-0.02258 0,-0.02822 0,0 0,-0.01411 0,-0.01411 0,0 0,0 0,0 0,0 0,0 0,0 0,0 0,0 0,0 h 0.03356 0.05006 c 0,0 0.03356,0 0.03356,0 0,0 0,0 0.01355,0 0,0 0,0 0.03356,0 0.01355,0 0.03358,0 0.03358,0 0,0 0,0 0,0 0,0 0.01355,0 0.03356,0 0,0 0.03355,0 0.03355,0 0,0 0.01355,0 0.01355,0 0,0 0,0 0,0 0,0 0,0 0,0 0,0 0,0 0,0 0,0 0,0 0,0 0,0 0,0 0.01355,0 z m -0.32495,0.02822 v 0 0.211948 0 0 h 0.01355 v 0 0 0 c 0,0 0.01326,0 0.03355,0 0,0 0.03356,0 0.03356,-0.02258 0,-0.01411 0,-0.02822 0,-0.05475 v -0.01411 c 0,-0.02822 0,-0.0477 0,-0.05757 0,-0.01411 -0.01355,-0.01411 -0.03356,-0.01411 v 0 c 0,0 0,0 -0.01355,0.01411 v -0.06632 0 0 h -0.01355 z m 0.257159,0 v 0 0.188242 c 0,0 0,0.01411 0,0.02258 0,0 0,0 0.01355,0 v 0 0 0 0 -0.02258 0 0 0 c 0,0 0,0 0,0 0,0 0,0 0,0 v -0.18796 0 0 h -0.01355 v 0 z m 0.399486,0 h 0.03356 v 0.322015 h -0.03356 z m -0.484237,0.05588 c 0,0 -0.01355,0 -0.03355,0.01411 0,0.01411 0,0.02258 0,0.03528 v 0 0 h 0.01355 v 0 0 c 0,-0.01411 0,-0.01411 0,-0.02258 0,0 0,0 0.01355,0 0,0 0,0 0.01355,0 0,0 0,0 0,0.01411 v 0.01411 c -0.01355,0 -0.03359,0 -0.0501,0.01411 0,0.01411 -0.01355,0.0254 -0.01355,0.04318 0,0.01411 0,0.02822 0,0.03528 0,0 0.01355,0.01411 0.03356,0.01411 0,0 0.01355,0 0.03356,-0.01411 v 0.01411 0 0 h 0.01355 v 0 0 0 -0.109502 c 0,-0.01411 0,-0.02822 0,-0.03528 0,0 -0.01355,-0.01411 -0.03356,-0.01411 v 0 z m 0.177434,0 c 0,0 -0.01355,0 -0.03359,0.01411 0,0 0,0.02258 0,0.02822 0,0.01411 0,0.02822 0,0.03528 0,0 0.01355,0.01411 0.03359,0.01411 v 0 c 0,0 0,0 0,0 0,0 0,0 0,0.01411 0,0 0,0 0,0.01411 0,0 0,0.01411 0,0.01411 0,0 0,0 -0.01355,0 0,0 0,0 -0.01355,0 0,0 0,-0.01411 0,-0.02258 v 0 0 h -0.01355 v 0 0 c 0,0.01411 0,0.02822 0.01355,0.03866 0,0 0.01355,0.01411 0.03355,0.01411 0,0 0.03359,0 0.03359,-0.01411 0,0 0,-0.01411 0,-0.02822 0,-0.01411 0,-0.01411 0,-0.0254 0,0 0,-0.01411 0,-0.01411 0,0 0,0 -0.01355,-0.01411 v 0 c 0,0 0,0 -0.01355,-0.01411 0,0 0,-0.01411 0,-0.01411 0,0 0,-0.01411 0,-0.01411 0,0 0,0 0.01355,0 0,0 0,0 0.01355,0 0,0 0,0.01411 0,0.02258 v 0 0 h 0.01355 v 0 0 c 0,-0.01411 0,-0.02822 0,-0.03895 0,-0.01411 -0.01355,-0.01411 -0.03356,-0.01411 v 0 z m 0.132729,0 c 0,0 -0.01355,0 -0.03356,0.01411 0,0.01411 0,0.02258 0,0.03528 v 0 0 h 0.01326 v 0 0 c 0,-0.01411 0,-0.01411 0,-0.02258 0,0 0,0 0.01355,0 0,0 0,0 0.01355,0 0,0 0,0 0,0.01411 v 0.01411 c -0.01355,0 -0.05007,0 -0.05007,0.01411 0,0.01411 -0.01355,0.0254 -0.01355,0.04318 0,0.01411 0,0.02822 0,0.03528 0,0 0.01355,0.01411 0.03356,0.01411 0,0 0.01355,0 0.03358,-0.01411 v 0.01411 0 0 h 0.01355 v 0 0 0 -0.109502 c 0,-0.01411 0,-0.02822 0,-0.03528 0,0 -0.01355,-0.01411 -0.01355,-0.01411 v 0 z m 0.148873,0 v 0 c 0,0 0,0 0,0 v 0 c 0,0 0,0 0,0.01411 v 0.03528 0.02822 0.01411 0.02258 c 0,0 0,0.01411 0,0.01411 0,0 0,0 0,0 0,0 0,0 0,0.01411 0,0 0,0 0,0 0,0 0,0 0,0.01411 0,0 0,0.0254 0,0.03528 0,0.01411 0,0.02258 0,0.02258 0,0 0,0 0,0 0,0 0,0 0,0.01411 0,0 0,0 0,0.01411 0,0 0,0.01411 0,0.01411 0,0 0,0 0,0 0,0 0,0 0,0 0,0 0,0 0,0 0,0 0,0.01411 0,0.01411 0,0 0,0.01411 0,0.01411 0,0 0,0 0,0 0,0 0,0 0,0 0,0 0,0 0,0 0,0 0,0 0,0 0,0 0,0 0,0 0,0 0,0 0,0 0,0 0,0 0,0 0,0 0,0 0,0 0,0 0,0 0.01355,0 0,0 0.01326,0 0.01326,0 0,0 0.03358,0 0.06646,0 h 0.01355 c 0.03356,0 0.06646,0 0.06646,0 0,0 0,0 0,0 0,0 0.03356,0 0.06649,0 0.03355,0 0.06643,0 0.06643,0 0,0 0,0 0,0 0,0 0.01355,0 0.03356,0 0.01355,0 0.03358,0 0.03358,0 0,0 0,0 0,0 0,0 0,0 0.01355,0 0,0 0.01355,0 0.01355,0 0,0 0,0 0,0 0,0 0,0 0,0 0,0 0,0 0,0 0,0 0,0 0,0 0,0 0,0 0,0 0,0 0,0 0,0 0,0 0,0 0,0 0,0 0,0 0,0 0,0 0,0 0,0 0,0 0,0 0,0 0,0 0,0 0,0 0,0 0,0 0,0 0,0 0,0 0,0 0,0 0,0 0,0 0,0 0,0 0,0 0,0 0,0 0,0 0,0 0,0 0,0 0,0 0,0 0,0 0,0 0,0 0,-0.01411 0,0 0,-0.01411 0,-0.01411 0,0 0,0 0,-0.01411 0,0 0,-0.01411 0,-0.01411 0,0 0,0 0,0 0,0 0,0 0,-0.01411 0,0 0,-0.01411 0,-0.01411 0,0 0,0 0,0 0,0 0,-0.01411 0,-0.01976 0,-0.01411 0,-0.01411 0,-0.01411 0,0 0,0 0,-0.01411 0,0 0,-0.01411 0,-0.01411 0,0 0,0 0,0 0,0 0,-0.01411 0,-0.01411 0,0 0,0 0,0 0,0 0,-0.01411 0,-0.02258 v -0.02258 c 0,0 0,0 0,0 v 0 c 0,0 0,0 0,0 0,0 0,0 0,0 0,0 0,0 0,0 0,0 0,0 0,0 0,0 0,0.01411 0,0.02822 0,0.01411 0,0.03189 0,0.03895 v 0.05165 c 0,0.02822 0,0.04346 0,0.05447 0,0.01411 0,0.01411 0,0.01411 0,0 0,0 0,0 0,0 0,0 0,0 0,0 0,0 0,0 0,0 0,0 0,0.01411 0,0 0,0 0,0 0,0 0,0 0,0 0,0 0,0 0,0 0,0 0,0 0,0 0,0 0,0 0,0 0,0 0,0 0,0 0,0 0,0 0,0 0,0 0,0 0,0 0,0 0,0 0,0 0,0 0,0 0,0 0,0 0,0 0,0 0,0 0,0 0,0 0,0 0,0 0,0 0,0 0,0 0,0 0,0 0,0 0,0 0,0 0,0 0,0 0,0 0,0 0,0 0,0 0,0 0,0 0,0 0,0 0,0 0,0 0,0 0,0 0,0 0,0 0,0 0,0 0,0 0,0 0,0 0,0 0,0 0,0 0,0 -0.01355,0 0,0 -0.01355,0 -0.01355,0 0,0 0,0 0,0 0,0 0,0 0,0 0,0 0,0 0,0 0,0 0,0 0,0 0,0 -0.01355,0 -0.01355,0 0,0 -0.05009,0 -0.08357,0 -0.04939,0 -0.08264,0 -0.08264,0 h -0.03356 c -0.01355,0 -0.05009,0 -0.05009,0 v 0 c 0,0 0,0 -0.03356,0 0,0 -0.03355,0 -0.03355,0 0,0 0,0 0,0 0,0 0,0 0,0 0,0 0,0 0,0 0,0 0,0 0,0 0,0 0,0 0,0 0,0 0,0 0,0 0,0 0,0 0,0 0,0 0,0 0,0 0,0 0,0 0,0 0,0 0,-0.01411 0,-0.01411 0,0 0,-0.01411 0,-0.01411 0,0 0,0 0,0 0,0 0,0 0,0 0,0 0,0 0,0 0,0 0,0 0,0 0,0 0,0 0,0 0,0 0,0 0,0 0,0 0,-0.01411 0,-0.01411 0,0 0,-0.01411 0,-0.02258 0,0 0,-0.02258 0,-0.0254 0,-0.01411 0,-0.01411 0,-0.01411 0,0 0,0 0,0 0,0 0,-0.01411 0,-0.0254 0,-0.01411 0,-0.0254 0,-0.0254 0,0 0,0 0,0 0,0 0,0 0,-0.01411 0,0 0,-0.01411 0,-0.01411 0,0 0,0 0,-0.01411 v -0.05137 c 0,-0.0285 0,-0.0477 0,-0.05024 0,0 0,0 0,0 0,0 0,0 0,0 0,0 0,0 0,0 z m -0.815906,0.01411 h 0.115882 v 0.03528 h -0.115882 z m 0.245647,0 c 0,0 0,0 0.01355,0.01411 0,0 0,0.02258 0,0.03895 v 0.01411 c 0,0.01411 0,0.02822 0,0.03895 0,0.01411 0,0.01411 -0.01355,0.01411 0,0 -0.01355,0 -0.03356,-0.01411 v -0.08807 c 0,0 0.01355,-0.01411 0.03356,-0.01411 z m -0.225439,0.05165 0.08263,0.03866 c -0.01355,0.1651 -0.132702,0.307905 -0.288433,0.349109 v -0.08777 c 0,0 0.05007,-0.01411 0.08263,-0.04346 0.06646,-0.05024 0.115882,-0.131234 0.115882,-0.217876 z m 0.369655,0 v 0.04346 c 0,0.01411 -0.01355,0.01411 -0.03356,0.01411 0,0 0,0 0,0 0,0 0,-0.01411 0,-0.01411 0,-0.01411 0,-0.01411 0,-0.0254 0,0 0.01355,-0.01411 0.03356,-0.01411 z m 0.308637,0 v 0.04346 c 0,0.01411 -0.01355,0.01411 -0.03355,0.01411 0,0 0,0 0,0 0,0 0,-0.01411 0,-0.01411 0,-0.01411 0,-0.01411 0,-0.0254 0,0 0.01355,-0.01411 0.03355,-0.01411 z m -1.442747,0.05757 c 0,0 0,0 0,0 0,0 0,0 0,0 0,0 0,0 0,0 0,0 0,0 0,0.01411 v 0.01411 0.01411 c 0,0 0,0.01411 0,0.01411 0,0 0,0 0,0 0,0 0,0 0,0 0,0 0,0 0,0.01411 v 0.05165 c 0,0.02258 0,0.04346 0,0.05193 0,0 0,0.01411 0,0.01411 0,0 0,0 0,0 0,0 0,0 0,0.01411 0,0 0,0 0,0 0,0 0,0 0,0 0,0 0,0 0,0 0,0 0,0 0,0.01411 0,0 0,0.01411 0,0.01411 0,0 0,0.01411 0,0.01411 0,0 0,0.01411 0,0.01411 0,0 0,0 0,0.01411 0,0 0,0 0,0 0,0 0,0 0,0 0,0 0,0 0,0 0,0 0,0 0,0 0,0 0,0 0,0 0,0 0,0 0,0 0,0 0,0 0,0 0,0 0,0 0,0 0,0 0,0 0,0 0,0 0,0 0,0 0,0 0,0 0,0 0,0 0,0 0,0 0,0 0,0 0,0 0,0 0,0 0,0 0,0 0,0 0,0 0,0 0,0 0,0 0,0 0,0 0,0 0,0 0,0 0,0 0,0 0,0 0,0 0,0 0,0 0,0 0,0 0,0 0,0 0,0 0.01355,0 0.05007,0 h 0.0501 c 0,0 0,0 0,0 0,0 0,0 0,0 0,0 0,0 0,0 0,0 0,0 0,0 0,0 0,0 0,0 0,0 0,0 0,0 0,0 0,0 0,0 0,0 0,0 0.01355,0 0,0 0,0 0,0 0,0 0,0 0,0 0,0 0,0 0,0 0,0 0,0 0,0 0,0 0.03358,0 0.08289,0 0.03358,0 0.08264,0 0.08264,0 0,0 0,0 0,0 0,0 0.01355,0 0.05006,0 0.01355,0 0.0501,0 0.0501,0 0,0 0,0 0,0 0,0 0,0 0,0 0,0 0,0 0,0 0,0 0,0 0.01355,0 0,0 0.01355,0 0.01355,0 0,0 0,0 0,0 0,0 0,0 0,0 0,0 0,0 0,0 0,0 0,0 0,0 0,0 0,0 0,0 0,0 0,0 0,0 0,0 0,0 0,0 0,0 0,0 0,0 0,0 0,0 0,0 0,0 0,0 0,0 0,0 0,0 0,0 0,0 0,0 0,0 0,0 0,0 0,0 0,0 0,0 0,0 0,0 0,0 0,0 0,0 0,0 0,-0.01411 0,0 0,-0.01411 0,-0.01411 0,0 0,0 0,0 0,0 0,0 0,0 0,0 0,0 0,0 0,0 0,0 0,-0.01411 0,-0.01411 0,-0.01411 0,-0.01411 0,0 0,0 0,0 0,0 0,0 0,0 0,0 0,0 0,0 0,0 0,-0.01411 0,-0.02258 0,-0.01411 0,-0.02822 0,-0.06181 0,-0.02822 0,-0.05024 0,-0.05024 0,0 0,0 0,0 0,0 0,0 0,0 0,0 0,0 0,0 0,0 0,0 0,0 0,0 0,0 0,0 0,0 0,0 0,0 0,0 0,0 0,0 0,0 0,0 0,0 0,0 0,0 0,0 0,0 0,0 0,0 0,0 0,0 0,0 0,0 0,0.01411 0,0.01411 v 0.01411 0.01411 0.01411 0 0.02822 0.02822 0.02822 c 0,0.01411 0,0.02822 0,0.02822 0,0 0,0 0,0 0,0 0,0.02822 0,0.05785 0,0.0477 0,0.05814 0,0.06011 0,0 0,0 0,0 0,0 0,0 0,0 0,0 0,0 0,0 0,0 0,0 0,0 0,0 0,0 -0.01355,0 h -0.165523 -0.165947 -0.01355 -0.01355 -0.08286 -0.08266 -0.01355 v 0 h -0.04984 -0.05009 v 0 c 0,0 0,0 -0.01355,0 0,0 -0.01355,0 -0.01355,0 v 0 c 0,0 0,0 0,0 0,0 0,0 0,0 0,0 0,0 -0.03356,0 h -0.03355 c 0,0 0,0 0,0 0,0 0,0 0,0 v 0 c 0,0 0,0 0,0 0,0 0,0 -0.01355,0 -0.01355,0 -0.01355,0 -0.01355,-0.02258 0,-0.01411 0,-0.02258 0,-0.02258 0,0 0,0 0,0 0,0 0,0 0,-0.01411 0,0 0,-0.01411 0,-0.01411 0,0 0,0 0,-0.01411 0,0 0,-0.01411 0,-0.01411 0,0 0,0 0,0 0,0 0,0 0,-0.02258 0,-0.01411 0,-0.01976 0,-0.01976 v -0.05024 -0.05475 -0.01411 0 c 0,0 0,-0.01411 0,-0.0254 0,-0.01411 0,-0.02258 0,-0.0254 0,0 0,0 0,0 0,0 0,-0.0254 0,-0.05137 0,-0.04769 0,-0.05193 0,-0.05532 0,0 0,0 0,0 0,0 0,0 0,0 0,0 0,0 0,0 z m 1.134335,0.05814 v 0 0.03895 0 0 h 0.01326 v 0 0 0 -0.03528 0 0 h -0.01326 v 0 z m -0.190894,0.05757 v 0 0 0.154376 0 0 h 0.01355 v 0 0 -0.122485 c 0,0 0,-0.01411 0.01355,-0.01411 0,0 0,0 0,0 0,0 0,0 0,0.01411 v 0.115994 0 0 h 0.01355 v 0 0 -0.122767 c 0,0 0,-0.01411 0.03355,-0.01411 0,0 0,0 0,0 0,0 0,0 0,0.01411 v 0.116558 0 0 h 0.01355 v 0 0 0 -0.1143 c 0,-0.01411 0,-0.0254 0,-0.02822 0,0 0,-0.01411 -0.01355,-0.01411 v 0 c 0,0 -0.01355,0 -0.03355,0.01411 0,0 0,0 0,-0.01411 0,0 0,0 -0.01355,0 v 0 c 0,0 -0.01355,0 -0.01355,0 v 0 0 0 h -0.01355 z m 0.194252,0 v 0 0 0.154376 0 0 h 0.01325 v 0 0 0 -0.1524 0 0 h -0.01325 z m 0.04984,0 v 0 0 0.154376 0 0 h 0.01355 v 0 0 -0.112618 c 0,0 0,-0.01411 0,-0.01411 0,0 0,0 0.01355,0 0,0 0,0 0,0 0,0 0,0 0,0.01411 v 0.115993 0 0 h 0.01355 v 0 0 0 -0.11938 c 0,-0.01411 0,-0.02258 0,-0.0254 0,0 0,-0.01411 -0.01355,-0.01411 v 0 c 0,0 0,0 0,0 0,0 0,0 0,0 0,0 0,0 0,0 v -0.01411 0 0 h -0.01355 z m 0.172691,0 c 0,0 -0.01355,0 -0.03356,0.02258 0,0.01411 0,0.02822 0,0.05136 v 0.01411 c 0,0.02258 0,0.03895 0.01326,0.04995 0,0.01411 0.01355,0.02258 0.03358,0.02258 0,0 0.01326,0 0.03356,0 0,0 0,-0.01411 0.01355,-0.02822 v 0 0 h -0.01355 v 0 0 c 0,0 0,0 0,0.01411 0,0 0,0 0,0 0,0 -0.01355,0 -0.03356,-0.01411 0,0 0,-0.01976 0,-0.03528 h 0.08263 v 0 0 -0.01976 c 0,-0.0254 0,-0.04346 0,-0.05165 0,-0.01411 -0.01355,-0.01411 -0.03358,-0.01411 v 0 z m 0,0.0254 c 0,0 0.01355,0 0.01355,0.01411 0,0 0,0.02258 0,0.03528 h -0.05012 c 0,-0.01411 0,-0.0254 0,-0.03528 0,0 0,-0.01411 0.01355,-0.01411 z m 0.115879,0.04346 h 0.08263 v 0.136031 0.08156 0.09991 0.229729 c 0,0.06632 0.03356,0.103294 0.08266,0.132645 v 0.08918 c -0.09974,-0.03867 -0.1489,-0.11938 -0.1489,-0.22098 z m 0.116332,0.0477 c 0.03356,0 0.04987,0.01411 0.08218,0.02822 v 0.08269 0.248638 c 0,0 0,0.03895 0,0.07366 0,0.01411 0,0.02822 0.01355,0.03866 0,0 0,0.01411 0,0.02258 v 0 c 0,0 0,0.01411 0,0.01411 0,0 0,0.01411 0.01326,0.02258 0.01355,0.02258 0.05009,0.03528 0.08244,0.03866 v 0.07789 c -0.149548,-0.02822 -0.238872,-0.149578 -0.238872,-0.296051 v -0.344029 z m 0.115882,0.0254 c 0,0 0,0 0,0.01411 v 0.02822 0.08805 c 0,0.0429 0,0.0762 0,0.07789 0,0 0,0 0,0.01411 0,0 0,0.01411 0,0.01411 0,0 0,0 0,0 0,0 0,0 0,0 0,0 0,0 0,0 0,0 0,0 0,0 0,0 0,0 0,0 0,0 0,0 0,0 0,0 0,0 0,0 0,0 0,0 0,0 0,0 0,0 0,0 0,0 0,0 0,0 0,0 0,0 0,0 0,0 0,0 0,0 0,0 0,0 0,0.01411 0,0 0,0.01411 0.01355,0.01411 0,0 0,0.01411 0.01355,0.01411 0,0 0,0 0,0 0,0 0,0 0,0 0,0 0,0 0,0 0,0 0,0 0,0 0,0 0,0 0,0 0,0 0,0 0,0 0,0 0,0 0,0 0,0 0,0 0,0 0,0 0,0 0,0 0,0 0,0 0,0 0,0 0,0 0,0 0,0 0,0 0.03355,0 0,0 0.03356,0 0.03356,0 0,0 0,0 0,0 0,0 0,0 0.03356,0 h 0.03358 0.01355 0.03358 v 0 h 0.03356 c 0,0 0.03356,0 0.03356,0 v 0 0 c 0,0 0,0 0,0 0,0 0,0 0,0 0,0 0,0 0,0 0,0 0,0 0,0 0,0 0,0 0,0 0,0 0.05006,0 0.09971,0 0.05007,0 0.08263,0 0.08263,0 0,0 0,0 0,0 0,0 0,0 0,0 0,0 0,0 0,0 0,0 0,0 0,0 0,0 0,0 0,0 0,0 0,0 0,0 0,0 0,0 0,0 0,0 0,0 0,0 0,0 0,0 0,0 0,0 0,0 0,0 0,0 0,0 0,0 0,0 0,0 0,0 0,0 0,0 0,0 0,0 0,0 0,0 0,0 0,0 0,0 0,0 0,0 0,0 0,0 0,0 0,0 0,0 0,0 0,0 0,0 0,0 0,0 0,0 0,0 0,0 0,0 0,0 0,0 0,0 0,0 0,0 0,0 0,0 0,0 0,0 0,0 0,0 0,0 0,0 0,0 0,0 0,0 0,0 0,0 0,-0.01411 0,-0.01411 0,0 0,-0.01411 0,-0.02258 0,0 0,0 0,0 0,0 0,0 0,0 0,0 0,-0.01411 0,-0.02822 0,-0.01411 0,-0.02822 0,-0.02822 0,0 0,0 0,0 0,0 0,0 0,-0.01411 0,0 0,0 0,0 0,0 0,-0.01411 0,-0.02822 0,-0.01976 0,-0.0254 0,-0.0254 0,0 0,0 0,0 0,0 0,0 0,0.01411 0,0 0,0.01411 0,0.01411 0,0 0,0.01411 0,0.03556 0,0.01411 0,0.02822 0,0.02822 0,0 0,0 0,0.01411 0,0.01411 0,0.01411 0,0.02258 0,0 0,0 0,0 0,0 0,0 0,0.01411 0,0 0,0.01411 0,0.01411 0,0 0,0 0,0 0,0 0,0 0,0.01411 0,0 0,0.01411 0,0.01411 0,0 0,0 0,0 0,0 0,0 0,0 0,0 0,0 0,0 0,0 0,0 0,0 0,0 0,0 0,0 0,0 0,0 0,0.01411 0,0 0,0 0,0 0,0 0,0 0,0 0,0 0,0 0,0.01411 0,0 0,0 0,0 0,0 0,0 0,0 0,0 0,0 0,0 0,0 0,0 0,0 0,0 0,0 0,0 0,0 0,0 0,0 0,0 0,0 0,0 0,0 0,0 0,0 0,0 0,0 0,0 0,0 0,0 0,0 0,0 0,0 0,0 0,0 0,0 0,0 0,0 0,0 0,0 0,0 0,0 0,0 0,0 0,0 0,0 0,0 0,0 0,0 0,0 0,0 0,0 v 0 c 0,0 0,0 0,0 0,0 0,0 0,0 0,0 0,0 -0.01355,0 0,0 0,0 0,0 0,0 -0.04984,0 -0.09974,0 -0.05007,0 -0.09971,0 -0.09971,0 0,0 0,0 0,0 0,0 0,0 -0.01326,0 0,0 -0.01355,0 -0.01355,0 0,0 0,0 0,0 0,0 0,0 0,0 0,0 0,0 0,0 0,0 -0.01355,0 -0.01355,0 0,0 0,0 0,0 0,0 0,0 0,0 0,0 0,0 -0.05009,0 -0.03356,0 -0.06643,0 -0.06643,0 h -0.01355 c 0,0 0,0 0,0 0,0 -0.01355,0 -0.03356,0 0,0 -0.01355,0 -0.01355,0 0,0 0,0 0,0 0,0 0,0 0,0 0,0 0,0 0,0 0,0 0,0 0,0 0,0 0,0 0,0 0,0 0,0 0,0 0,0 0,0 0,0 0,0 0,0 0,0 0,0 0,0 0,0 0,0 0,0 0,0 0,0 0,0 0,0 0,0 0,0 0,0 0,0 0,0 0,0 0,0 0,0 0,0 0,0 0,0 0,0 0,0 0,0 0,0 0,0 0,0 0,0 0,0 0,0 0,-0.01411 0,0 0,0 0,0 0,0 0,0 0,0 0,0 0,0 0,-0.01411 0,0 0,-0.01411 0,-0.02258 0,0 0,-0.01411 0,-0.01411 0,0 0,0 0,0 0,0 0,0 0,-0.01411 0,0 0,-0.01411 0,-0.02258 0,-0.01411 0,-0.03528 0,-0.05447 0,-0.0254 0,-0.03895 0,-0.03895 0,0 0,0 0,0 0,0 0,-0.01411 0,-0.01976 0,-0.01411 0,-0.02258 0,-0.02258 0,0 0,-0.01411 0,-0.03528 0,-0.03189 0,-0.02822 0,-0.03189 0,0 0,0 0,0 0,0 0,0 0,0 v 0 z m -0.305308,0.0762 c 0,0 0.03355,0.01411 0.03355,0.02258 v 0.65024 h -0.08263 v -0.650805 c 0,-0.01411 0.03356,-0.01411 0.03356,-0.02258 z m -0.515649,0 h 0.148875 c 0,0.03528 0,0.07338 0,0.07338 h -0.08241 v 0.05475 c 0,0.110631 0.03356,0.168204 0.08241,0.193604 v 0.08128 c -0.09968,-0.04713 -0.165975,-0.14732 -0.165975,-0.275731 z m 0.180989,0 h 0.03359 v 0.322862 h -0.03359 z m 0.06646,0 h 0.08266 v 0.136313 0.08156 0.09962 0.229729 c 0,0.06689 0.03358,0.103293 0.08286,0.132926 v 0.08947 c -0.09971,-0.03895 -0.14887,-0.119662 -0.14887,-0.221545 z m 0.116332,0 c 0,0 0.04987,0.01411 0.08263,0.04346 v 0.513927 c -0.03355,0.0285 -0.08263,0.04346 -0.08263,0.04346 z m -0.23413,0.09821 h 0.03358 v 0.06463 h -0.03358 z m -0.586994,0.02822 h 0.08244 v 0.756074 h -0.08244 z m 0.11588,0 h 0.08263 v 0.756074 h -0.08263 z m 0.116557,0 h 0.08263 v 0 0 0.748454 h -0.08263 v -0.755509 z m 0.115882,0.06971 c 0,0 0.03355,0.01411 0.08289,0.04346 v 0.642902 h -0.08289 z m 0.298505,0.149014 h 0.03356 v 0.322015 h -0.03356 z m -0.115879,0.02822 v 0 0.21336 h -0.08264 v -0.177518 c 0.01355,-0.01411 0.05009,-0.02822 0.08264,-0.03556 z m 0.08221,0.129822 v 0 c 0,0 0,0 0,0 v 0.09116 c 0,0.0762 0,0.08777 0,0.08777 0,0 0,0 0,0 0,0 0,0 0,0 0,0 0,0 0,0.01411 0,0 0,0.01411 0,0.02258 0,0 0,0 0,0.01411 0,0 0,0 0,0 0,0 0,0.01411 0,0.01411 0,0 0,0.01411 0,0.01411 0,0 0,0 0,0 0,0 0,0 0,0 0,0 0,0 0,0 0,0 0,0 0,0 0,0 0,0 0,0 0,0 0,0 0,0 0,0 0,0 0,0 0,0 0,0 0,0.01411 0,0 0,0 0,0 0,0 0,0 0,0 0,0 0,0 0,0 0,0 0,0 0,0 0,0 0,0 0,0 0,0 0,0 0,0 0,0 0,0 0,0 0,0 0,0 0,0 0,0 0,0 0,0 0,0 0.01355,0 0.03355,0 0,0 0.03356,0 0.0501,0 h 0.03355 c 0,0 0.01355,0 0.01355,0 0,0 0,0 0,0 0,0 0,0 0.01355,0 0,0 0.01355,0 0.01355,0 0,0 0,0 0,0 0,0 0,0 0,0 0,0 0,0 0,0 0,0 0,0 0.03356,0 h 0.03356 0.03355 0.01355 c 0,0 0.03356,0 0.06649,0 0.03356,0 0.08238,0 0.08238,0 0,0 0,0 0,0 0,0 0,0 0,0 0,0 0,0 0,0 0,0 0,0 0,0 0,0 0,0 0,0 0,0 0,0 0,0 0,0 0,0 0,0 0,0 0,0 0,0 0,0 0,0 0,0 0,0 0,0 0,0 0,0 0,0 0,0 0,0 0,0 0,0 0,0 0,0 0,0 0,0 0,0 0,0 0,0 0,0 0,0 0,0 0,0 0,0 0,0 0,0 0,0 0,0 0,0 0,0 0,0 0,0 0,0 0,0 0,0 0,0 0,0 0,0 0,0 0,0 0,0 0,-0.01411 0,0 0,-0.02258 0,-0.0254 0,0 0,-0.01411 0,-0.02258 0,0 0,-0.01411 0,-0.01411 0,0 0,0 0,0 0,0 0,0 0,-0.01411 0,0 0,-0.01411 0,-0.01411 0,0 0,0 0,0 0,0 0,0 0,0 0,0 0,0 0,-0.01411 0,0 0,-0.02258 0,-0.02822 0,-0.01411 0,-0.01411 0,-0.01411 0,0 0,0 0,0 0,0 0,0 0,0 0,0 0,0 0,-0.01411 0,0 0,-0.01411 0,-0.02822 0,-0.01411 0,-0.01976 0,-0.01976 0,0 0,0 0,0 0,0 0,0 0,0 0,0 0,0 0,0 0,0 0,0 0,0.03189 0,0.01411 0,0.04346 0,0.05673 0,0.01411 0,0.0285 0,0.03556 0,0 0,0 0,0 0,0 0,0 0,0 0,0 0,0 0,0 0,0 0,0 0,0.01411 0,0 0,0.01411 0,0.01411 0,0 0,0.01411 0,0.01411 0,0 0,0 0,0 0,0 0,0 0,0 0,0 0,0 0,0 0,0 0,0 0,0 0,0 0,0.01411 0,0.01411 0,0 0,0.01411 0,0.01411 0,0 0,0 0,0.01411 0,0 0,0 0,0.01411 0,0 0,0 0,0 0,0 0,0 0,0 0,0 0,0 0,0 0,0 0,0 0,0 0,0 0,0 0,0 0,0 0,0 0,0 0,0 0,0 0,0 0,0 0,0 0,0 0,0 0,0 0,0 0,0 0,0 0,0 0,0 0,0 0,0 0,0 -0.01355,0 -0.03356,0 0,0 -0.01355,0 -0.03355,0 0,0 -0.01355,0 -0.01355,0 0,0 0,0 -0.01355,0 0,0 0,0 0,0 0,0 0,0 0,0 0,0 0,0 -0.03356,0 0,0 -0.01355,0 -0.01355,0 0,0 0,0 0,0 0,0 0,0 0,0 0,0 -0.03356,0 -0.08286,0 -0.05007,0 -0.09971,0 -0.115882,0 -0.01355,0 -0.03358,0 -0.03358,0 0,0 0,0 0,0 0,0 0,0 -0.01355,0 0,0 0,0 0,0 0,0 0,0 0,0 0,0 0,0 0,0 0,0 0,0 -0.01355,0 0,0 0,0 -0.01355,0 0,0 0,0 0,0 0,0 0,0 0,0 0,0 0,0 0,0 0,0 0,0 0,0 0,0 0,0 0,0 0,0 0,0 0,0 0,0 0,0 0,0 0,0 0,0 0,0 0,0 0,0 0,0 0,0 0,0 0,0 0,0 0,-0.01411 -0.01326,-0.01411 0,0 0,-0.01411 0,-0.01411 0,0 0,0 0,0 0,0 0,0 0,0 0,0 0,-0.01411 0,-0.01411 0,0 0,0 0,0 0,0 0,0 0,-0.01411 0,0 0,0 0,0 0,0 0,0 0,-0.01411 0,0 0,0 0,-0.01411 0,0 0,0 0,-0.01411 0,0 0,-0.01411 0,-0.0254 v -0.0254 -0.01411 -0.01411 c 0,0 0,-0.01411 0,-0.02822 v -0.02822 -0.03528 c 0,-0.01411 0,-0.02822 0,-0.02822 v -0.02258 c 0,-0.01411 0,-0.01411 0,-0.02258 0,0 0,0 0,0 z m 0.28366,0.184291 h 0.148873 v 0.08354 h -0.148873 z m 0.179213,0 h 0.08266 v 0.08015 h -0.08266 z m 16.449376,3.920641 v 3.305386 h 1.983374 v -3.305386 z"
       style="color:#000000;font-style:normal;font-variant:normal;font-weight:normal;font-stretch:normal;font-size:35.48030472px;line-height:94.99999881%;font-family:'Ume P Gothic C5';-inkscape-font-specification:'Ume P Gothic C5';text-indent:0;text-align:start;text-decoration:none;text-decoration-line:none;letter-spacing:0.04px;word-spacing:0px;text-transform:none;writing-mode:lr-tb;direction:ltr;baseline-shift:baseline;text-anchor:start;display:inline;overflow:visible;visibility:visible;fill:#000000;fill-opacity:1;fill-rule:nonzero;stroke:none;stroke-width:3.67338991;marker:none;enable-background:accumulate" />
  </g>
</svg>
