<!--?xml version="1.0" encoding="UTF-8" standalone="no"?-->
<svg xmlns:dc="http://purl.org/dc/elements/1.1/" xmlns:cc="http://creativecommons.org/ns#" xmlns:rdf="http://www.w3.org/1999/02/22-rdf-syntax-ns#" xmlns:svg="http://www.w3.org/2000/svg" xmlns="http://www.w3.org/2000/svg" xmlns:sodipodi="http://sodipodi.sourceforge.net/DTD/sodipodi-0.dtd" xmlns:inkscape="http://www.inkscape.org/namespaces/inkscape" version="1.1" viewBox="0 -288 1232 2048" id="svg6" sodipodi:docname="S.svg" width="1232" height="2048" inkscape:version="0.92.1 r">
  <metadata id="metadata12">
    <rdf:rdf>
      <cc:work rdf:about="">
        <dc:format>image/svg+xml</dc:format>
        <dc:type rdf:resource="http://purl.org/dc/dcmitype/StillImage"></dc:type>
        <dc:title></dc:title>
      </cc:work>
    </rdf:rdf>
  </metadata>
  <defs id="defs10"></defs>
  <sodipodi:namedview pagecolor="#ffffff" bordercolor="#666666" borderopacity="1" objecttolerance="10" gridtolerance="10" guidetolerance="10" inkscape:pageopacity="0" inkscape:pageshadow="2" inkscape:window-width="2558" inkscape:window-height="1402" id="namedview8" showgrid="false" inkscape:zoom="0.361147" inkscape:cx="-913.01953" inkscape:cy="286.88701" inkscape:window-x="0" inkscape:window-y="18" inkscape:window-maximized="0" inkscape:current-layer="layer3" inkscape:measure-start="885.766,394.076" inkscape:measure-end="1348.53,394.076" showguides="false">
    <sodipodi:guide position="186.77207,501.25482" orientation="0,1" id="guide895" inkscape:locked="false"></sodipodi:guide>
  </sodipodi:namedview>
  <g inkscape:groupmode="layer" id="layer3" inkscape:label="trace" style="display:inline" transform="matrix(1,0,0,0.78761932,0,373.78977)">
    <g id="g4487" transform="matrix(1,0,0,0.78761932,0,373.78977)">
      <path class="int" style="display: inline; fill: none; fill-rule: evenodd; stroke: rgb(1, 0, 0); stroke-width: 100; stroke-linecap: round; stroke-linejoin: bevel; stroke-miterlimit: 4; stroke-dasharray: none; stroke-opacity: 1;" d="m 227.12722,1320 c 0,95.8473 74.32324,365 409.18869,365 244.25747,5.963 366.61279,-123.2452 366.61279,-299.1701 2.456,-204.1759 -100.87217,-324.6525 -329.16795,-383.4349 L 554.77022,967.73991 C 396.78208,921.72706 222.78052,854.77026 222.78052,608.8836 222.78052,423.60952 389.20626,290 593.19943,290 874.76755,295.08423 983.09694,498.42739 984,664" id="path5848-2-90-2-3" inkscape:connector-curvature="0" sodipodi:nodetypes="ccccsccc"></path>
      <path class="ext" style="display: inline; fill: none; fill-rule: evenodd; stroke: rgb(1, 0, 0); stroke-width: 100; stroke-linecap: round; stroke-linejoin: bevel; stroke-miterlimit: 4; stroke-dasharray: none; stroke-opacity: 1;" d="m 171.40247,1320 c 0,180.9799 131.63824,410 422.11497,410 262.97581,0 453.94596,-90.5338 453.94596,-351.1561 0,-242.8783 -158.2016,-317.3261 -331.24908,-363.694 L 549.356,966.18733 C 363.72348,916.98536 190.77954,862.2952 183.66696,592.97678 183.66658,339.54449 423.1538,260.05481 528.0647,260.05481 l 115.75648,-0.10963 C 843.57715,259.756 1045.2809,422.67521 1046.5992,663.98347" id="path5848-2-9-9-9-6" inkscape:connector-curvature="0" sodipodi:nodetypes="cccccccsc"></path>
    </g>
  </g>
</svg>
