<?xml version="1.0" encoding="UTF-8" standalone="no"?>
<svg
   xmlns:dc="http://purl.org/dc/elements/1.1/"
   xmlns:cc="http://creativecommons.org/ns#"
   xmlns:rdf="http://www.w3.org/1999/02/22-rdf-syntax-ns#"
   xmlns:svg="http://www.w3.org/2000/svg"
   xmlns="http://www.w3.org/2000/svg"
   id="svg8"
   version="1.1"
   viewBox="0 0 111.81493 81.087845"
   height="81.087845mm"
   width="111.81493mm">
  <defs
     id="defs2" />
  <metadata
     id="metadata5">
    <rdf:RDF>
      <cc:Work
         rdf:about="">
        <dc:format>image/svg+xml</dc:format>
        <dc:type
           rdf:resource="http://purl.org/dc/dcmitype/StillImage" />
        <dc:title></dc:title>
      </cc:Work>
    </rdf:RDF>
  </metadata>
  <g
     transform="translate(-37.55527,98.219334)"
     id="layer1">
    <g
       transform="matrix(0.59697999,0,0,0.59697999,103.80373,54.789438)"
       id="g4544">
      <g
         id="g4657">
        <g
           id="g4635">
          <path
             id="ellipse4517"
             d="M -34.554688,-188.39062 C -34.554688,-197.77735 -36.870245,-206.28892 -40.6875,-212.5293 -44.504755,-218.76968 -49.914482,-222.80273 -56.013672,-222.80273 -62.112862,-222.80273 -67.522589,-218.76968 -71.339844,-212.5293 -75.157098,-206.28892 -77.470703,-197.77735 -77.470703,-188.39062 -77.470703,-179.0039 -75.157098,-170.49038 -71.339844,-164.25 -67.522589,-158.00962 -62.112862,-153.97656 -56.013672,-153.97656 -49.914482,-153.97656 -44.504755,-158.00962 -40.6875,-164.25 -36.870245,-170.49038 -34.554687,-179.0039 -34.554688,-188.39062 Z M -36.652344,-188.39062 C -36.652344,-179.35067 -38.907172,-171.18088 -42.476562,-165.3457 -46.045953,-159.51053 -50.841221,-156.07422 -56.013672,-156.07422 -61.186123,-156.07422 -65.979437,-159.51053 -69.548828,-165.3457 -73.118219,-171.18088 -75.373047,-179.35067 -75.373047,-188.39062 -75.373047,-197.43058 -73.118219,-205.60037 -69.548828,-211.43555 -65.979437,-217.27072 -61.186123,-220.70508 -56.013672,-220.70508 -50.841221,-220.70508 -46.045953,-217.27072 -42.476562,-211.43555 -38.907172,-205.60037 -36.652344,-197.43058 -36.652344,-188.39062 Z"
             style="color:#000000;font-style:normal;font-variant:normal;font-weight:normal;font-stretch:normal;font-size:medium;line-height:normal;font-family:sans-serif;font-variant-ligatures:normal;font-variant-position:normal;font-variant-caps:normal;font-variant-numeric:normal;font-variant-alternates:normal;font-feature-settings:normal;text-indent:0;text-align:start;text-decoration:none;text-decoration-line:none;text-decoration-style:solid;text-decoration-color:#000000;letter-spacing:normal;word-spacing:normal;text-transform:none;writing-mode:lr-tb;direction:ltr;text-orientation:mixed;dominant-baseline:auto;baseline-shift:baseline;text-anchor:start;white-space:normal;shape-padding:0;clip-rule:nonzero;display:inline;overflow:visible;visibility:visible;opacity:1;isolation:auto;mix-blend-mode:normal;color-interpolation:sRGB;color-interpolation-filters:linearRGB;solid-color:#000000;solid-opacity:1;vector-effect:none;fill:#010202;fill-opacity:1;fill-rule:nonzero;stroke:none;stroke-width:2.09787512;stroke-linecap:round;stroke-linejoin:round;stroke-miterlimit:4;stroke-dasharray:none;stroke-dashoffset:0;stroke-opacity:1;color-rendering:auto;image-rendering:auto;shape-rendering:auto;text-rendering:auto;enable-background:accumulate" />
          <g
             id="text4521"
             style="font-style:normal;font-weight:normal;font-size:1.44429278px;line-height:125%;font-family:sans-serif;letter-spacing:0px;word-spacing:0px;fill:#000000;fill-opacity:1;stroke:none;stroke-width:0.27080488px;stroke-linecap:butt;stroke-linejoin:miter;stroke-opacity:1"
             transform="rotate(90)"
             aria-label="S">
            <path
               id="path4596"
               style="font-style:normal;font-variant:normal;font-weight:normal;font-stretch:normal;font-size:25.99726868px;font-family:'Belgika 8th';-inkscape-font-specification:'Belgika 8th';letter-spacing:1.68932164px;stroke-width:0.27080488px"
               d="M -179.4205,61.303614 C -179.86245,61.485595 -180.12243,61.927549 -180.12243,62.369502 -180.12243,62.525486 -180.09643,62.655472 -180.04443,62.811456 -179.75846,63.487385 -179.34251,64.085322 -178.82256,64.605267 -177.80867,65.619161 -176.37882,66.243095 -174.81898,66.243095 -171.69931,66.243095 -169.20357,63.72136 -169.20357,60.601688 -169.20357,59.119844 -169.77551,57.430021 -171.28335,56.338136 L -176.37882,52.620527 C -176.89876,52.230568 -177.44471,51.190677 -177.44471,50.59274 -177.44471,49.214884 -176.30083,48.045007 -174.89697,48.045007 -174.19505,48.045007 -173.57111,48.330977 -173.07717,48.798928 -172.81719,49.058901 -172.66121,49.266879 -172.55722,49.578846 -172.37524,49.994802 -171.93329,50.254775 -171.49133,50.254775 -171.33535,50.254775 -171.20536,50.228778 -171.04938,50.176783 -170.63342,49.994802 -170.37345,49.552849 -170.37345,49.110895 -170.37345,48.980909 -170.39945,48.824925 -170.45144,48.668942 -170.68542,48.097002 -171.04938,47.603054 -171.51733,47.1611 -172.34924,46.329188 -173.57111,45.783245 -174.89697,45.783245 -177.57469,45.783245 -179.70647,47.967016 -179.70647,50.59274 -179.70647,52.074584 -178.87456,53.608423 -177.73068,54.466333 L -172.63521,58.157945 C -171.8293,58.755882 -171.46534,59.665786 -171.46534,60.601688 -171.46534,62.473491 -172.97318,63.981333 -174.81898,63.981333 -175.75488,63.981333 -176.61279,63.617371 -177.23673,62.993437 -177.5227,62.68147 -177.75667,62.343505 -177.93865,61.927549 -178.12064,61.485595 -178.53659,61.225623 -179.00454,61.225623 -179.13453,61.225623 -179.29051,61.25162 -179.4205,61.303614 Z" />
          </g>
          <g
             id="text4525"
             style="font-style:normal;font-weight:normal;font-size:1.44429278px;line-height:125%;font-family:sans-serif;letter-spacing:0px;word-spacing:0px;fill:#000000;fill-opacity:1;stroke:none;stroke-width:0.27080488px;stroke-linecap:butt;stroke-linejoin:miter;stroke-opacity:1"
             aria-label="U">
            <path
               id="path4593"
               style="font-style:normal;font-variant:normal;font-weight:normal;font-stretch:normal;font-size:25.99726868px;font-family:'Belgika 8th';-inkscape-font-specification:'Belgika 8th';letter-spacing:1.68932164px;stroke-width:0.27080488px"
               d="M -48.746928,-206.58351 C -49.370863,-206.58351 -49.864811,-206.06356 -49.864811,-205.43963 V -194.52078 C -49.864811,-191.14113 -52.620521,-188.38542 -56.026163,-188.38542 -59.405808,-188.38542 -62.161519,-191.14113 -62.161519,-194.52078 V -205.43963 C -62.161519,-206.06356 -62.681464,-206.58351 -63.305399,-206.58351 -63.929333,-206.58351 -64.423281,-206.06356 -64.423281,-205.43963 V -194.52078 C -64.423281,-189.86726 -60.679674,-186.12366 -56.026163,-186.12366 -51.372652,-186.12366 -47.603048,-189.86726 -47.603048,-194.52078 V -205.43963 C -47.603048,-206.06356 -48.122994,-206.58351 -48.746928,-206.58351 Z" />
          </g>
        </g>
        <g
           id="g4620">
          <path
             d="M -18.418547,-201.27665 Q -18.158534,-201.53667 -17.807518,-201.53667 -17.4435,-201.53667 -17.196488,-201.27665 -16.936476,-201.02964 -16.936476,-200.66563 V -195.46538 Q -16.936476,-194.29532 -17.521504,-193.29427 -18.093531,-192.29322 -19.094579,-191.7082 -20.095627,-191.13617 -21.278684,-191.13617 -22.44874,-191.13617 -23.449788,-191.7082 -24.450835,-192.29322 -25.035863,-193.29427 -25.607891,-194.29532 -25.607891,-195.46538 V -200.66563 Q -25.607891,-201.02964 -25.347878,-201.27665 -25.087866,-201.53667 -24.736849,-201.53667 -24.385832,-201.53667 -24.12582,-201.27665 -23.865807,-201.02964 -23.865807,-200.66563 V -195.46538 Q -23.865807,-194.38632 -23.111771,-193.61929 -22.344735,-192.86525 -21.265683,-192.86525 -20.186631,-192.86525 -19.432595,-193.61929 -18.665559,-194.38632 -18.665559,-195.46538 V -200.66563 Q -18.665559,-201.02964 -18.418547,-201.27665 Z"
             style="font-style:normal;font-variant:normal;font-weight:normal;font-stretch:normal;font-size:13.0006218px;line-height:131.3000083%;font-family:'Belgicka Molenbeek 5th';-inkscape-font-specification:'Belgicka Molenbeek 5th';letter-spacing:3.26197433px;word-spacing:0px;fill:#000000;fill-opacity:1;stroke:none;stroke-width:0.44320303px;stroke-linecap:butt;stroke-linejoin:miter;stroke-opacity:1"
             id="path4568" />
          <path
             d="M -4.8373292,-201.27665 Q -4.5773167,-201.53667 -4.2262999,-201.53667 -3.8622825,-201.53667 -3.6152707,-201.27665 -3.3552583,-201.02964 -3.3552583,-200.66563 V -192.00721 Q -3.3552583,-191.7992 -3.4462626,-191.61719 -3.5502676,-191.42218 -3.7192757,-191.29218 -3.8362813,-191.21417 -3.9662875,-191.17517 -4.0832931,-191.13617 -4.2262999,-191.13617 -4.4343099,-191.13617 -4.6293192,-191.24017 -4.8113279,-191.33118 -4.9283335,-191.50019 L -9.4265487,-197.92249 V -192.00721 Q -9.4265487,-191.64319 -9.6865611,-191.38318 -9.9335729,-191.13617 -10.29759,-191.13617 -10.648607,-191.13617 -10.90862,-191.38318 -11.155631,-191.64319 -11.155631,-192.00721 V -200.66563 Q -11.155631,-200.88664 -11.064627,-201.06864 -10.960622,-201.26365 -10.791614,-201.38066 -10.674608,-201.45866 -10.557603,-201.49767 -10.427597,-201.53667 -10.28459,-201.53667 -10.07658,-201.53667 -9.894571,-201.43266 -9.6995617,-201.34166 -9.5825561,-201.17265 L -5.084341,-194.75034 V -200.66563 Q -5.084341,-201.02964 -4.8373292,-201.27665 Z"
             style="font-style:normal;font-variant:normal;font-weight:normal;font-stretch:normal;font-size:13.0006218px;line-height:131.3000083%;font-family:'Belgicka Molenbeek 5th';-inkscape-font-specification:'Belgicka Molenbeek 5th';letter-spacing:3.26197433px;word-spacing:0px;fill:#000000;fill-opacity:1;stroke:none;stroke-width:0.44320303px;stroke-linecap:butt;stroke-linejoin:miter;stroke-opacity:1"
             id="path4570" />
          <path
             d="M 2.9955814,-201.27665 Q 3.2555938,-201.53667 3.6066106,-201.53667 3.970628,-201.53667 4.2176398,-201.27665 4.4776523,-201.02964 4.4776523,-200.66563 V -192.00721 Q 4.4776523,-191.64319 4.2176398,-191.38318 3.970628,-191.13617 3.6066106,-191.13617 3.2555938,-191.13617 2.9955814,-191.38318 2.7485696,-191.64319 2.7485696,-192.00721 V -200.66563 Q 2.7485696,-201.02964 2.9955814,-201.27665 Z"
             style="font-style:normal;font-variant:normal;font-weight:normal;font-stretch:normal;font-size:13.0006218px;line-height:131.3000083%;font-family:'Belgicka Molenbeek 5th';-inkscape-font-specification:'Belgicka Molenbeek 5th';letter-spacing:3.26197433px;word-spacing:0px;fill:#000000;fill-opacity:1;stroke:none;stroke-width:0.44320303px;stroke-linecap:butt;stroke-linejoin:miter;stroke-opacity:1"
             id="path4572" />
          <path
             d="M 9.5503725,-200.0546 Q 9.3033607,-200.31461 9.3033607,-200.66563 9.3033607,-201.02964 9.5503725,-201.27665 9.8103849,-201.53667 10.174402,-201.53667 H 13.632568 17.103734 Q 17.454751,-201.53667 17.714763,-201.27665 17.974775,-201.02964 17.974775,-200.66563 17.974775,-200.31461 17.714763,-200.0546 17.454751,-199.80758 17.103734,-199.80758 H 14.503609 V -192.00721 Q 14.503609,-191.64319 14.243597,-191.38318 13.996585,-191.13617 13.632568,-191.13617 13.281551,-191.13617 13.021538,-191.38318 12.774527,-191.64319 12.774527,-192.00721 V -199.80758 H 10.174402 Q 9.8103849,-199.80758 9.5503725,-200.0546 Z"
             style="font-style:normal;font-variant:normal;font-weight:normal;font-stretch:normal;font-size:13.0006218px;line-height:131.3000083%;font-family:'Belgicka Molenbeek 5th';-inkscape-font-specification:'Belgicka Molenbeek 5th';letter-spacing:3.26197433px;word-spacing:0px;fill:#000000;fill-opacity:1;stroke:none;stroke-width:0.44320303px;stroke-linecap:butt;stroke-linejoin:miter;stroke-opacity:1"
             id="path4574" />
          <path
             d="M 28.891271,-201.27665 Q 29.151284,-201.02964 29.151284,-200.66563 29.151284,-200.31461 28.891271,-200.0546 28.64426,-199.80758 28.280242,-199.80758 H 24.380056 V -197.20746 H 27.422201 Q 27.773218,-197.20746 28.02023,-196.94745 28.280242,-196.68743 28.280242,-196.33642 28.280242,-195.9854 28.02023,-195.72539 27.773218,-195.46538 27.422201,-195.46538 H 24.380056 V -192.86525 H 28.280242 Q 28.64426,-192.86525 28.891271,-192.60524 29.151284,-192.35823 29.151284,-191.99421 29.151284,-191.64319 28.891271,-191.38318 28.64426,-191.13617 28.280242,-191.13617 H 23.522015 Q 23.21,-191.13617 22.923986,-191.38318 22.650973,-191.63019 22.650973,-192.00721 V -196.33642 -200.66563 Q 22.650973,-200.97764 22.897985,-201.25065 23.144997,-201.53667 23.522015,-201.53667 H 28.280242 Q 28.64426,-201.53667 28.891271,-201.27665 Z"
             style="font-style:normal;font-variant:normal;font-weight:normal;font-stretch:normal;font-size:13.0006218px;line-height:131.3000083%;font-family:'Belgicka Molenbeek 5th';-inkscape-font-specification:'Belgicka Molenbeek 5th';letter-spacing:3.26197433px;word-spacing:0px;fill:#000000;fill-opacity:1;stroke:none;stroke-width:0.44320303px;stroke-linecap:butt;stroke-linejoin:miter;stroke-opacity:1"
             id="path4576" />
          <path
             d="M 36.32604,-192.86525 H 37.626102 Q 38.289134,-192.86525 38.926164,-193.12526 39.576195,-193.38528 40.070219,-193.8793 41.084267,-194.89335 41.084267,-196.33642 41.071267,-197.77949 40.070219,-198.79354 39.05617,-199.80758 37.626102,-199.80758 H 36.32604 Z M 34.596957,-192.00721 V -200.66563 Q 34.596957,-201.04264 34.86997,-201.28966 35.155984,-201.53667 35.467999,-201.53667 H 37.626102 Q 38.64015,-201.53667 39.589196,-201.14665 40.551242,-200.75663 41.292277,-200.00259 42.046313,-199.26156 42.436332,-198.29951 42.826351,-197.35047 42.826351,-196.33642 42.826351,-195.32237 42.436332,-194.36032 42.046313,-193.41128 41.292277,-192.65724 40.551242,-191.91621 39.589196,-191.52619 38.62715,-191.13617 37.626102,-191.13617 H 35.467999 Q 35.090981,-191.13617 34.843969,-191.40918 34.596957,-191.6952 34.596957,-192.00721 Z"
             style="font-style:normal;font-variant:normal;font-weight:normal;font-stretch:normal;font-size:13.0006218px;line-height:131.3000083%;font-family:'Belgicka Molenbeek 5th';-inkscape-font-specification:'Belgicka Molenbeek 5th';letter-spacing:3.26197433px;word-spacing:0px;fill:#000000;fill-opacity:1;stroke:none;stroke-width:0.44320303px;stroke-linecap:butt;stroke-linejoin:miter;stroke-opacity:1"
             id="path4578" />
        </g>
        <g
           id="g4628">
          <path
             d="M -25.282875,-177.0435 Q -25.126868,-177.1085 -24.95786,-177.1085 -24.697847,-177.1085 -24.476837,-176.96549 -24.255826,-176.82249 -24.151821,-176.57547 -24.060817,-176.34146 -23.891809,-176.17245 -23.514791,-175.79544 -22.968765,-175.79544 -22.44874,-175.79544 -22.084722,-176.17245 -21.707704,-176.54947 -21.707704,-177.0825 -21.707704,-177.68053 -22.110724,-177.97954 L -24.54184,-179.74763 Q -25.035863,-180.11164 -25.334878,-180.67067 -25.620891,-181.2427 -25.620891,-181.84073 -25.620891,-182.93278 -24.853855,-183.69981 -24.086818,-184.46685 -23.007766,-184.46685 -21.928715,-184.46685 -21.161678,-183.71281 -20.797661,-183.3618 -20.589651,-182.89378 -20.524648,-182.72477 -20.524648,-182.55576 -20.524648,-182.29575 -20.667654,-182.07474 -20.810661,-181.85373 -21.044673,-181.74972 -21.213681,-181.68472 -21.382689,-181.68472 -21.642701,-181.68472 -21.863712,-181.82772 -22.084722,-181.97073 -22.188727,-182.20474 -22.24073,-182.34775 -22.370736,-182.46476 -22.630748,-182.73777 -23.007766,-182.73777 -23.371784,-182.73777 -23.631796,-182.47776 -23.891809,-182.21774 -23.891809,-181.84073 -23.891809,-181.72372 -23.761802,-181.47671 -23.631796,-181.2297 -23.527791,-181.15169 L -21.096675,-179.38361 Q -20.511647,-178.96759 -20.238634,-178.34356 -19.965621,-177.73253 -19.965621,-177.0825 -19.965621,-175.83444 -20.849663,-174.9504 -21.720705,-174.06635 -22.968765,-174.06635 -24.229825,-174.06635 -25.113867,-174.9504 -25.529887,-175.36642 -25.750898,-175.91244 -25.815901,-176.06845 -25.815901,-176.23746 -25.815901,-176.49747 -25.672894,-176.71848 -25.529887,-176.93949 -25.282875,-177.0435 Z"
             style="font-style:normal;font-variant:normal;font-weight:normal;font-stretch:normal;font-size:13.0006218px;line-height:131.3000083%;font-family:'Belgicka Molenbeek 5th';-inkscape-font-specification:'Belgicka Molenbeek 5th';letter-spacing:3.26197433px;word-spacing:0px;fill:#000000;fill-opacity:1;stroke:none;stroke-width:0.44320303px;stroke-linecap:butt;stroke-linejoin:miter;stroke-opacity:1"
             id="path4580" />
          <path
             d="M -15.458837,-182.98478 Q -15.705849,-183.24479 -15.705849,-183.59581 -15.705849,-183.95983 -15.458837,-184.20684 -15.198825,-184.46685 -14.834807,-184.46685 H -11.376642 -7.9054759 Q -7.5544591,-184.46685 -7.2944467,-184.20684 -7.0344342,-183.95983 -7.0344342,-183.59581 -7.0344342,-183.24479 -7.2944467,-182.98478 -7.5544591,-182.73777 -7.9054759,-182.73777 H -10.5056 V -174.9374 Q -10.5056,-174.57338 -10.765613,-174.31337 -11.012625,-174.06635 -11.376642,-174.06635 -11.727659,-174.06635 -11.987671,-174.31337 -12.234683,-174.57338 -12.234683,-174.9374 V -182.73777 H -14.834807 Q -15.198825,-182.73777 -15.458837,-182.98478 Z"
             style="font-style:normal;font-variant:normal;font-weight:normal;font-stretch:normal;font-size:13.0006218px;line-height:131.3000083%;font-family:'Belgicka Molenbeek 5th';-inkscape-font-specification:'Belgicka Molenbeek 5th';letter-spacing:3.26197433px;word-spacing:0px;fill:#000000;fill-opacity:1;stroke:none;stroke-width:0.44320303px;stroke-linecap:butt;stroke-linejoin:miter;stroke-opacity:1"
             id="path4582" />
          <path
             d="M -0.10912807,-178.74658 H 1.4249453 Q 0.95692291,-180.07264 0.65790861,-180.95668 Z M 1.4639472,-183.89482 Q 1.8799671,-182.71177 4.493092,-175.22341 4.5450945,-175.0804 4.5450945,-174.9374 4.5450945,-174.66438 4.3760864,-174.43037 4.220079,-174.20936 3.9600665,-174.11836 3.8300603,-174.06635 3.6870535,-174.06635 3.4140404,-174.06635 3.1800292,-174.22236 2.946018,-174.37837 2.8550137,-174.65138 2.6340031,-175.30141 2.0359745,-177.01749 H -0.7201573 L -1.5391965,-174.65138 Q -1.6302008,-174.39137 -1.864212,-174.22236 -2.0852226,-174.06635 -2.3582356,-174.06635 -2.5012425,-174.06635 -2.6442493,-174.11836 -2.9042618,-174.20936 -3.0732698,-174.43037 -3.2292773,-174.66438 -3.2292773,-174.9374 -3.2292773,-175.0804 -3.1772748,-175.22341 L -0.16113056,-183.88182 Q -0.07012621,-184.14184 0.15088436,-184.29784 0.38489555,-184.46685 0.65790861,-184.46685 0.93092167,-184.46685 1.1519322,-184.31084 1.3859434,-184.15484 1.4639472,-183.89482 Z"
             style="font-style:normal;font-variant:normal;font-weight:normal;font-stretch:normal;font-size:13.0006218px;line-height:131.3000083%;font-family:'Belgicka Molenbeek 5th';-inkscape-font-specification:'Belgicka Molenbeek 5th';letter-spacing:3.26197433px;word-spacing:0px;fill:#000000;fill-opacity:1;stroke:none;stroke-width:0.44320303px;stroke-linecap:butt;stroke-linejoin:miter;stroke-opacity:1"
             id="path4584" />
          <path
             d="M 14.487155,-178.38256 Q 14.240143,-178.64257 14.240143,-178.99359 14.240143,-179.34461 14.487155,-179.60462 14.747167,-179.86463 15.098184,-179.86463 H 17.503299 Q 17.867316,-179.86463 18.114328,-179.57862 18.36134,-179.3056 18.36134,-178.99359 V -176.19846 Q 18.36134,-175.84744 18.114328,-175.58743 17.360292,-174.84639 16.398246,-174.45637 15.449201,-174.06635 14.435152,-174.06635 13.421104,-174.06635 12.459058,-174.45637 11.497012,-174.84639 10.742976,-175.58743 10.00194,-176.32846 9.6119214,-177.29051 9.2349034,-178.25255 9.2349034,-179.2666 9.2349034,-180.28065 9.6119214,-181.2427 10.00194,-182.20474 10.742976,-182.94578 11.497012,-183.68681 12.446057,-184.07683 13.408103,-184.46685 14.422152,-184.46685 15.4362,-184.46685 16.385245,-184.07683 17.347291,-183.69981 18.101327,-182.95878 18.348339,-182.71177 18.348339,-182.34775 18.348339,-181.98373 18.101327,-181.72372 17.854316,-181.47671 17.490298,-181.47671 17.126281,-181.47671 16.879269,-181.72372 15.865221,-182.73777 14.422152,-182.73777 12.992083,-182.73777 11.978035,-181.72372 10.963986,-180.70967 10.963986,-179.2666 10.963986,-177.82353 11.978035,-176.80948 12.992083,-175.79544 14.435152,-175.79544 15.670211,-175.79544 16.632257,-176.58847 V -178.12255 H 15.098184 Q 14.747167,-178.12255 14.487155,-178.38256 Z"
             style="font-style:normal;font-variant:normal;font-weight:normal;font-stretch:normal;font-size:13.0006218px;line-height:131.3000083%;font-family:'Belgicka Molenbeek 5th';-inkscape-font-specification:'Belgicka Molenbeek 5th';letter-spacing:3.26197433px;word-spacing:0px;fill:#000000;fill-opacity:1;stroke:none;stroke-width:0.44320303px;stroke-linecap:butt;stroke-linejoin:miter;stroke-opacity:1"
             id="path4586" />
          <path
             d="M 30.363996,-184.20684 Q 30.624009,-183.95983 30.624009,-183.59581 30.624009,-183.24479 30.363996,-182.98478 30.116985,-182.73777 29.752967,-182.73777 H 25.852781 V -180.13764 H 28.894926 Q 29.245943,-180.13764 29.492955,-179.87763 29.752967,-179.61762 29.752967,-179.2666 29.752967,-178.91559 29.492955,-178.65557 29.245943,-178.39556 28.894926,-178.39556 H 25.852781 V -175.79544 H 29.752967 Q 30.116985,-175.79544 30.363996,-175.53542 30.624009,-175.28841 30.624009,-174.92439 30.624009,-174.57338 30.363996,-174.31337 30.116985,-174.06635 29.752967,-174.06635 H 24.99474 Q 24.682725,-174.06635 24.396711,-174.31337 24.123698,-174.56038 24.123698,-174.9374 V -179.2666 -183.59581 Q 24.123698,-183.90782 24.37071,-184.18084 24.617722,-184.46685 24.99474,-184.46685 H 29.752967 Q 30.116985,-184.46685 30.363996,-184.20684 Z"
             style="font-style:normal;font-variant:normal;font-weight:normal;font-stretch:normal;font-size:13.0006218px;line-height:131.3000083%;font-family:'Belgicka Molenbeek 5th';-inkscape-font-specification:'Belgicka Molenbeek 5th';letter-spacing:3.26197433px;word-spacing:0px;fill:#000000;fill-opacity:1;stroke:none;stroke-width:0.44320303px;stroke-linecap:butt;stroke-linejoin:miter;stroke-opacity:1"
             id="path4588" />
          <path
             d="M 36.173687,-177.0435 Q 36.329694,-177.1085 36.498702,-177.1085 36.758715,-177.1085 36.979725,-176.96549 37.200736,-176.82249 37.304741,-176.57547 37.395745,-176.34146 37.564753,-176.17245 37.941771,-175.79544 38.487797,-175.79544 39.007822,-175.79544 39.37184,-176.17245 39.748858,-176.54947 39.748858,-177.0825 39.748858,-177.68053 39.345839,-177.97954 L 36.914722,-179.74763 Q 36.420699,-180.11164 36.121684,-180.67067 35.835671,-181.2427 35.835671,-181.84073 35.835671,-182.93278 36.602707,-183.69981 37.369744,-184.46685 38.448796,-184.46685 39.527847,-184.46685 40.294884,-183.71281 40.658901,-183.3618 40.866911,-182.89378 40.931914,-182.72477 40.931914,-182.55576 40.931914,-182.29575 40.788908,-182.07474 40.645901,-181.85373 40.41189,-181.74972 40.242881,-181.68472 40.073873,-181.68472 39.813861,-181.68472 39.59285,-181.82772 39.37184,-181.97073 39.267835,-182.20474 39.215832,-182.34775 39.085826,-182.46476 38.825814,-182.73777 38.448796,-182.73777 38.084778,-182.73777 37.824766,-182.47776 37.564753,-182.21774 37.564753,-181.84073 37.564753,-181.72372 37.69476,-181.47671 37.824766,-181.2297 37.928771,-181.15169 L 40.359887,-179.38361 Q 40.944915,-178.96759 41.217928,-178.34356 41.490941,-177.73253 41.490941,-177.0825 41.490941,-175.83444 40.606899,-174.9504 39.735857,-174.06635 38.487797,-174.06635 37.226737,-174.06635 36.342695,-174.9504 35.926675,-175.36642 35.705664,-175.91244 35.640661,-176.06845 35.640661,-176.23746 35.640661,-176.49747 35.783668,-176.71848 35.926675,-176.93949 36.173687,-177.0435 Z"
             style="font-style:normal;font-variant:normal;font-weight:normal;font-stretch:normal;font-size:13.0006218px;line-height:131.3000083%;font-family:'Belgicka Molenbeek 5th';-inkscape-font-specification:'Belgicka Molenbeek 5th';letter-spacing:3.26197433px;word-spacing:0px;fill:#000000;fill-opacity:1;stroke:none;stroke-width:0.44320303px;stroke-linecap:butt;stroke-linejoin:miter;stroke-opacity:1"
             id="path4590" />
        </g>
      </g>
    </g>
  </g>
</svg>
