<?xml version="1.0" encoding="UTF-8" standalone="no"?>
<svg
   xmlns:dc="http://purl.org/dc/elements/1.1/"
   xmlns:cc="http://creativecommons.org/ns#"
   xmlns:rdf="http://www.w3.org/1999/02/22-rdf-syntax-ns#"
   xmlns:svg="http://www.w3.org/2000/svg"
   xmlns="http://www.w3.org/2000/svg"
   id="svg2931"
   version="1.1"
   viewBox="0 0 26.407255 45.233299"
   height="45.233299mm"
   width="26.407255mm">
  <defs
     id="defs2925" />
  <metadata
     id="metadata2928">
    <rdf:RDF>
      <cc:Work
         rdf:about="">
        <dc:format>image/svg+xml</dc:format>
        <dc:type
           rdf:resource="http://purl.org/dc/dcmitype/StillImage" />
        <dc:title></dc:title>
      </cc:Work>
    </rdf:RDF>
  </metadata>
  <g
     transform="translate(44.953628,16.658317)"
     id="layer1">
    <path
       id="path9692"
       d="m -44.952781,28.417539 h 0.136877 19.267875 0.136313 v -0.132474 -1.983459 -0.1327 h -0.136313 -0.4318 c 0.377895,-0.72472 0.568678,-1.532355 0.568678,-2.412944 0,-1.451073 -0.561905,-2.57048 -1.667369,-3.301802 -1.105465,-0.73135 -2.736991,-1.086246 -4.892886,-1.086246 h -1.038578 c -2.595316,0 -4.352713,0.368273 -5.284611,1.167497 -0.899725,0.771115 -1.369342,1.596983 -1.369342,2.464364 v 1.134308 c 0,0.616911 0.305929,1.291815 0.888717,2.034823 h -6.040684 -0.137724 v 0.1327 1.983459 z m 0,-23.3829842 h 0.136877 17.095611 c 0.748171,0 1.334628,-0.198967 1.728328,-0.608584 0.3937,-0.411565 0.580814,-1.018286 0.580814,-1.796034 v -0.84915 -0.132701 h -0.137443 -1.795497 -0.136031 v 0.132701 0.84915 c 0,0.06646 -0.01411,0.08263 -0.03895,0.09971 -0.02822,0.01355 -0.09313,0.05009 -0.200942,0.05009 h -17.09589 -0.136877 v 0.132475 1.983458 z m 5.289408,7.6350982 c 0,1.288571 0.426438,2.313432 1.276491,3.03149 0.840458,0.711454 1.849967,1.102839 3.009053,1.16586 h 0.144498 v -0.14955 -1.983373 -0.115879 l -0.115711,-0.01355 c -0.803204,-0.115882 -1.374704,-0.354782 -1.722402,-0.673327 -0.344029,-0.314817 -0.522958,-0.789348 -0.522958,-1.457622 0,-0.671716 0.152965,-1.190752 0.4445,-1.570508 0.28194,-0.366326 0.765104,-0.558914 1.49606,-0.558914 h 0.914682 c 0.169051,2.122792 0.67056,3.739613 1.528234,4.835792 0.874606,1.117799 2.121746,1.679985 3.696828,1.679985 1.342813,0 2.37236,-0.30336 3.067756,-0.931981 0.694548,-0.628595 1.036037,-1.570511 1.036037,-2.792759 0,-1.011598 -0.30734,-1.945246 -0.90678,-2.791037 h 0.770185 0.136313 V 10.211809 8.2283498 8.0958188 H -25.5469 -35.653842 c -1.410264,0 -2.452229,0.387971 -3.082431,1.184091 -0.611858,0.7727812 -0.926535,1.5605752 -0.926535,2.3515312 z m 0,-16.1110212 c 0,0.917053 0.364631,1.757849 1.07696,2.50249203 0.716844,0.749554 1.642533,1.129312 2.743764,1.129312 1.476023,0 2.569916,-0.457679 3.228623,-1.37972803 0.635564,-0.890523 1.023337,-1.756212 1.155135,-2.597036 0,0 0,0 0,0 l 0.18796,-0.751276 v 0 0 c 0.05927,-0.482544 0.222391,-0.842433 0.480342,-1.101118 0.274602,-0.275477 0.52832,-0.450963 0.753533,-0.53563 0.227189,-0.08263 0.559647,-0.132701 0.9906,-0.132701 0.541303,0 0.920045,0.149324 1.172916,0.427877 0.246944,0.273474 0.390595,0.774446 0.390595,1.512429 0,0.668303 -0.179211,1.179125 -0.53086,1.560548 -0.343746,0.373041 -0.972819,0.636778 -1.900484,0.759516 l -0.119098,0.01355 v 0.115881 1.98342903 0.148929 h 0.149296 c 1.53416,-0.132532 2.676877,-0.611943 3.399084,-1.46600403 0.714022,-0.842461 1.071316,-1.887191 1.071316,-3.111076 0,-1.218918 -0.306776,-2.213892 -0.928511,-2.9668048 -0.625405,-0.7579358 -1.541216,-1.1360007 -2.703407,-1.1360007 -0.834531,0 -1.548835,0.1488723 -2.139244,0.4393917 -0.587587,0.2937086 -1.06426,0.72136 -1.422965,1.2752776 -0.357293,0.5522242 -0.629355,1.2437812 -0.820702,2.0713132 v 0 l -0.189089,0.752941 v 0 0 c -0.121355,0.608584 -0.362091,1.084552 -0.718255,1.441055 -0.34798,0.348516 -0.841023,0.525751 -1.509042,0.525751 -0.53848,0 -0.933027,-0.149606 -1.220329,-0.4745 -0.281376,-0.308638 -0.43688,-0.822565 -0.43688,-1.560547 0,-0.59865 0.190782,-1.094543 0.577709,-1.512429 0.380717,-0.409561 0.955886,-0.650043 1.751753,-0.711426 h 0.125871 v -0.132732 -1.9850665 -0.1488723 h -0.14224 c -1.409982,0.066435 -2.520527,0.500888 -3.303693,1.3167923 -0.774982,0.8059705 -1.172069,1.7114525 -1.172069,2.6931905 v 1.038154 z m 0,-11.7396258 c 0,1.290236 0.426438,2.313376 1.276491,3.033155 0.840458,0.711426 1.849967,1.101147 3.009053,1.16586 h 0.144498 v -0.1489 -1.983402 -0.11588 l -0.115711,-0.01355 c -0.803204,-0.116332 -1.374704,-0.354781 -1.722402,-0.673297 -0.344029,-0.315355 -0.522958,-0.78946 -0.522958,-1.457734 0,-0.51579 0.08947,-0.941945 0.264725,-1.283575 h -2.301805 c -0.02258,0.149549 -0.03528,0.290294 -0.03528,0.434566 z m 2.162951,38.739542 c 0,-0.70976 0.341207,-1.215588 1.080347,-1.577144 0.738857,-0.361497 1.8796,-0.55228 3.41122,-0.55228 h 0.944597 c 1.5621,0 2.724574,0.205938 3.478671,0.598736 0.753534,0.3913 1.106594,0.945245 1.106594,1.719691 0,0.893855 -0.289843,1.691529 -0.874889,2.412915 h -8.081716 c -0.714586,-0.910391 -1.064824,-1.776079 -1.064824,-2.601918 z m 2.849598,-40.212149 c 0.225213,1.71148 0.699911,3.044754 1.439898,3.990001 0.874606,1.117741 2.121746,1.681621 3.696828,1.681621 1.342813,0 2.37236,-0.305336 3.067191,-0.933647 0.695113,-0.628537 1.03632,-1.572204 1.03632,-2.792702 0,-0.684925 -0.140547,-1.334996 -0.417971,-1.945273 h -2.255802 c 0.4064,0.62357 0.605367,1.179096 0.605367,1.661696 0,0.636806 -0.17018,1.086217 -0.498687,1.38636 -0.327378,0.300003 -0.831144,0.459571 -1.53162,0.459571 0,0 0,0 0,0 -0.874607,-0.03356 -1.547707,-0.402816 -2.06248,-1.144298 -0.392853,-0.565432 -0.6858,-1.354836 -0.871502,-2.363131 h -2.205567 z M -32.57,10.351255 h 3.841044 c 0.842151,0.975161 1.249963,1.815931 1.249963,2.507488 0,0.63514 -0.17018,1.086215 -0.498969,1.386358 -0.32766,0.298509 -0.831427,0.459571 -1.53162,0.459571 0,0 0,0 0,0 -0.874607,-0.03355 -1.547989,-0.402786 -2.062762,-1.144241 -0.496711,-0.716449 -0.833967,-1.789401 -0.996809,-3.20898 z m 4.349891,16.359799 h 0.09116 c 0.03895,0.09993 0.134338,0.149804 0.254564,0.165946 h 0.07931 c 0.122766,0 0.221262,-0.06646 0.259644,-0.165946 h 0.09116 c -0.05814,0.165946 -0.210538,0.247142 -0.387773,0.247142 -0.176672,0 -0.329918,-0.08269 -0.388056,-0.247142 z m 0.06971,-0.132729 h 0.08467 c 0.03189,0.09974 0.124742,0.165722 0.231422,0.165722 h 0.0285 v 0.08221 h -0.0285 c -0.150707,0 -0.280811,-0.09968 -0.316654,-0.243728 z m 0.174413,0.688256 v -0.08331 c 0,-0.03356 0.01411,-0.06649 0.03895,-0.09974 0.0254,-0.03356 0.06632,-0.05007 0.12446,-0.05007 v 0 0 c 0.05616,0 0.09821,0.01355 0.122202,0.05007 0.0254,0.03356 0.03895,0.06649 0.03895,0.09974 v 0.08331 h -0.03556 v -0.08331 c 0,-0.01355 -0.01411,-0.04942 -0.02822,-0.06649 -0.02258,-0.01355 -0.04995,-0.05006 -0.09821,-0.05006 v 0 c -0.04713,0 -0.07761,0.01355 -0.09765,0.05006 -0.02258,0.01355 -0.0285,0.0501 -0.0285,0.06649 v 0.08331 h -0.03161 z m 0.02258,0.353343 c 0,0 0,0 0,0 0,0 0,0 0,0 h 0.03528 c 0.01411,0 0.03528,0 0.03528,0 h 0.01976 0.02258 0.03528 0.04318 c 0,0 0.01411,0 0.01976,0 0,0 0.01411,0 0.01411,0 0,0 0,0 0.01411,0 0,0 0.01411,0 0.01411,0 0,0 0,0 0,0 0,0 0,0 0,0 0,0 0,0 0.01411,0 0,0 0.01411,0 0.01411,0 0,0 0,0 0,0 0,0 0,0 0,0 0,0 0,0 0,0 0,0 0,0 0,0 0,0 0,0 0,0 0,0 0,0 0,0 0,0 0,0 0,0 0,0 0,0 0,0 0,0 0,0 0,0 0,0 0,0 0,0 0,0 0,0 0,0 0,0 0,0 0,0 0,0 0,0 0,-0.01355 0,0 0,-0.01355 0,-0.01355 0,0 0,0 0,0 0,0 0,0 0,0 0,0 0,0 0,0 v 0 c 0,0 0,0 0,0 0,0 0,0 0,0 0,0 0,0 0,-0.01355 0,0 0,-0.01326 0,-0.01326 0,0 0,0 0,0 0,0 0,0 0,-0.01355 0,0 0,0 0,0 v 0 c 0,0 0,-0.03355 0,-0.05006 v -0.04964 0 c 0,0 0,0 0,-0.03356 v -0.01355 0 0 0 0 -0.03355 c 0,0 0,-0.03356 0,-0.03356 0,0 0,0 0,0 0,0 0,0 0,0 0,0 0,0 0,0 0,0 0,0 0,0 0,0 0,0 0,0 0,0 0,0 0,0 0,0 0,0 0,0 0,0 0,0 0,0 0,0 0,0 0,0 0,0 0,0 0,0 0,0 0,0 0,0 0,0 0,0 0,0 0,0 0,0 -0.01411,0 0,0 -0.01411,0 -0.01411,0 0,0 -0.01411,0 -0.01411,0 0,0 0,0 0,0 0,0 0,0 -0.01411,0 0,0 -0.01411,0 -0.02258,0 0,0 -0.01411,0 -0.01411,0 0,0 -0.02822,0 -0.05757,0 -0.03528,0 -0.05644,0 -0.05785,0 v 0 c 0,0 -0.01411,0 -0.03556,0 -0.02258,0 -0.03528,0 -0.03528,0 0,0 0,0 0,0 0,0 0,0 0,0 0,0 0,0 0.01976,0 0,0 0.01411,0 0.02258,0 0,0 0.03867,0 0.07733,0 0.06322,0 0.07648,0 0.08269,0 0,0 0.01411,0 0.01411,0 0,0 0,0 0,0 0,0 0,0 0.01411,0 0,0 0,0 0,0 0,0 0,0 0.01411,0 0,0 0.01411,0 0.01411,0 0,0 0,0 0,0 0,0 0,0 0,0 0,0 0,0 0,0 0,0 0,0 0,0 0,0 0,0 0,0 0,0 0,0 0,0 0,0 0,0 0,0 0,0 0,0 0,0 0,0 0,0 0,0 0,0 0,0 0,0 0,0 0,0 0,0 0,0 0,0 0,0 0,0 0,0.01355 0,0.01355 v 0.01326 0.03359 c 0,0 0,0.01355 0,0.01355 0,0 0,0 0,0 0,0 0,0.01355 0,0.03355 v 0.01355 0.03356 0.03358 0.0501 c 0,0.01355 0,0.03355 0,0.03355 0,0 0,0 0,0 0,0 0,0 0,0 0,0 0,0 0,0 0,0 0,0 0,0 0,0 0,0 0,0 0,0 0,0 0,0 0,0 0,0 0,0 0,0 0,0 0,0 v 0 c 0,0 0,0 0,0 0,0 0,0 0,0 0,0 0,0 0,0 0,0 0,0 0,0 0,0 0,0 0,0.01355 0,0 0,0 0,0 0,0 0,0 0,0 0,0 0,0 0,0 0,0 0,0 0,0 0,0 0,0 0,0 0,0 0,0 0,0 0,0 0,0 0,0 0,0 0,0 0,0 0,0 0,0 -0.01411,0 0,0 -0.01411,0 -0.01411,0 0,0 0,0 -0.01411,0 0,0 0,0 -0.01411,0 0,0 0,0 0,0 0,0 -0.01411,0 -0.01411,0 0,0 -0.01411,0 -0.02258,0 0,0 -0.01411,0 -0.01411,0 0,0 -0.01411,0 -0.03528,0 -0.01411,0 -0.03161,0 -0.03895,0 0,0 -0.01411,0 -0.01411,0 0,0 0,0 0,0 0,0 0,0 0,0 0,0 0,0 -0.01411,0 0,0 -0.01411,0 -0.01411,0 0,0 0,0 -0.01411,0 0,0 -0.01411,0 -0.01411,0 0,0 -0.01411,0 -0.03895,0 -0.03528,0 -0.03528,0 -0.03866,0 0,0 0,0 0,0 z m 0.05786,-0.321649 v -0.148929 h 0.03528 v 0.148929 z m 0.05955,0.605338 c 0,-0.03356 0.01411,-0.04964 0.0285,-0.08263 h 0.08156 0.248074 c 0,0 0.03866,0 0.07338,0 0.01411,0 0.02822,0 0.03895,-0.01355 0,0 0.01411,0 0.02258,0 v 0 c 0,0 0.01411,0 0.01411,0 0,0 0.01411,0 0.02258,-0.01355 0.01976,-0.01355 0.03528,-0.05009 0.03895,-0.08264 h 0.07761 c -0.02822,0.132503 -0.148731,0.238874 -0.296051,0.238874 h -0.344593 z m 0.01411,-0.605338 v -0.148929 h 0.03189 v 0.148929 z m 0.05532,-0.480965 c 0.02822,-0.132474 0.144216,-0.235542 0.302825,-0.235542 h 0.463408 v 0.08266 h -0.463408 c -0.06999,0 -0.142805,0.01355 -0.18034,0.06646 -0.03528,0.05007 -0.04318,0.08244 -0.04318,0.08244 z m 0.01411,0.469223 v -0.132728 h 0.03161 v 0.148928 z m 0,0.132731 v -0.09974 l 0.103011,0.08289 v 0.09971 z m 0.17526,-0.996725 0.0429,-0.01326 0.257387,0.116332 v 0.03355 z m 0,1.02489 v -0.149747 h 0.03528 v 0.149747 z m 0,-0.179184 v -0.08218 h 0.0793 v 0.08218 z m 0,-0.132728 v -0.09971 h 0.08128 v 0.09971 z m 0.01411,-0.132702 c 0.04318,-0.148929 0.184855,-0.272119 0.349108,-0.28843 l 0.03867,0.08241 h -0.03867 c -0.08636,0 -0.168204,0.05006 -0.218157,0.116303 -0.02822,0.03356 -0.04346,0.08269 -0.04346,0.08269 z m 0.01411,0.560522 v -0.08263 h 0.176953 v 0.08263 z m 0.05249,-0.115879 0.342336,-0.165524 v 0.03358 l -0.29972,0.132728 z m 0.03895,-0.132731 V 27.07244 h 0.114582 c 0.150707,0 0.280811,0.09974 0.316089,0.245647 h -0.08467 c -0.03189,-0.09971 -0.125871,-0.165722 -0.231422,-0.165722 h -0.03528 v 0.165722 z m 0,0.349985 c 0.06181,-0.08289 0.144215,-0.132532 0.347697,-0.132532 h 0.4191 v 0.08269 h -0.336691 -0.08043 c -0.139136,0 -0.200096,0 -0.23876,0.05004 z m 0.02258,-0.651737 c 0.05024,-0.09971 0.147602,-0.165523 0.276295,-0.165523 h 0.127564 v 0.149127 c -0.03528,0 -0.07338,0 -0.07338,0 v -0.08264 h -0.05532 c -0.110349,0 -0.168769,0.03358 -0.193886,0.08264 z m 0.0714,-0.595347 h 0.110631 c 0.03895,0.03358 0.09991,0.05007 0.239606,0.05007 h 0.07987 0.337256 v 0.08289 h -0.418536 c -0.202917,0 -0.286173,-0.0501 -0.347697,-0.132731 z m 0,-0.11588 h 0.110631 c 0.03895,0.03358 0.09991,0.05006 0.239606,0.05006 h 0.07987 0.337256 v 0.08264 h -0.418536 c -0.202917,0 -0.286173,-0.04959 -0.347697,-0.1327 z m 0,-0.18415 h 0.09285 c 0,0 0.01411,0.03355 0.04318,0.06649 0.04346,0.03356 0.108091,0.05004 0.167075,0.05004 h 0.463691 v 0.08269 h -0.463691 c -0.158891,0 -0.251742,-0.09974 -0.301977,-0.195834 z m 0.01411,1.200629 v -0.09971 h 0.08156 v 0.09971 z m 0.02258,0.197837 c 0.04741,-0.09968 0.14732,-0.165719 0.275167,-0.165719 h 0.128128 v 0.148871 c -0.03556,0 -0.07309,0 -0.07309,0 v -0.08264 h -0.05503 c -0.110914,0 -0.168769,0.03356 -0.193887,0.08264 z m 0.07789,-0.477829 v -0.08241 l 0.04995,0.03356 0.05278,0.03356 v 0.08264 z m 0.02822,-1.079556 h 0.08156 v 0 c 0,0.03355 0.01976,0.06643 0.03528,0.08263 0.03895,0.05009 0.107809,0.08289 0.186549,0.08289 h 0.328225 v 0.08238 h -0.328225 c -0.158891,0 -0.275166,-0.09971 -0.303106,-0.238903 z m 0,1.852393 c 0.06152,-0.06643 0.144216,-0.132702 0.347698,-0.132702 h 0.418254 v 0.08331 h -0.336974 -0.07959 c -0.139136,0 -0.200378,0 -0.239325,0.04987 z m 0,0.184179 c 0.05024,-0.09974 0.142805,-0.197839 0.30226,-0.197839 h 0.463692 v 0.08263 h -0.463704 c -0.05955,0 -0.124177,0.01355 -0.167075,0.05007 -0.02822,0.01326 -0.03528,0.05009 -0.04346,0.06649 z m 0.08975,-0.875623 v 0 l 0.102729,-0.08263 v 0.08263 l -0.05249,0.03358 z m 0.0254,-0.301836 V 26.70191 h 0.07818 v 0.115882 z m 0.01411,1.452737 c 0.02822,-0.132728 0.149296,-0.2389 0.296051,-0.2389 h 0.344029 c 0,0.03358 -0.01411,0.05007 -0.02822,0.08218 h -0.08156 -0.24892 c 0,0 -0.03866,0 -0.07338,0 -0.01411,0 -0.02822,0 -0.03895,0.01355 0,0 -0.01411,0 -0.02258,0 0,0 0,0 0,0 0,0 -0.01411,0 -0.01411,0 0,0 -0.01411,0 -0.02258,0.01355 -0.02258,0.01355 -0.03528,0.04961 -0.03866,0.08241 h -0.07761 z m 0.01411,-0.202353 c 0.04967,-0.09948 0.14732,-0.149352 0.273474,-0.149352 h 0.354189 v 0.08263 h -0.354189 c -0.06971,0 -0.147885,0.01355 -0.185703,0.06649 z m 0.0762,-1.112774 v 0 c 0,0 0,-0.01355 0,-0.01355 0,0 0,0 0,-0.01355 0,0 0,-0.01355 0,-0.01355 0,0 0,0 0,0 0,0 0,0 0,0 0,0 0,0 0,0 0,0 0,0 0,0 0,0 0,0 0,-0.01355 0,0 0,0 0,0 0,0 0,0 0,0 0,0 0,0 0,0 0,0 0,0 0,0 0,0 0,0 0,0 0,0 0,0 0,0 0,0 0,0 0,0 0,0 0,0 0,-0.01355 0,0 0,-0.01355 0,-0.03355 0,0 0,-0.01355 0,-0.03356 v 0 c 0,0 0,0 0,0 0,0 0,0 0,0 0,0 0,0 0,0 0,0 0,0 0,0 0,0 0,0 0.02258,0 0.01411,0 0.02258,0 0.02822,0 0,0 0.02258,0 0.02822,0 0,0 0.02258,0 0.0285,0 0.01411,0 0.0254,0 0.02822,0 0,0 0.01411,0 0.01411,0 0,0 0,0 0,0 0,0 0,0 0.01411,0 0,0 0.0254,0 0.03895,0 0.01411,0 0.03866,0 0.05249,0 0.01411,0 0.0254,0 0.0254,0 0,0 0.01411,0 0.03528,0 0.02258,0 0.03528,0 0.03895,0 0,0 0,0 0,0 0,0 0,0 0,0 0,0 -0.01411,0 -0.01411,0 0,0 0,0 0,0 0,0 0,0 0,0 0,0 0,0 0,0 0,0 0,0 0,0 0,0 0,0 0,0 0,0 0,0 0,0 0,0 0,0 0,0 0,0 0,0 0,0 0,0 0.01411,0 0.01411,0 0,0 0.01411,0 0.02258,0 0,0 0,0 0.01411,0 0,0 0,0 0,0 0,0 0,0 0.01411,0 0,0 0.01411,0 0.01411,0 0,0 0,0 0,0 0,0 0.01976,0 0.03895,0 0.01411,0 0.03528,0 0.03528,0 0,0 0.01411,0 0.01411,0 0,0 0.01411,0 0.01411,0 0,0 0,0 0,0 0,0 0,0 0,0 0,0 0,0 0,0 0,0 0,0 0.01411,0 0.01411,0 0.01411,0 0.01411,0 0,0 0,0 0,0 0,0 0,0 0,0 0,0 0,0 0,0.01355 0,0 0,0.01355 0,0.01355 0,0 0,0 0,0.01355 0,0 0,0.01326 0,0.01326 0,0 0,0 0,0.03359 0,0 0,0.03355 0,0.04939 0,0.01355 0,0.03356 0,0.03356 0,0 0,0 0,0.01355 0,0 0,0 0,0 0,0 0,0 0,0 0,0 0,0 0,0 0,0 0,0 0,0.01326 0,0 0,0.01355 0,0.01355 0,0 0,0 0,0 0,0 0,0 0,0.01355 0,0 0,0.01355 0,0.01355 0,0 0,0 0,0 0,0 0,0 0,0 0,0 0,0 0,0 0,0 0,0 0,0 0,0 0,0 0,0 0,0 0,0 0,0 0,0 0,0 0,0.01326 0,0 0,0 0,0 0,0 0,0 0,0 0,0 0,0 0,0 0,0 0,0 0,0 0,0 0,0 0,0 0,0 0,0 0,0.01355 0,0 0,0 0,0.01355 0,0 0,0 0,0.01326 0,0 0,0.01355 0,0.01355 0,0 0,0 0,0 0,0 0,0 0,0 0,0 0,0 0,0 0,0 0,0 -0.01411,0 0,0 -0.01411,0 -0.02822,0 -0.01411,0 -0.05983,0 -0.106398,0 -0.04741,0 -0.09962,0 -0.114582,0 -0.01411,0 -0.03161,0 -0.0429,0 0,0 -0.01411,0 -0.01411,0 0,0 0,0 0,0 0,0 0,0 -0.01411,0 0,0 -0.01411,0 -0.01411,0 0,0 -0.01411,0 -0.01411,0 0,0 -0.01411,0 -0.01411,0 0,0 0,0 0,0 0,0 0,0 0,0 0,0 0,0 -0.01411,0 0,0 -0.01411,0 -0.01411,0 0,0 -0.01411,0 -0.01411,0 0,0 -0.01411,0 -0.01411,0 0,0 0,0 -0.01411,0 v 0 c 0,0 -0.01411,0 -0.01976,0 -0.01411,0 -0.02258,0 -0.02822,0 0,0 -0.01411,0 -0.01411,0 0,0 0,0 0,0 0,0 0,0 0,0 0,0 0,0 0,0 v -0.03356 -0.05006 c 0,0 0,-0.03356 0,-0.03356 0,0 0,0 0,-0.01355 0,0 0,0 0,-0.03356 0,-0.01355 0,-0.03358 0,-0.03358 0,0 0,0 0,0 0,0 0,-0.01355 0,-0.03356 0,0 0,-0.03355 0,-0.03355 0,0 0,-0.01355 0,-0.01355 0,0 0,0 0,0 0,0 0,0 0,0 0,0 0,0 0,0 0,0 0,0 0,0 0,0 0,0 0,-0.01355 z m 0.02822,0.32495 v 0 h 0.211948 v 0 0 -0.01355 0 0 0 c 0,0 0,-0.01326 0,-0.03355 0,0 0,-0.03356 -0.02258,-0.03356 -0.01411,0 -0.02822,0 -0.05475,0 h -0.01411 c -0.02822,0 -0.0477,0 -0.05757,0 -0.01411,0 -0.01411,0.01355 -0.01411,0.03356 v 0 c 0,0 0,0 0.01411,0.01355 h -0.06632 v 0 0 0.01355 z m 0,-0.257159 v 0 h 0.188242 c 0,0 0.01411,0 0.02258,0 0,0 0,0 0,-0.01355 v 0 0 0 0 h -0.02258 v 0 0 0 c 0,0 0,0 0,0 0,0 0,0 0,0 h -0.18796 v 0 0 0.01355 0 z m 0,-0.399486 v -0.03356 h 0.322015 v 0.03356 z m 0.05588,0.484237 c 0,0 0,0.01355 0.01411,0.03355 0.01411,0 0.02258,0 0.03528,0 v 0 0 -0.01355 0 0 c -0.01411,0 -0.01411,0 -0.02258,0 0,0 0,0 0,-0.01355 0,0 0,0 0,-0.01355 0,0 0,0 0.01411,0 h 0.01411 c 0,0.01355 0,0.03359 0.01411,0.0501 0.01411,0 0.0254,0.01355 0.04318,0.01355 0.01411,0 0.02822,0 0.03528,0 0,0 0.01411,-0.01355 0.01411,-0.03356 0,0 0,-0.01355 -0.01411,-0.03356 h 0.01411 v 0 0 -0.01355 0 0 0 h -0.109502 c -0.01411,0 -0.02822,0 -0.03528,0 0,0 -0.01411,0.01355 -0.01411,0.03356 v 0 z m 0,-0.177434 c 0,0 0,0.01355 0.01411,0.03359 0,0 0.02258,0 0.02822,0 0.01411,0 0.02822,0 0.03528,0 0,0 0.01411,-0.01355 0.01411,-0.03359 v 0 c 0,0 0,0 0,0 0,0 0,0 0.01411,0 0,0 0,0 0.01411,0 0,0 0.01411,0 0.01411,0 0,0 0,0 0,0.01355 0,0 0,0 0,0.01355 0,0 -0.01411,0 -0.02258,0 v 0 0 0.01355 0 0 c 0.01411,0 0.02822,0 0.03866,-0.01355 0,0 0.01411,-0.01355 0.01411,-0.03355 0,0 0,-0.03359 -0.01411,-0.03359 0,0 -0.01411,0 -0.02822,0 -0.01411,0 -0.01411,0 -0.0254,0 0,0 -0.01411,0 -0.01411,0 0,0 0,0 -0.01411,0.01355 v 0 c 0,0 0,0 -0.01411,0.01355 0,0 -0.01411,0 -0.01411,0 0,0 -0.01411,0 -0.01411,0 0,0 0,0 0,-0.01355 0,0 0,0 0,-0.01355 0,0 0.01411,0 0.02258,0 v 0 0 -0.01355 0 0 c -0.01411,0 -0.02822,0 -0.03895,0 -0.01411,0 -0.01411,0.01355 -0.01411,0.03356 v 0 z m 0,-0.132729 c 0,0 0,0.01355 0.01411,0.03356 0.01411,0 0.02258,0 0.03528,0 v 0 0 -0.01326 0 0 c -0.01411,0 -0.01411,0 -0.02258,0 0,0 0,0 0,-0.01355 0,0 0,0 0,-0.01355 0,0 0,0 0.01411,0 h 0.01411 c 0,0.01355 0,0.05007 0.01411,0.05007 0.01411,0 0.0254,0.01355 0.04318,0.01355 0.01411,0 0.02822,0 0.03528,0 0,0 0.01411,-0.01355 0.01411,-0.03356 0,0 0,-0.01355 -0.01411,-0.03358 h 0.01411 v 0 0 -0.01355 0 0 0 h -0.109502 c -0.01411,0 -0.02822,0 -0.03528,0 0,0 -0.01411,0.01355 -0.01411,0.01355 v 0 z m 0,-0.148873 v 0 c 0,0 0,0 0,0 v 0 c 0,0 0,0 0.01411,0 h 0.03528 0.02822 0.01411 0.02258 c 0,0 0.01411,0 0.01411,0 0,0 0,0 0,0 0,0 0,0 0.01411,0 0,0 0,0 0,0 0,0 0,0 0.01411,0 0,0 0.0254,0 0.03528,0 0.01411,0 0.02258,0 0.02258,0 0,0 0,0 0,0 0,0 0,0 0.01411,0 0,0 0,0 0.01411,0 0,0 0.01411,0 0.01411,0 0,0 0,0 0,0 0,0 0,0 0,0 0,0 0,0 0,0 0,0 0.01411,0 0.01411,0 0,0 0.01411,0 0.01411,0 0,0 0,0 0,0 0,0 0,0 0,0 0,0 0,0 0,0 0,0 0,0 0,0 0,0 0,0 0,0 0,0 0,0 0,0 0,0 0,0 0,0 0,0 0,0 0,0 0,0 0,0 0,-0.01355 0,0 0,-0.01326 0,-0.01326 0,0 0,-0.03358 0,-0.06646 v -0.01355 c 0,-0.03356 0,-0.06646 0,-0.06646 0,0 0,0 0,0 0,0 0,-0.03356 0,-0.06649 0,-0.03355 0,-0.06643 0,-0.06643 0,0 0,0 0,0 0,0 0,-0.01355 0,-0.03356 0,-0.01355 0,-0.03358 0,-0.03358 0,0 0,0 0,0 0,0 0,0 0,-0.01355 0,0 0,-0.01355 0,-0.01355 0,0 0,0 0,0 0,0 0,0 0,0 0,0 0,0 0,0 0,0 0,0 0,0 0,0 0,0 0,0 0,0 0,0 0,0 0,0 0,0 0,0 0,0 0,0 0,0 0,0 0,0 0,0 0,0 0,0 0,0 0,0 0,0 0,0 0,0 0,0 0,0 0,0 0,0 0,0 0,0 0,0 0,0 0,0 0,0 0,0 0,0 0,0 0,0 0,0 0,0 0,0 0,0 0,0 0,0 0,0 0,0 -0.01411,0 0,0 -0.01411,0 -0.01411,0 0,0 0,0 -0.01411,0 0,0 -0.01411,0 -0.01411,0 0,0 0,0 0,0 0,0 0,0 -0.01411,0 0,0 -0.01411,0 -0.01411,0 0,0 0,0 0,0 0,0 -0.01411,0 -0.01976,0 -0.01411,0 -0.01411,0 -0.01411,0 0,0 0,0 -0.01411,0 0,0 -0.01411,0 -0.01411,0 0,0 0,0 0,0 0,0 -0.01411,0 -0.01411,0 0,0 0,0 0,0 0,0 -0.01411,0 -0.02258,0 h -0.02258 c 0,0 0,0 0,0 v 0 c 0,0 0,0 0,0 0,0 0,0 0,0 0,0 0,0 0,0 0,0 0,0 0,0 0,0 0.01411,0 0.02822,0 0.01411,0 0.03189,0 0.03895,0 h 0.05165 c 0.02822,0 0.04346,0 0.05447,0 0.01411,0 0.01411,0 0.01411,0 0,0 0,0 0,0 0,0 0,0 0,0 0,0 0,0 0,0 0,0 0,0 0.01411,0 0,0 0,0 0,0 0,0 0,0 0,0 0,0 0,0 0,0 0,0 0,0 0,0 0,0 0,0 0,0 0,0 0,0 0,0 0,0 0,0 0,0 0,0 0,0 0,0 0,0 0,0 0,0 0,0 0,0 0,0 0,0 0,0 0,0 0,0 0,0 0,0 0,0 0,0 0,0 0,0 0,0 0,0 0,0 0,0 0,0 0,0 0,0 0,0 0,0 0,0 0,0 0,0 0,0 0,0 0,0 0,0 0,0 0,0 0,0 0,0 0,0 0,0 0,0 0,0 0,0 0,0 0,0 0,0 0,0 0,0 0,0 0,0.01355 0,0 0,0.01355 0,0.01355 0,0 0,0 0,0 0,0 0,0 0,0 0,0 0,0 0,0 0,0 0,0 0,0 0,0 0,0.01355 0,0.01355 0,0 0,0.05009 0,0.08357 0,0.04939 0,0.08264 0,0.08264 v 0.03356 c 0,0.01355 0,0.05009 0,0.05009 v 0 c 0,0 0,0 0,0.03356 0,0 0,0.03355 0,0.03355 0,0 0,0 0,0 0,0 0,0 0,0 0,0 0,0 0,0 0,0 0,0 0,0 0,0 0,0 0,0 0,0 0,0 0,0 0,0 0,0 0,0 0,0 0,0 0,0 0,0 0,0 0,0 0,0 -0.01411,0 -0.01411,0 0,0 -0.01411,0 -0.01411,0 0,0 0,0 0,0 0,0 0,0 0,0 0,0 0,0 0,0 0,0 0,0 0,0 0,0 0,0 0,0 0,0 0,0 0,0 0,0 -0.01411,0 -0.01411,0 0,0 -0.01411,0 -0.02258,0 0,0 -0.02258,0 -0.0254,0 -0.01411,0 -0.01411,0 -0.01411,0 0,0 0,0 0,0 0,0 -0.01411,0 -0.0254,0 -0.01411,0 -0.0254,0 -0.0254,0 0,0 0,0 0,0 0,0 0,0 -0.01411,0 0,0 -0.01411,0 -0.01411,0 0,0 0,0 -0.01411,0 h -0.05137 c -0.0285,0 -0.0477,0 -0.05024,0 0,0 0,0 0,0 0,0 0,0 0,0 0,0 0,0 0,0 z m 0.01411,0.815906 v -0.115882 h 0.03528 v 0.115882 z m 0,-0.245647 c 0,0 0,0 0.01411,-0.01355 0,0 0.02258,0 0.03895,0 h 0.01411 c 0.01411,0 0.02822,0 0.03895,0 0.01411,0 0.01411,0 0.01411,0.01355 0,0 0,0.01355 -0.01411,0.03356 h -0.08807 c 0,0 -0.01411,-0.01355 -0.01411,-0.03356 z m 0.05165,0.225439 0.03866,-0.08263 c 0.1651,0.01355 0.307905,0.132702 0.349109,0.288433 h -0.08777 c 0,0 -0.01411,-0.05007 -0.04346,-0.08263 -0.05024,-0.06646 -0.131234,-0.115882 -0.217876,-0.115882 z m 0,-0.369655 h 0.04346 c 0.01411,0 0.01411,0.01355 0.01411,0.03356 0,0 0,0 0,0 0,0 -0.01411,0 -0.01411,0 -0.01411,0 -0.01411,0 -0.0254,0 0,0 -0.01411,-0.01355 -0.01411,-0.03356 z m 0,-0.308637 h 0.04346 c 0.01411,0 0.01411,0.01355 0.01411,0.03355 0,0 0,0 0,0 0,0 -0.01411,0 -0.01411,0 -0.01411,0 -0.01411,0 -0.0254,0 0,0 -0.01411,-0.01355 -0.01411,-0.03355 z m 0.05757,1.442747 c 0,0 0,0 0,0 0,0 0,0 0,0 0,0 0,0 0,0 0,0 0,0 0.01411,0 h 0.01411 0.01411 c 0,0 0.01411,0 0.01411,0 0,0 0,0 0,0 0,0 0,0 0,0 0,0 0,0 0.01411,0 h 0.05165 c 0.02258,0 0.04346,0 0.05193,0 0,0 0.01411,0 0.01411,0 0,0 0,0 0,0 0,0 0,0 0.01411,0 0,0 0,0 0,0 0,0 0,0 0,0 0,0 0,0 0,0 0,0 0,0 0.01411,0 0,0 0.01411,0 0.01411,0 0,0 0.01411,0 0.01411,0 0,0 0.01411,0 0.01411,0 0,0 0,0 0.01411,0 0,0 0,0 0,0 0,0 0,0 0,0 0,0 0,0 0,0 0,0 0,0 0,0 0,0 0,0 0,0 0,0 0,0 0,0 0,0 0,0 0,0 0,0 0,0 0,0 0,0 0,0 0,0 0,0 0,0 0,0 0,0 0,0 0,0 0,0 0,0 0,0 0,0 0,0 0,0 0,0 0,0 0,0 0,0 0,0 0,0 0,0 0,0 0,0 0,0 0,0 0,0 0,0 0,0 0,0 0,0 0,0 0,0 0,0 0,0 0,0 0,0 0,0 0,0 0,0 0,-0.01355 0,-0.05007 v -0.0501 c 0,0 0,0 0,0 0,0 0,0 0,0 0,0 0,0 0,0 0,0 0,0 0,0 0,0 0,0 0,0 0,0 0,0 0,0 0,0 0,0 0,0 0,0 0,0 0,-0.01355 0,0 0,0 0,0 0,0 0,0 0,0 0,0 0,0 0,0 0,0 0,0 0,0 0,0 0,-0.03358 0,-0.08289 0,-0.03358 0,-0.08264 0,-0.08264 0,0 0,0 0,0 0,0 0,-0.01355 0,-0.05006 0,-0.01355 0,-0.0501 0,-0.0501 0,0 0,0 0,0 0,0 0,0 0,0 0,0 0,0 0,0 0,0 0,0 0,-0.01355 0,0 0,-0.01355 0,-0.01355 0,0 0,0 0,0 0,0 0,0 0,0 0,0 0,0 0,0 0,0 0,0 0,0 0,0 0,0 0,0 0,0 0,0 0,0 0,0 0,0 0,0 0,0 0,0 0,0 0,0 0,0 0,0 0,0 0,0 0,0 0,0 0,0 0,0 0,0 0,0 0,0 0,0 0,0 0,0 0,0 0,0 0,0 0,0 0,0 0,0 0,0 0,0 -0.01411,0 0,0 -0.01411,0 -0.01411,0 0,0 0,0 0,0 0,0 0,0 0,0 0,0 0,0 0,0 0,0 0,0 -0.01411,0 -0.01411,0 -0.01411,0 -0.01411,0 0,0 0,0 0,0 0,0 0,0 0,0 0,0 0,0 0,0 0,0 -0.01411,0 -0.02258,0 -0.01411,0 -0.02822,0 -0.06181,0 -0.02822,0 -0.05024,0 -0.05024,0 0,0 0,0 0,0 0,0 0,0 0,0 0,0 0,0 0,0 0,0 0,0 0,0 0,0 0,0 0,0 0,0 0,0 0,0 0,0 0,0 0,0 0,0 0,0 0,0 0,0 0,0 0,0 0,0 0,0 0,0 0,0 0,0 0,0 0,0 0.01411,0 0.01411,0 h 0.01411 0.01411 0.01411 v 0 h 0.02822 0.02822 0.02822 c 0.01411,0 0.02822,0 0.02822,0 0,0 0,0 0,0 0,0 0.02822,0 0.05785,0 0.0477,0 0.05814,0 0.06011,0 0,0 0,0 0,0 0,0 0,0 0,0 0,0 0,0 0,0 0,0 0,0 0,0 0,0 0,0 0,0.01355 v 0.165523 0.165947 0.01355 0.01355 0.08286 0.08266 0.01355 0 0.04984 0.05009 0 c 0,0 0,0 0,0.01355 0,0 0,0.01355 0,0.01355 v 0 c 0,0 0,0 0,0 0,0 0,0 0,0 0,0 0,0 0,0.03356 v 0.03355 c 0,0 0,0 0,0 0,0 0,0 0,0 v 0 c 0,0 0,0 0,0 0,0 0,0 0,0.01355 0,0.01355 0,0.01355 -0.02258,0.01355 -0.01411,0 -0.02258,0 -0.02258,0 0,0 0,0 0,0 0,0 0,0 -0.01411,0 0,0 -0.01411,0 -0.01411,0 0,0 0,0 -0.01411,0 0,0 -0.01411,0 -0.01411,0 0,0 0,0 0,0 0,0 0,0 -0.02258,0 -0.01411,0 -0.01976,0 -0.01976,0 h -0.05024 -0.05475 -0.01411 v 0 c 0,0 -0.01411,0 -0.0254,0 -0.01411,0 -0.02258,0 -0.0254,0 0,0 0,0 0,0 0,0 -0.0254,0 -0.05137,0 -0.04769,0 -0.05193,0 -0.05532,0 0,0 0,0 0,0 0,0 0,0 0,0 0,0 0,0 0,0 z m 0.05814,-1.134335 v 0 h 0.03895 v 0 0 -0.01326 0 0 0 h -0.03528 v 0 0 0.01326 0 z m 0.05757,0.190894 v 0 0 h 0.154376 v 0 0 -0.01355 0 0 h -0.122485 c 0,0 -0.01411,0 -0.01411,-0.01355 0,0 0,0 0,0 0,0 0,0 0.01411,0 h 0.115994 v 0 0 -0.01355 0 0 h -0.122767 c 0,0 -0.01411,0 -0.01411,-0.03355 0,0 0,0 0,0 0,0 0,0 0.01411,0 h 0.116558 v 0 0 -0.01355 0 0 0 h -0.1143 c -0.01411,0 -0.0254,0 -0.02822,0 0,0 -0.01411,0 -0.01411,0.01355 v 0 c 0,0 0,0.01355 0.01411,0.03355 0,0 0,0 -0.01411,0 0,0 0,0 0,0.01355 v 0 c 0,0 0,0.01355 0,0.01355 v 0 0 0 0.01355 z m 0,-0.194252 v 0 0 h 0.154376 v 0 0 -0.01325 0 0 0 h -0.1524 v 0 0 0.01325 z m 0,-0.04984 v 0 0 h 0.154376 v 0 0 -0.01355 0 0 h -0.112618 c 0,0 -0.01411,0 -0.01411,0 0,0 0,0 0,-0.01355 0,0 0,0 0,0 0,0 0,0 0.01411,0 h 0.115993 v 0 0 -0.01355 0 0 0 h -0.11938 c -0.01411,0 -0.02258,0 -0.0254,0 0,0 -0.01411,0 -0.01411,0.01355 v 0 c 0,0 0,0 0,0 0,0 0,0 0,0 0,0 0,0 0,0 h -0.01411 v 0 0 0.01355 z m 0,-0.172691 c 0,0 0,0.01355 0.02258,0.03356 0.01411,0 0.02822,0 0.05136,0 h 0.01411 c 0.02258,0 0.03895,0 0.04995,-0.01326 0.01411,0 0.02258,-0.01355 0.02258,-0.03358 0,0 0,-0.01326 0,-0.03356 0,0 -0.01411,0 -0.02822,-0.01355 v 0 0 0.01355 0 0 c 0,0 0,0 0.01411,0 0,0 0,0 0,0 0,0 0,0.01355 -0.01411,0.03356 0,0 -0.01976,0 -0.03528,0 v -0.08263 0 0 h -0.01976 c -0.0254,0 -0.04346,0 -0.05165,0 -0.01411,0 -0.01411,0.01355 -0.01411,0.03358 v 0 z m 0.0254,0 c 0,0 0,-0.01355 0.01411,-0.01355 0,0 0.02258,0 0.03528,0 v 0.05012 c -0.01411,0 -0.0254,0 -0.03528,0 0,0 -0.01411,0 -0.01411,-0.01355 z m 0.04346,-0.115879 v -0.08263 h 0.136031 0.08156 0.09991 0.229729 c 0.06632,0 0.103294,-0.03356 0.132645,-0.08266 h 0.08918 c -0.03867,0.09974 -0.11938,0.1489 -0.22098,0.1489 z m 0.0477,-0.116332 c 0,-0.03356 0.01411,-0.04987 0.02822,-0.08218 h 0.08269 0.248638 c 0,0 0.03895,0 0.07366,0 0.01411,0 0.02822,0 0.03866,-0.01355 0,0 0.01411,0 0.02258,0 v 0 c 0,0 0.01411,0 0.01411,0 0,0 0.01411,0 0.02258,-0.01326 0.02258,-0.01355 0.03528,-0.05009 0.03866,-0.08244 h 0.07789 c -0.02822,0.149548 -0.149578,0.238872 -0.296051,0.238872 h -0.344029 z m 0.0254,-0.115882 c 0,0 0,0 0.01411,0 h 0.02822 0.08805 c 0.0429,0 0.0762,0 0.07789,0 0,0 0,0 0.01411,0 0,0 0.01411,0 0.01411,0 0,0 0,0 0,0 0,0 0,0 0,0 0,0 0,0 0,0 0,0 0,0 0,0 0,0 0,0 0,0 0,0 0,0 0,0 0,0 0,0 0,0 0,0 0,0 0,0 0,0 0,0 0,0 0,0 0,0 0,0 0,0 0,0 0,0 0,0 0,0 0,0 0,0 0,0 0.01411,0 0,0 0.01411,0 0.01411,-0.01355 0,0 0.01411,0 0.01411,-0.01355 0,0 0,0 0,0 0,0 0,0 0,0 0,0 0,0 0,0 0,0 0,0 0,0 0,0 0,0 0,0 0,0 0,0 0,0 0,0 0,0 0,0 0,0 0,0 0,0 0,0 0,0 0,0 0,0 0,0 0,0 0,0 0,0 0,0 0,0 0,0 0,-0.03355 0,0 0,-0.03356 0,-0.03356 0,0 0,0 0,0 0,0 0,0 0,-0.03356 v -0.03358 -0.01355 -0.03358 0 -0.03356 c 0,0 0,-0.03356 0,-0.03356 v 0 0 c 0,0 0,0 0,0 0,0 0,0 0,0 0,0 0,0 0,0 0,0 0,0 0,0 0,0 0,0 0,0 0,0 0,-0.05006 0,-0.09971 0,-0.05007 0,-0.08263 0,-0.08263 0,0 0,0 0,0 0,0 0,0 0,0 0,0 0,0 0,0 0,0 0,0 0,0 0,0 0,0 0,0 0,0 0,0 0,0 0,0 0,0 0,0 0,0 0,0 0,0 0,0 0,0 0,0 0,0 0,0 0,0 0,0 0,0 0,0 0,0 0,0 0,0 0,0 0,0 0,0 0,0 0,0 0,0 0,0 0,0 0,0 0,0 0,0 0,0 0,0 0,0 0,0 0,0 0,0 0,0 0,0 0,0 0,0 0,0 0,0 0,0 0,0 0,0 0,0 0,0 0,0 0,0 0,0 0,0 0,0 0,0 0,0 0,0 0,0 0,0 0,0 0,0 0,0 0,0 0,0 -0.01411,0 -0.01411,0 0,0 -0.01411,0 -0.02258,0 0,0 0,0 0,0 0,0 0,0 0,0 0,0 -0.01411,0 -0.02822,0 -0.01411,0 -0.02822,0 -0.02822,0 0,0 0,0 0,0 0,0 0,0 -0.01411,0 0,0 0,0 0,0 0,0 -0.01411,0 -0.02822,0 -0.01976,0 -0.0254,0 -0.0254,0 0,0 0,0 0,0 0,0 0,0 0.01411,0 0,0 0.01411,0 0.01411,0 0,0 0.01411,0 0.03556,0 0.01411,0 0.02822,0 0.02822,0 0,0 0,0 0.01411,0 0.01411,0 0.01411,0 0.02258,0 0,0 0,0 0,0 0,0 0,0 0.01411,0 0,0 0.01411,0 0.01411,0 0,0 0,0 0,0 0,0 0,0 0.01411,0 0,0 0.01411,0 0.01411,0 0,0 0,0 0,0 0,0 0,0 0,0 0,0 0,0 0,0 0,0 0,0 0,0 0,0 0,0 0,0 0,0 0,0 0.01411,0 0,0 0,0 0,0 0,0 0,0 0,0 0,0 0,0 0.01411,0 0,0 0,0 0,0 0,0 0,0 0,0 0,0 0,0 0,0 0,0 0,0 0,0 0,0 0,0 0,0 0,0 0,0 0,0 0,0 0,0 0,0 0,0 0,0 0,0 0,0 0,0 0,0 0,0 0,0 0,0 0,0 0,0 0,0 0,0 0,0 0,0 0,0 0,0 0,0 0,0 0,0 0,0 0,0 0,0 0,0 0,0 0,0 0,0 0,0 0,0 0,0 v 0 c 0,0 0,0 0,0 0,0 0,0 0,0 0,0 0,0 0,0.01355 0,0 0,0 0,0 0,0 0,0.04984 0,0.09974 0,0.05007 0,0.09971 0,0.09971 0,0 0,0 0,0 0,0 0,0 0,0.01326 0,0 0,0.01355 0,0.01355 0,0 0,0 0,0 0,0 0,0 0,0 0,0 0,0 0,0 0,0 0,0.01355 0,0.01355 0,0 0,0 0,0 0,0 0,0 0,0 0,0 0,0 0,0.05009 0,0.03356 0,0.06643 0,0.06643 v 0.01355 c 0,0 0,0 0,0 0,0 0,0.01355 0,0.03356 0,0 0,0.01355 0,0.01355 0,0 0,0 0,0 0,0 0,0 0,0 0,0 0,0 0,0 0,0 0,0 0,0 0,0 0,0 0,0 0,0 0,0 0,0 0,0 0,0 0,0 0,0 0,0 0,0 0,0 0,0 0,0 0,0 0,0 0,0 0,0 0,0 0,0 0,0 0,0 0,0 0,0 0,0 0,0 0,0 0,0 0,0 0,0 0,0 0,0 0,0 0,0 0,0 0,0 0,0 0,0 0,0 0,0 -0.01411,0 0,0 0,0 0,0 0,0 0,0 0,0 0,0 0,0 -0.01411,0 0,0 -0.01411,0 -0.02258,0 0,0 -0.01411,0 -0.01411,0 0,0 0,0 0,0 0,0 0,0 -0.01411,0 0,0 -0.01411,0 -0.02258,0 -0.01411,0 -0.03528,0 -0.05447,0 -0.0254,0 -0.03895,0 -0.03895,0 0,0 0,0 0,0 0,0 -0.01411,0 -0.01976,0 -0.01411,0 -0.02258,0 -0.02258,0 0,0 -0.01411,0 -0.03528,0 -0.03189,0 -0.02822,0 -0.03189,0 0,0 0,0 0,0 0,0 0,0 0,0 v 0 z m 0.0762,0.305308 c 0,0 0.01411,-0.03355 0.02258,-0.03355 h 0.65024 v 0.08263 h -0.650805 c -0.01411,0 -0.01411,-0.03356 -0.02258,-0.03356 z m 0,0.515649 v -0.148875 c 0.03528,0 0.07338,0 0.07338,0 v 0.08241 h 0.05475 c 0.110631,0 0.168204,-0.03356 0.193604,-0.08241 h 0.08128 c -0.04713,0.09968 -0.14732,0.165975 -0.275731,0.165975 z m 0,-0.180989 v -0.03359 h 0.322862 v 0.03359 z m 0,-0.06646 v -0.08266 h 0.136313 0.08156 0.09962 0.229729 c 0.06689,0 0.103293,-0.03358 0.132926,-0.08286 h 0.08947 c -0.03895,0.09971 -0.119662,0.14887 -0.221545,0.14887 z m 0,-0.116332 c 0,0 0.01411,-0.04987 0.04346,-0.08263 h 0.513927 c 0.0285,0.03355 0.04346,0.08263 0.04346,0.08263 z m 0.09821,0.23413 v -0.03358 h 0.06463 v 0.03358 z m 0.02822,0.586994 v -0.08244 h 0.756074 v 0.08244 z m 0,-0.11588 v -0.08263 h 0.756074 v 0.08263 z m 0,-0.116557 v -0.08263 0 0 h 0.748454 v 0.08263 h -0.755509 z m 0.06971,-0.115882 c 0,0 0.01411,-0.03355 0.04346,-0.08289 h 0.642902 v 0.08289 z m 0.149014,-0.298505 v -0.03356 h 0.322015 v 0.03356 z m 0.02822,0.115879 v 0 h 0.21336 v 0.08264 h -0.177518 c -0.01411,-0.01355 -0.02822,-0.05009 -0.03556,-0.08264 z m 0.129822,-0.08221 v 0 c 0,0 0,0 0,0 h 0.09116 c 0.0762,0 0.08777,0 0.08777,0 0,0 0,0 0,0 0,0 0,0 0,0 0,0 0,0 0.01411,0 0,0 0.01411,0 0.02258,0 0,0 0,0 0.01411,0 0,0 0,0 0,0 0,0 0.01411,0 0.01411,0 0,0 0.01411,0 0.01411,0 0,0 0,0 0,0 0,0 0,0 0,0 0,0 0,0 0,0 0,0 0,0 0,0 0,0 0,0 0,0 0,0 0,0 0,0 0,0 0,0 0,0 0,0 0,0 0.01411,0 0,0 0,0 0,0 0,0 0,0 0,0 0,0 0,0 0,0 0,0 0,0 0,0 0,0 0,0 0,0 0,0 0,0 0,0 0,0 0,0 0,0 0,0 0,0 0,0 0,0 0,0 0,0 0,0 0,-0.01355 0,-0.03355 0,0 0,-0.03356 0,-0.0501 v -0.03355 c 0,0 0,-0.01355 0,-0.01355 0,0 0,0 0,0 0,0 0,0 0,-0.01355 0,0 0,-0.01355 0,-0.01355 0,0 0,0 0,0 0,0 0,0 0,0 0,0 0,0 0,0 0,0 0,0 0,-0.03356 v -0.03356 -0.03355 -0.01355 c 0,0 0,-0.03356 0,-0.06649 0,-0.03356 0,-0.08238 0,-0.08238 0,0 0,0 0,0 0,0 0,0 0,0 0,0 0,0 0,0 0,0 0,0 0,0 0,0 0,0 0,0 0,0 0,0 0,0 0,0 0,0 0,0 0,0 0,0 0,0 0,0 0,0 0,0 0,0 0,0 0,0 0,0 0,0 0,0 0,0 0,0 0,0 0,0 0,0 0,0 0,0 0,0 0,0 0,0 0,0 0,0 0,0 0,0 0,0 0,0 0,0 0,0 0,0 0,0 0,0 0,0 0,0 0,0 0,0 0,0 0,0 0,0 0,0 0,0 0,0 0,0 -0.01411,0 0,0 -0.02258,0 -0.0254,0 0,0 -0.01411,0 -0.02258,0 0,0 -0.01411,0 -0.01411,0 0,0 0,0 0,0 0,0 0,0 -0.01411,0 0,0 -0.01411,0 -0.01411,0 0,0 0,0 0,0 0,0 0,0 0,0 0,0 0,0 -0.01411,0 0,0 -0.02258,0 -0.02822,0 -0.01411,0 -0.01411,0 -0.01411,0 0,0 0,0 0,0 0,0 0,0 0,0 0,0 0,0 -0.01411,0 0,0 -0.01411,0 -0.02822,0 -0.01411,0 -0.01976,0 -0.01976,0 0,0 0,0 0,0 0,0 0,0 0,0 0,0 0,0 0,0 0,0 0,0 0.03189,0 0.01411,0 0.04346,0 0.05673,0 0.01411,0 0.0285,0 0.03556,0 0,0 0,0 0,0 0,0 0,0 0,0 0,0 0,0 0,0 0,0 0,0 0.01411,0 0,0 0.01411,0 0.01411,0 0,0 0.01411,0 0.01411,0 0,0 0,0 0,0 0,0 0,0 0,0 0,0 0,0 0,0 0,0 0,0 0,0 0,0 0.01411,0 0.01411,0 0,0 0.01411,0 0.01411,0 0,0 0,0 0.01411,0 0,0 0,0 0.01411,0 0,0 0,0 0,0 0,0 0,0 0,0 0,0 0,0 0,0 0,0 0,0 0,0 0,0 0,0 0,0 0,0 0,0 0,0 0,0 0,0 0,0 0,0 0,0 0,0 0,0 0,0 0,0 0,0 0,0 0,0 0,0 0,0 0,0 0,0 0,0.01355 0,0.03356 0,0 0,0.01355 0,0.03355 0,0 0,0.01355 0,0.01355 0,0 0,0 0,0.01355 0,0 0,0 0,0 0,0 0,0 0,0 0,0 0,0 0,0.03356 0,0 0,0.01355 0,0.01355 0,0 0,0 0,0 0,0 0,0 0,0 0,0 0,0.03356 0,0.08286 0,0.05007 0,0.09971 0,0.115882 0,0.01355 0,0.03358 0,0.03358 0,0 0,0 0,0 0,0 0,0 0,0.01355 0,0 0,0 0,0 0,0 0,0 0,0 0,0 0,0 0,0 0,0 0,0 0,0.01355 0,0 0,0 0,0.01355 0,0 0,0 0,0 0,0 0,0 0,0 0,0 0,0 0,0 0,0 0,0 0,0 0,0 0,0 0,0 0,0 0,0 0,0 0,0 0,0 0,0 0,0 0,0 0,0 0,0 0,0 0,0 0,0 0,0 0,0 0,0 -0.01411,0 -0.01411,0.01326 0,0 -0.01411,0 -0.01411,0 0,0 0,0 0,0 0,0 0,0 0,0 0,0 -0.01411,0 -0.01411,0 0,0 0,0 0,0 0,0 0,0 -0.01411,0 0,0 0,0 0,0 0,0 0,0 -0.01411,0 0,0 0,0 -0.01411,0 0,0 0,0 -0.01411,0 0,0 -0.01411,0 -0.0254,0 h -0.0254 -0.01411 -0.01411 c 0,0 -0.01411,0 -0.02822,0 h -0.02822 -0.03528 c -0.01411,0 -0.02822,0 -0.02822,0 h -0.02258 c -0.01411,0 -0.01411,0 -0.02258,0 0,0 0,0 0,0 z m 0.184291,-0.28366 v -0.148873 h 0.08354 v 0.148873 z m 0,-0.179213 v -0.08266 h 0.08015 v 0.08266 z m 3.920641,-16.449376 h 3.305386 V 8.2702658 h -3.305386 z"
       style="color:#000000;font-style:normal;font-variant:normal;font-weight:normal;font-stretch:normal;font-size:35.48030472px;line-height:94.99999881%;font-family:'Ume P Gothic C5';-inkscape-font-specification:'Ume P Gothic C5';text-indent:0;text-align:start;text-decoration:none;text-decoration-line:none;letter-spacing:0.04px;word-spacing:0px;text-transform:none;writing-mode:lr-tb;direction:ltr;baseline-shift:baseline;text-anchor:start;display:inline;overflow:visible;visibility:visible;fill:#000000;fill-opacity:1;fill-rule:nonzero;stroke:none;stroke-width:3.67338991;marker:none;enable-background:accumulate" />
  </g>
</svg>
