<?xml version="1.0" encoding="UTF-8" standalone="no"?>
<!-- Created with Inkscape (http://www.inkscape.org/) -->

<svg
   xmlns:dc="http://purl.org/dc/elements/1.1/"
   xmlns:cc="http://creativecommons.org/ns#"
   xmlns:rdf="http://www.w3.org/1999/02/22-rdf-syntax-ns#"
   xmlns:svg="http://www.w3.org/2000/svg"
   xmlns="http://www.w3.org/2000/svg"
   xmlns:sodipodi="http://sodipodi.sourceforge.net/DTD/sodipodi-0.dtd"
   xmlns:inkscape="http://www.inkscape.org/namespaces/inkscape"
   id="svg2"
   version="1.1"
   inkscape:version="0.91 r13725"
   width="532.68713"
   height="608.09845"
   viewBox="0 0 532.68713 608.09845"
   sodipodi:docname="pictogramme-personne-a-mobilite-reduite.jpg.svg"
   inkscape:export-filename="/home/sarah/osp/work.balsamine.www/content/images/pictogramme-personne-a-mobilite-reduite.png"
   inkscape:export-xdpi="11.840188"
   inkscape:export-ydpi="11.840188">
  <metadata
     id="metadata8">
    <rdf:RDF>
      <cc:Work
         rdf:about="">
        <dc:format>image/svg+xml</dc:format>
        <dc:type
           rdf:resource="http://purl.org/dc/dcmitype/StillImage" />
        <dc:title></dc:title>
      </cc:Work>
    </rdf:RDF>
  </metadata>
  <defs
     id="defs6" />
  <sodipodi:namedview
     pagecolor="#ffffff"
     bordercolor="#666666"
     borderopacity="1"
     objecttolerance="10"
     gridtolerance="10"
     guidetolerance="10"
     inkscape:pageopacity="0"
     inkscape:pageshadow="2"
     inkscape:window-width="1597"
     inkscape:window-height="1107"
     id="namedview4"
     showgrid="false"
     inkscape:zoom="0.44500587"
     inkscape:cx="289.96391"
     inkscape:cy="210.61679"
     inkscape:window-x="0"
     inkscape:window-y="0"
     inkscape:window-maximized="0"
     inkscape:current-layer="svg2"
     fit-margin-top="0"
     fit-margin-left="0"
     fit-margin-right="0"
     fit-margin-bottom="0" />
  <g
     id="g4138"
     transform="translate(-114.02001,-62.715333)">
    <path
       style="fill:#0f0f0f"
       d="M 283.125,669.48071 C 252.11814,664.28375 227.67979,654.62291 201.72536,637.30225 170.15757,616.2355 143.20392,583.37859 129.24899,548.95245 92.53597,458.38324 123.90511,357.23495 205,304.69694 214.87909,298.29669 225.25167,292.5 226.8252,292.5 c 0.37114,0 0.6748,10.11855 0.6748,22.48566 l 0,22.48566 -7.51068,5.46513 c -21.31355,15.50872 -42.85903,41.55097 -51.86402,62.68855 -10.2455,24.04946 -13.73626,41.11586 -13.67858,66.875 0.0609,27.15863 3.82242,44.48341 14.65577,67.5 17.64182,37.48191 50.98005,67.90501 89.64751,81.80869 17.89938,6.43608 28.1616,8.28642 50,9.01527 18.03441,0.6019 22.27356,0.3478 33.75,-2.02297 34.61097,-7.14989 63.6279,-23.08094 86.68808,-47.59404 15.05944,-16.0083 29.03727,-39.32909 35.18728,-58.70695 1.20007,-3.78125 2.63579,-7.36987 3.1905,-7.97471 0.55471,-0.60484 6.18419,9.23891 12.50995,21.875 l 11.50139,22.97471 -4.21043,8.125 c -12.43796,24.00194 -35.64206,50.85286 -57.68735,66.75365 -13.2449,9.55325 -39.4064,22.95686 -54.05442,27.69429 -20.09153,6.49795 -32.06398,8.30476 -58.125,8.77192 -16.50363,0.29583 -27.60429,-0.10437 -34.375,-1.23915 z M 551.66199,621.5625 c -1.75984,-3.95313 -5.34179,-11.96875 -7.9599,-17.8125 -2.6181,-5.84375 -9.90904,-22.15625 -16.20208,-36.25 -28.66971,-64.20799 -33.49122,-74.99358 -46.65915,-104.375 l -14.00536,-31.25 -90.29275,-0.32072 -90.29275,-0.32072 -0.006,-5.92928 C 286.238,419.96909 285.52226,403.3338 281.25709,309.375 280.5705,294.25 278.89894,256.28125 277.54251,225 c -1.35643,-31.28125 -2.7478,-61.375 -3.09191,-66.875 -1.89438,-30.2776 -2.17541,-51.52664 -0.75223,-56.875 2.84949,-10.708509 7.30077,-18.247705 14.96104,-25.33977 24.67322,-22.843042 63.27217,-15.02685 77.66347,15.726657 9.19083,19.640363 3.84316,42.591823 -13.17262,56.534963 -7.06303,5.78764 -20.23074,11.7483 -27.98086,12.66619 -6.2614,0.74157 -6.84718,1.26516 -6.79969,6.07772 0.11975,12.13766 2.06891,78.17595 2.93187,99.33424 0.6309,15.46875 1.15882,30.79158 1.17316,34.05072 l 0.0261,5.92572 61.5625,0.32428 61.5625,0.32428 0,19.375 0,19.375 -59.84777,0.32472 -59.84778,0.32472 0.76764,10.92528 c 0.4222,6.0089 1.13332,16.96835 1.58029,24.35433 l 0.81266,13.42905 87.00355,0.32095 87.00355,0.32095 11.45626,27.15362 c 6.30095,14.93449 16.81715,39.96574 23.36933,55.625 32.17857,76.9046 43.32994,103.2657 43.94323,103.87902 0.36867,0.36866 13.06587,-3.99664 28.21601,-9.70068 15.15014,-5.70402 27.80999,-10.10666 28.13302,-9.78365 1.49175,1.49176 9.31355,31.41069 8.4205,32.20899 -0.55578,0.4968 -12.26049,4.99664 -26.01049,9.99965 -13.75,5.00301 -34,12.38581 -45,16.40621 -11,4.02042 -20.17175,7.31591 -20.38165,7.32334 -0.20991,0.008 -1.82152,-3.22088 -3.58136,-7.174 z"
       id="path4140"
       inkscape:connector-curvature="0"
       sodipodi:nodetypes="sssssscssssssssssscssssscsssccccssssssssssscccccccsscccsscscsssccc" />
  </g>
</svg>
