<?xml version="1.0" encoding="UTF-8" standalone="no"?>
<svg
   xmlns:dc="http://purl.org/dc/elements/1.1/"
   xmlns:cc="http://creativecommons.org/ns#"
   xmlns:rdf="http://www.w3.org/1999/02/22-rdf-syntax-ns#"
   xmlns:svg="http://www.w3.org/2000/svg"
   xmlns="http://www.w3.org/2000/svg"
   xmlns:sodipodi="http://sodipodi.sourceforge.net/DTD/sodipodi-0.dtd"
   xmlns:inkscape="http://www.inkscape.org/namespaces/inkscape"
   version="1.1"
   viewBox="0 -288 1024 2048"
   id="svg6"
   sodipodi:docname="egrave.svg"
   width="1024"
   height="2048"
   inkscape:version="0.92.1 r">
  <metadata
     id="metadata12">
    <rdf:RDF>
      <cc:Work
         rdf:about="">
        <dc:format>image/svg+xml</dc:format>
        <dc:type
           rdf:resource="http://purl.org/dc/dcmitype/StillImage" />
        <dc:title />
      </cc:Work>
    </rdf:RDF>
  </metadata>
  <defs
     id="defs10" />
  <sodipodi:namedview
     pagecolor="#ffffff"
     bordercolor="#666666"
     borderopacity="1"
     objecttolerance="10"
     gridtolerance="10"
     guidetolerance="10"
     inkscape:pageopacity="0"
     inkscape:pageshadow="2"
     inkscape:window-width="2558"
     inkscape:window-height="1402"
     id="namedview8"
     showgrid="false"
     inkscape:zoom="0.2878827"
     inkscape:cx="-1900.9598"
     inkscape:cy="275.71345"
     inkscape:window-x="0"
     inkscape:window-y="18"
     inkscape:window-maximized="0"
     inkscape:current-layer="layer2"
     inkscape:measure-start="1198.87,818.422"
     inkscape:measure-end="1198.77,818.326"
     showguides="true"
     inkscape:guide-bbox="true">
    <sodipodi:guide
       position="860.20339,725.69492"
       orientation="0,1"
       id="guide880"
       inkscape:locked="false" />
    <sodipodi:guide
       position="514.29434,1188.8982"
       orientation="1,0"
       id="guide882"
       inkscape:locked="false" />
    <sodipodi:guide
       position="557.55932,10.847458"
       orientation="1,0"
       id="guide884"
       inkscape:locked="false" />
    <sodipodi:guide
       position="938.84605,960.32292"
       orientation="0,1"
       id="guide886"
       inkscape:locked="false" />
    <sodipodi:guide
       position="465.58787,1166.079"
       orientation="0,1"
       id="guide888"
       inkscape:locked="false" />
    <sodipodi:guide
       position="1153.6271,1046.7797"
       orientation="0,1"
       id="guide890"
       inkscape:locked="false" />
    <sodipodi:guide
       position="1700.6673,960.32292"
       orientation="0,1"
       id="guide4458"
       inkscape:locked="false" />
    <sodipodi:guide
       position="1499.3458,920.82408"
       orientation="0,1"
       id="guide4460"
       inkscape:locked="false" />
    <sodipodi:guide
       position="1500.5794,901.08773"
       orientation="0,1"
       id="guide4462"
       inkscape:locked="false" />
  </sodipodi:namedview>
  <g
     inkscape:groupmode="layer"
     id="layer2"
     inkscape:label="trace"
     style="display:inline">
    <path
       style="color:#000000;font-style:normal;font-variant:normal;font-weight:normal;font-stretch:normal;font-size:medium;line-height:normal;font-family:sans-serif;font-variant-ligatures:normal;font-variant-position:normal;font-variant-caps:normal;font-variant-numeric:normal;font-variant-alternates:normal;font-feature-settings:normal;text-indent:0;text-align:start;text-decoration:none;text-decoration-line:none;text-decoration-style:solid;text-decoration-color:#000000;letter-spacing:normal;word-spacing:normal;text-transform:none;writing-mode:lr-tb;direction:ltr;text-orientation:mixed;dominant-baseline:auto;baseline-shift:baseline;text-anchor:start;white-space:normal;shape-padding:0;clip-rule:nonzero;display:inline;overflow:visible;visibility:visible;opacity:1;isolation:auto;mix-blend-mode:normal;color-interpolation:sRGB;color-interpolation-filters:linearRGB;solid-color:#000000;solid-opacity:1;vector-effect:none;fill:#00ffff;fill-opacity:1;fill-rule:evenodd;stroke:none;stroke-width:100;stroke-linecap:butt;stroke-linejoin:miter;stroke-miterlimit:4;stroke-dasharray:none;stroke-dashoffset:0;stroke-opacity:1;color-rendering:auto;image-rendering:auto;shape-rendering:auto;text-rendering:auto;enable-background:accumulate"
       d="m 378.19336,381.49805 -17.85742,16.08789 -2.94336,-2.65235 -25.35352,28.14258 -28.14258,25.35352 2.65235,2.94336 -16.08789,17.85742 170.72265,153.79492 153.8125,170.74219 17.85938,-16.08985 2.94336,2.65235 25.35156,-28.14258 28.14258,-25.35156 -2.65235,-2.94336 L 702.73047,706.0332 531.98828,552.2207 Z M 474.51172,1078 l -0.3457,0 c -206.38211,2.8672 -343.52937,184.072 -344.22461,371.7598 -1.43411,27.8825 -2.02735,75.9258 -2.02735,75.9258 l -0.01,0.6406 0.008,0.6406 c 0,0 0.60388,51.5348 2.01172,81.2305 0.16044,135.683 36.65196,251.3493 110.67773,333.3593 74.12823,82.1236 184.21052,126.361 315.40821,126.4336 115.29376,1.3946 200.8922,-37.774 256.05078,-84.9707 27.60491,-23.6202 47.79376,-48.95 61.65625,-72.7285 13.86248,-23.7784 22.87304,-43.1863 22.87304,-70.2617 h -100 c 0,-2.8115 -0.22397,-2.3172 -0.9707,0.062 h -46.44922 c 0,-4.4103 -14.876,34.6004 -51.60937,62.5391 C 660.82717,1930.5734 608.7939,1953 551.8125,1953 473.08355,1953 403.05897,1925.9598 351.41211,1872.1543 299.76525,1818.3488 264.625,1735.9255 264.625,1616.9023 v -0.3652 l -0.0703,-4.7637 H 896.44727 V 1451.582 c 0,-84.3985 -25.8961,-174.7505 -81.32618,-247.4511 C 759.69107,1131.4262 671.19287,1078 559.45898,1078 Z m 39.54492,120 h 0.11914 0.11914 c 84.61763,0 143.03309,23.7409 183.15039,67.2441 40.1173,43.5033 64.82813,111.7626 64.82813,211.1368 l -0.0137,35.3886 H 263.0918 l -0.53321,-36.3945 c 0.0393,-98.3752 26.80403,-166.2101 68.90235,-210.1543 42.12926,-43.9765 102.25176,-67.6013 182.5957,-67.2207 z"
       transform="translate(0,-288)"
       id="path5546-0-3-2-5-5"
       inkscape:connector-curvature="0" />
  </g>
</svg>
