<?xml version="1.0" encoding="UTF-8" standalone="no"?>
<svg
   xmlns:dc="http://purl.org/dc/elements/1.1/"
   xmlns:cc="http://creativecommons.org/ns#"
   xmlns:rdf="http://www.w3.org/1999/02/22-rdf-syntax-ns#"
   xmlns:svg="http://www.w3.org/2000/svg"
   xmlns="http://www.w3.org/2000/svg"
   xmlns:sodipodi="http://sodipodi.sourceforge.net/DTD/sodipodi-0.dtd"
   xmlns:inkscape="http://www.inkscape.org/namespaces/inkscape"
   version="1.1"
   viewBox="0 -288 1232 2048"
   id="svg6"
   sodipodi:docname="S.svg"
   width="1232"
   height="2048"
   inkscape:version="0.92.0 r">
  <metadata
     id="metadata12">
    <rdf:RDF>
      <cc:Work
         rdf:about="">
        <dc:format>image/svg+xml</dc:format>
        <dc:type
           rdf:resource="http://purl.org/dc/dcmitype/StillImage" />
        <dc:title />
      </cc:Work>
    </rdf:RDF>
  </metadata>
  <defs
     id="defs10" />
  <sodipodi:namedview
     pagecolor="#ffffff"
     bordercolor="#666666"
     borderopacity="1"
     objecttolerance="10"
     gridtolerance="10"
     guidetolerance="10"
     inkscape:pageopacity="0"
     inkscape:pageshadow="2"
     inkscape:window-width="1364"
     inkscape:window-height="730"
     id="namedview8"
     showgrid="false"
     inkscape:zoom="0.23147406"
     inkscape:cx="-711.89661"
     inkscape:cy="945.98889"
     inkscape:window-x="0"
     inkscape:window-y="18"
     inkscape:window-maximized="0"
     inkscape:current-layer="layer3"
     inkscape:measure-start="885.766,394.076"
     inkscape:measure-end="1348.53,394.076"
     showguides="false">
    <sodipodi:guide
       position="186.77207,501.25482"
       orientation="0,1"
       id="guide895"
       inkscape:locked="false" />
  </sodipodi:namedview>
  <g
     inkscape:groupmode="layer"
     id="layer3"
     inkscape:label="trace"
     style="display:inline">
    <path
       style="color:#000000;font-style:normal;font-variant:normal;font-weight:normal;font-stretch:normal;font-size:medium;line-height:normal;font-family:sans-serif;font-variant-ligatures:normal;font-variant-position:normal;font-variant-caps:normal;font-variant-numeric:normal;font-variant-alternates:normal;font-feature-settings:normal;text-indent:0;text-align:start;text-decoration:none;text-decoration-line:none;text-decoration-style:solid;text-decoration-color:#000000;letter-spacing:normal;word-spacing:normal;text-transform:none;writing-mode:lr-tb;direction:ltr;text-orientation:mixed;dominant-baseline:auto;baseline-shift:baseline;text-anchor:start;white-space:normal;shape-padding:0;clip-rule:nonzero;display:inline;overflow:visible;visibility:visible;opacity:1;isolation:auto;mix-blend-mode:normal;color-interpolation:sRGB;color-interpolation-filters:linearRGB;solid-color:#000000;solid-opacity:1;vector-effect:none;fill:#010000;fill-opacity:1;fill-rule:evenodd;stroke:none;stroke-width:100;stroke-linecap:butt;stroke-linejoin:miter;stroke-miterlimit:4;stroke-dasharray:none;stroke-dashoffset:0;stroke-opacity:1;color-rendering:auto;image-rendering:auto;shape-rendering:auto;text-rendering:auto;enable-background:accumulate"
       d="m 643.77344,497.94531 -115.75586,0.10938 c -65.081,0.0102 -157.18423,21.84922 -240.33985,80.58398 -83.17508,58.74852 -154.01193,159.87215 -154.01171,302.33789 a 50.005,50.005 0 0 0 0.0176,1.32032 c 3.83629,145.26132 56.69997,244.94922 134.78125,306.97852 77.87697,61.867 174.03934,88.3098 267.34375,113.0449 l 166.32813,48.8067 a 50.005,50.005 0 0 0 1.13672,0.3183 c 3.64679,0.9772 7.2701,1.9706 10.88281,2.9727 79.30563,26.6852 135.36658,62.1458 172.7793,105.7363 45.24187,52.7124 67.12123,119.5373 65.99609,213.0742 l -0.004,0.3008 v 0.3008 c 0,76.3708 -25.02166,136.6977 -74.6582,180.1836 -49.63654,43.4859 -127.61584,71.7634 -240.73242,69.0019 L 636.92578,1923 h -0.60937 C 482.27974,1923 398.12546,1864.6128 345.9082,1796.127 293.69095,1727.6411 277.12695,1642.9998 277.12695,1608 h -55.72461 -44.27539 -55.72461 c 0,102.6127 36.39562,215.663 114.3418,305.6113 77.94619,89.9484 199.3946,154.3887 357.77344,154.3887 137.22568,0 260.43382,-22.6186 353.8418,-86.5918 93.40792,-63.9732 150.10352,-172.0409 150.10352,-314.5644 0,-132.2953 -46.3022,-229.1638 -117.38282,-292.793 -67.29342,-60.2391 -152.02584,-91.7771 -236.64258,-115.2735 -17.93094,-5.9615 -36.56568,-11.4407 -55.91211,-16.4511 l -118.77344,-34.5918 c -77.47406,-22.5638 -153.59929,-49.7646 -207.02734,-94.7266 -53.42805,-44.962 -88.94336,-104.9758 -88.94336,-216.12499 0,-155.19642 138.01982,-268.67531 319.94531,-268.87304 128.61522,2.42241 210.03125,47.89325 263.29883,109.50781 53.32823,61.68471 77.58194,142.76195 77.97461,214.75586 l 62.5957,-0.3418 c 6.9e-4,0.10833 0.003,0.21586 0.004,0.32422 l 99.99809,-0.54492 C 1095.1278,682.66434 870.74762,497.73036 643.77344,497.94531 Z"
       transform="translate(0,-288)"
       id="path5848-2-90-2-3"
       inkscape:connector-curvature="0" />
  </g>
</svg>
