<?xml version="1.0" encoding="UTF-8" standalone="no"?>
<svg
   xmlns:dc="http://purl.org/dc/elements/1.1/"
   xmlns:cc="http://creativecommons.org/ns#"
   xmlns:rdf="http://www.w3.org/1999/02/22-rdf-syntax-ns#"
   xmlns:svg="http://www.w3.org/2000/svg"
   xmlns="http://www.w3.org/2000/svg"
   xmlns:sodipodi="http://sodipodi.sourceforge.net/DTD/sodipodi-0.dtd"
   xmlns:inkscape="http://www.inkscape.org/namespaces/inkscape"
   version="1.1"
   viewBox="0 -288 1024 2048"
   id="svg6"
   sodipodi:docname="8.svg"
   width="1024"
   height="2048"
   inkscape:version="0.92.1 r">
  <metadata
     id="metadata12">
    <rdf:RDF>
      <cc:Work
         rdf:about="">
        <dc:format>image/svg+xml</dc:format>
        <dc:type
           rdf:resource="http://purl.org/dc/dcmitype/StillImage" />
        <dc:title></dc:title>
      </cc:Work>
    </rdf:RDF>
  </metadata>
  <defs
     id="defs10" />
  <sodipodi:namedview
     pagecolor="#ffffff"
     bordercolor="#666666"
     borderopacity="1"
     objecttolerance="10"
     gridtolerance="10"
     guidetolerance="10"
     inkscape:pageopacity="0"
     inkscape:pageshadow="2"
     inkscape:window-width="1918"
     inkscape:window-height="1042"
     id="namedview8"
     showgrid="false"
     inkscape:zoom="0.46945794"
     inkscape:cx="-603.24777"
     inkscape:cy="1100.9979"
     inkscape:window-x="0"
     inkscape:window-y="18"
     inkscape:window-maximized="0"
     inkscape:current-layer="layer3"
     inkscape:measure-start="518.14,-132.547"
     inkscape:measure-end="518.14,289.194"
     showguides="true"
     inkscape:guide-bbox="true">
    <sodipodi:guide
       position="186.77207,501.25482"
       orientation="0,1"
       id="guide895"
       inkscape:locked="false" />
    <sodipodi:guide
       position="514.5623,791.70672"
       orientation="1,0"
       id="guide172"
       inkscape:locked="false" />
    <sodipodi:guide
       position="332.87455,183.7588"
       orientation="1,0"
       id="guide174"
       inkscape:locked="false" />
    <sodipodi:guide
       position="514.5623,205.59899"
       orientation="0,1"
       id="guide176"
       inkscape:locked="false" />
    <sodipodi:guide
       position="170.20282,953.0605"
       orientation="0,1"
       id="guide178"
       inkscape:locked="false" />
  </sodipodi:namedview>
  <g
     inkscape:groupmode="layer"
     id="layer4"
     inkscape:label="model"
     sodipodi:insensitive="true"
     style="display:none">
    <g
       transform="matrix(1,0,0,-1,0,1760)"
       id="g4"
       style="fill:#999999">
      <path
         inkscape:connector-curvature="0"
         d="m 144,400 q 0,232 200,384 -184,144 -184,376 0,176 92,284 92,108 220,108 h 88 q 120,0 208,-108 88,-108 88,-284 Q 856,920 680,784 880,624 880,408 880,232 780,116 680,0 560,0 H 464 Q 352,0 248,108 144,216 144,400 Z m 152,0 q 8,-104 64,-176 56,-72 152,-72 104,0 160,68 56,68 56,188 Q 720,600 512,720 304,600 296,400 Z m 16,760 q 8,-216 200,-312 192,104 192,312 0,128 -52,192 -52,64 -140,64 -88,0 -144,-68 -56,-68 -56,-188 z"
         id="path2"
         style="fill:#999999" />
    </g>
  </g>
  <g
     inkscape:groupmode="layer"
     id="layer1"
     inkscape:label="guides"
     style="display:none"
     sodipodi:insensitive="true">
    <g
       style="display:inline;stroke-width:1.15752172"
       id="g4590"
       transform="matrix(0.74634857,0,0,1,71.22708,2)">
      <path
         inkscape:connector-curvature="0"
         id="path824-3"
         d="M -357.86483,1779.351 H 508.54161 1342.7327"
         style="display:inline;fill:none;fill-rule:evenodd;stroke:#ff0000;stroke-width:1.50255322px;stroke-linecap:butt;stroke-linejoin:miter;stroke-opacity:1"
         sodipodi:nodetypes="ccc" />
      <path
         inkscape:connector-curvature="0"
         id="path824-3-6"
         d="M -357.86483,1759.351 H 1342.7327"
         style="display:inline;fill:none;fill-rule:evenodd;stroke:#0000ff;stroke-width:1.50255322px;stroke-linecap:butt;stroke-linejoin:miter;stroke-opacity:1" />
      <path
         inkscape:connector-curvature="0"
         id="path824-3-6-7"
         d="m -357.86483,594.35096 1700.59753,-10e-6"
         style="display:inline;fill:none;fill-rule:evenodd;stroke:#0000ff;stroke-width:1.50255322px;stroke-linecap:butt;stroke-linejoin:miter;stroke-opacity:1" />
      <path
         inkscape:connector-curvature="0"
         id="path824-3-6-7-3-6"
         d="m -357.86483,134.35096 1700.59753,-10e-6"
         style="display:inline;fill:none;fill-rule:evenodd;stroke:#0000ff;stroke-width:1.50255322px;stroke-linecap:butt;stroke-linejoin:miter;stroke-opacity:1" />
      <path
         inkscape:connector-curvature="0"
         id="path824-3-6-7-3-6-3"
         d="m -357.86483,209.35096 1700.00003,-10e-6"
         style="display:inline;fill:none;fill-rule:evenodd;stroke:#00ff00;stroke-width:1.50255322px;stroke-linecap:butt;stroke-linejoin:miter;stroke-opacity:1" />
      <text
         id="text5148"
         y="202.15987"
         x="-158.00842"
         style="font-style:normal;font-weight:normal;font-size:40px;line-height:10.66666698px;font-family:sans-serif;letter-spacing:0px;word-spacing:0px;fill:#000000;fill-opacity:1;stroke:none;stroke-width:1.15752172px;stroke-linecap:butt;stroke-linejoin:miter;stroke-opacity:1"
         xml:space="preserve"><tspan
           style="font-size:26.66666603px;fill:#00ff00;stroke-width:1.15752172px"
           y="202.15987"
           x="-158.00842"
           id="tspan5146"
           sodipodi:role="line">1550</tspan></text>
      <text
         id="text5148-5"
         y="126.15987"
         x="-158.00842"
         style="font-style:normal;font-weight:normal;font-size:40px;line-height:10.66666698px;font-family:sans-serif;letter-spacing:0px;word-spacing:0px;fill:#0000ff;fill-opacity:1;stroke:none;stroke-width:1.15752172px;stroke-linecap:butt;stroke-linejoin:miter;stroke-opacity:1"
         xml:space="preserve"><tspan
           style="font-size:26.66666603px;fill:#0000ff;stroke-width:1.15752172px"
           y="126.15987"
           x="-158.00842"
           id="tspan5146-3"
           sodipodi:role="line">1625</tspan></text>
      <text
         id="text5148-5-5"
         y="586.15985"
         x="-158.00842"
         style="font-style:normal;font-weight:normal;font-size:40px;line-height:10.66666698px;font-family:sans-serif;letter-spacing:0px;word-spacing:0px;fill:#0000ff;fill-opacity:1;stroke:none;stroke-width:1.15752172px;stroke-linecap:butt;stroke-linejoin:miter;stroke-opacity:1"
         xml:space="preserve"><tspan
           style="font-size:26.66666603px;fill:#0000ff;stroke-width:1.15752172px"
           y="586.15985"
           x="-158.00842"
           id="tspan5146-3-6"
           sodipodi:role="line">1165</tspan></text>
      <path
         inkscape:connector-curvature="0"
         id="path824-3-6-7-3-6-3-1"
         d="m -357.86483,259.35096 1700.00003,-10e-6"
         style="display:inline;fill:none;fill-rule:evenodd;stroke:#999999;stroke-width:1.50255322px;stroke-linecap:butt;stroke-linejoin:miter;stroke-opacity:1" />
      <text
         id="text5148-2"
         y="254.15985"
         x="-158.00842"
         style="font-style:normal;font-weight:normal;font-size:40px;line-height:10.66666698px;font-family:sans-serif;letter-spacing:0px;word-spacing:0px;fill:#000000;fill-opacity:1;stroke:none;stroke-width:1.15752172px;stroke-linecap:butt;stroke-linejoin:miter;stroke-opacity:1"
         xml:space="preserve"><tspan
           style="font-size:26.66666603px;fill:#999999;stroke-width:1.15752172px"
           y="254.15985"
           x="-158.00842"
           id="tspan5146-7"
           sodipodi:role="line">1550</tspan></text>
      <path
         inkscape:connector-curvature="0"
         id="path824-3-6-7-3-6-3-1-0"
         d="m -357.86483,1709.351 1700.00003,-1e-4"
         style="display:inline;fill:none;fill-rule:evenodd;stroke:#999999;stroke-width:1.50255322px;stroke-linecap:butt;stroke-linejoin:miter;stroke-opacity:1" />
      <text
         id="text5148-2-9"
         y="1704.1598"
         x="-128.00842"
         style="font-style:normal;font-weight:normal;font-size:40px;line-height:10.66666698px;font-family:sans-serif;letter-spacing:0px;word-spacing:0px;fill:#000000;fill-opacity:1;stroke:none;stroke-width:1.15752172px;stroke-linecap:butt;stroke-linejoin:miter;stroke-opacity:1"
         xml:space="preserve"><tspan
           style="font-size:26.66666603px;fill:#999999;stroke-width:1.15752172px"
           y="1704.1598"
           x="-128.00842"
           id="tspan5146-7-3"
           sodipodi:role="line">50</tspan></text>
      <text
         id="text5148-2-9-6"
         y="1752.1598"
         x="-112.00842"
         style="font-style:normal;font-weight:normal;font-size:40px;line-height:10.66666698px;font-family:sans-serif;letter-spacing:0px;word-spacing:0px;fill:#000000;fill-opacity:1;stroke:none;stroke-width:1.15752172px;stroke-linecap:butt;stroke-linejoin:miter;stroke-opacity:1"
         xml:space="preserve"><tspan
           style="font-size:26.66666603px;fill:#0000ff;stroke-width:1.15752172px"
           y="1752.1598"
           x="-112.00842"
           id="tspan5146-7-3-0"
           sodipodi:role="line">0</tspan></text>
    </g>
  </g>
  <g
     inkscape:groupmode="layer"
     id="layer3"
     inkscape:label="trace"
     style="display:inline">
    <path
       sodipodi:nodetypes="cccccccccc"
       inkscape:connector-curvature="0"
       id="path5848-2-9-9-9-6"
       d="m 563.95913,260.00001 c 78.3001,0 252.04669,95.59369 257.04076,348.97677 0,199.29723 -110.57595,298.757 -306.69335,371.02322 -196.11739,72.2663 -337.99989,197.1273 -337.99989,400.8439 0,260.6223 162.81535,349.1561 338.34662,349.1561 175.53127,0 338.34662,-88.5338 338.34662,-349.1561 C 852.99989,1177.1273 710.42393,1052.2662 514.30654,980 318.18914,907.73378 212.25596,809.3403 208.30665,608.97677 208.30636,355.54448 387.04731,259.99999 465.34741,259.99999 Z"
       style="display:inline;fill:none;fill-rule:evenodd;stroke:#010000;stroke-width:100;stroke-linecap:butt;stroke-linejoin:round;stroke-miterlimit:4;stroke-dasharray:none;stroke-opacity:1"
       class="ext" />
    <path
       sodipodi:nodetypes="ccccccccc"
       inkscape:connector-curvature="0"
       id="path5848-2-90-2-3-7"
       d="M 237.499,606.88359 C 237.499,807.58366 325.75111,910.27482 514.30654,980 702.86198,1049.7252 821.27,1219.8004 819.76149,1387.8299 819.76149,1554.7175 697.14406,1695 515,1695 332.85594,1695 209.54505,1554.7175 209.54505,1387.8299 208.03654,1219.8004 325.75111,1049.7252 514.30654,980 702.86198,910.27483 791.80754,807.20712 791.80754,606.8836 791.80754,402.02866 666.20983,292 514.30654,292 362.40325,291.99999 237.499,402.02865 237.499,606.88359 Z"
       style="display:inline;fill:none;fill-rule:evenodd;stroke:#010000;stroke-width:100;stroke-linecap:butt;stroke-linejoin:miter;stroke-miterlimit:4;stroke-dasharray:none;stroke-opacity:1"
       class="int" />
  </g>
</svg>
