<?xml version="1.0" standalone="no"?>
<!DOCTYPE svg PUBLIC "-//W3C//DTD SVG 1.1//EN" "http://www.w3.org/Graphics/SVG/1.1/DTD/svg11.dtd" >
<svg xmlns="http://www.w3.org/2000/svg" xmlns:xlink="http://www.w3.org/1999/xlink" version="1.1" viewBox="0 -288 2048 2048">
  <g transform="matrix(1 0 0 -1 0 1760)">
   <path fill="currentColor"
d="M96 304q0 336 424 336h160v56q0 80 -44 112t-116 32h-136q-136 0 -216 -56l-64 88q128 88 272 88h176q104 0 192 -60t88 -204v-488l40 -208h-144l-32 88q-120 -88 -312 -88q-288 0 -288 304zM248 1624h256l224 -352h-152zM264 296q0 -184 160 -184q128 0 256 104v304
h-160q-248 0 -256 -224z" />
  </g>

</svg>
