<?xml version="1.0" encoding="UTF-8" standalone="no"?>
<svg
   xmlns:dc="http://purl.org/dc/elements/1.1/"
   xmlns:cc="http://creativecommons.org/ns#"
   xmlns:rdf="http://www.w3.org/1999/02/22-rdf-syntax-ns#"
   xmlns:svg="http://www.w3.org/2000/svg"
   xmlns="http://www.w3.org/2000/svg"
   xmlns:sodipodi="http://sodipodi.sourceforge.net/DTD/sodipodi-0.dtd"
   xmlns:inkscape="http://www.inkscape.org/namespaces/inkscape"
   version="1.1"
   viewBox="0 -288 1296 2048"
   id="svg6"
   sodipodi:docname="A.svg"
   width="1296"
   height="2048"
   inkscape:version="0.92.0 r">
  <metadata
     id="metadata12">
    <rdf:RDF>
      <cc:Work
         rdf:about="">
        <dc:format>image/svg+xml</dc:format>
        <dc:type
           rdf:resource="http://purl.org/dc/dcmitype/StillImage" />
        <dc:title />
      </cc:Work>
    </rdf:RDF>
  </metadata>
  <defs
     id="defs10" />
  <sodipodi:namedview
     pagecolor="#ffffff"
     bordercolor="#666666"
     borderopacity="1"
     objecttolerance="10"
     gridtolerance="10"
     guidetolerance="10"
     inkscape:pageopacity="0"
     inkscape:pageshadow="2"
     inkscape:window-width="1364"
     inkscape:window-height="730"
     id="namedview8"
     showgrid="false"
     showguides="true"
     inkscape:guide-bbox="true"
     inkscape:measure-start="142.668,36.8175"
     inkscape:measure-end="191.276,23.7931"
     inkscape:zoom="0.41964569"
     inkscape:cx="602.94928"
     inkscape:cy="594.47305"
     inkscape:window-x="0"
     inkscape:window-y="18"
     inkscape:window-maximized="0"
     inkscape:current-layer="layer2">
    <sodipodi:guide
       position="647.37424,895.89231"
       orientation="1,0"
       id="guide5107"
       inkscape:locked="false" />
    <sodipodi:guide
       position="-91.118644,1361.3559"
       orientation="1,0"
       id="guide5194"
       inkscape:locked="false" />
  </sodipodi:namedview>
  <g
     inkscape:groupmode="layer"
     id="layer2"
     inkscape:label="trace"
     style="display:inline">
    <path
       style="color:#000000;font-style:normal;font-variant:normal;font-weight:normal;font-stretch:normal;font-size:medium;line-height:normal;font-family:sans-serif;font-variant-ligatures:normal;font-variant-position:normal;font-variant-caps:normal;font-variant-numeric:normal;font-variant-alternates:normal;font-feature-settings:normal;text-indent:0;text-align:start;text-decoration:none;text-decoration-line:none;text-decoration-style:solid;text-decoration-color:#000000;letter-spacing:normal;word-spacing:normal;text-transform:none;writing-mode:lr-tb;direction:ltr;text-orientation:mixed;dominant-baseline:auto;baseline-shift:baseline;text-anchor:start;white-space:normal;shape-padding:0;clip-rule:nonzero;display:inline;overflow:visible;visibility:visible;opacity:1;isolation:auto;mix-blend-mode:normal;color-interpolation:sRGB;color-interpolation-filters:linearRGB;solid-color:#000000;solid-opacity:1;vector-effect:none;fill:#050000;fill-opacity:1;fill-rule:evenodd;stroke:none;stroke-width:100;stroke-linecap:butt;stroke-linejoin:miter;stroke-miterlimit:4;stroke-dasharray:none;stroke-dashoffset:0;stroke-opacity:1;color-rendering:auto;image-rendering:auto;shape-rendering:auto;text-rendering:auto;enable-background:accumulate"
       d="m 558.9375,498 -10.98633,35.04102 c 0,0 -116.21163,370.62699 -232.43164,743.48048 -58.11,186.4267 -116.21965,373.4045 -159.82812,514.959 -21.80424,70.7772 -39.97784,130.18 -52.74805,172.5996 -6.385106,21.2097 -11.412509,38.1443 -14.923829,50.3398 -1.75566,6.0978 -3.123015,10.9691 -4.171875,14.9297 -0.52443,1.9803 -0.964337,3.6851 -1.410156,5.6387 -0.445819,1.9535 -1.589844,-1.0192 -1.589844,13.0117 h 58.000004 42 c 0,4.8343 -0.1788,5.6501 -0.33008,6.9395 0.43283,-1.6343 1.11952,-4.1053 1.91797,-6.9395 h 56.41211 c 0,1.8331 -0.0119,3.2956 -0.0273,4.502 0.008,-0.037 0.0114,-0.09 0.0195,-0.125 0.63693,-2.7759 1.78447,-7.404 3.32227,-13.3086 3.07559,-11.8093 7.73993,-28.9088 13.69727,-50.2383 11.91467,-42.659 29.03008,-102.3903 49.57617,-173.2891 25.91239,-89.4164 57.53123,-197.3914 90.92968,-310.9648 h 504.7168 c 33.04019,112.2113 64.3078,218.9664 89.9668,307.7304 20.54007,71.0558 37.64727,131.0876 49.54297,174.1934 5.9479,21.5529 10.602,38.9172 13.6543,50.9805 1.5262,6.0316 2.6558,10.7817 3.2773,13.6465 0.065,0.3015 0.1118,0.6402 0.1543,0.9785 -0.018,-1.0435 -0.031,-2.309 -0.031,-4.1055 h 56.4121 c 0.7984,2.8342 1.4851,5.3052 1.918,6.9395 -0.1513,-1.2894 -0.3301,-2.1052 -0.3301,-6.9395 h 42 58 c 0,-14.0309 -1.144,-11.0582 -1.5899,-13.0117 -0.4458,-1.9536 -0.8857,-3.6584 -1.4101,-5.6387 -1.0489,-3.9606 -2.4162,-8.8319 -4.1719,-14.9297 -3.5113,-12.1955 -8.5387,-29.1301 -14.9238,-50.3398 -12.7702,-42.4196 -30.9438,-101.8224 -52.7481,-172.5996 C 1097.1943,1649.926 1039.0846,1462.9482 980.97461,1276.5215 864.75459,903.66801 748.54297,533.04102 748.54297,533.04102 L 737.55469,498 H 706.04297 590.39453 Z m 498.7402,1554.1055 c 0.086,4.9628 0.2985,2.3758 0,0 z m -818.85739,0.3965 c -0.52385,2.5169 -0.11059,8.6568 0,0 z M 648.31055,653.90039 c 31.55367,105.41246 104.20993,348.33901 191.98633,644.78121 10.48932,35.425 20.9097,70.7046 31.30273,105.8946 H 425.80273 c 10.10011,-34.2648 20.21607,-68.5858 30.4043,-103.0821 87.86814,-297.5123 160.62842,-541.92983 192.10352,-647.59371 z"
       transform="translate(0,-288)"
       id="path5109-6"
       inkscape:connector-curvature="0" />
  </g>
</svg>
