<?xml version="1.0" encoding="UTF-8" standalone="no"?>
<svg
   xmlns:dc="http://purl.org/dc/elements/1.1/"
   xmlns:cc="http://creativecommons.org/ns#"
   xmlns:rdf="http://www.w3.org/1999/02/22-rdf-syntax-ns#"
   xmlns:svg="http://www.w3.org/2000/svg"
   xmlns="http://www.w3.org/2000/svg"
   xmlns:sodipodi="http://sodipodi.sourceforge.net/DTD/sodipodi-0.dtd"
   xmlns:inkscape="http://www.inkscape.org/namespaces/inkscape"
   version="1.1"
   viewBox="0 -288 1448 2048"
   id="svg6"
   sodipodi:docname="Q.svg"
   width="1448"
   height="2048"
   inkscape:version="0.92.0 r">
  <metadata
     id="metadata12">
    <rdf:RDF>
      <cc:Work
         rdf:about="">
        <dc:format>image/svg+xml</dc:format>
        <dc:type
           rdf:resource="http://purl.org/dc/dcmitype/StillImage" />
        <dc:title />
      </cc:Work>
    </rdf:RDF>
  </metadata>
  <defs
     id="defs10" />
  <sodipodi:namedview
     pagecolor="#ffffff"
     bordercolor="#666666"
     borderopacity="1"
     objecttolerance="10"
     gridtolerance="10"
     guidetolerance="10"
     inkscape:pageopacity="0"
     inkscape:pageshadow="2"
     inkscape:window-width="1364"
     inkscape:window-height="730"
     id="namedview8"
     showgrid="false"
     inkscape:zoom="0.13890157"
     inkscape:cx="-2191.572"
     inkscape:cy="-1403.041"
     inkscape:window-x="0"
     inkscape:window-y="18"
     inkscape:window-maximized="0"
     inkscape:current-layer="layer3"
     showguides="true"
     inkscape:guide-bbox="true"
     inkscape:measure-start="1179.37,-369.024"
     inkscape:measure-end="1179.37,-60.2488">
    <sodipodi:guide
       position="1149.8305,670.37288"
       orientation="1,0"
       id="guide969"
       inkscape:locked="false" />
    <sodipodi:guide
       position="373.24241,1370.8989"
       orientation="1,0"
       id="guide4555"
       inkscape:locked="false" />
    <sodipodi:guide
       position="347.07582,1457.8992"
       orientation="1,0"
       id="guide4557"
       inkscape:locked="false" />
    <sodipodi:guide
       position="201.10513,1171.3809"
       orientation="0,1"
       id="guide4559"
       inkscape:locked="false" />
    <sodipodi:guide
       position="720.3631,1549.8653"
       orientation="1,0"
       id="guide4561"
       inkscape:locked="false" />
  </sodipodi:namedview>
  <g
     inkscape:groupmode="layer"
     id="layer3"
     inkscape:label="trace"
     style="display:inline">
    <path
       style="color:#000000;font-style:normal;font-variant:normal;font-weight:normal;font-stretch:normal;font-size:medium;line-height:normal;font-family:sans-serif;font-variant-ligatures:normal;font-variant-position:normal;font-variant-caps:normal;font-variant-numeric:normal;font-variant-alternates:normal;font-feature-settings:normal;text-indent:0;text-align:start;text-decoration:none;text-decoration-line:none;text-decoration-style:solid;text-decoration-color:#000000;letter-spacing:normal;word-spacing:normal;text-transform:none;writing-mode:lr-tb;direction:ltr;text-orientation:mixed;dominant-baseline:auto;baseline-shift:baseline;text-anchor:start;white-space:normal;shape-padding:0;clip-rule:nonzero;display:inline;overflow:visible;visibility:visible;opacity:1;isolation:auto;mix-blend-mode:normal;color-interpolation:sRGB;color-interpolation-filters:linearRGB;solid-color:#000000;solid-opacity:1;vector-effect:none;fill:#000000;fill-opacity:1;fill-rule:evenodd;stroke:none;stroke-width:100;stroke-linecap:butt;stroke-linejoin:miter;stroke-miterlimit:4;stroke-dasharray:none;stroke-dashoffset:0;stroke-opacity:1;color-rendering:auto;image-rendering:auto;shape-rendering:auto;text-rendering:auto;enable-background:accumulate"
       d="m 676.98828,496.21094 c -169.97495,0 -311.22734,95.00726 -404.35156,238.05078 -93.12393,143.04307 -142.82195,334.35658 -142.82227,542.08208 v 0 c 2.9e-4,224.8174 48.7915,417.9783 147.08789,558.832 98.29529,140.8522 249.19109,226.3574 434.10352,229.0059 3.08107,0.045 6.16444,0.066 9.25195,0.066 6.81964,0 13.58814,-0.1259 20.31641,-0.3477 23.74692,52.2288 53.07845,96.7176 87.3164,134.0059 C 927.35636,2306.2355 1064.6577,2348 1204.627,2348 v -28 -100 c -122.5554,0 -227.93892,-27.8895 -304.377,-105.0898 -18.17882,-18.3602 -35.05414,-39.8873 -50.22266,-65.0821 128.87608,-29.7256 235.40206,-104.1376 311.17966,-211.1543 99.9311,-141.1271 149.4942,-335.6476 149.4942,-562.3281 0,-207.72 -49.6571,-399.03283 -142.7637,-542.08008 C 1074.8309,591.21873 933.56979,496.21094 763.5293,496.21094 Z m 43.99024,146.82812 c 157.59778,0 262.83261,70.49829 336.67188,186.58399 73.8392,116.08569 110.9101,280.00325 110.9101,453.27735 0,193.9645 -38.5068,352.1234 -107.9804,460.8398 -62.62426,97.9981 -147.68032,158.0438 -263.31448,176.3301 -15.25477,-58.4801 -24.66741,-128.2056 -26.55078,-211.3125 -3.9e-4,-0.018 -0.002,-0.035 -0.002,-0.053 -0.0515,-2.2746 -0.0888,-4.5745 -0.12891,-6.8692 -0.0201,-1.1502 -0.0472,-2.2885 -0.0644,-3.4433 -0.0517,-3.4581 -0.0912,-6.9378 -0.11719,-10.4414 -10e-6,-0 2e-5,-0 0,-0.01 -0.026,-3.5056 -0.0391,-7.0344 -0.0391,-10.5859 h -100 c 0,3.7989 0.0146,7.5778 0.043,11.3379 10e-6,0 -10e-6,0 0,0 0.0284,3.7587 0.0703,7.4988 0.12695,11.2187 1.27311,84.1231 9.71321,159.0743 24.57032,225.4629 -136.81763,-6.2316 -234.96925,-63.9463 -306.21094,-166.3789 -75.53538,-108.6061 -117.65821,-271.7297 -117.6582,-475.1035 0,-173.7567 37.37347,-337.87686 111.61718,-454.08595 74.24371,-116.20909 180.05859,-186.77539 338.12696,-186.77539 z"
       transform="translate(0,-288)"
       id="path144"
       inkscape:connector-curvature="0" />
  </g>
  <g
     inkscape:groupmode="layer"
     id="layer4"
     inkscape:label="trace2" />
  <g
     inkscape:groupmode="layer"
     id="layer5"
     inkscape:label="trace3" />
</svg>
