<?xml version="1.0" encoding="UTF-8" standalone="no"?>
<svg
   xmlns:dc="http://purl.org/dc/elements/1.1/"
   xmlns:cc="http://creativecommons.org/ns#"
   xmlns:rdf="http://www.w3.org/1999/02/22-rdf-syntax-ns#"
   xmlns:svg="http://www.w3.org/2000/svg"
   xmlns="http://www.w3.org/2000/svg"
   xmlns:sodipodi="http://sodipodi.sourceforge.net/DTD/sodipodi-0.dtd"
   xmlns:inkscape="http://www.inkscape.org/namespaces/inkscape"
   version="1.1"
   viewBox="0 -288 1232 2048"
   id="svg6"
   sodipodi:docname="X.svg"
   width="1232"
   height="2048"
   inkscape:version="0.92.0 r">
  <metadata
     id="metadata12">
    <rdf:RDF>
      <cc:Work
         rdf:about="">
        <dc:format>image/svg+xml</dc:format>
        <dc:type
           rdf:resource="http://purl.org/dc/dcmitype/StillImage" />
        <dc:title />
      </cc:Work>
    </rdf:RDF>
  </metadata>
  <defs
     id="defs10" />
  <sodipodi:namedview
     pagecolor="#ffffff"
     bordercolor="#666666"
     borderopacity="1"
     objecttolerance="10"
     gridtolerance="10"
     guidetolerance="10"
     inkscape:pageopacity="0"
     inkscape:pageshadow="2"
     inkscape:window-width="1364"
     inkscape:window-height="730"
     id="namedview8"
     showgrid="false"
     inkscape:zoom="0.27015218"
     inkscape:cx="2543.5293"
     inkscape:cy="1770.6902"
     inkscape:window-x="0"
     inkscape:window-y="18"
     inkscape:window-maximized="0"
     inkscape:current-layer="layer3"
     inkscape:measure-start="316.934,14.2978"
     inkscape:measure-end="23.8296,14.2978" />
  <g
     inkscape:groupmode="layer"
     id="layer3"
     inkscape:label="trace">
    <path
       style="color:#000000;font-style:normal;font-variant:normal;font-weight:normal;font-stretch:normal;font-size:medium;line-height:normal;font-family:sans-serif;font-variant-ligatures:normal;font-variant-position:normal;font-variant-caps:normal;font-variant-numeric:normal;font-variant-alternates:normal;font-feature-settings:normal;text-indent:0;text-align:start;text-decoration:none;text-decoration-line:none;text-decoration-style:solid;text-decoration-color:#000000;letter-spacing:normal;word-spacing:normal;text-transform:none;writing-mode:lr-tb;direction:ltr;text-orientation:mixed;dominant-baseline:auto;baseline-shift:baseline;text-anchor:start;white-space:normal;shape-padding:0;clip-rule:nonzero;display:inline;overflow:visible;visibility:visible;opacity:1;isolation:auto;mix-blend-mode:normal;color-interpolation:sRGB;color-interpolation-filters:linearRGB;solid-color:#000000;solid-opacity:1;vector-effect:none;fill:#050000;fill-opacity:1;fill-rule:evenodd;stroke:none;stroke-width:100;stroke-linecap:butt;stroke-linejoin:miter;stroke-miterlimit:4;stroke-dasharray:none;stroke-dashoffset:0;stroke-opacity:1;color-rendering:auto;image-rendering:auto;shape-rendering:auto;text-rendering:auto;enable-background:accumulate"
       d="m 193.45508,477.99609 c 0.0854,0.1772 0.30888,0.57672 0.94922,2.19532 0.12924,0.32669 0.38298,0.5022 0.64062,0.72656 -0.14336,-0.26179 -0.53164,-0.93003 -0.65625,-1.16016 -0.68007,-1.25593 -1.10449,-2.11611 -0.93359,-1.76172 z m 843.06442,0 c 0.1709,-0.35439 -0.2554,0.50579 -0.9355,1.76172 -0.1252,0.23119 -0.5141,0.90287 -0.6582,1.16602 0.2601,-0.22667 0.5143,-0.40338 0.6445,-0.73242 0.6404,-1.6186 0.8638,-2.01812 0.9492,-2.19532 z m -2.9531,5.33399 c -1.4166,2.54378 -2.7658,4.98029 -5.1387,9.09375 -0.9598,1.66396 -2.1405,3.68547 -3.2402,5.57617 h -51.36719 c 0,-5.91386 0.3166,-8.80772 0.68555,-10.72656 -1.1413,2.5889 -2.61682,5.86805 -4.99414,10.82226 -5.66416,11.80383 -14.37556,29.19273 -25.50977,50.93164 -22.2684,43.47784 -54.31784,104.58924 -92.79297,177.23047 C 785.84927,849.6573 701.74465,1006.6908 614.98828,1168.248 528.23176,1006.6906 444.12546,849.65751 378.76562,726.25781 340.2905,653.61658 308.24106,592.50518 285.97266,549.02734 274.83845,527.28843 266.12705,509.89953 260.46289,498.0957 c -2.37732,-4.95421 -3.85284,-8.23336 -4.99414,-10.82226 0.36895,1.91884 0.68555,4.8127 0.68555,10.72656 h -51.36719 c -1.09973,-1.8907 -2.28038,-3.91221 -3.24023,-5.57617 -2.37172,-4.11147 -3.72024,-6.54643 -5.13672,-9.08985 0.70859,2.07207 1.33007,5.98554 1.33007,14.66602 H 156.1543 97.740234 c 0,18.45455 2.811026,16.78773 3.677736,18.97852 0.8667,2.19078 1.42827,3.3445 1.96289,4.45312 1.06923,2.21725 1.98419,3.93198 3.07226,5.94141 2.17615,4.01885 4.93308,8.88349 8.47266,15.01953 7.07916,12.27208 17.18335,29.39603 30.02149,50.93164 25.67627,43.07122 62.21035,103.64703 106.04296,176.00586 83.62195,138.04299 194.10142,319.44222 305.46289,502.35542 -111.45681,183.089 -221.79417,364.4735 -305.49804,503.0704 -43.84203,72.5935 -80.38588,133.4592 -106.09375,176.914 -12.85394,21.7274 -22.97619,39.0591 -30.10742,51.6211 -3.56562,6.281 -6.35334,11.3015 -8.60157,15.584 -1.12411,2.1412 -2.08929,4.012 -3.22265,6.4961 -0.56668,1.242 -1.17366,2.5674 -2.03907,4.9609 -0.86539,2.3936 -3.150386,3.0219 -3.150386,17.668 h 54.142576 c 0,0.015 0,0.026 0,0.041 h 45.85742 c -0.004,14.3409 -2.17021,14.5273 -2.80859,16.293 -0.63903,1.7674 -0.90592,2.2873 -1.02344,2.5449 -0.23503,0.5151 0.13917,-0.2947 0.78321,-1.5215 1.28806,-2.4535 3.74853,-6.9214 7.02734,-12.6972 0.78247,-1.3784 1.76843,-3.0859 2.64648,-4.6192 h 47.51758 c 0,8.2254 -0.60465,11.6348 -1.23633,13.2988 1.25416,-2.5663 2.85572,-5.7896 5.03321,-10.0703 5.80782,-11.4173 14.57624,-28.2534 25.75781,-49.4785 22.36313,-42.4502 54.44468,-102.6034 92.94922,-174.4883 66.31644,-123.8073 152.54325,-284.0254 240.60156,-447.8007 88.05816,163.7751 174.28328,323.9936 240.59961,447.8007 38.50454,71.8849 70.58608,132.0381 92.94922,174.4883 11.18157,21.2251 19.94999,38.0612 25.75781,49.4785 2.17348,4.2728 3.77164,7.4914 5.02539,10.0567 -0.62986,-1.669 -1.23047,-5.0815 -1.23047,-13.2852 h 47.51956 c 0.878,1.5333 1.864,3.2408 2.6465,4.6192 3.2788,5.7758 5.7392,10.2437 7.0273,12.6972 0.644,1.2268 1.0182,2.0366 0.7832,1.5215 -0.1175,-0.2576 -0.3844,-0.7775 -1.0234,-2.5449 -0.6385,-1.7657 -2.8042,-1.9521 -2.8086,-16.293 h 45.8554 c 0,-0.015 0,-0.026 0,-0.041 h 54.1446 c 0,-14.6461 -2.285,-15.2744 -3.1504,-17.668 -0.8654,-2.3935 -1.4724,-3.7189 -2.0391,-4.9609 -1.1333,-2.4841 -2.0985,-4.3549 -3.2226,-6.4961 -2.2483,-4.2825 -5.036,-9.303 -8.6016,-15.584 -7.1312,-12.562 -17.2535,-29.8937 -30.1074,-51.6211 -25.7079,-43.4548 -62.2517,-104.3205 -106.09377,-176.914 C 895.31588,1636.1594 784.978,1454.7759 673.52148,1271.6875 784.88326,1088.7738 895.3622,907.37343 978.98438,769.33008 1022.817,696.97125 1059.3511,636.39544 1085.0273,593.32422 c 12.8382,-21.53561 22.9424,-38.65956 30.0215,-50.93164 3.5396,-6.13604 6.2965,-11.00068 8.4727,-15.01953 1.0881,-2.00943 2.003,-3.72416 3.0723,-5.94141 0.5345,-1.10862 1.0961,-2.26234 1.9628,-4.45312 0.8667,-2.19079 3.6778,-0.52397 3.6778,-18.97852 h -58.4141 -41.5859 c 0,-8.68434 0.623,-12.59873 1.332,-14.66992 z M 979.32031,2061.3262 c 0.15367,0.4071 0.30434,0.6858 0.45313,0.9277 -0.13651,-0.2816 -0.3012,-0.6169 -0.45313,-0.9277 z m 0.45313,0.9277 c 0.24206,0.4993 0.61294,1.2413 0.80468,1.6445 0.5961,1.2537 0.96572,2.1073 0.82618,1.7754 -0.0698,-0.1659 -0.26338,-0.5611 -0.78321,-2.084 -0.16635,-0.4873 -0.49058,-0.7555 -0.84765,-1.3359 z m -729.12696,-0.9141 c -0.14695,0.3007 -0.30697,0.6253 -0.43945,0.8985 0.14437,-0.2367 0.2906,-0.5063 0.43945,-0.8985 z m -0.43945,0.8985 c -0.3608,0.5916 -0.68767,0.86 -0.85547,1.3515 -0.51983,1.5229 -0.71148,1.9181 -0.78125,2.084 -0.13954,0.3319 0.23008,-0.5217 0.82617,-1.7754 0.19349,-0.4069 0.56584,-1.1554 0.81055,-1.6601 z"
       transform="translate(0,-288)"
       id="path5109-6"
       inkscape:connector-curvature="0" />
  </g>
</svg>
