<?xml version="1.0" encoding="UTF-8" standalone="no"?>
<!--?xml version="1.0" encoding="UTF-8" standalone="no"?-->

<svg
   xmlns:dc="http://purl.org/dc/elements/1.1/"
   xmlns:cc="http://creativecommons.org/ns#"
   xmlns:rdf="http://www.w3.org/1999/02/22-rdf-syntax-ns#"
   xmlns:svg="http://www.w3.org/2000/svg"
   xmlns="http://www.w3.org/2000/svg"
   xmlns:sodipodi="http://sodipodi.sourceforge.net/DTD/sodipodi-0.dtd"
   xmlns:inkscape="http://www.inkscape.org/namespaces/inkscape"
   version="1.1"
   viewBox="0 -288 1016 2048"
   id="svg6"
   sodipodi:docname="b.svg"
   width="1016"
   height="2048"
   inkscape:version="0.92.1 r">
  <metadata
     id="metadata12">
    <rdf:rdf>
      <cc:work
         rdf:about="">
        <dc:format>image/svg+xml</dc:format>
        <dc:type
           rdf:resource="http://purl.org/dc/dcmitype/StillImage" />
        <dc:title />
      </cc:work>
    </rdf:rdf>
    <rdf:RDF>
      <cc:Work
         rdf:about="">
        <dc:format>image/svg+xml</dc:format>
        <dc:type
           rdf:resource="http://purl.org/dc/dcmitype/StillImage" />
      </cc:Work>
    </rdf:RDF>
  </metadata>
  <defs
     id="defs10" />
  <sodipodi:namedview
     pagecolor="#ffffff"
     bordercolor="#666666"
     borderopacity="1"
     objecttolerance="10"
     gridtolerance="10"
     guidetolerance="10"
     inkscape:pageopacity="0"
     inkscape:pageshadow="2"
     inkscape:window-width="2558"
     inkscape:window-height="1402"
     id="namedview8"
     showgrid="false"
     inkscape:zoom="2.4178508"
     inkscape:cx="306.96006"
     inkscape:cy="795.53725"
     inkscape:window-x="0"
     inkscape:window-y="18"
     inkscape:window-maximized="0"
     inkscape:current-layer="layer2"
     inkscape:measure-start="169.22,1.62712"
     inkscape:measure-end="269.017,1.62712" />
  <g
     inkscape:groupmode="layer"
     id="layer2"
     inkscape:label="trace">
    <path
       style="color:#000000;font-style:normal;font-variant:normal;font-weight:normal;font-stretch:normal;font-size:medium;line-height:normal;font-family:sans-serif;font-variant-ligatures:normal;font-variant-position:normal;font-variant-caps:normal;font-variant-numeric:normal;font-variant-alternates:normal;font-feature-settings:normal;text-indent:0;text-align:start;text-decoration:none;text-decoration-line:none;text-decoration-style:solid;text-decoration-color:#000000;letter-spacing:normal;word-spacing:normal;text-transform:none;writing-mode:lr-tb;direction:ltr;text-orientation:mixed;dominant-baseline:auto;baseline-shift:baseline;text-anchor:start;white-space:normal;shape-padding:0;clip-rule:nonzero;display:inline;overflow:visible;visibility:visible;opacity:1;isolation:auto;mix-blend-mode:normal;color-interpolation:sRGB;color-interpolation-filters:linearRGB;solid-color:#000000;solid-opacity:1;vector-effect:none;fill:#000000;fill-opacity:0.99708198;fill-rule:evenodd;stroke:none;stroke-width:89.30282593;stroke-linecap:butt;stroke-linejoin:miter;stroke-miterlimit:4;stroke-dasharray:none;stroke-dashoffset:0;stroke-opacity:1;color-rendering:auto;image-rendering:auto;shape-rendering:auto;text-rendering:auto;enable-background:accumulate"
       d="M 174.26562,752.26758 V 992.72656 1881.457 2048 h 89.30274 c 0,2.0307 -0.0238,2.8951 -0.043,3.9902 0.0373,-0.3176 0.0778,-0.6345 0.13477,-0.8945 0.56115,-2.5617 1.53932,-6.6749 2.7832,-11.6621 2.48775,-9.9743 6.0559,-23.5976 10.03516,-38.5762 2.01999,-7.6036 4.232,-15.8486 6.38671,-23.9004 65.15769,45.3535 157.59977,92.0196 262.16407,92.0196 115.38652,0 206.86179,-61.693 261.76953,-153.8477 54.90774,-92.1547 78.85351,-213.2318 78.85351,-346.4629 0,-128.5606 -16.10545,-236.87 -58.95117,-318.7793 C 783.85546,1167.9774 706.5389,1114.7266 609.6875,1114.7266 l -94.41602,-0.6797 h -0.16015 c -53.88008,0 -105.91503,27.6602 -164.49414,59.5996 -12.01371,6.5503 -24.03943,13.3877 -35.9336,20.3711 -4.3806,2.3245 -8.59492,4.6312 -12.69336,6.9199 V 992.72656 752.26758 h -38.42187 z m 89.25977,1299.72262 c -0.26877,2.2892 -0.0841,4.7982 0,0 z m 286.30273,-832.3691 c 64.19367,0.1048 105.85438,9.3223 138.2168,49.4727 33.40637,41.4456 60.65039,129.9996 60.65039,298.8593 0,115.8874 -17.14586,216.2566 -53.66797,282.2305 -36.50534,65.9436 -85.72419,101.0972 -176.16992,101.5742 -82.13237,-0.023 -146.15403,-28.1209 -185.71875,-51.9473 -11.32526,-7.837 -21.74504,-15.5716 -31.14844,-22.8867 v -569.916 c 3.78723,-2.4753 7.62323,-4.9583 11.51563,-7.4512 46.97918,-28.8226 142.54954,-79.916 229.72461,-79.916 h 0.15625 l 0.1582,-0 c 2.1181,-0.015 4.21244,-0.021 6.2832,-0.018 z"
       transform="translate(0,-288)"
       id="path5236-72-2"
       inkscape:connector-curvature="0" />
  </g>
</svg>
