<?xml version="1.0" encoding="UTF-8" standalone="no"?>
<!--?xml version="1.0" encoding="UTF-8" standalone="no"?-->

<svg
   xmlns:dc="http://purl.org/dc/elements/1.1/"
   xmlns:cc="http://creativecommons.org/ns#"
   xmlns:rdf="http://www.w3.org/1999/02/22-rdf-syntax-ns#"
   xmlns:svg="http://www.w3.org/2000/svg"
   xmlns="http://www.w3.org/2000/svg"
   xmlns:sodipodi="http://sodipodi.sourceforge.net/DTD/sodipodi-0.dtd"
   xmlns:inkscape="http://www.inkscape.org/namespaces/inkscape"
   version="1.1"
   viewBox="0 -288 1024 2048"
   id="svg6"
   sodipodi:docname="five.svg"
   width="1024"
   height="2048"
   inkscape:version="0.92.1 r">
  <metadata
     id="metadata12">
    <rdf:rdf>
      <cc:work
         rdf:about="">
        <dc:format>image/svg+xml</dc:format>
        <dc:type
           rdf:resource="http://purl.org/dc/dcmitype/StillImage" />
        <dc:title />
      </cc:work>
    </rdf:rdf>
    <rdf:RDF>
      <cc:Work
         rdf:about="">
        <dc:format>image/svg+xml</dc:format>
        <dc:type
           rdf:resource="http://purl.org/dc/dcmitype/StillImage" />
      </cc:Work>
    </rdf:RDF>
  </metadata>
  <defs
     id="defs10" />
  <sodipodi:namedview
     pagecolor="#ffffff"
     bordercolor="#666666"
     borderopacity="1"
     objecttolerance="10"
     gridtolerance="10"
     guidetolerance="10"
     inkscape:pageopacity="0"
     inkscape:pageshadow="2"
     inkscape:window-width="2558"
     inkscape:window-height="1402"
     id="namedview8"
     showgrid="false"
     inkscape:zoom="2.4156611"
     inkscape:cx="-257.14342"
     inkscape:cy="691.8829"
     inkscape:window-x="0"
     inkscape:window-y="18"
     inkscape:window-maximized="0"
     inkscape:current-layer="layer3"
     inkscape:measure-start="-6.11514,1420.24"
     inkscape:measure-end="421.944,1420.24"
     showguides="true"
     inkscape:guide-bbox="true">
    <sodipodi:guide
       position="845.51112,411.80334"
       orientation="1,0"
       id="guide4527"
       inkscape:locked="false" />
    <sodipodi:guide
       position="137.32824,1138.2237"
       orientation="1,0"
       id="guide4520"
       inkscape:locked="false" />
    <sodipodi:guide
       position="505.1881,1241.5236"
       orientation="1,0"
       id="guide4524"
       inkscape:locked="false" />
    <sodipodi:guide
       position="824.20725,1164.9709"
       orientation="0,1"
       id="guide4526"
       inkscape:locked="false" />
    <sodipodi:guide
       position="150.82,1465.3865"
       orientation="0,1"
       id="guide83"
       inkscape:locked="false" />
  </sodipodi:namedview>
  <g
     inkscape:groupmode="layer"
     id="layer3"
     inkscape:label="trace"
     style="display:inline">
    <path
       style="color:#000000;font-style:normal;font-variant:normal;font-weight:normal;font-stretch:normal;font-size:medium;line-height:normal;font-family:sans-serif;font-variant-ligatures:normal;font-variant-position:normal;font-variant-caps:normal;font-variant-numeric:normal;font-variant-alternates:normal;font-feature-settings:normal;text-indent:0;text-align:start;text-decoration:none;text-decoration-line:none;text-decoration-style:solid;text-decoration-color:#000000;letter-spacing:normal;word-spacing:normal;text-transform:none;writing-mode:lr-tb;direction:ltr;text-orientation:mixed;dominant-baseline:auto;baseline-shift:baseline;text-anchor:start;white-space:normal;shape-padding:0;clip-rule:nonzero;display:inline;overflow:visible;visibility:visible;opacity:1;isolation:auto;mix-blend-mode:normal;color-interpolation:sRGB;color-interpolation-filters:linearRGB;solid-color:#000000;solid-opacity:1;vector-effect:none;fill:#000000;fill-opacity:1;fill-rule:evenodd;stroke:none;stroke-width:88.67889404;stroke-linecap:butt;stroke-linejoin:miter;stroke-miterlimit:4;stroke-dasharray:none;stroke-dashoffset:0;stroke-opacity:1;color-rendering:auto;image-rendering:auto;shape-rendering:auto;text-rendering:auto;enable-background:accumulate"
       d="m 150.73242,819.32031 -0.71484,444.65819 -2.19336,21.6367 2.15625,1.7481 -0.008,4.5937 18.79882,10.6387 70.16211,56.8711 25.21094,-11.9219 c 0,0 72.88858,-33.7422 159.18164,-33.7422 h 0.50195 l 0.50196,-0.012 c 64.77933,-1.4652 149.73142,24.9588 214.77539,76.1641 65.04397,51.2052 110.91992,123.6724 110.91992,221.0918 0,85.2643 -27.2515,168.7716 -77.73047,229.2656 -50.41949,60.4227 -122.48637,99.7551 -223.57812,99.8477 -92.33602,-1.6647 -163.49956,-14.9118 -212.88672,-27.6348 -24.73299,-6.3717 -43.93802,-12.59 -58.07031,-17.3652 -7.06615,-2.3877 -12.79635,-4.4018 -17.95704,-6.0899 -5.16068,-1.6881 -3.9563,-4.4453 -22.47461,-4.4453 v 39.8672 48.8125 c -3.01833,0 -4.5682,-0.062 -6.09374,-0.1211 0.33975,0.069 0.69165,0.072 0.99804,0.1719 1.29395,0.4232 3.22253,1.0809 5.0957,1.7187 v 38.0977 c -3.99385,0 -5.38128,-0.063 -6.16015,-0.1367 0.64494,0.079 1.28364,0.1757 1.83398,0.3457 3.86169,1.1923 10.09798,3.2294 17.95899,5.6972 15.722,4.9357 38.19543,11.6524 66.52344,18.3262 56.65598,13.3476 136.98484,26.5957 237.4707,26.5957 137.15833,0 245.87237,-54.5359 316.26562,-139.7949 70.39326,-85.259 103.44336,-198.4242 103.44336,-316.4356 0,-224.7627 -201.95278,-400.9187 -434.0039,-401.2988 -72.82988,-0.1193 -127.93607,10.5332 -165.47852,21.7305 -13.53755,4.0376 -24.36762,8.2112 -33.62891,12.0898 L 271.25195,947.32422 H 880 V 908 858.64453 819.32031 Z M 131.16797,2013.0352 c -0.32283,-0.04 -0.64764,-0.082 -0.96289,-0.1114 0.28172,0.036 0.57287,0.075 0.96289,0.1114 z"
       transform="translate(0,-288)"
       id="path5236-7-72-2-3"
       inkscape:connector-curvature="0" />
  </g>
</svg>
