<?xml version="1.0" encoding="UTF-8" standalone="no"?>
<!--?xml version="1.0" encoding="UTF-8" standalone="no"?-->

<svg
   xmlns:dc="http://purl.org/dc/elements/1.1/"
   xmlns:cc="http://creativecommons.org/ns#"
   xmlns:rdf="http://www.w3.org/1999/02/22-rdf-syntax-ns#"
   xmlns:svg="http://www.w3.org/2000/svg"
   xmlns="http://www.w3.org/2000/svg"
   xmlns:sodipodi="http://sodipodi.sourceforge.net/DTD/sodipodi-0.dtd"
   xmlns:inkscape="http://www.inkscape.org/namespaces/inkscape"
   version="1.1"
   viewBox="0 -288 1112 2048"
   id="svg6"
   sodipodi:docname="J.svg"
   width="1112"
   height="2048"
   inkscape:version="0.92.1 r">
  <metadata
     id="metadata12">
    <rdf:rdf>
      <cc:work
         rdf:about="">
        <dc:format>image/svg+xml</dc:format>
        <dc:type
           rdf:resource="http://purl.org/dc/dcmitype/StillImage" />
        <dc:title />
      </cc:work>
    </rdf:rdf>
    <rdf:RDF>
      <cc:Work
         rdf:about="">
        <dc:format>image/svg+xml</dc:format>
        <dc:type
           rdf:resource="http://purl.org/dc/dcmitype/StillImage" />
      </cc:Work>
    </rdf:RDF>
  </metadata>
  <defs
     id="defs10" />
  <sodipodi:namedview
     pagecolor="#ffffff"
     bordercolor="#666666"
     borderopacity="1"
     objecttolerance="10"
     gridtolerance="10"
     guidetolerance="10"
     inkscape:pageopacity="0"
     inkscape:pageshadow="2"
     inkscape:window-width="2558"
     inkscape:window-height="1402"
     id="namedview8"
     showgrid="false"
     inkscape:zoom="0.66683605"
     inkscape:cx="-3177.3676"
     inkscape:cy="486.64179"
     inkscape:window-x="0"
     inkscape:window-y="18"
     inkscape:window-maximized="0"
     inkscape:current-layer="layer3"
     inkscape:measure-start="120.108,85.841"
     inkscape:measure-end="120.108,197.642" />
  <g
     inkscape:groupmode="layer"
     id="layer3"
     inkscape:label="trace">
    <path
       style="color:#000000;font-style:normal;font-variant:normal;font-weight:normal;font-stretch:normal;font-size:medium;line-height:normal;font-family:sans-serif;font-variant-ligatures:normal;font-variant-position:normal;font-variant-caps:normal;font-variant-numeric:normal;font-variant-alternates:normal;font-feature-settings:normal;text-indent:0;text-align:start;text-decoration:none;text-decoration-line:none;text-decoration-style:solid;text-decoration-color:#000000;letter-spacing:normal;word-spacing:normal;text-transform:none;writing-mode:lr-tb;direction:ltr;text-orientation:mixed;dominant-baseline:auto;baseline-shift:baseline;text-anchor:start;white-space:normal;shape-padding:0;clip-rule:nonzero;display:inline;overflow:visible;visibility:visible;opacity:1;isolation:auto;mix-blend-mode:normal;color-interpolation:sRGB;color-interpolation-filters:linearRGB;solid-color:#000000;solid-opacity:1;vector-effect:none;fill:#000000;fill-opacity:1;fill-rule:evenodd;stroke:none;stroke-width:89.07416534;stroke-linecap:butt;stroke-linejoin:miter;stroke-miterlimit:4;stroke-dasharray:none;stroke-dashoffset:0;stroke-opacity:1;color-rendering:auto;image-rendering:auto;shape-rendering:auto;text-rendering:auto;enable-background:accumulate"
       d="m 812.25195,813.46094 v 818.39066 c 0,130.2973 -42.39189,199.2016 -107.28906,243.6699 -64.89717,44.4683 -158.99543,62.1619 -259.08203,63.7031 -69.30293,1.0671 -147.26934,-14.3536 -207.56445,-30.4824 -30.14756,-8.0644 -55.93456,-16.2263 -74.49219,-22.3906 -9.27882,-3.0822 -16.71722,-5.6541 -22.24024,-7.5469 -2.7615,-0.9464 -4.99533,-1.7099 -7.12304,-2.3985 -1.06386,-0.3442 -2.04974,-0.6627 -3.55469,-1.0839 -1.50495,-0.4213 1.44335,-1.8438 -12.90625,-1.8438 v 45.3555 43.7187 c -3.43466,0 -5.75901,-0.083 -7.41016,-0.2011 0.79877,0.271 1.12371,0.375 2.11524,0.7148 1.43178,0.4907 3.50101,1.1992 5.29492,1.8145 v 43.0273 c -4.16162,0 -5.20536,-0.1776 -6.29492,-0.3359 0.84329,0.235 1.51749,0.4146 3.06836,0.8769 4.63632,1.3822 11.7541,3.5979 20.60547,6.2735 17.70273,5.351 42.55148,12.5954 72.51367,19.8554 59.92438,14.5201 140.42695,29.247 228.3164,29.4199 h 0.75 l 0.75196,-0.025 c 90.40974,-2.8719 215.96343,-15.3036 322.0957,-79.0762 105.83272,-63.5925 186.87743,-184.6589 177.68555,-374.1074 V 813.46094 h -36.16602 -52.9082 z"
       transform="translate(0,-288)"
       id="path5829-3-3"
       inkscape:connector-curvature="0" />
  </g>
</svg>
