<?xml version="1.0" encoding="UTF-8" standalone="no"?>
<!--?xml version="1.0" encoding="UTF-8" standalone="no"?-->

<svg
   xmlns:dc="http://purl.org/dc/elements/1.1/"
   xmlns:cc="http://creativecommons.org/ns#"
   xmlns:rdf="http://www.w3.org/1999/02/22-rdf-syntax-ns#"
   xmlns:svg="http://www.w3.org/2000/svg"
   xmlns="http://www.w3.org/2000/svg"
   xmlns:sodipodi="http://sodipodi.sourceforge.net/DTD/sodipodi-0.dtd"
   xmlns:inkscape="http://www.inkscape.org/namespaces/inkscape"
   version="1.1"
   viewBox="0 -288 1224 2048"
   id="svg6"
   sodipodi:docname="K.svg"
   width="1224"
   height="2048"
   inkscape:version="0.92.1 r">
  <metadata
     id="metadata12">
    <rdf:rdf>
      <cc:work
         rdf:about="">
        <dc:format>image/svg+xml</dc:format>
        <dc:type
           rdf:resource="http://purl.org/dc/dcmitype/StillImage" />
        <dc:title />
      </cc:work>
    </rdf:rdf>
    <rdf:RDF>
      <cc:Work
         rdf:about="">
        <dc:format>image/svg+xml</dc:format>
        <dc:type
           rdf:resource="http://purl.org/dc/dcmitype/StillImage" />
      </cc:Work>
    </rdf:RDF>
  </metadata>
  <defs
     id="defs10" />
  <sodipodi:namedview
     pagecolor="#ffffff"
     bordercolor="#666666"
     borderopacity="1"
     objecttolerance="10"
     gridtolerance="10"
     guidetolerance="10"
     inkscape:pageopacity="0"
     inkscape:pageshadow="2"
     inkscape:window-width="2558"
     inkscape:window-height="1402"
     id="namedview8"
     showgrid="false"
     inkscape:zoom="0.8548393"
     inkscape:cx="-1294.4211"
     inkscape:cy="280.08303"
     inkscape:window-x="0"
     inkscape:window-y="18"
     inkscape:window-maximized="0"
     inkscape:current-layer="layer3"
     inkscape:measure-start="728.887,1159.89"
     inkscape:measure-end="796.441,1159.89" />
  <g
     inkscape:groupmode="layer"
     id="layer3"
     inkscape:label="trace"
     style="display:inline">
    <path
       style="color:#000000;font-style:normal;font-variant:normal;font-weight:normal;font-stretch:normal;font-size:medium;line-height:normal;font-family:sans-serif;font-variant-ligatures:normal;font-variant-position:normal;font-variant-caps:normal;font-variant-numeric:normal;font-variant-alternates:normal;font-feature-settings:normal;text-indent:0;text-align:start;text-decoration:none;text-decoration-line:none;text-decoration-style:solid;text-decoration-color:#000000;letter-spacing:normal;word-spacing:normal;text-transform:none;writing-mode:lr-tb;direction:ltr;text-orientation:mixed;dominant-baseline:auto;baseline-shift:baseline;text-anchor:start;white-space:normal;shape-padding:0;clip-rule:nonzero;display:inline;overflow:visible;visibility:visible;opacity:1;isolation:auto;mix-blend-mode:normal;color-interpolation:sRGB;color-interpolation-filters:linearRGB;solid-color:#000000;solid-opacity:1;vector-effect:none;fill:#000000;fill-opacity:1;fill-rule:evenodd;stroke:none;stroke-width:89.07145691;stroke-linecap:butt;stroke-linejoin:miter;stroke-miterlimit:4;stroke-dasharray:none;stroke-dashoffset:0;stroke-opacity:1;color-rendering:auto;image-rendering:auto;shape-rendering:auto;text-rendering:auto;enable-background:accumulate"
       d="m 1023.8789,787.79688 c 0.1881,-0.1708 -0.2404,0.21392 -0.8711,0.75585 -0.7628,0.65546 -2.4966,2.10676 -3.9258,3.3086 0.4673,0.0981 0.8596,0.12504 1.0742,-0.13281 1.4946,-1.79573 2.0732,-2.32626 2.5313,-2.78711 0.9163,-0.92171 1.0974,-1.05914 1.1914,-1.14453 z m -49.16601,1.18945 c -0.0437,0.0418 -0.21484,0.20546 -0.4375,0.4082 -0.89063,0.81103 -2.85568,2.5506 -5.47461,4.81836 -5.23785,4.53551 -13.26527,11.36518 -23.5039,20.00195 -20.47731,17.27356 -49.90508,41.86602 -85.22657,71.26563 -70.64297,58.79923 -164.91714,136.87093 -259.19922,214.81053 -94.28208,77.9397 -188.58067,155.7547 -259.31836,214.0801 -18.41868,15.1867 -29.71015,24.4853 -44.51757,36.6875 V 820.1582 h -37.76954 -89.07031 v 1229.7266 h 89.07031 37.76954 v -557.2364 c 21.73912,-17.3766 47.70467,-38.2128 79.43554,-63.7754 27.36939,-22.0488 58.56584,-47.2406 91.05664,-73.5 49.73173,69.6221 138.48173,194.0525 230.55664,324.2461 67.87598,95.9765 135.74875,192.5399 186.50391,266.0704 25.37758,36.7652 46.50212,67.8162 61.01758,89.8535 7.25773,11.0186 12.89748,19.8552 16.30859,25.5078 1.66219,2.7544 2.78809,4.783 3.0586,5.2988 -0.0925,-0.1955 -0.26079,-0.5742 -0.54883,-1.291 -0.59221,-1.475 -2.8125,-2.1115 -2.8125,-15.1738 h 39.47457 c 4.1872,5.9742 7.8798,11.2808 10.3672,14.9472 1.8983,2.798 3.2943,4.9332 3.8242,5.7774 0.265,0.4221 0.3452,0.6104 -0.164,-0.3223 -0.2546,-0.4663 -0.6514,-1.1375 -1.4727,-3.0332 -0.8212,-1.8957 -3.5683,-1.8671 -3.5683,-17.3691 h 40.6113 48.4609 c 0,-15.6327 -2.8163,-15.8277 -3.7734,-18.0371 -0.9572,-2.2095 -1.5558,-3.2839 -2.0801,-4.2442 -1.0486,-1.9206 -1.7755,-3.0783 -2.5722,-4.3476 -1.5935,-2.5387 -3.3453,-5.1701 -5.5567,-8.4297 -4.4229,-6.5192 -10.5422,-15.2852 -18.2988,-26.2559 -15.5132,-21.9413 -37.4777,-52.5468 -63.8242,-89.0254 -52.6932,-72.9571 -122.85584,-169.3177 -193.01762,-265.416 -120.25122,-164.7041 -223.60001,-305.5821 -255.5371,-349.1055 36.13889,-29.2624 73.0024,-59.1293 110.27929,-89.3672 104.60334,-84.851 209.05259,-169.7764 287.38672,-233.67768 39.16707,-31.95066 71.79811,-58.6382 94.70511,-77.47461 11.4534,-9.41821 20.4596,-16.86049 26.7363,-22.09961 3.1383,-2.61956 5.5671,-4.66408 7.4629,-6.29297 0.9479,-0.81445 1.715,-1.47588 2.7051,-2.375 0.495,-0.44956 0.9793,-0.87305 2.0976,-1.99805 0.5592,-0.5625 1.2145,-1.17263 2.7598,-3.0293 1.5453,-1.85667 10.3418,9.41859 10.3418,-28.55078 h -48 -41.0703 c 0,-11.50148 0.8489,-18.13467 2.0136,-22.32226 -5.7491,4.77748 -12.25263,10.16548 -21.62105,17.86914 -1.5033,1.23616 -3.84319,3.14818 -5.43164,4.45312 h -22.96094 c 0,-20.73643 5.47331,-21.60191 7.17383,-24.21484 1.70052,-2.61293 2.58876,-3.58948 3.26172,-4.38281 1.34591,-1.58667 1.77254,-1.96003 2.06055,-2.24805 0.28801,-0.28803 0.3718,-0.36799 0.32812,-0.32617 z m -9.74023,1277.36327 c 0.0978,0.2067 0.10983,0.2061 0.0508,0.092 -0.006,-0.011 -0.0437,-0.078 -0.0508,-0.092 z"
       transform="translate(0,-288)"
       id="path5236-3-9-6"
       inkscape:connector-curvature="0" />
  </g>
</svg>
