<?xml version="1.0" encoding="UTF-8" standalone="no"?>
<!--?xml version="1.0" encoding="UTF-8" standalone="no"?-->

<svg
   xmlns:dc="http://purl.org/dc/elements/1.1/"
   xmlns:cc="http://creativecommons.org/ns#"
   xmlns:rdf="http://www.w3.org/1999/02/22-rdf-syntax-ns#"
   xmlns:svg="http://www.w3.org/2000/svg"
   xmlns="http://www.w3.org/2000/svg"
   xmlns:sodipodi="http://sodipodi.sourceforge.net/DTD/sodipodi-0.dtd"
   xmlns:inkscape="http://www.inkscape.org/namespaces/inkscape"
   version="1.1"
   viewBox="0 -288 944 2048"
   id="svg6"
   sodipodi:docname="k.svg"
   width="944"
   height="2048"
   inkscape:version="0.92.1 r">
  <metadata
     id="metadata12">
    <rdf:rdf>
      <cc:work
         rdf:about="">
        <dc:format>image/svg+xml</dc:format>
        <dc:type
           rdf:resource="http://purl.org/dc/dcmitype/StillImage" />
        <dc:title />
      </cc:work>
    </rdf:rdf>
    <rdf:RDF>
      <cc:Work
         rdf:about="">
        <dc:format>image/svg+xml</dc:format>
        <dc:type
           rdf:resource="http://purl.org/dc/dcmitype/StillImage" />
      </cc:Work>
    </rdf:RDF>
  </metadata>
  <defs
     id="defs10" />
  <sodipodi:namedview
     pagecolor="#ffffff"
     bordercolor="#666666"
     borderopacity="1"
     objecttolerance="10"
     gridtolerance="10"
     guidetolerance="10"
     inkscape:pageopacity="0"
     inkscape:pageshadow="2"
     inkscape:window-width="2558"
     inkscape:window-height="1402"
     id="namedview8"
     showgrid="false"
     inkscape:zoom="1.4245565"
     inkscape:cx="-369.48869"
     inkscape:cy="595.71368"
     inkscape:window-x="0"
     inkscape:window-y="18"
     inkscape:window-maximized="0"
     inkscape:current-layer="layer3"
     inkscape:measure-start="728.887,1159.89"
     inkscape:measure-end="796.441,1159.89" />
  <g
     inkscape:groupmode="layer"
     id="layer3"
     inkscape:label="trace"
     style="display:inline">
    <path
       style="color:#000000;font-style:normal;font-variant:normal;font-weight:normal;font-stretch:normal;font-size:medium;line-height:normal;font-family:sans-serif;font-variant-ligatures:normal;font-variant-position:normal;font-variant-caps:normal;font-variant-numeric:normal;font-variant-alternates:normal;font-feature-settings:normal;text-indent:0;text-align:start;text-decoration:none;text-decoration-line:none;text-decoration-style:solid;text-decoration-color:#000000;letter-spacing:normal;word-spacing:normal;text-transform:none;writing-mode:lr-tb;direction:ltr;text-orientation:mixed;dominant-baseline:auto;baseline-shift:baseline;text-anchor:start;white-space:normal;shape-padding:0;clip-rule:nonzero;display:inline;overflow:visible;visibility:visible;opacity:1;isolation:auto;mix-blend-mode:normal;color-interpolation:sRGB;color-interpolation-filters:linearRGB;solid-color:#000000;solid-opacity:1;vector-effect:none;fill:#000000;fill-opacity:1;fill-rule:evenodd;stroke:none;stroke-width:89.33032227;stroke-linecap:butt;stroke-linejoin:miter;stroke-miterlimit:4;stroke-dasharray:none;stroke-dashoffset:0;stroke-opacity:1;color-rendering:auto;image-rendering:auto;shape-rendering:auto;text-rendering:auto;enable-background:accumulate"
       d="M 170.06641,752.46875 V 2049.2051 h 89.33007 37.76954 v -407.1465 c 11.78488,-10.9252 25.06136,-23.2754 39.8164,-37.043 21.10741,-19.6947 45.3861,-42.4325 70.79102,-66.2597 33.33491,54.8315 85.00739,140.0164 139.21094,230.3007 43.66232,72.7264 87.32146,146.0437 119.90429,202.084 16.29142,28.0202 29.83688,51.7723 39.04297,68.6055 4.52578,8.2753 7.95976,14.8351 9.99024,18.9727 -0.25109,-2.0363 -0.43946,-4.8825 -0.43946,-9.5137 h 41.80664 c 3.03231,5.0541 5.61804,9.4135 7.45508,12.5879 -0.44388,-2.4222 -0.80078,-5.8879 -0.80078,-12.5879 h 40.86914 48.46094 c 0,-20.7949 -3.15274,-16.7464 -4.02539,-18.7383 -0.87266,-1.9919 -1.46903,-3.1383 -2.08594,-4.3242 -1.23383,-2.3719 -2.47662,-4.5809 -4.00977,-7.252 -3.0663,-5.3422 -7.18157,-12.2498 -12.38086,-20.8398 -10.39857,-17.1802 -25.03929,-40.9057 -42.5957,-69.1211 -35.11282,-56.4309 -81.82439,-130.712 -128.53516,-204.7305 -78.01667,-123.6263 -143.96412,-227.4915 -167.5664,-264.6504 13.54922,-12.7515 27.13712,-25.54 40.80078,-38.416 70.99621,-66.9032 141.83646,-133.8771 194.9707,-184.3281 26.56713,-25.2255 48.69718,-46.3111 64.26953,-61.25 7.78618,-7.4695 13.91519,-13.3848 18.25586,-17.6289 2.17034,-2.1221 3.86227,-3.791 5.30664,-5.2559 0.72219,-0.7324 1.33457,-1.3523 2.27735,-2.3769 0.47138,-0.5123 0.96496,-1.0244 2.11523,-2.4414 0.57514,-0.7086 1.28273,-1.5248 2.73047,-3.7286 1.44774,-2.2037 7.35938,1.0801 7.35938,-24.5781 h -48 -41.33008 c 0,-25.6381 5.89522,-22.3173 7.30859,-24.4687 1.41337,-2.1515 2.06951,-2.8993 2.57617,-3.5235 1.01333,-1.2483 1.30231,-1.5291 1.50196,-1.7461 0.39929,-0.4339 0.19916,-0.2099 -0.14844,0.1426 -0.6952,0.7051 -2.17708,2.178 -4.14844,4.1055 -3.94272,3.855 -9.96345,9.6685 -17.64453,17.0371 -2.44525,2.3458 -6.0716,5.7973 -8.84766,8.4531 h -28.59765 c 0,-13.2985 3.01431,-16.3966 4.32617,-19.1484 1.31186,-2.7518 2.1566,-4.0147 2.80078,-5.0059 1.28837,-1.9822 1.82693,-2.6005 2.21094,-3.084 0.76801,-0.9669 0.77839,-0.9351 0.62695,-0.7656 -0.30287,0.339 -1.47735,1.6149 -3.08398,3.3008 -3.21326,3.3719 -8.33295,8.6254 -14.87891,15.2656 -13.09191,13.2805 -32.00606,32.2351 -54.71289,54.8711 -45.41366,45.2721 -106.06735,105.3377 -166.72852,165.2695 -60.41285,59.6866 -120.76572,119.176 -166.2246,163.9336 V 752.46875 H 259.39648 Z M 767.29688,2066.2656 c 0.14454,0.2653 0.56588,1.0067 0.61523,1.1016 0.0897,0.1725 0.0273,0.1177 -0.48633,-1.0547 -0.0218,-0.05 -0.0987,-0.016 -0.1289,-0.047 z"
       transform="translate(0,-288)"
       id="path5236-3-9-6"
       inkscape:connector-curvature="0" />
  </g>
</svg>
