<?xml version="1.0" encoding="UTF-8" standalone="no"?>
<!--?xml version="1.0" encoding="UTF-8" standalone="no"?-->

<svg
   xmlns:dc="http://purl.org/dc/elements/1.1/"
   xmlns:cc="http://creativecommons.org/ns#"
   xmlns:rdf="http://www.w3.org/1999/02/22-rdf-syntax-ns#"
   xmlns:svg="http://www.w3.org/2000/svg"
   xmlns="http://www.w3.org/2000/svg"
   xmlns:sodipodi="http://sodipodi.sourceforge.net/DTD/sodipodi-0.dtd"
   xmlns:inkscape="http://www.inkscape.org/namespaces/inkscape"
   version="1.1"
   viewBox="0 -288 1504 2048"
   id="svg6"
   sodipodi:docname="m.svg"
   width="1504"
   height="2048"
   inkscape:version="0.92.1 r">
  <metadata
     id="metadata12">
    <rdf:rdf>
      <cc:work
         rdf:about="">
        <dc:format>image/svg+xml</dc:format>
        <dc:type
           rdf:resource="http://purl.org/dc/dcmitype/StillImage" />
        <dc:title />
      </cc:work>
    </rdf:rdf>
    <rdf:RDF>
      <cc:Work
         rdf:about="">
        <dc:format>image/svg+xml</dc:format>
        <dc:type
           rdf:resource="http://purl.org/dc/dcmitype/StillImage" />
      </cc:Work>
    </rdf:RDF>
  </metadata>
  <defs
     id="defs10" />
  <sodipodi:namedview
     pagecolor="#ffffff"
     bordercolor="#666666"
     borderopacity="1"
     objecttolerance="10"
     gridtolerance="10"
     guidetolerance="10"
     inkscape:pageopacity="0"
     inkscape:pageshadow="2"
     inkscape:window-width="2558"
     inkscape:window-height="1402"
     id="namedview8"
     showgrid="false"
     inkscape:zoom="1.5576384"
     inkscape:cx="658.39142"
     inkscape:cy="428.38914"
     inkscape:window-x="0"
     inkscape:window-y="18"
     inkscape:window-maximized="0"
     inkscape:current-layer="g21"
     inkscape:measure-start="155.556,1178.32"
     inkscape:measure-end="261.789,1178.32"
     showguides="true"
     inkscape:guide-bbox="true">
    <sodipodi:guide
       position="584.0817,1100.7104"
       orientation="0,1"
       id="guide474"
       inkscape:locked="false" />
    <sodipodi:guide
       position="631.60541,1119.8732"
       orientation="0,1"
       id="guide476"
       inkscape:locked="false" />
    <sodipodi:guide
       position="2106.3578,891.36092"
       orientation="0,1"
       id="guide4499"
       inkscape:locked="false" />
  </sodipodi:namedview>
  <g
     inkscape:groupmode="layer"
     id="layer2"
     inkscape:label="trace">
    <g
       id="g21"
       transform="matrix(1,0,0,0.79887705,0,353.92709)"
       style="stroke-width:1.11881948">
      <path
         style="color:#000000;font-style:normal;font-variant:normal;font-weight:normal;font-stretch:normal;font-size:medium;line-height:normal;font-family:sans-serif;font-variant-ligatures:normal;font-variant-position:normal;font-variant-caps:normal;font-variant-numeric:normal;font-variant-alternates:normal;font-feature-settings:normal;text-indent:0;text-align:start;text-decoration:none;text-decoration-line:none;text-decoration-style:solid;text-decoration-color:#000000;letter-spacing:normal;word-spacing:normal;text-transform:none;writing-mode:lr-tb;direction:ltr;text-orientation:mixed;dominant-baseline:auto;baseline-shift:baseline;text-anchor:start;white-space:normal;shape-padding:0;clip-rule:nonzero;display:inline;overflow:visible;visibility:visible;opacity:1;isolation:auto;mix-blend-mode:normal;color-interpolation:sRGB;color-interpolation-filters:linearRGB;solid-color:#000000;solid-opacity:1;vector-effect:none;fill:#000000;fill-opacity:1;fill-rule:evenodd;stroke:none;stroke-width:89.37992096;stroke-linecap:butt;stroke-linejoin:miter;stroke-miterlimit:4;stroke-dasharray:none;stroke-dashoffset:0;stroke-opacity:1;color-rendering:auto;image-rendering:auto;shape-rendering:auto;text-rendering:auto;enable-background:accumulate"
         d="m 264.64648,1112.0723 c -0.003,0.01 -0.007,0.046 -0.008,0.1054 -0.005,0.2315 0.01,0.822 0.0566,1.4922 -0.0193,-0.9487 -0.0368,-1.6349 -0.0488,-1.5976 z m 0.0488,1.5976 c 0.0166,0.8157 0.0352,1.7369 0.0352,3.5899 h -100 v 164.0273 646.0742 120.5899 H 202.5 264.73047 302.5 v -773.666 c 21.13328,-19.0244 80.17431,-61.1602 188.70508,-61.1602 99.69131,0 132.81876,26.5667 155.30469,64.1582 22.48592,37.5915 24.99609,91.2074 24.99609,133.2012 v 637.459 h 36.375 v 0.016 h 100 v -697.1621 c 0,-8.4522 -0.4394,-22.152 -3.24414,-39.0059 46.26599,-42.5607 125.23713,-98.666 220.16598,-98.666 99.6934,0 132.8261,26.5683 155.3145,64.1602 22.4884,37.5918 24.998,91.2066 24.998,133.1992 v 637.4668 h 87.4727 l 48.8887,0.043 0.957,-694.2636 v -0.023 c 0,-20.9665 -2.6732,-74.7619 -37.4024,-129.0918 -34.7271,-54.3297 -110.7446,-107.3554 -229.2871,-107.3554 h -58.8964 c -116.1668,0 -200.37342,52.6615 -251.5645,98.3242 -36.87364,-50.9762 -111.26054,-98.3242 -224.10937,-98.3242 H 482.2832 c -83.38788,0 -150.58284,26.5108 -200.88867,57.8379 -1.24417,-4.3363 -2.5636,-8.9048 -3.75,-13.0625 -3.91478,-13.7196 -7.42762,-26.2039 -9.88867,-35.3926 -1.23053,-4.5944 -2.20241,-8.3947 -2.77734,-10.8399 -0.14759,-0.6276 -0.2336,-1.4257 -0.28321,-2.1328 z"
         transform="matrix(1,0,0,1.2517571,0,-803.53678)"
         id="path5236-3-9-6"
         inkscape:connector-curvature="0" />
    </g>
  </g>
</svg>
