<?xml version="1.0" encoding="UTF-8" standalone="no"?>
<!--?xml version="1.0" encoding="UTF-8" standalone="no"?-->

<svg
   xmlns:dc="http://purl.org/dc/elements/1.1/"
   xmlns:cc="http://creativecommons.org/ns#"
   xmlns:rdf="http://www.w3.org/1999/02/22-rdf-syntax-ns#"
   xmlns:svg="http://www.w3.org/2000/svg"
   xmlns="http://www.w3.org/2000/svg"
   xmlns:sodipodi="http://sodipodi.sourceforge.net/DTD/sodipodi-0.dtd"
   xmlns:inkscape="http://www.inkscape.org/namespaces/inkscape"
   version="1.1"
   viewBox="0 -288 1024 2048"
   id="svg6"
   sodipodi:docname="n.svg"
   width="1024"
   height="2048"
   inkscape:version="0.92.1 r">
  <metadata
     id="metadata12">
    <rdf:rdf>
      <cc:work
         rdf:about="">
        <dc:format>image/svg+xml</dc:format>
        <dc:type
           rdf:resource="http://purl.org/dc/dcmitype/StillImage" />
        <dc:title />
      </cc:work>
    </rdf:rdf>
    <rdf:RDF>
      <cc:Work
         rdf:about="">
        <dc:format>image/svg+xml</dc:format>
        <dc:type
           rdf:resource="http://purl.org/dc/dcmitype/StillImage" />
      </cc:Work>
    </rdf:RDF>
  </metadata>
  <defs
     id="defs10" />
  <sodipodi:namedview
     pagecolor="#ffffff"
     bordercolor="#666666"
     borderopacity="1"
     objecttolerance="10"
     gridtolerance="10"
     guidetolerance="10"
     inkscape:pageopacity="0"
     inkscape:pageshadow="2"
     inkscape:window-width="2558"
     inkscape:window-height="1402"
     id="namedview8"
     showgrid="false"
     inkscape:zoom="0.7748808"
     inkscape:cx="-119.27532"
     inkscape:cy="-160.48837"
     inkscape:window-x="0"
     inkscape:window-y="18"
     inkscape:window-maximized="0"
     inkscape:current-layer="layer2"
     inkscape:measure-start="181.477,341.874"
     inkscape:measure-end="274.966,341.874" />
  <g
     inkscape:groupmode="layer"
     id="layer2"
     inkscape:label="trace">
    <path
       style="color:#000000;font-style:normal;font-variant:normal;font-weight:normal;font-stretch:normal;font-size:medium;line-height:normal;font-family:sans-serif;font-variant-ligatures:normal;font-variant-position:normal;font-variant-caps:normal;font-variant-numeric:normal;font-variant-alternates:normal;font-feature-settings:normal;text-indent:0;text-align:start;text-decoration:none;text-decoration-line:none;text-decoration-style:solid;text-decoration-color:#000000;letter-spacing:normal;word-spacing:normal;text-transform:none;writing-mode:lr-tb;direction:ltr;text-orientation:mixed;dominant-baseline:auto;baseline-shift:baseline;text-anchor:start;white-space:normal;shape-padding:0;clip-rule:nonzero;display:inline;overflow:visible;visibility:visible;opacity:1;isolation:auto;mix-blend-mode:normal;color-interpolation:sRGB;color-interpolation-filters:linearRGB;solid-color:#000000;solid-opacity:1;vector-effect:none;fill:#000000;fill-opacity:1;fill-rule:evenodd;stroke:none;stroke-width:89.38552094;stroke-linecap:butt;stroke-linejoin:miter;stroke-miterlimit:4;stroke-dasharray:none;stroke-dashoffset:0;stroke-opacity:1;color-rendering:auto;image-rendering:auto;shape-rendering:auto;text-rendering:auto;enable-background:accumulate"
       d="m 520.72461,1112.1523 c -93.57354,0 -174.53004,60.0013 -236.21289,115.4844 -1.13645,0.9012 -2.25517,1.7969 -3.36328,2.6914 -1.30213,-6.7948 -2.32646,-12.0779 -3.6543,-19.0332 -4.71629,-24.7042 -9.42955,-49.5826 -12.9375,-68.5137 -1.75397,-9.4655 -3.20859,-17.4655 -4.1875,-23.0605 -0.46713,-2.6699 -0.80912,-4.7095 -1.01562,-6.0098 0.0536,0.6784 0.11013,1.4177 0.0781,4.0215 h -0.008 v -0.5488 h -44.68164 l -44.68946,-0.5488 c -0.003,0.2424 0.004,0.3248 0.002,0.5488 h -0.0176 v 164.0488 646.1543 120.6055 h 89.38672 37.76953 v -707.8613 c 13.0848,-13.8453 28.35352,-29.109 45.24219,-44.375 1.40254,-1.2678 2.82246,-2.5289 4.24609,-3.7891 45.98492,-34.9945 118.51359,-74.1621 212.86328,-74.1621 88.07915,0 119.50637,25.3477 139.25586,59.1973 19.74949,33.8495 24.01172,85.3513 24.01172,133.4433 v 637.5391 h 36.375 V 2048 h 89.38672 v -689.2598 c 0,-34.877 -3.73769,-94.3845 -40.5918,-148.8828 -36.85186,-54.495 -108.8125,-97.1256 -218.11133,-97.1308 h -0.0195 c 3.11138,10e-4 -0.8668,-0.01 -2.78125,-0.024 -1.92788,-0.016 -4.65463,-0.038 -7.9082,-0.064 -6.50714,-0.054 -15.12823,-0.1256 -23.73047,-0.1973 -17.20447,-0.1433 -34.33203,-0.2871 -34.33203,-0.2871 l -0.1875,-0 z"
       transform="translate(0,-288)"
       id="path5236-3-9-6"
       inkscape:connector-curvature="0" />
  </g>
</svg>
