<?xml version="1.0" encoding="UTF-8" standalone="no"?>
<!--?xml version="1.0" encoding="UTF-8" standalone="no"?-->

<svg
   xmlns:dc="http://purl.org/dc/elements/1.1/"
   xmlns:cc="http://creativecommons.org/ns#"
   xmlns:rdf="http://www.w3.org/1999/02/22-rdf-syntax-ns#"
   xmlns:svg="http://www.w3.org/2000/svg"
   xmlns="http://www.w3.org/2000/svg"
   xmlns:sodipodi="http://sodipodi.sourceforge.net/DTD/sodipodi-0.dtd"
   xmlns:inkscape="http://www.inkscape.org/namespaces/inkscape"
   version="1.1"
   viewBox="0 -288 1016 2048"
   id="svg6"
   sodipodi:docname="q.svg"
   width="1016"
   height="2048"
   inkscape:version="0.92.1 r">
  <metadata
     id="metadata12">
    <rdf:rdf>
      <cc:work
         rdf:about="">
        <dc:format>image/svg+xml</dc:format>
        <dc:type
           rdf:resource="http://purl.org/dc/dcmitype/StillImage" />
        <dc:title />
      </cc:work>
    </rdf:rdf>
    <rdf:RDF>
      <cc:Work
         rdf:about="">
        <dc:format>image/svg+xml</dc:format>
        <dc:type
           rdf:resource="http://purl.org/dc/dcmitype/StillImage" />
      </cc:Work>
    </rdf:RDF>
  </metadata>
  <defs
     id="defs10" />
  <sodipodi:namedview
     pagecolor="#ffffff"
     bordercolor="#666666"
     borderopacity="1"
     objecttolerance="10"
     gridtolerance="10"
     guidetolerance="10"
     inkscape:pageopacity="0"
     inkscape:pageshadow="2"
     inkscape:window-width="2558"
     inkscape:window-height="1402"
     id="namedview8"
     showgrid="false"
     inkscape:zoom="1.0073135"
     inkscape:cx="-1268.1026"
     inkscape:cy="91.682273"
     inkscape:window-x="0"
     inkscape:window-y="18"
     inkscape:window-maximized="0"
     inkscape:current-layer="layer2" />
  <g
     inkscape:groupmode="layer"
     id="layer2"
     inkscape:label="trace">
    <path
       style="color:#000000;font-style:normal;font-variant:normal;font-weight:normal;font-stretch:normal;font-size:medium;line-height:normal;font-family:sans-serif;font-variant-ligatures:normal;font-variant-position:normal;font-variant-caps:normal;font-variant-numeric:normal;font-variant-alternates:normal;font-feature-settings:normal;text-indent:0;text-align:start;text-decoration:none;text-decoration-line:none;text-decoration-style:solid;text-decoration-color:#000000;letter-spacing:normal;word-spacing:normal;text-transform:none;writing-mode:lr-tb;direction:ltr;text-orientation:mixed;dominant-baseline:auto;baseline-shift:baseline;text-anchor:start;white-space:normal;shape-padding:0;clip-rule:nonzero;display:inline;overflow:visible;visibility:visible;opacity:1;isolation:auto;mix-blend-mode:normal;color-interpolation:sRGB;color-interpolation-filters:linearRGB;solid-color:#000000;solid-opacity:1;vector-effect:none;fill:#000000;fill-opacity:0.99708198;fill-rule:evenodd;stroke:none;stroke-width:89.4272995;stroke-linecap:butt;stroke-linejoin:miter;stroke-miterlimit:4;stroke-dasharray:none;stroke-dashoffset:0;stroke-opacity:1;color-rendering:auto;image-rendering:auto;shape-rendering:auto;text-rendering:auto;enable-background:accumulate"
       d="m 433.63477,1110.0723 c -99.6858,0 -183.16011,55.4122 -234.84766,140.9668 -51.68755,85.5545 -76.73828,200.3699 -76.73828,333.4218 0,146.3561 36.03124,266.9124 102.4375,352.3868 66.34711,85.3981 164.43477,133.2289 273.96875,131.9453 93.84337,-0.075 168.90461,-38.71 224.89062,-84.4082 V 2162.3535 2276 h 89.42578 38.42188 v -113.6465 -752.9023 h 0.0859 c 0,-1.399 -0.0351,-2.7191 -0.0859,-4.0059 v -134.3027 -154.7422 h -0.004 c -0.002,-0.2005 0.003,-0.352 0,-0.5586 l -44.70898,0.5586 h -44.71485 v 0.3965 c -0.0225,-1.7331 -0.0423,-2.7434 -0.0723,-3.0039 -0.0947,-0.824 -0.28998,4.5913 -0.99609,9.1601 -0.94148,6.0918 -2.3901,14.5768 -4.15039,24.3985 -3.51045,19.5867 -8.27426,44.6146 -13.05274,69.1836 -53.88366,-56.3856 -129.76018,-106.4629 -225.26172,-106.4629 z m 57.94335,106.2207 c 137.75442,0 211.3714,89.1891 231.76758,118.3554 v 516.9317 c -28.65148,28.2062 -113.18251,99.8027 -233.21093,99.8027 -84.39656,0 -137.37891,-33.6449 -177.03321,-96.6465 -39.65429,-63.0015 -61.30859,-158.4771 -61.30859,-271.4824 0,-136.6842 23.76005,-230.6618 62.86719,-286.3945 39.10713,-55.7327 91.95851,-80.5664 176.91796,-80.5664 z"
       transform="translate(0,-288)"
       id="path5236-72-2"
       inkscape:connector-curvature="0" />
  </g>
</svg>
