<?xml version="1.0" encoding="UTF-8" standalone="no"?>
<!--?xml version="1.0" encoding="UTF-8" standalone="no"?-->

<svg
   xmlns:dc="http://purl.org/dc/elements/1.1/"
   xmlns:cc="http://creativecommons.org/ns#"
   xmlns:rdf="http://www.w3.org/1999/02/22-rdf-syntax-ns#"
   xmlns:svg="http://www.w3.org/2000/svg"
   xmlns="http://www.w3.org/2000/svg"
   xmlns:sodipodi="http://sodipodi.sourceforge.net/DTD/sodipodi-0.dtd"
   xmlns:inkscape="http://www.inkscape.org/namespaces/inkscape"
   version="1.1"
   viewBox="0 -288 928 2048"
   id="svg6"
   sodipodi:docname="question.svg"
   width="928"
   height="2048"
   inkscape:version="0.92.1 r">
  <metadata
     id="metadata12">
    <rdf:rdf>
      <cc:work
         rdf:about="">
        <dc:format>image/svg+xml</dc:format>
        <dc:type
           rdf:resource="http://purl.org/dc/dcmitype/StillImage" />
        <dc:title />
      </cc:work>
    </rdf:rdf>
    <rdf:RDF>
      <cc:Work
         rdf:about="">
        <dc:format>image/svg+xml</dc:format>
        <dc:type
           rdf:resource="http://purl.org/dc/dcmitype/StillImage" />
      </cc:Work>
    </rdf:RDF>
  </metadata>
  <defs
     id="defs10" />
  <sodipodi:namedview
     pagecolor="#ffffff"
     bordercolor="#666666"
     borderopacity="1"
     objecttolerance="10"
     gridtolerance="10"
     guidetolerance="10"
     inkscape:pageopacity="0"
     inkscape:pageshadow="2"
     inkscape:window-width="2558"
     inkscape:window-height="1402"
     id="namedview8"
     showgrid="false"
     inkscape:zoom="1.7037571"
     inkscape:cx="142.671"
     inkscape:cy="174.25736"
     inkscape:window-x="0"
     inkscape:window-y="18"
     inkscape:window-maximized="0"
     inkscape:current-layer="layer2"
     inkscape:measure-start="113.256,1340.1"
     inkscape:measure-end="113.256,1431.14"
     showguides="false"
     inkscape:guide-bbox="true">
    <sodipodi:guide
       position="427.10985,489.7839"
       orientation="1,0"
       id="guide132"
       inkscape:locked="false" />
    <sodipodi:guide
       position="465.17694,293.51362"
       orientation="1,0"
       id="guide134"
       inkscape:locked="false" />
  </sodipodi:namedview>
  <g
     inkscape:groupmode="layer"
     id="layer2"
     inkscape:label="trace"
     style="display:inline">
    <path
       style="color:#000000;font-style:normal;font-variant:normal;font-weight:normal;font-stretch:normal;font-size:medium;line-height:normal;font-family:sans-serif;font-variant-ligatures:normal;font-variant-position:normal;font-variant-caps:normal;font-variant-numeric:normal;font-variant-alternates:normal;font-feature-settings:normal;text-indent:0;text-align:start;text-decoration:none;text-decoration-line:none;text-decoration-style:solid;text-decoration-color:#000000;letter-spacing:normal;word-spacing:normal;text-transform:none;writing-mode:lr-tb;direction:ltr;text-orientation:mixed;dominant-baseline:auto;baseline-shift:baseline;text-anchor:start;white-space:normal;shape-padding:0;clip-rule:nonzero;display:inline;overflow:visible;visibility:visible;opacity:1;isolation:auto;mix-blend-mode:normal;color-interpolation:sRGB;color-interpolation-filters:linearRGB;solid-color:#000000;solid-opacity:1;vector-effect:none;fill:#000000;fill-opacity:1;fill-rule:evenodd;stroke:none;stroke-width:89.06925964;stroke-linecap:butt;stroke-linejoin:miter;stroke-miterlimit:4;stroke-dasharray:none;stroke-dashoffset:0;stroke-opacity:1;color-rendering:auto;image-rendering:auto;shape-rendering:auto;text-rendering:auto;enable-background:accumulate"
       d="m 397.45508,813.46484 c -87.23872,0 -162.7084,36.73696 -217.6582,72.61133 -27.47491,17.93719 -49.96031,35.92706 -66.24219,49.93164 -8.14095,7.00229 -14.74265,13.02461 -19.498049,17.43164 -4.7554,4.40704 -11.051314,9.67947 -5.916016,5.60547 l 55.357425,69.77738 c 4.19087,-3.3248 5.80957,-4.8395 7.23828,-6.2696 l 24.14844,32.2422 c 8.8904,-6.6587 7.10227,-6.4261 8.59765,-8.0625 1.49538,-1.6363 2.98071,-3.3018 4.78711,-5.291 3.61281,-3.9785 8.39294,-9.1373 14.57422,-15.2539 12.36256,-12.2331 30.21769,-28.16108 53.52344,-43.91602 46.61149,-31.50987 114.12639,-62.2832 205.73242,-62.2832 60.20145,0 119.70308,10.40824 159.83594,37.24219 40.13286,26.83395 67.54101,67.45803 67.54101,154.55073 0,98.2503 -62.35651,153.8966 -139.74023,228.1075 -77.38372,74.2108 -167.16016,167.0427 -167.16016,319.5488 h 89.06836 c 0,-0.1253 0.004,-0.2479 0.004,-0.373 h 37.27344 c -10e-6,-130.1179 61.99714,-182.993 138.24804,-250.8399 76.2509,-67.8469 168.10938,-150.9181 168.10938,-304.8203 v -0.541 l -0.0137,-0.543 C 812.93144,1006.4846 773.56221,930.75126 715.26758,882.7207 656.97294,834.69015 582.4296,813.46484 508.81445,813.46484 Z M 383.16797,1838.168 V 2048 h 37.76953 51.29883 37.76953 V 1838.168 H 472.23633 420.9375 Z"
       transform="translate(0,-288)"
       id="path5546-0-3-9"
       inkscape:connector-curvature="0" />
  </g>
</svg>
