<?xml version="1.0" encoding="UTF-8" standalone="no"?>
<!--?xml version="1.0" encoding="UTF-8" standalone="no"?-->

<svg
   xmlns:dc="http://purl.org/dc/elements/1.1/"
   xmlns:cc="http://creativecommons.org/ns#"
   xmlns:rdf="http://www.w3.org/1999/02/22-rdf-syntax-ns#"
   xmlns:svg="http://www.w3.org/2000/svg"
   xmlns="http://www.w3.org/2000/svg"
   xmlns:sodipodi="http://sodipodi.sourceforge.net/DTD/sodipodi-0.dtd"
   xmlns:inkscape="http://www.inkscape.org/namespaces/inkscape"
   version="1.1"
   viewBox="0 -288 1264 2048"
   id="svg6"
   sodipodi:docname="R.svg"
   width="1264"
   height="2048"
   inkscape:version="0.92.1 r">
  <metadata
     id="metadata12">
    <rdf:rdf>
      <cc:work
         rdf:about="">
        <dc:format>image/svg+xml</dc:format>
        <dc:type
           rdf:resource="http://purl.org/dc/dcmitype/StillImage" />
        <dc:title />
      </cc:work>
    </rdf:rdf>
    <rdf:RDF>
      <cc:Work
         rdf:about="">
        <dc:format>image/svg+xml</dc:format>
        <dc:type
           rdf:resource="http://purl.org/dc/dcmitype/StillImage" />
      </cc:Work>
    </rdf:RDF>
  </metadata>
  <defs
     id="defs10" />
  <sodipodi:namedview
     pagecolor="#ffffff"
     bordercolor="#666666"
     borderopacity="1"
     objecttolerance="10"
     gridtolerance="10"
     guidetolerance="10"
     inkscape:pageopacity="0"
     inkscape:pageshadow="2"
     inkscape:window-width="2558"
     inkscape:window-height="1402"
     id="namedview8"
     showgrid="false"
     inkscape:zoom="5.2607143"
     inkscape:cx="262.87988"
     inkscape:cy="123.27805"
     inkscape:window-x="0"
     inkscape:window-y="18"
     inkscape:window-maximized="0"
     inkscape:current-layer="layer4"
     showguides="true"
     inkscape:guide-bbox="true"
     inkscape:measure-start="1047.03,3.8185"
     inkscape:measure-end="1138.68,3.8185">
    <sodipodi:guide
       position="751.69046,763.96296"
       orientation="1,0"
       id="guide844"
       inkscape:locked="false" />
  </sodipodi:namedview>
  <g
     inkscape:groupmode="layer"
     id="layer3"
     inkscape:label="traces"
     style="display:inline" />
  <g
     inkscape:groupmode="layer"
     id="layer4"
     inkscape:label="traces 2"
     style="display:inline">
    <path
       style="color:#000000;font-style:normal;font-variant:normal;font-weight:normal;font-stretch:normal;font-size:medium;line-height:normal;font-family:sans-serif;font-variant-ligatures:normal;font-variant-position:normal;font-variant-caps:normal;font-variant-numeric:normal;font-variant-alternates:normal;font-feature-settings:normal;text-indent:0;text-align:start;text-decoration:none;text-decoration-line:none;text-decoration-style:solid;text-decoration-color:#000000;letter-spacing:normal;word-spacing:normal;text-transform:none;writing-mode:lr-tb;direction:ltr;text-orientation:mixed;dominant-baseline:auto;baseline-shift:baseline;text-anchor:start;white-space:normal;shape-padding:0;clip-rule:nonzero;display:inline;overflow:visible;visibility:visible;opacity:1;isolation:auto;mix-blend-mode:normal;color-interpolation:sRGB;color-interpolation-filters:linearRGB;solid-color:#000000;solid-opacity:1;vector-effect:none;fill:#000000;fill-opacity:1;fill-rule:evenodd;stroke:none;stroke-width:88.92715454;stroke-linecap:butt;stroke-linejoin:miter;stroke-miterlimit:4;stroke-dasharray:none;stroke-dashoffset:0;stroke-opacity:1;color-rendering:auto;image-rendering:auto;shape-rendering:auto;text-rendering:auto;enable-background:accumulate"
       d="M 167.66992,815.91211 V 2048.7637 h 88.92578 39.99024 V 1444.7676 H 591.8125 c 39.26349,55.7831 121.37298,172.5794 204.64062,291.9609 57.26369,82.0994 114.52574,164.6388 157.3418,227.3438 21.40803,31.3524 39.22783,57.7865 51.46288,76.4589 6.1175,9.3363 10.872,16.7975 13.7207,21.4961 0.2184,0.3602 0.3413,0.5778 0.5371,0.9063 -0.8759,-1.6106 -1.832,-5.0032 -1.832,-14.1699 h 49.084 c 4.9347,6.821 9.113,12.6595 11.7285,16.4355 1.5949,2.3026 2.7446,4.0409 3.0449,4.5156 0.1502,0.2374 0.1166,0.2524 -0.5176,-0.9238 -0.317,-0.5881 -0.7858,-1.406 -1.6484,-3.4785 -0.8575,-2.0602 -3.2953,-3.3134 -3.3242,-16.5488 h 30.5605 c 0,-0.08 -0,-0.1472 -0,-0.2266 h 58.3672 c 0,-13.5895 -2.5215,-15.0407 -3.502,-17.3965 -0.9805,-2.3557 -1.6267,-3.5327 -2.1777,-4.5547 -1.102,-2.0439 -1.8348,-3.1958 -2.6055,-4.414 -1.5413,-2.4364 -3.1221,-4.7637 -5.0918,-7.6074 -3.9394,-5.6875 -9.28,-13.141 -16.0371,-22.4336 -13.5143,-18.5854 -32.5836,-44.3485 -55.4512,-75.0137 -45.7352,-61.3305 -106.59744,-142.167 -167.46091,-222.7422 -80.42938,-106.478 -146.50605,-193.5748 -191.81445,-253.248 85.67864,-6.6723 169.98634,-23.3621 241.96679,-56.834 99.47737,-46.2583 176.37697,-133.7784 176.37697,-258.4219 0,-87.6873 -35.5599,-169.8705 -107.2539,-225.29883 C 960.23174,845.14393 856.72433,815.91211 721.29688,815.91211 Z M 1019.5156,2062.9336 c 0.026,0.047 0.049,0.083 0.074,0.1269 -0.027,-0.045 -0.047,-0.081 -0.074,-0.1269 z m 0.074,0.1269 c 1.0361,1.742 1.8105,3.1025 1.9141,3.2989 0.063,0.1189 -0.082,-0.065 -0.7031,-1.5489 -0.2254,-0.5384 -0.7004,-0.8646 -1.211,-1.75 z M 296.58594,934.69922 H 719.2207 c 210.17758,0 278.51953,105.69418 278.51953,180.35348 v 0.5293 l 0.0117,0.5293 c 2.01259,84.5305 -38.33991,133.3287 -107.16992,170.1641 -68.83001,36.8354 -166.08371,53.75 -255.92578,53.75 h -0.0742 -27.71484 -310.28125 z"
       transform="translate(0,-288)"
       id="path5236-7-72-2"
       inkscape:connector-curvature="0" />
  </g>
</svg>
