<?xml version="1.0" encoding="UTF-8" standalone="no"?>
<!--?xml version="1.0" encoding="UTF-8" standalone="no"?-->

<svg
   xmlns:dc="http://purl.org/dc/elements/1.1/"
   xmlns:cc="http://creativecommons.org/ns#"
   xmlns:rdf="http://www.w3.org/1999/02/22-rdf-syntax-ns#"
   xmlns:svg="http://www.w3.org/2000/svg"
   xmlns="http://www.w3.org/2000/svg"
   xmlns:sodipodi="http://sodipodi.sourceforge.net/DTD/sodipodi-0.dtd"
   xmlns:inkscape="http://www.inkscape.org/namespaces/inkscape"
   version="1.1"
   viewBox="0 -288 944 2048"
   id="svg6"
   sodipodi:docname="s.svg"
   width="944"
   height="2048"
   inkscape:version="0.92.1 r">
  <metadata
     id="metadata12">
    <rdf:rdf>
      <cc:work
         rdf:about="">
        <dc:format>image/svg+xml</dc:format>
        <dc:type
           rdf:resource="http://purl.org/dc/dcmitype/StillImage" />
        <dc:title />
      </cc:work>
    </rdf:rdf>
    <rdf:RDF>
      <cc:Work
         rdf:about="">
        <dc:format>image/svg+xml</dc:format>
        <dc:type
           rdf:resource="http://purl.org/dc/dcmitype/StillImage" />
      </cc:Work>
    </rdf:RDF>
  </metadata>
  <defs
     id="defs10" />
  <sodipodi:namedview
     pagecolor="#ffffff"
     bordercolor="#666666"
     borderopacity="1"
     objecttolerance="10"
     gridtolerance="10"
     guidetolerance="10"
     inkscape:pageopacity="0"
     inkscape:pageshadow="2"
     inkscape:window-width="2558"
     inkscape:window-height="1402"
     id="namedview8"
     showgrid="false"
     inkscape:zoom="0.35613912"
     inkscape:cx="-2537.4475"
     inkscape:cy="722.42279"
     inkscape:window-x="0"
     inkscape:window-y="18"
     inkscape:window-maximized="0"
     inkscape:current-layer="layer4"
     showguides="true"
     inkscape:guide-bbox="true"
     inkscape:measure-start="481.627,77.6468"
     inkscape:measure-end="481.627,47.1864">
    <sodipodi:guide
       position="438.23729,503.32203"
       orientation="1,0"
       id="guide5650"
       inkscape:locked="false" />
    <sodipodi:guide
       position="525.01695,507.66102"
       orientation="1,0"
       id="guide5652"
       inkscape:locked="false" />
  </sodipodi:namedview>
  <g
     inkscape:groupmode="layer"
     id="layer3"
     inkscape:label="trace2"
     style="display:inline" />
  <g
     inkscape:groupmode="layer"
     id="layer4"
     inkscape:label="trace3"
     style="display:inline">
    <path
       style="color:#000000;font-style:normal;font-variant:normal;font-weight:normal;font-stretch:normal;font-size:medium;line-height:normal;font-family:sans-serif;font-variant-ligatures:normal;font-variant-position:normal;font-variant-caps:normal;font-variant-numeric:normal;font-variant-alternates:normal;font-feature-settings:normal;text-indent:0;text-align:start;text-decoration:none;text-decoration-line:none;text-decoration-style:solid;text-decoration-color:#000000;letter-spacing:normal;word-spacing:normal;text-transform:none;writing-mode:lr-tb;direction:ltr;text-orientation:mixed;dominant-baseline:auto;baseline-shift:baseline;text-anchor:start;white-space:normal;shape-padding:0;clip-rule:nonzero;display:inline;overflow:visible;visibility:visible;opacity:1;isolation:auto;mix-blend-mode:normal;color-interpolation:sRGB;color-interpolation-filters:linearRGB;solid-color:#000000;solid-opacity:1;vector-effect:none;fill:#010000;fill-opacity:1;fill-rule:evenodd;stroke:none;stroke-width:88.40630341;stroke-linecap:butt;stroke-linejoin:miter;stroke-miterlimit:4;stroke-dasharray:none;stroke-dashoffset:0;stroke-opacity:1;color-rendering:auto;image-rendering:auto;shape-rendering:auto;text-rendering:auto;enable-background:accumulate"
       d="m 486.52148,1127.5625 -82.11914,0.061 c -48.11209,0 -108.70345,15.4281 -163.59961,51.17 -54.89615,35.7418 -103.72671,97.481 -103.72656,180.0996 0,80.8091 35.08579,144.4007 89.8086,182.8437 53.43551,37.5388 120.74146,55.7467 196.81445,71.8575 1.54868,0.3644 3.10607,0.742 4.64844,1.0976 l 87.17187,20.1016 0.0586,0.012 17.75586,4.1172 c 105.82279,27.0479 154.46875,87.3648 154.46875,158.2285 0,63.3421 -29.34179,93.3156 -71.43554,116.0762 -42.09375,22.7605 -97.71069,30.6621 -125.20313,30.6621 -115.41583,0 -166.68635,-33.4425 -194.54687,-69.2852 -27.86052,-35.8427 -33.19532,-81.0031 -33.19531,-109.6308 h -46.64454 -41.76172 -46.64453 c 0,58.5006 16.25326,133.1006 70.97852,194.4746 54.72526,61.374 146.64965,104.5527 281.54883,104.5527 0.61796,0 1.46768,3e-4 2.42968,-0.014 72.55485,-0.3732 149.69688,-14.2091 212.72266,-56.5097 63.06792,-42.3289 107.8125,-116.8139 107.8125,-216.2071 0,-61.5525 -23.51177,-117.1831 -66.15039,-156.7343 -42.53087,-39.4514 -100.83954,-63.8835 -171.59961,-78.7637 l 0.38867,0.09 -0.92383,-0.2051 c 0.17942,0.038 0.35591,0.078 0.53516,0.1153 l -15.4414,-3.5801 c -5.17928,-1.3031 -10.42136,-2.5229 -15.73243,-3.6465 l -86.71875,-20.1054 a 44.207572,44.207572 0 0 0 -0.92382,-0.2032 c -1.35309,-0.2833 -2.66304,-0.5743 -4.00586,-0.8593 -50.67705,-12.0464 -100.8553,-29.6166 -135.14454,-54.1778 -35.39898,-25.356 -54.90625,-52.9926 -54.90625,-102.1562 0,-38.1366 16.41689,-70.1192 49.45704,-95.8418 32.99783,-25.6897 83.54934,-43.5169 147.6914,-43.5625 90.90881,1.3572 140.83267,27.7343 170.65625,59.6699 29.86681,31.9819 41.17836,73.4785 41.4375,110.6133 l 44.41992,-0.3086 c 8.8e-4,0.1006 0.005,0.2001 0.006,0.3008 l 88.4043,-0.6172 C 794.19047,1240.7717 648.28067,1127.4428 486.52148,1127.5625 Z"
       transform="translate(0,-288)"
       id="path5848-2-90-2-3"
       inkscape:connector-curvature="0" />
  </g>
</svg>
