<?xml version="1.0" encoding="UTF-8" standalone="no"?>
<!--?xml version="1.0" encoding="UTF-8" standalone="no"?-->

<svg
   xmlns:dc="http://purl.org/dc/elements/1.1/"
   xmlns:cc="http://creativecommons.org/ns#"
   xmlns:rdf="http://www.w3.org/1999/02/22-rdf-syntax-ns#"
   xmlns:svg="http://www.w3.org/2000/svg"
   xmlns="http://www.w3.org/2000/svg"
   xmlns:sodipodi="http://sodipodi.sourceforge.net/DTD/sodipodi-0.dtd"
   xmlns:inkscape="http://www.inkscape.org/namespaces/inkscape"
   version="1.1"
   viewBox="0 -288 1232 2048"
   id="svg6"
   sodipodi:docname="S.svg"
   width="1232"
   height="2048"
   inkscape:version="0.92.1 r">
  <metadata
     id="metadata12">
    <rdf:rdf>
      <cc:work
         rdf:about="">
        <dc:format>image/svg+xml</dc:format>
        <dc:type
           rdf:resource="http://purl.org/dc/dcmitype/StillImage" />
        <dc:title />
      </cc:work>
    </rdf:rdf>
    <rdf:RDF>
      <cc:Work
         rdf:about="">
        <dc:format>image/svg+xml</dc:format>
        <dc:type
           rdf:resource="http://purl.org/dc/dcmitype/StillImage" />
      </cc:Work>
    </rdf:RDF>
  </metadata>
  <defs
     id="defs10">
    <inkscape:path-effect
       effect="bend_path"
       id="path-effect11"
       is_visible="true"
       bendpath="M 171.40247,994.97251 H 1047.4634"
       prop_scale="1"
       scale_y_rel="false"
       vertical="false" />
  </defs>
  <sodipodi:namedview
     pagecolor="#ffffff"
     bordercolor="#666666"
     borderopacity="1"
     objecttolerance="10"
     gridtolerance="10"
     guidetolerance="10"
     inkscape:pageopacity="0"
     inkscape:pageshadow="2"
     inkscape:window-width="2558"
     inkscape:window-height="1402"
     id="namedview8"
     showgrid="false"
     inkscape:zoom="1.5715537"
     inkscape:cx="1081.1642"
     inkscape:cy="606.68927"
     inkscape:window-x="0"
     inkscape:window-y="18"
     inkscape:window-maximized="0"
     inkscape:current-layer="g12"
     inkscape:measure-start="885.766,394.076"
     inkscape:measure-end="1348.53,394.076"
     showguides="false">
    <sodipodi:guide
       position="186.77207,501.25482"
       orientation="0,1"
       id="guide895"
       inkscape:locked="false" />
  </sodipodi:namedview>
  <g
     inkscape:groupmode="layer"
     id="layer3"
     inkscape:label="trace"
     style="display:inline">
    <g
       id="g12"
       transform="matrix(1,0,0,0.78639507,0,371.19707)"
       style="stroke-width:1.12766373">
      <path
         style="color:#000000;font-style:normal;font-variant:normal;font-weight:normal;font-stretch:normal;font-size:medium;line-height:normal;font-family:sans-serif;font-variant-ligatures:normal;font-variant-position:normal;font-variant-caps:normal;font-variant-numeric:normal;font-variant-alternates:normal;font-feature-settings:normal;text-indent:0;text-align:start;text-decoration:none;text-decoration-line:none;text-decoration-style:solid;text-decoration-color:#000000;letter-spacing:normal;word-spacing:normal;text-transform:none;writing-mode:lr-tb;direction:ltr;text-orientation:mixed;dominant-baseline:auto;baseline-shift:baseline;text-anchor:start;white-space:normal;shape-padding:0;clip-rule:nonzero;display:inline;overflow:visible;visibility:visible;opacity:1;isolation:auto;mix-blend-mode:normal;color-interpolation:sRGB;color-interpolation-filters:linearRGB;solid-color:#000000;solid-opacity:1;vector-effect:none;fill:#010000;fill-opacity:1;fill-rule:evenodd;stroke:none;stroke-width:88.67891693;stroke-linecap:butt;stroke-linejoin:miter;stroke-miterlimit:4;stroke-dasharray:none;stroke-dashoffset:0;stroke-opacity:1;color-rendering:auto;image-rendering:auto;shape-rendering:auto;text-rendering:auto;enable-background:accumulate"
         d="m 643.77344,824.29688 -115.75586,0.0859 c -65.081,0.008 -157.18423,17.18237 -240.33985,63.3711 -83.17508,46.19954 -154.01193,125.72352 -154.01171,237.75782 a 50.005,39.323685 0 0 0 0.0176,1.0371 c 3.83629,114.2328 56.69997,192.6267 134.78125,241.4063 77.87697,48.6519 174.03934,69.4469 267.34375,88.8984 l 166.32813,38.3809 a 50.005,39.323685 0 0 0 1.13672,0.25 c 3.73932,0.7879 7.43912,1.5977 11.14258,2.4062 79.16843,20.9773 135.14762,48.8401 172.51953,83.0821 45.24187,41.4527 67.12123,94.0035 65.99609,167.5605 l -0.004,0.2363 v 0.2383 c 0,60.0576 -25.02166,107.4982 -74.6582,141.6953 -49.63654,34.1971 -127.61584,56.4334 -240.73242,54.2617 l -0.61133,-0.012 h -0.60937 c -154.03667,0 -238.19095,-45.9146 -290.40821,-99.7715 -52.21725,-53.8569 -68.78125,-120.4196 -68.78125,-147.9433 h -55.72461 -44.27539 -55.72461 c 0,80.6941 36.39562,169.5971 114.3418,240.332 77.94619,70.735 199.3946,121.4102 357.77344,121.4102 137.22568,0 260.43382,-17.7875 353.8418,-68.0957 93.40788,-50.3082 150.10348,-135.2914 150.10348,-247.3711 0,-104.0363 -46.3022,-180.2143 -117.38278,-230.252 -67.30067,-47.3768 -152.04409,-72.1782 -236.66992,-90.6562 -17.92251,-4.6854 -36.54823,-8.9935 -55.88477,-12.9317 l -118.77344,-27.2031 c -77.47406,-17.744 -153.59929,-39.1343 -207.02734,-74.4922 -53.42805,-35.3579 -88.94336,-82.5518 -88.94336,-169.959 0,-122.0457 138.01982,-211.28591 319.94531,-211.44141 128.61522,1.90498 210.03125,37.66381 263.29883,86.11721 53.32823,48.5086 77.58194,112.2672 77.97461,168.8828 l 62.5957,-0.2695 c 6.9e-4,0.085 0.003,0.1703 0.004,0.2559 l 99.99806,-0.4278 C 1095.1278,969.5598 870.74762,824.12784 643.77344,824.29688 Z"
         transform="matrix(1,0,0,1.2716255,0,-838.25178)"
         id="path5848-2-90-2-3"
         inkscape:connector-curvature="0" />
    </g>
  </g>
</svg>
