<?xml version="1.0" encoding="UTF-8" standalone="no"?>
<!--?xml version="1.0" encoding="UTF-8" standalone="no"?-->

<svg
   xmlns:dc="http://purl.org/dc/elements/1.1/"
   xmlns:cc="http://creativecommons.org/ns#"
   xmlns:rdf="http://www.w3.org/1999/02/22-rdf-syntax-ns#"
   xmlns:svg="http://www.w3.org/2000/svg"
   xmlns="http://www.w3.org/2000/svg"
   xmlns:sodipodi="http://sodipodi.sourceforge.net/DTD/sodipodi-0.dtd"
   xmlns:inkscape="http://www.inkscape.org/namespaces/inkscape"
   version="1.1"
   viewBox="0 -288 1296 2048"
   id="svg6"
   sodipodi:docname="V.svg"
   width="1296"
   height="2048"
   inkscape:version="0.92.1 r">
  <metadata
     id="metadata12">
    <rdf:rdf>
      <cc:work
         rdf:about="">
        <dc:format>image/svg+xml</dc:format>
        <dc:type
           rdf:resource="http://purl.org/dc/dcmitype/StillImage" />
        <dc:title />
      </cc:work>
    </rdf:rdf>
    <rdf:RDF>
      <cc:Work
         rdf:about="">
        <dc:format>image/svg+xml</dc:format>
        <dc:type
           rdf:resource="http://purl.org/dc/dcmitype/StillImage" />
      </cc:Work>
    </rdf:RDF>
  </metadata>
  <defs
     id="defs10" />
  <sodipodi:namedview
     pagecolor="#ffffff"
     bordercolor="#666666"
     borderopacity="1"
     objecttolerance="10"
     gridtolerance="10"
     guidetolerance="10"
     inkscape:pageopacity="0"
     inkscape:pageshadow="2"
     inkscape:window-width="2558"
     inkscape:window-height="1402"
     id="namedview8"
     showgrid="false"
     inkscape:zoom="0.65473333"
     inkscape:cx="-1439.7586"
     inkscape:cy="1048.1702"
     inkscape:window-x="0"
     inkscape:window-y="18"
     inkscape:window-maximized="0"
     inkscape:current-layer="layer3"
     inkscape:measure-start="121.623,1547.26"
     inkscape:measure-end="200.943,1547.26"
     showguides="true"
     inkscape:guide-bbox="true">
    <sodipodi:guide
       position="650.11518,-83.75717"
       orientation="1,0"
       id="guide3860"
       inkscape:locked="false" />
    <sodipodi:guide
       position="750.5399,497.41965"
       orientation="0,1"
       id="guide893"
       inkscape:locked="false" />
    <sodipodi:guide
       position="1214.479,1532.0582"
       orientation="0,1"
       id="guide61"
       inkscape:locked="false" />
  </sodipodi:namedview>
  <g
     inkscape:groupmode="layer"
     id="layer3"
     inkscape:label="trace"
     style="display:inline">
    <path
       style="color:#000000;font-style:normal;font-variant:normal;font-weight:normal;font-stretch:normal;font-size:medium;line-height:normal;font-family:sans-serif;font-variant-ligatures:normal;font-variant-position:normal;font-variant-caps:normal;font-variant-numeric:normal;font-variant-alternates:normal;font-feature-settings:normal;text-indent:0;text-align:start;text-decoration:none;text-decoration-line:none;text-decoration-style:solid;text-decoration-color:#000000;letter-spacing:normal;word-spacing:normal;text-transform:none;writing-mode:lr-tb;direction:ltr;text-orientation:mixed;dominant-baseline:auto;baseline-shift:baseline;text-anchor:start;white-space:normal;shape-padding:0;clip-rule:nonzero;display:inline;overflow:visible;visibility:visible;opacity:1;isolation:auto;mix-blend-mode:normal;color-interpolation:sRGB;color-interpolation-filters:linearRGB;solid-color:#000000;solid-opacity:1;vector-effect:none;fill:#000000;fill-opacity:1;fill-rule:evenodd;stroke:none;stroke-width:88.9957962;stroke-linecap:butt;stroke-linejoin:miter;stroke-miterlimit:4;stroke-dasharray:none;stroke-dashoffset:0;stroke-opacity:1;color-rendering:auto;image-rendering:auto;shape-rendering:auto;text-rendering:auto;enable-background:accumulate"
       d="m 169.41992,808.13867 c 0.10852,1.68531 0.19141,3.88116 0.19141,7.32031 H 140.63672 80.615234 c 0,15.43309 1.554991,12.01206 2.089844,13.86329 0.534853,1.85122 1.01711,3.3181 1.578125,4.98632 1.12203,3.33645 2.524503,7.2628 4.316406,12.1543 3.583807,9.783 8.670422,23.23832 15.126951,40.07617 12.91307,33.67571 31.26476,80.75177 53.28125,136.82614 44.03299,112.1488 102.69814,260.2188 161.36133,407.8418 117.32639,295.2462 234.64063,588.6778 234.64063,588.6778 l 11.18554,27.9785 h 10.79688 l 0.0488,0.1367 h 151.48242 l 0.0488,-0.1367 h 10.79687 l 11.18555,-27.9785 c 0,0 117.31619,-293.4316 234.64258,-588.6778 58.66323,-147.623 117.32643,-295.693 161.35933,-407.8418 22.0165,-56.07437 40.3682,-103.15044 53.2813,-136.82614 6.4565,-16.83785 11.5431,-30.29317 15.1269,-40.07617 1.7919,-4.8915 3.1964,-8.81785 4.3184,-12.1543 0.561,-1.66822 1.0433,-3.1351 1.5781,-4.98632 0.5349,-1.85123 2.0879,1.56981 2.0879,-13.86329 h -60.0215 -28.9746 c 0,-3.4364 0.083,-5.62932 0.1914,-7.31445 -0.6703,1.93131 -1.4245,4.08669 -2.6035,7.31445 h -57.6094 c 0,-4.36328 0.1897,-5.70355 0.3711,-6.82421 -0.6001,2.03779 -1.5693,5.1824 -2.9492,9.45703 -2.9381,9.10209 -7.4133,22.45793 -13.1289,39.18945 -11.4312,33.46304 -27.8603,80.57252 -47.5801,136.61719 C 969.20507,1105.9878 916.57116,1253.897 863.93555,1401.2461 767.17444,1672.1209 679.01064,1917.169 664.00586,1958.8672 H 637.56055 C 622.55576,1917.169 534.39197,1672.1209 437.63086,1401.2461 384.99524,1253.897 332.35941,1105.9878 292.91992,993.89844 273.20018,937.85376 256.77301,890.74234 245.3418,857.2793 c -5.71561,-16.73152 -10.19271,-30.08541 -13.13086,-39.1875 -1.38104,-4.27833 -2.35125,-7.42761 -2.95117,-9.46485 0.18167,1.11942 0.37304,2.4637 0.37304,6.83203 h -57.60742 c -1.18009,-3.23055 -1.93502,-5.38869 -2.60547,-7.32031 z"
       transform="translate(0,-288)"
       id="path5236-7-72-2-3"
       inkscape:connector-curvature="0" />
  </g>
</svg>
