<?xml version="1.0" encoding="UTF-8" standalone="no"?>
<!--?xml version="1.0" encoding="UTF-8" standalone="no"?-->

<svg
   xmlns:dc="http://purl.org/dc/elements/1.1/"
   xmlns:cc="http://creativecommons.org/ns#"
   xmlns:rdf="http://www.w3.org/1999/02/22-rdf-syntax-ns#"
   xmlns:svg="http://www.w3.org/2000/svg"
   xmlns="http://www.w3.org/2000/svg"
   xmlns:sodipodi="http://sodipodi.sourceforge.net/DTD/sodipodi-0.dtd"
   xmlns:inkscape="http://www.inkscape.org/namespaces/inkscape"
   version="1.1"
   viewBox="0 -288 976 2048"
   id="svg6"
   sodipodi:docname="v.svg"
   width="976"
   height="2048"
   inkscape:version="0.92.1 r">
  <metadata
     id="metadata12">
    <rdf:rdf>
      <cc:work
         rdf:about="">
        <dc:format>image/svg+xml</dc:format>
        <dc:type
           rdf:resource="http://purl.org/dc/dcmitype/StillImage" />
        <dc:title />
      </cc:work>
    </rdf:rdf>
    <rdf:RDF>
      <cc:Work
         rdf:about="">
        <dc:format>image/svg+xml</dc:format>
        <dc:type
           rdf:resource="http://purl.org/dc/dcmitype/StillImage" />
      </cc:Work>
    </rdf:RDF>
  </metadata>
  <defs
     id="defs10" />
  <sodipodi:namedview
     pagecolor="#ffffff"
     bordercolor="#666666"
     borderopacity="1"
     objecttolerance="10"
     gridtolerance="10"
     guidetolerance="10"
     inkscape:pageopacity="0"
     inkscape:pageshadow="2"
     inkscape:window-width="2558"
     inkscape:window-height="1402"
     id="namedview8"
     showgrid="false"
     inkscape:zoom="1.8518655"
     inkscape:cx="-1043.1171"
     inkscape:cy="1018.7312"
     inkscape:window-x="0"
     inkscape:window-y="18"
     inkscape:window-maximized="0"
     inkscape:current-layer="layer3"
     inkscape:measure-start="108.932,1160.18"
     inkscape:measure-end="190.719,1160.18" />
  <g
     inkscape:groupmode="layer"
     id="layer3"
     inkscape:label="trace">
    <path
       style="color:#000000;font-style:normal;font-variant:normal;font-weight:normal;font-stretch:normal;font-size:medium;line-height:normal;font-family:sans-serif;font-variant-ligatures:normal;font-variant-position:normal;font-variant-caps:normal;font-variant-numeric:normal;font-variant-alternates:normal;font-feature-settings:normal;text-indent:0;text-align:start;text-decoration:none;text-decoration-line:none;text-decoration-style:solid;text-decoration-color:#000000;letter-spacing:normal;word-spacing:normal;text-transform:none;writing-mode:lr-tb;direction:ltr;text-orientation:mixed;dominant-baseline:auto;baseline-shift:baseline;text-anchor:start;white-space:normal;shape-padding:0;clip-rule:nonzero;display:inline;overflow:visible;visibility:visible;opacity:1;isolation:auto;mix-blend-mode:normal;color-interpolation:sRGB;color-interpolation-filters:linearRGB;solid-color:#000000;solid-opacity:1;vector-effect:none;fill:#050000;fill-opacity:1;fill-rule:evenodd;stroke:none;stroke-width:88.84413147;stroke-linecap:butt;stroke-linejoin:miter;stroke-miterlimit:4;stroke-dasharray:none;stroke-dashoffset:0;stroke-opacity:1;color-rendering:auto;image-rendering:auto;shape-rendering:auto;text-rendering:auto;enable-background:accumulate"
       d="m 165.98242,1116.3398 c 0.10312,1.6232 0.17969,3.7896 0.17969,7.1368 H 125.73047 77.318359 c 0,14.6573 1.375583,11.2369 1.810547,12.8281 0.434964,1.5911 0.801604,2.7636 1.216797,4.0703 0.830387,2.6134 1.827064,5.5654 3.09375,9.2285 2.533372,7.3261 6.097418,17.3153 10.617188,29.8086 9.039539,24.9866 21.867339,59.8703 37.255859,101.4238 30.77704,83.1071 71.7702,192.8195 112.76367,302.2051 81.98694,218.7712 163.96485,436.207 163.96485,436.207 L 418.88086,2048 h 21.54883 91.68945 21.49414 l 10.83984,-28.752 c 0,0 81.97599,-217.4358 163.9629,-436.207 40.99345,-109.3856 81.98859,-219.098 112.76562,-302.2051 15.38852,-41.5535 28.21632,-76.4372 37.25586,-101.4238 4.51977,-12.4933 8.08186,-22.4825 10.61523,-29.8086 1.26669,-3.6631 2.26532,-6.6151 3.09571,-9.2285 0.41519,-1.3067 0.78183,-2.4792 1.21679,-4.0703 0.43497,-1.5911 1.81055,1.8291 1.81055,-12.8281 h -48.41406 -40.43164 c 0,-3.3471 0.0766,-5.5136 0.17969,-7.1368 -0.43913,1.317 -0.74594,2.2738 -1.42188,4.2286 -0.27131,0.7846 -0.71792,2.0331 -1.02344,2.9082 h -46.14648 c 0,-3.7613 0.16186,-5.4171 0.33203,-6.4043 -0.3903,1.4045 -0.92227,3.2765 -1.79102,6.1269 -2.0455,6.7115 -5.22911,16.6823 -9.30468,29.1406 -8.15116,24.9168 -19.90847,59.9359 -34.02539,101.5059 -28.23386,83.1399 -65.93641,192.581 -103.64063,301.4941 -53.39193,154.229 -96.67684,278.3831 -123.30664,354.6875 C 459.51024,1833.968 416.29397,1710.564 362.99414,1557 325.29392,1448.3806 287.5946,1339.0943 259.375,1255.7852 c -14.1098,-41.6546 -25.85771,-76.8461 -33.98633,-101.9981 -4.06431,-12.576 -7.23427,-22.6854 -9.25195,-29.5019 -0.88725,-2.9975 -1.44146,-5.0304 -1.8086,-6.4278 0.11029,1.0943 0.24805,1.4657 0.24805,5.6192 h -46.14648 c -0.30552,-0.8751 -0.75213,-2.1236 -1.02344,-2.9082 -0.67603,-1.955 -0.98468,-2.9115 -1.42383,-4.2286 z"
       transform="translate(0,-288)"
       id="path5109-6"
       inkscape:connector-curvature="0" />
  </g>
</svg>
