<?xml version="1.0" encoding="UTF-8" standalone="no"?>
<!--?xml version="1.0" encoding="UTF-8" standalone="no"?-->

<svg
   xmlns:dc="http://purl.org/dc/elements/1.1/"
   xmlns:cc="http://creativecommons.org/ns#"
   xmlns:rdf="http://www.w3.org/1999/02/22-rdf-syntax-ns#"
   xmlns:svg="http://www.w3.org/2000/svg"
   xmlns="http://www.w3.org/2000/svg"
   xmlns:sodipodi="http://sodipodi.sourceforge.net/DTD/sodipodi-0.dtd"
   xmlns:inkscape="http://www.inkscape.org/namespaces/inkscape"
   version="1.1"
   viewBox="0 -288 1328 2048"
   id="svg6"
   sodipodi:docname="w.svg"
   width="1328"
   height="2048"
   inkscape:version="0.92.1 r">
  <metadata
     id="metadata12">
    <rdf:rdf>
      <cc:work
         rdf:about="">
        <dc:format>image/svg+xml</dc:format>
        <dc:type
           rdf:resource="http://purl.org/dc/dcmitype/StillImage" />
        <dc:title />
      </cc:work>
    </rdf:rdf>
    <rdf:RDF>
      <cc:Work
         rdf:about="">
        <dc:format>image/svg+xml</dc:format>
        <dc:type
           rdf:resource="http://purl.org/dc/dcmitype/StillImage" />
      </cc:Work>
    </rdf:RDF>
  </metadata>
  <defs
     id="defs10" />
  <sodipodi:namedview
     pagecolor="#ffffff"
     bordercolor="#666666"
     borderopacity="1"
     objecttolerance="10"
     gridtolerance="10"
     guidetolerance="10"
     inkscape:pageopacity="0"
     inkscape:pageshadow="2"
     inkscape:window-width="2558"
     inkscape:window-height="1402"
     id="namedview8"
     showgrid="false"
     inkscape:zoom="4.3833877"
     inkscape:cx="356.55154"
     inkscape:cy="349.45836"
     inkscape:window-x="0"
     inkscape:window-y="18"
     inkscape:window-maximized="0"
     inkscape:current-layer="layer3"
     inkscape:measure-start="108.932,1160.18"
     inkscape:measure-end="190.719,1160.18"
     showguides="true"
     inkscape:guide-bbox="true">
    <sodipodi:guide
       position="368.1212,1267.685"
       orientation="0,1"
       id="guide4527"
       inkscape:locked="false" />
  </sodipodi:namedview>
  <g
     inkscape:groupmode="layer"
     id="layer3"
     inkscape:label="trace">
    <path
       style="color:#000000;font-style:normal;font-variant:normal;font-weight:normal;font-stretch:normal;font-size:medium;line-height:normal;font-family:sans-serif;font-variant-ligatures:normal;font-variant-position:normal;font-variant-caps:normal;font-variant-numeric:normal;font-variant-alternates:normal;font-feature-settings:normal;text-indent:0;text-align:start;text-decoration:none;text-decoration-line:none;text-decoration-style:solid;text-decoration-color:#000000;letter-spacing:normal;word-spacing:normal;text-transform:none;writing-mode:lr-tb;direction:ltr;text-orientation:mixed;dominant-baseline:auto;baseline-shift:baseline;text-anchor:start;white-space:normal;shape-padding:0;clip-rule:nonzero;display:inline;overflow:visible;visibility:visible;opacity:1;isolation:auto;mix-blend-mode:normal;color-interpolation:sRGB;color-interpolation-filters:linearRGB;solid-color:#000000;solid-opacity:1;vector-effect:none;fill:#050000;fill-opacity:1;fill-rule:evenodd;stroke:none;stroke-width:88.89251709;stroke-linecap:butt;stroke-linejoin:miter;stroke-miterlimit:4;stroke-dasharray:none;stroke-dashoffset:0;stroke-opacity:1;color-rendering:auto;image-rendering:auto;shape-rendering:auto;text-rendering:auto;enable-background:accumulate"
       d="m 166.0332,1116.7168 c -0.0603,0.038 -0.0869,1.3984 0.0508,2.1562 0.0147,0.081 0.0483,0.2446 0.0645,0.3321 -0.0329,-1.5782 -0.0765,-2.5126 -0.11524,-2.4883 z m 0.11524,2.4883 c 0.0183,0.8776 0.0391,1.67 0.0391,3.289 H 125.70703 77.294922 c 0,10.3367 0.796149,9.3308 1.330078,12.2696 0.533929,2.9388 1.196335,6.2156 2.029297,10.164 1.665923,7.897 3.999488,18.3451 6.955078,31.2266 5.911179,25.7631 14.285185,61.1371 24.328125,102.9902 20.08588,83.7063 46.82942,193.2414 73.57227,302.1367 53.48569,217.7908 106.96289,432.9903 106.96289,432.9903 L 300.85352,2048 h 15.01953 170.13086 13.23047 L 667.33008,1218.0469 835.25195,2048 h 13.23438 172.21677 12.8848 l 8.418,-33.6641 c 0,0 53.4797,-213.8562 106.9707,-430.9902 26.7455,-108.567 53.4909,-217.9442 73.5859,-301.9434 10.0475,-41.9996 18.4268,-77.6282 24.3516,-103.8261 2.9623,-13.099 5.3077,-23.8075 6.9882,-32.0508 0.8403,-4.1217 1.5126,-7.5956 2.0528,-10.7676 0.5402,-3.1719 1.2441,-3.7931 1.2441,-12.2637 h -48.4121 -40.4805 c 0,-1.3724 0.017,-2.1285 0.033,-2.8261 -0.01,0.056 -0.01,0.112 -0.016,0.166 -0.111,0.6517 -0.2914,1.6267 -0.4863,2.6601 h -47.9434 c 0,-1.3695 0.012,-2.0717 0.023,-2.7558 -0.016,0.1868 -0.018,0.3788 -0.043,0.5449 -0.2463,1.6338 -0.7048,4.404 -1.3262,7.9316 -1.2426,7.0554 -3.1444,17.249 -5.5781,29.9043 -4.8674,25.3107 -11.875,60.5776 -20.2871,102.3125 -16.8243,83.4699 -39.2847,192.8946 -61.7461,301.6504 -41.25014,199.7286 -76.03568,366.0672 -82.50586,397.0254 H 923.32031 L 777.70508,1117.5566 H 737.69336 596.98633 556.8457 l -145.66797,841.5508 h -23.19726 c -6.52652,-30.8841 -41.72611,-197.3442 -83.44531,-397.1211 -22.7113,-108.7554 -45.42043,-218.1818 -62.43164,-301.6504 -8.50561,-41.7342 -15.59065,-76.9984 -20.51172,-102.3066 -2.46054,-12.6541 -4.38292,-22.8453 -5.63868,-29.8965 -0.62787,-3.5256 -1.09175,-6.2945 -1.33984,-7.9219 -0.0226,-0.1484 -0.0239,-0.3217 -0.0391,-0.4882 0.0122,0.6931 0.0254,1.3954 0.0254,2.7714 h -47.80859 c -0.27446,-1.3602 -0.49041,-2.4653 -0.64258,-3.289 z m 48.42578,0.5176 c -0.0456,-2.59 -0.11902,-1.3085 0,0 z m 905.34378,0.016 c 0.1112,-1.2954 0.043,-2.4955 0,0 z m 48.4218,-0.07 c 0.1775,-1.2546 0.062,-2.6679 0,0 z"
       transform="translate(0,-288)"
       id="path5109-6-3"
       inkscape:connector-curvature="0" />
  </g>
</svg>
