<?xml version="1.0" encoding="UTF-8" standalone="no"?>
<!--?xml version="1.0" encoding="UTF-8" standalone="no"?-->

<svg
   xmlns:dc="http://purl.org/dc/elements/1.1/"
   xmlns:cc="http://creativecommons.org/ns#"
   xmlns:rdf="http://www.w3.org/1999/02/22-rdf-syntax-ns#"
   xmlns:svg="http://www.w3.org/2000/svg"
   xmlns="http://www.w3.org/2000/svg"
   xmlns:sodipodi="http://sodipodi.sourceforge.net/DTD/sodipodi-0.dtd"
   xmlns:inkscape="http://www.inkscape.org/namespaces/inkscape"
   version="1.1"
   viewBox="0 -288 1520 2048"
   id="svg6"
   sodipodi:docname="W.svg"
   width="1520"
   height="2048"
   inkscape:version="0.92.1 r">
  <metadata
     id="metadata12">
    <rdf:rdf>
      <cc:work
         rdf:about="">
        <dc:format>image/svg+xml</dc:format>
        <dc:type
           rdf:resource="http://purl.org/dc/dcmitype/StillImage" />
        <dc:title />
      </cc:work>
    </rdf:rdf>
    <rdf:RDF>
      <cc:Work
         rdf:about="">
        <dc:format>image/svg+xml</dc:format>
        <dc:type
           rdf:resource="http://purl.org/dc/dcmitype/StillImage" />
      </cc:Work>
    </rdf:RDF>
  </metadata>
  <defs
     id="defs10" />
  <sodipodi:namedview
     pagecolor="#ffffff"
     bordercolor="#666666"
     borderopacity="1"
     objecttolerance="10"
     gridtolerance="10"
     guidetolerance="10"
     inkscape:pageopacity="0"
     inkscape:pageshadow="2"
     inkscape:window-width="2558"
     inkscape:window-height="1402"
     id="namedview8"
     showgrid="false"
     inkscape:zoom="1.095847"
     inkscape:cx="-889.21336"
     inkscape:cy="1584.3354"
     inkscape:window-x="0"
     inkscape:window-y="18"
     inkscape:window-maximized="0"
     inkscape:current-layer="layer3"
     inkscape:measure-start="108.932,1160.18"
     inkscape:measure-end="190.719,1160.18"
     showguides="true"
     inkscape:guide-bbox="true">
    <sodipodi:guide
       position="1447.4228,1514.4019"
       orientation="0,1"
       id="guide4527"
       inkscape:locked="false" />
  </sodipodi:namedview>
  <g
     inkscape:groupmode="layer"
     id="layer3"
     inkscape:label="trace">
    <path
       style="color:#000000;font-style:normal;font-variant:normal;font-weight:normal;font-stretch:normal;font-size:medium;line-height:normal;font-family:sans-serif;font-variant-ligatures:normal;font-variant-position:normal;font-variant-caps:normal;font-variant-numeric:normal;font-variant-alternates:normal;font-feature-settings:normal;text-indent:0;text-align:start;text-decoration:none;text-decoration-line:none;text-decoration-style:solid;text-decoration-color:#000000;letter-spacing:normal;word-spacing:normal;text-transform:none;writing-mode:lr-tb;direction:ltr;text-orientation:mixed;dominant-baseline:auto;baseline-shift:baseline;text-anchor:start;white-space:normal;shape-padding:0;clip-rule:nonzero;display:inline;overflow:visible;visibility:visible;opacity:1;isolation:auto;mix-blend-mode:normal;color-interpolation:sRGB;color-interpolation-filters:linearRGB;solid-color:#000000;solid-opacity:1;vector-effect:none;fill:#050000;fill-opacity:1;fill-rule:evenodd;stroke:none;stroke-width:89.02103424;stroke-linecap:butt;stroke-linejoin:miter;stroke-miterlimit:4;stroke-dasharray:none;stroke-dashoffset:0;stroke-opacity:1;color-rendering:auto;image-rendering:auto;shape-rendering:auto;text-rendering:auto;enable-background:accumulate"
       d="M 633.33008,807.34961 454.40625,1956.4375 h -16.63672 c -5.94932,-33.0643 -48.94487,-271.9105 -97.88476,-547.0898 -26.10809,-146.8007 -52.21424,-294.478 -71.7793,-407.1231 -9.78253,-56.32252 -17.93211,-103.90354 -23.60938,-138.11913 -2.83863,-17.1078 -5.06159,-30.89858 -6.53711,-40.58594 -0.73775,-4.84368 -1.29172,-8.68446 -1.61718,-11.17187 -0.32547,-2.48742 -0.22266,-6.11871 -0.22266,-0.11133 h -53.5625 c -0.0298,-0.19556 -0.0825,-0.50928 -0.10937,-0.68945 -0.36043,-2.41628 -0.19532,-6.30345 -0.19532,0.68945 H 147.09766 93.230469 c 0,8.74551 0.629838,8.82461 1.169922,12.44531 0.540084,3.6207 1.251765,7.91646 2.158203,13.13867 1.812876,10.44443 4.396016,24.48358 7.671876,41.8125 6.55172,34.65786 15.86183,82.36589 27.0293,138.80859 22.33492,112.8854 52.08718,260.6338 81.83984,407.5039 59.50531,293.7403 119.00391,583.9434 119.00391,583.9434 l 7.29296,35.5703 h 23.90625 167.33594 24.13477 L 752.625,906.90234 950.67188,2045.459 h 24.13281 167.33201 23.9063 l 7.2929,-35.5703 c 0,0 59.4986,-290.1742 119.0039,-583.9004 29.7527,-146.8632 59.5068,-294.6068 81.8418,-407.4981 11.1676,-56.4456 20.4775,-104.15962 27.0293,-138.82614 3.276,-17.33326 5.8589,-31.37899 7.6719,-41.83008 0.9065,-5.22554 1.618,-9.52531 2.1582,-13.15039 0.5402,-3.62507 1.168,-3.73008 1.168,-12.44726 h -53.8672 -35.1523 c 0,-6.95744 0.163,-3.09004 -0.1973,-0.67188 -0.026,0.17554 -0.077,0.48177 -0.1055,0.67188 h -53.5664 c 0,-5.9889 0.1028,-2.36948 -0.2226,0.11914 -0.3255,2.48862 -0.8776,6.33278 -1.6153,11.17773 -1.4754,9.68992 -3.7004,23.48193 -6.539,40.5918 -5.6772,34.21973 -13.8249,81.80298 -23.6075,138.127 -19.565,112.6479 -45.6731,260.3247 -71.7812,407.121 -48.9398,275.1707 -91.9352,514.0008 -97.8848,547.0645 h -16.6367 L 872.04492,807.34961 h -46.3789 -146.09571 z"
       transform="translate(0,-288)"
       id="path5109-6-3"
       inkscape:connector-curvature="0" />
  </g>
</svg>
