<?xml version="1.0" encoding="UTF-8" standalone="no"?>
<!--?xml version="1.0" encoding="UTF-8" standalone="no"?-->

<svg
   xmlns:dc="http://purl.org/dc/elements/1.1/"
   xmlns:cc="http://creativecommons.org/ns#"
   xmlns:rdf="http://www.w3.org/1999/02/22-rdf-syntax-ns#"
   xmlns:svg="http://www.w3.org/2000/svg"
   xmlns="http://www.w3.org/2000/svg"
   xmlns:sodipodi="http://sodipodi.sourceforge.net/DTD/sodipodi-0.dtd"
   xmlns:inkscape="http://www.inkscape.org/namespaces/inkscape"
   version="1.1"
   viewBox="0 -288 944 2048"
   id="svg6"
   sodipodi:docname="x.svg"
   width="944"
   height="2048"
   inkscape:version="0.92.1 r">
  <metadata
     id="metadata12">
    <rdf:rdf>
      <cc:work
         rdf:about="">
        <dc:format>image/svg+xml</dc:format>
        <dc:type
           rdf:resource="http://purl.org/dc/dcmitype/StillImage" />
        <dc:title />
      </cc:work>
    </rdf:rdf>
    <rdf:RDF>
      <cc:Work
         rdf:about="">
        <dc:format>image/svg+xml</dc:format>
        <dc:type
           rdf:resource="http://purl.org/dc/dcmitype/StillImage" />
      </cc:Work>
    </rdf:RDF>
  </metadata>
  <defs
     id="defs10" />
  <sodipodi:namedview
     pagecolor="#ffffff"
     bordercolor="#666666"
     borderopacity="1"
     objecttolerance="10"
     gridtolerance="10"
     guidetolerance="10"
     inkscape:pageopacity="0"
     inkscape:pageshadow="2"
     inkscape:window-width="2558"
     inkscape:window-height="1402"
     id="namedview8"
     showgrid="false"
     inkscape:zoom="1.5497616"
     inkscape:cx="-844.73819"
     inkscape:cy="437.8764"
     inkscape:window-x="0"
     inkscape:window-y="18"
     inkscape:window-maximized="0"
     inkscape:current-layer="layer3"
     inkscape:measure-start="316.934,14.2978"
     inkscape:measure-end="23.8296,14.2978" />
  <g
     inkscape:groupmode="layer"
     id="layer3"
     inkscape:label="trace">
    <path
       style="color:#000000;font-style:normal;font-variant:normal;font-weight:normal;font-stretch:normal;font-size:medium;line-height:normal;font-family:sans-serif;font-variant-ligatures:normal;font-variant-position:normal;font-variant-caps:normal;font-variant-numeric:normal;font-variant-alternates:normal;font-feature-settings:normal;text-indent:0;text-align:start;text-decoration:none;text-decoration-line:none;text-decoration-style:solid;text-decoration-color:#000000;letter-spacing:normal;word-spacing:normal;text-transform:none;writing-mode:lr-tb;direction:ltr;text-orientation:mixed;dominant-baseline:auto;baseline-shift:baseline;text-anchor:start;white-space:normal;shape-padding:0;clip-rule:nonzero;display:inline;overflow:visible;visibility:visible;opacity:1;isolation:auto;mix-blend-mode:normal;color-interpolation:sRGB;color-interpolation-filters:linearRGB;solid-color:#000000;solid-opacity:1;vector-effect:none;fill:#050000;fill-opacity:1;fill-rule:evenodd;stroke:none;stroke-width:89.11291504;stroke-linecap:butt;stroke-linejoin:miter;stroke-miterlimit:4;stroke-dasharray:none;stroke-dashoffset:0;stroke-opacity:1;color-rendering:auto;image-rendering:auto;shape-rendering:auto;text-rendering:auto;enable-background:accumulate"
       d="m 201.58594,1104.0977 c -0.0186,-0.035 0.0604,0.1091 0.2832,0.5449 0.22283,0.4358 0.58884,1.0956 1.33398,2.9512 0.74516,1.8556 3.09375,2.3818 3.09376,16.1933 h -89.11329 c 0,13.9761 2.42634,14.7778 3.32422,17.0137 0.89789,2.2359 1.4917,3.3816 2.01758,4.4101 1.05176,2.0571 1.8269,3.3723 2.68555,4.8223 1.7173,2.9001 3.66588,5.9939 6.13086,9.8281 4.92995,7.6685 11.79432,18.0282 20.49804,30.9922 17.40745,25.928 42.07701,62.1089 71.66993,105.2578 54.71915,79.7851 126.58125,183.8313 199.33789,289.2051 -72.86438,105.5538 -144.57156,209.5463 -199.38477,289.791 -29.60567,43.3418 -54.28893,79.7592 -71.73828,106.0137 -8.72468,13.1272 -15.61343,23.6638 -20.60938,31.5996 -2.49797,3.9679 -4.48935,7.2107 -6.28906,10.3731 -0.89985,1.5811 -1.7326,3.0557 -2.83789,5.371 -1.10529,2.3154 -4.80469,-1.7244 -4.80469,20.4629 h 50.14453 c 0,0.012 0,0.021 0,0.033 h 38.96876 c -0.001,6.7155 -0.36558,10.3787 -0.82813,12.9707 0.4506,-0.7281 0.53123,-0.8966 1.05859,-1.7343 1.91135,-3.0361 4.37957,-6.8692 7.22266,-11.2364 h 42.68945 c 0,10.8095 -1.57876,11.8065 -2.13086,13.4864 -0.55209,1.6798 -0.84062,2.314 -1.01367,2.7226 -0.3461,0.8173 -0.24017,0.5328 0.0391,-0.031 0.5584,-1.1286 1.88292,-3.6777 3.68164,-7.0078 3.59745,-6.6602 9.18865,-16.6971 16.33399,-29.3282 14.29069,-25.2621 34.87791,-61.0681 59.59375,-103.8027 39.89778,-68.9847 91.26597,-157.2742 144.04297,-248.0527 52.77718,90.7788 104.14702,179.0678 144.04492,248.0527 24.71584,42.7346 45.30306,78.5406 59.59375,103.8027 7.14534,12.6311 12.73654,22.668 16.33398,29.3282 1.79873,3.3301 3.12325,5.8792 3.68164,7.0078 0.2792,0.5642 0.38514,0.8487 0.0391,0.031 -0.17305,-0.4086 -0.46158,-1.0428 -1.01367,-2.7226 -0.5521,-1.6799 -2.13086,-2.6769 -2.13086,-13.4864 h 42.68945 c 2.84309,4.3672 5.31131,8.2003 7.22266,11.2364 0.52736,0.8377 0.60799,1.0062 1.05859,1.7343 -0.46255,-2.592 -0.82679,-6.2552 -0.82813,-12.9707 h 38.96875 c 0,-0.012 10e-6,-0.021 0,-0.033 h 50.14258 c 0,-22.1873 -3.69744,-18.1475 -4.80273,-20.4629 -1.10529,-2.3153 -1.93804,-3.7899 -2.83789,-5.371 -1.79971,-3.1623 -3.7911,-6.4052 -6.28906,-10.3731 -4.99595,-7.9358 -11.8847,-18.4724 -20.60938,-31.5996 -17.44935,-26.2545 -42.13261,-62.6719 -71.73828,-106.0137 -54.81321,-80.2447 -126.5204,-184.2372 -199.38477,-289.791 72.75664,-105.3739 144.61874,-209.4201 199.33789,-289.2051 29.59292,-43.1489 54.26248,-79.3298 71.66993,-105.2578 8.70372,-12.964 15.56809,-23.3237 20.49804,-30.9922 2.46498,-3.8342 4.41356,-6.928 6.13086,-9.8281 0.85865,-1.45 1.63184,-2.7652 2.6836,-4.8223 0.52588,-1.0285 1.12164,-2.1742 2.01953,-4.4101 0.89788,-2.2359 3.32226,-3.0376 3.32226,-17.0137 h -52.41211 -36.69922 c 0,-13.8116 2.3486,-14.3377 3.09375,-16.1933 0.74516,-1.8556 1.11116,-2.5154 1.33399,-2.9512 0.22283,-0.4358 0.30185,-0.5795 0.2832,-0.5449 -0.0187,0.035 -0.13558,0.247 -0.30273,0.5293 -0.6686,1.129 -2.25922,3.6961 -4.41211,7.0449 -2.08698,3.2462 -4.78191,7.3606 -7.92578,12.1152 h -44.48243 c 0,-11.0252 1.56269,-11.4348 1.93555,-12.5449 0.37287,-1.1101 0.37758,-1.0113 0.17774,-0.5469 -0.39969,0.9288 -1.612,3.5371 -3.32813,6.9649 -3.43225,6.8554 -8.95079,17.2872 -16.03711,30.289 -14.17264,26.0036 -34.71876,62.5434 -59.39648,105.8555 -39.41265,69.1734 -89.48934,155.8326 -141.63086,245.7246 -52.14137,-89.8916 -102.21638,-176.5514 -141.62891,-245.7246 -24.67772,-43.3121 -45.22384,-79.8519 -59.39648,-105.8555 -7.08632,-13.0018 -12.60486,-23.4336 -16.03711,-30.289 -1.71613,-3.4278 -2.92844,-6.0361 -3.32813,-6.9649 -0.19984,-0.4644 -0.19513,-0.5632 0.17774,0.5469 0.37286,1.1101 1.93554,1.5197 1.93554,12.5449 h -44.48242 c -3.14387,-4.7546 -5.8388,-8.869 -7.92578,-12.1152 -2.15289,-3.3488 -3.74351,-5.9159 -4.41211,-7.0449 -0.16715,-0.2823 -0.28408,-0.4948 -0.30273,-0.5293 z m 0.88867,962.7421 c -0.0125,0.017 -0.0563,-0.01 -0.0664,0.016 -0.49919,1.0457 -0.42786,0.8294 -0.13476,0.3144 0.0277,-0.049 0.16916,-0.2745 0.20117,-0.3301 z m 549.02539,0 c 0.032,0.056 0.17343,0.2814 0.20117,0.3301 0.2931,0.515 0.36443,0.7313 -0.13476,-0.3144 -0.0102,-0.021 -0.0539,3e-4 -0.0664,-0.016 z"
       transform="translate(0,-288)"
       id="path5109-6"
       inkscape:connector-curvature="0" />
  </g>
</svg>
