<?xml version="1.0" encoding="UTF-8" standalone="no"?>
<!--?xml version="1.0" encoding="UTF-8" standalone="no"?-->

<svg
   xmlns:dc="http://purl.org/dc/elements/1.1/"
   xmlns:cc="http://creativecommons.org/ns#"
   xmlns:rdf="http://www.w3.org/1999/02/22-rdf-syntax-ns#"
   xmlns:svg="http://www.w3.org/2000/svg"
   xmlns="http://www.w3.org/2000/svg"
   xmlns:sodipodi="http://sodipodi.sourceforge.net/DTD/sodipodi-0.dtd"
   xmlns:inkscape="http://www.inkscape.org/namespaces/inkscape"
   version="1.1"
   viewBox="0 -288 1208 2048"
   id="svg6"
   sodipodi:docname="Y.svg"
   width="1208"
   height="2048"
   inkscape:version="0.92.1 r">
  <metadata
     id="metadata12">
    <rdf:rdf>
      <cc:work
         rdf:about="">
        <dc:format>image/svg+xml</dc:format>
        <dc:type
           rdf:resource="http://purl.org/dc/dcmitype/StillImage" />
        <dc:title />
      </cc:work>
    </rdf:rdf>
    <rdf:RDF>
      <cc:Work
         rdf:about="">
        <dc:format>image/svg+xml</dc:format>
        <dc:type
           rdf:resource="http://purl.org/dc/dcmitype/StillImage" />
      </cc:Work>
    </rdf:RDF>
  </metadata>
  <defs
     id="defs10" />
  <sodipodi:namedview
     pagecolor="#ffffff"
     bordercolor="#666666"
     borderopacity="1"
     objecttolerance="10"
     gridtolerance="10"
     guidetolerance="10"
     inkscape:pageopacity="0"
     inkscape:pageshadow="2"
     inkscape:window-width="2558"
     inkscape:window-height="1402"
     id="namedview8"
     showgrid="false"
     inkscape:zoom="0.92593278"
     inkscape:cx="-1191.5221"
     inkscape:cy="1793.9213"
     inkscape:window-x="0"
     inkscape:window-y="18"
     inkscape:window-maximized="0"
     inkscape:current-layer="layer3"
     inkscape:measure-start="997.664,1544.09"
     inkscape:measure-end="1082.98,1544.09"
     showguides="true"
     inkscape:guide-bbox="true">
    <sodipodi:guide
       position="744.02015,547.6602"
       orientation="1,0"
       id="guide3860"
       inkscape:locked="false" />
    <sodipodi:guide
       position="750.5399,497.41965"
       orientation="0,1"
       id="guide893"
       inkscape:locked="false" />
    <sodipodi:guide
       position="200.94286,1516.5898"
       orientation="0,1"
       id="guide209"
       inkscape:locked="false" />
  </sodipodi:namedview>
  <g
     inkscape:groupmode="layer"
     id="layer3"
     inkscape:label="trace">
    <path
       style="color:#000000;font-style:normal;font-variant:normal;font-weight:normal;font-stretch:normal;font-size:medium;line-height:normal;font-family:sans-serif;font-variant-ligatures:normal;font-variant-position:normal;font-variant-caps:normal;font-variant-numeric:normal;font-variant-alternates:normal;font-feature-settings:normal;text-indent:0;text-align:start;text-decoration:none;text-decoration-line:none;text-decoration-style:solid;text-decoration-color:#000000;letter-spacing:normal;word-spacing:normal;text-transform:none;writing-mode:lr-tb;direction:ltr;text-orientation:mixed;dominant-baseline:auto;baseline-shift:baseline;text-anchor:start;white-space:normal;shape-padding:0;clip-rule:nonzero;display:inline;overflow:visible;visibility:visible;opacity:1;isolation:auto;mix-blend-mode:normal;color-interpolation:sRGB;color-interpolation-filters:linearRGB;solid-color:#000000;solid-opacity:1;vector-effect:none;fill:#000000;fill-opacity:1;fill-rule:evenodd;stroke:none;stroke-width:89.36460114;stroke-linecap:butt;stroke-linejoin:miter;stroke-miterlimit:4;stroke-dasharray:none;stroke-dashoffset:0;stroke-opacity:1;color-rendering:auto;image-rendering:auto;shape-rendering:auto;text-rendering:auto;enable-background:accumulate"
       d="m 1013.5078,800.33398 c -0.2576,0.52147 -0.2078,0.46571 -0.5371,1.10157 -1.1728,2.26491 -2.801,5.24542 -4.7637,8.73047 h -47.39059 c 0,-4.50993 0.2324,-6.82553 0.5039,-8.41993 -0.3056,0.72517 -0.32554,0.83496 -0.80078,1.88282 -2.20416,4.85997 -6.05404,12.65535 -11.06641,22.29492 -10.0247,19.27914 -24.79193,46.24324 -42.56054,77.91211 C 871.35535,967.17368 823.71763,1049.5663 776.07422,1131.125 696.5758,1267.2149 629.3602,1380.2527 605.18359,1420.8652 581.01124,1380.2389 513.78924,1267.1357 434.28516,1131 386.64084,1049.4181 339.00119,967.01255 303.46094,903.68555 285.69081,872.02204 270.92145,845.0691 260.89258,825.80469 c -5.01444,-9.63221 -8.86634,-17.41829 -11.07422,-22.27344 -0.463,-1.01814 -0.47826,-1.11483 -0.78125,-1.83008 0.2707,1.61385 0.50391,3.94397 0.50391,8.46485 h -47.55469 c -1.84749,-3.31119 -3.40252,-6.18211 -4.51953,-8.36133 -0.39122,-0.76324 -0.34986,-0.72556 -0.63672,-1.31836 0.36789,1.78709 0.6875,4.4368 0.6875,9.67969 H 108.1543 c 0,15.52792 2.90622,17.16108 4.53515,21.16601 1.62894,4.00494 3.30577,7.43946 5.25196,11.23633 3.89237,7.59374 8.84999,16.3552 15.02343,26.83203 12.3469,20.95367 29.44557,48.43185 49.91016,80.56445 40.92919,64.26526 95.19754,146.88526 149.45898,228.64066 97.62652,147.0932 190.87616,284.9247 209.48438,312.4023 V 2048 h 37.5 51.86328 37.5 v -557.5859 c 19.38443,-28.663 112.0869,-165.875 209.2207,-312.2813 54.28888,-81.8277 108.58341,-164.4815 149.52346,-228.66796 20.47,-32.09321 37.5701,-59.50707 49.9062,-80.34179 6.1681,-10.41736 11.1181,-19.10668 14.9961,-26.59571 1.9391,-3.74451 3.6043,-7.11399 5.2324,-11.04687 1.6282,-3.93288 4.6407,-5.12059 4.6407,-21.31445 h -52.0215 -37.3418 c 0,-5.26464 0.3085,-7.96524 0.6699,-9.83204 z"
       transform="translate(0,-288)"
       id="path5236-7-72-2-3"
       inkscape:connector-curvature="0" />
  </g>
</svg>
