<?xml version="1.0" encoding="UTF-8" standalone="no"?>
<!--?xml version="1.0" encoding="UTF-8" standalone="no"?-->

<svg
   xmlns:dc="http://purl.org/dc/elements/1.1/"
   xmlns:cc="http://creativecommons.org/ns#"
   xmlns:rdf="http://www.w3.org/1999/02/22-rdf-syntax-ns#"
   xmlns:svg="http://www.w3.org/2000/svg"
   xmlns="http://www.w3.org/2000/svg"
   xmlns:sodipodi="http://sodipodi.sourceforge.net/DTD/sodipodi-0.dtd"
   xmlns:inkscape="http://www.inkscape.org/namespaces/inkscape"
   version="1.1"
   viewBox="0 -288 1016 2048"
   id="svg6"
   sodipodi:docname="a.svg"
   width="1016"
   height="2048"
   inkscape:version="0.92.1 r">
  <metadata
     id="metadata12">
    <rdf:rdf>
      <cc:work
         rdf:about="">
        <dc:format>image/svg+xml</dc:format>
        <dc:type
           rdf:resource="http://purl.org/dc/dcmitype/StillImage" />
        <dc:title />
      </cc:work>
    </rdf:rdf>
    <rdf:RDF>
      <cc:Work
         rdf:about="">
        <dc:format>image/svg+xml</dc:format>
        <dc:type
           rdf:resource="http://purl.org/dc/dcmitype/StillImage" />
      </cc:Work>
    </rdf:RDF>
  </metadata>
  <defs
     id="defs10" />
  <sodipodi:namedview
     pagecolor="#ffffff"
     bordercolor="#666666"
     borderopacity="1"
     objecttolerance="10"
     gridtolerance="10"
     guidetolerance="10"
     inkscape:pageopacity="0"
     inkscape:pageshadow="2"
     inkscape:window-width="1364"
     inkscape:window-height="730"
     id="namedview8"
     showgrid="false"
     inkscape:zoom="2.5735711"
     inkscape:cx="768.62485"
     inkscape:cy="0.12298198"
     inkscape:window-x="0"
     inkscape:window-y="18"
     inkscape:window-maximized="0"
     inkscape:current-layer="layer2"
     inkscape:measure-start="489.366,1118.33"
     inkscape:measure-end="489.366,1096.66" />
  <g
     inkscape:groupmode="layer"
     id="layer2"
     inkscape:label="trace"
     style="display:inline">
    <path
       style="color:#000000;font-style:normal;font-variant:normal;font-weight:normal;font-stretch:normal;font-size:medium;line-height:normal;font-family:sans-serif;font-variant-ligatures:normal;font-variant-position:normal;font-variant-caps:normal;font-variant-numeric:normal;font-variant-alternates:normal;font-feature-settings:normal;text-indent:0;text-align:start;text-decoration:none;text-decoration-line:none;text-decoration-style:solid;text-decoration-color:#000000;letter-spacing:normal;word-spacing:normal;text-transform:none;writing-mode:lr-tb;direction:ltr;text-orientation:mixed;dominant-baseline:auto;baseline-shift:baseline;text-anchor:start;white-space:normal;shape-padding:0;clip-rule:nonzero;display:inline;overflow:visible;visibility:visible;opacity:1;isolation:auto;mix-blend-mode:normal;color-interpolation:sRGB;color-interpolation-filters:linearRGB;solid-color:#000000;solid-opacity:1;vector-effect:none;fill:#000000;fill-opacity:1;fill-rule:evenodd;stroke:none;stroke-width:25;stroke-linecap:round;stroke-linejoin:round;stroke-miterlimit:4;stroke-dasharray:none;stroke-dashoffset:0;stroke-opacity:1;color-rendering:auto;image-rendering:auto;shape-rendering:auto;text-rendering:auto;enable-background:accumulate"
       d="M 431.45508 919.27539 C 302.86293 919.27539 168.39648 1033.7408 168.39648 1208.1738 A 12.50125 12.50125 0 1 0 193.39648 1208.1738 C 193.39648 1046.5794 317.77529 944.27539 431.45508 944.27539 L 434.51953 944.27539 C 352.07526 956.43277 298.71909 996.57771 266.47852 1043.9258 C 227.72569 1100.8377 218.45312 1166.7452 218.45312 1208.1738 A 12.50125 12.50125 0 1 0 243.45312 1208.1738 C 243.45312 1170.6029 252.46632 1108.9231 287.14258 1057.998 C 321.81884 1007.073 381.13977 965.5 488.09961 965.5 C 553.583 965.5 610.00962 981.20822 650.11523 1018.8926 C 690.22085 1056.5769 715.51172 1117.265 715.51172 1211.8926 L 715.51172 1345.1602 C 633.03728 1347.1347 513.71502 1355.8904 405.74609 1393.8789 C 338.61422 1417.499 275.63527 1452.5405 229.17969 1505.0449 C 182.76166 1557.5069 153.41461 1627.5001 153.36719 1718.0684 C 153.3666 1718.0994 153.29869 1721.6198 153.49219 1727.4688 C 154.32292 1752.5802 160.52591 1826.4726 198.4043 1895.8457 C 236.28269 1965.2188 307.95288 2029.5215 433.20117 2029.5215 C 521.46385 2029.5215 606.40912 1968.2507 670.17578 1908.4941 C 689.10611 1890.7543 706.1691 1873.0303 720.83398 1856.8574 C 726.89186 1889.9011 733.77799 1927.2127 739.99609 1961.7324 C 743.97963 1983.847 747.55111 2004.1059 750.13086 2019.668 C 752.71061 2035.23 754.23838 2047.8015 754.24609 2048.2266 A 12.50125 12.50125 0 0 0 754.26367 2048.5566 A 12.50125 12.50125 0 0 0 754.31055 2049.4062 A 12.50125 12.50125 0 0 0 754.36328 2049.7949 A 12.50125 12.50125 0 0 0 754.49414 2050.6328 A 12.50125 12.50125 0 0 0 754.58203 2051 A 12.50125 12.50125 0 0 0 754.8125 2051.8789 A 12.50125 12.50125 0 0 0 754.88477 2052.0859 A 12.50125 12.50125 0 0 0 755.24219 2053.0527 A 12.50125 12.50125 0 0 0 755.33008 2053.2422 A 12.50125 12.50125 0 0 0 755.79102 2054.1836 A 12.50125 12.50125 0 0 0 755.87695 2054.3281 A 12.50125 12.50125 0 0 0 756.45117 2055.2559 A 12.50125 12.50125 0 0 0 756.5293 2055.3613 A 12.50125 12.50125 0 0 0 757.20703 2056.2441 A 12.50125 12.50125 0 0 0 757.30078 2056.3496 A 12.50125 12.50125 0 0 0 758.06055 2057.1602 A 12.50125 12.50125 0 0 0 758.16016 2057.25 A 12.50125 12.50125 0 0 0 759.00586 2057.9844 A 12.50125 12.50125 0 0 0 759.09375 2058.0488 A 12.50125 12.50125 0 0 0 760.03125 2058.7129 A 12.50125 12.50125 0 0 0 760.08398 2058.7441 A 12.50125 12.50125 0 0 0 761.11133 2059.3281 A 12.50125 12.50125 0 0 0 761.19727 2059.3672 A 12.50125 12.50125 0 0 0 762.25586 2059.8359 A 12.50125 12.50125 0 0 0 762.33984 2059.8633 A 12.50125 12.50125 0 0 0 763.4375 2060.2227 A 12.50125 12.50125 0 0 0 763.55273 2060.25 A 12.50125 12.50125 0 0 0 764.66211 2060.4941 A 12.50125 12.50125 0 0 0 764.75391 2060.5059 A 12.50125 12.50125 0 0 0 765.90039 2060.6406 A 12.50125 12.50125 0 0 0 766.01367 2060.6445 A 12.50125 12.50125 0 0 0 767.12695 2060.6641 A 12.50125 12.50125 0 0 0 767.34375 2060.6484 A 12.50125 12.50125 0 0 0 768.39062 2060.5605 A 12.50125 12.50125 0 0 0 768.50977 2060.541 A 12.50125 12.50125 0 0 0 769.61719 2060.334 A 12.50125 12.50125 0 0 0 769.75977 2060.2949 A 12.50125 12.50125 0 0 0 770.79492 2059.9941 A 12.50125 12.50125 0 0 0 771.0293 2059.9062 A 12.50125 12.50125 0 0 0 771.96875 2059.5254 A 12.50125 12.50125 0 0 0 772.14648 2059.4355 A 12.50125 12.50125 0 0 0 773.06055 2058.957 A 12.50125 12.50125 0 0 0 773.31055 2058.7969 A 12.50125 12.50125 0 0 0 774.09375 2058.2793 A 12.50125 12.50125 0 0 0 774.37891 2058.0566 A 12.50125 12.50125 0 0 0 775.06055 2057.502 A 12.50125 12.50125 0 0 0 775.35547 2057.2188 A 12.50125 12.50125 0 0 0 775.94336 2056.6309 A 12.50125 12.50125 0 0 0 776.24805 2056.2734 A 12.50125 12.50125 0 0 0 776.72852 2055.6875 A 12.50125 12.50125 0 0 0 777.05273 2055.2207 A 12.50125 12.50125 0 0 0 777.42578 2054.6582 A 12.50125 12.50125 0 0 0 777.7168 2054.1328 A 12.50125 12.50125 0 0 0 778.01367 2053.5742 A 12.50125 12.50125 0 0 0 778.26758 2052.9863 A 12.50125 12.50125 0 0 0 778.5 2052.4121 A 12.50125 12.50125 0 0 0 778.69336 2051.7969 A 12.50125 12.50125 0 0 0 778.85938 2051.2344 A 12.50125 12.50125 0 0 0 779.00781 2050.5293 A 12.50125 12.50125 0 0 0 779.10352 2050.0176 A 12.50125 12.50125 0 0 0 779.18359 2049.2695 A 12.50125 12.50125 0 0 0 779.22852 2048.7617 A 12.50125 12.50125 0 0 0 779.24219 2048.1387 A 12.50125 12.50125 0 0 0 779.24414 2048 L 779.24414 1363.8262 A 12.50125 12.50125 0 0 0 779.24414 1350.377 L 779.24414 1203.334 C 779.24414 1111.1218 755.10524 1039.9824 712.90039 991.79102 C 670.69554 943.59961 610.70528 919.27539 542.81445 919.27539 L 431.45508 919.27539 z M 542.0918 944.27539 L 542.81445 944.27539 C 604.83689 944.27539 656.8121 965.69184 694.09375 1008.2617 C 731.3754 1050.8316 754.24414 1115.4726 754.24414 1203.334 L 754.24414 1344.6289 C 749.87699 1344.6488 745.23323 1344.6904 740.51172 1344.7402 L 740.51172 1211.8926 C 740.51172 1112.7526 713.33745 1043.9936 667.23438 1000.6738 C 633.39919 968.88134 590.17183 951.35771 542.0918 944.27539 z M 754.24414 1369.6328 L 754.24414 1777.4199 C 751.73738 1780.7964 747.09923 1786.9336 740.51172 1795.2012 L 740.51172 1369.7578 C 745.23186 1369.7033 749.87351 1369.6555 754.24414 1369.6328 z M 715.51172 1372.4121 L 715.51172 1819.3086 C 704.8761 1829.2789 669.75926 1861.3148 623.81055 1893.6953 C 568.57573 1932.6198 498.06225 1970.5 441.98438 1970.5 C 360.34922 1970.5 307.55646 1935.9772 273.45312 1888.2285 C 239.3498 1840.4799 224.95508 1778.7189 224.95508 1727.0195 C 224.95508 1579.9293 317.79953 1492.8936 428.4707 1440.3496 C 532.25632 1391.0747 651.25014 1374.3077 715.51172 1372.4121 z M 430.15039 1412.0566 C 426.00144 1413.9129 421.86514 1415.8109 417.74805 1417.7656 C 302.13295 1472.6569 199.95508 1569.267 199.95508 1727.0195 C 199.95508 1783.2751 215.07465 1849.5048 253.10938 1902.7578 C 291.14409 1956.0109 353.11454 1995.5 441.98438 1995.5 C 481.93756 1995.5 523.9007 1980.7558 563.37305 1960.3164 C 521.31599 1986.4703 476.39558 2004.5215 433.20117 2004.5215 C 316.29656 2004.5215 255.14406 1947.5974 220.3457 1883.8652 C 185.54734 1820.1331 179.21963 1749.0432 178.47852 1726.6406 C 178.30076 1721.2665 178.36133 1718.5449 178.36133 1718.5449 A 12.50125 12.50125 0 0 0 178.36328 1718.2852 C 178.36328 1632.9345 205.23633 1569.835 247.9043 1521.6113 C 290.57226 1473.3877 349.60813 1440.134 414.04297 1417.4629 C 419.37812 1415.5857 424.7513 1413.7899 430.15039 1412.0566 z M 754.24414 1818.0059 L 754.24414 1900.4688 C 749.78325 1876.1587 745.54074 1853.0874 741.85938 1832.8828 C 746.36598 1827.5724 750.54064 1822.5547 754.24414 1818.0059 z "
       transform="translate(0,-288)"
       id="path5546-1-6-6-4" />
  </g>
</svg>
