<?xml version="1.0" encoding="UTF-8" standalone="no"?>
<!--?xml version="1.0" encoding="UTF-8" standalone="no"?-->

<svg
   xmlns:dc="http://purl.org/dc/elements/1.1/"
   xmlns:cc="http://creativecommons.org/ns#"
   xmlns:rdf="http://www.w3.org/1999/02/22-rdf-syntax-ns#"
   xmlns:svg="http://www.w3.org/2000/svg"
   xmlns="http://www.w3.org/2000/svg"
   xmlns:sodipodi="http://sodipodi.sourceforge.net/DTD/sodipodi-0.dtd"
   xmlns:inkscape="http://www.inkscape.org/namespaces/inkscape"
   version="1.1"
   viewBox="0 -288 1024 2048"
   id="svg6"
   sodipodi:docname="c.svg"
   width="1024"
   height="2048"
   inkscape:version="0.92.1 r">
  <metadata
     id="metadata12">
    <rdf:rdf>
      <cc:work
         rdf:about="">
        <dc:format>image/svg+xml</dc:format>
        <dc:type
           rdf:resource="http://purl.org/dc/dcmitype/StillImage" />
        <dc:title />
      </cc:work>
    </rdf:rdf>
    <rdf:RDF>
      <cc:Work
         rdf:about="">
        <dc:format>image/svg+xml</dc:format>
        <dc:type
           rdf:resource="http://purl.org/dc/dcmitype/StillImage" />
      </cc:Work>
    </rdf:RDF>
  </metadata>
  <defs
     id="defs10" />
  <sodipodi:namedview
     pagecolor="#ffffff"
     bordercolor="#666666"
     borderopacity="1"
     objecttolerance="10"
     gridtolerance="10"
     guidetolerance="10"
     inkscape:pageopacity="0"
     inkscape:pageshadow="2"
     inkscape:window-width="1364"
     inkscape:window-height="730"
     id="namedview8"
     showgrid="false"
     inkscape:zoom="0.2282643"
     inkscape:cx="468.69905"
     inkscape:cy="372.14943"
     inkscape:window-x="0"
     inkscape:window-y="18"
     inkscape:window-maximized="0"
     inkscape:current-layer="layer3"
     inkscape:measure-start="812.669,393.487"
     inkscape:measure-end="881.319,393.487"
     showguides="true"
     inkscape:guide-bbox="true">
    <sodipodi:guide
       position="532.61017,1118.1017"
       orientation="1,0"
       id="guide5888"
       inkscape:locked="false" />
    <sodipodi:guide
       position="820.72326,678.05548"
       orientation="1,0"
       id="guide5890"
       inkscape:locked="false" />
    <sodipodi:guide
       position="262.86142,886.3148"
       orientation="0,1"
       id="guide47"
       inkscape:locked="false" />
  </sodipodi:namedview>
  <g
     inkscape:groupmode="layer"
     id="layer3"
     inkscape:label="trace"
     style="display:inline">
    <path
       style="color:#000000;font-style:normal;font-variant:normal;font-weight:normal;font-stretch:normal;font-size:medium;line-height:normal;font-family:sans-serif;font-variant-ligatures:normal;font-variant-position:normal;font-variant-caps:normal;font-variant-numeric:normal;font-variant-alternates:normal;font-feature-settings:normal;text-indent:0;text-align:start;text-decoration:none;text-decoration-line:none;text-decoration-style:solid;text-decoration-color:#000000;letter-spacing:normal;word-spacing:normal;text-transform:none;writing-mode:lr-tb;direction:ltr;text-orientation:mixed;dominant-baseline:auto;baseline-shift:baseline;text-anchor:start;white-space:normal;shape-padding:0;clip-rule:nonzero;display:inline;overflow:visible;visibility:visible;opacity:1;isolation:auto;mix-blend-mode:normal;color-interpolation:sRGB;color-interpolation-filters:linearRGB;solid-color:#000000;solid-opacity:1;vector-effect:none;fill:#000000;fill-opacity:1;fill-rule:evenodd;stroke:none;stroke-width:25;stroke-linecap:round;stroke-linejoin:round;stroke-miterlimit:4;stroke-dasharray:none;stroke-dashoffset:0;stroke-opacity:1;color-rendering:auto;image-rendering:auto;shape-rendering:auto;text-rendering:auto;enable-background:accumulate"
       d="M 575.45898 920.50391 L 490.85938 920.50586 C 391.08007 920.50586 307.00031 976.77308 249.66211 1074.5762 C 192.32391 1172.3793 160.26172 1311.7118 160.26172 1482.2832 C 160.26172 1658.9141 202.36582 1796.2304 270.2832 1889.6152 C 338.18257 1982.9753 432.49182 2032.0559 533.49219 2030.502 C 678.11446 2030.467 767.24364 1966.2173 817.89648 1885.7109 C 868.56311 1805.1827 882.15625 1709.4783 882.15625 1643.0059 A 12.50125 12.50125 0 1 0 857.15625 1643.0059 C 857.15625 1705.9927 843.6774 1797.7896 796.73633 1872.3965 C 760.76771 1929.5641 705.98719 1977.2733 620.50977 1996.4551 C 671.51958 1979.3606 715.92762 1947.3721 750.65625 1904.418 C 803.98793 1838.4546 834.92969 1746.8965 834.92969 1643 A 12.50125 12.50125 0 1 0 809.92969 1643 C 809.92969 1741.9271 780.39879 1827.8684 731.2168 1888.6992 C 682.0348 1949.53 613.63296 1985.5 533.32617 1985.5 C 422.18208 1985.5 347.35838 1930.7575 297.69727 1838.0645 C 248.03615 1745.3714 225.57813 1614.3313 225.57812 1466.8848 C 225.57812 1305.2479 252.77207 1178.8722 304.47656 1094.1855 C 356.18105 1009.4989 431.00006 965.5 532.80273 965.5 C 629.21119 965.5 696.95592 1001.6395 741.88672 1057.668 C 786.81752 1113.6965 808.58789 1190.5319 808.58789 1271.5117 A 12.50125 12.50125 0 1 0 833.58789 1271.5117 C 833.58789 1186.0702 810.80498 1103.6493 761.38867 1042.0273 C 722.94875 994.09294 668.1798 959.30479 597.37305 946.21289 C 679.5641 951.58946 741.6012 987.34038 784.94727 1041.6426 C 832.06534 1100.6702 856.6582 1182.308 856.6582 1270.6172 A 12.50125 12.50125 0 1 0 881.6582 1270.6172 C 881.6582 1177.6819 855.9449 1090.5126 804.48438 1026.0449 C 753.02383 961.57722 675.37632 920.50391 575.45898 920.50391 z M 470.57617 946.35352 C 390.94452 961.96693 327.52642 1008.4557 283.13867 1081.1582 C 227.73685 1171.9007 200.57813 1302.4697 200.57812 1466.8848 C 200.57814 1616.8396 222.88013 1751.3566 275.66016 1849.8711 C 279.80782 1857.6127 284.15686 1865.1286 288.70703 1872.4082 C 225.79365 1784.4987 185.26172 1653.308 185.26172 1482.2812 C 185.26172 1314.8606 217.09433 1179.5567 271.22852 1087.2188 C 321.26559 1001.8693 389.10505 953.22798 470.57617 946.35352 z "
       transform="translate(0,-288)"
       id="path5546-0-3-2-5-5" />
  </g>
</svg>
