<?xml version="1.0" encoding="UTF-8" standalone="no"?>
<!--?xml version="1.0" encoding="UTF-8" standalone="no"?-->

<svg
   xmlns:dc="http://purl.org/dc/elements/1.1/"
   xmlns:cc="http://creativecommons.org/ns#"
   xmlns:rdf="http://www.w3.org/1999/02/22-rdf-syntax-ns#"
   xmlns:svg="http://www.w3.org/2000/svg"
   xmlns="http://www.w3.org/2000/svg"
   xmlns:sodipodi="http://sodipodi.sourceforge.net/DTD/sodipodi-0.dtd"
   xmlns:inkscape="http://www.inkscape.org/namespaces/inkscape"
   version="1.1"
   viewBox="0 -288 1328 2048"
   id="svg6"
   sodipodi:docname="D.svg"
   width="1328"
   height="2048"
   inkscape:version="0.92.1 r">
  <metadata
     id="metadata12">
    <rdf:rdf>
      <cc:work
         rdf:about="">
        <dc:format>image/svg+xml</dc:format>
        <dc:type
           rdf:resource="http://purl.org/dc/dcmitype/StillImage" />
        <dc:title />
      </cc:work>
    </rdf:rdf>
    <rdf:RDF>
      <cc:Work
         rdf:about="">
        <dc:format>image/svg+xml</dc:format>
        <dc:type
           rdf:resource="http://purl.org/dc/dcmitype/StillImage" />
      </cc:Work>
    </rdf:RDF>
  </metadata>
  <defs
     id="defs10" />
  <sodipodi:namedview
     pagecolor="#ffffff"
     bordercolor="#666666"
     borderopacity="1"
     objecttolerance="10"
     gridtolerance="10"
     guidetolerance="10"
     inkscape:pageopacity="0"
     inkscape:pageshadow="2"
     inkscape:window-width="1364"
     inkscape:window-height="730"
     id="namedview8"
     showgrid="false"
     inkscape:zoom="0.19287127"
     inkscape:cx="-1498.9704"
     inkscape:cy="873.20093"
     inkscape:window-x="0"
     inkscape:window-y="18"
     inkscape:window-maximized="0"
     inkscape:current-layer="layer3"
     showguides="true"
     inkscape:guide-bbox="true"
     inkscape:measure-start="1087.65,803.849"
     inkscape:measure-end="1088.42,803.849">
    <sodipodi:guide
       position="1107.5929,803.84858"
       orientation="0,1"
       id="guide899"
       inkscape:locked="false" />
    <sodipodi:guide
       position="463.28678,1098.3885"
       orientation="1,0"
       id="guide901"
       inkscape:locked="false" />
  </sodipodi:namedview>
  <g
     inkscape:groupmode="layer"
     id="layer3"
     inkscape:label="trace">
    <path
       style="color:#000000;font-style:normal;font-variant:normal;font-weight:normal;font-stretch:normal;font-size:medium;line-height:normal;font-family:sans-serif;font-variant-ligatures:normal;font-variant-position:normal;font-variant-caps:normal;font-variant-numeric:normal;font-variant-alternates:normal;font-feature-settings:normal;text-indent:0;text-align:start;text-decoration:none;text-decoration-line:none;text-decoration-style:solid;text-decoration-color:#000000;letter-spacing:normal;word-spacing:normal;text-transform:none;writing-mode:lr-tb;direction:ltr;text-orientation:mixed;dominant-baseline:auto;baseline-shift:baseline;text-anchor:start;white-space:normal;shape-padding:0;clip-rule:nonzero;display:inline;overflow:visible;visibility:visible;opacity:1;isolation:auto;mix-blend-mode:normal;color-interpolation:sRGB;color-interpolation-filters:linearRGB;solid-color:#000000;solid-opacity:1;vector-effect:none;fill:#000000;fill-opacity:1;fill-rule:evenodd;stroke:none;stroke-width:25;stroke-linecap:round;stroke-linejoin:round;stroke-miterlimit:4;stroke-dasharray:none;stroke-dashoffset:0;stroke-opacity:1;color-rendering:auto;image-rendering:auto;shape-rendering:auto;text-rendering:auto;enable-background:accumulate"
       d="M 212.13281 532.74023 A 12.50125 12.50125 0 0 0 199.63281 545.24023 L 199.63281 1998 A 12.50125 12.50125 0 0 0 212.13281 2010.5 L 464.09961 2010.5 C 628.77086 2010.5 804.19321 1975.8093 939.06445 1864.3262 C 1073.9357 1752.8431 1166.4736 1564.9761 1166.9668 1264.498 A 12.50125 12.50125 0 0 0 1166.9668 1264.4785 C 1166.9668 954.87272 1069.9244 770.29698 933.17969 664.70508 C 796.43494 559.11315 622.0686 532.74023 468.65234 532.74023 L 212.13281 532.74023 z M 224.63281 557.74023 L 468.65234 557.74023 C 619.18413 557.74023 787.72496 583.973 917.90039 684.49219 C 1048.0758 785.01137 1141.9668 960.05525 1141.9668 1264.4785 C 1141.4776 1559.8623 1051.7456 1738.75 923.13672 1845.0566 C 794.52471 1951.3659 625.25035 1985.5 464.09961 1985.5 L 224.63281 1985.5 L 224.63281 557.74023 z M 252.12305 570.5 A 12.50125 12.50125 0 0 0 239.62305 583 L 239.62305 1953 A 12.50125 12.50125 0 0 0 252.12305 1965.5 L 507.19727 1965.5 C 706.32858 1965.5 858.14717 1892.4303 958.81836 1765.1426 C 1059.4695 1637.8802 1109.154 1457.6268 1109.1738 1243.4316 C 1112.1742 1057.1046 1071.1533 889.02846 972.92773 767.01562 C 874.689 644.98649 719.3245 570.5 499.11914 570.5 L 252.12305 570.5 z M 264.62305 595.5 L 499.11914 595.5 C 713.73779 595.5 860.13123 666.76738 953.45508 782.69141 C 1046.7789 898.61543 1087.125 1060.6635 1084.1758 1243.1035 A 12.50125 12.50125 0 0 0 1084.1758 1243.3047 C 1084.1758 1453.6848 1035.2252 1628.2328 939.20898 1749.6348 C 843.19282 1871.0368 700.27174 1940.5 507.19727 1940.5 L 264.62305 1940.5 L 264.62305 595.5 z "
       transform="translate(0,-288)"
       id="path5236-7-72-2" />
  </g>
</svg>
