<?xml version="1.0" encoding="UTF-8" standalone="no"?>
<!--?xml version="1.0" encoding="UTF-8" standalone="no"?-->

<svg
   xmlns:dc="http://purl.org/dc/elements/1.1/"
   xmlns:cc="http://creativecommons.org/ns#"
   xmlns:rdf="http://www.w3.org/1999/02/22-rdf-syntax-ns#"
   xmlns:svg="http://www.w3.org/2000/svg"
   xmlns="http://www.w3.org/2000/svg"
   xmlns:sodipodi="http://sodipodi.sourceforge.net/DTD/sodipodi-0.dtd"
   xmlns:inkscape="http://www.inkscape.org/namespaces/inkscape"
   version="1.1"
   viewBox="0 -288 1024 2048"
   id="svg6"
   sodipodi:docname="five.svg"
   width="1024"
   height="2048"
   inkscape:version="0.92.1 r">
  <metadata
     id="metadata12">
    <rdf:rdf>
      <cc:work
         rdf:about="">
        <dc:format>image/svg+xml</dc:format>
        <dc:type
           rdf:resource="http://purl.org/dc/dcmitype/StillImage" />
        <dc:title />
      </cc:work>
    </rdf:rdf>
    <rdf:RDF>
      <cc:Work
         rdf:about="">
        <dc:format>image/svg+xml</dc:format>
        <dc:type
           rdf:resource="http://purl.org/dc/dcmitype/StillImage" />
      </cc:Work>
    </rdf:RDF>
  </metadata>
  <defs
     id="defs10" />
  <sodipodi:namedview
     pagecolor="#ffffff"
     bordercolor="#666666"
     borderopacity="1"
     objecttolerance="10"
     gridtolerance="10"
     guidetolerance="10"
     inkscape:pageopacity="0"
     inkscape:pageshadow="2"
     inkscape:window-width="1364"
     inkscape:window-height="730"
     id="namedview8"
     showgrid="false"
     inkscape:zoom="0.50318083"
     inkscape:cx="159.37364"
     inkscape:cy="691.8829"
     inkscape:window-x="0"
     inkscape:window-y="18"
     inkscape:window-maximized="0"
     inkscape:current-layer="layer3"
     inkscape:measure-start="-6.11514,1420.24"
     inkscape:measure-end="421.944,1420.24"
     showguides="true"
     inkscape:guide-bbox="true">
    <sodipodi:guide
       position="845.51112,411.80334"
       orientation="1,0"
       id="guide4527"
       inkscape:locked="false" />
    <sodipodi:guide
       position="137.32824,1138.2237"
       orientation="1,0"
       id="guide4520"
       inkscape:locked="false" />
    <sodipodi:guide
       position="505.1881,1241.5236"
       orientation="1,0"
       id="guide4524"
       inkscape:locked="false" />
    <sodipodi:guide
       position="824.20725,1164.9709"
       orientation="0,1"
       id="guide4526"
       inkscape:locked="false" />
    <sodipodi:guide
       position="150.82,1465.3865"
       orientation="0,1"
       id="guide83"
       inkscape:locked="false" />
  </sodipodi:namedview>
  <g
     inkscape:groupmode="layer"
     id="layer3"
     inkscape:label="trace"
     style="display:inline">
    <path
       style="color:#000000;font-style:normal;font-variant:normal;font-weight:normal;font-stretch:normal;font-size:medium;line-height:normal;font-family:sans-serif;font-variant-ligatures:normal;font-variant-position:normal;font-variant-caps:normal;font-variant-numeric:normal;font-variant-alternates:normal;font-feature-settings:normal;text-indent:0;text-align:start;text-decoration:none;text-decoration-line:none;text-decoration-style:solid;text-decoration-color:#000000;letter-spacing:normal;word-spacing:normal;text-transform:none;writing-mode:lr-tb;direction:ltr;text-orientation:mixed;dominant-baseline:auto;baseline-shift:baseline;text-anchor:start;white-space:normal;shape-padding:0;clip-rule:nonzero;display:inline;overflow:visible;visibility:visible;opacity:1;isolation:auto;mix-blend-mode:normal;color-interpolation:sRGB;color-interpolation-filters:linearRGB;solid-color:#000000;solid-opacity:1;vector-effect:none;fill:#000000;fill-opacity:1;fill-rule:evenodd;stroke:none;stroke-width:25;stroke-linecap:round;stroke-linejoin:round;stroke-miterlimit:4;stroke-dasharray:none;stroke-dashoffset:0;stroke-opacity:1;color-rendering:auto;image-rendering:auto;shape-rendering:auto;text-rendering:auto;enable-background:accumulate"
       d="M 195 535.5 A 12.50125 12.50125 0 0 0 182.5 547.98438 L 181.85352 1059.7695 A 12.50125 12.50125 0 0 0 181.86328 1059.959 A 12.50125 12.50125 0 0 0 185.38281 1068.6523 L 236.21875 1121.0527 A 12.50125 12.50125 0 0 0 251.63086 1123.0605 C 251.63086 1123.0605 329.66402 1076.5293 423.32617 1076.5293 A 12.50125 12.50125 0 0 0 423.68555 1076.5234 C 568.81983 1072.3489 781.86523 1220.4808 781.86523 1498.3965 C 781.86523 1616.6146 752.33131 1733.1892 695.88867 1819.2031 C 639.46521 1905.1878 557.40937 1960.7552 448.47461 1960.793 C 353.53809 1958.6469 279.93595 1941.282 228.66016 1924.4844 C 203.00634 1916.0804 182.96372 1907.8281 168.5 1901.6133 C 161.26814 1898.5059 155.45444 1895.9147 150.81836 1893.9863 C 148.50032 1893.0221 146.49242 1892.2225 144.53906 1891.5664 C 142.5857 1890.9103 141.09893 1890.1699 137.32812 1890.1699 A 12.50125 12.50125 0 0 0 136.02539 1915.1055 C 135.94387 1915.0876 135.97355 1915.0978 136.13281 1915.1172 A 12.50125 12.50125 0 0 1 136.02539 1915.1055 C 136.10405 1915.1227 136.28582 1915.1657 136.57812 1915.2637 C 137.52301 1915.581 139.15557 1916.211 141.2168 1917.0684 C 145.33924 1918.7831 151.23797 1921.4054 158.63086 1924.582 C 173.41664 1930.9352 194.27951 1939.529 220.87695 1948.2422 C 274.07183 1965.6685 350.3036 1983.6047 448.08594 1985.7949 A 12.50125 12.50125 0 0 0 448.36523 1985.7949 C 565.97298 1985.7949 656.88361 1924.2119 716.79102 1832.918 C 776.69842 1741.6241 806.86523 1620.7486 806.86523 1498.3945 C 806.86523 1231.853 620.70023 1074.4511 464.46875 1053.7773 C 655.94445 1068.8335 817.82617 1258.3332 817.82617 1494.2285 C 817.82617 1631.8522 787.12673 1760.6039 726.54492 1853.9102 C 665.96311 1947.2164 576.75539 2005.5 454.95508 2005.5 C 359.75174 2005.5 284.24722 1989.5895 231.23828 1973.709 C 204.73381 1965.7687 183.87622 1957.8433 168.87695 1951.8555 C 161.37732 1948.8615 155.36365 1946.3565 150.65039 1944.5059 C 148.29376 1943.5806 146.27824 1942.8191 144.36523 1942.1992 C 142.45223 1941.5794 141.17725 1940.8652 137.32812 1940.8652 A 12.50125 12.50125 0 0 0 136.24023 1965.8223 C 135.79502 1965.7833 135.9794 1965.7623 136.6582 1965.9824 C 137.66724 1966.3094 139.36903 1966.9353 141.51367 1967.7773 C 145.80297 1969.4615 151.92819 1972.0066 159.60742 1975.0723 C 174.96588 1981.2035 196.63111 1989.4378 224.06445 1997.6562 C 278.93114 2014.0934 356.96374 2030.5 454.95508 2030.5 C 584.86103 2030.5 683.33656 1966.369 747.51367 1867.5254 C 811.69079 1768.6818 842.82617 1635.5467 842.82617 1494.2285 C 842.82617 1236.6501 658.33912 1028.264 440.61523 1027.8105 C 370.57231 1027.6646 318.30997 1040.6703 283.42188 1053.9023 C 261.22704 1062.3202 246.54873 1070.6836 238.20703 1075.9434 L 207.38672 1053.7637 L 242.72266 610.5 L 880 610.5 A 12.50125 12.50125 0 1 0 880 585.5 L 231.17969 585.5 A 12.50125 12.50125 0 0 0 218.71875 597.00586 L 207.25586 740.78906 L 207.48438 560.5 L 880 560.5 A 12.50125 12.50125 0 1 0 880 535.5 L 195 535.5 z "
       transform="translate(0,-288)"
       id="path5236-7-72-2-3" />
  </g>
</svg>
