<?xml version="1.0" encoding="UTF-8" standalone="no"?>
<!--?xml version="1.0" encoding="UTF-8" standalone="no"?-->

<svg
   xmlns:dc="http://purl.org/dc/elements/1.1/"
   xmlns:cc="http://creativecommons.org/ns#"
   xmlns:rdf="http://www.w3.org/1999/02/22-rdf-syntax-ns#"
   xmlns:svg="http://www.w3.org/2000/svg"
   xmlns="http://www.w3.org/2000/svg"
   xmlns:sodipodi="http://sodipodi.sourceforge.net/DTD/sodipodi-0.dtd"
   xmlns:inkscape="http://www.inkscape.org/namespaces/inkscape"
   version="1.1"
   viewBox="0 -288 1112 2048"
   id="svg6"
   sodipodi:docname="J.svg"
   width="1112"
   height="2048"
   inkscape:version="0.92.1 r">
  <metadata
     id="metadata12">
    <rdf:rdf>
      <cc:work
         rdf:about="">
        <dc:format>image/svg+xml</dc:format>
        <dc:type
           rdf:resource="http://purl.org/dc/dcmitype/StillImage" />
        <dc:title />
      </cc:work>
    </rdf:rdf>
    <rdf:RDF>
      <cc:Work
         rdf:about="">
        <dc:format>image/svg+xml</dc:format>
        <dc:type
           rdf:resource="http://purl.org/dc/dcmitype/StillImage" />
      </cc:Work>
    </rdf:RDF>
  </metadata>
  <defs
     id="defs10" />
  <sodipodi:namedview
     pagecolor="#ffffff"
     bordercolor="#666666"
     borderopacity="1"
     objecttolerance="10"
     gridtolerance="10"
     guidetolerance="10"
     inkscape:pageopacity="0"
     inkscape:pageshadow="2"
     inkscape:window-width="1364"
     inkscape:window-height="730"
     id="namedview8"
     showgrid="false"
     inkscape:zoom="0.13890157"
     inkscape:cx="-1668.5048"
     inkscape:cy="486.64179"
     inkscape:window-x="0"
     inkscape:window-y="18"
     inkscape:window-maximized="0"
     inkscape:current-layer="layer3"
     inkscape:measure-start="120.108,85.841"
     inkscape:measure-end="120.108,197.642" />
  <g
     inkscape:groupmode="layer"
     id="layer3"
     inkscape:label="trace">
    <path
       style="color:#000000;font-style:normal;font-variant:normal;font-weight:normal;font-stretch:normal;font-size:medium;line-height:normal;font-family:sans-serif;font-variant-ligatures:normal;font-variant-position:normal;font-variant-caps:normal;font-variant-numeric:normal;font-variant-alternates:normal;font-feature-settings:normal;text-indent:0;text-align:start;text-decoration:none;text-decoration-line:none;text-decoration-style:solid;text-decoration-color:#000000;letter-spacing:normal;word-spacing:normal;text-transform:none;writing-mode:lr-tb;direction:ltr;text-orientation:mixed;dominant-baseline:auto;baseline-shift:baseline;text-anchor:start;white-space:normal;shape-padding:0;clip-rule:nonzero;display:inline;overflow:visible;visibility:visible;opacity:1;isolation:auto;mix-blend-mode:normal;color-interpolation:sRGB;color-interpolation-filters:linearRGB;solid-color:#000000;solid-opacity:1;vector-effect:none;fill:#000000;fill-opacity:1;fill-rule:evenodd;stroke:none;stroke-width:25;stroke-linecap:round;stroke-linejoin:round;stroke-miterlimit:4;stroke-dasharray:none;stroke-dashoffset:0;stroke-opacity:1;color-rendering:auto;image-rendering:auto;shape-rendering:auto;text-rendering:auto;enable-background:accumulate"
       d="M 856.60156 485.32422 A 12.50125 12.50125 0 0 0 844.28906 498 L 844.28906 1529.4707 C 844.28906 1704.6819 795.22632 1810.1615 721.9668 1873.4297 C 648.70728 1936.6978 549.33634 1958.5027 446.32422 1960.502 C 372.56897 1961.9334 292.5899 1941.6659 230.80078 1920.834 C 199.90622 1910.418 173.54151 1899.8971 154.61328 1891.9727 C 145.14916 1888.0104 137.55421 1884.7029 132.10156 1882.3477 C 129.37524 1881.17 127.19989 1880.2354 125.46875 1879.5293 C 124.60318 1879.1763 123.86767 1878.8844 123.06055 1878.5996 C 122.25343 1878.3149 123.16582 1877.6406 118 1877.6406 A 12.50125 12.50125 0 0 0 114.67188 1902.2383 C 114.72277 1902.2243 114.72599 1902.1698 114.74219 1902.1758 C 114.77939 1902.1888 115.05235 1902.2985 115.16602 1902.3418 A 12.50125 12.50125 0 0 0 115.88477 1902.4902 C 115.78335 1902.4782 115.54985 1902.4739 115.47461 1902.4609 C 115.68292 1902.5419 115.73744 1902.5599 116.02734 1902.6777 C 117.37472 1903.2273 119.49479 1904.1357 122.1875 1905.2988 C 127.57292 1907.6251 135.31462 1910.9963 144.95703 1915.0332 C 164.24186 1923.1069 191.16914 1933.857 222.8125 1944.5254 C 286.09921 1965.8622 368.18081 1987.024 446.80859 1985.498 C 553.02236 1983.4367 658.76118 1961.0464 738.30664 1892.3496 C 817.8521 1823.6528 869.28906 1709.3983 869.28906 1529.4707 L 869.28906 498 A 12.50125 12.50125 0 0 0 856.60156 485.32422 z M 892.76562 485.32422 A 12.50125 12.50125 0 0 0 880.45508 498 L 880.45508 1503.7832 A 12.50125 12.50125 0 0 0 880.46484 1504.2891 C 889.43815 1725.5509 820.67545 1847.1752 729.32227 1916.3594 C 638.06538 1985.4706 522.16803 2002.0205 436.08008 2005.4922 C 355.00736 2005.2558 278.92496 1987.9199 222.03125 1970.5449 C 193.55513 1961.8485 169.8978 1953.1595 152.71484 1946.6133 C 144.12336 1943.3402 137.16785 1940.609 131.89258 1938.627 C 129.25494 1937.6359 127.0544 1936.8341 125.10352 1936.2031 C 123.15263 1935.5722 122.57853 1934.8066 118 1934.8066 A 12.50125 12.50125 0 0 0 117.04102 1959.7793 C 115.995 1959.7363 116.4683 1959.6853 117.41211 1959.9902 C 118.64502 1960.389 120.6204 1961.0978 123.09961 1962.0293 C 128.05802 1963.8923 135.09427 1966.6544 143.81445 1969.9766 C 161.25483 1976.6209 185.50503 1985.5298 214.73047 1994.4551 C 273.18135 2012.3056 351.58569 2030.2899 436.26562 2030.5 A 12.50125 12.50125 0 0 0 436.79688 2030.4902 C 525.15523 2026.9527 646.51493 2010.4321 744.41602 1936.2891 C 842.26874 1862.1826 914.57111 1730.2834 905.45508 1503.6113 L 905.45508 1503.7832 L 905.44336 1503.2773 C 905.4479 1503.3894 905.45057 1503.4993 905.45508 1503.6113 L 905.45508 498 A 12.50125 12.50125 0 0 0 892.76562 485.32422 z "
       transform="translate(0,-288)"
       id="path5829-3-3" />
  </g>
</svg>
