<?xml version="1.0" encoding="UTF-8" standalone="no"?>
<!--?xml version="1.0" encoding="UTF-8" standalone="no"?-->

<svg
   xmlns:dc="http://purl.org/dc/elements/1.1/"
   xmlns:cc="http://creativecommons.org/ns#"
   xmlns:rdf="http://www.w3.org/1999/02/22-rdf-syntax-ns#"
   xmlns:svg="http://www.w3.org/2000/svg"
   xmlns="http://www.w3.org/2000/svg"
   xmlns:sodipodi="http://sodipodi.sourceforge.net/DTD/sodipodi-0.dtd"
   xmlns:inkscape="http://www.inkscape.org/namespaces/inkscape"
   version="1.1"
   viewBox="0 -288 1224 2048"
   id="svg6"
   sodipodi:docname="K.svg"
   width="1224"
   height="2048"
   inkscape:version="0.92.1 r">
  <metadata
     id="metadata12">
    <rdf:rdf>
      <cc:work
         rdf:about="">
        <dc:format>image/svg+xml</dc:format>
        <dc:type
           rdf:resource="http://purl.org/dc/dcmitype/StillImage" />
        <dc:title />
      </cc:work>
    </rdf:rdf>
    <rdf:RDF>
      <cc:Work
         rdf:about="">
        <dc:format>image/svg+xml</dc:format>
        <dc:type
           rdf:resource="http://purl.org/dc/dcmitype/StillImage" />
      </cc:Work>
    </rdf:RDF>
  </metadata>
  <defs
     id="defs10" />
  <sodipodi:namedview
     pagecolor="#ffffff"
     bordercolor="#666666"
     borderopacity="1"
     objecttolerance="10"
     gridtolerance="10"
     guidetolerance="10"
     inkscape:pageopacity="0"
     inkscape:pageshadow="2"
     inkscape:window-width="1364"
     inkscape:window-height="730"
     id="namedview8"
     showgrid="false"
     inkscape:zoom="0.12590923"
     inkscape:cx="-2015.6404"
     inkscape:cy="425.03623"
     inkscape:window-x="0"
     inkscape:window-y="18"
     inkscape:window-maximized="0"
     inkscape:current-layer="layer3"
     inkscape:measure-start="728.887,1159.89"
     inkscape:measure-end="796.441,1159.89" />
  <g
     inkscape:groupmode="layer"
     id="layer3"
     inkscape:label="trace"
     style="display:inline">
    <path
       style="color:#000000;font-style:normal;font-variant:normal;font-weight:normal;font-stretch:normal;font-size:medium;line-height:normal;font-family:sans-serif;font-variant-ligatures:normal;font-variant-position:normal;font-variant-caps:normal;font-variant-numeric:normal;font-variant-alternates:normal;font-feature-settings:normal;text-indent:0;text-align:start;text-decoration:none;text-decoration-line:none;text-decoration-style:solid;text-decoration-color:#000000;letter-spacing:normal;word-spacing:normal;text-transform:none;writing-mode:lr-tb;direction:ltr;text-orientation:mixed;dominant-baseline:auto;baseline-shift:baseline;text-anchor:start;white-space:normal;shape-padding:0;clip-rule:nonzero;display:inline;overflow:visible;visibility:visible;opacity:1;isolation:auto;mix-blend-mode:normal;color-interpolation:sRGB;color-interpolation-filters:linearRGB;solid-color:#000000;solid-opacity:1;vector-effect:none;fill:#000000;fill-opacity:1;fill-rule:evenodd;stroke:none;stroke-width:25;stroke-linecap:round;stroke-linejoin:round;stroke-miterlimit:4;stroke-dasharray:none;stroke-dashoffset:0;stroke-opacity:1;color-rendering:auto;image-rendering:auto;shape-rendering:auto;text-rendering:auto;enable-background:accumulate"
       d="M 214.54297 485.32422 A 12.50125 12.50125 0 0 0 202.23047 498 L 202.23047 2048 A 12.50125 12.50125 0 1 0 227.23047 2048 L 227.23047 1361.2637 C 229.03817 1359.555 231.38193 1357.2857 234.4043 1354.3184 C 235.94335 1352.8073 238.14704 1350.6119 240 1348.7773 L 240 2048 A 12.50125 12.50125 0 1 0 265 2048 L 265 1323.8066 C 288.08827 1300.6099 319.67797 1268.6482 357.4375 1230.3066 C 391.78879 1195.4258 431.59672 1154.8965 473.59961 1112.082 C 516.45852 1187.653 619.31374 1369.2402 723.54297 1555.0039 C 791.45788 1676.046 859.37357 1797.831 910.27734 1890.7832 C 935.72923 1937.2593 956.93251 1976.5392 971.71875 2004.834 C 979.11187 2018.9814 984.90702 2030.3992 988.76953 2038.4668 C 990.70079 2042.5006 992.15461 2045.7169 993.02344 2047.8359 C 993.41716 2048.7962 993.64688 2049.4384 993.76758 2049.7988 A 12.50125 12.50125 0 0 0 1018.6484 2048 C 1018.6484 2044.6539 1018.0884 2043.7464 1017.6641 2042.4141 C 1017.2397 2041.0818 1016.7481 2039.8016 1016.1543 2038.3535 C 1014.9668 2035.4573 1013.3671 2031.9511 1011.3184 2027.6719 C 1007.2208 2019.1134 1001.3426 2007.54 993.87695 1993.2539 C 978.94574 1964.6817 957.69739 1925.3253 932.20508 1878.7754 C 881.22045 1785.6755 813.28199 1663.8517 745.3457 1542.7715 C 670.02076 1408.5228 597.30666 1279.8224 545.13477 1187.6523 C 598.00909 1278.5442 672.91962 1407.4086 763.23633 1563.3301 C 833.3705 1684.4087 903.5028 1805.8162 956.08789 1897.5859 C 982.38044 1943.4708 1004.2894 1981.9533 1019.5957 2009.2402 C 1027.2488 2022.8837 1033.2577 2033.7386 1037.3008 2041.25 C 1039.3223 2045.0057 1040.8578 2047.9423 1041.8086 2049.8516 C 1042.1829 2050.6033 1042.3752 2051.0229 1042.5352 2051.373 A 12.50125 12.50125 0 0 0 1067.1074 2048 C 1067.1074 2044.4512 1066.5681 2044.2137 1066.3281 2043.5156 C 1066.0882 2042.8175 1065.8853 2042.3405 1065.6719 2041.8477 C 1065.2449 2040.862 1064.7738 2039.8844 1064.1875 2038.707 C 1063.0149 2036.3524 1061.4026 2033.2799 1059.3145 2029.4004 C 1055.1381 2021.6413 1049.0902 2010.7186 1041.4004 1997.0098 C 1026.0208 1969.5921 1004.0911 1931.0766 977.7793 1885.1582 C 925.15574 1793.3213 855.01317 1671.8945 784.86914 1550.7988 C 648.39014 1315.1834 516.36905 1088.4786 509.05859 1075.9258 C 553.21794 1030.8791 599.27861 983.84549 645.64453 936.43945 C 750.22819 829.5097 854.66142 722.48092 932.95898 641.97461 C 972.10777 601.72145 1004.7215 568.10163 1027.5645 544.42578 C 1038.9859 532.58786 1047.9616 523.23981 1054.1152 516.76562 C 1057.1921 513.52855 1059.5559 511.01729 1061.2148 509.2207 C 1062.0443 508.32241 1062.6851 507.61669 1063.2324 506.99023 C 1063.5061 506.67701 1063.7429 506.40807 1064.0879 505.9707 C 1064.2604 505.75202 1064.4474 505.52368 1064.8164 504.96484 C 1065.1854 504.40601 1066.9238 506.46528 1066.9238 498 A 12.50125 12.50125 0 0 0 1054.2363 485.32422 A 12.50125 12.50125 0 0 0 1043.8691 491.13477 C 1043.8471 491.15887 1043.8179 491.19335 1043.7949 491.21875 C 1043.8049 491.21775 1043.8085 491.21684 1043.8145 491.21484 A 12.50125 12.50125 0 0 0 1042.0215 496.38477 C 1042.0955 494.60933 1042.2398 493.36999 1042.459 492.67578 C 1040.958 494.29628 1038.8564 496.53166 1035.9941 499.54297 C 1029.925 505.92823 1020.9716 515.25143 1009.5723 527.06641 C 986.7736 550.69635 954.1732 584.30482 915.03711 624.54492 C 836.76433 705.0252 732.34144 812.04324 627.77148 918.95898 C 579.50092 968.31238 531.45133 1017.3798 485.67578 1064.0703 A 12.50125 12.50125 0 0 0 483.42578 1066.3652 C 481.9715 1067.8485 480.42947 1069.4265 478.98047 1070.9043 C 478.8601 1070.6923 478.34441 1069.7811 478.24023 1069.5977 C 528.97412 1016.8239 582.72104 960.88905 638.26562 903.01367 C 732.57273 804.74919 826.87323 706.31829 897.61133 632.10547 C 932.98038 594.99906 962.45571 563.95069 983.11914 541.98047 C 993.45086 530.99536 1001.5729 522.28654 1007.1699 516.17773 C 1009.9685 513.12333 1012.1252 510.73232 1013.6855 508.94141 C 1014.4657 508.04595 1015.0819 507.32324 1015.6699 506.58203 C 1015.9639 506.21143 1016.2381 505.86763 1016.6562 505.24609 C 1016.8655 504.93532 1017.1104 504.57906 1017.4961 503.83203 C 1017.8818 503.085 1018.9238 502.64198 1018.9238 498 A 12.50125 12.50125 0 0 0 1006.2363 485.32422 A 12.50125 12.50125 0 0 0 995.56836 491.65234 C 995.34343 491.92088 995.21612 492.08317 994.83594 492.51953 C 993.54186 494.00486 991.46245 496.31368 988.73633 499.28906 C 983.28408 505.23982 975.20213 513.90663 964.9082 524.85156 C 944.32035 546.74143 914.86334 577.76939 879.51367 614.85547 C 808.81434 689.02762 714.5254 787.44734 620.22852 885.70117 C 562.80245 945.53698 507.49057 1003.0976 455.38086 1057.3008 A 12.50125 12.50125 0 0 0 452.25586 1060.5508 C 420.04662 1094.053 387.62663 1127.7722 360.87891 1155.5703 C 325.50554 1192.3329 296.02129 1222.9556 275.375 1244.3848 C 270.90703 1249.0221 268.61013 1251.4013 265 1255.1465 L 265 498 A 12.50125 12.50125 0 0 0 252.3125 485.32422 A 12.50125 12.50125 0 0 0 240 498 L 240 1282.4414 A 12.50125 12.50125 0 0 0 240 1291.0215 L 240 1313.4746 C 235.33992 1318.1451 230.96059 1322.5277 227.23047 1326.2402 L 227.23047 498 A 12.50125 12.50125 0 0 0 214.54297 485.32422 z M 994.92383 492.95898 A 12.50125 12.50125 0 0 0 994.36914 494.53516 C 994.5734 493.8134 994.71494 493.2422 994.92383 492.95898 z M 460.16016 1088.3965 C 460.30999 1088.6604 460.60732 1089.1845 460.76758 1089.4668 C 432.8974 1117.8789 406.68203 1144.5711 381.75586 1169.9258 C 404.8866 1145.8861 432.93449 1116.7119 460.16016 1088.3965 z M 1042.3066 2050.373 A 12.50125 12.50125 0 0 0 1042.5195 2051.3066 C 1042.4365 2051.1782 1042.3915 2050.8096 1042.3066 2050.373 z "
       transform="translate(0,-288)"
       id="path5236-3-9-6" />
  </g>
</svg>
