<?xml version="1.0" encoding="UTF-8" standalone="no"?>
<!--?xml version="1.0" encoding="UTF-8" standalone="no"?-->

<svg
   xmlns:dc="http://purl.org/dc/elements/1.1/"
   xmlns:cc="http://creativecommons.org/ns#"
   xmlns:rdf="http://www.w3.org/1999/02/22-rdf-syntax-ns#"
   xmlns:svg="http://www.w3.org/2000/svg"
   xmlns="http://www.w3.org/2000/svg"
   xmlns:sodipodi="http://sodipodi.sourceforge.net/DTD/sodipodi-0.dtd"
   xmlns:inkscape="http://www.inkscape.org/namespaces/inkscape"
   version="1.1"
   viewBox="0 -288 432 2048"
   id="svg6"
   sodipodi:docname="l.svg"
   width="432"
   height="2048"
   inkscape:version="0.92.1 r">
  <metadata
     id="metadata12">
    <rdf:rdf>
      <cc:work
         rdf:about="">
        <dc:format>image/svg+xml</dc:format>
        <dc:type
           rdf:resource="http://purl.org/dc/dcmitype/StillImage" />
        <dc:title />
      </cc:work>
    </rdf:rdf>
    <rdf:RDF>
      <cc:Work
         rdf:about="">
        <dc:format>image/svg+xml</dc:format>
        <dc:type
           rdf:resource="http://purl.org/dc/dcmitype/StillImage" />
      </cc:Work>
    </rdf:RDF>
  </metadata>
  <defs
     id="defs10" />
  <sodipodi:namedview
     pagecolor="#ffffff"
     bordercolor="#666666"
     borderopacity="1"
     objecttolerance="10"
     gridtolerance="10"
     guidetolerance="10"
     inkscape:pageopacity="0"
     inkscape:pageshadow="2"
     inkscape:window-width="1364"
     inkscape:window-height="730"
     id="namedview8"
     showgrid="false"
     inkscape:zoom="0.16140722"
     inkscape:cx="-73.751362"
     inkscape:cy="571.35981"
     inkscape:window-x="0"
     inkscape:window-y="18"
     inkscape:window-maximized="0"
     inkscape:current-layer="layer2"
     inkscape:measure-start="392.175,49.354"
     inkscape:measure-end="392.175,99.714"
     showguides="true"
     inkscape:guide-bbox="true">
    <sodipodi:guide
       position="461.75271,101.2481"
       orientation="0,1"
       id="guide6184"
       inkscape:locked="false" />
  </sodipodi:namedview>
  <g
     inkscape:groupmode="layer"
     id="layer2"
     inkscape:label="trace">
    <path
       style="color:#000000;font-style:normal;font-variant:normal;font-weight:normal;font-stretch:normal;font-size:medium;line-height:normal;font-family:sans-serif;font-variant-ligatures:normal;font-variant-position:normal;font-variant-caps:normal;font-variant-numeric:normal;font-variant-alternates:normal;font-feature-settings:normal;text-indent:0;text-align:start;text-decoration:none;text-decoration-line:none;text-decoration-style:solid;text-decoration-color:#000000;letter-spacing:normal;word-spacing:normal;text-transform:none;writing-mode:lr-tb;direction:ltr;text-orientation:mixed;dominant-baseline:auto;baseline-shift:baseline;text-anchor:start;white-space:normal;shape-padding:0;clip-rule:nonzero;display:inline;overflow:visible;visibility:visible;opacity:1;isolation:auto;mix-blend-mode:normal;color-interpolation:sRGB;color-interpolation-filters:linearRGB;solid-color:#000000;solid-opacity:1;vector-effect:none;fill:#000000;fill-opacity:1;fill-rule:evenodd;stroke:none;stroke-width:25;stroke-linecap:round;stroke-linejoin:round;stroke-miterlimit:4;stroke-dasharray:none;stroke-dashoffset:0;stroke-opacity:1;color-rendering:auto;image-rendering:auto;shape-rendering:auto;text-rendering:auto;enable-background:accumulate"
       d="M 200.88672 410.08203 A 12.50125 12.50125 0 0 0 188.57422 422.75781 L 188.57422 1770.459 C 188.57422 1838.014 192.72882 1896.4215 215.01172 1940.1406 C 237.29462 1983.8598 279.83232 2010.5 346.27734 2010.5 L 390 2010.5 A 12.50125 12.50125 0 1 0 390 1985.5 L 346.27734 1985.5 C 285.98545 1985.5 255.92156 1965.35 237.28711 1928.7891 C 218.65266 1892.2282 213.57422 1836.8653 213.57422 1770.459 L 213.57422 422.75781 A 12.50125 12.50125 0 0 0 200.88672 410.08203 z M 237.05078 410.08203 A 12.50125 12.50125 0 0 0 224.74023 422.75781 L 224.74023 1824.1992 C 224.74023 1868.4851 231.7484 1902.975 253.42578 1926.7266 C 275.10317 1950.4782 309.32612 1960.5 356.98242 1960.5 L 390 1960.5 A 12.50125 12.50125 0 1 0 390 1935.5 L 356.98242 1935.5 C 312.76701 1935.5 287.11615 1926.5554 271.89062 1909.873 C 256.66512 1893.1907 249.74023 1865.7803 249.74023 1824.1992 L 249.74023 422.75781 A 12.50125 12.50125 0 0 0 237.05078 410.08203 z "
       transform="translate(0,-288)"
       id="path5829-3-3-7" />
  </g>
</svg>
