<?xml version="1.0" encoding="UTF-8" standalone="no"?>
<!--?xml version="1.0" encoding="UTF-8" standalone="no"?-->

<svg
   xmlns:dc="http://purl.org/dc/elements/1.1/"
   xmlns:cc="http://creativecommons.org/ns#"
   xmlns:rdf="http://www.w3.org/1999/02/22-rdf-syntax-ns#"
   xmlns:svg="http://www.w3.org/2000/svg"
   xmlns="http://www.w3.org/2000/svg"
   xmlns:sodipodi="http://sodipodi.sourceforge.net/DTD/sodipodi-0.dtd"
   xmlns:inkscape="http://www.inkscape.org/namespaces/inkscape"
   version="1.1"
   viewBox="0 -288 1024 2048"
   id="svg6"
   sodipodi:docname="one.svg"
   width="1024"
   height="2048"
   inkscape:version="0.92.1 r">
  <metadata
     id="metadata12">
    <rdf:rdf>
      <cc:work
         rdf:about="">
        <dc:format>image/svg+xml</dc:format>
        <dc:type
           rdf:resource="http://purl.org/dc/dcmitype/StillImage" />
        <dc:title />
      </cc:work>
    </rdf:rdf>
    <rdf:RDF>
      <cc:Work
         rdf:about="">
        <dc:format>image/svg+xml</dc:format>
        <dc:type
           rdf:resource="http://purl.org/dc/dcmitype/StillImage" />
      </cc:Work>
    </rdf:RDF>
  </metadata>
  <defs
     id="defs10" />
  <sodipodi:namedview
     pagecolor="#ffffff"
     bordercolor="#666666"
     borderopacity="1"
     objecttolerance="10"
     gridtolerance="10"
     guidetolerance="10"
     inkscape:pageopacity="0"
     inkscape:pageshadow="2"
     inkscape:window-width="1364"
     inkscape:window-height="730"
     id="namedview8"
     showgrid="false"
     inkscape:zoom="0.11573703"
     inkscape:cx="-1526.1081"
     inkscape:cy="974.75699"
     inkscape:window-x="0"
     inkscape:window-y="18"
     inkscape:window-maximized="0"
     inkscape:current-layer="layer2"
     inkscape:measure-start="327.344,-64.8041"
     inkscape:measure-end="327.344,307.404" />
  <g
     inkscape:groupmode="layer"
     id="layer2"
     inkscape:label="trace"
     style="display:inline">
    <path
       style="color:#000000;font-style:normal;font-variant:normal;font-weight:normal;font-stretch:normal;font-size:medium;line-height:normal;font-family:sans-serif;font-variant-ligatures:normal;font-variant-position:normal;font-variant-caps:normal;font-variant-numeric:normal;font-variant-alternates:normal;font-feature-settings:normal;text-indent:0;text-align:start;text-decoration:none;text-decoration-line:none;text-decoration-style:solid;text-decoration-color:#000000;letter-spacing:normal;word-spacing:normal;text-transform:none;writing-mode:lr-tb;direction:ltr;text-orientation:mixed;dominant-baseline:auto;baseline-shift:baseline;text-anchor:start;white-space:normal;shape-padding:0;clip-rule:nonzero;display:inline;overflow:visible;visibility:visible;opacity:1;isolation:auto;mix-blend-mode:normal;color-interpolation:sRGB;color-interpolation-filters:linearRGB;solid-color:#000000;solid-opacity:1;vector-effect:none;fill:#000000;fill-opacity:1;fill-rule:evenodd;stroke:none;stroke-width:25;stroke-linecap:round;stroke-linejoin:round;stroke-miterlimit:4;stroke-dasharray:none;stroke-dashoffset:0;stroke-opacity:1;color-rendering:auto;image-rendering:auto;shape-rendering:auto;text-rendering:auto;enable-background:accumulate"
       d="M 493.81055 485.32422 A 12.50125 12.50125 0 0 0 481.5 498.00195 L 481.50781 587.66992 A 12.50125 12.50125 0 0 0 481.5 588.06445 C 481.5 648.58591 440.23226 687.47477 382.67969 713.23047 C 325.12712 738.98617 252.62832 749.2168 199.42188 749.2168 A 12.50125 12.50125 0 1 0 199.42188 774.2168 C 240.55495 774.2168 291.53273 768.73414 340.32617 754.91406 C 297.39873 774.82409 249.38047 786.12305 199.41602 786.12305 A 12.50125 12.50125 0 1 0 199.41602 811.12305 C 313.47084 811.12305 418.47536 756.56974 481.51562 673.78125 L 481.62695 1940.5 L 200 1940.5 A 12.50125 12.50125 0 1 0 200 1965.5 L 481.63086 1965.5 L 481.63086 1985.5 L 200 1985.5 A 12.50125 12.50125 0 1 0 200 2010.5 L 492.07812 2010.5 A 12.50125 12.50125 0 0 0 496.1543 2010.5 L 820 2010.5 A 12.50125 12.50125 0 1 0 820 1985.5 L 506.63086 1985.5 L 506.63086 1965.5 L 528.08398 1965.5 A 12.50125 12.50125 0 0 0 532.13281 1965.5 L 820 1965.5 A 12.50125 12.50125 0 1 0 820 1940.5 L 542.62305 1940.5 L 542.62305 498 A 12.50125 12.50125 0 0 0 529.58008 485.6875 A 12.50125 12.50125 0 0 0 517.62305 498 C 517.62305 523.40365 513.72538 548.12657 506.50586 571.73633 L 506.5 497.99805 A 12.50125 12.50125 0 0 0 493.81055 485.32422 z M 517.62305 613.25195 L 517.62305 1940.5 L 506.62695 1940.5 L 506.51172 635.48438 C 510.5195 628.22438 514.23443 620.8118 517.62305 613.25195 z "
       transform="translate(0,-288)"
       id="path5236-7-72-2" />
  </g>
</svg>
