<?xml version="1.0" encoding="UTF-8" standalone="no"?>
<!--?xml version="1.0" encoding="UTF-8" standalone="no"?-->

<svg
   xmlns:dc="http://purl.org/dc/elements/1.1/"
   xmlns:cc="http://creativecommons.org/ns#"
   xmlns:rdf="http://www.w3.org/1999/02/22-rdf-syntax-ns#"
   xmlns:svg="http://www.w3.org/2000/svg"
   xmlns="http://www.w3.org/2000/svg"
   xmlns:sodipodi="http://sodipodi.sourceforge.net/DTD/sodipodi-0.dtd"
   xmlns:inkscape="http://www.inkscape.org/namespaces/inkscape"
   version="1.1"
   viewBox="0 -288 1016 2048"
   id="svg6"
   sodipodi:docname="p.svg"
   width="1016"
   height="2048"
   inkscape:version="0.92.1 r">
  <metadata
     id="metadata12">
    <rdf:rdf>
      <cc:work
         rdf:about="">
        <dc:format>image/svg+xml</dc:format>
        <dc:type
           rdf:resource="http://purl.org/dc/dcmitype/StillImage" />
        <dc:title />
      </cc:work>
    </rdf:rdf>
    <rdf:RDF>
      <cc:Work
         rdf:about="">
        <dc:format>image/svg+xml</dc:format>
        <dc:type
           rdf:resource="http://purl.org/dc/dcmitype/StillImage" />
      </cc:Work>
    </rdf:RDF>
  </metadata>
  <defs
     id="defs10" />
  <sodipodi:namedview
     pagecolor="#ffffff"
     bordercolor="#666666"
     borderopacity="1"
     objecttolerance="10"
     gridtolerance="10"
     guidetolerance="10"
     inkscape:pageopacity="0"
     inkscape:pageshadow="2"
     inkscape:window-width="1364"
     inkscape:window-height="730"
     id="namedview8"
     showgrid="false"
     inkscape:zoom="0.24832659"
     inkscape:cx="-388.53485"
     inkscape:cy="411.69144"
     inkscape:window-x="0"
     inkscape:window-y="18"
     inkscape:window-maximized="0"
     inkscape:current-layer="layer2" />
  <g
     inkscape:groupmode="layer"
     id="layer2"
     inkscape:label="trace">
    <path
       style="color:#000000;font-style:normal;font-variant:normal;font-weight:normal;font-stretch:normal;font-size:medium;line-height:normal;font-family:sans-serif;font-variant-ligatures:normal;font-variant-position:normal;font-variant-caps:normal;font-variant-numeric:normal;font-variant-alternates:normal;font-feature-settings:normal;text-indent:0;text-align:start;text-decoration:none;text-decoration-line:none;text-decoration-style:solid;text-decoration-color:#000000;letter-spacing:normal;word-spacing:normal;text-transform:none;writing-mode:lr-tb;direction:ltr;text-orientation:mixed;dominant-baseline:auto;baseline-shift:baseline;text-anchor:start;white-space:normal;shape-padding:0;clip-rule:nonzero;display:inline;overflow:visible;visibility:visible;opacity:1;isolation:auto;mix-blend-mode:normal;color-interpolation:sRGB;color-interpolation-filters:linearRGB;solid-color:#000000;solid-opacity:1;vector-effect:none;fill:#000000;fill-opacity:0.99708198;fill-rule:evenodd;stroke:none;stroke-width:25;stroke-linecap:round;stroke-linejoin:round;stroke-miterlimit:4;stroke-dasharray:none;stroke-dashoffset:0;stroke-opacity:1;color-rendering:auto;image-rendering:auto;shape-rendering:auto;text-rendering:auto;enable-background:accumulate"
       d="M 210.72852 870.32422 A 12.50125 12.50125 0 0 0 198.41797 883 L 198.41602 1123.6797 A 12.50125 12.50125 0 0 0 198.41602 1129.4238 L 198.41602 1180.459 L 198.41602 2333 A 12.50125 12.50125 0 1 0 223.41602 2333 L 223.41602 1851.3086 C 227.31628 1855.9193 231.77262 1861.054 236.83789 1866.6719 L 236.83789 2333 A 12.50125 12.50125 0 1 0 261.83789 2333 L 261.83789 1892.9648 C 321.04599 1952.0123 421.47616 2030.5 537.0293 2030.5 C 642.79927 2030.5 723.49628 1963.3916 775.64453 1857.9609 C 827.79278 1752.5303 853.5 1608.1099 853.5 1446.6406 C 853.5 1289.4255 834.99827 1159.7915 794.57812 1067.8379 C 754.15798 975.88431 689.15304 920.92578 601.6875 920.92578 L 601.80078 920.92578 L 507.22461 920.07422 A 12.50125 12.50125 0 0 0 507.11133 920.07422 C 487.1267 920.07422 464.47976 928.47214 438.90234 941.26758 C 413.32493 954.06302 385.14882 971.62891 356.63281 991.46289 C 330.7354 1009.4755 304.60524 1029.3474 280.0957 1049.1953 C 271.21676 1056.0861 263.68324 1062.2582 257.58789 1067.4043 C 251.53812 1035.5685 244.08216 997.69218 237.59961 964.01367 C 233.60241 943.24716 230.00822 924.21615 227.42969 909.58789 C 224.85115 894.95963 223.41797 882.79516 223.41797 883 A 12.50125 12.50125 0 0 0 210.72852 870.32422 z M 602.60742 945.93359 C 679.43146 946.2941 733.80122 991.69843 771.69141 1077.8965 C 809.73316 1164.4394 828.5 1291.4134 828.5 1446.6406 C 828.5 1605.4341 802.78926 1746.6934 753.23633 1846.877 C 703.6834 1947.0605 632.39602 2005.5 537.0293 2005.5 C 509.26907 2005.5 482.11723 2000.1599 456.13086 1991.2949 C 473.43139 1993.9824 491.70251 1995.5 510.95703 1995.5 A 12.50125 12.50125 0 0 0 511.0332 1995.5 C 619.65649 1994.8298 695.5303 1931.329 741.43945 1832.002 C 787.3486 1732.6749 805.8457 1597.2638 805.8457 1445.7441 C 805.8457 1227.2899 778.08342 1101.6796 729.18555 1028.8926 C 695.41815 978.62805 651.22815 955.32877 602.60742 945.93359 z M 541.95508 965.48242 C 609.93608 965.72415 665.98962 979.65393 708.43359 1042.834 C 752.24672 1108.0521 780.8457 1229.4507 780.8457 1445.7441 C 780.8457 1595.1998 762.07107 1727.7777 718.74609 1821.5137 C 675.42519 1915.2409 610.11077 1969.8758 510.90625 1970.498 C 418.51292 1970.4844 350.66505 1933.8462 308.00391 1900.4512 C 290.00968 1884.6475 274.47894 1869.2327 261.83789 1855.8516 L 261.83789 1180.459 L 261.83789 1097.041 C 272.78627 1087.5978 284.36988 1077.9156 296.35156 1068.2207 C 310.21093 1057.5032 327.22614 1045.151 346.57422 1032.7637 C 399.61611 998.80441 469.55811 965.5 535.23047 965.5 A 12.50125 12.50125 0 0 0 535.33984 965.5 C 537.55755 965.4805 539.76214 965.47462 541.95508 965.48242 z M 223.41602 1022.1719 C 227.90579 1045.2726 232.19121 1067.4878 235.75586 1086.5879 C 231.5211 1090.314 227.41905 1093.9792 223.41602 1097.5977 L 223.41602 1022.1719 z M 236.83789 1119.1816 L 236.83789 1180.459 L 236.83789 1827.9082 C 229.51821 1819.2186 225.50977 1813.9434 225.50977 1813.9434 A 12.50125 12.50125 0 0 0 223.41602 1811.707 L 223.41602 1180.459 L 223.41602 1131.627 C 227.68384 1127.5944 232.1563 1123.4452 236.83789 1119.1816 z "
       transform="translate(0,-288)"
       id="path5236-72-2" />
  </g>
</svg>
