<?xml version="1.0" encoding="UTF-8" standalone="no"?>
<!--?xml version="1.0" encoding="UTF-8" standalone="no"?-->

<svg
   xmlns:dc="http://purl.org/dc/elements/1.1/"
   xmlns:cc="http://creativecommons.org/ns#"
   xmlns:rdf="http://www.w3.org/1999/02/22-rdf-syntax-ns#"
   xmlns:svg="http://www.w3.org/2000/svg"
   xmlns="http://www.w3.org/2000/svg"
   xmlns:sodipodi="http://sodipodi.sourceforge.net/DTD/sodipodi-0.dtd"
   xmlns:inkscape="http://www.inkscape.org/namespaces/inkscape"
   version="1.1"
   viewBox="0 -288 1016 2048"
   id="svg6"
   sodipodi:docname="q.svg"
   width="1016"
   height="2048"
   inkscape:version="0.92.1 r">
  <metadata
     id="metadata12">
    <rdf:rdf>
      <cc:work
         rdf:about="">
        <dc:format>image/svg+xml</dc:format>
        <dc:type
           rdf:resource="http://purl.org/dc/dcmitype/StillImage" />
        <dc:title />
      </cc:work>
    </rdf:rdf>
    <rdf:RDF>
      <cc:Work
         rdf:about="">
        <dc:format>image/svg+xml</dc:format>
        <dc:type
           rdf:resource="http://purl.org/dc/dcmitype/StillImage" />
      </cc:Work>
    </rdf:RDF>
  </metadata>
  <defs
     id="defs10" />
  <sodipodi:namedview
     pagecolor="#ffffff"
     bordercolor="#666666"
     borderopacity="1"
     objecttolerance="10"
     gridtolerance="10"
     guidetolerance="10"
     inkscape:pageopacity="0"
     inkscape:pageshadow="2"
     inkscape:window-width="1364"
     inkscape:window-height="730"
     id="namedview8"
     showgrid="false"
     inkscape:zoom="0.20982283"
     inkscape:cx="-269.24376"
     inkscape:cy="91.682273"
     inkscape:window-x="0"
     inkscape:window-y="18"
     inkscape:window-maximized="0"
     inkscape:current-layer="layer2" />
  <g
     inkscape:groupmode="layer"
     id="layer2"
     inkscape:label="trace">
    <path
       style="color:#000000;font-style:normal;font-variant:normal;font-weight:normal;font-stretch:normal;font-size:medium;line-height:normal;font-family:sans-serif;font-variant-ligatures:normal;font-variant-position:normal;font-variant-caps:normal;font-variant-numeric:normal;font-variant-alternates:normal;font-feature-settings:normal;text-indent:0;text-align:start;text-decoration:none;text-decoration-line:none;text-decoration-style:solid;text-decoration-color:#000000;letter-spacing:normal;word-spacing:normal;text-transform:none;writing-mode:lr-tb;direction:ltr;text-orientation:mixed;dominant-baseline:auto;baseline-shift:baseline;text-anchor:start;white-space:normal;shape-padding:0;clip-rule:nonzero;display:inline;overflow:visible;visibility:visible;opacity:1;isolation:auto;mix-blend-mode:normal;color-interpolation:sRGB;color-interpolation-filters:linearRGB;solid-color:#000000;solid-opacity:1;vector-effect:none;fill:#000000;fill-opacity:0.99708198;fill-rule:evenodd;stroke:none;stroke-width:25;stroke-linecap:round;stroke-linejoin:round;stroke-miterlimit:4;stroke-dasharray:none;stroke-dashoffset:0;stroke-opacity:1;color-rendering:auto;image-rendering:auto;shape-rendering:auto;text-rendering:auto;enable-background:accumulate"
       d="M 806.29102 870.32422 A 12.50125 12.50125 0 0 0 806.23438 870.32812 A 12.50125 12.50125 0 0 0 806.16406 870.32617 A 12.50125 12.50125 0 0 0 805.48242 870.37695 A 12.50125 12.50125 0 0 0 805 870.41406 A 12.50125 12.50125 0 0 0 804.17969 870.55078 A 12.50125 12.50125 0 0 0 803.77148 870.62109 A 12.50125 12.50125 0 0 0 802.89062 870.86133 A 12.50125 12.50125 0 0 0 802.57617 870.95117 A 12.50125 12.50125 0 0 0 801.82227 871.23828 A 12.50125 12.50125 0 0 0 801.38867 871.41016 A 12.50125 12.50125 0 0 0 800.64648 871.7832 A 12.50125 12.50125 0 0 0 800.29492 871.96289 A 12.50125 12.50125 0 0 0 799.49609 872.46875 A 12.50125 12.50125 0 0 0 799.24219 872.63477 A 12.50125 12.50125 0 0 0 798.57422 873.1582 A 12.50125 12.50125 0 0 0 798.25 873.41602 A 12.50125 12.50125 0 0 0 797.67188 873.97266 A 12.50125 12.50125 0 0 0 797.35156 874.28516 A 12.50125 12.50125 0 0 0 796.83789 874.88867 A 12.50125 12.50125 0 0 0 796.54492 875.24023 A 12.50125 12.50125 0 0 0 796.09766 875.88672 A 12.50125 12.50125 0 0 0 795.83594 876.27148 A 12.50125 12.50125 0 0 0 795.45898 876.95312 A 12.50125 12.50125 0 0 0 795.23633 877.36328 A 12.50125 12.50125 0 0 0 794.90625 878.13086 A 12.50125 12.50125 0 0 0 794.75 878.50977 A 12.50125 12.50125 0 0 0 794.49609 879.3125 A 12.50125 12.50125 0 0 0 794.37695 879.70117 A 12.50125 12.50125 0 0 0 794.18945 880.60156 A 12.50125 12.50125 0 0 0 794.12695 880.91797 A 12.50125 12.50125 0 0 0 794.03711 881.76562 A 12.50125 12.50125 0 0 0 793.99609 882.18164 A 12.50125 12.50125 0 0 0 793.98438 882.84375 A 12.50125 12.50125 0 0 0 793.98047 883 L 793.98047 883.125 C 793.98347 883.4316 793.50024 889.95033 792.48047 898.20117 C 791.46069 906.45201 789.97536 917.30381 788.18555 929.79102 C 784.60593 954.76542 779.80305 986.30628 774.99219 1017.2324 C 770.19186 1048.0908 765.38788 1078.319 761.77539 1100.8867 C 755.36133 1089.6724 748.43818 1078.3641 740.98438 1067.1543 C 690.49334 991.22081 615.44635 918.5 518.23242 918.5 L 433.63477 918.5 C 344.03115 918.5 272.72875 977.70916 225.80469 1074.8301 C 178.88063 1171.951 154.26172 1307.8271 154.26172 1468.2773 C 154.26172 1643.7078 188.81923 1784.0599 249.17969 1881.209 C 309.5198 1978.3254 396.96403 2032.0447 498.2793 2030.4961 C 603.14167 2030.4551 683.15269 1962.3546 736.42969 1895.9004 C 743.22393 1887.4257 749.59858 1878.953 755.55859 1870.6172 L 755.55859 2190.8926 L 755.55859 2333 A 12.50125 12.50125 0 1 0 780.55859 2333 L 780.55859 2190.8926 L 780.55859 1832.8242 C 785.55047 1824.6697 789.98772 1817.0017 793.98047 1809.8457 L 793.98047 2190.8926 L 793.98047 2333 A 12.50125 12.50125 0 1 0 818.98047 2333 L 818.98047 2190.8926 L 818.98047 1250.9336 A 12.50125 12.50125 0 0 0 819.06445 1249.4395 C 819.06445 1248.5293 819.03131 1247.597 818.98047 1246.6504 L 818.98047 1076.4961 L 818.98047 883 A 12.50125 12.50125 0 0 0 818.97852 882.93164 C 818.97835 882.9131 818.9787 882.89353 818.97852 882.875 A 12.50125 12.50125 0 0 0 818.9668 882.60352 A 12.50125 12.50125 0 0 0 818.92383 881.66406 A 12.50125 12.50125 0 0 0 818.86914 881.26758 A 12.50125 12.50125 0 0 0 818.74609 880.43555 A 12.50125 12.50125 0 0 0 818.65234 880.04102 A 12.50125 12.50125 0 0 0 818.44336 879.21094 A 12.50125 12.50125 0 0 0 818.33008 878.88672 A 12.50125 12.50125 0 0 0 818.02539 878.03711 A 12.50125 12.50125 0 0 0 817.87109 877.70703 A 12.50125 12.50125 0 0 0 817.48828 876.90625 A 12.50125 12.50125 0 0 0 817.29297 876.57812 A 12.50125 12.50125 0 0 0 816.84961 875.84961 A 12.50125 12.50125 0 0 0 816.55469 875.44922 A 12.50125 12.50125 0 0 0 816.10352 874.84961 A 12.50125 12.50125 0 0 0 815.7832 874.49609 A 12.50125 12.50125 0 0 0 815.25195 873.92383 A 12.50125 12.50125 0 0 0 814.91016 873.61523 A 12.50125 12.50125 0 0 0 814.33398 873.10156 A 12.50125 12.50125 0 0 0 813.9082 872.78711 A 12.50125 12.50125 0 0 0 813.3125 872.35938 A 12.50125 12.50125 0 0 0 812.88281 872.10352 A 12.50125 12.50125 0 0 0 812.24414 871.73438 A 12.50125 12.50125 0 0 0 811.78711 871.52148 A 12.50125 12.50125 0 0 0 811.08789 871.20703 A 12.50125 12.50125 0 0 0 810.68164 871.06641 A 12.50125 12.50125 0 0 0 809.92773 870.81055 A 12.50125 12.50125 0 0 0 809.39648 870.68359 A 12.50125 12.50125 0 0 0 808.69922 870.52344 A 12.50125 12.50125 0 0 0 808.21094 870.45898 A 12.50125 12.50125 0 0 0 807.4707 870.36523 A 12.50125 12.50125 0 0 0 806.83984 870.34375 A 12.50125 12.50125 0 0 0 806.29102 870.32422 z M 433.63477 943.5 L 441.8125 943.5 C 366.9914 956.0488 307.69798 998.17706 267.1582 1070.4199 C 218.00426 1158.0135 194.57812 1288.5295 194.57812 1466.7676 C 194.57812 1616.1804 216.38032 1746.8489 264.0957 1841.6426 C 311.81109 1936.4363 387.65559 1995.5 490.13477 1995.5 C 547.92549 1995.5 598.43515 1978.4045 640.36914 1955.25 C 600.0657 1984.8883 552.48995 2005.5 498.18555 2005.5 A 12.50125 12.50125 0 0 0 497.99023 2005.5 C 405.54383 2006.9469 327.31421 1959.5935 270.41406 1868.0137 C 213.51392 1776.4339 179.26172 1640.4063 179.26172 1468.2754 C 179.26172 1310.4039 203.89467 1177.6428 248.31445 1085.7051 C 292.73424 993.76938 354.8682 943.5 433.63477 943.5 z M 491.57812 964.49805 C 660.42929 964.49805 745.60664 1122.6157 755.55859 1142.3047 L 755.55859 1820.5254 C 739.98664 1841.9489 640.32797 1970.5 490.13477 1970.5 C 397.02316 1970.5 331.34088 1919.6329 286.42578 1830.4023 C 241.51068 1741.1718 219.57812 1613.721 219.57812 1466.7676 C 219.57812 1290.7512 243.37682 1163.8828 288.95898 1082.6543 C 334.54115 1001.4257 400.07068 964.49805 491.57812 964.49805 z M 793.98047 1057.4805 L 793.98047 1076.4961 L 793.98047 1165.5547 C 790.14266 1156.5732 785.88201 1147.2056 781.1875 1137.5762 C 782.00478 1132.5399 787.19546 1100.4751 793.98047 1057.4805 z M 780.55859 1199.3438 C 784.3582 1209.6163 787.39281 1218.9111 789.59766 1226.7715 C 792.28296 1236.3448 793.65287 1244.1586 793.98047 1247.9316 L 793.98047 1754.3809 C 793.07127 1756.5014 788.70504 1766.4662 780.55859 1782.1094 L 780.55859 1199.3438 z "
       transform="translate(0,-288)"
       id="path5236-72-2" />
  </g>
</svg>
