<?xml version="1.0" encoding="UTF-8" standalone="no"?>
<!--?xml version="1.0" encoding="UTF-8" standalone="no"?-->

<svg
   xmlns:dc="http://purl.org/dc/elements/1.1/"
   xmlns:cc="http://creativecommons.org/ns#"
   xmlns:rdf="http://www.w3.org/1999/02/22-rdf-syntax-ns#"
   xmlns:svg="http://www.w3.org/2000/svg"
   xmlns="http://www.w3.org/2000/svg"
   xmlns:sodipodi="http://sodipodi.sourceforge.net/DTD/sodipodi-0.dtd"
   xmlns:inkscape="http://www.inkscape.org/namespaces/inkscape"
   version="1.1"
   viewBox="0 -288 720 2048"
   id="svg6"
   sodipodi:docname="t.svg"
   width="720"
   height="2048"
   inkscape:version="0.92.1 r">
  <metadata
     id="metadata12">
    <rdf:rdf>
      <cc:work
         rdf:about="">
        <dc:format>image/svg+xml</dc:format>
        <dc:type
           rdf:resource="http://purl.org/dc/dcmitype/StillImage" />
        <dc:title />
      </cc:work>
    </rdf:rdf>
    <rdf:RDF>
      <cc:Work
         rdf:about="">
        <dc:format>image/svg+xml</dc:format>
        <dc:type
           rdf:resource="http://purl.org/dc/dcmitype/StillImage" />
      </cc:Work>
    </rdf:RDF>
  </metadata>
  <defs
     id="defs10" />
  <sodipodi:namedview
     pagecolor="#ffffff"
     bordercolor="#666666"
     borderopacity="1"
     objecttolerance="10"
     gridtolerance="10"
     guidetolerance="10"
     inkscape:pageopacity="0"
     inkscape:pageshadow="2"
     inkscape:window-width="1364"
     inkscape:window-height="730"
     id="namedview8"
     showgrid="false"
     inkscape:zoom="0.11413215"
     inkscape:cx="-490.10695"
     inkscape:cy="-212.89709"
     inkscape:window-x="0"
     inkscape:window-y="18"
     inkscape:window-maximized="0"
     inkscape:current-layer="layer3" />
  <g
     inkscape:groupmode="layer"
     id="layer3"
     inkscape:label="trace"
     style="display:inline">
    <path
       style="color:#000000;font-style:normal;font-variant:normal;font-weight:normal;font-stretch:normal;font-size:medium;line-height:normal;font-family:sans-serif;font-variant-ligatures:normal;font-variant-position:normal;font-variant-caps:normal;font-variant-numeric:normal;font-variant-alternates:normal;font-feature-settings:normal;text-indent:0;text-align:start;text-decoration:none;text-decoration-line:none;text-decoration-style:solid;text-decoration-color:#000000;letter-spacing:normal;word-spacing:normal;text-transform:none;writing-mode:lr-tb;direction:ltr;text-orientation:mixed;dominant-baseline:auto;baseline-shift:baseline;text-anchor:start;white-space:normal;shape-padding:0;clip-rule:nonzero;display:inline;overflow:visible;visibility:visible;opacity:1;isolation:auto;mix-blend-mode:normal;color-interpolation:sRGB;color-interpolation-filters:linearRGB;solid-color:#000000;solid-opacity:1;vector-effect:none;fill:#000000;fill-opacity:1;fill-rule:evenodd;stroke:none;stroke-width:25;stroke-linecap:round;stroke-linejoin:round;stroke-miterlimit:4;stroke-dasharray:none;stroke-dashoffset:0;stroke-opacity:1;color-rendering:auto;image-rendering:auto;shape-rendering:auto;text-rendering:auto;enable-background:accumulate"
       d="M 215.18359 410.08203 A 12.50125 12.50125 0 0 0 202.87109 422.75781 L 202.87109 924.79492 L 24.654297 924.79492 A 12.50125 12.50125 0 1 0 24.654297 949.79492 L 202.87109 949.79492 L 202.87109 1770.459 C 202.87109 1838.014 207.02765 1896.4215 229.31055 1940.1406 C 251.59344 1983.8598 294.12919 2010.5 360.57422 2010.5 L 580 2010.5 A 12.50125 12.50125 0 1 0 580 1985.5 L 360.57422 1985.5 C 300.28233 1985.5 270.21844 1965.35 251.58398 1928.7891 C 232.94953 1892.2282 227.87109 1836.8653 227.87109 1770.459 L 227.87109 949.79492 L 239.03711 949.79492 L 239.03711 1824.1992 C 239.03711 1868.4851 246.04722 1902.975 267.72461 1926.7266 C 289.40199 1950.4782 323.62299 1960.5 371.2793 1960.5 L 580 1960.5 A 12.50125 12.50125 0 1 0 580 1935.5 L 371.2793 1935.5 C 327.06389 1935.5 301.41497 1926.5554 286.18945 1909.873 C 270.96394 1893.1907 264.03711 1865.7803 264.03711 1824.1992 L 264.03711 949.79492 L 551.77344 949.79492 L 552.78906 949.79492 A 12.50125 12.50125 0 1 0 552.78906 924.79492 L 551.77344 924.79492 L 264.03711 924.79492 L 264.03711 422.75781 A 12.50125 12.50125 0 0 0 251.34961 410.08203 A 12.50125 12.50125 0 0 0 239.03711 422.75781 L 239.03711 924.79492 L 227.87109 924.79492 L 227.87109 422.75781 A 12.50125 12.50125 0 0 0 215.18359 410.08203 z "
       transform="translate(0,-288)"
       id="path5829-3-3" />
  </g>
</svg>
