<?xml version="1.0" encoding="UTF-8" standalone="no"?>
<!--?xml version="1.0" encoding="UTF-8" standalone="no"?-->

<svg
   xmlns:dc="http://purl.org/dc/elements/1.1/"
   xmlns:cc="http://creativecommons.org/ns#"
   xmlns:rdf="http://www.w3.org/1999/02/22-rdf-syntax-ns#"
   xmlns:svg="http://www.w3.org/2000/svg"
   xmlns="http://www.w3.org/2000/svg"
   xmlns:sodipodi="http://sodipodi.sourceforge.net/DTD/sodipodi-0.dtd"
   xmlns:inkscape="http://www.inkscape.org/namespaces/inkscape"
   version="1.1"
   viewBox="0 -288 1232 2048"
   id="svg6"
   sodipodi:docname="X.svg"
   width="1232"
   height="2048"
   inkscape:version="0.92.1 r">
  <metadata
     id="metadata12">
    <rdf:rdf>
      <cc:work
         rdf:about="">
        <dc:format>image/svg+xml</dc:format>
        <dc:type
           rdf:resource="http://purl.org/dc/dcmitype/StillImage" />
        <dc:title />
      </cc:work>
    </rdf:rdf>
    <rdf:RDF>
      <cc:Work
         rdf:about="">
        <dc:format>image/svg+xml</dc:format>
        <dc:type
           rdf:resource="http://purl.org/dc/dcmitype/StillImage" />
      </cc:Work>
    </rdf:RDF>
  </metadata>
  <defs
     id="defs10" />
  <sodipodi:namedview
     pagecolor="#ffffff"
     bordercolor="#666666"
     borderopacity="1"
     objecttolerance="10"
     gridtolerance="10"
     guidetolerance="10"
     inkscape:pageopacity="0"
     inkscape:pageshadow="2"
     inkscape:window-width="1364"
     inkscape:window-height="730"
     id="namedview8"
     showgrid="false"
     inkscape:zoom="0.1241633"
     inkscape:cx="2543.5293"
     inkscape:cy="1770.6902"
     inkscape:window-x="0"
     inkscape:window-y="18"
     inkscape:window-maximized="0"
     inkscape:current-layer="layer3"
     inkscape:measure-start="316.934,14.2978"
     inkscape:measure-end="23.8296,14.2978" />
  <g
     inkscape:groupmode="layer"
     id="layer3"
     inkscape:label="trace">
    <path
       style="color:#000000;font-style:normal;font-variant:normal;font-weight:normal;font-stretch:normal;font-size:medium;line-height:normal;font-family:sans-serif;font-variant-ligatures:normal;font-variant-position:normal;font-variant-caps:normal;font-variant-numeric:normal;font-variant-alternates:normal;font-feature-settings:normal;text-indent:0;text-align:start;text-decoration:none;text-decoration-line:none;text-decoration-style:solid;text-decoration-color:#000000;letter-spacing:normal;word-spacing:normal;text-transform:none;writing-mode:lr-tb;direction:ltr;text-orientation:mixed;dominant-baseline:auto;baseline-shift:baseline;text-anchor:start;white-space:normal;shape-padding:0;clip-rule:nonzero;display:inline;overflow:visible;visibility:visible;opacity:1;isolation:auto;mix-blend-mode:normal;color-interpolation:sRGB;color-interpolation-filters:linearRGB;solid-color:#000000;solid-opacity:1;vector-effect:none;fill:#050000;fill-opacity:1;fill-rule:evenodd;stroke:none;stroke-width:25;stroke-linecap:round;stroke-linejoin:round;stroke-miterlimit:4;stroke-dasharray:none;stroke-dashoffset:0;stroke-opacity:1;color-rendering:auto;image-rendering:auto;shape-rendering:auto;text-rendering:auto;enable-background:accumulate"
       d="M 147.55273 485.32422 A 12.50125 12.50125 0 0 0 135.24023 498 C 135.24023 502.69134 135.98555 502.42133 136.28711 503.18359 C 136.58867 503.94586 136.85611 504.51614 137.1582 505.14258 C 137.76239 506.39546 138.49461 507.79071 139.42969 509.51758 C 141.29983 512.97131 143.95665 517.67085 147.4082 523.6543 C 154.31131 535.6212 164.36647 552.66332 177.1582 574.12109 C 202.74167 617.03664 239.25304 677.57657 283.06445 749.90039 C 368.03841 890.17528 480.68397 1075.1212 593.9375 1261.1445 C 595.95243 1264.8944 597.9376 1268.5951 599.95312 1272.3457 C 484.60508 1461.8179 369.58684 1650.8627 283.05469 1794.1426 C 239.24092 1866.6894 202.72809 1927.5058 177.13672 1970.7637 C 164.34103 1992.3926 154.28137 2009.6216 147.36523 2021.8047 C 143.90717 2027.8963 141.24168 2032.71 139.35352 2036.3066 C 138.40943 2038.105 137.66708 2039.5762 137.04688 2040.9355 C 136.73676 2041.6152 136.45749 2042.2508 136.15625 2043.084 C 135.85501 2043.9172 135.24023 2044.2402 135.24023 2048 A 12.50125 12.50125 0 0 0 159.85352 2051.252 C 159.78052 2051.3589 159.68825 2051.5225 159.66602 2051.584 C 159.59112 2051.7911 159.65192 2051.617 159.79102 2051.3125 C 159.80522 2051.2815 159.86105 2051.173 159.87695 2051.1387 A 12.50125 12.50125 0 0 0 160.03711 2050.373 C 160.01481 2050.4858 160.01589 2050.8294 159.99219 2050.9121 C 160.30271 2050.2528 160.76169 2049.3098 161.48828 2047.9258 C 163.13641 2044.7864 165.71911 2040.1117 169.10547 2034.1465 C 175.87819 2022.216 185.89549 2005.0574 198.65234 1983.4941 C 224.16604 1940.3676 260.66016 1879.582 304.45508 1807.0664 C 330.75224 1763.5236 360.25533 1714.8325 391.0293 1664.0996 C 365.56038 1711.5124 341.20217 1756.8883 319.29297 1797.791 C 280.75871 1869.7313 248.64536 1929.9469 226.14258 1972.6621 C 214.89119 1994.0197 206.04576 2010.9928 199.97266 2022.9316 C 196.9361 2028.9011 194.59905 2033.5971 192.95312 2037.0586 C 192.13017 2038.7894 191.48575 2040.1917 190.95703 2041.4492 C 190.69267 2042.078 190.45752 2042.6551 190.20312 2043.4004 C 189.94873 2044.1456 189.38281 2044.1507 189.38281 2048.041 A 12.50125 12.50125 0 0 0 214 2051.2812 C 213.9508 2051.3212 213.87671 2051.4372 213.86328 2051.4766 C 213.80798 2051.6385 213.87128 2051.4516 214.00195 2051.1406 C 214.00995 2051.1206 214.04188 2051.0546 214.05078 2051.0332 A 12.50125 12.50125 0 0 0 214.20508 2050.2949 C 214.18718 2050.3972 214.18717 2050.7024 214.16797 2050.7773 C 214.45305 2050.1165 214.87854 2049.1676 215.53125 2047.7949 C 216.99568 2044.7151 219.27236 2040.1327 222.25586 2034.2676 C 228.22285 2022.5373 237.0363 2005.6191 248.25977 1984.3145 C 270.70669 1941.7052 302.8077 1881.5138 341.33008 1809.5957 C 416.10898 1669.9897 515.28604 1485.8148 614.98828 1300.3203 C 714.69037 1485.8145 813.86574 1669.9899 888.64453 1809.5957 C 927.16691 1881.5138 959.26792 1941.7052 981.71484 1984.3145 C 992.93831 2005.6191 1001.7517 2022.5373 1007.7188 2034.2676 C 1010.7021 2040.1327 1012.9789 2044.7151 1014.4434 2047.7949 C 1015.0961 2049.1676 1015.5216 2050.1165 1015.8066 2050.7773 C 1015.7846 2050.6913 1015.7817 2050.3455 1015.7617 2050.2227 A 12.50125 12.50125 0 0 0 1015.9297 2051.0449 C 1015.9397 2051.0639 1015.9647 2051.1226 1015.9727 2051.1406 C 1016.1034 2051.4515 1016.1666 2051.6385 1016.1113 2051.4766 C 1016.0993 2051.4426 1016.0323 2051.3346 1015.9922 2051.3066 A 12.50125 12.50125 0 0 0 1040.5898 2048.041 C 1040.5898 2044.1507 1040.0259 2044.1456 1039.7715 2043.4004 C 1039.5171 2042.6551 1039.2819 2042.078 1039.0176 2041.4492 C 1038.4889 2040.1917 1037.8444 2038.7894 1037.0215 2037.0586 C 1035.3756 2033.5971 1033.0385 2028.9011 1030.002 2022.9316 C 1023.9288 2010.9928 1015.0834 1994.0197 1003.832 1972.6621 C 981.32938 1929.9466 949.2159 1869.7313 910.68164 1797.791 C 888.77244 1756.8883 864.41423 1711.5124 838.94531 1664.0996 C 869.71928 1714.8325 899.22237 1763.5236 925.51953 1807.0664 C 969.31445 1879.582 1005.8086 1940.3676 1031.3223 1983.4941 C 1044.0791 2005.0574 1054.0964 2022.216 1060.8691 2034.1465 C 1064.2555 2040.1117 1066.8363 2044.7864 1068.4844 2047.9258 C 1069.211 2049.3099 1069.6719 2050.2528 1069.9824 2050.9121 C 1069.9634 2050.8471 1069.9653 2050.57 1069.9473 2050.4863 A 12.50125 12.50125 0 0 0 1070.1113 2051.1699 C 1070.1243 2051.1979 1070.1726 2051.2868 1070.1836 2051.3125 C 1070.3227 2051.6173 1070.3835 2051.7911 1070.3086 2051.584 C 1070.2886 2051.529 1070.2031 2051.3698 1070.1406 2051.2871 A 12.50125 12.50125 0 0 0 1094.7344 2048 C 1094.7344 2044.2402 1094.1196 2043.9172 1093.8184 2043.084 C 1093.5171 2042.2508 1093.2378 2041.6152 1092.9277 2040.9355 C 1092.3075 2039.5762 1091.5652 2038.105 1090.6211 2036.3066 C 1088.7329 2032.71 1086.0674 2027.8963 1082.6094 2021.8047 C 1075.6932 2009.6216 1065.6336 1992.3926 1052.8379 1970.7637 C 1027.2465 1927.5058 990.73369 1866.6894 946.91992 1794.1426 C 860.38777 1650.8627 745.36953 1461.8179 630.02148 1272.3457 C 632.03743 1268.5943 634.02371 1264.8932 636.03906 1261.1426 C 749.29211 1075.1201 861.93655 890.17468 946.91016 749.90039 C 990.72157 677.57657 1027.2329 617.03664 1052.8164 574.12109 C 1065.6081 552.66332 1075.6633 535.6212 1082.5664 523.6543 C 1086.018 517.67085 1088.6748 512.97131 1090.5449 509.51758 C 1091.48 507.79071 1092.2122 506.39546 1092.8164 505.14258 C 1093.1185 504.51614 1093.3859 503.94586 1093.6875 503.18359 C 1093.9891 502.42133 1094.7344 502.69134 1094.7344 498 A 12.50125 12.50125 0 0 0 1082.0449 485.32422 A 12.50125 12.50125 0 0 0 1070.3086 494.12305 C 1070.3486 494.11015 1070.4265 494.01904 1070.4395 493.98633 C 1070.5145 493.79625 1070.4395 493.97833 1070.2969 494.2832 C 1070.2799 494.318 1070.2163 494.43422 1070.1973 494.47266 A 12.50125 12.50125 0 0 0 1069.9551 495.53906 C 1069.9841 495.37105 1069.9875 494.92619 1070.0195 494.81445 C 1069.6898 495.47568 1069.2607 496.32029 1068.5605 497.61328 C 1066.8944 500.69026 1064.305 505.28039 1060.9121 511.16211 C 1054.1264 522.92555 1044.1026 539.91443 1031.3418 561.32031 C 1005.8202 604.13207 969.32462 664.64679 925.52734 736.94727 C 902.63733 774.73441 877.59523 815.99608 851.23633 859.38477 C 870.66685 822.91572 889.27147 787.92301 906.43945 755.50977 C 944.98107 682.74299 977.10244 621.49926 999.62891 577.51758 C 1010.8921 555.52674 1019.7504 537.86565 1025.8594 525.13477 C 1028.9139 518.76932 1031.2753 513.65586 1032.9629 509.69336 C 1033.8067 507.71211 1034.4822 506.03618 1035.0332 504.45117 C 1035.5842 502.86616 1036.3203 502.36525 1036.3203 498 A 12.50125 12.50125 0 0 0 1023.6328 485.32422 A 12.50125 12.50125 0 0 0 1011.4199 496.39258 C 1011.431 496.28761 1011.4385 496.18295 1011.418 496.24219 C 1011.1789 496.92997 1010.6743 498.22817 1009.9629 499.89844 C 1008.5402 503.23897 1006.2859 508.14028 1003.3203 514.32031 C 997.38924 526.68038 988.59053 544.23102 977.37891 566.12109 C 954.95567 609.90123 922.86268 671.09204 884.34766 743.80859 C 810.61978 883.00649 713.27489 1064.5801 614.98633 1247.502 C 516.69791 1064.5804 419.35434 883.00628 345.62695 743.80859 C 307.11193 671.09203 275.01894 609.90124 252.5957 566.12109 C 241.38408 544.23102 232.58537 526.68038 226.6543 514.32031 C 223.68876 508.14028 221.43445 503.23897 220.01172 499.89844 C 219.30035 498.22817 218.79575 496.92997 218.55664 496.24219 C 218.52794 496.15969 218.58206 496.53811 218.56836 496.45312 A 12.50125 12.50125 0 0 0 205.96484 485.32422 A 12.50125 12.50125 0 0 0 193.6543 498 C 193.6543 502.36525 194.39038 502.86616 194.94141 504.45117 C 195.49243 506.03618 196.16791 507.71211 197.01172 509.69336 C 198.69935 513.65586 201.06072 518.76932 204.11523 525.13477 C 210.22426 537.86565 219.08247 555.52674 230.3457 577.51758 C 252.87217 621.49926 284.99354 682.74299 323.53516 755.50977 C 340.70314 787.92301 359.30776 822.91572 378.73828 859.38477 C 352.37926 815.99608 327.33749 774.73441 304.44727 736.94727 C 260.64999 664.64679 224.15441 604.13207 198.63281 561.32031 C 185.87201 539.91443 175.84825 522.92555 169.0625 511.16211 C 165.66963 505.28039 163.08021 500.69026 161.41406 497.61328 C 160.71393 496.32029 160.28479 495.47568 159.95508 494.81445 C 159.98358 494.91205 159.98572 495.30734 160.01172 495.44727 A 12.50125 12.50125 0 0 0 159.77539 494.47266 C 159.75669 494.43436 159.69443 494.31782 159.67773 494.2832 C 159.53066 493.97822 159.45996 493.79625 159.53516 493.98633 C 159.54906 494.02143 159.63146 494.118 159.67578 494.13281 A 12.50125 12.50125 0 0 0 147.55273 485.32422 z "
       transform="translate(0,-288)"
       id="path5109-6" />
  </g>
</svg>
