<?xml version="1.0" encoding="UTF-8" standalone="no"?>
<!--?xml version="1.0" encoding="UTF-8" standalone="no"?-->

<svg
   xmlns:dc="http://purl.org/dc/elements/1.1/"
   xmlns:cc="http://creativecommons.org/ns#"
   xmlns:rdf="http://www.w3.org/1999/02/22-rdf-syntax-ns#"
   xmlns:svg="http://www.w3.org/2000/svg"
   xmlns="http://www.w3.org/2000/svg"
   xmlns:sodipodi="http://sodipodi.sourceforge.net/DTD/sodipodi-0.dtd"
   xmlns:inkscape="http://www.inkscape.org/namespaces/inkscape"
   version="1.1"
   viewBox="0 -288 936 2048"
   id="svg6"
   sodipodi:docname="z.svg"
   width="936"
   height="2048"
   inkscape:version="0.92.1 r">
  <metadata
     id="metadata12">
    <rdf:rdf>
      <cc:work
         rdf:about="">
        <dc:format>image/svg+xml</dc:format>
        <dc:type
           rdf:resource="http://purl.org/dc/dcmitype/StillImage" />
        <dc:title />
      </cc:work>
    </rdf:rdf>
    <rdf:RDF>
      <cc:Work
         rdf:about="">
        <dc:format>image/svg+xml</dc:format>
        <dc:type
           rdf:resource="http://purl.org/dc/dcmitype/StillImage" />
      </cc:Work>
    </rdf:RDF>
  </metadata>
  <defs
     id="defs10" />
  <sodipodi:namedview
     pagecolor="#ffffff"
     bordercolor="#666666"
     borderopacity="1"
     objecttolerance="10"
     gridtolerance="10"
     guidetolerance="10"
     inkscape:pageopacity="0"
     inkscape:pageshadow="2"
     inkscape:window-width="1364"
     inkscape:window-height="730"
     id="namedview8"
     showgrid="false"
     inkscape:zoom="0.49665318"
     inkscape:cx="197.61519"
     inkscape:cy="620.80588"
     inkscape:window-x="0"
     inkscape:window-y="18"
     inkscape:window-maximized="0"
     inkscape:current-layer="layer3"
     inkscape:measure-start="505.188,-278.807"
     inkscape:measure-end="188.254,-278.807"
     showguides="true"
     inkscape:guide-bbox="true">
    <sodipodi:guide
       position="845.51112,411.80334"
       orientation="1,0"
       id="guide4527"
       inkscape:locked="false" />
    <sodipodi:guide
       position="137.32824,1138.2237"
       orientation="1,0"
       id="guide4520"
       inkscape:locked="false" />
    <sodipodi:guide
       position="170.08397,1161.5454"
       orientation="1,0"
       id="guide4522"
       inkscape:locked="false" />
    <sodipodi:guide
       position="505.1881,1241.5236"
       orientation="1,0"
       id="guide4524"
       inkscape:locked="false" />
    <sodipodi:guide
       position="824.20725,1164.9709"
       orientation="0,1"
       id="guide4526"
       inkscape:locked="false" />
  </sodipodi:namedview>
  <g
     inkscape:groupmode="layer"
     id="layer3"
     inkscape:label="trace"
     style="display:inline">
    <path
       style="color:#000000;font-style:normal;font-variant:normal;font-weight:normal;font-stretch:normal;font-size:medium;line-height:normal;font-family:sans-serif;font-variant-ligatures:normal;font-variant-position:normal;font-variant-caps:normal;font-variant-numeric:normal;font-variant-alternates:normal;font-feature-settings:normal;text-indent:0;text-align:start;text-decoration:none;text-decoration-line:none;text-decoration-style:solid;text-decoration-color:#000000;letter-spacing:normal;word-spacing:normal;text-transform:none;writing-mode:lr-tb;direction:ltr;text-orientation:mixed;dominant-baseline:auto;baseline-shift:baseline;text-anchor:start;white-space:normal;shape-padding:0;clip-rule:nonzero;display:inline;overflow:visible;visibility:visible;opacity:1;isolation:auto;mix-blend-mode:normal;color-interpolation:sRGB;color-interpolation-filters:linearRGB;solid-color:#000000;solid-opacity:1;vector-effect:none;fill:#000000;fill-opacity:1;fill-rule:evenodd;stroke:none;stroke-width:25;stroke-linecap:round;stroke-linejoin:round;stroke-miterlimit:4;stroke-dasharray:none;stroke-dashoffset:0;stroke-opacity:1;color-rendering:auto;image-rendering:auto;shape-rendering:auto;text-rendering:auto;enable-background:accumulate"
       d="M 76.755859 920.5 A 12.50125 12.50125 0 0 0 68.837891 942.80664 A 12.50125 12.50125 0 0 0 76.228516 965.5 L 733.0957 965.5 L 733.0957 1014.3262 L 420.07227 1500.875 L 116.66797 1915.6191 A 12.50125 12.50125 0 0 0 114.25586 1923 L 114.25586 1998 A 12.50125 12.50125 0 0 0 126.75586 2010.5 L 846.12305 2010.5 A 12.50125 12.50125 0 1 0 846.12305 1985.5 L 139.25586 1985.5 L 139.25586 1927.084 L 194.125 1852.0801 L 165.7168 1896.2363 A 12.50125 12.50125 0 0 0 163.72852 1903 L 163.72852 1968 A 12.50125 12.50125 0 0 0 176.22852 1980.5 L 845.5957 1980.5 A 12.50125 12.50125 0 1 0 845.5957 1955.5 L 188.72852 1955.5 L 188.72852 1906.6738 L 440.69336 1515.0293 L 806.21094 1015.3809 A 12.50125 12.50125 0 0 0 808.62305 1008 L 808.62305 933 A 12.50125 12.50125 0 0 0 796.12305 920.5 L 76.755859 920.5 z M 755.57617 945.5 L 783.62305 945.5 L 783.62305 1003.916 L 666.64258 1163.8242 L 756.10742 1024.7637 A 12.50125 12.50125 0 0 0 758.0957 1018 L 758.0957 953 A 12.50125 12.50125 0 0 0 755.57617 945.5 z "
       transform="translate(0,-288)"
       id="path5236-7-72-2-3" />
  </g>
</svg>
