<?xml version="1.0" encoding="UTF-8" standalone="no"?>
<!--?xml version="1.0" encoding="UTF-8" standalone="no"?-->

<svg
   xmlns:dc="http://purl.org/dc/elements/1.1/"
   xmlns:cc="http://creativecommons.org/ns#"
   xmlns:rdf="http://www.w3.org/1999/02/22-rdf-syntax-ns#"
   xmlns:svg="http://www.w3.org/2000/svg"
   xmlns="http://www.w3.org/2000/svg"
   xmlns:sodipodi="http://sodipodi.sourceforge.net/DTD/sodipodi-0.dtd"
   xmlns:inkscape="http://www.inkscape.org/namespaces/inkscape"
   version="1.1"
   viewBox="0 -288 1360 2048"
   id="svg6"
   sodipodi:docname="C.svg"
   width="1360"
   height="2048"
   inkscape:version="0.92.1 r">
  <metadata
     id="metadata12">
    <rdf:rdf>
      <cc:work
         rdf:about="">
        <dc:format>image/svg+xml</dc:format>
        <dc:type
           rdf:resource="http://purl.org/dc/dcmitype/StillImage" />
        <dc:title />
      </cc:work>
    </rdf:rdf>
    <rdf:RDF>
      <cc:Work
         rdf:about="">
        <dc:format>image/svg+xml</dc:format>
        <dc:type
           rdf:resource="http://purl.org/dc/dcmitype/StillImage" />
      </cc:Work>
    </rdf:RDF>
  </metadata>
  <defs
     id="defs10" />
  <sodipodi:namedview
     pagecolor="#ffffff"
     bordercolor="#666666"
     borderopacity="1"
     objecttolerance="10"
     gridtolerance="10"
     guidetolerance="10"
     inkscape:pageopacity="0"
     inkscape:pageshadow="2"
     inkscape:window-width="1364"
     inkscape:window-height="730"
     id="namedview8"
     showgrid="false"
     inkscape:zoom="0.1253624"
     inkscape:cx="-1717.9109"
     inkscape:cy="543.66955"
     inkscape:window-x="0"
     inkscape:window-y="18"
     inkscape:window-maximized="0"
     inkscape:current-layer="layer3"
     showguides="false"
     inkscape:guide-bbox="true"
     inkscape:measure-start="716.407,-41.4197"
     inkscape:measure-end="716.407,161.077">
    <sodipodi:guide
       position="1149.8305,670.37288"
       orientation="1,0"
       id="guide969"
       inkscape:locked="false" />
  </sodipodi:namedview>
  <g
     inkscape:groupmode="layer"
     id="layer3"
     inkscape:label="trace"
     style="display:inline">
    <path
       style="color:#000000;font-style:normal;font-variant:normal;font-weight:normal;font-stretch:normal;font-size:medium;line-height:normal;font-family:sans-serif;font-variant-ligatures:normal;font-variant-position:normal;font-variant-caps:normal;font-variant-numeric:normal;font-variant-alternates:normal;font-feature-settings:normal;text-indent:0;text-align:start;text-decoration:none;text-decoration-line:none;text-decoration-style:solid;text-decoration-color:#000000;letter-spacing:normal;word-spacing:normal;text-transform:none;writing-mode:lr-tb;direction:ltr;text-orientation:mixed;dominant-baseline:auto;baseline-shift:baseline;text-anchor:start;white-space:normal;shape-padding:0;clip-rule:nonzero;display:inline;overflow:visible;visibility:visible;opacity:1;isolation:auto;mix-blend-mode:normal;color-interpolation:sRGB;color-interpolation-filters:linearRGB;solid-color:#000000;solid-opacity:1;vector-effect:none;fill:#000000;fill-opacity:1;fill-rule:evenodd;stroke:none;stroke-width:200;stroke-linecap:round;stroke-linejoin:round;stroke-miterlimit:4;stroke-dasharray:none;stroke-dashoffset:0;stroke-opacity:1;color-rendering:auto;image-rendering:auto;shape-rendering:auto;text-rendering:auto;enable-background:accumulate"
       d="M 660.98828 431.21094 C 446.26111 431.21094 276.09628 543.38389 182.5625 703.54883 C 89.028718 863.71376 56.814453 1064.1774 56.814453 1276.3457 C 56.814453 1511.9094 105.28423 1719.0298 214.08203 1875.4473 C 322.87983 2031.8647 499.70026 2129.25 707.25977 2129.25 C 901.18733 2129.25 1064.8649 2059.5764 1171.0684 1937.4844 C 1277.2718 1815.3924 1324 1650.9144 1324 1473 A 115.0115 115.0115 0 0 0 1151.6387 1371.7324 A 100.01 100.01 0 0 0 1049 1473 C 1049 1621.739 1011.0473 1717.5252 955.32031 1777.0234 C 899.59331 1836.5217 820.38472 1868.4219 706.79297 1868.4219 C 578.4354 1868.4219 491.07514 1809.9092 422.2168 1703.6738 C 353.35846 1597.4385 313.23436 1441.7449 313.23438 1276.5605 C 313.23438 1079.344 353.09651 925.49395 418.49414 829.01758 C 483.89177 732.54121 567.61001 684.50391 703.25977 684.50391 C 827.95316 684.50391 907.52175 719.21294 960.38281 774.35938 C 1013.2439 829.5058 1045 913.01034 1045 1031.8652 A 100.01 100.01 0 0 0 1147.916 1133.1855 A 115.0115 115.0115 0 0 0 1320 1031.8652 C 1320 705.28315 1086.2457 431.21094 768.70117 431.21094 L 660.98828 431.21094 z "
       transform="translate(0,-288)"
       id="path144" />
  </g>
  <g
     inkscape:groupmode="layer"
     id="layer4"
     inkscape:label="trace2" />
</svg>
