<?xml version="1.0" encoding="UTF-8" standalone="no"?>
<!--?xml version="1.0" encoding="UTF-8" standalone="no"?-->

<svg
   xmlns:dc="http://purl.org/dc/elements/1.1/"
   xmlns:cc="http://creativecommons.org/ns#"
   xmlns:rdf="http://www.w3.org/1999/02/22-rdf-syntax-ns#"
   xmlns:svg="http://www.w3.org/2000/svg"
   xmlns="http://www.w3.org/2000/svg"
   xmlns:sodipodi="http://sodipodi.sourceforge.net/DTD/sodipodi-0.dtd"
   xmlns:inkscape="http://www.inkscape.org/namespaces/inkscape"
   version="1.1"
   viewBox="0 -288 1024 2048"
   id="svg6"
   sodipodi:docname="e.svg"
   width="1024"
   height="2048"
   inkscape:version="0.92.1 r">
  <metadata
     id="metadata12">
    <rdf:rdf>
      <cc:work
         rdf:about="">
        <dc:format>image/svg+xml</dc:format>
        <dc:type
           rdf:resource="http://purl.org/dc/dcmitype/StillImage" />
        <dc:title />
      </cc:work>
    </rdf:rdf>
    <rdf:RDF>
      <cc:Work
         rdf:about="">
        <dc:format>image/svg+xml</dc:format>
        <dc:type
           rdf:resource="http://purl.org/dc/dcmitype/StillImage" />
      </cc:Work>
    </rdf:RDF>
  </metadata>
  <defs
     id="defs10" />
  <sodipodi:namedview
     pagecolor="#ffffff"
     bordercolor="#666666"
     borderopacity="1"
     objecttolerance="10"
     gridtolerance="10"
     guidetolerance="10"
     inkscape:pageopacity="0"
     inkscape:pageshadow="2"
     inkscape:window-width="1364"
     inkscape:window-height="730"
     id="namedview8"
     showgrid="false"
     inkscape:zoom="0.64562893"
     inkscape:cx="421.36209"
     inkscape:cy="793.17992"
     inkscape:window-x="0"
     inkscape:window-y="18"
     inkscape:window-maximized="0"
     inkscape:current-layer="layer2"
     inkscape:measure-start="1198.87,818.422"
     inkscape:measure-end="1198.77,818.326"
     showguides="false"
     inkscape:guide-bbox="true">
    <sodipodi:guide
       position="860.20339,725.69492"
       orientation="0,1"
       id="guide880"
       inkscape:locked="false" />
    <sodipodi:guide
       position="514.29434,1188.8982"
       orientation="1,0"
       id="guide882"
       inkscape:locked="false" />
    <sodipodi:guide
       position="557.55932,10.847458"
       orientation="1,0"
       id="guide884"
       inkscape:locked="false" />
    <sodipodi:guide
       position="938.84605,960.32292"
       orientation="0,1"
       id="guide886"
       inkscape:locked="false" />
    <sodipodi:guide
       position="465.58787,1166.079"
       orientation="0,1"
       id="guide888"
       inkscape:locked="false" />
    <sodipodi:guide
       position="1153.6271,1046.7797"
       orientation="0,1"
       id="guide890"
       inkscape:locked="false" />
  </sodipodi:namedview>
  <g
     inkscape:groupmode="layer"
     id="layer2"
     inkscape:label="trace"
     style="display:inline">
    <path
       style="color:#000000;font-style:normal;font-variant:normal;font-weight:normal;font-stretch:normal;font-size:medium;line-height:normal;font-family:sans-serif;font-variant-ligatures:normal;font-variant-position:normal;font-variant-caps:normal;font-variant-numeric:normal;font-variant-alternates:normal;font-feature-settings:normal;text-indent:0;text-align:start;text-decoration:none;text-decoration-line:none;text-decoration-style:solid;text-decoration-color:#000000;letter-spacing:normal;word-spacing:normal;text-transform:none;writing-mode:lr-tb;direction:ltr;text-orientation:mixed;dominant-baseline:auto;baseline-shift:baseline;text-anchor:start;white-space:normal;shape-padding:0;clip-rule:nonzero;display:inline;overflow:visible;visibility:visible;opacity:1;isolation:auto;mix-blend-mode:normal;color-interpolation:sRGB;color-interpolation-filters:linearRGB;solid-color:#000000;solid-opacity:1;vector-effect:none;fill:#000000;fill-opacity:1;fill-rule:evenodd;stroke:none;stroke-width:230;stroke-linecap:round;stroke-linejoin:round;stroke-miterlimit:4;stroke-dasharray:none;stroke-dashoffset:0;stroke-opacity:1;color-rendering:auto;image-rendering:auto;shape-rendering:auto;text-rendering:auto;enable-background:accumulate"
       d="M 474.85938 818 A 115.0115 115.0115 0 0 0 472.89844 818.01758 C 344.69425 820.20478 235.26114 891.238 167.25586 985.89453 C 99.71535 1079.9041 65.419292 1197.3975 64.953125 1319.6914 C 63.474334 1355.6421 62.916016 1413.2617 62.916016 1413.2617 A 115.0115 115.0115 0 0 0 62.914062 1415.666 C 62.914062 1415.666 63.083953 1430.8802 63.314453 1447.0938 A 115.0115 115.0115 0 0 0 63.894531 1473.5566 C 64.18739 1488.2187 64.457005 1503.2008 64.931641 1515.6953 C 65.180283 1687.764 101.46502 1837.3108 185.23438 1950.6543 C 269.12721 2064.1648 405.04909 2131.0728 555.44531 2131.3359 C 690.78078 2133.1813 797.64406 2074.8491 862.4707 2007.3945 C 894.95791 1973.5904 918.14726 1938.0875 934.25977 1904.4102 C 950.37227 1870.7328 961.58984 1843.971 961.58984 1799.7188 A 115.0115 115.0115 0 0 0 788.38672 1698.9844 A 100.01 100.01 0 0 0 699.16992 1799.793 C 699.16992 1781.4554 689.68939 1823.6424 659.97852 1851.084 C 630.26764 1878.5256 590.59315 1898 551.8125 1898 C 489.88965 1898 438.15978 1875.181 393.95117 1818.9531 C 354.85436 1769.2268 322.94932 1689.1414 316.08008 1573 L 846.44727 1573 A 115.0115 115.0115 0 0 0 961.44727 1458 L 961.44727 1322.6816 C 961.44727 1212.199 935.08512 1096.5974 872.36133 998.10156 C 809.63754 899.60569 697.3828 818 559.45898 818 L 474.85938 818 z M 513.71289 1052.998 A 100.01 100.01 0 0 0 514.29492 1053 C 584.98847 1053 622.35212 1071.8703 654.57422 1114.2852 C 685.86872 1155.479 710.79553 1230.0345 712.20508 1343 L 312.62695 1343 C 314.00878 1230.9316 340.63376 1156.9553 373.85352 1114.8633 C 407.97305 1071.6312 447.96092 1052.6155 513.71289 1052.998 z "
       transform="translate(0,-288)"
       id="path5546-0-3-2-5-5" />
  </g>
</svg>
