<?xml version="1.0" encoding="UTF-8" standalone="no"?>
<!--?xml version="1.0" encoding="UTF-8" standalone="no"?-->

<svg
   xmlns:dc="http://purl.org/dc/elements/1.1/"
   xmlns:cc="http://creativecommons.org/ns#"
   xmlns:rdf="http://www.w3.org/1999/02/22-rdf-syntax-ns#"
   xmlns:svg="http://www.w3.org/2000/svg"
   xmlns="http://www.w3.org/2000/svg"
   xmlns:sodipodi="http://sodipodi.sourceforge.net/DTD/sodipodi-0.dtd"
   xmlns:inkscape="http://www.inkscape.org/namespaces/inkscape"
   version="1.1"
   viewBox="0 -288 944 2048"
   id="svg6"
   sodipodi:docname="g.svg"
   width="944"
   height="2048"
   inkscape:version="0.92.1 r">
  <metadata
     id="metadata12">
    <rdf:rdf>
      <cc:work
         rdf:about="">
        <dc:format>image/svg+xml</dc:format>
        <dc:type
           rdf:resource="http://purl.org/dc/dcmitype/StillImage" />
        <dc:title />
      </cc:work>
    </rdf:rdf>
    <rdf:RDF>
      <cc:Work
         rdf:about="">
        <dc:format>image/svg+xml</dc:format>
        <dc:type
           rdf:resource="http://purl.org/dc/dcmitype/StillImage" />
      </cc:Work>
    </rdf:RDF>
  </metadata>
  <defs
     id="defs10" />
  <sodipodi:namedview
     pagecolor="#ffffff"
     bordercolor="#666666"
     borderopacity="1"
     objecttolerance="10"
     gridtolerance="10"
     guidetolerance="10"
     inkscape:pageopacity="0"
     inkscape:pageshadow="2"
     inkscape:window-width="1364"
     inkscape:window-height="730"
     id="namedview8"
     showgrid="false"
     inkscape:zoom="0.20982284"
     inkscape:cx="-499.30377"
     inkscape:cy="441.63857"
     inkscape:window-x="0"
     inkscape:window-y="18"
     inkscape:window-maximized="0"
     inkscape:current-layer="layer3"
     inkscape:measure-start="186.958,-216.373"
     inkscape:measure-end="186.958,-156.795" />
  <g
     inkscape:groupmode="layer"
     id="layer3"
     inkscape:label="trace">
    <path
       style="color:#000000;font-style:normal;font-variant:normal;font-weight:normal;font-stretch:normal;font-size:medium;line-height:normal;font-family:sans-serif;font-variant-ligatures:normal;font-variant-position:normal;font-variant-caps:normal;font-variant-numeric:normal;font-variant-alternates:normal;font-feature-settings:normal;text-indent:0;text-align:start;text-decoration:none;text-decoration-line:none;text-decoration-style:solid;text-decoration-color:#000000;letter-spacing:normal;word-spacing:normal;text-transform:none;writing-mode:lr-tb;direction:ltr;text-orientation:mixed;dominant-baseline:auto;baseline-shift:baseline;text-anchor:start;white-space:normal;shape-padding:0;clip-rule:nonzero;display:inline;overflow:visible;visibility:visible;opacity:1;isolation:auto;mix-blend-mode:normal;color-interpolation:sRGB;color-interpolation-filters:linearRGB;solid-color:#000000;solid-opacity:1;vector-effect:none;fill:#000000;fill-opacity:1;fill-rule:evenodd;stroke:none;stroke-width:230;stroke-linecap:round;stroke-linejoin:round;stroke-miterlimit:4;stroke-dasharray:none;stroke-dashoffset:0;stroke-opacity:1;color-rendering:auto;image-rendering:auto;shape-rendering:auto;text-rendering:auto;enable-background:accumulate"
       d="M 731.42773 766.375 A 115.0115 115.0115 0 0 0 622.41406 850.61719 C 582.4828 829.32007 536.42001 816 484.23242 816 L 399.63477 816 C 274.43756 816 163.37369 902.80455 113.88672 1014.6953 C 64.399751 1126.5861 49.761719 1263.7683 49.761719 1432.2773 C 49.761719 1618.215 65.385641 1762.6946 122.69141 1878.6973 C 179.91765 1994.539 303.16047 2070.7501 433.44336 2068.9277 C 491.53733 2068.7087 542.37663 2053.469 586.41211 2029.918 C 578.81843 2059.2389 567.93141 2079.1782 556.4082 2092.1992 C 535.02906 2116.3574 504.48638 2131.2676 437.71484 2131.2676 C 303.04568 2131.2676 209.93164 2113.748 209.93164 2113.748 A 100.01 100.01 0 0 0 93.931641 2184.3965 A 115.0115 115.0115 0 0 0 159.33398 2373.2305 C 159.33398 2373.2305 254.14527 2391.4277 427.44531 2391.4277 A 115.0115 115.0115 0 0 0 432.04688 2391.3359 C 532.72007 2387.3054 646.87476 2364.9391 732.46484 2278.0312 C 817.4391 2191.7487 854.59647 2059.5884 848.16016 1885.8926 L 848.16016 1671.9062 A 115.0115 115.0115 0 0 0 848.16016 1651.9785 L 848.16016 883 A 115.0115 115.0115 0 0 0 731.42773 766.375 z M 439.57812 1051.998 C 491.90849 1051.998 528.94425 1067.4618 554.57812 1086.0547 C 562.66956 1097.1654 570.54294 1110.6276 578.70703 1126.5488 C 585.64653 1140.0819 591.77786 1154.5689 596.99414 1168.8086 L 596.99414 1686.2949 C 587.77911 1703.8797 576.34662 1723.6059 562.78906 1743.1504 C 552.3499 1758.1994 541.46778 1771.8679 530.32031 1783.8828 C 502.81956 1805.1868 469.34647 1821.9883 432.13477 1821.9883 C 401.02411 1821.9883 387.5569 1815.7373 375.35742 1806.293 C 363.15794 1796.8487 350.24523 1780.0346 338.62695 1749.7461 C 315.3904 1689.169 305.07812 1580.9191 305.07812 1456.7676 C 305.07812 1298.2854 318.98505 1180.321 343.64453 1119.8984 C 368.30401 1059.4759 375.89708 1051.998 439.57812 1051.998 z "
       transform="translate(0,-288)"
       id="path5829-3-3" />
  </g>
</svg>
