<?xml version="1.0" encoding="UTF-8" standalone="no"?>
<!--?xml version="1.0" encoding="UTF-8" standalone="no"?-->

<svg
   xmlns:dc="http://purl.org/dc/elements/1.1/"
   xmlns:cc="http://creativecommons.org/ns#"
   xmlns:rdf="http://www.w3.org/1999/02/22-rdf-syntax-ns#"
   xmlns:svg="http://www.w3.org/2000/svg"
   xmlns="http://www.w3.org/2000/svg"
   xmlns:sodipodi="http://sodipodi.sourceforge.net/DTD/sodipodi-0.dtd"
   xmlns:inkscape="http://www.inkscape.org/namespaces/inkscape"
   version="1.1"
   viewBox="0 -288 1112 2048"
   id="svg6"
   sodipodi:docname="J.svg"
   width="1112"
   height="2048"
   inkscape:version="0.92.1 r">
  <metadata
     id="metadata12">
    <rdf:rdf>
      <cc:work
         rdf:about="">
        <dc:format>image/svg+xml</dc:format>
        <dc:type
           rdf:resource="http://purl.org/dc/dcmitype/StillImage" />
        <dc:title />
      </cc:work>
    </rdf:rdf>
    <rdf:RDF>
      <cc:Work
         rdf:about="">
        <dc:format>image/svg+xml</dc:format>
        <dc:type
           rdf:resource="http://purl.org/dc/dcmitype/StillImage" />
      </cc:Work>
    </rdf:RDF>
  </metadata>
  <defs
     id="defs10" />
  <sodipodi:namedview
     pagecolor="#ffffff"
     bordercolor="#666666"
     borderopacity="1"
     objecttolerance="10"
     gridtolerance="10"
     guidetolerance="10"
     inkscape:pageopacity="0"
     inkscape:pageshadow="2"
     inkscape:window-width="1364"
     inkscape:window-height="730"
     id="namedview8"
     showgrid="false"
     inkscape:zoom="0.13890157"
     inkscape:cx="-1668.5048"
     inkscape:cy="486.64179"
     inkscape:window-x="0"
     inkscape:window-y="18"
     inkscape:window-maximized="0"
     inkscape:current-layer="layer3"
     inkscape:measure-start="120.108,85.841"
     inkscape:measure-end="120.108,197.642" />
  <g
     inkscape:groupmode="layer"
     id="layer3"
     inkscape:label="trace">
    <path
       style="color:#000000;font-style:normal;font-variant:normal;font-weight:normal;font-stretch:normal;font-size:medium;line-height:normal;font-family:sans-serif;font-variant-ligatures:normal;font-variant-position:normal;font-variant-caps:normal;font-variant-numeric:normal;font-variant-alternates:normal;font-feature-settings:normal;text-indent:0;text-align:start;text-decoration:none;text-decoration-line:none;text-decoration-style:solid;text-decoration-color:#000000;letter-spacing:normal;word-spacing:normal;text-transform:none;writing-mode:lr-tb;direction:ltr;text-orientation:mixed;dominant-baseline:auto;baseline-shift:baseline;text-anchor:start;white-space:normal;shape-padding:0;clip-rule:nonzero;display:inline;overflow:visible;visibility:visible;opacity:1;isolation:auto;mix-blend-mode:normal;color-interpolation:sRGB;color-interpolation-filters:linearRGB;solid-color:#000000;solid-opacity:1;vector-effect:none;fill:#000000;fill-opacity:1;fill-rule:evenodd;stroke:none;stroke-width:230;stroke-linecap:round;stroke-linejoin:round;stroke-miterlimit:4;stroke-dasharray:none;stroke-dashoffset:0;stroke-opacity:1;color-rendering:auto;image-rendering:auto;shape-rendering:auto;text-rendering:auto;enable-background:accumulate"
       d="M 891.22266 381.375 A 115.0115 115.0115 0 0 0 829.77539 400.41992 A 100.01 100.01 0 0 0 756.78906 498 L 756.78906 1529.4707 C 756.78906 1688.1745 716.03413 1762.9391 664.77539 1807.207 C 613.51665 1851.4749 536.43139 1871.2378 444.625 1873.0195 C 387.92361 1874.12 315.30144 1856.9847 258.75391 1837.9199 C 230.48014 1828.3875 206.08248 1818.6636 188.40234 1811.2617 C 179.56228 1807.5608 172.48679 1804.4784 166.79883 1802.0215 C 163.95485 1800.793 161.58994 1799.7637 158.51562 1798.5098 C 156.97848 1797.8828 155.40902 1797.2261 152.17188 1796.084 C 148.93472 1794.9419 158.35405 1790.1406 118 1790.1406 A 100.01 100.01 0 0 0 17.080078 1889.8457 A 115.0115 115.0115 0 0 0 86.371094 2058.291 C 86.267928 2058.0226 86.218001 2057.7607 86.03125 2057.6094 C 85.090512 2057.2707 84.612338 2057.1092 85.869141 2057.5156 C 85.936227 2057.5373 85.984911 2057.5718 86.03125 2057.6094 C 86.371076 2057.7317 86.563291 2057.798 87.048828 2057.9805 C 87.615652 2058.1934 89.451472 2058.9035 90.189453 2059.1855 A 115.0115 115.0115 0 0 0 108.56836 2061.9922 C 103.77705 2061.8356 98.726215 2061.7085 95.933594 2061.3887 C 99.618025 2062.8098 102.12869 2063.7804 107.32422 2065.7598 C 125.81999 2072.8062 152.49336 2082.6209 184.79102 2092.4844 C 249.38633 2112.2114 336.92625 2132.7542 436.01172 2133 A 115.0115 115.0115 0 0 0 440.89648 2132.9082 C 538.44963 2129.0025 681.5494 2112.4764 806.29688 2018.002 C 930.48592 1923.9504 1017.1805 1750.5599 1007.9551 1502.4473 L 1007.9551 498 A 115.0115 115.0115 0 0 0 891.22266 381.375 z "
       transform="translate(0,-288)"
       id="path5829-3-3" />
  </g>
</svg>
