<?xml version="1.0" encoding="UTF-8" standalone="no"?>
<!--?xml version="1.0" encoding="UTF-8" standalone="no"?-->

<svg
   xmlns:dc="http://purl.org/dc/elements/1.1/"
   xmlns:cc="http://creativecommons.org/ns#"
   xmlns:rdf="http://www.w3.org/1999/02/22-rdf-syntax-ns#"
   xmlns:svg="http://www.w3.org/2000/svg"
   xmlns="http://www.w3.org/2000/svg"
   xmlns:sodipodi="http://sodipodi.sourceforge.net/DTD/sodipodi-0.dtd"
   xmlns:inkscape="http://www.inkscape.org/namespaces/inkscape"
   version="1.1"
   viewBox="0 -288 1224 2048"
   id="svg6"
   sodipodi:docname="K.svg"
   width="1224"
   height="2048"
   inkscape:version="0.92.1 r">
  <metadata
     id="metadata12">
    <rdf:rdf>
      <cc:work
         rdf:about="">
        <dc:format>image/svg+xml</dc:format>
        <dc:type
           rdf:resource="http://purl.org/dc/dcmitype/StillImage" />
        <dc:title />
      </cc:work>
    </rdf:rdf>
    <rdf:RDF>
      <cc:Work
         rdf:about="">
        <dc:format>image/svg+xml</dc:format>
        <dc:type
           rdf:resource="http://purl.org/dc/dcmitype/StillImage" />
      </cc:Work>
    </rdf:RDF>
  </metadata>
  <defs
     id="defs10" />
  <sodipodi:namedview
     pagecolor="#ffffff"
     bordercolor="#666666"
     borderopacity="1"
     objecttolerance="10"
     gridtolerance="10"
     guidetolerance="10"
     inkscape:pageopacity="0"
     inkscape:pageshadow="2"
     inkscape:window-width="1364"
     inkscape:window-height="730"
     id="namedview8"
     showgrid="false"
     inkscape:zoom="0.12590923"
     inkscape:cx="-2015.6404"
     inkscape:cy="425.03623"
     inkscape:window-x="0"
     inkscape:window-y="18"
     inkscape:window-maximized="0"
     inkscape:current-layer="layer3"
     inkscape:measure-start="728.887,1159.89"
     inkscape:measure-end="796.441,1159.89" />
  <g
     inkscape:groupmode="layer"
     id="layer3"
     inkscape:label="trace"
     style="display:inline">
    <path
       style="color:#000000;font-style:normal;font-variant:normal;font-weight:normal;font-stretch:normal;font-size:medium;line-height:normal;font-family:sans-serif;font-variant-ligatures:normal;font-variant-position:normal;font-variant-caps:normal;font-variant-numeric:normal;font-variant-alternates:normal;font-feature-settings:normal;text-indent:0;text-align:start;text-decoration:none;text-decoration-line:none;text-decoration-style:solid;text-decoration-color:#000000;letter-spacing:normal;word-spacing:normal;text-transform:none;writing-mode:lr-tb;direction:ltr;text-orientation:mixed;dominant-baseline:auto;baseline-shift:baseline;text-anchor:start;white-space:normal;shape-padding:0;clip-rule:nonzero;display:inline;overflow:visible;visibility:visible;opacity:1;isolation:auto;mix-blend-mode:normal;color-interpolation:sRGB;color-interpolation-filters:linearRGB;solid-color:#000000;solid-opacity:1;vector-effect:none;fill:#000000;fill-opacity:1;fill-rule:evenodd;stroke:none;stroke-width:200;stroke-linecap:round;stroke-linejoin:round;stroke-miterlimit:4;stroke-dasharray:none;stroke-dashoffset:0;stroke-opacity:1;color-rendering:auto;image-rendering:auto;shape-rendering:auto;text-rendering:auto;enable-background:accumulate"
       d="M 212.99805 381.375 A 115.0115 115.0115 0 0 0 99.730469 498 L 99.730469 1343.8711 A 115.0115 115.0115 0 0 0 99.730469 1366.1465 L 99.730469 2048 A 115.0115 115.0115 0 0 0 276.70312 2146.3457 A 100.01 100.01 0 0 0 352.5 2048 L 352.5 1381.1719 C 373.82576 1359.673 400.20009 1332.9618 430.4668 1302.2285 C 440.36084 1292.182 451.71333 1280.6257 462.36328 1269.7969 C 513.07914 1359.4514 580.10875 1478.1849 647.23438 1597.8203 C 715.07448 1718.7291 782.91046 1840.377 833.53125 1932.8125 C 858.84164 1979.0302 879.89109 2018.0355 894.16992 2045.3594 C 901.30934 2059.0213 906.80963 2069.9023 909.84961 2076.252 C 909.87561 2076.306 909.86112 2076.28 909.88672 2076.334 A 100.01 100.01 0 0 0 997.05664 2148.7734 A 115.0115 115.0115 0 0 0 1169.6074 2048 C 1169.6074 2016.0258 1164.9118 2015.0023 1163.2617 2010.2012 C 1161.6116 2005.4001 1160.5848 2003.0867 1159.7266 2001.1055 C 1158.0102 1997.143 1156.9824 1995.1061 1155.9414 1993.0156 C 1153.8594 1988.8347 1151.9318 1985.2076 1149.5703 1980.8203 C 1144.8474 1972.0458 1138.6369 1960.84 1130.7969 1946.8633 C 1115.1168 1918.9099 1093.1055 1880.2533 1066.7148 1834.1973 C 1013.9336 1742.0851 943.74693 1620.5892 873.5625 1499.4238 C 768.44909 1317.9576 683.08557 1171.2018 636.92773 1091.8867 C 663.98148 1064.2618 691.41717 1036.2311 718.92188 1008.1094 C 823.56169 901.12219 928.03775 794.05083 1006.4395 713.4375 C 1045.6403 673.13084 1078.3036 639.45781 1101.3281 615.59375 C 1112.8404 603.66172 1121.9081 594.21959 1128.4082 587.38086 C 1131.6583 583.96149 1134.2043 581.26539 1136.5215 578.75586 C 1137.6801 577.50109 1138.679 576.42725 1140.4258 574.42773 C 1141.2992 573.42798 1142.2234 572.41857 1144.5684 569.44531 C 1145.7409 567.95868 1147.1646 566.27168 1150.3516 561.44531 C 1153.5386 556.61894 1169.4238 575.77769 1169.4238 498 A 115.0115 115.0115 0 0 0 1052.6914 381.375 A 115.0115 115.0115 0 0 0 996.56836 397.14453 A 100.01 100.01 0 0 0 923.32422 441.14062 C 918.34797 446.56084 910.93417 454.52047 901.16797 464.9043 C 880.84465 486.5129 851.45955 517.46947 816.17773 554.48438 C 745.6141 628.51416 651.36073 726.89866 557.09961 825.11523 C 503.64848 880.80931 451.60249 934.97853 402.43555 986.125 A 100.01 100.01 0 0 0 379.85938 1009.6016 C 370.34732 1019.4944 361.57896 1028.6107 352.5 1038.0508 L 352.5 498 A 100.01 100.01 0 0 0 276.98242 399.74023 A 115.0115 115.0115 0 0 0 212.99805 381.375 z M 915.48438 455.21289 A 100.01 100.01 0 0 0 907.10742 485.55469 C 907.02534 485.63942 906.95918 485.70809 906.87695 485.79297 C 908.16382 465.53325 912.45889 459.30625 915.48438 455.21289 z M 906.53711 2058.2129 A 100.01 100.01 0 0 0 909.26562 2073.748 C 908.25135 2071.466 907.09842 2067.169 906.53711 2058.2129 z "
       transform="translate(0,-288)"
       id="path5236-3-9-6" />
  </g>
</svg>
