<?xml version="1.0" encoding="UTF-8" standalone="no"?>
<!--?xml version="1.0" encoding="UTF-8" standalone="no"?-->

<svg
   xmlns:dc="http://purl.org/dc/elements/1.1/"
   xmlns:cc="http://creativecommons.org/ns#"
   xmlns:rdf="http://www.w3.org/1999/02/22-rdf-syntax-ns#"
   xmlns:svg="http://www.w3.org/2000/svg"
   xmlns="http://www.w3.org/2000/svg"
   xmlns:sodipodi="http://sodipodi.sourceforge.net/DTD/sodipodi-0.dtd"
   xmlns:inkscape="http://www.inkscape.org/namespaces/inkscape"
   version="1.1"
   viewBox="0 -288 1040 2048"
   id="svg6"
   sodipodi:docname="nine.svg"
   width="1040"
   height="2048"
   inkscape:version="0.92.1 r">
  <metadata
     id="metadata12">
    <rdf:rdf>
      <cc:work
         rdf:about="">
        <dc:format>image/svg+xml</dc:format>
        <dc:type
           rdf:resource="http://purl.org/dc/dcmitype/StillImage" />
        <dc:title />
      </cc:work>
    </rdf:rdf>
    <rdf:RDF>
      <cc:Work
         rdf:about="">
        <dc:format>image/svg+xml</dc:format>
        <dc:type
           rdf:resource="http://purl.org/dc/dcmitype/StillImage" />
      </cc:Work>
    </rdf:RDF>
  </metadata>
  <defs
     id="defs10" />
  <sodipodi:namedview
     pagecolor="#ffffff"
     bordercolor="#666666"
     borderopacity="1"
     objecttolerance="10"
     gridtolerance="10"
     guidetolerance="10"
     inkscape:pageopacity="0"
     inkscape:pageshadow="2"
     inkscape:window-width="1364"
     inkscape:window-height="730"
     id="namedview8"
     showgrid="false"
     inkscape:zoom="0.098646677"
     inkscape:cx="-1871.3617"
     inkscape:cy="276.95011"
     inkscape:window-x="0"
     inkscape:window-y="18"
     inkscape:window-maximized="0"
     inkscape:current-layer="layer3"
     showguides="true"
     inkscape:guide-bbox="true"
     inkscape:measure-start="513.27,-28.08"
     inkscape:measure-end="513.27,158.652">
    <sodipodi:guide
       position="1065.0344,577.42827"
       orientation="0,1"
       id="guide44"
       inkscape:locked="false" />
    <sodipodi:guide
       position="513.26958,889.05623"
       orientation="1,0"
       id="guide61"
       inkscape:locked="false" />
    <sodipodi:guide
       position="286.55127,7.1488883"
       orientation="1,0"
       id="guide48"
       inkscape:locked="false" />
    <sodipodi:guide
       position="852.93056,248.53885"
       orientation="0,1"
       id="guide50"
       inkscape:locked="false" />
    <sodipodi:guide
       position="1269.6161,908.44409"
       orientation="0,1"
       id="guide52"
       inkscape:locked="false" />
    <sodipodi:guide
       position="748.77593,1110.8423"
       orientation="1,0"
       id="guide54"
       inkscape:locked="false" />
    <sodipodi:guide
       position="469.83442,686.23119"
       orientation="1,0"
       id="guide51"
       inkscape:locked="false" />
    <sodipodi:guide
       position="553.6638,736.91872"
       orientation="1,0"
       id="guide53"
       inkscape:locked="false" />
    <sodipodi:guide
       position="741.98791,1528.4331"
       orientation="1,0"
       id="guide55"
       inkscape:locked="false" />
  </sodipodi:namedview>
  <g
     inkscape:groupmode="layer"
     id="layer3"
     inkscape:label="trace">
    <path
       style="color:#000000;font-style:normal;font-variant:normal;font-weight:normal;font-stretch:normal;font-size:medium;line-height:normal;font-family:sans-serif;font-variant-ligatures:normal;font-variant-position:normal;font-variant-caps:normal;font-variant-numeric:normal;font-variant-alternates:normal;font-feature-settings:normal;text-indent:0;text-align:start;text-decoration:none;text-decoration-line:none;text-decoration-style:solid;text-decoration-color:#000000;letter-spacing:normal;word-spacing:normal;text-transform:none;writing-mode:lr-tb;direction:ltr;text-orientation:mixed;dominant-baseline:auto;baseline-shift:baseline;text-anchor:start;white-space:normal;shape-padding:0;clip-rule:nonzero;display:inline;overflow:visible;visibility:visible;opacity:1;isolation:auto;mix-blend-mode:normal;color-interpolation:sRGB;color-interpolation-filters:linearRGB;solid-color:#000000;solid-opacity:1;vector-effect:none;fill:#000000;fill-opacity:1;fill-rule:evenodd;stroke:none;stroke-width:200;stroke-linecap:round;stroke-linejoin:round;stroke-miterlimit:4;stroke-dasharray:none;stroke-dashoffset:0;stroke-opacity:1;color-rendering:auto;image-rendering:auto;shape-rendering:auto;text-rendering:auto;enable-background:accumulate"
       d="M 546.10742 407.99023 C 544.89261 408.01502 544.50602 408.07571 540.58594 408.07031 C 532.74482 408.05951 522.51999 408.04942 512.29492 408.04102 C 491.84479 408.02432 472.0734 408.01367 470.20898 408.01367 C 342.21151 408.01367 225.2166 478.16772 158.77734 583.61914 C 92.338092 689.07056 64.908203 823.42614 64.908203 979.70703 C 64.908203 1136.7383 94.154585 1274.5307 162.38086 1382.8125 C 230.60713 1491.0943 349.48465 1565.4297 482.35352 1565.4297 C 513.87483 1565.4297 545.83477 1562.3857 577.49023 1556.1914 C 559.51207 1596.3124 540.76795 1634.6271 521.91211 1670.627 C 473.24414 1763.5445 424.34739 1841.0815 387.70312 1895.6562 C 369.38101 1922.9436 354.17111 1944.4331 343.27539 1959.6953 C 337.82753 1967.3264 333.53169 1973.2856 329.92188 1978.4258 C 328.11696 1980.9959 326.57554 1983.18 324.36133 1986.6074 C 323.25422 1988.3211 322.04113 1990.1262 319.73047 1994.3555 C 318.57514 1996.4701 317.12925 1999.0479 314.89258 2004.4414 C 312.6559 2009.8349 307.19141 2014.5304 307.19141 2043.0137 A 100.01 100.01 0 0 0 405.4375 2144.2246 A 115.0115 115.0115 0 0 0 566.27539 2093.9902 C 566.77597 2093.2533 567.42775 2092.2957 568.00977 2091.4414 C 567.69619 2091.6428 567.39143 2091.843 567.11719 2092.0293 A 115.0115 115.0115 0 0 0 577.25391 2051.3926 C 576.84227 2068.4109 575.32511 2078.1004 573.42188 2083.4883 C 573.66422 2083.1332 573.70564 2083.0698 573.95312 2082.707 C 584.65089 2067.0274 600.42593 2043.7504 619.26953 2014.3574 C 656.95673 1955.5715 707.17151 1871.9958 757.56836 1769.9219 C 858.36206 1565.774 961.44727 1287.0977 961.44727 979.70703 C 961.44727 825.02342 934.40251 691.46445 867.91016 586.17969 C 801.41814 480.89546 685.05397 410.83326 556.59961 408.12891 L 556.59766 408.12891 C 549.36527 407.97656 547.32224 407.96545 546.10742 407.99023 z M 512.0625 658.01367 C 587.63624 658.01367 623.05339 672.52827 654.20703 713.48828 C 685.36067 754.44829 713.80078 841.86878 713.80078 995.70703 C 713.80078 1063.8211 706.20972 1132.3239 693.22852 1199.7715 C 680.65708 1227.9931 665.90158 1250.0713 650.40039 1267.2832 C 623.49745 1297.1552 592.25831 1316.153 555.78125 1326.2969 C 542.51942 1328.1434 527.98684 1329.1836 512.0625 1329.1836 C 443.20977 1329.1836 407.61961 1310.6152 374.13477 1262.8809 C 340.64992 1215.1465 314.3125 1126.9356 314.3125 995.70703 C 314.3125 841.70235 342.47742 753.86591 373.16016 712.95898 C 403.84289 672.05206 437.84688 658.01367 512.0625 658.01367 z "
       transform="translate(0,-288)"
       id="path5546-1-6-6-0-9-4" />
  </g>
</svg>
