<?xml version="1.0" encoding="UTF-8" standalone="no"?>
<!--?xml version="1.0" encoding="UTF-8" standalone="no"?-->

<svg
   xmlns:dc="http://purl.org/dc/elements/1.1/"
   xmlns:cc="http://creativecommons.org/ns#"
   xmlns:rdf="http://www.w3.org/1999/02/22-rdf-syntax-ns#"
   xmlns:svg="http://www.w3.org/2000/svg"
   xmlns="http://www.w3.org/2000/svg"
   xmlns:sodipodi="http://sodipodi.sourceforge.net/DTD/sodipodi-0.dtd"
   xmlns:inkscape="http://www.inkscape.org/namespaces/inkscape"
   version="1.1"
   viewBox="0 -288 1448 2048"
   id="svg6"
   sodipodi:docname="Q.svg"
   width="1448"
   height="2048"
   inkscape:version="0.92.1 r">
  <metadata
     id="metadata12">
    <rdf:rdf>
      <cc:work
         rdf:about="">
        <dc:format>image/svg+xml</dc:format>
        <dc:type
           rdf:resource="http://purl.org/dc/dcmitype/StillImage" />
        <dc:title />
      </cc:work>
    </rdf:rdf>
    <rdf:RDF>
      <cc:Work
         rdf:about="">
        <dc:format>image/svg+xml</dc:format>
        <dc:type
           rdf:resource="http://purl.org/dc/dcmitype/StillImage" />
      </cc:Work>
    </rdf:RDF>
  </metadata>
  <defs
     id="defs10" />
  <sodipodi:namedview
     pagecolor="#ffffff"
     bordercolor="#666666"
     borderopacity="1"
     objecttolerance="10"
     gridtolerance="10"
     guidetolerance="10"
     inkscape:pageopacity="0"
     inkscape:pageshadow="2"
     inkscape:window-width="1364"
     inkscape:window-height="730"
     id="namedview8"
     showgrid="false"
     inkscape:zoom="0.063839862"
     inkscape:cx="-2191.572"
     inkscape:cy="-1403.041"
     inkscape:window-x="0"
     inkscape:window-y="18"
     inkscape:window-maximized="0"
     inkscape:current-layer="layer3"
     showguides="true"
     inkscape:guide-bbox="true"
     inkscape:measure-start="1179.37,-369.024"
     inkscape:measure-end="1179.37,-60.2488">
    <sodipodi:guide
       position="1149.8305,670.37288"
       orientation="1,0"
       id="guide969"
       inkscape:locked="false" />
    <sodipodi:guide
       position="373.24241,1370.8989"
       orientation="1,0"
       id="guide4555"
       inkscape:locked="false" />
    <sodipodi:guide
       position="347.07582,1457.8992"
       orientation="1,0"
       id="guide4557"
       inkscape:locked="false" />
    <sodipodi:guide
       position="201.10513,1171.3809"
       orientation="0,1"
       id="guide4559"
       inkscape:locked="false" />
    <sodipodi:guide
       position="720.3631,1549.8653"
       orientation="1,0"
       id="guide4561"
       inkscape:locked="false" />
  </sodipodi:namedview>
  <g
     inkscape:groupmode="layer"
     id="layer3"
     inkscape:label="trace"
     style="display:inline">
    <path
       style="color:#000000;font-style:normal;font-variant:normal;font-weight:normal;font-stretch:normal;font-size:medium;line-height:normal;font-family:sans-serif;font-variant-ligatures:normal;font-variant-position:normal;font-variant-caps:normal;font-variant-numeric:normal;font-variant-alternates:normal;font-feature-settings:normal;text-indent:0;text-align:start;text-decoration:none;text-decoration-line:none;text-decoration-style:solid;text-decoration-color:#000000;letter-spacing:normal;word-spacing:normal;text-transform:none;writing-mode:lr-tb;direction:ltr;text-orientation:mixed;dominant-baseline:auto;baseline-shift:baseline;text-anchor:start;white-space:normal;shape-padding:0;clip-rule:nonzero;display:inline;overflow:visible;visibility:visible;opacity:1;isolation:auto;mix-blend-mode:normal;color-interpolation:sRGB;color-interpolation-filters:linearRGB;solid-color:#000000;solid-opacity:1;vector-effect:none;fill:#000000;fill-opacity:1;fill-rule:evenodd;stroke:none;stroke-width:200;stroke-linecap:round;stroke-linejoin:round;stroke-miterlimit:4;stroke-dasharray:none;stroke-dashoffset:0;stroke-opacity:1;color-rendering:auto;image-rendering:auto;shape-rendering:auto;text-rendering:auto;enable-background:accumulate"
       d="M 676.98828 431.21094 C 483.405 431.21094 320.10853 542.20697 218.16406 698.79883 C 116.22051 855.38928 64.815377 1058.1138 64.814453 1276.3398 A 115.0115 115.0115 0 0 0 64.814453 1276.3438 L 64.814453 1276.3457 C 64.814734 1510.6731 114.97839 1716.731 223.59766 1872.377 C 330.47675 2025.5292 500.8487 2123.0987 700.31641 2128.9629 C 723.0078 2171.1525 749.62161 2208.7715 780.01172 2241.8691 C 893.76643 2365.7585 1052.1753 2413 1204.627 2413 A 115.0115 115.0115 0 0 0 1295.627 2225.8223 A 100.01 100.01 0 0 0 1204.627 2170 C 1116.0441 2170 1042.3916 2154.9603 983.77734 2118.1777 C 971.70992 2108.7169 960.2669 2098.1173 949.42773 2086.3125 C 949.34338 2086.2206 949.26009 2086.1253 949.17578 2086.0332 C 1056.3625 2043.2444 1147.4839 1970.5346 1214.2559 1876.2363 C 1324.7528 1720.1877 1375.7012 1512.6085 1375.7012 1276.3457 C 1375.7012 1058.1317 1324.3421 855.40902 1222.4141 698.80859 C 1120.486 542.20833 957.16655 431.21094 763.5293 431.21094 L 676.98828 431.21094 z M 720.97852 693.03906 C 862.74927 693.03906 948.8215 751.6904 1015.4609 856.45703 C 1082.1004 961.22367 1118.5605 1116.5952 1118.5605 1282.9004 C 1118.5605 1470.3505 1080.7256 1619.3596 1018.4473 1716.8164 C 974.02141 1786.3366 920.57781 1832.4073 849.42773 1856.3965 C 840.46239 1805.2768 835.36328 1746.0225 835.36328 1677.3594 A 115.0115 115.0115 0 0 0 718.63086 1560.7344 A 115.0115 115.0115 0 0 0 605.36328 1677.3594 C 605.36328 1744.4651 609.63351 1806.925 618.02344 1864.7969 C 537.55156 1845.3384 478.63203 1800.4633 429.94141 1730.4551 C 362.65912 1633.7155 321.23437 1480.4825 321.23438 1283.9004 C 321.23438 1117.1527 357.97157 961.62842 424.98633 856.73438 C 492.00109 751.84032 578.69593 693.03906 720.97852 693.03906 z "
       transform="translate(0,-288)"
       id="path144" />
  </g>
  <g
     inkscape:groupmode="layer"
     id="layer4"
     inkscape:label="trace2" />
  <g
     inkscape:groupmode="layer"
     id="layer5"
     inkscape:label="trace3" />
</svg>
