<?xml version="1.0" encoding="UTF-8" standalone="no"?>
<!--?xml version="1.0" encoding="UTF-8" standalone="no"?-->

<svg
   xmlns:dc="http://purl.org/dc/elements/1.1/"
   xmlns:cc="http://creativecommons.org/ns#"
   xmlns:rdf="http://www.w3.org/1999/02/22-rdf-syntax-ns#"
   xmlns:svg="http://www.w3.org/2000/svg"
   xmlns="http://www.w3.org/2000/svg"
   xmlns:sodipodi="http://sodipodi.sourceforge.net/DTD/sodipodi-0.dtd"
   xmlns:inkscape="http://www.inkscape.org/namespaces/inkscape"
   version="1.1"
   viewBox="0 -288 1016 2048"
   id="svg6"
   sodipodi:docname="q.svg"
   width="1016"
   height="2048"
   inkscape:version="0.92.1 r">
  <metadata
     id="metadata12">
    <rdf:rdf>
      <cc:work
         rdf:about="">
        <dc:format>image/svg+xml</dc:format>
        <dc:type
           rdf:resource="http://purl.org/dc/dcmitype/StillImage" />
        <dc:title />
      </cc:work>
    </rdf:rdf>
    <rdf:RDF>
      <cc:Work
         rdf:about="">
        <dc:format>image/svg+xml</dc:format>
        <dc:type
           rdf:resource="http://purl.org/dc/dcmitype/StillImage" />
      </cc:Work>
    </rdf:RDF>
  </metadata>
  <defs
     id="defs10" />
  <sodipodi:namedview
     pagecolor="#ffffff"
     bordercolor="#666666"
     borderopacity="1"
     objecttolerance="10"
     gridtolerance="10"
     guidetolerance="10"
     inkscape:pageopacity="0"
     inkscape:pageshadow="2"
     inkscape:window-width="1364"
     inkscape:window-height="730"
     id="namedview8"
     showgrid="false"
     inkscape:zoom="0.20982283"
     inkscape:cx="-269.24376"
     inkscape:cy="91.682273"
     inkscape:window-x="0"
     inkscape:window-y="18"
     inkscape:window-maximized="0"
     inkscape:current-layer="layer2" />
  <g
     inkscape:groupmode="layer"
     id="layer2"
     inkscape:label="trace">
    <path
       style="color:#000000;font-style:normal;font-variant:normal;font-weight:normal;font-stretch:normal;font-size:medium;line-height:normal;font-family:sans-serif;font-variant-ligatures:normal;font-variant-position:normal;font-variant-caps:normal;font-variant-numeric:normal;font-variant-alternates:normal;font-feature-settings:normal;text-indent:0;text-align:start;text-decoration:none;text-decoration-line:none;text-decoration-style:solid;text-decoration-color:#000000;letter-spacing:normal;word-spacing:normal;text-transform:none;writing-mode:lr-tb;direction:ltr;text-orientation:mixed;dominant-baseline:auto;baseline-shift:baseline;text-anchor:start;white-space:normal;shape-padding:0;clip-rule:nonzero;display:inline;overflow:visible;visibility:visible;opacity:1;isolation:auto;mix-blend-mode:normal;color-interpolation:sRGB;color-interpolation-filters:linearRGB;solid-color:#000000;solid-opacity:1;vector-effect:none;fill:#000000;fill-opacity:0.99708198;fill-rule:evenodd;stroke:none;stroke-width:200;stroke-linecap:round;stroke-linejoin:round;stroke-miterlimit:4;stroke-dasharray:none;stroke-dashoffset:0;stroke-opacity:1;color-rendering:auto;image-rendering:auto;shape-rendering:auto;text-rendering:auto;enable-background:accumulate"
       d="M 804.74805 766.375 A 115.0115 115.0115 0 0 0 692.17578 870.00195 C 643.89504 837.77988 586.23688 816 518.23242 816 L 433.63477 816 C 299.59924 816 190.70332 911.8681 133.51172 1030.2402 C 76.320113 1148.6124 51.761719 1297.2545 51.761719 1468.2773 C 51.761719 1657.2363 87.567498 1815.3194 162.11523 1935.3027 C 236.56772 2055.1327 361.7676 2134.9209 499.45898 2132.9746 C 563.80137 2132.7426 619.94534 2115.0875 668.05859 2088.7695 L 668.05859 2190.8926 L 668.05859 2333 A 100.01 100.01 0 0 0 744.67578 2431.5254 A 115.0115 115.0115 0 0 0 921.48047 2333 L 921.48047 2190.8926 L 921.48047 1759.9238 A 115.0115 115.0115 0 0 0 921.48047 1754.7637 L 921.48047 1253.457 A 115.0115 115.0115 0 0 0 921.56445 1249.4395 C 921.56445 1247.2432 921.53005 1245.179 921.48047 1243.1758 L 921.48047 1076.4961 L 921.48047 883 A 115.0115 115.0115 0 0 0 804.74805 766.375 z M 491.57812 1051.998 C 529.21677 1051.998 561.29248 1064.3087 587.67188 1081.332 C 603.57571 1095.9864 619.64256 1114.9349 634.81445 1137.752 C 647.63101 1157.0268 658.93577 1177.6137 668.05859 1196.6055 L 668.05859 1772.3516 C 659.37115 1786.108 648.9843 1801.1391 636.95117 1816.1484 C 634.4663 1819.2479 631.95326 1822.2887 629.41406 1825.2715 C 594.30676 1854.0622 545.30941 1883 490.13477 1883 C 429.80967 1883 399.69613 1860.8199 364.58203 1791.0605 C 329.46793 1721.3012 307.07814 1605.1131 307.07812 1466.7676 C 307.07812 1298.5272 332.1847 1184.4256 365.26562 1125.4746 C 398.34656 1066.5236 424.70455 1051.998 491.57812 1051.998 z "
       transform="translate(0,-288)"
       id="path5236-72-2" />
  </g>
</svg>
