<?xml version="1.0" encoding="UTF-8" standalone="no"?>
<!--?xml version="1.0" encoding="UTF-8" standalone="no"?-->

<svg
   xmlns:dc="http://purl.org/dc/elements/1.1/"
   xmlns:cc="http://creativecommons.org/ns#"
   xmlns:rdf="http://www.w3.org/1999/02/22-rdf-syntax-ns#"
   xmlns:svg="http://www.w3.org/2000/svg"
   xmlns="http://www.w3.org/2000/svg"
   xmlns:sodipodi="http://sodipodi.sourceforge.net/DTD/sodipodi-0.dtd"
   xmlns:inkscape="http://www.inkscape.org/namespaces/inkscape"
   version="1.1"
   viewBox="0 -288 1264 2048"
   id="svg6"
   sodipodi:docname="R.svg"
   width="1264"
   height="2048"
   inkscape:version="0.92.1 r">
  <metadata
     id="metadata12">
    <rdf:rdf>
      <cc:work
         rdf:about="">
        <dc:format>image/svg+xml</dc:format>
        <dc:type
           rdf:resource="http://purl.org/dc/dcmitype/StillImage" />
        <dc:title />
      </cc:work>
    </rdf:rdf>
    <rdf:RDF>
      <cc:Work
         rdf:about="">
        <dc:format>image/svg+xml</dc:format>
        <dc:type
           rdf:resource="http://purl.org/dc/dcmitype/StillImage" />
      </cc:Work>
    </rdf:RDF>
  </metadata>
  <defs
     id="defs10" />
  <sodipodi:namedview
     pagecolor="#ffffff"
     bordercolor="#666666"
     borderopacity="1"
     objecttolerance="10"
     gridtolerance="10"
     guidetolerance="10"
     inkscape:pageopacity="0"
     inkscape:pageshadow="2"
     inkscape:window-width="1364"
     inkscape:window-height="730"
     id="namedview8"
     showgrid="false"
     inkscape:zoom="0.13697548"
     inkscape:cx="-192.23864"
     inkscape:cy="1040.6564"
     inkscape:window-x="0"
     inkscape:window-y="18"
     inkscape:window-maximized="0"
     inkscape:current-layer="layer3"
     showguides="true"
     inkscape:guide-bbox="true"
     inkscape:measure-start="1047.03,3.8185"
     inkscape:measure-end="1138.68,3.8185">
    <sodipodi:guide
       position="751.69046,763.96296"
       orientation="1,0"
       id="guide844"
       inkscape:locked="false" />
  </sodipodi:namedview>
  <g
     inkscape:groupmode="layer"
     id="layer3"
     inkscape:label="traces"
     style="display:inline">
    <path
       style="color:#000000;font-style:normal;font-variant:normal;font-weight:normal;font-stretch:normal;font-size:medium;line-height:normal;font-family:sans-serif;font-variant-ligatures:normal;font-variant-position:normal;font-variant-caps:normal;font-variant-numeric:normal;font-variant-alternates:normal;font-feature-settings:normal;text-indent:0;text-align:start;text-decoration:none;text-decoration-line:none;text-decoration-style:solid;text-decoration-color:#000000;letter-spacing:normal;word-spacing:normal;text-transform:none;writing-mode:lr-tb;direction:ltr;text-orientation:mixed;dominant-baseline:auto;baseline-shift:baseline;text-anchor:start;white-space:normal;shape-padding:0;clip-rule:nonzero;display:inline;overflow:visible;visibility:visible;opacity:1;isolation:auto;mix-blend-mode:normal;color-interpolation:sRGB;color-interpolation-filters:linearRGB;solid-color:#000000;solid-opacity:1;vector-effect:none;fill:#000000;fill-opacity:1;fill-rule:evenodd;stroke:none;stroke-width:230;stroke-linecap:round;stroke-linejoin:round;stroke-miterlimit:4;stroke-dasharray:none;stroke-dashoffset:0;stroke-opacity:1;color-rendering:auto;image-rendering:auto;shape-rendering:auto;text-rendering:auto;enable-background:accumulate"
       d="M 212.13281 430.24023 A 115.0115 115.0115 0 0 0 97.132812 545.24023 L 97.132812 1204.7949 A 115.0115 115.0115 0 0 0 97.132812 1251.373 L 97.132812 2048 A 115.0115 115.0115 0 0 0 272.67188 2147.2539 A 100.01 100.01 0 0 0 352.12305 2048 L 352.12305 1343 L 564.43164 1343 C 608.25005 1421.7927 675.16613 1542.296 745.35938 1669.5547 C 802.59264 1773.3172 859.82221 1877.6329 902.52344 1956.7129 C 923.87405 1996.2529 941.63026 2029.5653 953.66016 2052.7812 C 959.38319 2063.8259 963.5997 2072.2302 966.18945 2077.5898 A 100.01 100.01 0 0 0 1064.3301 2149.3672 A 115.0115 115.0115 0 0 0 1235.5137 2047.7129 C 1235.5137 2019.9689 1231.3425 2016.4784 1229.6602 2011.3672 C 1227.9779 2006.256 1226.8636 2003.6888 1225.9453 2001.5352 C 1224.1088 1997.2279 1223.02 1995.0896 1221.9648 1992.9805 C 1219.8545 1988.7622 1218.0586 1985.4474 1215.9082 1981.5215 C 1211.6074 1973.6697 1206.1525 1964.056 1199.293 1952.127 C 1185.5739 1928.269 1166.4495 1895.5925 1143.5273 1856.7227 C 1097.683 1778.9829 1036.7881 1676.7148 975.89648 1574.7773 C 921.59728 1483.8762 868.85388 1395.8496 825.36133 1323.3301 C 886.52487 1310.016 946.52682 1288.7245 1002.3477 1255.9004 C 1119.7767 1186.849 1209.7168 1051.6976 1209.7168 880.96875 C 1209.7168 761.3495 1171.784 643.04766 1085.1211 558.32227 C 998.45813 473.59687 871.4022 430.24023 721.29688 430.24023 L 212.13281 430.24023 z M 352.12305 683 L 719.2207 683 C 809.54474 683 860.0126 710.83821 893.27344 745.60742 C 926.53427 780.37664 942.20314 827.26996 942.20312 867.28906 A 100.01 100.01 0 0 0 942.2207 869.16992 C 944.07428 967.61634 910.9366 1013.0552 855.51562 1050.5605 C 800.09464 1088.0658 714.79248 1108 634.65625 1108 L 634.58203 1108 L 618.86914 1108 A 100.01 100.01 0 0 0 600.63672 1106.6914 A 100.01 100.01 0 0 0 587.4082 1108 L 352.12305 1108 L 352.12305 683 z M 962.53906 2058.2344 A 100.01 100.01 0 0 0 965.76367 2075.8164 C 964.59974 2073.7407 963.16503 2069.3576 962.53906 2058.2344 z "
       transform="translate(0,-288)"
       id="path5236-7-72-2" />
  </g>
  <g
     inkscape:groupmode="layer"
     id="layer4"
     inkscape:label="traces 2"
     style="display:inline" />
</svg>
