<?xml version="1.0" encoding="UTF-8" standalone="no"?>
<!--?xml version="1.0" encoding="UTF-8" standalone="no"?-->

<svg
   xmlns:dc="http://purl.org/dc/elements/1.1/"
   xmlns:cc="http://creativecommons.org/ns#"
   xmlns:rdf="http://www.w3.org/1999/02/22-rdf-syntax-ns#"
   xmlns:svg="http://www.w3.org/2000/svg"
   xmlns="http://www.w3.org/2000/svg"
   xmlns:sodipodi="http://sodipodi.sourceforge.net/DTD/sodipodi-0.dtd"
   xmlns:inkscape="http://www.inkscape.org/namespaces/inkscape"
   version="1.1"
   viewBox="0 -288 1016 2048"
   id="svg6"
   sodipodi:docname="two.svg"
   width="1016"
   height="2048"
   inkscape:version="0.92.1 r">
  <metadata
     id="metadata12">
    <rdf:rdf>
      <cc:work
         rdf:about="">
        <dc:format>image/svg+xml</dc:format>
        <dc:type
           rdf:resource="http://purl.org/dc/dcmitype/StillImage" />
        <dc:title />
      </cc:work>
    </rdf:rdf>
    <rdf:RDF>
      <cc:Work
         rdf:about="">
        <dc:format>image/svg+xml</dc:format>
        <dc:type
           rdf:resource="http://purl.org/dc/dcmitype/StillImage" />
      </cc:Work>
    </rdf:RDF>
  </metadata>
  <defs
     id="defs10" />
  <sodipodi:namedview
     pagecolor="#ffffff"
     bordercolor="#666666"
     borderopacity="1"
     objecttolerance="10"
     gridtolerance="10"
     guidetolerance="10"
     inkscape:pageopacity="0"
     inkscape:pageshadow="2"
     inkscape:window-width="1364"
     inkscape:window-height="730"
     id="namedview8"
     showgrid="false"
     inkscape:zoom="0.10454805"
     inkscape:cx="-2115.0533"
     inkscape:cy="670.8299"
     inkscape:window-x="0"
     inkscape:window-y="18"
     inkscape:window-maximized="0"
     inkscape:current-layer="layer2"
     inkscape:measure-start="919.738,1129.44"
     inkscape:measure-end="1103.69,1114.72" />
  <g
     inkscape:groupmode="layer"
     id="layer2"
     inkscape:label="trace"
     style="display:inline">
    <path
       style="color:#000000;font-style:normal;font-variant:normal;font-weight:normal;font-stretch:normal;font-size:medium;line-height:normal;font-family:sans-serif;font-variant-ligatures:normal;font-variant-position:normal;font-variant-caps:normal;font-variant-numeric:normal;font-variant-alternates:normal;font-feature-settings:normal;text-indent:0;text-align:start;text-decoration:none;text-decoration-line:none;text-decoration-style:solid;text-decoration-color:#000000;letter-spacing:normal;word-spacing:normal;text-transform:none;writing-mode:lr-tb;direction:ltr;text-orientation:mixed;dominant-baseline:auto;baseline-shift:baseline;text-anchor:start;white-space:normal;shape-padding:0;clip-rule:nonzero;display:inline;overflow:visible;visibility:visible;opacity:1;isolation:auto;mix-blend-mode:normal;color-interpolation:sRGB;color-interpolation-filters:linearRGB;solid-color:#000000;solid-opacity:1;vector-effect:none;fill:#000000;fill-opacity:1;fill-rule:evenodd;stroke:none;stroke-width:230;stroke-linecap:round;stroke-linejoin:round;stroke-miterlimit:4;stroke-dasharray:none;stroke-dashoffset:0;stroke-opacity:1;color-rendering:auto;image-rendering:auto;shape-rendering:auto;text-rendering:auto;enable-background:accumulate"
       d="M 451.45508 433 C 245.702 433 83.896484 636.19182 83.896484 903.11133 A 115.0115 115.0115 0 0 0 257.98438 1003.2832 A 100.01 100.01 0 0 0 342.95312 903.11133 C 342.95312 847.27097 358.3593 779.73443 386.58984 736.16016 C 414.82039 692.58588 444.79661 668 516.09961 668 C 567.28667 668 609.40065 678.99707 635.81641 701.51562 C 662.23217 724.0342 688.01172 763.7295 688.01172 867.89258 C 688.01172 935.29065 675.07669 994.10355 653.8457 1047.8594 C 613.05592 1122.2434 551.52243 1202.6128 474.53711 1299.7266 C 407.25094 1384.6052 312.13553 1491.3567 231.25391 1607.7363 C 150.37229 1724.116 77.580078 1851.4522 77.580078 1998 A 115.0115 115.0115 0 0 0 192.58008 2113 L 871.44336 2113 A 115.0115 115.0115 0 0 0 970.73828 1937.5273 A 100.01 100.01 0 0 0 871.47266 1858 L 365.09375 1858 C 371.258 1832.314 379.84244 1807.8627 390.66016 1783.7637 C 399.84176 1768.9894 409.67011 1754.0339 420.12109 1738.9961 C 489.99003 1638.4625 580.91319 1535.779 654.77344 1442.6074 C 800.23823 1259.1098 939.74414 1089.0994 939.74414 857.33398 A 115.0115 115.0115 0 0 0 939.72266 855.11133 C 937.22051 725.61769 895.12152 616.80208 823.78906 542.71875 C 752.4566 468.63542 655.9541 433 562.81445 433 L 451.45508 433 z "
       transform="translate(0,-288)"
       id="path5546-0-3-9" />
  </g>
</svg>
