<?xml version="1.0" encoding="UTF-8" standalone="no"?>
<!--?xml version="1.0" encoding="UTF-8" standalone="no"?-->

<svg
   xmlns:dc="http://purl.org/dc/elements/1.1/"
   xmlns:cc="http://creativecommons.org/ns#"
   xmlns:rdf="http://www.w3.org/1999/02/22-rdf-syntax-ns#"
   xmlns:svg="http://www.w3.org/2000/svg"
   xmlns="http://www.w3.org/2000/svg"
   xmlns:sodipodi="http://sodipodi.sourceforge.net/DTD/sodipodi-0.dtd"
   xmlns:inkscape="http://www.inkscape.org/namespaces/inkscape"
   version="1.1"
   viewBox="0 -288 976 2048"
   id="svg6"
   sodipodi:docname="v.svg"
   width="976"
   height="2048"
   inkscape:version="0.92.1 r">
  <metadata
     id="metadata12">
    <rdf:rdf>
      <cc:work
         rdf:about="">
        <dc:format>image/svg+xml</dc:format>
        <dc:type
           rdf:resource="http://purl.org/dc/dcmitype/StillImage" />
        <dc:title />
      </cc:work>
    </rdf:rdf>
    <rdf:RDF>
      <cc:Work
         rdf:about="">
        <dc:format>image/svg+xml</dc:format>
        <dc:type
           rdf:resource="http://purl.org/dc/dcmitype/StillImage" />
      </cc:Work>
    </rdf:RDF>
  </metadata>
  <defs
     id="defs10" />
  <sodipodi:namedview
     pagecolor="#ffffff"
     bordercolor="#666666"
     borderopacity="1"
     objecttolerance="10"
     gridtolerance="10"
     guidetolerance="10"
     inkscape:pageopacity="0"
     inkscape:pageshadow="2"
     inkscape:window-width="1364"
     inkscape:window-height="730"
     id="namedview8"
     showgrid="false"
     inkscape:zoom="0.38574252"
     inkscape:cx="-499.79248"
     inkscape:cy="1018.7312"
     inkscape:window-x="0"
     inkscape:window-y="18"
     inkscape:window-maximized="0"
     inkscape:current-layer="layer3"
     inkscape:measure-start="108.932,1160.18"
     inkscape:measure-end="190.719,1160.18" />
  <g
     inkscape:groupmode="layer"
     id="layer3"
     inkscape:label="trace">
    <path
       style="color:#000000;font-style:normal;font-variant:normal;font-weight:normal;font-stretch:normal;font-size:medium;line-height:normal;font-family:sans-serif;font-variant-ligatures:normal;font-variant-position:normal;font-variant-caps:normal;font-variant-numeric:normal;font-variant-alternates:normal;font-feature-settings:normal;text-indent:0;text-align:start;text-decoration:none;text-decoration-line:none;text-decoration-style:solid;text-decoration-color:#000000;letter-spacing:normal;word-spacing:normal;text-transform:none;writing-mode:lr-tb;direction:ltr;text-orientation:mixed;dominant-baseline:auto;baseline-shift:baseline;text-anchor:start;white-space:normal;shape-padding:0;clip-rule:nonzero;display:inline;overflow:visible;visibility:visible;opacity:1;isolation:auto;mix-blend-mode:normal;color-interpolation:sRGB;color-interpolation-filters:linearRGB;solid-color:#000000;solid-opacity:1;vector-effect:none;fill:#050000;fill-opacity:1;fill-rule:evenodd;stroke:none;stroke-width:230;stroke-linecap:round;stroke-linejoin:round;stroke-miterlimit:4;stroke-dasharray:none;stroke-dashoffset:0;stroke-opacity:1;color-rendering:auto;image-rendering:auto;shape-rendering:auto;text-rendering:auto;enable-background:accumulate"
       d="M 120.12305 766.37305 A 115.0115 115.0115 0 0 0 120.00781 766.375 A 115.0115 115.0115 0 0 0 6.7402344 883 C 6.7402344 912.82392 8.9432486 905.77804 9.5664062 908.66602 C 10.189564 911.55399 10.647979 913.39111 11.136719 915.33984 C 12.114197 919.23731 13.166558 923.17452 14.480469 927.98828 C 17.108291 937.6158 20.703259 950.3727 25.25 966.29492 C 34.343482 998.13936 47.186879 1042.3845 62.589844 1095.0781 C 93.395773 1200.4653 134.39749 1339.4878 175.39844 1478.0938 C 257.40033 1755.3057 339.38477 2030.8008 339.38477 2030.8008 A 115.0115 115.0115 0 0 0 449.60742 2113 L 522.88672 2113 A 115.0115 115.0115 0 0 0 633.10938 2030.8008 C 633.10938 2030.8008 715.09384 1755.3057 797.0957 1478.0938 C 838.09664 1339.4878 879.09838 1200.4653 909.9043 1095.0781 C 925.30726 1042.3845 938.15066 998.13936 947.24414 966.29492 C 951.79088 950.3727 955.3839 937.6158 958.01172 927.98828 C 959.32563 923.17452 960.37994 919.23731 961.35742 915.33984 C 961.84616 913.39111 962.30458 911.55399 962.92773 908.66602 C 963.55089 905.77804 965.75195 912.82391 965.75195 883 A 115.0115 115.0115 0 0 0 793.91602 782.08984 A 100.01 100.01 0 0 0 703.56836 865.94141 C 703.61786 866.52164 703.6836 867.18515 703.64258 867.37891 C 703.58838 867.63508 703.30069 868.83767 703.19922 869.29297 A 100.01 100.01 0 0 0 702.33984 883 C 702.33984 877.76096 702.42924 875.10003 702.51172 872.25977 C 702.21635 873.53385 702.12884 873.98374 701.72461 875.66406 C 699.75691 883.84348 696.60226 896.37234 692.55078 912.0625 C 684.44783 943.44283 672.705 987.7564 658.60156 1040.3711 C 630.39469 1145.6005 592.69902 1284.2237 555.00195 1422.1797 C 529.94002 1513.8962 508.36993 1592.3371 486.07422 1673.5352 C 463.85888 1592.9438 442.41673 1515.3033 417.47461 1424.2617 C 379.78352 1286.685 342.09388 1148.2632 313.9082 1042.8457 C 299.81537 990.13695 288.08538 945.62258 280.01562 913.98828 C 275.98075 898.17113 272.84738 885.49579 270.91992 877.24609 C 270.4317 875.15644 270.30201 874.48628 269.98633 873.05664 C 270.07513 875.46924 270.1543 878.28062 270.1543 883 A 100.01 100.01 0 0 0 269.50977 870.91797 C 269.41207 870.45945 269.12522 869.2218 269.07617 868.97656 C 269.04367 868.81413 269.09765 868.44261 269.12695 868.11523 A 100.01 100.01 0 0 0 179.63281 782.16016 A 115.0115 115.0115 0 0 0 120.12305 766.37305 z "
       transform="translate(0,-288)"
       id="path5109-6" />
  </g>
</svg>
