<?xml version="1.0" encoding="UTF-8" standalone="no"?>
<!--?xml version="1.0" encoding="UTF-8" standalone="no"?-->

<svg
   xmlns:dc="http://purl.org/dc/elements/1.1/"
   xmlns:cc="http://creativecommons.org/ns#"
   xmlns:rdf="http://www.w3.org/1999/02/22-rdf-syntax-ns#"
   xmlns:svg="http://www.w3.org/2000/svg"
   xmlns="http://www.w3.org/2000/svg"
   xmlns:sodipodi="http://sodipodi.sourceforge.net/DTD/sodipodi-0.dtd"
   xmlns:inkscape="http://www.inkscape.org/namespaces/inkscape"
   version="1.1"
   viewBox="0 -288 1328 2048"
   id="svg6"
   sodipodi:docname="w.svg"
   width="1328"
   height="2048"
   inkscape:version="0.92.1 r">
  <metadata
     id="metadata12">
    <rdf:rdf>
      <cc:work
         rdf:about="">
        <dc:format>image/svg+xml</dc:format>
        <dc:type
           rdf:resource="http://purl.org/dc/dcmitype/StillImage" />
        <dc:title />
      </cc:work>
    </rdf:rdf>
    <rdf:RDF>
      <cc:Work
         rdf:about="">
        <dc:format>image/svg+xml</dc:format>
        <dc:type
           rdf:resource="http://purl.org/dc/dcmitype/StillImage" />
      </cc:Work>
    </rdf:RDF>
  </metadata>
  <defs
     id="defs10" />
  <sodipodi:namedview
     pagecolor="#ffffff"
     bordercolor="#666666"
     borderopacity="1"
     objecttolerance="10"
     gridtolerance="10"
     guidetolerance="10"
     inkscape:pageopacity="0"
     inkscape:pageshadow="2"
     inkscape:window-width="1364"
     inkscape:window-height="730"
     id="namedview8"
     showgrid="false"
     inkscape:zoom="0.16140723"
     inkscape:cx="40.172304"
     inkscape:cy="555.37285"
     inkscape:window-x="0"
     inkscape:window-y="18"
     inkscape:window-maximized="0"
     inkscape:current-layer="layer3"
     inkscape:measure-start="108.932,1160.18"
     inkscape:measure-end="190.719,1160.18"
     showguides="true"
     inkscape:guide-bbox="true">
    <sodipodi:guide
       position="368.1212,1267.685"
       orientation="0,1"
       id="guide4527"
       inkscape:locked="false" />
  </sodipodi:namedview>
  <g
     inkscape:groupmode="layer"
     id="layer3"
     inkscape:label="trace">
    <path
       style="color:#000000;font-style:normal;font-variant:normal;font-weight:normal;font-stretch:normal;font-size:medium;line-height:normal;font-family:sans-serif;font-variant-ligatures:normal;font-variant-position:normal;font-variant-caps:normal;font-variant-numeric:normal;font-variant-alternates:normal;font-feature-settings:normal;text-indent:0;text-align:start;text-decoration:none;text-decoration-line:none;text-decoration-style:solid;text-decoration-color:#000000;letter-spacing:normal;word-spacing:normal;text-transform:none;writing-mode:lr-tb;direction:ltr;text-orientation:mixed;dominant-baseline:auto;baseline-shift:baseline;text-anchor:start;white-space:normal;shape-padding:0;clip-rule:nonzero;display:inline;overflow:visible;visibility:visible;opacity:1;isolation:auto;mix-blend-mode:normal;color-interpolation:sRGB;color-interpolation-filters:linearRGB;solid-color:#000000;solid-opacity:1;vector-effect:none;fill:#050000;fill-opacity:1;fill-rule:evenodd;stroke:none;stroke-width:230;stroke-linecap:round;stroke-linejoin:round;stroke-miterlimit:4;stroke-dasharray:none;stroke-dashoffset:0;stroke-opacity:1;color-rendering:auto;image-rendering:auto;shape-rendering:auto;text-rendering:auto;enable-background:accumulate"
       d="M 120.00781 766.375 A 115.0115 115.0115 0 0 0 6.7402344 883 C 6.7402344 903.63644 7.9041612 900.51448 8.5214844 904.81445 C 9.1388075 909.11442 9.8434229 913.49703 10.708984 918.68945 C 12.440108 929.0743 14.79885 942.42632 17.775391 958.84375 C 23.728472 991.67861 32.115008 1036.5138 42.169922 1089.543 C 62.27975 1195.6013 89.030031 1334.2552 115.7793 1472.0977 C 169.27782 1747.7826 222.76172 2020.1582 222.76172 2020.1582 A 115.0115 115.0115 0 0 0 335.60742 2113 L 462.88672 2113 A 115.0115 115.0115 0 0 0 576.44141 2016.1738 L 667.29492 1448.502 L 758.04883 2016.1543 A 115.0115 115.0115 0 0 0 871.60742 2113 L 998.88672 2113 A 115.0115 115.0115 0 0 0 1111.7051 2020.293 C 1111.7051 2020.293 1165.1938 1749.6103 1218.7012 1474.7383 C 1245.4549 1337.3023 1272.2109 1198.8387 1292.3359 1092.377 C 1302.3985 1039.1461 1310.794 993.96949 1316.7695 960.53125 C 1319.7573 943.81213 1322.1317 930.09577 1323.8867 919.20117 C 1325.6418 908.30658 1327.752 916.37855 1327.752 883 A 115.0115 115.0115 0 0 0 1154.1895 782.49414 A 100.01 100.01 0 0 0 1064.5195 875.69336 C 1064.5195 876.16756 1064.5733 876.37028 1064.5293 876.75781 C 1064.5183 876.85131 1064.4749 877.16467 1064.4629 877.26758 A 100.01 100.01 0 0 0 1064.3398 883 C 1064.3398 878.73913 1064.4028 878.45345 1064.4531 877.32031 C 1064.233 879.13277 1063.8468 882.12115 1063.2773 886.21289 C 1062.0663 894.914 1060.1753 907.73599 1057.752 923.68359 C 1052.9052 955.57881 1045.9062 1000.1682 1037.5 1052.9473 C 1020.6876 1158.5054 998.22972 1296.9629 975.77148 1434.5762 C 957.77384 1544.857 954.88145 1561.8692 939.77148 1653.8027 L 839.36719 919.45312 A 100.01 100.01 0 0 0 761.96289 835.44727 A 115.0115 115.0115 0 0 0 701.33789 818 L 633.33398 818 A 115.0115 115.0115 0 0 0 572.77148 835.41016 A 100.01 100.01 0 0 0 495.18359 919.44922 L 395.36328 1649.2344 C 380.27785 1558.4509 377.52643 1542.4723 359.69336 1434.4023 C 336.98534 1296.7898 314.27833 1158.331 297.2793 1052.7754 C 288.77978 999.99758 281.70268 955.41008 276.80273 923.51953 C 274.35276 907.57425 272.4421 894.75566 271.21875 886.0625 C 270.64583 881.9913 270.25917 879.03277 270.03711 877.22656 C 270.08861 878.37407 270.1543 878.6762 270.1543 883 A 100.01 100.01 0 0 0 179.41406 782.04297 A 115.0115 115.0115 0 0 0 120.00781 766.375 z "
       transform="translate(0,-288)"
       id="path5109-6-3" />
  </g>
</svg>
