<?xml version="1.0" encoding="UTF-8" standalone="no"?>
<!--?xml version="1.0" encoding="UTF-8" standalone="no"?-->

<svg
   xmlns:dc="http://purl.org/dc/elements/1.1/"
   xmlns:cc="http://creativecommons.org/ns#"
   xmlns:rdf="http://www.w3.org/1999/02/22-rdf-syntax-ns#"
   xmlns:svg="http://www.w3.org/2000/svg"
   xmlns="http://www.w3.org/2000/svg"
   xmlns:sodipodi="http://sodipodi.sourceforge.net/DTD/sodipodi-0.dtd"
   xmlns:inkscape="http://www.inkscape.org/namespaces/inkscape"
   version="1.1"
   viewBox="0 -288 976 2048"
   id="svg6"
   sodipodi:docname="y.svg"
   width="976"
   height="2048"
   inkscape:version="0.92.1 r">
  <metadata
     id="metadata12">
    <rdf:rdf>
      <cc:work
         rdf:about="">
        <dc:format>image/svg+xml</dc:format>
        <dc:type
           rdf:resource="http://purl.org/dc/dcmitype/StillImage" />
        <dc:title />
      </cc:work>
    </rdf:rdf>
    <rdf:RDF>
      <cc:Work
         rdf:about="">
        <dc:format>image/svg+xml</dc:format>
        <dc:type
           rdf:resource="http://purl.org/dc/dcmitype/StillImage" />
      </cc:Work>
    </rdf:RDF>
  </metadata>
  <defs
     id="defs10" />
  <sodipodi:namedview
     pagecolor="#ffffff"
     bordercolor="#666666"
     borderopacity="1"
     objecttolerance="10"
     gridtolerance="10"
     guidetolerance="10"
     inkscape:pageopacity="0"
     inkscape:pageshadow="2"
     inkscape:window-width="1364"
     inkscape:window-height="730"
     id="namedview8"
     showgrid="false"
     inkscape:zoom="0.16140723"
     inkscape:cx="-586.37869"
     inkscape:cy="1144.0251"
     inkscape:window-x="0"
     inkscape:window-y="18"
     inkscape:window-maximized="0"
     inkscape:current-layer="layer3"
     inkscape:measure-start="505.188,-278.807"
     inkscape:measure-end="188.254,-278.807"
     showguides="true"
     inkscape:guide-bbox="true">
    <sodipodi:guide
       position="842.77032,1176.6247"
       orientation="1,0"
       id="guide4527"
       inkscape:locked="false" />
    <sodipodi:guide
       position="137.32824,1138.2237"
       orientation="1,0"
       id="guide4520"
       inkscape:locked="false" />
    <sodipodi:guide
       position="170.08397,1161.5454"
       orientation="1,0"
       id="guide4522"
       inkscape:locked="false" />
    <sodipodi:guide
       position="505.1881,1241.5236"
       orientation="1,0"
       id="guide4524"
       inkscape:locked="false" />
    <sodipodi:guide
       position="824.20725,1164.9709"
       orientation="0,1"
       id="guide4526"
       inkscape:locked="false" />
  </sodipodi:namedview>
  <g
     inkscape:groupmode="layer"
     id="layer3"
     inkscape:label="trace">
    <path
       style="color:#000000;font-style:normal;font-variant:normal;font-weight:normal;font-stretch:normal;font-size:medium;line-height:normal;font-family:sans-serif;font-variant-ligatures:normal;font-variant-position:normal;font-variant-caps:normal;font-variant-numeric:normal;font-variant-alternates:normal;font-feature-settings:normal;text-indent:0;text-align:start;text-decoration:none;text-decoration-line:none;text-decoration-style:solid;text-decoration-color:#000000;letter-spacing:normal;word-spacing:normal;text-transform:none;writing-mode:lr-tb;direction:ltr;text-orientation:mixed;dominant-baseline:auto;baseline-shift:baseline;text-anchor:start;white-space:normal;shape-padding:0;clip-rule:nonzero;display:inline;overflow:visible;visibility:visible;opacity:1;isolation:auto;mix-blend-mode:normal;color-interpolation:sRGB;color-interpolation-filters:linearRGB;solid-color:#000000;solid-opacity:1;vector-effect:none;fill:#050000;fill-opacity:1;fill-rule:evenodd;stroke:none;stroke-width:200;stroke-linecap:round;stroke-linejoin:round;stroke-miterlimit:4;stroke-dasharray:none;stroke-dashoffset:0;stroke-opacity:1;color-rendering:auto;image-rendering:auto;shape-rendering:auto;text-rendering:auto;enable-background:accumulate"
       d="M 131.50586 766.375 A 115.0115 115.0115 0 0 0 18.238281 883 C 18.238281 916.42393 22.061584 913.36656 23.5 918.33008 C 24.938416 923.2936 26.150497 926.83871 27.474609 930.63672 C 30.122834 938.23273 33.169856 946.30415 36.953125 956.06055 C 44.519664 975.57334 54.885172 1001.2518 67.652344 1032.3789 C 93.186687 1094.6331 128.18839 1178.2643 167 1270.6309 C 239.0177 1442.0237 324.10921 1643.4001 384.55469 1790.0352 C 375.48627 1815.5928 366.66319 1840.4764 357.94141 1865.0859 C 338.54254 1909.2086 316.50133 1959.3981 293.06641 2012.9551 C 263.03023 2081.5981 232.99228 2150.5323 210.33789 2203.1758 C 199.01069 2229.4975 189.55383 2251.6881 182.70117 2268.1387 C 179.27484 2276.3639 176.53124 2283.0573 174.27734 2288.8145 C 173.15039 2291.693 172.17597 2294.209 170.98633 2297.6133 C 170.39151 2299.3154 169.75262 2301.1244 168.77148 2304.5352 C 167.79034 2307.946 164.70117 2305.7432 164.70117 2333 A 100.01 100.01 0 0 0 261.11328 2434.1094 A 115.0115 115.0115 0 0 0 429.70312 2358.2109 C 429.58504 2358.2759 429.46107 2358.3585 429.39062 2358.5156 C 429.51594 2358.0987 429.92942 2356.8135 430.12891 2356.168 A 115.0115 115.0115 0 0 0 432.07031 2341.4629 C 431.94574 2345.879 431.78693 2349.5105 431.5332 2351.709 C 431.88921 2350.5938 431.93714 2350.3876 432.35742 2349.0938 C 435.71135 2338.7686 441.04959 2322.9075 447.88672 2302.9551 C 461.56098 2263.0503 481.33404 2206.4332 505.08008 2138.9629 C 552.57216 2004.0222 616.01676 1825.46 679.47461 1646.8301 C 742.93245 1468.2002 806.40352 1289.5048 854.10156 1153.8672 C 877.95058 1086.0484 897.83938 1029.0471 911.93555 987.82617 C 918.98363 967.21569 924.55835 950.63949 928.65234 937.98242 C 930.69934 931.65389 932.35052 926.42596 933.87891 921.18555 C 934.6431 918.56534 935.36776 916.05543 936.29883 912.23438 C 937.22989 908.41332 939.93555 911.70547 939.93555 883 A 115.0115 115.0115 0 0 0 823.20312 766.375 A 115.0115 115.0115 0 0 0 767.58203 781.81055 A 100.01 100.01 0 0 0 674.09766 864.02148 C 674.19096 863.96828 674.27583 863.88851 674.33203 863.75586 C 674.19219 864.29764 673.9127 865.33402 673.64062 866.35352 A 100.01 100.01 0 0 0 672.61914 875.97852 C 672.69744 873.05529 672.78755 870.53658 672.93359 868.99414 C 671.19615 875.33016 668.4417 885.04828 664.88281 897.38086 C 657.69164 922.30033 647.26806 957.74868 634.75 999.9668 C 609.71388 1084.403 576.25654 1196.0755 542.79883 1307.3633 C 526.97762 1359.9881 511.33961 1411.9094 496.54883 1460.9766 C 491.98212 1450.0975 487.32738 1439.0468 482.72461 1428.0918 C 453.80728 1347.7638 424.63953 1266.1259 397.80078 1190.4375 C 365.01496 1097.9776 335.70761 1014.4571 314.70703 953.61133 C 304.20674 923.18844 295.76414 898.37387 290.13477 881.36328 C 288.10208 875.22101 286.94092 871.53225 285.73438 867.72656 C 285.91958 871.4403 286.08398 875.69687 286.08398 883 A 100.01 100.01 0 0 0 284.46484 863.79492 C 284.37564 863.50725 284.12069 862.74027 284.04102 862.48047 C 283.46866 860.61425 283.12679 859.36944 283.27734 859.93164 C 283.29374 859.99304 283.42664 859.6341 283.49609 859.46484 A 100.01 100.01 0 0 0 190.2832 781.68359 A 115.0115 115.0115 0 0 0 131.50586 766.375 z "
       transform="translate(0,-288)"
       id="path5109-6" />
  </g>
</svg>
