<?xml version="1.0" encoding="UTF-8" standalone="no"?>
<!--?xml version="1.0" encoding="UTF-8" standalone="no"?-->

<svg
   xmlns:dc="http://purl.org/dc/elements/1.1/"
   xmlns:cc="http://creativecommons.org/ns#"
   xmlns:rdf="http://www.w3.org/1999/02/22-rdf-syntax-ns#"
   xmlns:svg="http://www.w3.org/2000/svg"
   xmlns="http://www.w3.org/2000/svg"
   xmlns:sodipodi="http://sodipodi.sourceforge.net/DTD/sodipodi-0.dtd"
   xmlns:inkscape="http://www.inkscape.org/namespaces/inkscape"
   version="1.1"
   viewBox="0 -288 1208 2048"
   id="svg6"
   sodipodi:docname="Y.svg"
   width="1208"
   height="2048"
   inkscape:version="0.92.1 r">
  <metadata
     id="metadata12">
    <rdf:rdf>
      <cc:work
         rdf:about="">
        <dc:format>image/svg+xml</dc:format>
        <dc:type
           rdf:resource="http://purl.org/dc/dcmitype/StillImage" />
        <dc:title />
      </cc:work>
    </rdf:rdf>
    <rdf:RDF>
      <cc:Work
         rdf:about="">
        <dc:format>image/svg+xml</dc:format>
        <dc:type
           rdf:resource="http://purl.org/dc/dcmitype/StillImage" />
      </cc:Work>
    </rdf:RDF>
  </metadata>
  <defs
     id="defs10" />
  <sodipodi:namedview
     pagecolor="#ffffff"
     bordercolor="#666666"
     borderopacity="1"
     objecttolerance="10"
     gridtolerance="10"
     guidetolerance="10"
     inkscape:pageopacity="0"
     inkscape:pageshadow="2"
     inkscape:window-width="1364"
     inkscape:window-height="730"
     id="namedview8"
     showgrid="false"
     inkscape:zoom="0.19287127"
     inkscape:cx="-104.87293"
     inkscape:cy="1793.9213"
     inkscape:window-x="0"
     inkscape:window-y="18"
     inkscape:window-maximized="0"
     inkscape:current-layer="layer3"
     inkscape:measure-start="997.664,1544.09"
     inkscape:measure-end="1082.98,1544.09"
     showguides="true"
     inkscape:guide-bbox="true">
    <sodipodi:guide
       position="744.02015,547.6602"
       orientation="1,0"
       id="guide3860"
       inkscape:locked="false" />
    <sodipodi:guide
       position="750.5399,497.41965"
       orientation="0,1"
       id="guide893"
       inkscape:locked="false" />
    <sodipodi:guide
       position="200.94286,1516.5898"
       orientation="0,1"
       id="guide209"
       inkscape:locked="false" />
  </sodipodi:namedview>
  <g
     inkscape:groupmode="layer"
     id="layer3"
     inkscape:label="trace">
    <path
       style="color:#000000;font-style:normal;font-variant:normal;font-weight:normal;font-stretch:normal;font-size:medium;line-height:normal;font-family:sans-serif;font-variant-ligatures:normal;font-variant-position:normal;font-variant-caps:normal;font-variant-numeric:normal;font-variant-alternates:normal;font-feature-settings:normal;text-indent:0;text-align:start;text-decoration:none;text-decoration-line:none;text-decoration-style:solid;text-decoration-color:#000000;letter-spacing:normal;word-spacing:normal;text-transform:none;writing-mode:lr-tb;direction:ltr;text-orientation:mixed;dominant-baseline:auto;baseline-shift:baseline;text-anchor:start;white-space:normal;shape-padding:0;clip-rule:nonzero;display:inline;overflow:visible;visibility:visible;opacity:1;isolation:auto;mix-blend-mode:normal;color-interpolation:sRGB;color-interpolation-filters:linearRGB;solid-color:#000000;solid-opacity:1;vector-effect:none;fill:#000000;fill-opacity:1;fill-rule:evenodd;stroke:none;stroke-width:230;stroke-linecap:round;stroke-linejoin:round;stroke-miterlimit:4;stroke-dasharray:none;stroke-dashoffset:0;stroke-opacity:1;color-rendering:auto;image-rendering:auto;shape-rendering:auto;text-rendering:auto;enable-background:accumulate"
       d="M 203.125 381.375 A 115.0115 115.0115 0 0 0 147.30859 396.84961 A 100.01 100.01 0 0 0 52.835938 498 C 52.835937 525.29295 56.901014 527.9465 58.970703 534.31836 C 61.040392 540.69022 62.99479 545.65244 65.158203 550.9375 C 69.485029 561.50762 74.643462 572.88528 80.978516 586.34766 C 93.648623 613.2724 110.86481 647.90081 131.42969 688.33398 C 172.55944 769.20033 226.88947 872.7692 281.20703 975.24805 C 308.5513 1026.8374 335.86885 1078.0989 361.46875 1125.9883 C 413.51925 1236.6879 454.19121 1322.413 471.5 1358.8418 L 471.5 2048 A 115.0115 115.0115 0 0 0 648.67383 2146.2168 A 100.01 100.01 0 0 0 724 2048 L 724 1389.1758 A 115.0115 115.0115 0 0 0 727.63672 1382.4531 C 727.63672 1382.4531 783.33307 1265.5096 852.18359 1119.0879 C 876.81054 1072.9699 902.88165 1024.0082 929.0332 974.65039 C 983.37557 872.0859 1037.7272 768.48108 1078.8594 687.73047 C 1099.4255 647.35516 1116.6384 612.81645 1129.2871 586.06641 C 1135.6115 572.69139 1140.7536 561.42172 1145.0586 551.01172 C 1147.2111 545.80672 1149.1494 540.94297 1151.2207 534.67773 C 1153.2921 528.4125 1157.5195 526.50402 1157.5195 498 A 100.01 100.01 0 0 0 1062.1055 397.15039 A 115.0115 115.0115 0 0 0 893.03711 472.98438 C 893.32741 472.49158 893.58022 472.15628 893.74805 471.84961 C 894.0423 470.97147 894.17936 470.54246 893.9082 471.48242 C 893.87304 471.60432 893.81586 471.72569 893.74805 471.84961 C 893.57603 472.36296 893.40456 472.882 893.08594 473.76172 C 893.01054 473.96994 892.72325 474.65764 892.64062 474.88281 A 115.0115 115.0115 0 0 0 890.78906 488.78906 C 891.02555 483.24868 891.37687 479.14643 891.84766 476.88086 C 889.93298 482.00218 887.14008 489.20804 882.89062 499.44141 C 873.21671 522.73776 858.57443 556.23274 840.91406 595.64648 C 805.59332 674.47398 758.02049 777.50868 710.4375 879.50586 C 672.18552 961.50142 637.29187 1035.4209 605.19727 1103.4062 C 573.09622 1035.3787 538.18796 961.39688 499.92383 879.35352 C 452.33911 777.3256 404.7639 674.2732 369.4375 595.45312 C 351.7743 556.04309 337.12874 522.55852 327.44727 499.27148 C 323.21088 489.08163 320.43502 481.93147 318.51172 476.80273 C 319.22338 480.26146 319.85742 486.09077 319.85742 498 A 115.0115 115.0115 0 0 0 317.91211 475.29883 C 317.78076 474.94383 317.35118 473.91391 317.23633 473.59766 C 316.91792 472.7209 316.74749 472.2041 316.57422 471.68945 C 316.5023 471.55701 316.44251 471.4298 316.40625 471.30469 C 316.13425 470.36628 316.27579 470.80308 316.57422 471.68945 C 316.76195 472.03519 317.05328 472.4293 317.38086 473.00977 A 115.0115 115.0115 0 0 0 203.125 381.375 z "
       transform="translate(0,-288)"
       id="path5236-7-72-2-3" />
  </g>
</svg>
