<?xml version="1.0" encoding="UTF-8" standalone="no"?>
<svg
   xmlns:dc="http://purl.org/dc/elements/1.1/"
   xmlns:cc="http://creativecommons.org/ns#"
   xmlns:rdf="http://www.w3.org/1999/02/22-rdf-syntax-ns#"
   xmlns:svg="http://www.w3.org/2000/svg"
   xmlns="http://www.w3.org/2000/svg"
   xmlns:sodipodi="http://sodipodi.sourceforge.net/DTD/sodipodi-0.dtd"
   xmlns:inkscape="http://www.inkscape.org/namespaces/inkscape"
   version="1.1"
   viewBox="0 -288 1232 2048"
   id="svg6"
   sodipodi:docname="S.svg"
   width="1232"
   height="2048"
   inkscape:version="0.92.1 r">
  <metadata
     id="metadata12">
    <rdf:RDF>
      <cc:Work
         rdf:about="">
        <dc:format>image/svg+xml</dc:format>
        <dc:type
           rdf:resource="http://purl.org/dc/dcmitype/StillImage" />
        <dc:title />
      </cc:Work>
    </rdf:RDF>
  </metadata>
  <defs
     id="defs10" />
  <sodipodi:namedview
     pagecolor="#ffffff"
     bordercolor="#666666"
     borderopacity="1"
     objecttolerance="10"
     gridtolerance="10"
     guidetolerance="10"
     inkscape:pageopacity="0"
     inkscape:pageshadow="2"
     inkscape:window-width="1918"
     inkscape:window-height="1042"
     id="namedview8"
     showgrid="false"
     inkscape:zoom="0.27659662"
     inkscape:cx="379.44215"
     inkscape:cy="879.73441"
     inkscape:window-x="0"
     inkscape:window-y="18"
     inkscape:window-maximized="0"
     inkscape:current-layer="layer3"
     inkscape:measure-start="885.766,394.076"
     inkscape:measure-end="1348.53,394.076"
     showguides="false">
    <sodipodi:guide
       position="186.77207,501.25482"
       orientation="0,1"
       id="guide895"
       inkscape:locked="false" />
  </sodipodi:namedview>
  <g
     inkscape:groupmode="layer"
     id="layer1"
     inkscape:label="guides"
     style="display:none">
    <g
       style="display:inline"
       id="g4590">
      <path
         inkscape:connector-curvature="0"
         id="path824-3"
         d="M -357.86483,1779.351 H 508.54161 1342.7327"
         style="display:inline;fill:none;fill-rule:evenodd;stroke:#ff0000;stroke-width:1.29807782px;stroke-linecap:butt;stroke-linejoin:miter;stroke-opacity:1"
         sodipodi:nodetypes="ccc" />
      <path
         inkscape:connector-curvature="0"
         id="path824-3-6"
         d="M -357.86483,1759.351 H 1342.7327"
         style="display:inline;fill:none;fill-rule:evenodd;stroke:#0000ff;stroke-width:1.29807782px;stroke-linecap:butt;stroke-linejoin:miter;stroke-opacity:1" />
      <path
         inkscape:connector-curvature="0"
         id="path824-3-6-7"
         d="m -357.86483,594.35096 1700.59753,-10e-6"
         style="display:inline;fill:none;fill-rule:evenodd;stroke:#0000ff;stroke-width:1.29807782px;stroke-linecap:butt;stroke-linejoin:miter;stroke-opacity:1" />
      <path
         inkscape:connector-curvature="0"
         id="path824-3-6-7-3-6"
         d="m -357.86483,134.35096 1700.59753,-10e-6"
         style="display:inline;fill:none;fill-rule:evenodd;stroke:#0000ff;stroke-width:1.29807782px;stroke-linecap:butt;stroke-linejoin:miter;stroke-opacity:1" />
      <path
         inkscape:connector-curvature="0"
         id="path824-3-6-7-3-6-3"
         d="m -357.86483,209.35096 1700.00003,-10e-6"
         style="display:inline;fill:none;fill-rule:evenodd;stroke:#00ff00;stroke-width:1.29807782px;stroke-linecap:butt;stroke-linejoin:miter;stroke-opacity:1" />
      <text
         id="text5148"
         y="202.15987"
         x="-158.00842"
         style="font-style:normal;font-weight:normal;font-size:40px;line-height:10.66666698px;font-family:sans-serif;letter-spacing:0px;word-spacing:0px;fill:#000000;fill-opacity:1;stroke:none;stroke-width:1px;stroke-linecap:butt;stroke-linejoin:miter;stroke-opacity:1"
         xml:space="preserve"><tspan
           style="font-size:26.66666603px;fill:#00ff00"
           y="202.15987"
           x="-158.00842"
           id="tspan5146"
           sodipodi:role="line">1550</tspan></text>
      <text
         id="text5148-5"
         y="126.15987"
         x="-158.00842"
         style="font-style:normal;font-weight:normal;font-size:40px;line-height:10.66666698px;font-family:sans-serif;letter-spacing:0px;word-spacing:0px;fill:#0000ff;fill-opacity:1;stroke:none;stroke-width:1px;stroke-linecap:butt;stroke-linejoin:miter;stroke-opacity:1"
         xml:space="preserve"><tspan
           style="font-size:26.66666603px;fill:#0000ff"
           y="126.15987"
           x="-158.00842"
           id="tspan5146-3"
           sodipodi:role="line">1625</tspan></text>
      <text
         id="text5148-5-5"
         y="586.15985"
         x="-158.00842"
         style="font-style:normal;font-weight:normal;font-size:40px;line-height:10.66666698px;font-family:sans-serif;letter-spacing:0px;word-spacing:0px;fill:#0000ff;fill-opacity:1;stroke:none;stroke-width:1px;stroke-linecap:butt;stroke-linejoin:miter;stroke-opacity:1"
         xml:space="preserve"><tspan
           style="font-size:26.66666603px;fill:#0000ff"
           y="586.15985"
           x="-158.00842"
           id="tspan5146-3-6"
           sodipodi:role="line">1165</tspan></text>
      <path
         inkscape:connector-curvature="0"
         id="path824-3-6-7-3-6-3-1"
         d="m -357.86483,259.35096 1700.00003,-10e-6"
         style="display:inline;fill:none;fill-rule:evenodd;stroke:#999999;stroke-width:1.29807782px;stroke-linecap:butt;stroke-linejoin:miter;stroke-opacity:1" />
      <text
         id="text5148-2"
         y="254.15985"
         x="-158.00842"
         style="font-style:normal;font-weight:normal;font-size:40px;line-height:10.66666698px;font-family:sans-serif;letter-spacing:0px;word-spacing:0px;fill:#000000;fill-opacity:1;stroke:none;stroke-width:1px;stroke-linecap:butt;stroke-linejoin:miter;stroke-opacity:1"
         xml:space="preserve"><tspan
           style="font-size:26.66666603px;fill:#999999"
           y="254.15985"
           x="-158.00842"
           id="tspan5146-7"
           sodipodi:role="line">1550</tspan></text>
      <path
         inkscape:connector-curvature="0"
         id="path824-3-6-7-3-6-3-1-0"
         d="m -357.86483,1709.351 1700.00003,-1e-4"
         style="display:inline;fill:none;fill-rule:evenodd;stroke:#999999;stroke-width:1.29807782px;stroke-linecap:butt;stroke-linejoin:miter;stroke-opacity:1" />
      <text
         id="text5148-2-9"
         y="1704.1598"
         x="-128.00842"
         style="font-style:normal;font-weight:normal;font-size:40px;line-height:10.66666698px;font-family:sans-serif;letter-spacing:0px;word-spacing:0px;fill:#000000;fill-opacity:1;stroke:none;stroke-width:1px;stroke-linecap:butt;stroke-linejoin:miter;stroke-opacity:1"
         xml:space="preserve"><tspan
           style="font-size:26.66666603px;fill:#999999"
           y="1704.1598"
           x="-128.00842"
           id="tspan5146-7-3"
           sodipodi:role="line">50</tspan></text>
      <text
         id="text5148-2-9-6"
         y="1752.1598"
         x="-112.00842"
         style="font-style:normal;font-weight:normal;font-size:40px;line-height:10.66666698px;font-family:sans-serif;letter-spacing:0px;word-spacing:0px;fill:#000000;fill-opacity:1;stroke:none;stroke-width:1px;stroke-linecap:butt;stroke-linejoin:miter;stroke-opacity:1"
         xml:space="preserve"><tspan
           style="font-size:26.66666603px;fill:#0000ff"
           y="1752.1598"
           x="-112.00842"
           id="tspan5146-7-3-0"
           sodipodi:role="line">0</tspan></text>
    </g>
  </g>
  <g
     inkscape:groupmode="layer"
     id="layer2"
     inkscape:label="model"
     style="display:none"
     sodipodi:insensitive="true">
    <g
       transform="matrix(1,0,0,-1,0,1760)"
       id="g4"
       sodipodi:insensitive="true">
      <path
         d="m 120,440 h 152 q 24,-120 112,-208 88,-88 232,-88 136,0 240,60 104,60 104,180 0,160 -124,228 -124,68 -188,84 l -112,32 q -88,32 -180,68 -92,36 -164,116 -72,80 -72,224 0,200 140,308 140,108 268,108 h 120 q 176,0 308,-128 132,-128 140,-328 H 936 q -24,176 -124,248 -100,72 -220,72 -128,0 -224,-68 -96,-68 -96,-212 0,-136 112,-196 112,-60 176,-76 l 120,-40 q 72,-16 188,-72 116,-56 176,-140 60,-84 60,-228 Q 1104,184 964,92 824,0 616,0 392,0 260,132 128,264 120,440 Z"
         id="path2"
         inkscape:connector-curvature="0"
         style="fill:#ac9393" />
    </g>
  </g>
  <g
     inkscape:groupmode="layer"
     id="layer3"
     inkscape:label="trace"
     style="display:inline">
    <path
       sodipodi:nodetypes="ccccsccc"
       inkscape:connector-curvature="0"
       id="path5848-2-90-2-3"
       d="m 227.12722,1320 c 0,95.8473 74.32324,365 409.18869,365 244.25747,5.963 366.61279,-123.2452 366.61279,-299.1701 2.456,-204.1759 -100.87217,-324.6525 -329.16795,-383.4349 L 554.77022,967.73991 C 396.78208,921.72706 222.78052,854.77026 222.78052,608.8836 222.78052,423.60952 389.20626,290 593.19943,290 874.76755,295.08423 983.09694,498.42739 984,664"
       style="display:inline;fill:none;fill-rule:evenodd;stroke:#010000;stroke-width:100;stroke-linecap:butt;stroke-linejoin:miter;stroke-miterlimit:4;stroke-dasharray:none;stroke-opacity:1"
       class="int" />
    <path
       sodipodi:nodetypes="cccccccsc"
       inkscape:connector-curvature="0"
       id="path5848-2-9-9-9-6"
       d="m 171.40247,1320 c 0,180.9799 131.63824,410 422.11497,410 262.97581,0 453.94596,-90.5338 453.94596,-351.1561 0,-242.8783 -158.2016,-317.3261 -331.24908,-363.694 L 549.356,966.18733 C 363.72348,916.98536 190.77954,862.2952 183.66696,592.97678 183.66658,339.54449 423.1538,260.05481 528.0647,260.05481 l 115.75648,-0.10963 C 843.57715,259.756 1045.2809,422.67521 1046.5992,663.98347"
       style="display:inline;fill:none;fill-rule:evenodd;stroke:#010000;stroke-width:100;stroke-linecap:butt;stroke-linejoin:round;stroke-miterlimit:4;stroke-dasharray:none;stroke-opacity:1"
       class="ext" />
  </g>
</svg>
