<?xml version="1.0" encoding="UTF-8" standalone="no"?>
<!--?xml version="1.0" encoding="UTF-8" standalone="no"?-->

<svg
   xmlns:dc="http://purl.org/dc/elements/1.1/"
   xmlns:cc="http://creativecommons.org/ns#"
   xmlns:rdf="http://www.w3.org/1999/02/22-rdf-syntax-ns#"
   xmlns:svg="http://www.w3.org/2000/svg"
   xmlns="http://www.w3.org/2000/svg"
   xmlns:sodipodi="http://sodipodi.sourceforge.net/DTD/sodipodi-0.dtd"
   xmlns:inkscape="http://www.inkscape.org/namespaces/inkscape"
   version="1.1"
   viewBox="0 -288 1024 2048"
   id="svg6"
   sodipodi:docname="c.svg"
   width="1024"
   height="2048"
   inkscape:version="0.92.1 r">
  <metadata
     id="metadata12">
    <rdf:rdf>
      <cc:work
         rdf:about="">
        <dc:format>image/svg+xml</dc:format>
        <dc:type
           rdf:resource="http://purl.org/dc/dcmitype/StillImage" />
        <dc:title />
      </cc:work>
    </rdf:rdf>
    <rdf:RDF>
      <cc:Work
         rdf:about="">
        <dc:format>image/svg+xml</dc:format>
        <dc:type
           rdf:resource="http://purl.org/dc/dcmitype/StillImage" />
      </cc:Work>
    </rdf:RDF>
  </metadata>
  <defs
     id="defs10" />
  <sodipodi:namedview
     pagecolor="#ffffff"
     bordercolor="#666666"
     borderopacity="1"
     objecttolerance="10"
     gridtolerance="10"
     guidetolerance="10"
     inkscape:pageopacity="0"
     inkscape:pageshadow="2"
     inkscape:window-width="1364"
     inkscape:window-height="730"
     id="namedview8"
     showgrid="false"
     inkscape:zoom="0.2282643"
     inkscape:cx="468.69905"
     inkscape:cy="372.14943"
     inkscape:window-x="0"
     inkscape:window-y="18"
     inkscape:window-maximized="0"
     inkscape:current-layer="layer3"
     inkscape:measure-start="812.669,393.487"
     inkscape:measure-end="881.319,393.487"
     showguides="true"
     inkscape:guide-bbox="true">
    <sodipodi:guide
       position="532.61017,1118.1017"
       orientation="1,0"
       id="guide5888"
       inkscape:locked="false" />
    <sodipodi:guide
       position="820.72326,678.05548"
       orientation="1,0"
       id="guide5890"
       inkscape:locked="false" />
    <sodipodi:guide
       position="262.86142,886.3148"
       orientation="0,1"
       id="guide47"
       inkscape:locked="false" />
  </sodipodi:namedview>
  <g
     inkscape:groupmode="layer"
     id="layer3"
     inkscape:label="trace"
     style="display:inline">
    <path
       style="color:#000000;font-style:normal;font-variant:normal;font-weight:normal;font-stretch:normal;font-size:medium;line-height:normal;font-family:sans-serif;font-variant-ligatures:normal;font-variant-position:normal;font-variant-caps:normal;font-variant-numeric:normal;font-variant-alternates:normal;font-feature-settings:normal;text-indent:0;text-align:start;text-decoration:none;text-decoration-line:none;text-decoration-style:solid;text-decoration-color:#000000;letter-spacing:normal;word-spacing:normal;text-transform:none;writing-mode:lr-tb;direction:ltr;text-orientation:mixed;dominant-baseline:auto;baseline-shift:baseline;text-anchor:start;white-space:normal;shape-padding:0;clip-rule:nonzero;display:inline;overflow:visible;visibility:visible;opacity:1;isolation:auto;mix-blend-mode:normal;color-interpolation:sRGB;color-interpolation-filters:linearRGB;solid-color:#000000;solid-opacity:1;vector-effect:none;fill:#000000;fill-opacity:1;fill-rule:evenodd;stroke:none;stroke-width:230;stroke-linecap:round;stroke-linejoin:round;stroke-miterlimit:4;stroke-dasharray:none;stroke-dashoffset:0;stroke-opacity:1;color-rendering:auto;image-rendering:auto;shape-rendering:auto;text-rendering:auto;enable-background:accumulate"
       d="M 490.85938 818.00586 C 353.14688 818.00586 231.71292 902.52609 161.23828 1022.7363 C 90.763639 1142.9466 57.761719 1298.7937 57.761719 1482.2832 C 57.761719 1675.2313 103.15786 1834.0889 187.38867 1949.9043 C 271.52649 2065.5918 400.0116 2134.9354 534.73047 2132.9844 C 708.47659 2132.5277 838.88282 2044.8273 904.65234 1940.2949 C 970.59378 1835.4893 984.65625 1723.7695 984.65625 1643.0059 A 115.0115 115.0115 0 0 0 811.57227 1542.1953 A 100.01 100.01 0 0 0 722.42969 1643 C 722.42969 1724.5341 697.83194 1790.8206 663.17383 1833.6875 C 628.51572 1876.5544 587.23781 1898 533.32617 1898 C 451.72611 1898 413.56915 1869.0601 374.82422 1796.7422 C 336.07929 1724.4243 313.07813 1605.5522 313.07812 1466.8848 C 313.07812 1314.9717 340.39245 1203.2724 379.15625 1139.7812 C 417.92005 1076.2901 456.96141 1053 532.80273 1053 C 606.94007 1053 644.3915 1075.9566 673.62305 1112.4082 C 702.85459 1148.8598 721.08789 1206.1481 721.08789 1271.5117 A 100.01 100.01 0 0 0 813.18164 1372.5957 A 115.0115 115.0115 0 0 0 984.1582 1270.6191 C 984.1582 1158.7169 953.85835 1048.8735 884.59375 962.10156 C 815.32915 875.32964 703.04579 818.00586 575.45898 818.00586 L 490.85938 818.00586 z "
       transform="translate(0,-288)"
       id="path5546-0-3-2-5-5" />
  </g>
</svg>
