<?xml version="1.0" encoding="UTF-8" standalone="no"?>
<!--?xml version="1.0" encoding="UTF-8" standalone="no"?-->

<svg
   xmlns:dc="http://purl.org/dc/elements/1.1/"
   xmlns:cc="http://creativecommons.org/ns#"
   xmlns:rdf="http://www.w3.org/1999/02/22-rdf-syntax-ns#"
   xmlns:svg="http://www.w3.org/2000/svg"
   xmlns="http://www.w3.org/2000/svg"
   xmlns:sodipodi="http://sodipodi.sourceforge.net/DTD/sodipodi-0.dtd"
   xmlns:inkscape="http://www.inkscape.org/namespaces/inkscape"
   version="1.1"
   viewBox="0 -288 1024 2048"
   id="svg6"
   sodipodi:docname="egrave.svg"
   width="1024"
   height="2048"
   inkscape:version="0.92.1 r">
  <metadata
     id="metadata12">
    <rdf:rdf>
      <cc:work
         rdf:about="">
        <dc:format>image/svg+xml</dc:format>
        <dc:type
           rdf:resource="http://purl.org/dc/dcmitype/StillImage" />
        <dc:title />
      </cc:work>
    </rdf:rdf>
    <rdf:RDF>
      <cc:Work
         rdf:about="">
        <dc:format>image/svg+xml</dc:format>
        <dc:type
           rdf:resource="http://purl.org/dc/dcmitype/StillImage" />
      </cc:Work>
    </rdf:RDF>
  </metadata>
  <defs
     id="defs10" />
  <sodipodi:namedview
     pagecolor="#ffffff"
     bordercolor="#666666"
     borderopacity="1"
     objecttolerance="10"
     gridtolerance="10"
     guidetolerance="10"
     inkscape:pageopacity="0"
     inkscape:pageshadow="2"
     inkscape:window-width="1364"
     inkscape:window-height="730"
     id="namedview8"
     showgrid="false"
     inkscape:zoom="0.22048467"
     inkscape:cx="1161.9634"
     inkscape:cy="1421.4557"
     inkscape:window-x="0"
     inkscape:window-y="18"
     inkscape:window-maximized="0"
     inkscape:current-layer="svg6"
     inkscape:measure-start="1198.87,818.422"
     inkscape:measure-end="1198.77,818.326"
     showguides="true"
     inkscape:guide-bbox="true">
    <sodipodi:guide
       position="860.20339,725.69492"
       orientation="0,1"
       id="guide880"
       inkscape:locked="false" />
    <sodipodi:guide
       position="514.29434,1188.8982"
       orientation="1,0"
       id="guide882"
       inkscape:locked="false" />
    <sodipodi:guide
       position="557.55932,10.847458"
       orientation="1,0"
       id="guide884"
       inkscape:locked="false" />
    <sodipodi:guide
       position="938.84605,960.32292"
       orientation="0,1"
       id="guide886"
       inkscape:locked="false" />
    <sodipodi:guide
       position="465.58787,1166.079"
       orientation="0,1"
       id="guide888"
       inkscape:locked="false" />
    <sodipodi:guide
       position="1153.6271,1046.7797"
       orientation="0,1"
       id="guide890"
       inkscape:locked="false" />
    <sodipodi:guide
       position="1700.6673,960.32292"
       orientation="0,1"
       id="guide4458"
       inkscape:locked="false" />
    <sodipodi:guide
       position="1499.3458,920.82408"
       orientation="0,1"
       id="guide4460"
       inkscape:locked="false" />
    <sodipodi:guide
       position="1500.5794,901.08773"
       orientation="0,1"
       id="guide4462"
       inkscape:locked="false" />
  </sodipodi:namedview>
  <g
     inkscape:groupmode="layer"
     id="layer2"
     inkscape:label="trace"
     style="display:inline">
    <path
       style="color:#000000;font-style:normal;font-variant:normal;font-weight:normal;font-stretch:normal;font-size:medium;line-height:normal;font-family:sans-serif;font-variant-ligatures:normal;font-variant-position:normal;font-variant-caps:normal;font-variant-numeric:normal;font-variant-alternates:normal;font-feature-settings:normal;text-indent:0;text-align:start;text-decoration:none;text-decoration-line:none;text-decoration-style:solid;text-decoration-color:#000000;letter-spacing:normal;word-spacing:normal;text-transform:none;writing-mode:lr-tb;direction:ltr;text-orientation:mixed;dominant-baseline:auto;baseline-shift:baseline;text-anchor:start;white-space:normal;shape-padding:0;clip-rule:nonzero;display:inline;overflow:visible;visibility:visible;opacity:1;isolation:auto;mix-blend-mode:normal;color-interpolation:sRGB;color-interpolation-filters:linearRGB;solid-color:#000000;solid-opacity:1;vector-effect:none;fill:#000000;fill-opacity:1;fill-rule:evenodd;stroke:none;stroke-width:230;stroke-linecap:round;stroke-linejoin:round;stroke-miterlimit:4;stroke-dasharray:none;stroke-dashoffset:0;stroke-opacity:1;color-rendering:auto;image-rendering:auto;shape-rendering:auto;text-rendering:auto;enable-background:accumulate"
       d="m 474.85938,725 a 115.0115,115.0115 0 0 0 -1.59766,0.0117 C 230.16093,728.38898 66.918293,941.63803 64.998047,1159.3184 c -1.572747,31.1817 -2.078125,77.5058 -2.078125,77.5058 a 115.0115,115.0115 0 0 0 -0.002,2.9492 c 0,0 0.168726,11.937 0.355469,23.3926 a 115.0115,115.0115 0 0 0 0.705078,26.6563 c 0.282222,11.0422 0.520372,22.0818 0.970703,31.9023 0.436376,146.6317 40.409861,279.0153 127.402341,375.3906 87.3202,96.7384 218.14096,147.6921 363.22461,147.8692 129.8448,1.483 232.37757,-43.7854 298.74414,-100.5723 33.24462,-28.4459 57.89189,-59.0904 75.55078,-89.3809 17.6589,-30.2904 31.71875,-53.7422 31.71875,-102.998 a 115.0115,115.0115 0 0 0 -228.60937,-19.5176 c 0.12591,0.3551 0.12427,1.2347 -0.31445,2.9121 a 115.0115,115.0115 0 0 0 -0.74805,7.0411 c 0.0781,-1.5866 0.0836,-4.2099 0.18359,-5.3379 -0.26578,0.6846 -0.53046,1.3777 -0.92968,2.0625 -4.22544,7.2479 -13.09601,19.0903 -26.38477,30.4609 -26.57752,22.7412 -68.92695,46.3503 -146.99219,45.3555 a 115.0115,115.0115 0 0 0 -1.46484,-0.01 c -95.68516,0 -152.77584,-27.1608 -193.2461,-71.9961 -30.97609,-34.3171 -54.42009,-84.6477 -63.74023,-154.2344 h 547.10352 a 115.0115,115.0115 0 0 0 115,-115 v -110.1914 c 0,-98.1838 -29.04228,-200.82929 -94.63672,-286.8613 C 801.21611,790.68479 690.94102,725 559.45898,725 Z m 1.31054,230 h 83.28906 c 61.60399,0 94.82099,22.31028 124.44922,61.1699 28.68725,37.6255 46.2327,94.1939 47.32813,142.5996 H 295.08594 C 296.95276,1050.7633 366.47795,956.68791 476.16992,955 Z"
       id="path5546-0-3-2-5-5"
       inkscape:connector-curvature="0" />
    <path
       style="color:#000000;font-style:normal;font-variant:normal;font-weight:normal;font-stretch:normal;font-size:medium;line-height:normal;font-family:sans-serif;font-variant-ligatures:normal;font-variant-position:normal;font-variant-caps:normal;font-variant-numeric:normal;font-variant-alternates:normal;font-feature-settings:normal;text-indent:0;text-align:start;text-decoration:none;text-decoration-line:none;text-decoration-style:solid;text-decoration-color:#000000;letter-spacing:normal;word-spacing:normal;text-transform:none;writing-mode:lr-tb;direction:ltr;text-orientation:mixed;dominant-baseline:auto;baseline-shift:baseline;text-anchor:start;white-space:normal;shape-padding:0;clip-rule:nonzero;display:inline;overflow:visible;visibility:visible;opacity:1;isolation:auto;mix-blend-mode:normal;color-interpolation:sRGB;color-interpolation-filters:linearRGB;solid-color:#000000;solid-opacity:1;vector-effect:none;fill:#000000;fill-opacity:1;fill-rule:evenodd;stroke:none;stroke-width:200;stroke-linecap:round;stroke-linejoin:round;stroke-miterlimit:4;stroke-dasharray:none;stroke-dashoffset:0;stroke-opacity:1;color-rendering:auto;image-rendering:auto;shape-rendering:auto;text-rendering:auto;enable-background:accumulate"
       d="M 514.55664,760.00586 C 403.04323,759.52469 297.07356,796.28245 223.14453,873.45312 149.16872,950.67263 112.55469,1061.2118 112.55469,1187.5879 a 100.01,100.01 0 0 0 0.0117,1.4629 l 0.99804,68.1719 a 100.01,100.01 0 0 0 0.52539,35.9472 l 0.54493,37.1953 -0.01,-1.4629 c 0,149.266 46.85346,273.9907 128.57227,359.125 C 324.91607,1773.1617 437.75668,1815 551.8125,1815 c 95.38971,0 176.84205,-35.5564 236.55469,-80.9727 59.71264,-45.4162 110.80273,-89.5716 110.80273,-181.9316 a 100.01,100.01 0 1 0 -200,0 c 0,-36.6671 -2.80529,0.6294 -31.8789,22.7422 C 638.2174,1596.9507 595.99113,1615 551.8125,1615 c -66.95333,0 -122.7072,-22.1062 -164.33008,-65.4688 -35.57482,-37.0617 -63.48887,-92.4559 -70.87109,-175.7617 h 495.6289 a 100.01,100.01 0 0 0 100,-99.9609 l 0.0332,-85.3906 a 100.01,100.01 0 0 0 0,-0.037 c 0,-124.6228 -32.22575,-234.39048 -104.55664,-312.82621 C 735.4413,797.17902 628.89732,760.06267 514.55664,760.00586 Z m -0.73633,199.99219 a 100.01,100.01 0 0 0 0.47461,0.002 c 74.67675,0 117.0151,19.27957 146.39453,51.1387 27.7662,30.1097 49.09755,80.4195 51.35938,162.6308 H 312.78711 c 2.31522,-80.9532 24.93401,-130.807 54.7793,-161.9609 31.51375,-32.89557 76.32564,-52.14182 146.2539,-51.81055 z"
       id="path5546-1-6-6-0-9-4"
       inkscape:connector-curvature="0" />
    <path
       style="color:#000000;font-style:normal;font-variant:normal;font-weight:normal;font-stretch:normal;font-size:medium;line-height:normal;font-family:sans-serif;font-variant-ligatures:normal;font-variant-position:normal;font-variant-caps:normal;font-variant-numeric:normal;font-variant-alternates:normal;font-feature-settings:normal;text-indent:0;text-align:start;text-decoration:none;text-decoration-line:none;text-decoration-style:solid;text-decoration-color:#000000;letter-spacing:normal;word-spacing:normal;text-transform:none;writing-mode:lr-tb;direction:ltr;text-orientation:mixed;dominant-baseline:auto;baseline-shift:baseline;text-anchor:start;white-space:normal;shape-padding:0;clip-rule:nonzero;display:inline;overflow:visible;visibility:visible;opacity:1;isolation:auto;mix-blend-mode:normal;color-interpolation:sRGB;color-interpolation-filters:linearRGB;solid-color:#000000;solid-opacity:1;vector-effect:none;fill:#000000;fill-opacity:1;fill-rule:evenodd;stroke:none;stroke-width:200;stroke-linecap:round;stroke-linejoin:round;stroke-miterlimit:4;stroke-dasharray:none;stroke-dashoffset:0;stroke-opacity:1;color-rendering:auto;image-rendering:auto;shape-rendering:auto;text-rendering:auto;enable-background:accumulate"
       d="M 335.26562,26.019531 A 100.01,100.01 0 0 0 266.74805,193.89453 L 577.84766,539.23242 A 100.01,100.01 0 1 0 726.44336,405.36914 L 415.34375,60.03125 A 100.01,100.01 0 0 0 335.26562,26.019531 Z"
       id="path5200"
       inkscape:connector-curvature="0" />
    <path
       style="color:#000000;font-style:normal;font-variant:normal;font-weight:normal;font-stretch:normal;font-size:medium;line-height:normal;font-family:sans-serif;font-variant-ligatures:normal;font-variant-position:normal;font-variant-caps:normal;font-variant-numeric:normal;font-variant-alternates:normal;font-feature-settings:normal;text-indent:0;text-align:start;text-decoration:none;text-decoration-line:none;text-decoration-style:solid;text-decoration-color:#000000;letter-spacing:normal;word-spacing:normal;text-transform:none;writing-mode:lr-tb;direction:ltr;text-orientation:mixed;dominant-baseline:auto;baseline-shift:baseline;text-anchor:start;white-space:normal;shape-padding:0;clip-rule:nonzero;display:inline;overflow:visible;visibility:visible;opacity:1;isolation:auto;mix-blend-mode:normal;color-interpolation:sRGB;color-interpolation-filters:linearRGB;solid-color:#000000;solid-opacity:1;vector-effect:none;fill:#000000;fill-opacity:1;fill-rule:evenodd;stroke:none;stroke-width:230;stroke-linecap:round;stroke-linejoin:round;stroke-miterlimit:4;stroke-dasharray:none;stroke-dashoffset:0;stroke-opacity:1;color-rendering:auto;image-rendering:auto;shape-rendering:auto;text-rendering:auto;enable-background:accumulate"
       d="M 328.16992,28.111328 A 115.0115,115.0115 0 0 0 246.95508,229.52539 L 592.29297,540.625 A 115.0115,115.0115 0 1 0 746.23438,369.74023 L 400.89648,58.640625 A 115.0115,115.0115 0 0 0 328.16992,28.111328 Z"
       id="path5200-6"
       inkscape:connector-curvature="0" />
  </g>
</svg>
