<?xml version="1.0" encoding="UTF-8" standalone="no"?>
<!--?xml version="1.0" encoding="UTF-8" standalone="no"?-->

<svg
   xmlns:dc="http://purl.org/dc/elements/1.1/"
   xmlns:cc="http://creativecommons.org/ns#"
   xmlns:rdf="http://www.w3.org/1999/02/22-rdf-syntax-ns#"
   xmlns:svg="http://www.w3.org/2000/svg"
   xmlns="http://www.w3.org/2000/svg"
   xmlns:sodipodi="http://sodipodi.sourceforge.net/DTD/sodipodi-0.dtd"
   xmlns:inkscape="http://www.inkscape.org/namespaces/inkscape"
   version="1.1"
   viewBox="0 -288 1024 2048"
   id="svg6"
   sodipodi:docname="five.svg"
   width="1024"
   height="2048"
   inkscape:version="0.92.1 r">
  <metadata
     id="metadata12">
    <rdf:rdf>
      <cc:work
         rdf:about="">
        <dc:format>image/svg+xml</dc:format>
        <dc:type
           rdf:resource="http://purl.org/dc/dcmitype/StillImage" />
        <dc:title />
      </cc:work>
    </rdf:rdf>
    <rdf:RDF>
      <cc:Work
         rdf:about="">
        <dc:format>image/svg+xml</dc:format>
        <dc:type
           rdf:resource="http://purl.org/dc/dcmitype/StillImage" />
      </cc:Work>
    </rdf:RDF>
  </metadata>
  <defs
     id="defs10" />
  <sodipodi:namedview
     pagecolor="#ffffff"
     bordercolor="#666666"
     borderopacity="1"
     objecttolerance="10"
     gridtolerance="10"
     guidetolerance="10"
     inkscape:pageopacity="0"
     inkscape:pageshadow="2"
     inkscape:window-width="1364"
     inkscape:window-height="730"
     id="namedview8"
     showgrid="false"
     inkscape:zoom="0.50318083"
     inkscape:cx="159.37364"
     inkscape:cy="691.8829"
     inkscape:window-x="0"
     inkscape:window-y="18"
     inkscape:window-maximized="0"
     inkscape:current-layer="layer3"
     inkscape:measure-start="-6.11514,1420.24"
     inkscape:measure-end="421.944,1420.24"
     showguides="true"
     inkscape:guide-bbox="true">
    <sodipodi:guide
       position="845.51112,411.80334"
       orientation="1,0"
       id="guide4527"
       inkscape:locked="false" />
    <sodipodi:guide
       position="137.32824,1138.2237"
       orientation="1,0"
       id="guide4520"
       inkscape:locked="false" />
    <sodipodi:guide
       position="505.1881,1241.5236"
       orientation="1,0"
       id="guide4524"
       inkscape:locked="false" />
    <sodipodi:guide
       position="824.20725,1164.9709"
       orientation="0,1"
       id="guide4526"
       inkscape:locked="false" />
    <sodipodi:guide
       position="150.82,1465.3865"
       orientation="0,1"
       id="guide83"
       inkscape:locked="false" />
  </sodipodi:namedview>
  <g
     inkscape:groupmode="layer"
     id="layer3"
     inkscape:label="trace"
     style="display:inline">
    <path
       style="color:#000000;font-style:normal;font-variant:normal;font-weight:normal;font-stretch:normal;font-size:medium;line-height:normal;font-family:sans-serif;font-variant-ligatures:normal;font-variant-position:normal;font-variant-caps:normal;font-variant-numeric:normal;font-variant-alternates:normal;font-feature-settings:normal;text-indent:0;text-align:start;text-decoration:none;text-decoration-line:none;text-decoration-style:solid;text-decoration-color:#000000;letter-spacing:normal;word-spacing:normal;text-transform:none;writing-mode:lr-tb;direction:ltr;text-orientation:mixed;dominant-baseline:auto;baseline-shift:baseline;text-anchor:start;white-space:normal;shape-padding:0;clip-rule:nonzero;display:inline;overflow:visible;visibility:visible;opacity:1;isolation:auto;mix-blend-mode:normal;color-interpolation:sRGB;color-interpolation-filters:linearRGB;solid-color:#000000;solid-opacity:1;vector-effect:none;fill:#000000;fill-opacity:1;fill-rule:evenodd;stroke:none;stroke-width:230;stroke-linecap:round;stroke-linejoin:round;stroke-miterlimit:4;stroke-dasharray:none;stroke-dashoffset:0;stroke-opacity:1;color-rendering:auto;image-rendering:auto;shape-rendering:auto;text-rendering:auto;enable-background:accumulate"
       d="M 195 433 A 115.0115 115.0115 0 0 0 80 547.85547 L 79.353516 1059.6406 A 115.0115 115.0115 0 0 0 127.18359 1153.1309 L 170.68164 1184.4297 A 115.0115 115.0115 0 0 0 189.64844 1195.4434 A 100.01 100.01 0 0 0 296.72266 1198.0469 C 296.72266 1198.0469 358.49024 1164.0293 423.32617 1164.0293 A 100.01 100.01 0 0 0 426.20117 1163.9863 C 510.4519 1161.563 694.36523 1265.0503 694.36523 1498.3965 C 694.36523 1602.1386 667.04837 1703.6634 622.73242 1771.1973 C 578.60649 1838.4415 527.61232 1872.9744 449.35742 1873.2695 C 364.63289 1871.2322 300.37602 1855.9045 255.89844 1841.334 C 233.54732 1834.0119 216.37948 1826.9511 203.04297 1821.2207 C 196.37472 1818.3555 190.85763 1815.8715 184.42383 1813.1953 C 181.20692 1811.8572 177.88149 1810.4607 172.39844 1808.6191 C 166.91538 1806.7775 162.56814 1802.6699 137.32812 1802.6699 A 100.01 100.01 0 0 0 36.425781 1896.0449 A 115.0115 115.0115 0 0 0 108.00586 2064.9277 C 107.16179 2064.5084 106.42402 2064.214 105.90039 2063.9316 C 106.45104 2064.1521 108.02028 2064.7848 108.76367 2065.0859 A 115.0115 115.0115 0 0 0 127.26367 2067.9824 C 120.11693 2067.6285 114.70854 2067.0642 111.80273 2066.3125 C 114.97703 2067.6019 116.90561 2068.3913 121.60547 2070.2676 C 138.4366 2076.9867 163.40671 2086.4862 194.64844 2095.8457 C 257.1319 2114.5647 345.53292 2133 454.95508 2133 C 618.09415 2133 754.56456 2044.8887 833.48242 1923.3418 C 912.40028 1801.7949 945.32617 1650.694 945.32617 1494.2285 C 945.32617 1187.7608 724.2046 925.90078 440.82812 925.31055 C 390.33261 925.20537 346.4846 930.99253 309.50586 939.42969 L 309.58984 872.80664 L 323.52539 698 L 880 698 A 100.01 100.01 0 0 0 981.09961 605.45703 A 115.0115 115.0115 0 0 0 880 433 L 195 433 z "
       transform="translate(0,-288)"
       id="path5236-7-72-2-3" />
  </g>
</svg>
