<?xml version="1.0" encoding="UTF-8" standalone="no"?>
<!--?xml version="1.0" encoding="UTF-8" standalone="no"?-->

<svg
   xmlns:dc="http://purl.org/dc/elements/1.1/"
   xmlns:cc="http://creativecommons.org/ns#"
   xmlns:rdf="http://www.w3.org/1999/02/22-rdf-syntax-ns#"
   xmlns:svg="http://www.w3.org/2000/svg"
   xmlns="http://www.w3.org/2000/svg"
   xmlns:sodipodi="http://sodipodi.sourceforge.net/DTD/sodipodi-0.dtd"
   xmlns:inkscape="http://www.inkscape.org/namespaces/inkscape"
   version="1.1"
   viewBox="0 -288 1392 2048"
   id="svg6"
   sodipodi:docname="G.svg"
   width="1392"
   height="2048"
   inkscape:version="0.92.1 r">
  <metadata
     id="metadata12">
    <rdf:rdf>
      <cc:work
         rdf:about="">
        <dc:format>image/svg+xml</dc:format>
        <dc:type
           rdf:resource="http://purl.org/dc/dcmitype/StillImage" />
        <dc:title />
      </cc:work>
    </rdf:rdf>
    <rdf:RDF>
      <cc:Work
         rdf:about="">
        <dc:format>image/svg+xml</dc:format>
        <dc:type
           rdf:resource="http://purl.org/dc/dcmitype/StillImage" />
      </cc:Work>
    </rdf:RDF>
  </metadata>
  <defs
     id="defs10" />
  <sodipodi:namedview
     pagecolor="#ffffff"
     bordercolor="#666666"
     borderopacity="1"
     objecttolerance="10"
     gridtolerance="10"
     guidetolerance="10"
     inkscape:pageopacity="0"
     inkscape:pageshadow="2"
     inkscape:window-width="1364"
     inkscape:window-height="730"
     id="namedview8"
     showgrid="false"
     inkscape:zoom="0.14321191"
     inkscape:cx="-735.11474"
     inkscape:cy="-50.739215"
     inkscape:window-x="0"
     inkscape:window-y="18"
     inkscape:window-maximized="0"
     inkscape:current-layer="layer2" />
  <g
     inkscape:groupmode="layer"
     id="layer2"
     inkscape:label="trace"
     style="display:inline">
    <path
       style="color:#000000;font-style:normal;font-variant:normal;font-weight:normal;font-stretch:normal;font-size:medium;line-height:normal;font-family:sans-serif;font-variant-ligatures:normal;font-variant-position:normal;font-variant-caps:normal;font-variant-numeric:normal;font-variant-alternates:normal;font-feature-settings:normal;text-indent:0;text-align:start;text-decoration:none;text-decoration-line:none;text-decoration-style:solid;text-decoration-color:#000000;letter-spacing:normal;word-spacing:normal;text-transform:none;writing-mode:lr-tb;direction:ltr;text-orientation:mixed;dominant-baseline:auto;baseline-shift:baseline;text-anchor:start;white-space:normal;shape-padding:0;clip-rule:nonzero;display:inline;overflow:visible;visibility:visible;opacity:1;isolation:auto;mix-blend-mode:normal;color-interpolation:sRGB;color-interpolation-filters:linearRGB;solid-color:#000000;solid-opacity:1;vector-effect:none;fill:#000000;fill-opacity:1;fill-rule:evenodd;stroke:none;stroke-width:200;stroke-linecap:round;stroke-linejoin:round;stroke-miterlimit:4;stroke-dasharray:none;stroke-dashoffset:0;stroke-opacity:1;color-rendering:auto;image-rendering:auto;shape-rendering:auto;text-rendering:auto;enable-background:accumulate"
       d="M 660.98828 431.21094 C 446.26111 431.21094 276.09628 543.38389 182.5625 703.54883 C 89.028718 863.71376 56.814453 1064.1774 56.814453 1276.3457 C 56.814453 1511.9094 105.28423 1719.0298 214.08203 1875.4473 C 322.87983 2031.8647 499.70026 2129.25 707.25977 2129.25 C 850.51461 2129.25 973.01829 2096.6362 1068.2578 2036.6816 L 1068.2578 2048 A 115.0115 115.0115 0 1 0 1298.2578 2048 L 1298.2578 1323 A 115.0115 115.0115 0 0 0 1183.2578 1208 L 785 1208 A 115.0115 115.0115 0 1 0 785 1438 L 1043.2676 1438 L 1043.2676 1725.8848 C 1035.432 1744.7243 1025.745 1762.0974 1014.2617 1778.002 C 958.56971 1816.268 848.06575 1868.4219 706.79297 1868.4219 C 578.4354 1868.4219 491.07514 1809.9092 422.2168 1703.6738 C 353.35846 1597.4385 313.23437 1441.7449 313.23438 1276.5605 C 313.23438 1079.344 353.1403 920.16454 419.41406 818.81641 C 485.68783 717.46827 569.40978 666.86328 703.25977 666.86328 C 947.07391 666.86328 1031 823.08994 1031 919.11133 A 100.01 100.01 0 0 0 1132.2852 1020.5156 A 115.0115 115.0115 0 0 0 1302.9316 918.34375 C 1302.9316 659.712 1076.9985 431.21094 768.70117 431.21094 L 660.98828 431.21094 z "
       transform="translate(0,-288)"
       id="path5236-7-72-2" />
  </g>
</svg>
