<?xml version="1.0" encoding="UTF-8" standalone="no"?>
<!--?xml version="1.0" encoding="UTF-8" standalone="no"?-->

<svg
   xmlns:dc="http://purl.org/dc/elements/1.1/"
   xmlns:cc="http://creativecommons.org/ns#"
   xmlns:rdf="http://www.w3.org/1999/02/22-rdf-syntax-ns#"
   xmlns:svg="http://www.w3.org/2000/svg"
   xmlns="http://www.w3.org/2000/svg"
   xmlns:sodipodi="http://sodipodi.sourceforge.net/DTD/sodipodi-0.dtd"
   xmlns:inkscape="http://www.inkscape.org/namespaces/inkscape"
   version="1.1"
   viewBox="0 -288 448 2048"
   id="svg6"
   sodipodi:docname="j.svg"
   width="448"
   height="2048"
   inkscape:version="0.92.1 r">
  <metadata
     id="metadata12">
    <rdf:rdf>
      <cc:work
         rdf:about="">
        <dc:format>image/svg+xml</dc:format>
        <dc:type
           rdf:resource="http://purl.org/dc/dcmitype/StillImage" />
        <dc:title />
      </cc:work>
    </rdf:rdf>
    <rdf:RDF>
      <cc:Work
         rdf:about="">
        <dc:format>image/svg+xml</dc:format>
        <dc:type
           rdf:resource="http://purl.org/dc/dcmitype/StillImage" />
      </cc:Work>
    </rdf:RDF>
  </metadata>
  <defs
     id="defs10" />
  <sodipodi:namedview
     pagecolor="#ffffff"
     bordercolor="#666666"
     borderopacity="1"
     objecttolerance="10"
     gridtolerance="10"
     guidetolerance="10"
     inkscape:pageopacity="0"
     inkscape:pageshadow="2"
     inkscape:window-width="1364"
     inkscape:window-height="730"
     id="namedview8"
     showgrid="false"
     inkscape:zoom="0.14836716"
     inkscape:cx="-1141.3749"
     inkscape:cy="572.34868"
     inkscape:window-x="0"
     inkscape:window-y="18"
     inkscape:window-maximized="0"
     inkscape:current-layer="layer2"
     showguides="true"
     inkscape:guide-bbox="true"
     inkscape:measure-start="179.978,1134.71"
     inkscape:measure-end="320.571,1134.71">
    <sodipodi:guide
       position="486.58928,-227.34089"
       orientation="0,1"
       id="guide284"
       inkscape:locked="false" />
    <sodipodi:guide
       position="204.11564,1141.1439"
       orientation="1,0"
       id="guide344"
       inkscape:locked="false" />
    <sodipodi:guide
       position="240.30331,1172.1019"
       orientation="1,0"
       id="guide346"
       inkscape:locked="false" />
  </sodipodi:namedview>
  <g
     inkscape:groupmode="layer"
     id="layer2"
     inkscape:label="trace">
    <path
       style="color:#000000;font-style:normal;font-variant:normal;font-weight:normal;font-stretch:normal;font-size:medium;line-height:normal;font-family:sans-serif;font-variant-ligatures:normal;font-variant-position:normal;font-variant-caps:normal;font-variant-numeric:normal;font-variant-alternates:normal;font-feature-settings:normal;text-indent:0;text-align:start;text-decoration:none;text-decoration-line:none;text-decoration-style:solid;text-decoration-color:#000000;letter-spacing:normal;word-spacing:normal;text-transform:none;writing-mode:lr-tb;direction:ltr;text-orientation:mixed;dominant-baseline:auto;baseline-shift:baseline;text-anchor:start;white-space:normal;shape-padding:0;clip-rule:nonzero;display:inline;overflow:visible;visibility:visible;opacity:1;isolation:auto;mix-blend-mode:normal;color-interpolation:sRGB;color-interpolation-filters:linearRGB;solid-color:#000000;solid-opacity:1;vector-effect:none;fill:#000000;fill-opacity:1;fill-rule:evenodd;stroke:none;stroke-width:230;stroke-linecap:round;stroke-linejoin:round;stroke-miterlimit:4;stroke-dasharray:none;stroke-dashoffset:0;stroke-opacity:1;color-rendering:auto;image-rendering:auto;shape-rendering:auto;text-rendering:auto;enable-background:accumulate"
       d="M 202.99805 307.83594 A 115.0115 115.0115 0 0 0 89.730469 424.46094 L 89.730469 687.5625 A 115.0115 115.0115 0 0 0 156.83594 793.5957 A 100.01 100.01 0 0 0 104.19531 883 L 104.19531 2085.459 C 104.19531 2110.115 98.074925 2127.9618 96.533203 2130.3047 C 95.007207 2132.6236 104.32648 2132.3636 80.886719 2132.7168 C 80.268503 2132.7286 81.289658 2132.7119 80.060547 2132.7344 A 100.01 100.01 0 0 1 80.373047 2132.7246 C 80.621648 2132.7208 80.645171 2132.7204 80.886719 2132.7168 C 84.796307 2132.6422 79.652142 2132.7246 77.416016 2132.7246 L 66.816406 2132.7246 C 58.116157 2132.7246 46.637535 2132.7244 35.207031 2132.7246 C 12.346023 2132.7246 -10.328125 2132.7129 -10.328125 2132.7129 A 100.01 100.01 0 0 0 -111.5332 2227.4336 A 115.0115 115.0115 0 0 0 -10.441406 2399.9023 L 47.158203 2399.9023 C 116.39774 2399.9023 198.59118 2389.6052 264.35156 2329.125 C 330.11194 2268.6448 355.36133 2176.7147 355.36133 2070.7695 L 355.36133 883 A 115.0115 115.0115 0 0 0 288.05078 776.87109 A 100.01 100.01 0 0 0 340.5 687.5625 L 340.5 424.46094 A 100.01 100.01 0 0 0 268.30273 326.99414 A 115.0115 115.0115 0 0 0 202.99805 307.83594 z "
       transform="translate(0,-288)"
       id="path5829-3-3" />
  </g>
</svg>
