<?xml version="1.0" encoding="UTF-8" standalone="no"?>
<!--?xml version="1.0" encoding="UTF-8" standalone="no"?-->

<svg
   xmlns:dc="http://purl.org/dc/elements/1.1/"
   xmlns:cc="http://creativecommons.org/ns#"
   xmlns:rdf="http://www.w3.org/1999/02/22-rdf-syntax-ns#"
   xmlns:svg="http://www.w3.org/2000/svg"
   xmlns="http://www.w3.org/2000/svg"
   xmlns:sodipodi="http://sodipodi.sourceforge.net/DTD/sodipodi-0.dtd"
   xmlns:inkscape="http://www.inkscape.org/namespaces/inkscape"
   version="1.1"
   viewBox="0 -288 944 2048"
   id="svg6"
   sodipodi:docname="k.svg"
   width="944"
   height="2048"
   inkscape:version="0.92.1 r">
  <metadata
     id="metadata12">
    <rdf:rdf>
      <cc:work
         rdf:about="">
        <dc:format>image/svg+xml</dc:format>
        <dc:type
           rdf:resource="http://purl.org/dc/dcmitype/StillImage" />
        <dc:title />
      </cc:work>
    </rdf:rdf>
    <rdf:RDF>
      <cc:Work
         rdf:about="">
        <dc:format>image/svg+xml</dc:format>
        <dc:type
           rdf:resource="http://purl.org/dc/dcmitype/StillImage" />
      </cc:Work>
    </rdf:RDF>
  </metadata>
  <defs
     id="defs10" />
  <sodipodi:namedview
     pagecolor="#ffffff"
     bordercolor="#666666"
     borderopacity="1"
     objecttolerance="10"
     gridtolerance="10"
     guidetolerance="10"
     inkscape:pageopacity="0"
     inkscape:pageshadow="2"
     inkscape:window-width="1364"
     inkscape:window-height="730"
     id="namedview8"
     showgrid="false"
     inkscape:zoom="0.14836715"
     inkscape:cx="-1095.2017"
     inkscape:cy="197.80034"
     inkscape:window-x="0"
     inkscape:window-y="18"
     inkscape:window-maximized="0"
     inkscape:current-layer="layer3"
     inkscape:measure-start="728.887,1159.89"
     inkscape:measure-end="796.441,1159.89" />
  <g
     inkscape:groupmode="layer"
     id="layer3"
     inkscape:label="trace"
     style="display:inline">
    <path
       style="color:#000000;font-style:normal;font-variant:normal;font-weight:normal;font-stretch:normal;font-size:medium;line-height:normal;font-family:sans-serif;font-variant-ligatures:normal;font-variant-position:normal;font-variant-caps:normal;font-variant-numeric:normal;font-variant-alternates:normal;font-feature-settings:normal;text-indent:0;text-align:start;text-decoration:none;text-decoration-line:none;text-decoration-style:solid;text-decoration-color:#000000;letter-spacing:normal;word-spacing:normal;text-transform:none;writing-mode:lr-tb;direction:ltr;text-orientation:mixed;dominant-baseline:auto;baseline-shift:baseline;text-anchor:start;white-space:normal;shape-padding:0;clip-rule:nonzero;display:inline;overflow:visible;visibility:visible;opacity:1;isolation:auto;mix-blend-mode:normal;color-interpolation:sRGB;color-interpolation-filters:linearRGB;solid-color:#000000;solid-opacity:1;vector-effect:none;fill:#000000;fill-opacity:1;fill-rule:evenodd;stroke:none;stroke-width:200;stroke-linecap:round;stroke-linejoin:round;stroke-miterlimit:4;stroke-dasharray:none;stroke-dashoffset:0;stroke-opacity:1;color-rendering:auto;image-rendering:auto;shape-rendering:auto;text-rendering:auto;enable-background:accumulate"
       d="M 212.99805 306.375 A 115.0115 115.0115 0 0 0 99.730469 423 L 99.730469 1541.7598 A 115.0115 115.0115 0 0 0 99.730469 1568.709 L 99.730469 2048 A 115.0115 115.0115 0 0 0 276.70312 2146.3457 A 100.01 100.01 0 0 0 352.5 2048 L 352.5 1573.4551 C 364.70753 1559.2793 378.4868 1543.2175 393.9082 1525.1855 C 396.20604 1522.4987 398.9492 1519.2764 401.30859 1516.5156 C 429.4898 1574.815 462.29152 1642.8616 495.09375 1711.3301 C 538.71974 1802.3911 582.33905 1894.1884 614.78906 1964.1289 C 631.01407 1999.0992 644.48398 2028.7061 653.4668 2049.2891 C 657.08798 2057.5865 659.31875 2063.0296 661.19922 2067.6719 C 660.62606 2063.9619 660.14844 2058.6048 660.14844 2048 A 100.01 100.01 0 0 0 662.61523 2071.041 C 662.70023 2071.2565 662.97885 2071.8904 663.05664 2072.0898 C 663.44659 2073.0895 663.71819 2073.8394 663.89258 2074.3203 C 663.9141 2074.3484 663.93864 2074.3732 663.95117 2074.4121 C 664.15643 2075.05 664.09629 2074.8821 663.89258 2074.3203 C 663.78217 2074.1764 663.5704 2074.1494 663.34375 2074.0703 A 100.01 100.01 0 0 0 750.43359 2148.3906 A 115.0115 115.0115 0 0 0 923.60742 2048 C 923.60742 2005.3802 918.318 2013.1011 916.89453 2009.0293 C 915.47106 2004.9575 914.59096 2002.8657 913.75 2000.8398 C 912.06809 1996.7881 910.64891 1993.6546 908.96875 1989.9863 C 905.60843 1982.6499 901.39745 1973.8036 896.11328 1962.8633 C 885.54494 1940.9826 870.85602 1911.1552 853.25391 1875.7051 C 818.04967 1804.8048 771.31262 1711.6704 724.57812 1618.8672 C 658.3019 1487.2588 604.60526 1381.1785 571.66602 1316.1543 C 577.79818 1308.9169 583.86248 1301.7681 590.00391 1294.5156 C 661.04478 1210.6233 731.91572 1126.658 785.12695 1063.3438 C 811.73257 1031.6866 833.90222 1005.2178 849.60547 986.33984 C 857.45709 976.90084 863.65458 969.40778 868.24023 963.78906 C 870.53306 960.97971 872.35651 958.73121 874.25195 956.32227 C 875.19968 955.11779 876.06365 954.03456 877.78125 951.69531 C 878.64005 950.52569 879.60307 949.28154 881.91211 945.7168 C 883.06663 943.93442 884.51398 941.81985 887.32227 936.46289 C 890.13055 931.10593 900.49609 935.70936 900.49609 883 A 115.0115 115.0115 0 0 0 783.76367 766.375 A 115.0115 115.0115 0 0 0 727.53711 782.15039 A 100.01 100.01 0 0 0 650.25781 832.9375 C 647.25844 836.84533 643.52643 841.67061 638.04492 848.63867 C 625.11818 865.07107 606.24964 888.76963 583.58594 917.08203 C 538.25854 973.70684 477.62632 1048.9485 416.98828 1124.0234 C 395.03933 1151.1981 373.73596 1177.53 352.5 1203.7832 L 352.5 423 A 100.01 100.01 0 0 0 276.98242 324.74023 A 115.0115 115.0115 0 0 0 212.99805 306.375 z M 647.24023 838.625 A 100.01 100.01 0 0 0 637.67969 875.64062 C 638.47861 842.82322 644.18205 840.71436 647.24023 838.625 z "
       transform="translate(0,-288)"
       id="path5236-3-9-6" />
  </g>
</svg>
