<?xml version="1.0" encoding="UTF-8" standalone="no"?>
<!--?xml version="1.0" encoding="UTF-8" standalone="no"?-->

<svg
   xmlns:dc="http://purl.org/dc/elements/1.1/"
   xmlns:cc="http://creativecommons.org/ns#"
   xmlns:rdf="http://www.w3.org/1999/02/22-rdf-syntax-ns#"
   xmlns:svg="http://www.w3.org/2000/svg"
   xmlns="http://www.w3.org/2000/svg"
   xmlns:sodipodi="http://sodipodi.sourceforge.net/DTD/sodipodi-0.dtd"
   xmlns:inkscape="http://www.inkscape.org/namespaces/inkscape"
   version="1.1"
   viewBox="0 -288 1504 2048"
   id="svg6"
   sodipodi:docname="m.svg"
   width="1504"
   height="2048"
   inkscape:version="0.92.1 r">
  <metadata
     id="metadata12">
    <rdf:rdf>
      <cc:work
         rdf:about="">
        <dc:format>image/svg+xml</dc:format>
        <dc:type
           rdf:resource="http://purl.org/dc/dcmitype/StillImage" />
        <dc:title />
      </cc:work>
    </rdf:rdf>
    <rdf:RDF>
      <cc:Work
         rdf:about="">
        <dc:format>image/svg+xml</dc:format>
        <dc:type
           rdf:resource="http://purl.org/dc/dcmitype/StillImage" />
      </cc:Work>
    </rdf:RDF>
  </metadata>
  <defs
     id="defs10" />
  <sodipodi:namedview
     pagecolor="#ffffff"
     bordercolor="#666666"
     borderopacity="1"
     objecttolerance="10"
     gridtolerance="10"
     guidetolerance="10"
     inkscape:pageopacity="0"
     inkscape:pageshadow="2"
     inkscape:window-width="1364"
     inkscape:window-height="730"
     id="namedview8"
     showgrid="false"
     inkscape:zoom="0.09557797"
     inkscape:cx="-1968.1697"
     inkscape:cy="221.42519"
     inkscape:window-x="0"
     inkscape:window-y="18"
     inkscape:window-maximized="0"
     inkscape:current-layer="layer2"
     inkscape:measure-start="155.556,1178.32"
     inkscape:measure-end="261.789,1178.32"
     showguides="true"
     inkscape:guide-bbox="true">
    <sodipodi:guide
       position="584.0817,1100.7104"
       orientation="0,1"
       id="guide474"
       inkscape:locked="false" />
    <sodipodi:guide
       position="631.60541,1119.8732"
       orientation="0,1"
       id="guide476"
       inkscape:locked="false" />
  </sodipodi:namedview>
  <g
     inkscape:groupmode="layer"
     id="layer2"
     inkscape:label="trace">
    <path
       style="color:#000000;font-style:normal;font-variant:normal;font-weight:normal;font-stretch:normal;font-size:medium;line-height:normal;font-family:sans-serif;font-variant-ligatures:normal;font-variant-position:normal;font-variant-caps:normal;font-variant-numeric:normal;font-variant-alternates:normal;font-feature-settings:normal;text-indent:0;text-align:start;text-decoration:none;text-decoration-line:none;text-decoration-style:solid;text-decoration-color:#000000;letter-spacing:normal;word-spacing:normal;text-transform:none;writing-mode:lr-tb;direction:ltr;text-orientation:mixed;dominant-baseline:auto;baseline-shift:baseline;text-anchor:start;white-space:normal;shape-padding:0;clip-rule:nonzero;display:inline;overflow:visible;visibility:visible;opacity:1;isolation:auto;mix-blend-mode:normal;color-interpolation:sRGB;color-interpolation-filters:linearRGB;solid-color:#000000;solid-opacity:1;vector-effect:none;fill:#000000;fill-opacity:1;fill-rule:evenodd;stroke:none;stroke-width:200;stroke-linecap:round;stroke-linejoin:round;stroke-miterlimit:4;stroke-dasharray:none;stroke-dashoffset:0;stroke-opacity:1;color-rendering:auto;image-rendering:auto;shape-rendering:auto;text-rendering:auto;enable-background:accumulate"
       d="M 212.99805 766.375 A 115.0115 115.0115 0 0 0 99.730469 883 L 99.730469 1088.3242 L 99.730469 1096.2129 A 115.0115 115.0115 0 0 0 99.730469 1118.3828 L 99.730469 1897.0508 L 99.730469 2048 A 115.0115 115.0115 0 0 0 276.70312 2146.3457 A 100.01 100.01 0 0 0 352.5 2048 L 352.5 1116.7266 C 372.34597 1096.1539 398.89045 1073.5052 429.2793 1060.0293 C 446.94346 1055.7083 467.47407 1053 491.20508 1053 C 576.89666 1053 585.5767 1071.7656 601.39648 1104.8711 C 608.42409 1119.5775 613.17158 1139.5902 616.2832 1161.8535 A 100.01 100.01 0 0 0 618.76758 1183.7969 C 620.75007 1205.5914 621.50586 1228.4826 621.50586 1250.0469 L 621.50586 2047.9902 A 100.01 100.01 0 0 0 694.63477 2145.6797 A 115.0115 115.0115 0 0 0 872.88086 2048.0098 L 872.88086 1175.334 C 872.88086 1166.3172 872.72561 1154.1511 871.625 1139.5586 C 882.43344 1126.2318 897.12683 1109.8198 914.56836 1094.5781 C 947.60129 1070.8861 985.53089 1053 1024.8027 1053 C 1110.4966 1053 1119.1822 1071.7688 1135.0039 1104.875 C 1150.8257 1137.9812 1155.1152 1197.9425 1155.1152 1250.0469 L 1155.1152 2048 A 100.01 100.01 0 0 0 1228.3047 2145.7051 A 115.0115 115.0115 0 0 0 1406.4766 2048.127 L 1407.4336 1179.1035 A 115.0115 115.0115 0 0 0 1407.4336 1178.9766 C 1407.4336 1146.1117 1405.4837 1071.1723 1362.9199 987.82227 C 1320.358 904.47222 1215.943 818 1075.7441 818 L 1016.8477 818 C 911.37232 818 829.56277 860.38764 770.16406 909.50195 C 716.01953 857.82175 636.85231 818 541.17383 818 L 482.2832 818 C 422.73489 818 370.59017 831.35217 325.7207 851.63477 A 115.0115 115.0115 0 0 0 212.99805 766.375 z "
       transform="translate(0,-288)"
       id="path5236-3-9-6" />
  </g>
</svg>
