<?xml version="1.0" encoding="UTF-8" standalone="no"?>
<!--?xml version="1.0" encoding="UTF-8" standalone="no"?-->

<svg
   xmlns:dc="http://purl.org/dc/elements/1.1/"
   xmlns:cc="http://creativecommons.org/ns#"
   xmlns:rdf="http://www.w3.org/1999/02/22-rdf-syntax-ns#"
   xmlns:svg="http://www.w3.org/2000/svg"
   xmlns="http://www.w3.org/2000/svg"
   xmlns:sodipodi="http://sodipodi.sourceforge.net/DTD/sodipodi-0.dtd"
   xmlns:inkscape="http://www.inkscape.org/namespaces/inkscape"
   version="1.1"
   viewBox="0 -288 1024 2048"
   id="svg6"
   sodipodi:docname="n.svg"
   width="1024"
   height="2048"
   inkscape:version="0.92.1 r">
  <metadata
     id="metadata12">
    <rdf:rdf>
      <cc:work
         rdf:about="">
        <dc:format>image/svg+xml</dc:format>
        <dc:type
           rdf:resource="http://purl.org/dc/dcmitype/StillImage" />
        <dc:title />
      </cc:work>
    </rdf:rdf>
    <rdf:RDF>
      <cc:Work
         rdf:about="">
        <dc:format>image/svg+xml</dc:format>
        <dc:type
           rdf:resource="http://purl.org/dc/dcmitype/StillImage" />
      </cc:Work>
    </rdf:RDF>
  </metadata>
  <defs
     id="defs10" />
  <sodipodi:namedview
     pagecolor="#ffffff"
     bordercolor="#666666"
     borderopacity="1"
     objecttolerance="10"
     gridtolerance="10"
     guidetolerance="10"
     inkscape:pageopacity="0"
     inkscape:pageshadow="2"
     inkscape:window-width="1364"
     inkscape:window-height="730"
     id="namedview8"
     showgrid="false"
     inkscape:zoom="0.16140723"
     inkscape:cx="1179.2006"
     inkscape:cy="-160.48837"
     inkscape:window-x="0"
     inkscape:window-y="18"
     inkscape:window-maximized="0"
     inkscape:current-layer="layer2"
     inkscape:measure-start="181.477,341.874"
     inkscape:measure-end="274.966,341.874" />
  <g
     inkscape:groupmode="layer"
     id="layer2"
     inkscape:label="trace">
    <path
       style="color:#000000;font-style:normal;font-variant:normal;font-weight:normal;font-stretch:normal;font-size:medium;line-height:normal;font-family:sans-serif;font-variant-ligatures:normal;font-variant-position:normal;font-variant-caps:normal;font-variant-numeric:normal;font-variant-alternates:normal;font-feature-settings:normal;text-indent:0;text-align:start;text-decoration:none;text-decoration-line:none;text-decoration-style:solid;text-decoration-color:#000000;letter-spacing:normal;word-spacing:normal;text-transform:none;writing-mode:lr-tb;direction:ltr;text-orientation:mixed;dominant-baseline:auto;baseline-shift:baseline;text-anchor:start;white-space:normal;shape-padding:0;clip-rule:nonzero;display:inline;overflow:visible;visibility:visible;opacity:1;isolation:auto;mix-blend-mode:normal;color-interpolation:sRGB;color-interpolation-filters:linearRGB;solid-color:#000000;solid-opacity:1;vector-effect:none;fill:#000000;fill-opacity:1;fill-rule:evenodd;stroke:none;stroke-width:200;stroke-linecap:round;stroke-linejoin:round;stroke-miterlimit:4;stroke-dasharray:none;stroke-dashoffset:0;stroke-opacity:1;color-rendering:auto;image-rendering:auto;shape-rendering:auto;text-rendering:auto;enable-background:accumulate"
       d="M 212.99805 766.375 A 115.0115 115.0115 0 0 0 99.730469 883 L 99.730469 1088.3242 L 99.730469 1178.5566 A 115.0115 115.0115 0 0 0 99.730469 1218.6699 L 99.730469 1897.0508 L 99.730469 2048 A 115.0115 115.0115 0 0 0 276.70312 2146.3457 A 100.01 100.01 0 0 0 352.5 2048 L 352.5 1198.2754 C 365.58723 1180.6867 381.21176 1160.8732 398.63086 1141.166 C 427.00184 1109.0684 460.79855 1083.5855 485.65625 1067.377 C 508.35183 1058.5429 533.12027 1053 559.54492 1053 C 628.85351 1053 631.9705 1065.3476 646.76758 1097.0898 C 661.56465 1128.8321 667.50586 1190.7343 667.50586 1250.0469 L 667.50586 2047.9902 A 100.01 100.01 0 0 0 740.63477 2145.6797 A 115.0115 115.0115 0 0 0 918.88086 2048.0098 L 918.88086 1185.334 C 918.88086 1138.4953 916.77737 1058.2817 872.13672 975.66016 C 827.49606 893.03861 722.51583 818.35936 589.85156 818.35938 C 598.78758 818.36437 589.73177 818.35238 587.875 818.33398 C 585.95586 818.31448 583.23373 818.28555 579.98242 818.25195 C 573.47981 818.18475 564.8589 818.09553 556.25781 818.00586 C 539.05564 817.82652 521.92969 817.64844 521.92969 817.64844 A 115.0115 115.0115 0 0 0 520.72461 817.64062 C 441.68712 817.64062 380.17292 847.21416 329.73047 886.36133 L 329.73047 883 A 115.0115 115.0115 0 0 0 212.99805 766.375 z "
       transform="translate(0,-288)"
       id="path5236-3-9-6" />
  </g>
</svg>
