<?xml version="1.0" encoding="UTF-8" standalone="no"?>
<!--?xml version="1.0" encoding="UTF-8" standalone="no"?-->

<svg
   xmlns:dc="http://purl.org/dc/elements/1.1/"
   xmlns:cc="http://creativecommons.org/ns#"
   xmlns:rdf="http://www.w3.org/1999/02/22-rdf-syntax-ns#"
   xmlns:svg="http://www.w3.org/2000/svg"
   xmlns="http://www.w3.org/2000/svg"
   xmlns:sodipodi="http://sodipodi.sourceforge.net/DTD/sodipodi-0.dtd"
   xmlns:inkscape="http://www.inkscape.org/namespaces/inkscape"
   version="1.1"
   viewBox="0 -288 1232 2048"
   id="svg6"
   sodipodi:docname="S.svg"
   width="1232"
   height="2048"
   inkscape:version="0.92.1 r">
  <metadata
     id="metadata12">
    <rdf:rdf>
      <cc:work
         rdf:about="">
        <dc:format>image/svg+xml</dc:format>
        <dc:type
           rdf:resource="http://purl.org/dc/dcmitype/StillImage" />
        <dc:title />
      </cc:work>
    </rdf:rdf>
    <rdf:RDF>
      <cc:Work
         rdf:about="">
        <dc:format>image/svg+xml</dc:format>
        <dc:type
           rdf:resource="http://purl.org/dc/dcmitype/StillImage" />
      </cc:Work>
    </rdf:RDF>
  </metadata>
  <defs
     id="defs10" />
  <sodipodi:namedview
     pagecolor="#ffffff"
     bordercolor="#666666"
     borderopacity="1"
     objecttolerance="10"
     gridtolerance="10"
     guidetolerance="10"
     inkscape:pageopacity="0"
     inkscape:pageshadow="2"
     inkscape:window-width="1364"
     inkscape:window-height="730"
     id="namedview8"
     showgrid="false"
     inkscape:zoom="0.10638664"
     inkscape:cx="-711.89661"
     inkscape:cy="945.98889"
     inkscape:window-x="0"
     inkscape:window-y="18"
     inkscape:window-maximized="0"
     inkscape:current-layer="layer3"
     inkscape:measure-start="885.766,394.076"
     inkscape:measure-end="1348.53,394.076"
     showguides="false">
    <sodipodi:guide
       position="186.77207,501.25482"
       orientation="0,1"
       id="guide895"
       inkscape:locked="false" />
  </sodipodi:namedview>
  <g
     inkscape:groupmode="layer"
     id="layer3"
     inkscape:label="trace"
     style="display:inline">
    <path
       style="color:#000000;font-style:normal;font-variant:normal;font-weight:normal;font-stretch:normal;font-size:medium;line-height:normal;font-family:sans-serif;font-variant-ligatures:normal;font-variant-position:normal;font-variant-caps:normal;font-variant-numeric:normal;font-variant-alternates:normal;font-feature-settings:normal;text-indent:0;text-align:start;text-decoration:none;text-decoration-line:none;text-decoration-style:solid;text-decoration-color:#000000;letter-spacing:normal;word-spacing:normal;text-transform:none;writing-mode:lr-tb;direction:ltr;text-orientation:mixed;dominant-baseline:auto;baseline-shift:baseline;text-anchor:start;white-space:normal;shape-padding:0;clip-rule:nonzero;display:inline;overflow:visible;visibility:visible;opacity:1;isolation:auto;mix-blend-mode:normal;color-interpolation:sRGB;color-interpolation-filters:linearRGB;solid-color:#000000;solid-opacity:1;vector-effect:none;fill:#010000;fill-opacity:1;fill-rule:evenodd;stroke:none;stroke-width:200;stroke-linecap:round;stroke-linejoin:round;stroke-miterlimit:4;stroke-dasharray:none;stroke-dashoffset:0;stroke-opacity:1;color-rendering:auto;image-rendering:auto;shape-rendering:auto;text-rendering:auto;enable-background:accumulate"
       d="M 643.71289 432.94531 L 528.06445 433.05469 C 446.56431 433.05469 346.59913 457.44218 250.17773 525.54688 C 153.75634 593.65157 68.665771 718.03635 68.666016 880.97656 A 115.0115 115.0115 0 0 0 68.707031 884.01367 C 72.907313 1043.0577 135.97411 1167.0364 228.0332 1240.1699 C 319.59939 1312.9119 424.27914 1340.0128 518.35547 1364.9395 L 683.83398 1413.498 A 115.0115 115.0115 0 0 0 686.44922 1414.2305 C 735.98633 1427.5039 779.74852 1442.8573 815.02734 1460.7695 C 828.2496 1470.9819 839.50152 1481.6587 848.99414 1492.7188 C 885.41587 1535.1545 903.95783 1587.641 902.93555 1672.627 A 100.01 100.01 0 0 0 902.92773 1673.8301 C 902.92773 1738.6093 883.47434 1782.9817 845.32227 1816.4062 C 807.17019 1849.8309 742.86029 1875.5708 638.75586 1873.0293 A 100.01 100.01 0 0 0 636.31641 1873 C 495.67581 1873 429.66544 1823.5131 385.66992 1765.8105 C 341.6744 1708.108 327.12695 1630.0759 327.12695 1608 A 100.01 100.01 0 0 0 228.50195 1506.6875 A 115.0115 115.0115 0 0 0 56.402344 1608 C 56.402344 1726.3722 97.331715 1853.1393 186.62305 1956.1797 C 275.91438 2059.2201 418.05612 2133 593.51758 2133 C 738.20237 2133 874.04843 2110.3989 984.08789 2035.0352 C 1094.1274 1959.6714 1162.4629 1825.2435 1162.4629 1666.8438 C 1162.4629 1520.4356 1107.3832 1400.7703 1023.4336 1325.6211 C 940.16077 1251.0777 840.54152 1217.539 748.24609 1192.7012 L 581.73633 1143.8398 A 115.0115 115.0115 0 0 0 578.82031 1143.0254 C 504.52781 1123.3341 441.66945 1103.1272 397.89062 1078.0078 C 396.54464 1076.9317 395.21881 1075.8467 393.91797 1074.752 C 350.31077 1038.0547 322.78125 996.23783 322.78125 896.88281 C 322.78125 771.7432 432.44125 678.38933 592.25 678.01758 C 708.65483 680.308 774.04689 719.14359 818.20117 770.2168 C 862.46639 821.41833 883.66815 891.34341 884.00195 952.54492 A 100.01 100.01 0 0 0 989.34375 1053.2051 A 115.0115 115.0115 0 0 0 1161.5977 951.35547 C 1159.9308 646.24903 906.07075 432.69685 643.71289 432.94531 z "
       transform="translate(0,-288)"
       id="path5848-2-90-2-3" />
  </g>
</svg>
