<?xml version="1.0" encoding="UTF-8" standalone="no"?>
<!--?xml version="1.0" encoding="UTF-8" standalone="no"?-->

<svg
   xmlns:dc="http://purl.org/dc/elements/1.1/"
   xmlns:cc="http://creativecommons.org/ns#"
   xmlns:rdf="http://www.w3.org/1999/02/22-rdf-syntax-ns#"
   xmlns:svg="http://www.w3.org/2000/svg"
   xmlns="http://www.w3.org/2000/svg"
   xmlns:sodipodi="http://sodipodi.sourceforge.net/DTD/sodipodi-0.dtd"
   xmlns:inkscape="http://www.inkscape.org/namespaces/inkscape"
   version="1.1"
   viewBox="0 -288 1296 2048"
   id="svg6"
   sodipodi:docname="V.svg"
   width="1296"
   height="2048"
   inkscape:version="0.92.1 r">
  <metadata
     id="metadata12">
    <rdf:rdf>
      <cc:work
         rdf:about="">
        <dc:format>image/svg+xml</dc:format>
        <dc:type
           rdf:resource="http://purl.org/dc/dcmitype/StillImage" />
        <dc:title />
      </cc:work>
    </rdf:rdf>
    <rdf:RDF>
      <cc:Work
         rdf:about="">
        <dc:format>image/svg+xml</dc:format>
        <dc:type
           rdf:resource="http://purl.org/dc/dcmitype/StillImage" />
      </cc:Work>
    </rdf:RDF>
  </metadata>
  <defs
     id="defs10" />
  <sodipodi:namedview
     pagecolor="#ffffff"
     bordercolor="#666666"
     borderopacity="1"
     objecttolerance="10"
     gridtolerance="10"
     guidetolerance="10"
     inkscape:pageopacity="0"
     inkscape:pageshadow="2"
     inkscape:window-width="1364"
     inkscape:window-height="730"
     id="namedview8"
     showgrid="false"
     inkscape:zoom="0.13638058"
     inkscape:cx="96.995403"
     inkscape:cy="1048.1702"
     inkscape:window-x="0"
     inkscape:window-y="18"
     inkscape:window-maximized="0"
     inkscape:current-layer="layer3"
     inkscape:measure-start="121.623,1547.26"
     inkscape:measure-end="200.943,1547.26"
     showguides="true"
     inkscape:guide-bbox="true">
    <sodipodi:guide
       position="650.11518,-83.75717"
       orientation="1,0"
       id="guide3860"
       inkscape:locked="false" />
    <sodipodi:guide
       position="750.5399,497.41965"
       orientation="0,1"
       id="guide893"
       inkscape:locked="false" />
    <sodipodi:guide
       position="1214.479,1532.0582"
       orientation="0,1"
       id="guide61"
       inkscape:locked="false" />
  </sodipodi:namedview>
  <g
     inkscape:groupmode="layer"
     id="layer3"
     inkscape:label="trace"
     style="display:inline">
    <path
       style="color:#000000;font-style:normal;font-variant:normal;font-weight:normal;font-stretch:normal;font-size:medium;line-height:normal;font-family:sans-serif;font-variant-ligatures:normal;font-variant-position:normal;font-variant-caps:normal;font-variant-numeric:normal;font-variant-alternates:normal;font-feature-settings:normal;text-indent:0;text-align:start;text-decoration:none;text-decoration-line:none;text-decoration-style:solid;text-decoration-color:#000000;letter-spacing:normal;word-spacing:normal;text-transform:none;writing-mode:lr-tb;direction:ltr;text-orientation:mixed;dominant-baseline:auto;baseline-shift:baseline;text-anchor:start;white-space:normal;shape-padding:0;clip-rule:nonzero;display:inline;overflow:visible;visibility:visible;opacity:1;isolation:auto;mix-blend-mode:normal;color-interpolation:sRGB;color-interpolation-filters:linearRGB;solid-color:#000000;solid-opacity:1;vector-effect:none;fill:#000000;fill-opacity:1;fill-rule:evenodd;stroke:none;stroke-width:230;stroke-linecap:round;stroke-linejoin:round;stroke-miterlimit:4;stroke-dasharray:none;stroke-dashoffset:0;stroke-opacity:1;color-rendering:auto;image-rendering:auto;shape-rendering:auto;text-rendering:auto;enable-background:accumulate"
       d="M 183.40234 381.375 A 115.0115 115.0115 0 0 0 127.78906 396.72266 A 100.01 100.01 0 0 0 123.60742 396.58789 A 100.01 100.01 0 0 0 25.113281 498 C 25.113281 525.35402 27.291582 519.23656 27.972656 522.21289 C 28.65373 525.18922 29.20928 527.30551 29.828125 529.62891 C 31.065814 534.27569 32.514434 539.37871 34.34375 545.68359 C 38.002383 558.29337 43.111852 575.35956 49.589844 596.68945 C 62.545828 639.34923 80.911444 698.82436 102.93945 769.66016 C 146.99548 911.33175 205.66482 1098.3032 264.33398 1284.709 C 343.01376 1534.6932 418.63282 1773.9617 461.93164 1910.8633 C 481.31493 1978.9566 495.72266 2029.5352 495.72266 2029.5352 A 115.0115 115.0115 0 0 0 606.31641 2113.0059 L 695.24805 2113.0059 A 115.0115 115.0115 0 0 0 805.8418 2029.5352 C 805.8418 2029.5352 820.24397 1978.975 839.62109 1910.9043 C 882.9174 1774.0107 958.54548 1534.7161 1037.2324 1284.709 C 1095.9016 1098.3032 1154.5709 911.33174 1198.627 769.66016 C 1220.655 698.82436 1239.0186 639.34923 1251.9746 596.68945 C 1258.4526 575.35956 1263.5621 558.29337 1267.2207 545.68359 C 1269.05 539.37871 1270.4986 534.27569 1271.7363 529.62891 C 1272.3552 527.30551 1272.9107 525.18922 1273.5918 522.21289 C 1274.2729 519.23656 1276.4512 525.35402 1276.4512 498 A 100.01 100.01 0 0 0 1174.1367 397.24609 A 115.0115 115.0115 0 0 0 1002.752 479.08789 C 1002.9021 478.90305 1003.0336 478.81206 1003.1191 478.63672 C 1003.1266 478.60552 1003.1508 478.51181 1003.1562 478.48828 C 1003.3679 477.56856 1003.4329 477.15753 1003.1914 478.41406 C 1003.1741 478.50416 1003.1491 478.57527 1003.1191 478.63672 C 1003.0059 479.1117 1002.6904 480.35602 1002.5605 480.89844 A 115.0115 115.0115 0 0 0 1001.4297 498 C 1001.4297 490.13959 1001.6479 486.2183 1001.9102 483.51953 C 1001.3953 485.62024 1001.0861 486.95741 1000.2832 490.09766 C 997.44929 501.18214 993.00903 517.91854 987.32422 538.92969 C 975.9546 580.95199 959.54474 640.36937 939.8418 711.07031 C 900.43591 852.47219 847.81043 1039.1893 795.18359 1225.1992 C 742.67825 1410.7797 690.22777 1595.4557 650.7832 1734.166 C 611.33863 1595.4557 558.88816 1410.7797 506.38281 1225.1992 C 453.75598 1039.1893 401.1305 852.47219 361.72461 711.07031 C 342.02166 640.36937 325.6118 580.95199 314.24219 538.92969 C 308.55738 517.91854 304.11516 501.18214 301.28125 490.09766 C 300.4791 486.96014 300.1709 485.62535 299.65625 483.52539 C 299.91822 486.22495 300.13477 490.14546 300.13477 498 A 115.0115 115.0115 0 0 0 298.89258 480.44141 C 298.78808 480.00234 298.48179 478.80108 298.41016 478.49023 C 298.46864 478.65522 298.56548 478.7276 298.67188 478.81641 A 115.0115 115.0115 0 0 0 183.40234 381.375 z M 298.22266 477.63477 C 298.23516 477.69542 298.30424 478.02841 298.41016 478.48828 C 298.40015 478.45973 298.38195 478.45024 298.375 478.41406 C 298.25428 477.78579 298.21015 477.57411 298.22266 477.63477 z "
       transform="translate(0,-288)"
       id="path5236-7-72-2-3" />
  </g>
</svg>
