<?xml version="1.0" encoding="UTF-8" standalone="no"?>
<!--?xml version="1.0" encoding="UTF-8" standalone="no"?-->

<svg
   xmlns:dc="http://purl.org/dc/elements/1.1/"
   xmlns:cc="http://creativecommons.org/ns#"
   xmlns:rdf="http://www.w3.org/1999/02/22-rdf-syntax-ns#"
   xmlns:svg="http://www.w3.org/2000/svg"
   xmlns="http://www.w3.org/2000/svg"
   xmlns:sodipodi="http://sodipodi.sourceforge.net/DTD/sodipodi-0.dtd"
   xmlns:inkscape="http://www.inkscape.org/namespaces/inkscape"
   version="1.1"
   viewBox="0 -288 1520 2048"
   id="svg6"
   sodipodi:docname="W.svg"
   width="1520"
   height="2048"
   inkscape:version="0.92.1 r">
  <metadata
     id="metadata12">
    <rdf:rdf>
      <cc:work
         rdf:about="">
        <dc:format>image/svg+xml</dc:format>
        <dc:type
           rdf:resource="http://purl.org/dc/dcmitype/StillImage" />
        <dc:title />
      </cc:work>
    </rdf:rdf>
    <rdf:RDF>
      <cc:Work
         rdf:about="">
        <dc:format>image/svg+xml</dc:format>
        <dc:type
           rdf:resource="http://purl.org/dc/dcmitype/StillImage" />
      </cc:Work>
    </rdf:RDF>
  </metadata>
  <defs
     id="defs10" />
  <sodipodi:namedview
     pagecolor="#ffffff"
     bordercolor="#666666"
     borderopacity="1"
     objecttolerance="10"
     gridtolerance="10"
     guidetolerance="10"
     inkscape:pageopacity="0"
     inkscape:pageshadow="2"
     inkscape:window-width="1364"
     inkscape:window-height="730"
     id="namedview8"
     showgrid="false"
     inkscape:zoom="0.2282643"
     inkscape:cx="28.947739"
     inkscape:cy="1584.3354"
     inkscape:window-x="0"
     inkscape:window-y="18"
     inkscape:window-maximized="0"
     inkscape:current-layer="layer3"
     inkscape:measure-start="108.932,1160.18"
     inkscape:measure-end="190.719,1160.18"
     showguides="true"
     inkscape:guide-bbox="true">
    <sodipodi:guide
       position="1447.4228,1514.4019"
       orientation="0,1"
       id="guide4527"
       inkscape:locked="false" />
  </sodipodi:namedview>
  <g
     inkscape:groupmode="layer"
     id="layer3"
     inkscape:label="trace">
    <path
       style="color:#000000;font-style:normal;font-variant:normal;font-weight:normal;font-stretch:normal;font-size:medium;line-height:normal;font-family:sans-serif;font-variant-ligatures:normal;font-variant-position:normal;font-variant-caps:normal;font-variant-numeric:normal;font-variant-alternates:normal;font-feature-settings:normal;text-indent:0;text-align:start;text-decoration:none;text-decoration-line:none;text-decoration-style:solid;text-decoration-color:#000000;letter-spacing:normal;word-spacing:normal;text-transform:none;writing-mode:lr-tb;direction:ltr;text-orientation:mixed;dominant-baseline:auto;baseline-shift:baseline;text-anchor:start;white-space:normal;shape-padding:0;clip-rule:nonzero;display:inline;overflow:visible;visibility:visible;opacity:1;isolation:auto;mix-blend-mode:normal;color-interpolation:sRGB;color-interpolation-filters:linearRGB;solid-color:#000000;solid-opacity:1;vector-effect:none;fill:#050000;fill-opacity:1;fill-rule:evenodd;stroke:none;stroke-width:230;stroke-linecap:round;stroke-linejoin:round;stroke-miterlimit:4;stroke-dasharray:none;stroke-dashoffset:0;stroke-opacity:1;color-rendering:auto;image-rendering:auto;shape-rendering:auto;text-rendering:auto;enable-background:accumulate"
       d="M 136.00781 381.375 A 115.0115 115.0115 0 0 0 22.740234 498 C 22.740234 515.21786 23.620951 513.85892 24.21875 518.91602 C 24.816549 523.97311 25.557174 529.59276 26.486328 536.34766 C 28.344637 549.85746 30.943853 567.68565 34.234375 589.65039 C 40.815419 633.57987 50.134681 693.84023 61.310547 765.11719 C 83.662279 907.67111 113.42057 1094.1389 143.17773 1279.498 C 202.69206 1650.2163 262.19531 2016.4434 262.19531 2016.4434 A 115.0115 115.0115 0 0 0 375.70703 2113 L 517.33008 2113 A 115.0115 115.0115 0 0 0 631.25586 2013.6895 L 752.66016 1132.1016 L 874.1875 2013.7031 A 115.0115 115.0115 0 0 0 988.10938 2113 L 1129.7324 2113 A 115.0115 115.0115 0 0 0 1243.2441 2016.4453 C 1243.2441 2016.4453 1302.7473 1650.2536 1362.2617 1279.5527 C 1392.0189 1094.2023 1421.777 907.73948 1444.1289 765.17773 C 1455.3049 693.89686 1464.6238 633.62862 1471.2051 589.6875 C 1474.4957 567.71694 1477.0965 549.88247 1478.9551 536.36328 C 1479.8844 529.60369 1480.6247 523.9796 1481.2227 518.91602 C 1481.8206 513.85243 1482.6992 515.15705 1482.6992 498 A 115.0115 115.0115 0 0 0 1310.3633 396.71484 A 100.01 100.01 0 0 0 1213.832 498 C 1213.832 475.76062 1213.6571 496.69732 1212.2051 508.73047 C 1210.7531 520.76362 1208.538 538.10012 1205.707 559.63281 C 1200.045 602.6982 1191.9012 662.70812 1182.123 733.75 C 1162.5667 875.83376 1136.4612 1062.1653 1110.3555 1247.3867 C 1086.4783 1416.7961 1081.4828 1451.2135 1062.5977 1584.1953 L 933.17773 535.75 A 100.01 100.01 0 0 0 846.51367 448.88086 A 115.0115 115.0115 0 0 0 788.23047 433 L 717.01172 433 A 115.0115 115.0115 0 0 0 658.94336 448.88086 A 100.01 100.01 0 0 0 572.19922 535.75391 L 442.83398 1584.1289 C 423.95013 1451.15 418.95756 1416.7444 395.08398 1247.3555 C 368.97823 1062.1287 342.87277 875.79512 323.31641 733.71484 C 313.53822 662.67471 305.39454 602.66784 299.73242 559.60742 C 296.90136 538.07722 294.68647 520.74315 293.23438 508.71289 C 291.78226 496.68263 291.60938 475.69698 291.60938 498 A 100.01 100.01 0 0 0 194.95703 396.75781 A 115.0115 115.0115 0 0 0 136.00781 381.375 z "
       transform="translate(0,-288)"
       id="path5109-6-3" />
  </g>
</svg>
