<?xml version="1.0" encoding="UTF-8" standalone="no"?>
<svg
   xmlns:dc="http://purl.org/dc/elements/1.1/"
   xmlns:cc="http://creativecommons.org/ns#"
   xmlns:rdf="http://www.w3.org/1999/02/22-rdf-syntax-ns#"
   xmlns:svg="http://www.w3.org/2000/svg"
   xmlns="http://www.w3.org/2000/svg"
   xmlns:sodipodi="http://sodipodi.sourceforge.net/DTD/sodipodi-0.dtd"
   xmlns:inkscape="http://www.inkscape.org/namespaces/inkscape"
   version="1.1"
   viewBox="0 -288 1304 2048"
   id="svg6"
   sodipodi:docname="B-ext.svg"
   width="1304"
   height="2048"
   inkscape:version="0.92.1 r">
  <metadata
     id="metadata12">
    <rdf:RDF>
      <cc:Work
         rdf:about="">
        <dc:format>image/svg+xml</dc:format>
        <dc:type
           rdf:resource="http://purl.org/dc/dcmitype/StillImage" />
        <dc:title></dc:title>
      </cc:Work>
    </rdf:RDF>
  </metadata>
  <defs
     id="defs10" />
  <sodipodi:namedview
     pagecolor="#ffffff"
     bordercolor="#666666"
     borderopacity="1"
     objecttolerance="10"
     gridtolerance="10"
     guidetolerance="10"
     inkscape:pageopacity="0"
     inkscape:pageshadow="2"
     inkscape:window-width="1364"
     inkscape:window-height="730"
     id="namedview8"
     showgrid="false"
     inkscape:zoom="0.23046875"
     inkscape:cx="259.34048"
     inkscape:cy="447.26501"
     inkscape:window-x="0"
     inkscape:window-y="18"
     inkscape:window-maximized="0"
     inkscape:current-layer="layer4"
     showguides="true"
     inkscape:guide-bbox="true"
     inkscape:measure-start="496.269,1540.2"
     inkscape:measure-end="496.269,1389.86">
    <sodipodi:guide
       position="751.69046,763.96296"
       orientation="1,0"
       id="guide844"
       inkscape:locked="false" />
    <sodipodi:guide
       position="1042.3953,1202.7047"
       orientation="1,0"
       id="guide39"
       inkscape:locked="false" />
    <sodipodi:guide
       position="1094.5534,1236.4541"
       orientation="1,0"
       id="guide41"
       inkscape:locked="false" />
    <sodipodi:guide
       position="1103.1864,471.32204"
       orientation="1,0"
       id="guide43"
       inkscape:locked="false" />
    <sodipodi:guide
       position="1157.9661,442.0339"
       orientation="1,0"
       id="guide45"
       inkscape:locked="false" />
  </sodipodi:namedview>
  <g
     inkscape:groupmode="layer"
     id="layer1"
     inkscape:label="model"
     sodipodi:insensitive="true"
     style="display:none">
    <g
       transform="matrix(1,0,0,-1,0,1760)"
       id="g4"
       style="fill:#b3b3b3">
      <path
         d="m 160,0 v 1552 h 600 q 152,0 268,-100 116,-100 116,-276 0,-216 -184,-328 256,-152 256,-440 0,-200 -112,-304 Q 992,0 816,0 Z m 144,144 h 512 q 104,0 180,64 76,64 76,200 0,184 -100,272 -100,88 -212,88 H 304 Z m 0,760 h 456 q 96,0 164,68 68,68 68,204 0,120 -68,180 -68,60 -164,60 H 304 Z"
         id="path2"
         inkscape:connector-curvature="0"
         style="fill:#b3b3b3" />
    </g>
  </g>
  <g
     inkscape:groupmode="layer"
     id="layer2"
     inkscape:label="guides"
     sodipodi:insensitive="true"
     style="display:none">
    <path
       style="display:inline;fill:none;fill-rule:evenodd;stroke:#ff0000;stroke-width:1.29807782px;stroke-linecap:butt;stroke-linejoin:miter;stroke-opacity:1"
       d="M -357.86483,1779.351 H 1342.7327"
       id="path824-3"
       inkscape:connector-curvature="0" />
    <path
       style="display:inline;fill:none;fill-rule:evenodd;stroke:#0000ff;stroke-width:1.29807782px;stroke-linecap:butt;stroke-linejoin:miter;stroke-opacity:1"
       d="M -357.86483,1759.351 H 1342.7327"
       id="path824-3-6"
       inkscape:connector-curvature="0" />
    <path
       style="display:inline;fill:none;fill-rule:evenodd;stroke:#0000ff;stroke-width:1.29807782px;stroke-linecap:butt;stroke-linejoin:miter;stroke-opacity:1"
       d="m -357.86483,593.75093 1700.59753,-1e-5"
       id="path824-3-6-7"
       inkscape:connector-curvature="0" />
    <path
       style="display:inline;fill:none;fill-rule:evenodd;stroke:#0000ff;stroke-width:1.29807782px;stroke-linecap:butt;stroke-linejoin:miter;stroke-opacity:1"
       d="m -357.86483,134.13445 1700.59753,-10e-6"
       id="path824-3-6-7-3-6"
       inkscape:connector-curvature="0" />
    <path
       style="display:inline;fill:none;fill-rule:evenodd;stroke:#00ff00;stroke-width:1.29807782px;stroke-linecap:butt;stroke-linejoin:miter;stroke-opacity:1"
       d="m -357.86483,208.13445 1700.59753,-10e-6"
       id="path824-3-6-7-3-6-3"
       inkscape:connector-curvature="0" />
  </g>
  <g
     inkscape:groupmode="layer"
     id="layer3"
     inkscape:label="traces"
     style="display:inline">
    <path
       sodipodi:nodetypes="cccccccccc"
       inkscape:connector-curvature="0"
       id="path5236-7-72-2"
       d="m 211.31706,940 h 411.34061 c 227.64809,0 420.05923,-74.27224 420.05923,-347.03116 0,-193.4719 -63.49413,-335.72774 -321.4203,-335.72774 H 212.13255 V 1710 h 556.47633 c 296.93802,0 335.60802,-172.075 335.60802,-382.343 C 1104.2169,1020.4843 932.14929,940 622.65767,940 H 211.31706"
       style="display:inline;fill:none;fill-rule:evenodd;stroke:#000000;stroke-width:100;stroke-linecap:butt;stroke-linejoin:miter;stroke-miterlimit:4;stroke-dasharray:none;stroke-opacity:1"
       class="ext" />
  </g>
  <g
     inkscape:groupmode="layer"
     id="layer4"
     inkscape:label="traces 2"
     style="display:inline">
    <path
       sodipodi:nodetypes="cccccccccc"
       inkscape:connector-curvature="0"
       id="path5236-72-2"
       d="M 252.35323,940 H 634.657 C 824.86818,940 1099.0101,834.57982 1094.2034,579.2881 1094.2034,449.52327 945.4119,295 719.22034,295 h -467.0981 v 1370.6861 l 475.02627,-0.1898 c 278.68519,0 434.10459,-141.8556 430.66839,-365.3854 C 1157.8169,1023.8151 888.78938,940 634.58246,940 H 252.35323"
       style="display:inline;fill:none;fill-rule:evenodd;stroke:#000000;stroke-width:100;stroke-linecap:butt;stroke-linejoin:miter;stroke-miterlimit:4;stroke-dasharray:none;stroke-opacity:1"
       class="int" />
  </g>
</svg>
