<?xml version="1.0" encoding="UTF-8" standalone="no"?>
<svg
   xmlns:dc="http://purl.org/dc/elements/1.1/"
   xmlns:cc="http://creativecommons.org/ns#"
   xmlns:rdf="http://www.w3.org/1999/02/22-rdf-syntax-ns#"
   xmlns:svg="http://www.w3.org/2000/svg"
   xmlns="http://www.w3.org/2000/svg"
   xmlns:xlink="http://www.w3.org/1999/xlink"
   xmlns:sodipodi="http://sodipodi.sourceforge.net/DTD/sodipodi-0.dtd"
   xmlns:inkscape="http://www.inkscape.org/namespaces/inkscape"
   version="1.1"
   viewBox="0 -288 6574.6753 1658.6635"
   id="svg6"
   sodipodi:docname="gradient-in-text-nnnnn.svg"
   width="6574.6753"
   height="1658.6635"
   inkscape:version="0.91 r13725">
  <metadata
     id="metadata12">
    <rdf:RDF>
      <cc:Work
         rdf:about="">
        <dc:format>image/svg+xml</dc:format>
        <dc:type
           rdf:resource="http://purl.org/dc/dcmitype/StillImage" />
        <dc:title></dc:title>
      </cc:Work>
    </rdf:RDF>
  </metadata>
  <defs
     id="defs10">
    <linearGradient
       inkscape:collect="always"
       id="linearGradient3548">
      <stop
         style="stop-color:#abc837;stop-opacity:1"
         offset="0"
         id="stop3550" />
      <stop
         id="stop3556"
         offset="0.50798988"
         style="stop-color:#0066ff;stop-opacity:1" />
      <stop
         style="stop-color:#abc837;stop-opacity:1"
         offset="1"
         id="stop3552" />
    </linearGradient>
    <linearGradient
       inkscape:collect="always"
       id="linearGradient3538">
      <stop
         style="stop-color:#0055d4;stop-opacity:1"
         offset="0"
         id="stop3540" />
      <stop
         id="stop3546"
         offset="0.48982465"
         style="stop-color:#71c837;stop-opacity:1" />
      <stop
         style="stop-color:#0066ff;stop-opacity:1"
         offset="1"
         id="stop3542" />
    </linearGradient>
    <linearGradient
       inkscape:collect="always"
       xlink:href="#linearGradient3538"
       id="linearGradient3544"
       x1="78.048088"
       y1="1209.9551"
       x2="6499.3799"
       y2="1339.4609"
       gradientUnits="userSpaceOnUse" />
    <linearGradient
       inkscape:collect="always"
       xlink:href="#linearGradient3548"
       id="linearGradient3554"
       x1="56.463779"
       y1="1258.5198"
       x2="6472.3994"
       y2="1258.5198"
       gradientUnits="userSpaceOnUse" />
  </defs>
  <sodipodi:namedview
     pagecolor="#ffffff"
     bordercolor="#666666"
     borderopacity="1"
     objecttolerance="10"
     gridtolerance="10"
     guidetolerance="10"
     inkscape:pageopacity="0"
     inkscape:pageshadow="2"
     inkscape:window-width="1855"
     inkscape:window-height="1056"
     id="namedview8"
     showgrid="false"
     inkscape:zoom="0.18531982"
     inkscape:cx="3624.1792"
     inkscape:cy="912.52579"
     inkscape:window-x="65"
     inkscape:window-y="24"
     inkscape:window-maximized="1"
     inkscape:current-layer="layer2"
     inkscape:measure-start="181.477,341.874"
     inkscape:measure-end="274.966,341.874"
     fit-margin-top="200"
     fit-margin-left="200"
     fit-margin-right="200"
     fit-margin-bottom="200" />
  <g
     inkscape:groupmode="layer"
     id="layer2"
     inkscape:label="trace"
     transform="translate(35.26953,-589.34636)"
     style="display:inline">
    <path
       id="path3507"
       style="color:#000000;font-style:normal;font-variant:normal;font-weight:normal;font-stretch:normal;font-size:medium;line-height:normal;font-family:sans-serif;text-indent:0;text-align:start;text-decoration:none;text-decoration-line:none;text-decoration-style:solid;text-decoration-color:#000000;letter-spacing:normal;word-spacing:normal;text-transform:none;direction:ltr;block-progression:tb;writing-mode:lr-tb;baseline-shift:baseline;text-anchor:start;white-space:normal;clip-rule:nonzero;display:inline;overflow:visible;visibility:visible;opacity:1;isolation:auto;mix-blend-mode:normal;color-interpolation:sRGB;color-interpolation-filters:linearRGB;solid-color:#000000;solid-opacity:1;fill:url(#linearGradient3554);fill-opacity:1;fill-rule:evenodd;stroke:none;stroke-width:100;stroke-linecap:butt;stroke-linejoin:miter;stroke-miterlimit:4;stroke-dasharray:none;stroke-dashoffset:0;stroke-opacity:1;color-rendering:auto;image-rendering:auto;shape-rendering:auto;text-rendering:auto;enable-background:accumulate"
       d="m 5750.1943,501.35742 a 10.001,10.001 0 0 0 -9.8575,13.43946 c 0,0 14.7608,41.94682 28.2344,80.20312 l -80.5468,0 0,241.0703 c -19.8779,28.192 -31.4981,47.3184 -31.4981,47.3184 l 31.4981,19.1543 0,857.457 99.9999,0 0,-891.4219 c 13.5898,-18.1295 29.6172,-38.3086 47.4297,-58.4609 55.0619,-62.2944 127.9511,-115.43851 170.752,-115.47267 0.4694,0.005 16.8912,0.17664 33.8574,0.35352 8.6035,0.0897 17.2263,0.17876 23.7383,0.24609 3.256,0.0337 5.9826,0.0623 7.9199,0.082 1.9374,0.0197 -1.0881,0.0305 3.625,0.0332 l 0.016,0 0.014,0 c 84.0657,0 115.1933,30.15372 137.1191,70.73442 21.9259,40.5806 26.9102,96.0886 26.9102,131.2402 l 0,862.67584 100,0 0,-862.67584 c 0,-42.2347 -3.2392,-112.7154 -38.9316,-178.7754 -35.6893,-66.05415 -111.5656,-123.1892 -225.0684,-123.19922 3.9709,0.002 -0.7886,-0.0103 -2.666,-0.0293 -1.9263,-0.0196 -4.6511,-0.0464 -7.9043,-0.0801 -6.5063,-0.0673 -15.1284,-0.15837 -23.7305,-0.24805 -17.204,-0.17936 -34.332,-0.35742 -34.332,-0.35742 l -0.2617,-0.004 -0.2617,0 c -72.7356,0 -134.2127,39.33424 -185.8536,87.07032 -0.013,-0.0367 -0.018,-0.0531 -0.031,-0.0899 -6.9389,-19.55645 -16.0486,-45.35268 -25.1094,-71.05078 -18.1216,-51.39614 -36.0488,-102.40429 -36.0488,-102.40429 a 10.001,10.001 0 0 0 -9.0117,-6.8086 z m 37.83,148.77735 c 4.636,13.12446 9.7595,27.65894 13.4903,38.17382 1.2421,3.50067 1.9576,5.48749 3.0488,8.55469 -5.6404,5.58934 -11.1475,11.24567 -16.5391,16.92382 l 0,-63.65233 z M 4972.4734,501.35742 a 10.001,10.001 0 0 0 -9.8574,13.43946 c 0,0 14.7608,41.94682 28.2344,80.20312 l -80.5469,0 0,241.0703 c -19.8778,28.192 -31.498,47.3184 -31.498,47.3184 l 31.498,19.1543 0,857.457 100,0 0,-891.4219 c 13.5897,-18.1295 29.6171,-38.3086 47.4297,-58.4609 55.0618,-62.2944 127.951,-115.43851 170.7519,-115.47267 0.4694,0.005 16.8913,0.17664 33.8575,0.35352 8.6034,0.0897 17.2262,0.17876 23.7382,0.24609 3.2561,0.0337 5.9826,0.0623 7.92,0.082 1.9373,0.0197 -1.0882,0.0305 3.625,0.0332 l 0.016,0 0.014,0 c 84.0657,0 115.1933,30.15372 137.1191,70.73442 21.9259,40.5806 26.9102,96.0886 26.9102,131.2402 l 0,862.67584 100,0 0,-862.67584 c 0,-42.2347 -3.2393,-112.7154 -38.9317,-178.7754 -35.6893,-66.05415 -111.5655,-123.1892 -225.0683,-123.19922 3.9709,0.002 -0.7886,-0.0103 -2.6661,-0.0293 -1.9263,-0.0196 -4.6511,-0.0464 -7.9042,-0.0801 -6.5064,-0.0673 -15.1285,-0.15837 -23.7305,-0.24805 -17.2041,-0.17936 -34.332,-0.35742 -34.332,-0.35742 l -0.2618,-0.004 -0.2617,0 c -72.7355,0 -134.2126,39.33424 -185.8535,87.07032 -0.013,-0.0367 -0.018,-0.0531 -0.031,-0.0899 -6.9388,-19.55645 -16.0485,-45.35268 -25.1093,-71.05078 -18.1216,-51.39614 -36.0489,-102.40429 -36.0489,-102.40429 a 10.001,10.001 0 0 0 -9.0117,-6.8086 z m 37.8301,148.77735 c 4.636,13.12446 9.7594,27.65894 13.4902,38.17382 1.2421,3.50067 1.9576,5.48749 3.0489,8.55469 -5.6405,5.58934 -11.1476,11.24567 -16.5391,16.92382 l 0,-63.65233 z M 4184.383,501.35742 a 10.001,10.001 0 0 0 -9.8575,13.43946 c 0,0 14.7608,41.94682 28.2344,80.20312 l -80.5468,0 0,241.0703 c -19.8779,28.192 -31.4981,47.3184 -31.4981,47.3184 l 31.4981,19.1543 0,857.457 99.9999,0 0,-891.4219 c 13.5898,-18.1295 29.6172,-38.3086 47.4297,-58.4609 55.0619,-62.2944 127.9511,-115.43851 170.752,-115.47267 0.4694,0.005 16.8912,0.17664 33.8574,0.35352 8.6035,0.0897 17.2263,0.17876 23.7383,0.24609 3.256,0.0337 5.9826,0.0623 7.9199,0.082 1.9374,0.0197 -1.0881,0.0305 3.625,0.0332 l 0.016,0 0.014,0 c 84.0657,0 115.1933,30.15372 137.1191,70.73442 21.9259,40.5806 26.9102,96.0886 26.9102,131.2402 l 0,862.67584 100,0 0,-862.67584 c 0,-42.2347 -3.2392,-112.7154 -38.9316,-178.7754 -35.6893,-66.05415 -111.5656,-123.1892 -225.0684,-123.19922 3.9709,0.002 -0.7886,-0.0103 -2.666,-0.0293 -1.9263,-0.0196 -4.6511,-0.0464 -7.9043,-0.0801 -6.5063,-0.0673 -15.1284,-0.15837 -23.7305,-0.24805 -17.204,-0.17936 -34.332,-0.35742 -34.332,-0.35742 l -0.2617,-0.004 -0.2617,0 c -72.7356,0 -134.2127,39.33424 -185.8536,87.07032 -0.013,-0.0367 -0.018,-0.0531 -0.031,-0.0899 -6.9389,-19.55645 -16.0486,-45.35268 -25.1094,-71.05078 -18.1216,-51.39614 -36.0488,-102.40429 -36.0488,-102.40429 a 10.001,10.001 0 0 0 -9.0117,-6.8086 z m 37.83,148.77735 c 4.636,13.12446 9.7595,27.65894 13.4903,38.17382 1.2421,3.50067 1.9576,5.48749 3.0488,8.55469 -5.6404,5.58934 -11.1475,11.24567 -16.5391,16.92382 l 0,-63.65233 z M 3406.6621,501.35742 a 10.001,10.001 0 0 0 -9.8574,13.43946 c 0,0 14.7608,41.94682 28.2344,80.20312 l -80.5469,0 0,241.0703 c -19.8778,28.192 -31.498,47.3184 -31.498,47.3184 l 31.498,19.1543 0,857.457 100,0 0,-891.4219 c 13.5897,-18.1295 29.6172,-38.3086 47.4297,-58.4609 55.0618,-62.2944 127.951,-115.43851 170.752,-115.47267 0.4694,0.005 16.8912,0.17664 33.8574,0.35352 8.6035,0.0897 17.2262,0.17876 23.7383,0.24609 3.256,0.0337 5.9825,0.0623 7.9199,0.082 1.9373,0.0197 -1.0881,0.0305 3.625,0.0332 l 0.016,0 0.014,0 c 84.0657,0 115.1933,30.15372 137.1191,70.73442 21.9259,40.5806 26.9102,96.0886 26.9102,131.2402 l 0,862.67584 100,0 0,-862.67584 c 0,-42.2347 -3.2393,-112.7154 -38.9317,-178.7754 -35.6892,-66.05415 -111.5655,-123.1892 -225.0683,-123.19922 3.9709,0.002 -0.7886,-0.0103 -2.666,-0.0293 -1.9263,-0.0196 -4.6512,-0.0464 -7.9043,-0.0801 -6.5064,-0.0673 -15.1285,-0.15837 -23.7305,-0.24805 -17.2041,-0.17936 -34.332,-0.35742 -34.332,-0.35742 l -0.2617,-0.004 -0.2618,0 c -72.7355,0 -134.2126,39.33424 -185.8535,87.07032 -0.013,-0.0367 -0.018,-0.0531 -0.031,-0.0899 -6.9389,-19.55645 -16.0486,-45.35268 -25.1094,-71.05078 -18.1216,-51.39614 -36.0488,-102.40429 -36.0488,-102.40429 a 10.001,10.001 0 0 0 -9.0118,-6.8086 z m 37.8301,148.77735 c 4.636,13.12446 9.7595,27.65894 13.4903,38.17382 1.242,3.50067 1.9575,5.48749 3.0488,8.55469 -5.6405,5.58934 -11.1476,11.24567 -16.5391,16.92382 l 0,-63.65233 z M 2608.2021,501.35742 a 10.001,10.001 0 0 0 -9.8575,13.43946 c 0,0 14.7608,41.94682 28.2344,80.20312 l -80.5468,0 0,241.0703 c -19.8779,28.192 -31.4981,47.3184 -31.4981,47.3184 l 31.4981,19.1543 0,857.457 99.9999,0 0,-891.4219 c 13.5898,-18.1295 29.6172,-38.3086 47.4297,-58.4609 55.0619,-62.2944 127.9511,-115.43851 170.752,-115.47267 0.4694,0.005 16.8912,0.17664 33.8574,0.35352 8.6035,0.0897 17.2263,0.17876 23.7383,0.24609 3.256,0.0337 5.9826,0.0623 7.9199,0.082 1.9374,0.0197 -1.0881,0.0305 3.625,0.0332 l 0.016,0 0.014,0 c 84.0657,0 115.1933,30.15372 137.1191,70.73442 21.9259,40.5806 26.9102,96.0886 26.9102,131.2402 l 0,862.67584 100,0 0,-862.67584 c 0,-42.2347 -3.2392,-112.7154 -38.9316,-178.7754 -35.6893,-66.05415 -111.5656,-123.1892 -225.0684,-123.19922 3.9709,0.002 -0.7886,-0.0103 -2.666,-0.0293 -1.9263,-0.0196 -4.6511,-0.0464 -7.9043,-0.0801 -6.5063,-0.0673 -15.1284,-0.15837 -23.7305,-0.24805 -17.204,-0.17936 -34.332,-0.35742 -34.332,-0.35742 l -0.2617,-0.004 -0.2617,0 c -72.7356,0 -134.2127,39.33424 -185.8536,87.07032 -0.013,-0.0367 -0.018,-0.0531 -0.031,-0.0899 -6.9389,-19.55645 -16.0486,-45.35268 -25.1094,-71.05078 -18.1216,-51.39614 -36.0488,-102.40429 -36.0488,-102.40429 a 10.001,10.001 0 0 0 -9.0117,-6.8086 z m 37.83,148.77735 c 4.636,13.12446 9.7595,27.65894 13.4903,38.17382 1.2421,3.50067 1.9576,5.48749 3.0488,8.55469 -5.6404,5.58934 -11.1475,11.24567 -16.5391,16.92382 l 0,-63.65233 z M 1830.4812,501.35742 a 10.001,10.001 0 0 0 -9.8574,13.43946 c 0,0 14.7608,41.94682 28.2344,80.20312 l -80.5469,0 0,241.0703 c -19.8778,28.192 -31.498,47.3184 -31.498,47.3184 l 31.498,19.1543 0,857.457 100,0 0,-891.4219 c 13.5897,-18.1295 29.6171,-38.3086 47.4297,-58.4609 55.0618,-62.2944 127.951,-115.43851 170.7519,-115.47267 0.4694,0.005 16.8913,0.17664 33.8575,0.35352 8.6034,0.0897 17.2262,0.17876 23.7382,0.24609 3.2561,0.0337 5.9826,0.0623 7.92,0.082 1.9373,0.0197 -1.0882,0.0305 3.625,0.0332 l 0.016,0 0.014,0 c 84.0657,0 115.1933,30.15372 137.1191,70.73442 21.9259,40.5806 26.9102,96.0886 26.9102,131.2402 l 0,862.67584 100,0 0,-862.67584 c 0,-42.2347 -3.2393,-112.7154 -38.9317,-178.7754 -35.6893,-66.05415 -111.5655,-123.1892 -225.0683,-123.19922 3.9709,0.002 -0.7886,-0.0103 -2.6661,-0.0293 -1.9263,-0.0196 -4.6511,-0.0464 -7.9042,-0.0801 -6.5064,-0.0673 -15.1285,-0.15837 -23.7305,-0.24805 -17.2041,-0.17936 -34.332,-0.35742 -34.332,-0.35742 l -0.2618,-0.004 -0.2617,0 c -72.7355,0 -134.2126,39.33424 -185.8535,87.07032 -0.013,-0.0367 -0.018,-0.0531 -0.031,-0.0899 -6.9388,-19.55645 -16.0485,-45.35268 -25.1093,-71.05078 -18.1216,-51.39614 -36.0489,-102.40429 -36.0489,-102.40429 a 10.001,10.001 0 0 0 -9.0117,-6.8086 z m 37.8301,148.77735 c 4.636,13.12446 9.7594,27.65894 13.4902,38.17382 1.2421,3.50067 1.9576,5.48749 3.0489,8.55469 -5.6405,5.58934 -11.1476,11.24567 -16.5391,16.92382 l 0,-63.65233 z M 1042.3908,501.35742 a 10.001,10.001 0 0 0 -9.8575,13.43946 c 0,0 14.7608,41.94682 28.2344,80.20312 l -80.54685,0 0,241.0703 c -19.87785,28.192 -31.49805,47.3184 -31.49805,47.3184 l 31.49805,19.1543 0,857.457 99.99995,0 0,-891.4219 c 13.5898,-18.1295 29.6172,-38.3086 47.4297,-58.4609 55.0619,-62.2944 127.9511,-115.43851 170.752,-115.47267 0.4694,0.005 16.8912,0.17664 33.8574,0.35352 8.6035,0.0897 17.2263,0.17876 23.7383,0.24609 3.256,0.0337 5.9826,0.0623 7.9199,0.082 1.9374,0.0197 -1.0881,0.0305 3.625,0.0332 l 0.016,0 0.014,0 c 84.0657,0 115.1933,30.15372 137.1191,70.73442 21.9259,40.5806 26.9102,96.0886 26.9102,131.2402 l 0,862.67584 100,0 0,-862.67584 c 0,-42.2347 -3.2392,-112.7154 -38.9316,-178.7754 -35.6893,-66.05415 -111.5656,-123.1892 -225.0684,-123.19922 3.9709,0.002 -0.7886,-0.0103 -2.666,-0.0293 -1.9263,-0.0196 -4.6511,-0.0464 -7.9043,-0.0801 -6.5063,-0.0673 -15.1284,-0.15837 -23.7305,-0.24805 -17.204,-0.17936 -34.332,-0.35742 -34.332,-0.35742 l -0.2617,-0.004 -0.2617,0 c -72.7356,0 -134.2127,39.33424 -185.8536,87.07032 -0.013,-0.0367 -0.018,-0.0531 -0.031,-0.0899 -6.9389,-19.55645 -16.0486,-45.35268 -25.1094,-71.05078 -18.1216,-51.39614 -36.0488,-102.40429 -36.0488,-102.40429 a 10.001,10.001 0 0 0 -9.0117,-6.8086 z m 37.83,148.77735 c 4.636,13.12446 9.7595,27.65894 13.4903,38.17382 1.2421,3.50067 1.9576,5.48749 3.0488,8.55469 -5.6404,5.58934 -11.1475,11.24567 -16.5391,16.92382 l 0,-63.65233 z M 264.66992,501.35742 a 10.001,10.001 0 0 0 -9.85742,13.43946 c 0,0 14.76079,41.94682 28.23438,80.20312 l -80.54688,0 0,241.0703 c -19.87785,28.192 -31.49805,47.3184 -31.49805,47.3184 L 202.5,902.543 l 0,857.457 100,0 0,-891.4219 c 13.58971,-18.1295 29.61714,-38.3086 47.42969,-58.4609 55.06183,-62.2944 127.95103,-115.43851 170.75195,-115.47267 0.46939,0.005 16.89123,0.17664 33.85742,0.35352 8.60348,0.0897 17.22625,0.17876 23.73828,0.24609 3.25602,0.0337 5.98258,0.0623 7.91993,0.082 1.93734,0.0197 -1.08814,0.0305 3.625,0.0332 l 0.0156,0 0.0137,0 c 84.06572,0 115.19329,30.15376 137.11914,70.73446 21.92585,40.5806 26.91016,96.0886 26.91016,131.2402 l 0,862.6758 100,0 0,-862.6758 c 0,-42.2347 -3.23924,-112.7154 -38.93164,-178.7754 -35.68928,-66.05419 -111.56554,-123.18924 -225.06836,-123.19926 3.97091,0.002 -0.78856,-0.0103 -2.66602,-0.0293 -1.92631,-0.0196 -4.65113,-0.0464 -7.90429,-0.0801 -6.50633,-0.0673 -15.12844,-0.15837 -23.73047,-0.24805 -17.20406,-0.17936 -34.33203,-0.35742 -34.33203,-0.35742 l -0.26172,-0.004 -0.26172,0 c -72.73551,0 -134.21265,39.33424 -185.85352,87.07032 -0.013,-0.0367 -0.0182,-0.0531 -0.0312,-0.0899 -6.93886,-19.55645 -16.04859,-45.35268 -25.10937,-71.05078 C 291.60891,559.17397 273.6817,508.16582 273.6817,508.16582 a 10.001,10.001 0 0 0 -9.01172,-6.8086 z M 302.5,650.13477 c 4.63597,13.12446 9.75943,27.65894 13.49023,38.17382 1.24208,3.50067 1.95758,5.48749 3.04883,8.55469 -5.64044,5.58934 -11.14755,11.24567 -16.53906,16.92382 l 0,-63.65233 z"
       inkscape:connector-curvature="0" />
  </g>
  <g
     inkscape:groupmode="layer"
     id="layer1"
     inkscape:label="trace 1"
     style="display:inline"
     transform="translate(35.26953,-589.34636)">
    <path
       id="path3515"
       style="color:#000000;font-style:normal;font-variant:normal;font-weight:normal;font-stretch:normal;font-size:medium;line-height:normal;font-family:sans-serif;text-indent:0;text-align:start;text-decoration:none;text-decoration-line:none;text-decoration-style:solid;text-decoration-color:#000000;letter-spacing:normal;word-spacing:normal;text-transform:none;direction:ltr;block-progression:tb;writing-mode:lr-tb;baseline-shift:baseline;text-anchor:start;white-space:normal;clip-rule:nonzero;display:inline;overflow:visible;visibility:visible;opacity:1;isolation:auto;mix-blend-mode:normal;color-interpolation:sRGB;color-interpolation-filters:linearRGB;solid-color:#000000;solid-opacity:1;fill:url(#linearGradient3544);fill-opacity:1;fill-rule:evenodd;stroke:none;stroke-width:100;stroke-linecap:butt;stroke-linejoin:miter;stroke-miterlimit:4;stroke-dasharray:none;stroke-dashoffset:0;stroke-opacity:1;color-rendering:auto;image-rendering:auto;shape-rendering:auto;text-rendering:auto;enable-background:accumulate"
       d="m 5732.8603,509.83789 a 10.001,10.001 0 0 0 -9.8574,13.43945 c 0,0 13.7531,39.07382 25.248,71.72266 l -97.9961,0 0,205.3242 0,808.7266 0,150.9492 100,0 0,-150.9492 0,-755.7617 32.1758,19.8535 c 0,0 101.0982,-158.1426 262.6387,-158.1426 83.9066,0 111.4605,27.7435 132.541,72.9648 21.0805,45.2214 25.4199,113.3034 25.4199,174.0821 l 0,797.9433 100,0 0,-797.9433 c 0,-63.711 -1.1378,-144.1527 -34.7852,-216.3321 C 6234.5977,673.53547 6158.1719,615 6045.0693,615 c -100.1364,0 -180.1334,40.95788 -238.045,86.3125 -1.3619,-3.82348 -2.3635,-6.61536 -3.9941,-11.21094 -6.9389,-19.55645 -16.0486,-45.35269 -25.1094,-71.05078 -18.1216,-51.39619 -36.0488,-102.40625 -36.0488,-102.40625 a 10.001,10.001 0 0 0 -9.0117,-6.80664 z m 17.3945,90.85156 c 4.1448,11.76979 4.3784,12.45782 8.8047,25.01172 9.063,25.70441 18.1755,51.50696 25.123,71.08789 2.612,7.36137 4.5246,12.71729 6.4083,17.98824 -15.2762,13.0851 -28.7359,26.226 -40.336,38.5938 l 0,-152.68165 z m -795.1154,-90.85156 a 10.001,10.001 0 0 0 -9.8574,13.43945 c 0,0 13.7532,39.07382 25.2481,71.72266 l -97.9961,0 0,205.3242 0,808.7266 0,150.9492 100,0 0,-150.9492 0,-755.7617 32.1758,19.8535 c 0,0 101.0982,-158.1426 262.6386,-158.1426 83.9066,0 111.4605,27.7435 132.541,72.9648 21.0805,45.2214 25.42,113.3034 25.42,174.0821 l 0,797.9433 100,0 0,-797.9433 c 0,-63.711 -1.1379,-144.1527 -34.7852,-216.3321 C 5456.8769,673.53547 5380.451,615 5267.3484,615 c -100.1363,0 -180.1334,40.95788 -238.0449,86.3125 -1.3619,-3.82348 -2.3636,-6.61536 -3.9941,-11.21094 -6.9389,-19.55645 -16.0486,-45.35269 -25.1094,-71.05078 -18.1216,-51.39619 -36.0488,-102.40625 -36.0488,-102.40625 a 10.001,10.001 0 0 0 -9.0118,-6.80664 z m 17.3946,90.85156 c 4.1447,11.76979 4.3783,12.45782 8.8047,25.01172 9.063,25.70441 18.1755,51.50696 25.123,71.08789 2.6119,7.36137 4.5246,12.71729 6.4082,17.98824 -15.2762,13.0851 -28.7358,26.226 -40.3359,38.5938 l 0,-152.68165 z m -805.485,-90.85156 a 10.001,10.001 0 0 0 -9.8574,13.43945 c 0,0 13.7531,39.07382 25.248,71.72266 l -97.9961,0 0,205.3242 0,808.7266 0,150.9492 100,0 0,-150.9492 0,-755.7617 32.1758,19.8535 c 0,0 101.0982,-158.1426 262.6387,-158.1426 83.9066,0 111.4605,27.7435 132.541,72.9648 21.0805,45.2214 25.4199,113.3034 25.4199,174.0821 l 0,797.9433 100,0 0,-797.9433 c 0,-63.711 -1.1378,-144.1527 -34.7852,-216.3321 C 4668.7864,673.53547 4592.3606,615 4479.258,615 c -100.1364,0 -180.1334,40.95788 -238.045,86.3125 -1.3619,-3.82348 -2.3635,-6.61536 -3.9941,-11.21094 -6.9389,-19.55645 -16.0486,-45.35269 -25.1094,-71.05078 -18.1216,-51.39619 -36.0488,-102.40625 -36.0488,-102.40625 a 10.001,10.001 0 0 0 -9.0117,-6.80664 z m 17.3945,90.85156 c 4.1448,11.76979 4.3784,12.45782 8.8047,25.01172 9.063,25.70441 18.1755,51.50696 25.123,71.08789 2.612,7.36137 4.5246,12.71729 6.4083,17.98824 -15.2762,13.0851 -28.7359,26.226 -40.336,38.5938 l 0,-152.68165 z m -795.1153,-90.85156 a 10.001,10.001 0 0 0 -9.8575,13.43945 c 0,0 13.7532,39.07382 25.2481,71.72266 l -97.9961,0 0,205.3242 0,808.7266 0,150.9492 100,0 0,-150.9492 0,-755.7617 32.1758,19.8535 c 0,0 101.0982,-158.1426 262.6386,-158.1426 83.9066,0 111.4606,27.7435 132.5411,72.9648 21.0805,45.2214 25.4199,113.3034 25.4199,174.0821 l 0,797.9433 100,0 0,-797.9433 c 0,-63.711 -1.1378,-144.1527 -34.7852,-216.3321 C 3891.0656,673.53547 3814.6398,615 3701.5371,615 c -100.1363,0 -180.1333,40.95788 -238.0449,86.3125 -1.3619,-3.82348 -2.3636,-6.61536 -3.9941,-11.21094 -6.9389,-19.55645 -16.0486,-45.35269 -25.1094,-71.05078 -18.1216,-51.39619 -36.0488,-102.40625 -36.0488,-102.40625 a 10.001,10.001 0 0 0 -9.0117,-6.80664 z m 17.3945,90.85156 c 4.1448,11.76979 4.3784,12.45782 8.8047,25.01172 9.063,25.70441 18.1755,51.50696 25.123,71.08789 2.6119,7.36137 4.5246,12.71729 6.4082,17.98824 -15.2762,13.0851 -28.7358,26.226 -40.3359,38.5938 l 0,-152.68165 z m -815.8546,-90.85156 a 10.001,10.001 0 0 0 -9.8574,13.43945 c 0,0 13.7531,39.07382 25.248,71.72266 l -97.9961,0 0,205.3242 0,808.7266 0,150.9492 100,0 0,-150.9492 0,-755.7617 32.1758,19.8535 c 0,0 101.0982,-158.1426 262.6387,-158.1426 83.9066,0 111.4605,27.7435 132.541,72.9648 21.0805,45.2214 25.4199,113.3034 25.4199,174.0821 l 0,797.9433 100,0 0,-797.9433 c 0,-63.711 -1.1378,-144.1527 -34.7852,-216.3321 C 3092.6055,673.53547 3016.1797,615 2903.0771,615 c -100.1364,0 -180.1334,40.95788 -238.045,86.3125 -1.3619,-3.82348 -2.3635,-6.61536 -3.9941,-11.21094 -6.9389,-19.55645 -16.0486,-45.35269 -25.1094,-71.05078 -18.1216,-51.39619 -36.0488,-102.40625 -36.0488,-102.40625 a 10.001,10.001 0 0 0 -9.0117,-6.80664 z m 17.3945,90.85156 c 4.1448,11.76979 4.3784,12.45782 8.8047,25.01172 9.063,25.70441 18.1755,51.50696 25.123,71.08789 2.612,7.36137 4.5246,12.71729 6.4083,17.98824 -15.2762,13.0851 -28.7359,26.226 -40.336,38.5938 l 0,-152.68165 z m -795.1154,-90.85156 a 10.001,10.001 0 0 0 -9.8574,13.43945 c 0,0 13.7532,39.07382 25.2481,71.72266 l -97.9961,0 0,205.3242 0,808.7266 0,150.9492 100,0 0,-150.9492 0,-755.7617 32.1758,19.8535 c 0,0 101.0982,-158.1426 262.6386,-158.1426 83.9066,0 111.4605,27.7435 132.541,72.9648 21.0805,45.2214 25.42,113.3034 25.42,174.0821 l 0,797.9433 100,0 0,-797.9433 c 0,-63.711 -1.1379,-144.1527 -34.7852,-216.3321 C 2314.8847,673.53547 2238.4588,615 2125.3562,615 c -100.1363,0 -180.1334,40.95788 -238.0449,86.3125 -1.3619,-3.82348 -2.3636,-6.61536 -3.9941,-11.21094 -6.9389,-19.55645 -16.0486,-45.35269 -25.1094,-71.05078 -18.1216,-51.39619 -36.0488,-102.40625 -36.0488,-102.40625 a 10.001,10.001 0 0 0 -9.0118,-6.80664 z m 17.3946,90.85156 c 4.1447,11.76979 4.3783,12.45782 8.8047,25.01172 9.063,25.70441 18.1755,51.50696 25.123,71.08789 2.6119,7.36137 4.5246,12.71729 6.4082,17.98824 -15.2762,13.0851 -28.7358,26.226 -40.3359,38.5938 l 0,-152.68165 z m -805.485,-90.85156 a 10.001,10.001 0 0 0 -9.8574,13.43945 c 0,0 13.7531,39.07382 25.248,71.72266 l -97.99608,0 0,205.3242 0,808.7266 0,150.9492 99.99998,0 0,-150.9492 0,-755.7617 32.1758,19.8535 c 0,0 101.0982,-158.1426 262.6387,-158.1426 83.9066,0 111.4605,27.7435 132.541,72.9648 21.0805,45.2214 25.4199,113.3034 25.4199,174.0821 l 0,797.9433 100,0 0,-797.9433 c 0,-63.711 -1.1378,-144.1527 -34.7852,-216.3321 C 1526.7942,673.53547 1450.3684,615 1337.2658,615 c -100.1364,0 -180.1334,40.95788 -238.045,86.3125 -1.3619,-3.82348 -2.3635,-6.61536 -3.9941,-11.21094 -6.9389,-19.55645 -16.0486,-45.35269 -25.1094,-71.05078 -18.1216,-51.39619 -36.0488,-102.40625 -36.0488,-102.40625 a 10.001,10.001 0 0 0 -9.0117,-6.80664 z m 17.3945,90.85156 c 4.1448,11.76979 4.3784,12.45782 8.8047,25.01172 9.063,25.70441 18.1755,51.50696 25.123,71.08789 2.612,7.36137 4.5246,12.71729 6.4083,17.98824 -15.2762,13.0851 -28.7359,26.226 -40.336,38.5938 l 0,-152.68165 z M 247.33594,509.83789 a 10.001,10.001 0 0 0 -9.85742,13.43945 c 0,0 13.75315,39.07382 25.24804,71.72266 l -97.99609,0 0,205.3242 0,808.7266 0,150.9492 100,0 0,-150.9492 0,-755.7617 32.17578,19.8535 c 0,0 101.0982,-158.1426 262.63867,-158.1426 83.9066,0 111.46052,27.7435 132.54102,72.9648 21.08049,45.2214 25.41992,113.3034 25.41992,174.0821 l 0,797.9433 100,0 0,-797.9433 c 0,-63.711 -1.13782,-144.1527 -34.78516,-216.3321 C 749.07336,673.53547 672.64754,615 559.54492,615 459.40856,615 379.41154,655.95788 321.5,701.3125 c -1.36191,-3.82348 -2.36358,-6.61536 -3.99414,-11.21094 -6.93887,-19.55645 -16.04859,-45.35269 -25.10938,-71.05078 -18.12162,-51.39619 -36.04882,-102.40625 -36.04882,-102.40625 a 10.001,10.001 0 0 0 -9.01172,-6.80664 z m 17.39453,90.85156 c 4.14476,11.76979 4.37836,12.45782 8.80469,25.01172 9.06301,25.70441 18.17549,51.50696 25.12304,71.08789 2.61191,7.36137 4.52455,12.71729 6.40821,17.98824 -15.27619,13.0851 -28.73586,26.226 -40.33594,38.5938 l 0,-152.68165 z"
       inkscape:connector-curvature="0" />
  </g>
</svg>
