<?xml version="1.0" encoding="UTF-8" standalone="no"?>
<svg
   xmlns:dc="http://purl.org/dc/elements/1.1/"
   xmlns:cc="http://creativecommons.org/ns#"
   xmlns:rdf="http://www.w3.org/1999/02/22-rdf-syntax-ns#"
   xmlns:svg="http://www.w3.org/2000/svg"
   xmlns="http://www.w3.org/2000/svg"
   xmlns:sodipodi="http://sodipodi.sourceforge.net/DTD/sodipodi-0.dtd"
   xmlns:inkscape="http://www.inkscape.org/namespaces/inkscape"
   version="1.1"
   viewBox="0 -288 976 2048"
   id="svg6"
   sodipodi:docname="v.svg"
   width="976"
   height="2048"
   inkscape:version="0.92.0 r">
  <metadata
     id="metadata12">
    <rdf:RDF>
      <cc:Work
         rdf:about="">
        <dc:format>image/svg+xml</dc:format>
        <dc:type
           rdf:resource="http://purl.org/dc/dcmitype/StillImage" />
        <dc:title />
      </cc:Work>
    </rdf:RDF>
  </metadata>
  <defs
     id="defs10" />
  <sodipodi:namedview
     pagecolor="#ffffff"
     bordercolor="#666666"
     borderopacity="1"
     objecttolerance="10"
     gridtolerance="10"
     guidetolerance="10"
     inkscape:pageopacity="0"
     inkscape:pageshadow="2"
     inkscape:window-width="1364"
     inkscape:window-height="730"
     id="namedview8"
     showgrid="false"
     inkscape:zoom="0.83929134"
     inkscape:cx="-499.79248"
     inkscape:cy="1018.7312"
     inkscape:window-x="0"
     inkscape:window-y="18"
     inkscape:window-maximized="0"
     inkscape:current-layer="layer3"
     inkscape:measure-start="108.932,1160.18"
     inkscape:measure-end="190.719,1160.18" />
  <g
     inkscape:groupmode="layer"
     id="layer3"
     inkscape:label="trace">
    <path
       style="color:#000000;font-style:normal;font-variant:normal;font-weight:normal;font-stretch:normal;font-size:medium;line-height:normal;font-family:sans-serif;font-variant-ligatures:normal;font-variant-position:normal;font-variant-caps:normal;font-variant-numeric:normal;font-variant-alternates:normal;font-feature-settings:normal;text-indent:0;text-align:start;text-decoration:none;text-decoration-line:none;text-decoration-style:solid;text-decoration-color:#000000;letter-spacing:normal;word-spacing:normal;text-transform:none;writing-mode:lr-tb;direction:ltr;text-orientation:mixed;dominant-baseline:auto;baseline-shift:baseline;text-anchor:start;white-space:normal;shape-padding:0;clip-rule:nonzero;display:inline;overflow:visible;visibility:visible;opacity:1;isolation:auto;mix-blend-mode:normal;color-interpolation:sRGB;color-interpolation-filters:linearRGB;solid-color:#000000;solid-opacity:1;vector-effect:none;fill:#050000;fill-opacity:1;fill-rule:evenodd;stroke:none;stroke-width:100;stroke-linecap:butt;stroke-linejoin:miter;stroke-miterlimit:4;stroke-dasharray:none;stroke-dashoffset:0;stroke-opacity:1;color-rendering:auto;image-rendering:auto;shape-rendering:auto;text-rendering:auto;enable-background:accumulate"
       d="m 171.42383,876.11914 c 0.14891,1.21802 0.3164,2.16358 0.3164,6.88086 H 120.1543 71.740234 c 0,13.08404 1.003271,10.28859 1.363282,11.95703 0.36001,1.66844 0.692266,3.02596 1.080078,4.57227 0.775624,3.09262 1.753994,6.76446 3.003906,11.34375 2.499823,9.15857 6.052045,21.77906 10.5625,37.57422 9.020911,31.5903 21.84491,75.76713 37.22852,128.39453 30.76721,105.2547 71.75905,244.2423 112.75,382.8144 81.98189,277.1445 163.95507,552.6055 163.95507,552.6055 L 412.32031,2048 h 21.56446 104.77734 21.51172 l 10.63672,-35.7383 c 0,0 81.97322,-275.4611 163.95507,-552.6055 40.99095,-138.5721 81.9828,-277.5597 112.75,-382.8144 15.38361,-52.6274 28.20566,-96.80423 37.22657,-128.39453 4.51045,-15.79516 8.06463,-28.41565 10.56445,-37.57422 1.24991,-4.57929 2.22828,-8.25113 3.00391,-11.34375 0.38781,-1.54631 0.72007,-2.90383 1.08007,-4.57227 0.36002,-1.66844 1.36133,1.12701 1.36133,-11.95703 h -48.41211 -51.58789 c 0,-4.71596 0.16951,-5.66054 0.31836,-6.87891 -0.39943,1.56742 -1.07388,4.09325 -1.82617,6.87891 h -46.9043 c 0,-4.04624 0.0864,-3.783 0.15039,-4.9707 -0.41238,1.93254 -1.1401,5.12234 -2.15234,9.33008 -2.08889,8.68318 -5.28652,21.3716 -9.375,37.20507 -8.17697,31.66695 -19.94242,76.06055 -34.06641,128.75195 -28.24796,105.3827 -65.95421,244.0473 -103.6621,382.043 -48.39828,177.118 -88.5977,323.3019 -117.06641,426.6953 -28.49387,-103.0049 -68.63597,-248.3545 -116.91602,-424.582 -37.70493,-137.6272 -75.40911,-276.1021 -103.64648,-381.7129 -14.11869,-52.8055 -25.87674,-97.42264 -34.03711,-129.41214 -4.08019,-15.99476 -7.26912,-28.87203 -9.33789,-37.72657 -0.99137,-4.2431 -1.70848,-7.51953 -2.11133,-9.50781 0.0192,1.00031 0.0352,2.19969 0.0352,3.88672 H 173.25 c -0.75242,-2.78661 -1.42675,-5.31342 -1.82617,-6.88086 z m 48.69531,2.99414 c -0.0418,-2.17954 -0.11259,-3.00381 -0.16406,-2.97461 -0.0751,0.0426 -0.10121,1.66776 0.0937,2.64258 0.0162,0.0811 0.0528,0.24574 0.0703,0.33203 z"
       transform="translate(0,-288)"
       id="path5109-6"
       inkscape:connector-curvature="0" />
  </g>
</svg>
