<?xml version="1.0" encoding="UTF-8" standalone="no"?>
<svg
   xmlns:dc="http://purl.org/dc/elements/1.1/"
   xmlns:cc="http://creativecommons.org/ns#"
   xmlns:rdf="http://www.w3.org/1999/02/22-rdf-syntax-ns#"
   xmlns:svg="http://www.w3.org/2000/svg"
   xmlns="http://www.w3.org/2000/svg"
   xmlns:sodipodi="http://sodipodi.sourceforge.net/DTD/sodipodi-0.dtd"
   xmlns:inkscape="http://www.inkscape.org/namespaces/inkscape"
   version="1.1"
   viewBox="0 -288 1328 2048"
   id="svg6"
   sodipodi:docname="w.svg"
   width="1328"
   height="2048"
   inkscape:version="0.92.0 r">
  <metadata
     id="metadata12">
    <rdf:RDF>
      <cc:Work
         rdf:about="">
        <dc:format>image/svg+xml</dc:format>
        <dc:type
           rdf:resource="http://purl.org/dc/dcmitype/StillImage" />
        <dc:title />
      </cc:Work>
    </rdf:RDF>
  </metadata>
  <defs
     id="defs10" />
  <sodipodi:namedview
     pagecolor="#ffffff"
     bordercolor="#666666"
     borderopacity="1"
     objecttolerance="10"
     gridtolerance="10"
     guidetolerance="10"
     inkscape:pageopacity="0"
     inkscape:pageshadow="2"
     inkscape:window-width="1364"
     inkscape:window-height="730"
     id="namedview8"
     showgrid="false"
     inkscape:zoom="0.35118682"
     inkscape:cx="40.172304"
     inkscape:cy="555.37285"
     inkscape:window-x="0"
     inkscape:window-y="18"
     inkscape:window-maximized="0"
     inkscape:current-layer="layer3"
     inkscape:measure-start="108.932,1160.18"
     inkscape:measure-end="190.719,1160.18"
     showguides="true"
     inkscape:guide-bbox="true">
    <sodipodi:guide
       position="368.1212,1267.685"
       orientation="0,1"
       id="guide4527"
       inkscape:locked="false" />
  </sodipodi:namedview>
  <g
     inkscape:groupmode="layer"
     id="layer3"
     inkscape:label="trace">
    <path
       style="color:#000000;font-style:normal;font-variant:normal;font-weight:normal;font-stretch:normal;font-size:medium;line-height:normal;font-family:sans-serif;font-variant-ligatures:normal;font-variant-position:normal;font-variant-caps:normal;font-variant-numeric:normal;font-variant-alternates:normal;font-feature-settings:normal;text-indent:0;text-align:start;text-decoration:none;text-decoration-line:none;text-decoration-style:solid;text-decoration-color:#000000;letter-spacing:normal;word-spacing:normal;text-transform:none;writing-mode:lr-tb;direction:ltr;text-orientation:mixed;dominant-baseline:auto;baseline-shift:baseline;text-anchor:start;white-space:normal;shape-padding:0;clip-rule:nonzero;display:inline;overflow:visible;visibility:visible;opacity:1;isolation:auto;mix-blend-mode:normal;color-interpolation:sRGB;color-interpolation-filters:linearRGB;solid-color:#000000;solid-opacity:1;vector-effect:none;fill:#050000;fill-opacity:1;fill-rule:evenodd;stroke:none;stroke-width:100;stroke-linecap:butt;stroke-linejoin:miter;stroke-miterlimit:4;stroke-dasharray:none;stroke-dashoffset:0;stroke-opacity:1;color-rendering:auto;image-rendering:auto;shape-rendering:auto;text-rendering:auto;enable-background:accumulate"
       d="m 1162.6543,878.30078 c -0.084,0.0789 -0.2366,2.01748 -0.4844,4.69922 h -47.8301 c 0,-6.0461 0.1094,-2.623 -0.164,-0.32812 -0.2734,2.29485 -0.7451,5.89347 -1.377,10.43359 -1.2637,9.08024 -3.1748,22.02986 -5.6152,38.08984 -4.8809,32.11996 -11.8907,76.77459 -20.3066,129.61519 -16.832,105.6812 -39.2944,244.1749 -61.7579,381.8204 C 983.62807,1696.8683 948.23704,1911.039 942.13281,1948 H 929.53125 L 783.91797,883 H 743.98047 590.69922 550.63281 L 404.96484,1948 h -10.67773 c -6.1605,-36.8912 -41.96566,-251.175 -83.92578,-505.457 -22.71339,-137.6452 -45.42626,-276.1365 -62.44531,-381.8164 -8.50953,-52.84 -15.59837,-97.49569 -20.53321,-129.61332 -2.46742,-16.05881 -4.39851,-29.00771 -5.67578,-38.08398 -0.63863,-4.53814 -1.1149,-8.13298 -1.39062,-10.42188 -0.13787,-1.14445 -0.17939,-2.57579 -0.18555,-2.95703 -0.006,-0.38124 0.0234,0.2882 0.0234,3.34961 h -48.0586 c -0.078,-0.51788 -0.1878,-1.21319 -0.24804,-1.63281 -0.0684,-0.47616 -0.1045,-1.03448 -0.13086,-1.54297 0.011,0.72581 0.0234,1.56753 0.0234,3.17578 H 120.1543 71.740234 c 0,9.42879 0.623975,9.11545 1.121094,12.57812 0.497119,3.46269 1.143881,7.51067 1.962891,12.42383 1.63802,9.82633 3.961388,22.99262 6.908203,39.2461 5.893631,32.50695 14.262795,77.24755 24.300778,130.18745 20.07598,105.8799 46.81643,244.4835 73.55664,382.2793 53.48043,275.5917 106.95313,547.92 106.95313,547.92 L 294.4707,2048 h 15.09375 182.65235 13.30468 L 667.32812,1036.9805 828.96484,2048 h 13.31055 184.73051 12.9668 l 7.9648,-40.3066 c 0,0 53.4767,-270.6217 106.9609,-545.375 26.7422,-137.3767 53.4858,-275.7786 73.5684,-382.0157 10.0413,-53.1185 18.413,-98.1725 24.3164,-131.207 2.9517,-16.51725 5.2832,-29.99976 6.9316,-40.23242 1.6485,-10.23266 3.0372,-10.19555 3.0372,-25.86328 h -48.4122 -51.5878 c 0,-2.89492 -0.017,-4.29602 -0.066,-4.625 -0.01,-0.0617 -0.02,-0.0851 -0.031,-0.0742 z m -990.9375,1.52344 c -0.0309,-2.02841 -0.0693,-1.33576 0,0 z"
       transform="translate(0,-288)"
       id="path5109-6-3"
       inkscape:connector-curvature="0" />
  </g>
</svg>
