<?xml version="1.0" encoding="UTF-8" standalone="no"?>
<svg
   xmlns:dc="http://purl.org/dc/elements/1.1/"
   xmlns:cc="http://creativecommons.org/ns#"
   xmlns:rdf="http://www.w3.org/1999/02/22-rdf-syntax-ns#"
   xmlns:svg="http://www.w3.org/2000/svg"
   xmlns="http://www.w3.org/2000/svg"
   xmlns:sodipodi="http://sodipodi.sourceforge.net/DTD/sodipodi-0.dtd"
   xmlns:inkscape="http://www.inkscape.org/namespaces/inkscape"
   version="1.1"
   viewBox="0 -288 1016 2048"
   id="svg6"
   sodipodi:docname="a.svg"
   width="1016"
   height="2048"
   inkscape:version="0.92.1 r">
  <metadata
     id="metadata12">
    <rdf:RDF>
      <cc:Work
         rdf:about="">
        <dc:format>image/svg+xml</dc:format>
        <dc:type
           rdf:resource="http://purl.org/dc/dcmitype/StillImage" />
        <dc:title />
      </cc:Work>
    </rdf:RDF>
  </metadata>
  <defs
     id="defs10" />
  <sodipodi:namedview
     pagecolor="#ffffff"
     bordercolor="#666666"
     borderopacity="1"
     objecttolerance="10"
     gridtolerance="10"
     guidetolerance="10"
     inkscape:pageopacity="0"
     inkscape:pageshadow="2"
     inkscape:window-width="1364"
     inkscape:window-height="730"
     id="namedview8"
     showgrid="false"
     inkscape:zoom="0.20909611"
     inkscape:cx="476.03678"
     inkscape:cy="280.9741"
     inkscape:window-x="2560"
     inkscape:window-y="18"
     inkscape:window-maximized="0"
     inkscape:current-layer="layer2"
     inkscape:measure-start="489.366,1118.33"
     inkscape:measure-end="489.366,1096.66" />
  <g
     inkscape:groupmode="layer"
     id="layer3"
     inkscape:label="guides"
     style="display:none">
    <path
       style="display:inline;fill:none;fill-rule:evenodd;stroke:#ff0000;stroke-width:1.5;stroke-linecap:butt;stroke-linejoin:miter;stroke-miterlimit:4;stroke-dasharray:none;stroke-opacity:1"
       d="M -504.19299,1779.351 H 1196.4045"
       id="path824-3"
       inkscape:connector-curvature="0" />
    <path
       style="display:inline;fill:none;fill-rule:evenodd;stroke:#0000ff;stroke-width:1.5;stroke-linecap:butt;stroke-linejoin:miter;stroke-miterlimit:4;stroke-dasharray:none;stroke-opacity:1"
       d="M -504.19299,1759.351 H 1196.4045"
       id="path824-3-6"
       inkscape:connector-curvature="0" />
    <path
       style="display:inline;fill:none;fill-rule:evenodd;stroke:#0000ff;stroke-width:1.5;stroke-linecap:butt;stroke-linejoin:miter;stroke-miterlimit:4;stroke-dasharray:none;stroke-opacity:1"
       d="m -504.19299,594.35096 1700.59749,-10e-6"
       id="path824-3-6-7"
       inkscape:connector-curvature="0" />
    <path
       style="display:inline;fill:none;fill-rule:evenodd;stroke:#0000ff;stroke-width:1.5;stroke-linecap:butt;stroke-linejoin:miter;stroke-miterlimit:4;stroke-dasharray:none;stroke-opacity:1"
       d="m -504.19299,134.35096 1700.59749,-10e-6"
       id="path824-3-6-7-3-6"
       inkscape:connector-curvature="0" />
    <path
       style="display:inline;fill:none;fill-rule:evenodd;stroke:#00ff00;stroke-width:1.5;stroke-linecap:butt;stroke-linejoin:miter;stroke-miterlimit:4;stroke-dasharray:none;stroke-opacity:1"
       d="m -504.19299,209.35096 1699.99999,-10e-6"
       id="path824-3-6-7-3-6-3"
       inkscape:connector-curvature="0" />
    <text
       xml:space="preserve"
       style="font-style:normal;font-weight:normal;font-size:33.33341599px;line-height:10.66666698px;font-family:sans-serif;letter-spacing:0px;word-spacing:0px;fill:#000000;fill-opacity:1;stroke:none;stroke-width:1px;stroke-linecap:butt;stroke-linejoin:miter;stroke-opacity:1"
       x="-304.33658"
       y="202.15987"
       id="text5148"><tspan
         sodipodi:role="line"
         id="tspan5146"
         x="-304.33658"
         y="202.15987"
         style="font-size:33.33341599px;fill:#00ff00">1550</tspan></text>
    <text
       xml:space="preserve"
       style="font-style:normal;font-weight:normal;font-size:33.33341599px;line-height:10.66666698px;font-family:sans-serif;letter-spacing:0px;word-spacing:0px;fill:#0000ff;fill-opacity:1;stroke:none;stroke-width:1px;stroke-linecap:butt;stroke-linejoin:miter;stroke-opacity:1"
       x="-304.33658"
       y="126.15987"
       id="text5148-5"><tspan
         sodipodi:role="line"
         id="tspan5146-3"
         x="-304.33658"
         y="126.15987"
         style="font-size:33.33341599px;fill:#0000ff">1625</tspan></text>
    <text
       xml:space="preserve"
       style="font-style:normal;font-weight:normal;font-size:33.33341599px;line-height:10.66666698px;font-family:sans-serif;letter-spacing:0px;word-spacing:0px;fill:#0000ff;fill-opacity:1;stroke:none;stroke-width:1px;stroke-linecap:butt;stroke-linejoin:miter;stroke-opacity:1"
       x="-304.33658"
       y="586.15985"
       id="text5148-5-5"><tspan
         sodipodi:role="line"
         id="tspan5146-3-6"
         x="-304.33658"
         y="586.15985"
         style="font-size:33.33341599px;fill:#0000ff">1165</tspan></text>
    <path
       style="display:inline;fill:none;fill-rule:evenodd;stroke:#999999;stroke-width:1.5;stroke-linecap:butt;stroke-linejoin:miter;stroke-miterlimit:4;stroke-dasharray:none;stroke-opacity:1"
       d="m -504.19299,259.35096 1699.99999,-10e-6"
       id="path824-3-6-7-3-6-3-1"
       inkscape:connector-curvature="0" />
    <text
       xml:space="preserve"
       style="font-style:normal;font-weight:normal;font-size:33.33341599px;line-height:10.66666698px;font-family:sans-serif;letter-spacing:0px;word-spacing:0px;fill:#000000;fill-opacity:1;stroke:none;stroke-width:1px;stroke-linecap:butt;stroke-linejoin:miter;stroke-opacity:1"
       x="-304.33658"
       y="254.15985"
       id="text5148-2"><tspan
         sodipodi:role="line"
         id="tspan5146-7"
         x="-304.33658"
         y="254.15985"
         style="font-size:33.33341599px;fill:#999999">1550</tspan></text>
    <path
       style="display:inline;fill:none;fill-rule:evenodd;stroke:#999999;stroke-width:1.5;stroke-linecap:butt;stroke-linejoin:miter;stroke-miterlimit:4;stroke-dasharray:none;stroke-opacity:1"
       d="m -504.19299,1709.351 1699.99999,-1e-4"
       id="path824-3-6-7-3-6-3-1-0"
       inkscape:connector-curvature="0" />
    <text
       xml:space="preserve"
       style="font-style:normal;font-weight:normal;font-size:33.33341599px;line-height:10.66666698px;font-family:sans-serif;letter-spacing:0px;word-spacing:0px;fill:#000000;fill-opacity:1;stroke:none;stroke-width:1px;stroke-linecap:butt;stroke-linejoin:miter;stroke-opacity:1"
       x="-274.33658"
       y="1704.1598"
       id="text5148-2-9"><tspan
         sodipodi:role="line"
         id="tspan5146-7-3"
         x="-274.33658"
         y="1704.1598"
         style="font-size:33.33341599px;fill:#999999">50</tspan></text>
    <text
       xml:space="preserve"
       style="font-style:normal;font-weight:normal;font-size:33.33341599px;line-height:10.66666698px;font-family:sans-serif;letter-spacing:0px;word-spacing:0px;fill:#000000;fill-opacity:1;stroke:none;stroke-width:1px;stroke-linecap:butt;stroke-linejoin:miter;stroke-opacity:1"
       x="-258.33658"
       y="1752.1598"
       id="text5148-2-9-6"><tspan
         sodipodi:role="line"
         id="tspan5146-7-3-0"
         x="-258.33658"
         y="1752.1598"
         style="font-size:33.33341599px;fill:#0000ff">0</tspan></text>
    <path
       style="display:inline;fill:none;fill-rule:evenodd;stroke:#999999;stroke-width:1.5;stroke-linecap:butt;stroke-linejoin:miter;stroke-miterlimit:4;stroke-dasharray:none;stroke-opacity:1"
       d="m -504.19299,1729.351 1699.99999,-1e-4"
       id="path824-3-6-7-3-6-3-1-0-3"
       inkscape:connector-curvature="0" />
    <text
       xml:space="preserve"
       style="font-style:normal;font-weight:normal;font-size:33.33341599px;line-height:10.66666698px;font-family:sans-serif;letter-spacing:0px;word-spacing:0px;display:inline;fill:#000000;fill-opacity:1;stroke:none;stroke-width:1px;stroke-linecap:butt;stroke-linejoin:miter;stroke-opacity:1"
       x="-314.33658"
       y="1724.1598"
       id="text5148-2-9-5"><tspan
         id="tspan758"
         sodipodi:role="line"
         x="-314.33658"
         y="1724.1598"
         style="font-size:33.33341599px;fill:#999999">30</tspan></text>
    <path
       style="display:inline;fill:none;fill-rule:evenodd;stroke:#999999;stroke-width:1.5;stroke-linecap:butt;stroke-linejoin:miter;stroke-miterlimit:4;stroke-dasharray:none;stroke-opacity:1"
       d="m -504.19299,1694.351 1699.99999,-1e-4"
       id="path824-3-6-7-3-6-3-1-0-2"
       inkscape:connector-curvature="0" />
    <text
       xml:space="preserve"
       style="font-style:normal;font-weight:normal;font-size:33.33341599px;line-height:10.66666698px;font-family:sans-serif;letter-spacing:0px;word-spacing:0px;display:inline;fill:#000000;fill-opacity:1;stroke:none;stroke-width:1px;stroke-linecap:butt;stroke-linejoin:miter;stroke-opacity:1"
       x="-234.33658"
       y="1689.1598"
       id="text5148-2-9-9"><tspan
         sodipodi:role="line"
         id="tspan5146-7-3-1"
         x="-234.33658"
         y="1689.1598"
         style="font-size:33.33341599px;fill:#999999">65</tspan></text>
    <path
       style="display:inline;fill:none;fill-rule:evenodd;stroke:#999999;stroke-width:1.5;stroke-linecap:butt;stroke-linejoin:miter;stroke-miterlimit:4;stroke-dasharray:none;stroke-opacity:1"
       d="m -504.19299,644.25 1700.59749,-2e-5"
       id="path824-3-6-7-3"
       inkscape:connector-curvature="0" />
    <text
       xml:space="preserve"
       style="font-style:normal;font-weight:normal;font-size:33.33341599px;line-height:10.66666698px;font-family:sans-serif;letter-spacing:0px;word-spacing:0px;display:inline;fill:#999999;fill-opacity:1;stroke:none;stroke-width:1px;stroke-linecap:butt;stroke-linejoin:miter;stroke-opacity:1"
       x="-304.33658"
       y="636.15985"
       id="text5148-5-5-6"><tspan
         sodipodi:role="line"
         id="tspan5146-3-6-0"
         x="-304.33658"
         y="636.15985"
         style="font-size:33.33341599px;fill:#999999">1115</tspan></text>
    <path
       style="display:inline;fill:none;fill-rule:evenodd;stroke:#999999;stroke-width:1.5;stroke-linecap:butt;stroke-linejoin:miter;stroke-miterlimit:4;stroke-dasharray:none;stroke-opacity:1"
       d="m -504.19299,664.25 1700.59749,-2e-5"
       id="path824-3-6-7-3-62"
       inkscape:connector-curvature="0" />
    <text
       xml:space="preserve"
       style="font-style:normal;font-weight:normal;font-size:33.33341599px;line-height:10.66666698px;font-family:sans-serif;letter-spacing:0px;word-spacing:0px;display:inline;fill:#999999;fill-opacity:1;stroke:none;stroke-width:1px;stroke-linecap:butt;stroke-linejoin:miter;stroke-opacity:1"
       x="-204.33658"
       y="655.15991"
       id="text5148-5-5-6-6"><tspan
         sodipodi:role="line"
         id="tspan5146-3-6-0-1"
         x="-204.33658"
         y="655.15991"
         style="font-size:33.33341599px;fill:#999999">1095</tspan></text>
  </g>
  <g
     inkscape:groupmode="layer"
     id="layer1"
     inkscape:label="model"
     style="display:none"
     sodipodi:insensitive="true">
    <g
       transform="matrix(1,0,0,-1,0,1760)"
       id="g4"
       style="fill:#00ffff">
      <path
         d="m 160,0 v 1624 h 152 v -544 q 112,96 192,96 h 96 q 104,0 196,-108 92,-108 92,-436 V 544 Q 888,0 536,0 416,0 312,72 V 0 Z m 16,145 q 3,-1 5,-3 l 1,-1 1,-1 1,-1 2,-3 q 1,-2 0,-4 v -17 -5 q 2,-1 6,-2 v 22 q 0,8 -4.5,13.5 Q 183,149 176,150 Z m 2,-44 h 2 2 1 1 l 2,1 1,-1 h 1 1 1 4 1 1 1 1 1 1 2 2 4 2 2 11 4.5 4.5 2 2 v 1 -1 1 4 3 2 2 2 1 1 1 1 1 1 1 1 l -1,1 v -4 -4 q 0,0 -1,-2 v -1 q 0,-1 -0.5,-1 -0.5,0 -0.5,-1 l -1,-1 v -1 h -1 l -1,-1 q -1,0 -1.5,-0.5 Q 228,107 228,106 h -1 -1 -1.5 -1.5 -1 -3 -1 -2 -1 -5 -6 -1 -1 -1 -1 -1 -1 -4 -3 -1 -1 -1 q -1,1 -2,1 v 1 h -1 -1 l -1,1 -1,1 -1,1 -1,1 v 1 1 1 1 h -1 v 4 4 0 2 1 1 1 1 h -1 v -1 -1 -3 -3 -2 -2 -4 -4 -1 -1 -1 -1 -1 -1 -2 z m 11,43 q 2,-2 3.5,-5 1.5,-3 1.5,-7 v -24 h 5 v 24 q 0,6 -3,11 -3,5 -7,7 z m 5,8 h 1.5 q 0,0 0.5,-0.5 0.5,-0.5 0.5,-1 0,-0.5 1.5,-0.5 4,-4 4,-12 v -30 h 4 v 30 q 0,8 -3,12.5 -3,4.5 -9,7.5 z m 6,24 q 0,-8 4,-13 4,-5 11,-7 v 6 q -2,0 -5,2 -2,0 -2,2 l -2,2 -1,2 q -1,2 -1,5 v 17 5 q -2,1 -4,1 z m 6,-25 q 2,-2 2.5,-5.5 0.5,-3.5 0.5,-9.5 v -6 -22 h 5 v 28 q 0,6 -1,10.5 -1,4.5 -3,7 -2,2.5 -4,4.5 z m 2,-101 h 6 v 49 h -6 z m 8,0 h 6 v 49 h -6 z m 0,58 q 8,2 13,8.5 5,6.5 6,14.5 l -5,3 -1,-3 q -1,-4 -3,-8 -2,-5 -4,-7 -3,-2 -6,-2 z m 0,58 q 2,-2 2,-5 v -11 -4 -23 h 6 v 27 q 0,6 -1,11 -1,5 -3,8 -2,3 -4,5 z m 2,22 2,-2 h 1 l 1,-1 v -1 h 2 1 1 2 1 1 1 3 2 2 2 1 1 2 1 1 2 1 2 1 1 1 v 0 l 2,2 q 1,0 1,0.5 0,0.5 1,1.5 v 1 1 1 q 0,1 1,5 v 2.5 2.5 1 l -1,1 v 1 -2 -2 -4 -4 -1 -1 -1 h -1 v -1 l -1,-1 v -1 h -1 -1 v 0 q 0,-1 -0.5,-1 H 252 v -1 0 0 h -1.5 -2.5 -2 -1 -1 -2 -2 -1 -1 -4 -1 -1 -2 -1 -1 -1 -1 -1 -1 q 0,1 -1,2 h -1 -1 -1 v 1 1 h -1 v 1 q 0,1 -1,1 v 1 1 2 3 2 1 2 2 2 -2 -2 -1 -1 -1 -1 -2 -2 -1 -1 -1 -1.5 z m 4,-20 h 4 v 12 h -4 z m 2,-118 h 4 v 48 1 h -4 z m 2,89 h 10 v 9 q 0,6 -2.5,11 -2.5,5 -7.5,7 v -6 q 2,-1 3,-4.5 1,-3.5 1,-7.5 v -4 h -4 v -1 -1 z m 0,47 h 6 l 6,8 h -6 z m 2,-51 v 2 h 8 v -2 z m 0,39 9,-20 h 3 l -10,22 z m 2,6 h 10 v 2 h -10 z m 1,-130 h 5 v 42 q -3,2 -5,2 z m 7,19 h 6 v 14 q -3,-1 -6,-3 z m 0,30 q 0,-6 3,-11 3,-6 8,-8 v 6 q -2,2 -3.5,5 -1.5,3 -1.5,8 v 3 h 5 v 2 1 q -1,1 -1,3 h -10 z m 0,13 q 0,-2 1,-2 h 1 v -1 q 1,0 2,0.5 1,0.5 1.5,0.5 h 1.5 l 1,-1 h 1 1 v -1 h 1 1 2 1 1 1 1 v 1 h 2 1 1 v -1 h 1.5 2.5 3 l 1,1 h 2 2 1 1 1 l 1,1 v 0 1 1 1 1 2 2 1 1 1.5 1.5 1 q 1,-1 1,-1.5 0,-0.5 1,-0.5 v -1 l 1,-1 h 1 v 4 l -1,2 v 1 3 3 1 2 3 q 0,0 0.5,2 0.5,2 0,2 -0.5,0 -1.5,1 h -1 -1 -3 -1 -2 -1 -1 -1 -1 -1 -1 -2 -1 -1 -2 -2 -2 -2 -2.5 -1.5 -2 -4 -2 -1 -1 v -1 -2 -1 -1 -1 -1 -1 -1 -1 q 1,0 1,-1 v -1 -1 -1 -1 -1 -2 -7 q 0,-2 -0.5,-3.5 Q 238,114 238,113 Z m 0,34 q 7,2 12,8 4,4 4,12 v 8 h -16 v -6 h 11 v -2 q 0,-6 -3,-9.5 -3,-3.5 -8,-5.5 z m 0,16 h 6 v 5 h -6 z m 1,30 h 11 l -2,2 h -8 z m 0,4 h 10 v 2 h -10 z m 0,4 v 2 h 10 v -2 z m 2,-88 h 1 v 8 h 2 2 v -8 h 1 v 8 h 1 2 v -8 h 2 v 8 q 0,2 -1,2 h -1 -2 q -2,0 -2,-1 v 1 h -1 -1 -2 -1 z m 0,16 v 14 h 1 v -4 h 2 1 l 1,-1 q 2,-1 2,-3 v -1 q 0,-2 -1,-3.5 -1,-1.5 -3,-1.5 h -2 z m 1,2 v 6 l 2,1 1,-1 q 1,0 1,-2 v -1 q 0,-2 -0.5,-2.5 Q 245,130 244,130 Z m 0,46 h 6 v 6 h -6 z m 0,10 h 4 q 4,0 6,3 4,3 4,8 0,7 -4,9 -3,2 -6,2 h -4 v -2 h 4 q 2,0 5,-2 3,-2 3,-7 0,-5 -3,-7 -1,-1 -2.5,-1.5 Q 247,188 246,188 h -4 z m 5,-90 h 2 v 5 h -2 z m 1,-40 h 1 l 1,-1 v -1 l 2,-2 h 1 1 v -1 h 1 1 v -1 h 2 1 1 2 2 8 6 2 2 2 2 3 1 l 1,1 h 1 v 1 h 0.5 1.5 l 1,1 1,1 v 2 h 2 v 1 1 1 1 1 1 2 1 2 3 h -1 v -1 -2 -1 -2 -2 -1 -1 l -1,-1 V 57.5 56 l -1,-1 v -1 h -1 v -1 h -1 -1 v -1 h -2 -1 -6 -2 -2 -1 -1 -3 -3 -1 -1 -1 -1 -1 -2 -2 -2.5 -2.5 -1 -1 -1 l -1,1 q -1,0 -1,1 h -1 q 0,1 -0.5,1 -0.5,0 -0.5,1 v 2 h -1 v 1 1 1 1 h -1 l 1,6 v 6 h -1 v -2 q 0,-2 0,-1 v -1 -1 -2 -1 -2 -2 -2 -2 z m 1,76 q 0,2 1.5,2 1.5,0 3.5,1 v 1 q 0,1 -0.5,1 h -1 q 0,0 -0.5,-1 h -1 -1 -1 q 0,2 0.5,2 h 2.5 1 2 q 0,0 1,-2 v -8 h -2 v 1 q -1,-1 -2,-1 -2,0 -2.5,1 -0.5,1 -0.5,3 z m 0,17 3,-3 h 5 l -5,6 z m 1,-85 h 3 v 20 h -3 z m 0,22 h 3 v 22 h -3 z m 0,90 h 6 v 6 h -6 z m 1,-44 1,1 q 0,1 2,1 v -4 h -1.5 -1 q 0,0 -0.5,2 z m 1,22 h 6 l 2,3 2,3 h -5 z m 2,-82 q 0,-5 3,-9.5 3,-4.5 8,-5.5 v 5 q -2,2 -3.5,4 -1.5,2 -1.5,6 v 14 7 5 10 h -6 z m 0,40 h 2 v 10 h -2 z m 0,11 h 2 v 1 2 h -2 v -2 z m 4,-11 h 1 1 v 8 h 2 v -8 h 2 v 8 q 0,2 -0.5,2 h -1.5 -2 v -1 1 h -1 -1 z m 0,18 v 12 h 2 v -12 -2 q -1,0 -1.5,0.5 -0.5,0.5 -0.5,1.5 z m 0,17.5 q 0,-1.5 1,-1.5 h 10 v 8 q 0,6 -3,11 -3,5 -8,7 v -5 q 2,-2 4,-4.5 2,-2.5 2,-8.5 v -4 h -6 z m 0,26.5 h 1 q 1,0 2,-1 1,-1 3,-1 4,-2 6,-6 2,-4 2,-8 v -3 l 5,3 q 0,8 -5.5,14 -5.5,6 -13.5,8 z m 4,-106 h 1 q 1,0 2,1 1,1 3,1 v 34 l -6,4 z m 0,64 h 1 q 0,-1 0.5,-1.5 0.5,-0.5 1.5,-0.5 h 1 v 1 1 h -2 l -1,1 q -1,1 -1,3 0,1 0.5,1.5 0.5,0.5 1.5,0.5 h 3 q 0,0 1,-2 h -2 l -2,1 q -1,0 -1,-1 0,-1 1,-2 h 1 q 1,0 1.5,-0.5 l 1,-1 q 0,0 0.5,-1.5 0,-2 -1,-2.5 -1,-0.5 -2,-0.5 -1,0 -2,1 -1,1 -1,3 z m 0,66 q 0,-9 4,-15.5 4,-6.5 12,-10.5 v 6 q -4,2 -7,7 -3,5 -4,11 v 5 q 0,6 3,11 4,4 8,6 v 6 q -8,-2 -12,-9.5 -4,-7.5 -4,-16.5 z m 4,-82 q 0,-2 1,-3 1,-1 3,-1 h 2 q 0,0 1,2 h -1 -1 l -1,-1 q -1,0 -1.5,1 -0.5,1 -0.5,2 h 5 1 v 2 q 0,2 -1,3 -1,1 -3,1 -2,0 -3,-1 -1,-1 -1,-3 z m 2,-60 v 6 h 9 v -6 z m 0,62 q 0,2 0.5,2 h 1 1.5 q 0,0 1,-2 z m 2,-54 h 5 v 42 q -1,2 -3,2 -2,0 -2,-2 z m 0,68 q 0,2 1,2 1,0 3,1 v 1 1 h -1 q -1,0 -1,-1 h -1 -1 v 2 h 2 1 2 q 0,0 1,-2 v -8 h -2 v 1 q -1,-1 -2,-1 -1,0 -1.5,1 -0.5,1 -0.5,3 z m 0,64 h 6 v 2 q 0,5 3,9.5 3,4.5 7,6.5 v 5 q -7,-2 -11.5,-7.5 Q 270,206 270,198 Z m 1,-64 1,1 q 0,1 2,1 v -4 h -1.5 -1 q 0,0 -0.5,2 z m 0,57 h 1 l 2,-1 2,-2 q 0,0 3.5,-5 3.5,-5 1.5,-7 v -30 h 5 v 30 q 0,8 -4,13 -4,5 -11,7 z m 1,-43 h 7 v 5 h -7 z m 5,-64 q 0,-5 3,-9 4,-4 8,-6 v 6 q -2,2 -4,3.5 -2,1.5 -2,5.5 v 14 8 4 10 h -5 z m 2,-26 v 6 h 6 v -6 z m 2.5,68.5 Q 282,124 282,123 v -2 -1 l 1,-1 v -1 h 1 q 0,-1 0.5,-1.5 0.5,-0.5 1,-0.5 h 0.5 2 v 0 -1 h 1 1 v -1 h 2 2 3 3 6 5.5 1.5 1 2 2 v 1 h 2 v 1 h 2 q 0,0 1,0.5 1,0.5 0.5,0.5 -0.5,0 0.5,1 l 1,1 1,1 v 1 1 1 q 1,1 1,3 v 4 1 1 q 0,2 -1,2 v 1 -1 -2 -2 -1 -1 -1 -1 -2 -2 q 0,-2 -1,-2 h -1 v -1 -1 h -2 v 0 -1 -1 0 h -2 -1 -1 -2 -1 -1 -2 -2 -1 -4 -4 -1 -4 -1 -5 -2 -1 -1 v 1 1 h -1 -1 v 1 1 h -1 -1 v 2 1 1 1 2 1 2 2 2 2 1 1 -4 q -1,-3 0,-4 v -1 -1 -1 -1 q -1,-1 -0.5,-1.5 z M 284,121 h 2 v 21 h -2 z m 1,-29 q 0,-7 4.5,-12.5 Q 294,74 300,72 v 6 q -3,0 -5,2 l -1,1 -1,1 -1,2 -2,2 v 5 16 5 q -3,2 -5,2 z m 3,70 h 2 l 8,17 -1,3 z m 1,-45 h 5 v 23 4 q 0,7 1,10.5 1,3.5 3,5.5 v 8 q -3,-2 -4.5,-5 l -3.5,-7 q -1,-6 -1,-12 z m 3,-23 h 1 1 v -1 -1 q 1,0 1.5,-0.5 Q 296,91 296,90 h 1 1 q 1,-1 1.5,-1 0.5,0 0.5,-1 h 1 2 1 2 1 2 1 4 1 1 2 v 0 h 1 1 2 6 6 1 1 1 1 1 l 1,1 v 1 h 2 l 2,2 1,1 1,1 v 1 1 0 q 1,1 1,2 v 1 1 1 1 2 2 h -1 v 2 -2 -2 -1 -1 -2 -1 -1 -1 -1 h -1 q 0,-1 -0.5,-1 -0.5,0 -0.5,-1 v -1 l -1,-1 h -1 q -1,0 -1,-0.5 0,-0.5 -1,-0.5 v -1 h -2 -2 -6 -6 -2 -1 -1 -3 -2 -1 -1 -1 -1.5 -2.5 -2 -2 -2 -1 -1 -1 -1 v 1 l -1,1 h -1 l -1,2 h -1 v 1 1 l -1,1 v 1 1 5 6 2 h -1 v 1 -1 -2 -1 -1 -2 -2 -2 -3 -1.5 -1.5 z m 5,23 h 5 v 23 4 q 0,7 1,10.5 1,3.5 3,5.5 v 8 q -3,-2 -5,-5 -2,-3 -3,-7 -1,-6 -1,-12 z m 7,0 h 6 v 31 q 0,6 4,10 v 1 q 0,1 0.5,1 h 1.5 v 0 1 h 1 l 1,1 v 6 q -6,-2 -10,-8 -4,-4 -4,-12 z m 8,0 h 6 v 22 q 0,4 1,7 1,3 3,5 2,3 6,3 v 4 q -7,-1 -11.5,-6.5 Q 312,146 312,139 Z m 0,115 q 104,-88 224,-88 216,0 216,408 v 80 q 0,400 -200,400 -112,0 -240,-104 z"
         id="path2"
         inkscape:connector-curvature="0"
         style="fill:#00ffff" />
    </g>
  </g>
  <g
     inkscape:groupmode="layer"
     id="layer2"
     inkscape:label="trace"
     style="display:inline">
    <path
       style="color:#000000;font-style:normal;font-variant:normal;font-weight:normal;font-stretch:normal;font-size:medium;line-height:normal;font-family:sans-serif;font-variant-ligatures:normal;font-variant-position:normal;font-variant-caps:normal;font-variant-numeric:normal;font-variant-alternates:normal;font-feature-settings:normal;text-indent:0;text-align:start;text-decoration:none;text-decoration-line:none;text-decoration-style:solid;text-decoration-color:#000000;letter-spacing:normal;word-spacing:normal;text-transform:none;writing-mode:lr-tb;direction:ltr;text-orientation:mixed;dominant-baseline:auto;baseline-shift:baseline;text-anchor:start;white-space:normal;shape-padding:0;clip-rule:nonzero;display:inline;overflow:visible;visibility:visible;opacity:1;isolation:auto;mix-blend-mode:normal;color-interpolation:sRGB;color-interpolation-filters:linearRGB;solid-color:#000000;solid-opacity:1;vector-effect:none;fill:none;fill-opacity:1;fill-rule:nonzero;stroke:#000000;stroke-width:100;stroke-linecap:butt;stroke-linejoin:miter;stroke-miterlimit:4;stroke-dasharray:none;stroke-dashoffset:0;stroke-opacity:1;paint-order:stroke markers fill;color-rendering:auto;image-rendering:auto;shape-rendering:auto;text-rendering:auto;enable-background:accumulate"
       d="m 533.47655,1710 c 101.3732,10e-5 188.3243,-74.8397 247.19142,-187.1777 58.86712,-112.338 89.75782,-258.2459 89.75782,-410.416 0,-152.17015 -30.89069,-298.07805 -89.75782,-410.41605 -58.86712,-112.338 -145.81822,-187.1798 -247.19142,-187.1797 -101.3731,0 -188.3243,74.8417 -247.1914,187.1797 -58.8671,112.338 -89.7578,258.246 -89.7578,410.41605 0,152.17 30.8907,298.078 89.7578,410.416 58.8671,112.338 145.8183,187.1777 247.1914,187.1777 z"
       id="path4521-3"
       inkscape:connector-curvature="0" />
  </g>
</svg>
