<?xml version="1.0" encoding="UTF-8" standalone="no"?>
<svg
   xmlns:dc="http://purl.org/dc/elements/1.1/"
   xmlns:cc="http://creativecommons.org/ns#"
   xmlns:rdf="http://www.w3.org/1999/02/22-rdf-syntax-ns#"
   xmlns:svg="http://www.w3.org/2000/svg"
   xmlns="http://www.w3.org/2000/svg"
   xmlns:sodipodi="http://sodipodi.sourceforge.net/DTD/sodipodi-0.dtd"
   xmlns:inkscape="http://www.inkscape.org/namespaces/inkscape"
   version="1.1"
   viewBox="0 -288 1024 2048"
   id="svg6"
   sodipodi:docname="e.svg"
   width="1024"
   height="2048"
   inkscape:version="0.92.0 r">
  <metadata
     id="metadata12">
    <rdf:RDF>
      <cc:Work
         rdf:about="">
        <dc:format>image/svg+xml</dc:format>
        <dc:type
           rdf:resource="http://purl.org/dc/dcmitype/StillImage" />
        <dc:title />
      </cc:Work>
    </rdf:RDF>
  </metadata>
  <defs
     id="defs10" />
  <sodipodi:namedview
     pagecolor="#ffffff"
     bordercolor="#666666"
     borderopacity="1"
     objecttolerance="10"
     gridtolerance="10"
     guidetolerance="10"
     inkscape:pageopacity="0"
     inkscape:pageshadow="2"
     inkscape:window-width="1364"
     inkscape:window-height="730"
     id="namedview8"
     showgrid="false"
     inkscape:zoom="1.4047473"
     inkscape:cx="421.36209"
     inkscape:cy="793.17992"
     inkscape:window-x="0"
     inkscape:window-y="18"
     inkscape:window-maximized="0"
     inkscape:current-layer="layer2"
     inkscape:measure-start="1198.87,818.422"
     inkscape:measure-end="1198.77,818.326"
     showguides="false"
     inkscape:guide-bbox="true">
    <sodipodi:guide
       position="860.20339,725.69492"
       orientation="0,1"
       id="guide880"
       inkscape:locked="false" />
    <sodipodi:guide
       position="514.29434,1188.8982"
       orientation="1,0"
       id="guide882"
       inkscape:locked="false" />
    <sodipodi:guide
       position="557.55932,10.847458"
       orientation="1,0"
       id="guide884"
       inkscape:locked="false" />
    <sodipodi:guide
       position="938.84605,960.32292"
       orientation="0,1"
       id="guide886"
       inkscape:locked="false" />
    <sodipodi:guide
       position="465.58787,1166.079"
       orientation="0,1"
       id="guide888"
       inkscape:locked="false" />
    <sodipodi:guide
       position="1153.6271,1046.7797"
       orientation="0,1"
       id="guide890"
       inkscape:locked="false" />
  </sodipodi:namedview>
  <g
     inkscape:groupmode="layer"
     id="layer2"
     inkscape:label="trace"
     style="display:inline">
    <path
       style="color:#000000;font-style:normal;font-variant:normal;font-weight:normal;font-stretch:normal;font-size:medium;line-height:normal;font-family:sans-serif;font-variant-ligatures:normal;font-variant-position:normal;font-variant-caps:normal;font-variant-numeric:normal;font-variant-alternates:normal;font-feature-settings:normal;text-indent:0;text-align:start;text-decoration:none;text-decoration-line:none;text-decoration-style:solid;text-decoration-color:#000000;letter-spacing:normal;word-spacing:normal;text-transform:none;writing-mode:lr-tb;direction:ltr;text-orientation:mixed;dominant-baseline:auto;baseline-shift:baseline;text-anchor:start;white-space:normal;shape-padding:0;clip-rule:nonzero;display:inline;overflow:visible;visibility:visible;opacity:1;isolation:auto;mix-blend-mode:normal;color-interpolation:sRGB;color-interpolation-filters:linearRGB;solid-color:#000000;solid-opacity:1;vector-effect:none;fill:#000000;fill-opacity:1;fill-rule:evenodd;stroke:none;stroke-width:100;stroke-linecap:butt;stroke-linejoin:miter;stroke-miterlimit:4;stroke-dasharray:none;stroke-dashoffset:0;stroke-opacity:1;color-rendering:auto;image-rendering:auto;shape-rendering:auto;text-rendering:auto;enable-background:accumulate"
       d="m 474.43359,883 -0.42578,0.008 c -106.03275,1.80897 -195.29049,59.14641 -253.96289,140.81249 -58.46193,81.3732 -89.89036,186.981 -90.11523,297.2031 -1.40197,33.1084 -2.01758,92.9434 -2.01758,92.9434 l -0.006,0.5215 0.006,0.5234 c 0,0 0.62171,64.2535 2.00586,99.6465 0.10492,163.1038 34.99451,299.1387 107.58984,397.3633 72.63362,98.2763 184.93367,154.2206 318.4336,154.3301 117.68357,1.7276 205.17274,-47.2999 259.66211,-103.9981 27.27561,-28.3813 46.83134,-58.4269 60.02148,-85.9961 13.19014,-27.5692 20.96484,-50.4481 20.96484,-76.6386 h -100 c 0,-0.1497 -0.0295,-0.087 -0.0762,0.074 h -47.34375 c 0,7.9294 -18.21362,53.7994 -55.26562,88.0215 C 656.85229,1922.0365 606.09491,1948 551.8125,1948 475.59879,1948 407.58621,1917.1902 354.64648,1849.8574 301.70676,1782.5246 264.625,1676.0404 264.625,1525.7051 v -0.2989 L 264.41797,1508 h 597.80664 v -0 h 34.22266 v -185.3184 c 0,-99.2571 -24.73015,-204.5834 -78.91211,-289.666 C 763.35318,947.93308 673.99365,883 559.45898,883 Z m 39.57032,120 h 0.14453 0.14648 c 82.62603,0 138.55512,26.3586 180.09375,81.0371 41.53864,54.6785 67.88477,143.5847 67.88477,269.1016 L 762.25586,1408 H 263.22461 l -0.66797,-56.0293 c 0.0304,-124.6927 28.63779,-213.0794 72.04688,-268.082 43.43215,-55.0319 101.14459,-81.344 179.40039,-80.8887 z"
       transform="translate(0,-288)"
       id="path5546-0-3-2-5-5"
       inkscape:connector-curvature="0" />
  </g>
</svg>
