<?xml version="1.0" encoding="UTF-8" standalone="no"?>
<svg
   xmlns:dc="http://purl.org/dc/elements/1.1/"
   xmlns:cc="http://creativecommons.org/ns#"
   xmlns:rdf="http://www.w3.org/1999/02/22-rdf-syntax-ns#"
   xmlns:svg="http://www.w3.org/2000/svg"
   xmlns="http://www.w3.org/2000/svg"
   xmlns:sodipodi="http://sodipodi.sourceforge.net/DTD/sodipodi-0.dtd"
   xmlns:inkscape="http://www.inkscape.org/namespaces/inkscape"
   version="1.1"
   viewBox="0 -288 1024 2048"
   id="svg6"
   sodipodi:docname="five.svg"
   width="1024"
   height="2048"
   inkscape:version="0.92.0 r">
  <metadata
     id="metadata12">
    <rdf:RDF>
      <cc:Work
         rdf:about="">
        <dc:format>image/svg+xml</dc:format>
        <dc:type
           rdf:resource="http://purl.org/dc/dcmitype/StillImage" />
        <dc:title />
      </cc:Work>
    </rdf:RDF>
  </metadata>
  <defs
     id="defs10" />
  <sodipodi:namedview
     pagecolor="#ffffff"
     bordercolor="#666666"
     borderopacity="1"
     objecttolerance="10"
     gridtolerance="10"
     guidetolerance="10"
     inkscape:pageopacity="0"
     inkscape:pageshadow="2"
     inkscape:window-width="1364"
     inkscape:window-height="730"
     id="namedview8"
     showgrid="false"
     inkscape:zoom="1.0948114"
     inkscape:cx="159.37364"
     inkscape:cy="691.8829"
     inkscape:window-x="0"
     inkscape:window-y="18"
     inkscape:window-maximized="0"
     inkscape:current-layer="layer3"
     inkscape:measure-start="-6.11514,1420.24"
     inkscape:measure-end="421.944,1420.24"
     showguides="true"
     inkscape:guide-bbox="true">
    <sodipodi:guide
       position="845.51112,411.80334"
       orientation="1,0"
       id="guide4527"
       inkscape:locked="false" />
    <sodipodi:guide
       position="137.32824,1138.2237"
       orientation="1,0"
       id="guide4520"
       inkscape:locked="false" />
    <sodipodi:guide
       position="505.1881,1241.5236"
       orientation="1,0"
       id="guide4524"
       inkscape:locked="false" />
    <sodipodi:guide
       position="824.20725,1164.9709"
       orientation="0,1"
       id="guide4526"
       inkscape:locked="false" />
    <sodipodi:guide
       position="150.82,1465.3865"
       orientation="0,1"
       id="guide83"
       inkscape:locked="false" />
  </sodipodi:namedview>
  <g
     inkscape:groupmode="layer"
     id="layer3"
     inkscape:label="trace"
     style="display:inline">
    <path
       style="color:#000000;font-style:normal;font-variant:normal;font-weight:normal;font-stretch:normal;font-size:medium;line-height:normal;font-family:sans-serif;font-variant-ligatures:normal;font-variant-position:normal;font-variant-caps:normal;font-variant-numeric:normal;font-variant-alternates:normal;font-feature-settings:normal;text-indent:0;text-align:start;text-decoration:none;text-decoration-line:none;text-decoration-style:solid;text-decoration-color:#000000;letter-spacing:normal;word-spacing:normal;text-transform:none;writing-mode:lr-tb;direction:ltr;text-orientation:mixed;dominant-baseline:auto;baseline-shift:baseline;text-anchor:start;white-space:normal;shape-padding:0;clip-rule:nonzero;display:inline;overflow:visible;visibility:visible;opacity:1;isolation:auto;mix-blend-mode:normal;color-interpolation:sRGB;color-interpolation-filters:linearRGB;solid-color:#000000;solid-opacity:1;vector-effect:none;fill:#000000;fill-opacity:1;fill-rule:evenodd;stroke:none;stroke-width:100;stroke-linecap:butt;stroke-linejoin:miter;stroke-miterlimit:4;stroke-dasharray:none;stroke-dashoffset:0;stroke-opacity:1;color-rendering:auto;image-rendering:auto;shape-rendering:auto;text-rendering:auto;enable-background:accumulate"
       d="m 145.0625,498 -0.70703,559.9297 -1.64258,20.5976 1.61328,1.6641 -0.006,5.1914 16.70703,12.0215 75.91407,78.248 34.01562,-20.455 c 0,0 71.06109,-41.168 152.36914,-41.168 h 0.72071 l 0.71679,-0.021 c 119.04133,-3.424 319.60156,125.5742 319.60156,384.3887 0,112.0141 -28.58459,222.1385 -79.83007,300.2324 -51.161,77.9651 -119.88747,124.501 -215.70313,124.6543 -90.55381,-2.1019 -160.14075,-18.594 -208.49805,-34.4355 -24.23837,-7.9404 -43.04866,-15.6823 -57.02929,-21.6895 -6.99032,-3.0036 -12.67745,-5.548 -18.08399,-7.7969 -2.70326,-1.1244 -5.2761,-2.1796 -8.74218,-3.3437 -3.46609,-1.1642 -6.17849,-3.3477 -19.1504,-3.3477 v 50.6953 49.3047 c -5.49285,0 -8.39275,-0.3838 -10.0996,-0.7988 2.27269,0.9504 5.91524,2.5367 10.0996,4.3535 v 47.1406 c -5.10391,0 -7.72285,-0.2997 -9.41015,-0.6367 3.66307,1.44 9.88719,4.0182 17.78711,7.1719 15.89724,6.3463 38.771,15.0437 67.59765,23.6797 57.65332,17.2719 139.479,34.4199 241.65235,34.4199 142.06441,0 254.43969,-72.905 324.00976,-180.0547 69.57007,-107.1497 101.36133,-246.8569 101.36133,-393.7168 0,-275.4647 -197.89164,-503.41444 -439.63476,-503.91795 -74.71518,-0.15563 -131.70277,13.78945 -170.56641,28.52925 -8.46564,3.2108 -16.16022,6.572 -23.12109,9.8731 L 277.35156,648 H 880 v -50 -50 -50 z"
       transform="translate(0,-288)"
       id="path5236-7-72-2-3"
       inkscape:connector-curvature="0" />
  </g>
</svg>
