<?xml version="1.0" encoding="UTF-8" standalone="no"?>
<svg
   xmlns:dc="http://purl.org/dc/elements/1.1/"
   xmlns:cc="http://creativecommons.org/ns#"
   xmlns:rdf="http://www.w3.org/1999/02/22-rdf-syntax-ns#"
   xmlns:svg="http://www.w3.org/2000/svg"
   xmlns="http://www.w3.org/2000/svg"
   xmlns:sodipodi="http://sodipodi.sourceforge.net/DTD/sodipodi-0.dtd"
   xmlns:inkscape="http://www.inkscape.org/namespaces/inkscape"
   version="1.1"
   viewBox="0 -288 1024 2048"
   id="svg6"
   sodipodi:docname="n.svg"
   width="1024"
   height="2048"
   inkscape:version="0.92.0 r">
  <metadata
     id="metadata12">
    <rdf:RDF>
      <cc:Work
         rdf:about="">
        <dc:format>image/svg+xml</dc:format>
        <dc:type
           rdf:resource="http://purl.org/dc/dcmitype/StillImage" />
        <dc:title />
      </cc:Work>
    </rdf:RDF>
  </metadata>
  <defs
     id="defs10" />
  <sodipodi:namedview
     pagecolor="#ffffff"
     bordercolor="#666666"
     borderopacity="1"
     objecttolerance="10"
     gridtolerance="10"
     guidetolerance="10"
     inkscape:pageopacity="0"
     inkscape:pageshadow="2"
     inkscape:window-width="1364"
     inkscape:window-height="730"
     id="namedview8"
     showgrid="false"
     inkscape:zoom="0.35118682"
     inkscape:cx="1179.2006"
     inkscape:cy="-160.48837"
     inkscape:window-x="0"
     inkscape:window-y="18"
     inkscape:window-maximized="0"
     inkscape:current-layer="layer2"
     inkscape:measure-start="181.477,341.874"
     inkscape:measure-end="274.966,341.874" />
  <g
     inkscape:groupmode="layer"
     id="layer2"
     inkscape:label="trace">
    <path
       style="color:#000000;font-style:normal;font-variant:normal;font-weight:normal;font-stretch:normal;font-size:medium;line-height:normal;font-family:sans-serif;font-variant-ligatures:normal;font-variant-position:normal;font-variant-caps:normal;font-variant-numeric:normal;font-variant-alternates:normal;font-feature-settings:normal;text-indent:0;text-align:start;text-decoration:none;text-decoration-line:none;text-decoration-style:solid;text-decoration-color:#000000;letter-spacing:normal;word-spacing:normal;text-transform:none;writing-mode:lr-tb;direction:ltr;text-orientation:mixed;dominant-baseline:auto;baseline-shift:baseline;text-anchor:start;white-space:normal;shape-padding:0;clip-rule:nonzero;display:inline;overflow:visible;visibility:visible;opacity:1;isolation:auto;mix-blend-mode:normal;color-interpolation:sRGB;color-interpolation-filters:linearRGB;solid-color:#000000;solid-opacity:1;vector-effect:none;fill:#000000;fill-opacity:1;fill-rule:evenodd;stroke:none;stroke-width:100;stroke-linecap:butt;stroke-linejoin:miter;stroke-miterlimit:4;stroke-dasharray:none;stroke-dashoffset:0;stroke-opacity:1;color-rendering:auto;image-rendering:auto;shape-rendering:auto;text-rendering:auto;enable-background:accumulate"
       d="m 264.72656,877.04297 c -0.0392,0.0741 -0.0771,2.40275 0.0234,3.49609 0.005,-2.11433 -0.001,-3.53843 -0.0234,-3.49609 z m 0.0234,3.49609 c -0.002,0.93114 0.005,1.41649 -0.01,2.95117 h -0.01 V 883 h -49.98828 l -49.99805,-0.49023 c -0.002,0.19406 -4e-4,0.30426 -0.002,0.49023 h -0.0117 v 3.41016 201.91404 808.7266 V 2048 H 202.5 264.73047 302.5 v -891.4219 c 13.14184,-17.532 28.57197,-36.9788 45.68555,-56.4687 C 393.34494,1055.5846 466.393,1003 559.54492,1003 c 83.9066,0 111.46052,27.7435 132.54102,72.9648 21.08049,45.2214 25.41992,113.3034 25.41992,174.0821 v 797.9433 h 36.375 v 0.02 h 100 V 1185.334 c 0,-42.2347 -3.23924,-112.7154 -38.93164,-178.7754 -35.68928,-66.05419 -111.56554,-123.18921 -225.06836,-123.19922 3.97091,0.002 -0.78856,-0.0103 -2.66602,-0.0293 -1.92631,-0.0196 -4.65113,-0.0464 -7.90429,-0.0801 -6.50633,-0.0673 -15.12844,-0.15837 -23.73047,-0.24805 -17.20406,-0.17936 -34.33203,-0.35742 -34.33203,-0.35742 l -0.26172,-0.004 h -0.26172 c -97.47567,0 -174.74781,70.62043 -235.18945,137.47068 -0.90426,-5.9125 -1.59915,-10.3883 -2.51172,-16.3711 -4.71841,-30.9336 -9.43347,-62.08515 -12.94922,-85.832 -1.75788,-11.87342 -3.21865,-21.9153 -4.21094,-29.01367 -0.49615,-3.54918 -0.87686,-6.38696 -1.09766,-8.14453 -0.007,-0.0541 -0.01,-0.14769 -0.0156,-0.21094 z"
       transform="translate(0,-288)"
       id="path5236-3-9-6"
       inkscape:connector-curvature="0" />
  </g>
</svg>
