<?xml version="1.0" encoding="UTF-8" standalone="no"?>
<svg
   xmlns:dc="http://purl.org/dc/elements/1.1/"
   xmlns:cc="http://creativecommons.org/ns#"
   xmlns:rdf="http://www.w3.org/1999/02/22-rdf-syntax-ns#"
   xmlns:svg="http://www.w3.org/2000/svg"
   xmlns="http://www.w3.org/2000/svg"
   xmlns:sodipodi="http://sodipodi.sourceforge.net/DTD/sodipodi-0.dtd"
   xmlns:inkscape="http://www.inkscape.org/namespaces/inkscape"
   version="1.1"
   viewBox="0 -288 1208 2048"
   id="svg6"
   sodipodi:docname="Y.svg"
   width="1208"
   height="2048"
   inkscape:version="0.92.0 r">
  <metadata
     id="metadata12">
    <rdf:RDF>
      <cc:Work
         rdf:about="">
        <dc:format>image/svg+xml</dc:format>
        <dc:type
           rdf:resource="http://purl.org/dc/dcmitype/StillImage" />
        <dc:title />
      </cc:Work>
    </rdf:RDF>
  </metadata>
  <defs
     id="defs10" />
  <sodipodi:namedview
     pagecolor="#ffffff"
     bordercolor="#666666"
     borderopacity="1"
     objecttolerance="10"
     gridtolerance="10"
     guidetolerance="10"
     inkscape:pageopacity="0"
     inkscape:pageshadow="2"
     inkscape:window-width="1364"
     inkscape:window-height="730"
     id="namedview8"
     showgrid="false"
     inkscape:zoom="0.41964569"
     inkscape:cx="-104.87293"
     inkscape:cy="1793.9213"
     inkscape:window-x="0"
     inkscape:window-y="18"
     inkscape:window-maximized="0"
     inkscape:current-layer="layer3"
     inkscape:measure-start="997.664,1544.09"
     inkscape:measure-end="1082.98,1544.09"
     showguides="true"
     inkscape:guide-bbox="true">
    <sodipodi:guide
       position="744.02015,547.6602"
       orientation="1,0"
       id="guide3860"
       inkscape:locked="false" />
    <sodipodi:guide
       position="750.5399,497.41965"
       orientation="0,1"
       id="guide893"
       inkscape:locked="false" />
    <sodipodi:guide
       position="200.94286,1516.5898"
       orientation="0,1"
       id="guide209"
       inkscape:locked="false" />
  </sodipodi:namedview>
  <g
     inkscape:groupmode="layer"
     id="layer3"
     inkscape:label="trace">
    <path
       style="color:#000000;font-style:normal;font-variant:normal;font-weight:normal;font-stretch:normal;font-size:medium;line-height:normal;font-family:sans-serif;font-variant-ligatures:normal;font-variant-position:normal;font-variant-caps:normal;font-variant-numeric:normal;font-variant-alternates:normal;font-feature-settings:normal;text-indent:0;text-align:start;text-decoration:none;text-decoration-line:none;text-decoration-style:solid;text-decoration-color:#000000;letter-spacing:normal;word-spacing:normal;text-transform:none;writing-mode:lr-tb;direction:ltr;text-orientation:mixed;dominant-baseline:auto;baseline-shift:baseline;text-anchor:start;white-space:normal;shape-padding:0;clip-rule:nonzero;display:inline;overflow:visible;visibility:visible;opacity:1;isolation:auto;mix-blend-mode:normal;color-interpolation:sRGB;color-interpolation-filters:linearRGB;solid-color:#000000;solid-opacity:1;vector-effect:none;fill:#000000;fill-opacity:1;fill-rule:evenodd;stroke:none;stroke-width:100;stroke-linecap:butt;stroke-linejoin:miter;stroke-miterlimit:4;stroke-dasharray:none;stroke-dashoffset:0;stroke-opacity:1;color-rendering:auto;image-rendering:auto;shape-rendering:auto;text-rendering:auto;enable-background:accumulate"
       d="m 1007.9062,489.9082 c -0.4139,1.10901 -0.6527,1.82214 -1.4628,3.78125 -0.5238,1.2665 -1.1712,2.77219 -1.836,4.31055 h -49.10935 c 0,-4.5397 0.22875,-6.08185 0.43554,-7.23438 -0.34826,1.11189 -0.79962,2.55202 -1.73437,5.13282 -2.33112,6.43611 -6.22676,16.30339 -11.2793,28.4707 -10.10507,24.33462 -24.89843,58.15209 -42.68945,97.85742 C 864.64843,701.63722 816.99894,804.83439 769.34375,906.98633 695.23435,1065.8446 634.50043,1193.8899 605.18359,1255.6016 575.87182,1193.8694 515.13276,1065.7451 441.01562,906.82812 393.35969,804.64749 345.70755,701.435 310.12305,622.03906 292.3308,582.34109 277.53609,548.53842 267.42773,524.22461 c -5.05417,-12.15691 -8.95326,-22.01309 -11.28711,-28.43945 -0.92913,-2.55848 -1.37168,-3.96973 -1.72265,-5.08399 0.20945,1.16671 0.43945,2.70695 0.43945,7.29883 h -49.24023 c -0.58205,-1.36325 -1.17285,-2.74594 -1.64063,-3.88867 -0.85161,-2.08043 -1.12777,-2.90538 -1.53515,-4.01953 0.21229,1.53229 0.39453,3.72385 0.39453,7.9082 h -47.97852 -52.02148 c 0,14.18467 2.24454,16.42467 3.68945,20.87305 1.44491,4.44838 3.03087,8.54163 4.90625,13.12304 3.75076,9.16284 8.65848,20.03465 14.78906,33.0625 12.26116,26.05571 29.33392,60.41883 49.77539,100.60938 40.88295,80.3811 95.13913,183.81354 149.38868,286.16406 C 425.41323,1140.5519 521.49936,1318.3059 536.5,1346.0352 V 2048 h 100 37.5 v -702.7051 c 15.8475,-29.3351 111.31781,-206.197 210.85156,-394.05467 54.27753,-102.4421 108.55928,-205.91842 149.45504,-286.20507 20.448,-40.14333 37.5255,-74.42679 49.7793,-100.3418 6.127,-12.95751 11.0269,-23.74343 14.7676,-32.78906 1.8704,-4.52282 3.4486,-8.54627 4.8945,-12.91992 1.446,-4.37367 3.7715,-6.21855 3.7715,-20.98438 h -52.0215 -47.9785 c 0,-4.21617 0.1765,-6.48235 0.3867,-8.0918 z"
       transform="translate(0,-288)"
       id="path5236-7-72-2-3"
       inkscape:connector-curvature="0" />
  </g>
</svg>
