<?xml version="1.0" encoding="UTF-8" standalone="no"?>
<svg
   xmlns:dc="http://purl.org/dc/elements/1.1/"
   xmlns:cc="http://creativecommons.org/ns#"
   xmlns:rdf="http://www.w3.org/1999/02/22-rdf-syntax-ns#"
   xmlns:svg="http://www.w3.org/2000/svg"
   xmlns="http://www.w3.org/2000/svg"
   xmlns:sodipodi="http://sodipodi.sourceforge.net/DTD/sodipodi-0.dtd"
   xmlns:inkscape="http://www.inkscape.org/namespaces/inkscape"
   version="1.1"
   viewBox="0 -288 1024 2048"
   id="svg6"
   sodipodi:docname="e.svg"
   width="1024"
   height="2048"
   inkscape:version="0.92.0 r">
  <metadata
     id="metadata12">
    <rdf:RDF>
      <cc:Work
         rdf:about="">
        <dc:format>image/svg+xml</dc:format>
        <dc:type
           rdf:resource="http://purl.org/dc/dcmitype/StillImage" />
        <dc:title />
      </cc:Work>
    </rdf:RDF>
  </metadata>
  <defs
     id="defs10" />
  <sodipodi:namedview
     pagecolor="#ffffff"
     bordercolor="#666666"
     borderopacity="1"
     objecttolerance="10"
     gridtolerance="10"
     guidetolerance="10"
     inkscape:pageopacity="0"
     inkscape:pageshadow="2"
     inkscape:window-width="1364"
     inkscape:window-height="730"
     id="namedview8"
     showgrid="false"
     inkscape:zoom="0.2282643"
     inkscape:cx="-196.7965"
     inkscape:cy="557.57434"
     inkscape:window-x="0"
     inkscape:window-y="18"
     inkscape:window-maximized="0"
     inkscape:current-layer="layer2"
     inkscape:measure-start="1198.87,818.422"
     inkscape:measure-end="1198.77,818.326"
     showguides="true"
     inkscape:guide-bbox="true">
    <sodipodi:guide
       position="860.20339,725.69492"
       orientation="0,1"
       id="guide880"
       inkscape:locked="false" />
    <sodipodi:guide
       position="514.29434,1188.8982"
       orientation="1,0"
       id="guide882"
       inkscape:locked="false" />
    <sodipodi:guide
       position="557.55932,10.847458"
       orientation="1,0"
       id="guide884"
       inkscape:locked="false" />
    <sodipodi:guide
       position="938.84605,960.32292"
       orientation="0,1"
       id="guide886"
       inkscape:locked="false" />
    <sodipodi:guide
       position="465.58787,1166.079"
       orientation="0,1"
       id="guide888"
       inkscape:locked="false" />
    <sodipodi:guide
       position="1153.6271,1046.7797"
       orientation="0,1"
       id="guide890"
       inkscape:locked="false" />
    <sodipodi:guide
       position="823.60667,12.047438"
       orientation="0,1"
       id="guide4148"
       inkscape:locked="false" />
  </sodipodi:namedview>
  <g
     inkscape:groupmode="layer"
     id="layer3"
     inkscape:label="guides"
     style="display:inline"
     sodipodi:insensitive="true">
    <path
       style="fill:none;fill-rule:evenodd;stroke:#ff0000;stroke-width:1.29807782px;stroke-linecap:butt;stroke-linejoin:miter;stroke-opacity:1"
       d="M -357.86483,1779.351 H 1342.7327"
       id="path824-3"
       inkscape:connector-curvature="0" />
    <path
       style="fill:none;fill-rule:evenodd;stroke:#0000ff;stroke-width:1.29807782px;stroke-linecap:butt;stroke-linejoin:miter;stroke-opacity:1"
       d="M -357.86483,1759.351 H 1342.7327"
       id="path824-3-6"
       inkscape:connector-curvature="0" />
    <path
       style="fill:none;fill-rule:evenodd;stroke:#0000ff;stroke-width:1.29807782px;stroke-linecap:butt;stroke-linejoin:miter;stroke-opacity:1"
       d="M -357.86483,593.75096 H 1342.7327"
       id="path824-3-6-7"
       inkscape:connector-curvature="0" />
  </g>
  <g
     inkscape:groupmode="layer"
     id="layer1"
     inkscape:label="model"
     style="display:none"
     sodipodi:insensitive="true">
    <g
       transform="matrix(1,0,0,-1,0,1760)"
       id="g4"
       style="fill:#00ff00">
      <path
         d="m 120,528 v 136 q 0,264 104,388 104,124 240,124 h 96 q 128,0 236,-124 Q 904,928 904,664 V 528 H 264 q 8,-168 76,-272 68,-104 212,-112 72,0 116,28 44,28 68,76 H 896 Q 864,128 768,64 672,0 552,0 352,0 236,148 120,296 120,528 Z m 144,136 h 488 q 1,22 1,43 0,167 -57,245 -64,88 -184,88 -104,0 -176,-96 -72,-96 -72,-280 z"
         id="path2"
         inkscape:connector-curvature="0"
         style="fill:#00ff00" />
    </g>
  </g>
  <g
     inkscape:groupmode="layer"
     id="layer2"
     inkscape:label="trace"
     style="display:inline">
    <path
       style="display:inline;fill:none;fill-rule:evenodd;stroke:#000000;stroke-width:92.35051727;stroke-linecap:butt;stroke-linejoin:miter;stroke-miterlimit:4;stroke-dasharray:none;stroke-opacity:1"
       d="m 850.41374,1551.3137 c 0,41.4761 -81.68928,182.6769 -293.57964,182.6769 -243.82921,0 -380.72717,-160.2214 -380.72717,-423.6607 -2.25583,-53.8437 -2.65123,-103.8787 0,-157.6581 0,-170.32769 118.33367,-329.62852 298.32509,-332.18852 h 85.5666 c 195.29492,0 290.2715,175.75666 290.2715,328.58482 v 118.984 H 175.57336"
       id="path5546-0-3-2-5-5"
       inkscape:connector-curvature="0"
       sodipodi:nodetypes="ccccccccc"
       class="ext" />
    <path
       style="display:inline;fill:none;fill-rule:evenodd;stroke:#000000;stroke-width:92.35051727;stroke-linecap:butt;stroke-linejoin:miter;stroke-miterlimit:4;stroke-dasharray:none;stroke-opacity:1"
       d="m 802.45126,1551.3773 c 0,57.6699 -109.02145,167.1305 -250.18645,167.1305 -183.07989,0 -341.04535,-130.8726 -341.04535,-398.2466 l -2.09244,-146.3314 c 0,-223.22654 121.59481,-337.47262 305.19061,-336.58221 191.28051,0 301.38804,114.16975 301.38804,337.40311 l -0.0334,73.5242 H 210.11663"
       id="path5546-1-6-6-0-9-4"
       inkscape:connector-curvature="0"
       sodipodi:nodetypes="cscccccc"
       class="int" />
  </g>
</svg>
