<?xml version="1.0" encoding="UTF-8" standalone="no"?>
<svg
   xmlns:dc="http://purl.org/dc/elements/1.1/"
   xmlns:cc="http://creativecommons.org/ns#"
   xmlns:rdf="http://www.w3.org/1999/02/22-rdf-syntax-ns#"
   xmlns:svg="http://www.w3.org/2000/svg"
   xmlns="http://www.w3.org/2000/svg"
   xmlns:sodipodi="http://sodipodi.sourceforge.net/DTD/sodipodi-0.dtd"
   xmlns:inkscape="http://www.inkscape.org/namespaces/inkscape"
   version="1.1"
   viewBox="0 -288 1392 2048"
   id="svg6"
   sodipodi:docname="G.svg"
   width="1392"
   height="2048"
   inkscape:version="0.92.1 r">
  <metadata
     id="metadata12">
    <rdf:RDF>
      <cc:Work
         rdf:about="">
        <dc:format>image/svg+xml</dc:format>
        <dc:type
           rdf:resource="http://purl.org/dc/dcmitype/StillImage" />
        <dc:title />
      </cc:Work>
    </rdf:RDF>
  </metadata>
  <defs
     id="defs10" />
  <sodipodi:namedview
     pagecolor="#ffffff"
     bordercolor="#666666"
     borderopacity="1"
     objecttolerance="10"
     gridtolerance="10"
     guidetolerance="10"
     inkscape:pageopacity="0"
     inkscape:pageshadow="2"
     inkscape:window-width="1364"
     inkscape:window-height="730"
     id="namedview8"
     showgrid="false"
     inkscape:zoom="0.34225804"
     inkscape:cx="1054.4078"
     inkscape:cy="520.97049"
     inkscape:window-x="0"
     inkscape:window-y="18"
     inkscape:window-maximized="0"
     inkscape:current-layer="layer2" />
  <g
     inkscape:groupmode="layer"
     id="layer1"
     inkscape:label="model"
     sodipodi:insensitive="true"
     style="display:none">
    <g
       transform="matrix(1,0,0,-1,0,1760)"
       id="g4"
       style="fill:#b3b3b3">
      <path
         d="m 120,760 q 0,376 168,584 168,208 376,208 h 96 q 176,0 324,-120 148,-120 148,-304 h -152 q -32,144 -132,216 -100,72 -244,72 -192,0 -316,-192 Q 272,1044 272,793 v -33 q 0,-320 116,-460 116,-140 324,-148 192,0 376,104 V 696 H 784 v 136 h 448 V 0 H 1088 V 96 Q 912,0 712,0 448,0 284,188 120,376 120,760 Z"
         id="path2"
         inkscape:connector-curvature="0"
         style="fill:#b3b3b3" />
    </g>
  </g>
  <g
     inkscape:groupmode="layer"
     id="layer2"
     inkscape:label="trace"
     style="display:inline">
    <path
       sodipodi:nodetypes="ccc"
       inkscape:connector-curvature="0"
       id="path5236-7-72-2"
       d="m 1143.2676,1760 4e-4,-725 H 785"
       style="display:inline;fill:none;fill-rule:evenodd;stroke:#000000;stroke-width:100;stroke-linecap:butt;stroke-linejoin:miter;stroke-miterlimit:4;stroke-dasharray:none;stroke-opacity:1"
       class="int" />
    <path
       sodipodi:nodetypes="ccc"
       inkscape:connector-curvature="0"
       id="path5236-72-2"
       d="m 1183.2573,1760 -3e-4,-725 H 785"
       style="display:inline;fill:none;fill-rule:evenodd;stroke:#000000;stroke-width:100;stroke-linecap:butt;stroke-linejoin:miter;stroke-miterlimit:4;stroke-dasharray:none;stroke-opacity:1"
       class="ext" />
    <path
       style="display:inline;fill:none;fill-rule:evenodd;stroke:#000000;stroke-width:100;stroke-linecap:butt;stroke-linejoin:miter;stroke-miterlimit:4;stroke-dasharray:none;stroke-opacity:1"
       d="m 1187.9319,630.34381 c 0,-193.21855 -164.8571,-372.13351 -419.2305,-372.13351 H 660.98736 c -358.75295,0 -489.17239,330.83917 -489.17239,730.13456 0,438.61874 185.98538,737.90574 535.44488,737.90574 336.45775,0 475.99715,-194.3734 475.99715,-427.4223"
       id="path951"
       inkscape:connector-curvature="0"
       sodipodi:nodetypes="cccccc"
       class="ext" />
    <path
       style="display:inline;fill:none;fill-rule:evenodd;stroke:#000000;stroke-width:100;stroke-linecap:butt;stroke-linejoin:miter;stroke-miterlimit:4;stroke-dasharray:none;stroke-opacity:1"
       d="M 1131,631.11087 C 1131,475.66596 992.44373,278.863 703.25985,278.863 c -326.74091,0 -490.02521,289.36631 -490.02521,709.69717 0,361.53113 168.99333,691.86203 493.55927,691.86203 267.75815,0 436.47409,-134.7451 436.47409,-204.8217"
       id="path144"
       inkscape:connector-curvature="0"
       sodipodi:nodetypes="ccccc"
       class="int" />
  </g>
</svg>
