<?xml version="1.0" encoding="UTF-8" standalone="no"?>
<!--?xml version="1.0" encoding="UTF-8" standalone="no"?-->

<svg
   xmlns:dc="http://purl.org/dc/elements/1.1/"
   xmlns:cc="http://creativecommons.org/ns#"
   xmlns:rdf="http://www.w3.org/1999/02/22-rdf-syntax-ns#"
   xmlns:svg="http://www.w3.org/2000/svg"
   xmlns="http://www.w3.org/2000/svg"
   xmlns:sodipodi="http://sodipodi.sourceforge.net/DTD/sodipodi-0.dtd"
   xmlns:inkscape="http://www.inkscape.org/namespaces/inkscape"
   version="1.1"
   viewBox="0 -288 1304 2048"
   id="svg6"
   sodipodi:docname="B.svg"
   width="1304"
   height="2048"
   inkscape:version="0.92.1 r">
  <metadata
     id="metadata12">
    <rdf:rdf>
      <cc:work
         rdf:about="">
        <dc:format>image/svg+xml</dc:format>
        <dc:type
           rdf:resource="http://purl.org/dc/dcmitype/StillImage" />
        <dc:title />
      </cc:work>
    </rdf:rdf>
    <rdf:RDF>
      <cc:Work
         rdf:about="">
        <dc:format>image/svg+xml</dc:format>
        <dc:type
           rdf:resource="http://purl.org/dc/dcmitype/StillImage" />
      </cc:Work>
    </rdf:RDF>
  </metadata>
  <defs
     id="defs10" />
  <sodipodi:namedview
     pagecolor="#ffffff"
     bordercolor="#666666"
     borderopacity="1"
     objecttolerance="10"
     gridtolerance="10"
     guidetolerance="10"
     inkscape:pageopacity="0"
     inkscape:pageshadow="2"
     inkscape:window-width="1364"
     inkscape:window-height="730"
     id="namedview8"
     showgrid="false"
     inkscape:zoom="0.096435629"
     inkscape:cx="-689.53643"
     inkscape:cy="200.62458"
     inkscape:window-x="0"
     inkscape:window-y="18"
     inkscape:window-maximized="0"
     inkscape:current-layer="layer3"
     showguides="true"
     inkscape:guide-bbox="true"
     inkscape:measure-start="496.269,1540.2"
     inkscape:measure-end="496.269,1389.86">
    <sodipodi:guide
       position="751.69046,763.96296"
       orientation="1,0"
       id="guide844"
       inkscape:locked="false" />
  </sodipodi:namedview>
  <g
     inkscape:groupmode="layer"
     id="layer3"
     inkscape:label="traces"
     style="display:inline">
    <path
       style="color:#000000;font-style:normal;font-variant:normal;font-weight:normal;font-stretch:normal;font-size:medium;line-height:normal;font-family:sans-serif;font-variant-ligatures:normal;font-variant-position:normal;font-variant-caps:normal;font-variant-numeric:normal;font-variant-alternates:normal;font-feature-settings:normal;text-indent:0;text-align:start;text-decoration:none;text-decoration-line:none;text-decoration-style:solid;text-decoration-color:#000000;letter-spacing:normal;word-spacing:normal;text-transform:none;writing-mode:lr-tb;direction:ltr;text-orientation:mixed;dominant-baseline:auto;baseline-shift:baseline;text-anchor:start;white-space:normal;shape-padding:0;clip-rule:nonzero;display:inline;overflow:visible;visibility:visible;opacity:1;isolation:auto;mix-blend-mode:normal;color-interpolation:sRGB;color-interpolation-filters:linearRGB;solid-color:#000000;solid-opacity:1;vector-effect:none;fill:#000000;fill-opacity:1;fill-rule:evenodd;stroke:none;stroke-width:25;stroke-linecap:round;stroke-linejoin:round;stroke-miterlimit:4;stroke-dasharray:none;stroke-dashoffset:0;stroke-opacity:1;color-rendering:auto;image-rendering:auto;shape-rendering:auto;text-rendering:auto;enable-background:accumulate"
       d="M 212.13281 532.74023 A 12.50125 12.50125 0 0 0 199.63281 545.24023 L 199.63281 1223.1387 A 12.50125 12.50125 0 0 0 199.55469 1223.3066 A 12.50125 12.50125 0 0 0 199.14258 1224.4863 A 12.50125 12.50125 0 0 0 198.68359 1226.9395 A 12.50125 12.50125 0 0 0 198.64062 1228.1875 A 12.50125 12.50125 0 0 0 198.72266 1229.4355 A 12.50125 12.50125 0 0 0 198.92773 1230.668 A 12.50125 12.50125 0 0 0 199.63281 1232.8633 L 199.63281 1998 A 12.50125 12.50125 0 0 0 212.13281 2010.5 L 768.60938 2010.5 C 919.49295 2010.5 1021.2159 1966.2828 1084.1953 1893.8828 C 1147.1747 1821.4829 1170.7168 1722.6266 1170.7168 1615.6562 C 1170.7168 1459.0034 1111.6115 1356.5763 1013.043 1295.9902 C 951.90012 1258.4082 876.33728 1236.5014 790.59375 1225.2676 C 848.1634 1213.8987 902.88934 1195.4769 950.39062 1167.5449 C 1042.9788 1113.1007 1107.2168 1021.0818 1107.2168 880.96875 C 1107.2168 781.74549 1077.3581 694.07812 1013.4668 631.61523 C 949.57547 569.15235 852.55803 532.74023 721.29688 532.74023 L 212.13281 532.74023 z M 224.63281 557.74023 L 721.29688 557.74023 C 847.96189 557.74023 937.65296 592.45723 995.99023 649.49023 C 1054.3275 706.52324 1082.2168 786.72011 1082.2168 880.96875 C 1082.2168 1013.6146 1024.2482 1095.1126 937.71875 1145.9941 C 927.53489 1151.9825 916.93833 1157.5197 905.99023 1162.6367 C 910.39005 1159.6581 914.7278 1156.5883 919 1153.4258 C 1000.4342 1093.1434 1057.1373 998.4063 1054.6992 867.16211 C 1054.6679 799.20634 1029.4056 725.16797 974.56641 667.8418 C 919.69321 610.4801 835.16295 570.5 719.2207 570.5 L 252.12305 570.5 A 12.50125 12.50125 0 0 0 239.62305 583 L 239.62305 1215.5 L 224.63281 1215.5 L 224.63281 557.74023 z M 264.62305 595.5 L 719.2207 595.5 C 829.47002 595.5 906.43151 632.7819 956.50195 685.12305 C 1006.5724 737.46419 1029.7031 805.51456 1029.7031 867.28906 A 12.50125 12.50125 0 0 0 1029.7031 867.52344 C 1032.0396 991.51322 980.08986 1077.0984 904.125 1133.332 C 836.00328 1183.7597 747.98733 1209.8043 663.61914 1214.6484 C 649.95219 1215.219 636.27836 1215.5 622.6582 1215.5 L 264.62305 1215.5 L 264.62305 595.5 z M 224.63281 1240.5 L 239.62305 1240.5 L 239.62305 1958.0957 A 12.50125 12.50125 0 0 0 252.12695 1970.5957 L 727.14844 1970.4043 C 868.67785 1970.4043 967.79718 1932.952 1030.4473 1865.3262 C 1093.0752 1797.7242 1118.0428 1701.6812 1116.3145 1588.0371 C 1116.2977 1469.5031 1076.7132 1383.4367 1011.6348 1324.8066 C 1096.343 1381.7498 1145.7168 1471.6389 1145.7168 1615.6562 C 1145.7168 1718.954 1122.9241 1811.2701 1065.334 1877.4746 C 1007.7439 1943.6792 914.66381 1985.5 768.60938 1985.5 L 224.63281 1985.5 L 224.63281 1240.5 z M 264.62305 1240.5 L 622.6582 1240.5 C 644.71698 1240.5 666.3082 1240.9354 687.41211 1241.8203 C 792.31021 1247.1339 887.05698 1269.0849 957.72461 1314.9316 C 1040.0848 1368.3642 1091.3164 1453.2061 1091.3164 1588.1113 A 12.50125 12.50125 0 0 0 1091.3164 1588.3027 C 1093.0048 1698.1359 1068.9793 1786.9472 1012.1074 1848.3359 C 955.2355 1909.7247 864.30225 1945.4043 727.14648 1945.4043 A 12.50125 12.50125 0 0 0 727.14062 1945.4043 L 264.62109 1945.5898 L 264.62305 1240.5 z "
       transform="translate(0,-288)"
       id="path5236-7-72-2" />
  </g>
  <g
     inkscape:groupmode="layer"
     id="layer4"
     inkscape:label="traces 2"
     style="display:inline" />
</svg>
