<?xml version="1.0" encoding="UTF-8" standalone="no"?>
<!--?xml version="1.0" encoding="UTF-8" standalone="no"?-->

<svg
   xmlns:dc="http://purl.org/dc/elements/1.1/"
   xmlns:cc="http://creativecommons.org/ns#"
   xmlns:rdf="http://www.w3.org/1999/02/22-rdf-syntax-ns#"
   xmlns:svg="http://www.w3.org/2000/svg"
   xmlns="http://www.w3.org/2000/svg"
   xmlns:sodipodi="http://sodipodi.sourceforge.net/DTD/sodipodi-0.dtd"
   xmlns:inkscape="http://www.inkscape.org/namespaces/inkscape"
   version="1.1"
   viewBox="0 -288 1016 2048"
   id="svg6"
   sodipodi:docname="d.svg"
   width="1016"
   height="2048"
   inkscape:version="0.92.1 r">
  <metadata
     id="metadata12">
    <rdf:rdf>
      <cc:work
         rdf:about="">
        <dc:format>image/svg+xml</dc:format>
        <dc:type
           rdf:resource="http://purl.org/dc/dcmitype/StillImage" />
        <dc:title />
      </cc:work>
    </rdf:rdf>
    <rdf:RDF>
      <cc:Work
         rdf:about="">
        <dc:format>image/svg+xml</dc:format>
        <dc:type
           rdf:resource="http://purl.org/dc/dcmitype/StillImage" />
      </cc:Work>
    </rdf:RDF>
  </metadata>
  <defs
     id="defs10" />
  <sodipodi:namedview
     pagecolor="#ffffff"
     bordercolor="#666666"
     borderopacity="1"
     objecttolerance="10"
     gridtolerance="10"
     guidetolerance="10"
     inkscape:pageopacity="0"
     inkscape:pageshadow="2"
     inkscape:window-width="1364"
     inkscape:window-height="730"
     id="namedview8"
     showgrid="false"
     inkscape:zoom="0.11413215"
     inkscape:cx="-1597.1627"
     inkscape:cy="440.87644"
     inkscape:window-x="0"
     inkscape:window-y="18"
     inkscape:window-maximized="0"
     inkscape:current-layer="layer3"
     showguides="true"
     inkscape:guide-bbox="true">
    <sodipodi:guide
       position="490.72363,829.15372"
       orientation="1,0"
       id="guide7019"
       inkscape:locked="false" />
  </sodipodi:namedview>
  <g
     inkscape:groupmode="layer"
     id="layer3"
     inkscape:label="trace"
     style="display:inline">
    <path
       style="color:#000000;font-style:normal;font-variant:normal;font-weight:normal;font-stretch:normal;font-size:medium;line-height:normal;font-family:sans-serif;font-variant-ligatures:normal;font-variant-position:normal;font-variant-caps:normal;font-variant-numeric:normal;font-variant-alternates:normal;font-feature-settings:normal;text-indent:0;text-align:start;text-decoration:none;text-decoration-line:none;text-decoration-style:solid;text-decoration-color:#000000;letter-spacing:normal;word-spacing:normal;text-transform:none;writing-mode:lr-tb;direction:ltr;text-orientation:mixed;dominant-baseline:auto;baseline-shift:baseline;text-anchor:start;white-space:normal;shape-padding:0;clip-rule:nonzero;display:inline;overflow:visible;visibility:visible;opacity:1;isolation:auto;mix-blend-mode:normal;color-interpolation:sRGB;color-interpolation-filters:linearRGB;solid-color:#000000;solid-opacity:1;vector-effect:none;fill:#000000;fill-opacity:0.99708198;fill-rule:evenodd;stroke:none;stroke-width:25;stroke-linecap:round;stroke-linejoin:round;stroke-miterlimit:4;stroke-dasharray:none;stroke-dashoffset:0;stroke-opacity:1;color-rendering:auto;image-rendering:auto;shape-rendering:auto;text-rendering:auto;enable-background:accumulate"
       d="M 767.87109 410.26562 A 12.50125 12.50125 0 0 0 755.55859 422.94141 L 755.55859 724.45898 L 755.55859 1088.9844 C 753.89967 1086.6124 752.15172 1084.1682 750.31445 1081.6602 C 747.29991 1076.8167 744.19054 1071.976 740.98438 1067.1543 C 690.49334 991.22081 615.44635 918.5 518.23242 918.5 L 433.63477 918.5 C 344.03115 918.5 272.72875 977.70916 225.80469 1074.8301 C 178.88063 1171.951 154.26172 1307.8271 154.26172 1468.2773 C 154.26172 1643.7078 188.81923 1784.0599 249.17969 1881.209 C 309.5198 1978.3254 396.96403 2032.0447 498.2793 2030.4961 C 603.14167 2030.4551 683.15269 1962.3546 736.42969 1895.9004 C 745.70268 1884.3339 754.18455 1872.7768 761.90039 1861.5625 C 767.49808 1892.3522 773.96917 1926.7248 779.66406 1957.8867 C 783.64118 1979.6491 787.22304 1999.778 789.8125 2015.7656 C 792.40196 2031.7532 793.93441 2044.3712 793.98047 2047.8516 A 12.50125 12.50125 0 0 0 794.00195 2048.2754 A 12.50125 12.50125 0 0 0 794.03906 2049.0391 A 12.50125 12.50125 0 0 0 794.10352 2049.5039 A 12.50125 12.50125 0 0 0 794.21875 2050.2676 A 12.50125 12.50125 0 0 0 794.33008 2050.7344 A 12.50125 12.50125 0 0 0 794.52344 2051.4922 A 12.50125 12.50125 0 0 0 794.65039 2051.8555 A 12.50125 12.50125 0 0 0 794.95312 2052.6855 A 12.50125 12.50125 0 0 0 795.06445 2052.9238 A 12.50125 12.50125 0 0 0 795.49609 2053.8184 A 12.50125 12.50125 0 0 0 795.61328 2054.0156 A 12.50125 12.50125 0 0 0 796.14648 2054.8848 A 12.50125 12.50125 0 0 0 796.2793 2055.0645 A 12.50125 12.50125 0 0 0 796.90039 2055.8828 A 12.50125 12.50125 0 0 0 797.02734 2056.0234 A 12.50125 12.50125 0 0 0 797.76758 2056.8184 A 12.50125 12.50125 0 0 0 797.78516 2056.834 A 12.50125 12.50125 0 0 0 798.70898 2057.6445 A 12.50125 12.50125 0 0 0 799.7168 2058.3672 A 12.50125 12.50125 0 0 0 799.7793 2058.4043 A 12.50125 12.50125 0 0 0 800.80859 2058.9941 A 12.50125 12.50125 0 0 0 801.94727 2059.5039 A 12.50125 12.50125 0 0 0 801.96875 2059.5117 A 12.50125 12.50125 0 0 0 803.12695 2059.8984 A 12.50125 12.50125 0 0 0 803.18555 2059.9121 A 12.50125 12.50125 0 0 0 804.35156 2060.1738 A 12.50125 12.50125 0 0 0 804.35352 2060.1738 A 12.50125 12.50125 0 0 0 804.36133 2060.1758 A 12.50125 12.50125 0 0 0 805.59375 2060.3242 A 12.50125 12.50125 0 0 0 806.82617 2060.3516 A 12.50125 12.50125 0 0 0 806.93945 2060.3438 A 12.50125 12.50125 0 0 0 808.08984 2060.252 A 12.50125 12.50125 0 0 0 809.31836 2060.0293 A 12.50125 12.50125 0 0 0 810.51172 2059.6875 A 12.50125 12.50125 0 0 0 810.51953 2059.6855 A 12.50125 12.50125 0 0 0 810.57227 2059.6641 A 12.50125 12.50125 0 0 0 811.66016 2059.2324 A 12.50125 12.50125 0 0 0 811.80273 2059.1621 A 12.50125 12.50125 0 0 0 812.77344 2058.6562 A 12.50125 12.50125 0 0 0 812.88867 2058.584 A 12.50125 12.50125 0 0 0 813.80273 2057.9863 A 12.50125 12.50125 0 0 0 814.01953 2057.8164 A 12.50125 12.50125 0 0 0 814.77734 2057.2051 A 12.50125 12.50125 0 0 0 814.97461 2057.0156 A 12.50125 12.50125 0 0 0 815.66992 2056.3281 A 12.50125 12.50125 0 0 0 815.85352 2056.1133 A 12.50125 12.50125 0 0 0 816.46094 2055.3789 A 12.50125 12.50125 0 0 0 816.67969 2055.0625 A 12.50125 12.50125 0 0 0 817.15625 2054.3555 A 12.50125 12.50125 0 0 0 817.38477 2053.9434 A 12.50125 12.50125 0 0 0 817.74609 2053.2715 A 12.50125 12.50125 0 0 0 817.96094 2052.7676 A 12.50125 12.50125 0 0 0 818.23047 2052.1191 A 12.50125 12.50125 0 0 0 818.4043 2051.5625 A 12.50125 12.50125 0 0 0 818.5918 2050.9395 A 12.50125 12.50125 0 0 0 818.72852 2050.291 A 12.50125 12.50125 0 0 0 818.83984 2049.7188 A 12.50125 12.50125 0 0 0 818.91211 2049.0391 A 12.50125 12.50125 0 0 0 818.96484 2048.4629 A 12.50125 12.50125 0 0 0 818.97656 2047.916 A 12.50125 12.50125 0 0 0 818.98047 2047.6855 L 818.98047 1838.8555 L 818.98047 1250.9336 A 12.50125 12.50125 0 0 0 819.06445 1249.4395 C 819.06445 1248.5293 819.03131 1247.597 818.98047 1246.6504 L 818.98047 724.45898 L 818.98047 422.94141 A 12.50125 12.50125 0 0 0 806.29102 410.26562 A 12.50125 12.50125 0 0 0 793.98047 422.94141 L 793.98047 724.45898 L 793.98047 1165.5547 C 789.97488 1156.1806 785.49719 1146.3799 780.55859 1136.3066 L 780.55859 724.45898 L 780.55859 422.94141 A 12.50125 12.50125 0 0 0 767.87109 410.26562 z M 433.63477 943.5 L 441.8125 943.5 C 366.9914 956.0488 307.69798 998.17706 267.1582 1070.4199 C 218.00426 1158.0135 194.57812 1288.5295 194.57812 1466.7676 C 194.57812 1616.1804 216.38032 1746.8489 264.0957 1841.6426 C 311.81109 1936.4363 387.65559 1995.5 490.13477 1995.5 C 547.92549 1995.5 598.43515 1978.4045 640.36914 1955.25 C 600.0657 1984.8883 552.48995 2005.5 498.18555 2005.5 A 12.50125 12.50125 0 0 0 497.99023 2005.5 C 405.54383 2006.9469 327.31421 1959.5935 270.41406 1868.0137 C 213.51392 1776.4339 179.26172 1640.4063 179.26172 1468.2754 C 179.26172 1310.4039 203.89467 1177.6428 248.31445 1085.7051 C 292.73424 993.76938 354.8682 943.5 433.63477 943.5 z M 491.57812 964.49805 C 612.91166 964.49805 690.9549 1043.254 729.03516 1094.7852 C 738.94618 1110.7102 747.80841 1126.7287 755.55859 1142.1641 L 755.55859 1820.5254 C 739.98664 1841.9489 640.32797 1970.5 490.13477 1970.5 C 397.02316 1970.5 331.34088 1919.6329 286.42578 1830.4023 C 241.51068 1741.1718 219.57812 1613.721 219.57812 1466.7676 C 219.57812 1290.7512 243.37682 1163.8828 288.95898 1082.6543 C 334.54115 1001.4257 400.07068 964.49805 491.57812 964.49805 z M 780.55859 1199.3438 C 784.3582 1209.6163 787.39281 1218.9111 789.59766 1226.7715 C 792.28296 1236.3448 793.65287 1244.1586 793.98047 1247.9316 L 793.98047 1754.3809 C 793.07127 1756.5014 788.70504 1766.4662 780.55859 1782.1094 L 780.55859 1199.3438 z M 793.98047 1809.8457 L 793.98047 1838.8555 L 793.98047 1897.7578 C 789.58903 1874.0618 785.32288 1850.8987 781.79688 1830.8008 C 786.30045 1823.3845 790.31798 1816.4098 793.98047 1809.8457 z "
       transform="translate(0,-288)"
       id="path5236-72-2" />
  </g>
</svg>
