<?xml version="1.0" encoding="UTF-8" standalone="no"?>
<!--?xml version="1.0" encoding="UTF-8" standalone="no"?-->

<svg
   xmlns:dc="http://purl.org/dc/elements/1.1/"
   xmlns:cc="http://creativecommons.org/ns#"
   xmlns:rdf="http://www.w3.org/1999/02/22-rdf-syntax-ns#"
   xmlns:svg="http://www.w3.org/2000/svg"
   xmlns="http://www.w3.org/2000/svg"
   xmlns:sodipodi="http://sodipodi.sourceforge.net/DTD/sodipodi-0.dtd"
   xmlns:inkscape="http://www.inkscape.org/namespaces/inkscape"
   version="1.1"
   viewBox="0 -288 1160 2048"
   id="svg6"
   sodipodi:docname="E.svg"
   width="1160"
   height="2048"
   inkscape:version="0.92.1 r">
  <metadata
     id="metadata12">
    <rdf:rdf>
      <cc:work
         rdf:about="">
        <dc:format>image/svg+xml</dc:format>
        <dc:type
           rdf:resource="http://purl.org/dc/dcmitype/StillImage" />
        <dc:title />
      </cc:work>
    </rdf:rdf>
    <rdf:RDF>
      <cc:Work
         rdf:about="">
        <dc:format>image/svg+xml</dc:format>
        <dc:type
           rdf:resource="http://purl.org/dc/dcmitype/StillImage" />
      </cc:Work>
    </rdf:RDF>
  </metadata>
  <defs
     id="defs10" />
  <sodipodi:namedview
     pagecolor="#ffffff"
     bordercolor="#666666"
     borderopacity="1"
     objecttolerance="10"
     gridtolerance="10"
     guidetolerance="10"
     inkscape:pageopacity="0"
     inkscape:pageshadow="2"
     inkscape:window-width="1364"
     inkscape:window-height="730"
     id="namedview8"
     showgrid="false"
     inkscape:zoom="0.21101988"
     inkscape:cx="620.39731"
     inkscape:cy="612.81124"
     inkscape:window-x="0"
     inkscape:window-y="18"
     inkscape:window-maximized="0"
     inkscape:current-layer="layer3"
     showguides="true"
     inkscape:guide-bbox="true"
     inkscape:measure-start="539.521,433.804"
     inkscape:measure-end="539.521,431.982">
    <sodipodi:guide
       position="979.55553,511.58973"
       orientation="0,1"
       id="guide911"
       inkscape:locked="false" />
  </sodipodi:namedview>
  <g
     inkscape:groupmode="layer"
     id="layer3"
     inkscape:label="trace">
    <path
       style="color:#000000;font-style:normal;font-variant:normal;font-weight:normal;font-stretch:normal;font-size:medium;line-height:normal;font-family:sans-serif;font-variant-ligatures:normal;font-variant-position:normal;font-variant-caps:normal;font-variant-numeric:normal;font-variant-alternates:normal;font-feature-settings:normal;text-indent:0;text-align:start;text-decoration:none;text-decoration-line:none;text-decoration-style:solid;text-decoration-color:#000000;letter-spacing:normal;word-spacing:normal;text-transform:none;writing-mode:lr-tb;direction:ltr;text-orientation:mixed;dominant-baseline:auto;baseline-shift:baseline;text-anchor:start;white-space:normal;shape-padding:0;clip-rule:nonzero;display:inline;overflow:visible;visibility:visible;opacity:1;isolation:auto;mix-blend-mode:normal;color-interpolation:sRGB;color-interpolation-filters:linearRGB;solid-color:#000000;solid-opacity:1;vector-effect:none;fill:#000000;fill-opacity:1;fill-rule:evenodd;stroke:none;stroke-width:25;stroke-linecap:round;stroke-linejoin:round;stroke-miterlimit:4;stroke-dasharray:none;stroke-dashoffset:0;stroke-opacity:1;color-rendering:auto;image-rendering:auto;shape-rendering:auto;text-rendering:auto;enable-background:accumulate"
       d="M 212.13281 532.74023 A 12.50125 12.50125 0 0 0 199.63281 545.24023 L 199.63281 1221.7969 A 12.50125 12.50125 0 0 0 199.63281 1225.1855 L 199.63281 1998 A 12.50125 12.50125 0 0 0 212.13281 2010.5 L 1000 2010.5 A 12.50125 12.50125 0 1 0 1000 1985.5 L 224.63281 1985.5 L 224.63281 1236.1875 C 228.69801 1236.2097 233.65382 1236.2302 239.62305 1236.248 L 239.62305 1958.0957 A 12.50125 12.50125 0 0 0 252.125 1970.5957 L 1000.0039 1970.4043 A 12.50125 12.50125 0 1 0 999.99609 1945.4043 L 264.62305 1945.5918 L 264.62305 1236.2891 C 282.06504 1236.3192 299.448 1236.3505 323.91016 1236.3633 C 390.38789 1236.3982 478.7568 1236.3747 567.03711 1236.3281 C 743.58676 1236.2351 919.77306 1236.0489 919.79492 1236.0488 A 12.50125 12.50125 0 0 0 919.80859 1236.0488 A 12.50125 12.50125 0 0 0 920.68945 1211.0684 A 12.50125 12.50125 0 0 0 919.79492 1211.0488 L 264.62305 1211.0488 L 264.62305 595.5 L 1000 595.5 A 12.50125 12.50125 0 1 0 1000 570.5 L 252.12305 570.5 A 12.50125 12.50125 0 0 0 239.62305 583 L 239.62305 1211.248 C 233.64927 1211.2301 228.66243 1211.2097 224.63281 1211.1875 L 224.63281 557.74023 L 1000 557.74023 A 12.50125 12.50125 0 1 0 1000 532.74023 L 212.13281 532.74023 z "
       transform="translate(0,-288)"
       id="path5236-7-72-2" />
  </g>
</svg>
