<?xml version="1.0" encoding="UTF-8" standalone="no"?>
<!--?xml version="1.0" encoding="UTF-8" standalone="no"?-->

<svg
   xmlns:dc="http://purl.org/dc/elements/1.1/"
   xmlns:cc="http://creativecommons.org/ns#"
   xmlns:rdf="http://www.w3.org/1999/02/22-rdf-syntax-ns#"
   xmlns:svg="http://www.w3.org/2000/svg"
   xmlns="http://www.w3.org/2000/svg"
   xmlns:sodipodi="http://sodipodi.sourceforge.net/DTD/sodipodi-0.dtd"
   xmlns:inkscape="http://www.inkscape.org/namespaces/inkscape"
   version="1.1"
   viewBox="0 -288 1024 2048"
   id="svg6"
   sodipodi:docname="eight.svg"
   width="1024"
   height="2048"
   inkscape:version="0.92.1 r">
  <metadata
     id="metadata12">
    <rdf:rdf>
      <cc:work
         rdf:about="">
        <dc:format>image/svg+xml</dc:format>
        <dc:type
           rdf:resource="http://purl.org/dc/dcmitype/StillImage" />
        <dc:title />
      </cc:work>
    </rdf:rdf>
    <rdf:RDF>
      <cc:Work
         rdf:about="">
        <dc:format>image/svg+xml</dc:format>
        <dc:type
           rdf:resource="http://purl.org/dc/dcmitype/StillImage" />
      </cc:Work>
    </rdf:RDF>
  </metadata>
  <defs
     id="defs10" />
  <sodipodi:namedview
     pagecolor="#ffffff"
     bordercolor="#666666"
     borderopacity="1"
     objecttolerance="10"
     gridtolerance="10"
     guidetolerance="10"
     inkscape:pageopacity="0"
     inkscape:pageshadow="2"
     inkscape:window-width="1364"
     inkscape:window-height="730"
     id="namedview8"
     showgrid="false"
     inkscape:zoom="0.090283198"
     inkscape:cx="-2660.2049"
     inkscape:cy="1485.0467"
     inkscape:window-x="0"
     inkscape:window-y="18"
     inkscape:window-maximized="0"
     inkscape:current-layer="layer3"
     inkscape:measure-start="518.14,-132.547"
     inkscape:measure-end="518.14,289.194"
     showguides="true"
     inkscape:guide-bbox="true">
    <sodipodi:guide
       position="186.77207,501.25482"
       orientation="0,1"
       id="guide895"
       inkscape:locked="false" />
    <sodipodi:guide
       position="514.5623,791.70672"
       orientation="1,0"
       id="guide172"
       inkscape:locked="false" />
    <sodipodi:guide
       position="332.87455,183.7588"
       orientation="1,0"
       id="guide174"
       inkscape:locked="false" />
    <sodipodi:guide
       position="514.5623,205.59899"
       orientation="0,1"
       id="guide176"
       inkscape:locked="false" />
    <sodipodi:guide
       position="170.20282,953.0605"
       orientation="0,1"
       id="guide178"
       inkscape:locked="false" />
  </sodipodi:namedview>
  <g
     inkscape:groupmode="layer"
     id="layer3"
     inkscape:label="trace"
     style="display:inline">
    <path
       style="color:#000000;font-style:normal;font-variant:normal;font-weight:normal;font-stretch:normal;font-size:medium;line-height:normal;font-family:sans-serif;font-variant-ligatures:normal;font-variant-position:normal;font-variant-caps:normal;font-variant-numeric:normal;font-variant-alternates:normal;font-feature-settings:normal;text-indent:0;text-align:start;text-decoration:none;text-decoration-line:none;text-decoration-style:solid;text-decoration-color:#000000;letter-spacing:normal;word-spacing:normal;text-transform:none;writing-mode:lr-tb;direction:ltr;text-orientation:mixed;dominant-baseline:auto;baseline-shift:baseline;text-anchor:start;white-space:normal;shape-padding:0;clip-rule:nonzero;display:inline;overflow:visible;visibility:visible;opacity:1;isolation:auto;mix-blend-mode:normal;color-interpolation:sRGB;color-interpolation-filters:linearRGB;solid-color:#000000;solid-opacity:1;vector-effect:none;fill:#010000;fill-opacity:1;fill-rule:evenodd;stroke:none;stroke-width:25;stroke-linecap:round;stroke-linejoin:round;stroke-miterlimit:4;stroke-dasharray:none;stroke-dashoffset:0;stroke-opacity:1;color-rendering:auto;image-rendering:auto;shape-rendering:auto;text-rendering:auto;enable-background:accumulate"
       d="M 465.34766 535.5 C 421.1133 535.5 355.19843 560.90551 298.53906 618.70117 C 241.87969 676.49684 195.80649 767.32175 195.80664 896.97656 A 12.50125 12.50125 0 0 0 195.80859 897.22266 C 197.82585 999.56577 226.34119 1077.7965 279.84766 1138.7695 C 327.79476 1193.4075 395.176 1233.9391 479.93945 1268.0586 C 393.30369 1303.43 318.01765 1349.9165 262.53125 1410.7012 C 200.70319 1478.433 163.80664 1564.0835 163.80664 1668.8438 C 163.80664 1801.7578 205.84747 1893.2907 271.43359 1950.5703 C 337.01972 2007.85 424.78514 2030.5 514.65234 2030.5 C 604.51955 2030.5 692.28692 2007.85 757.87305 1950.5703 C 823.45912 1893.2907 865.5 1801.7578 865.5 1668.8438 C 865.5 1564.0693 828.41947 1478.4136 766.41797 1410.6875 C 710.77733 1349.9095 635.34431 1303.4294 548.68555 1268.0605 C 633.64475 1233.9028 701.98448 1193.1776 750.54883 1138.4199 C 804.73874 1077.3193 833.5 998.93697 833.5 896.97656 A 12.50125 12.50125 0 0 0 833.49805 896.73047 C 830.94539 767.21444 784.93866 676.55635 728.94531 618.77148 C 672.95197 560.98662 608.19596 535.5 563.95898 535.5 L 465.34766 535.5 z M 465.34766 560.5 L 563.95898 560.5 C 598.02211 560.5 659.2887 582.81022 710.99219 636.16797 C 762.68043 689.50998 806.03327 773.30833 808.49805 897.11523 C 808.48498 946.76771 801.55079 989.55158 788.11523 1027.0684 C 798.97179 987.88756 804.30664 944.05379 804.30664 894.88281 C 804.30664 789.90074 771.93695 707.72448 719.08984 652.01758 C 666.24274 596.31067 593.27634 567.5 514.30664 567.5 C 435.33694 567.49999 362.528 596.31862 309.85547 652.0332 C 257.18294 707.74778 224.99805 789.91484 224.99805 894.88281 C 224.99805 935.56386 228.61091 972.57338 235.94531 1006.3145 C 226.71494 973.9118 221.62335 937.72815 220.80859 896.85742 C 220.83679 773.14673 264.12169 689.51836 316.39062 636.20117 C 368.67668 582.86652 431.28192 560.5 465.34766 560.5 z M 514.30664 592.5 C 587.24023 592.5 653.02556 618.70345 700.95312 669.22461 C 748.88071 719.74577 779.30664 795.00995 779.30664 894.88281 C 779.30664 993.19453 757.72759 1065.7878 713.85938 1122.793 C 670.69746 1178.8803 604.9852 1220.4849 514.30664 1254.5664 C 423.63235 1220.4873 358.10042 1178.9799 315.11133 1122.9492 C 271.41859 1066.0014 249.99805 993.40068 249.99805 894.88281 C 249.99805 794.99584 280.26607 719.72247 328.02148 669.20898 C 375.7769 618.6955 441.37305 592.5 514.30664 592.5 z M 514.30664 1281.4258 C 514.48523 1281.4926 514.66135 1281.562 514.83984 1281.6289 C 695.9197 1350.7678 808.70384 1515.082 807.26172 1675.7168 A 12.50125 12.50125 0 0 0 807.26172 1675.8301 C 807.26172 1836.5949 690.72595 1970.5 515 1970.5 C 339.27405 1970.5 222.04492 1836.5603 222.04492 1675.8301 A 12.50125 12.50125 0 0 0 222.04492 1675.7168 C 220.60249 1515.0474 332.71557 1350.7616 513.77539 1281.627 C 513.95311 1281.5603 514.12882 1281.4923 514.30664 1281.4258 z M 279.09766 1429.6758 C 225.72305 1503.4517 196.28808 1589.688 197.04492 1675.8691 C 197.06448 1848.8971 326.45208 1995.5 515 1995.5 C 703.5472 1995.5 832.24129 1848.8635 832.26172 1675.8711 C 833.01886 1589.698 803.42962 1503.4849 749.91211 1429.7266 C 807.03851 1493.0443 840.5 1571.0107 840.5 1668.8438 C 840.5 1796.5519 801.1321 1879.5974 741.42773 1931.7402 C 681.72337 1983.8831 600.31641 2005.5 514.65234 2005.5 C 428.98828 2005.5 347.58327 1983.8831 287.87891 1931.7402 C 228.17454 1879.5974 188.80664 1796.5519 188.80664 1668.8438 C 188.80664 1570.9775 222.12194 1492.9948 279.09766 1429.6758 z "
       transform="translate(0,-288)"
       id="path5848-2-9-9-9-6" />
  </g>
</svg>
