<?xml version="1.0" encoding="UTF-8" standalone="no"?>
<!--?xml version="1.0" encoding="UTF-8" standalone="no"?-->

<svg
   xmlns:dc="http://purl.org/dc/elements/1.1/"
   xmlns:cc="http://creativecommons.org/ns#"
   xmlns:rdf="http://www.w3.org/1999/02/22-rdf-syntax-ns#"
   xmlns:svg="http://www.w3.org/2000/svg"
   xmlns="http://www.w3.org/2000/svg"
   xmlns:sodipodi="http://sodipodi.sourceforge.net/DTD/sodipodi-0.dtd"
   xmlns:inkscape="http://www.inkscape.org/namespaces/inkscape"
   version="1.1"
   viewBox="0 -288 624 2048"
   id="svg6"
   sodipodi:docname="f.svg"
   width="624"
   height="2048"
   inkscape:version="0.92.1 r">
  <metadata
     id="metadata12">
    <rdf:rdf>
      <cc:work
         rdf:about="">
        <dc:format>image/svg+xml</dc:format>
        <dc:type
           rdf:resource="http://purl.org/dc/dcmitype/StillImage" />
        <dc:title />
      </cc:work>
    </rdf:rdf>
    <rdf:RDF>
      <cc:Work
         rdf:about="">
        <dc:format>image/svg+xml</dc:format>
        <dc:type
           rdf:resource="http://purl.org/dc/dcmitype/StillImage" />
      </cc:Work>
    </rdf:RDF>
  </metadata>
  <defs
     id="defs10" />
  <sodipodi:namedview
     pagecolor="#ffffff"
     bordercolor="#666666"
     borderopacity="1"
     objecttolerance="10"
     gridtolerance="10"
     guidetolerance="10"
     inkscape:pageopacity="0"
     inkscape:pageshadow="2"
     inkscape:window-width="1364"
     inkscape:window-height="730"
     id="namedview8"
     showgrid="false"
     inkscape:zoom="0.5934686"
     inkscape:cx="-5.6467896"
     inkscape:cy="1356.4403"
     inkscape:window-x="0"
     inkscape:window-y="18"
     inkscape:window-maximized="0"
     inkscape:current-layer="layer3" />
  <g
     inkscape:groupmode="layer"
     id="layer3"
     inkscape:label="trace"
     style="display:inline">
    <path
       style="color:#000000;font-style:normal;font-variant:normal;font-weight:normal;font-stretch:normal;font-size:medium;line-height:normal;font-family:sans-serif;font-variant-ligatures:normal;font-variant-position:normal;font-variant-caps:normal;font-variant-numeric:normal;font-variant-alternates:normal;font-feature-settings:normal;text-indent:0;text-align:start;text-decoration:none;text-decoration-line:none;text-decoration-style:solid;text-decoration-color:#000000;letter-spacing:normal;word-spacing:normal;text-transform:none;writing-mode:lr-tb;direction:ltr;text-orientation:mixed;dominant-baseline:auto;baseline-shift:baseline;text-anchor:start;white-space:normal;shape-padding:0;clip-rule:nonzero;display:inline;overflow:visible;visibility:visible;opacity:1;isolation:auto;mix-blend-mode:normal;color-interpolation:sRGB;color-interpolation-filters:linearRGB;solid-color:#000000;solid-opacity:1;vector-effect:none;fill:#000000;fill-opacity:1;fill-rule:evenodd;stroke:none;stroke-width:25;stroke-linecap:round;stroke-linejoin:round;stroke-miterlimit:4;stroke-dasharray:none;stroke-dashoffset:0;stroke-opacity:1;color-rendering:auto;image-rendering:auto;shape-rendering:auto;text-rendering:auto;enable-background:accumulate"
       d="M 360.57422 460.25781 C 294.10796 460.25781 251.57103 487.08688 229.30078 530.95703 C 207.03053 574.82718 202.87109 633.39027 202.87109 700.94531 L 202.87109 924.79492 L 24.654297 924.79492 A 12.50125 12.50125 0 1 0 24.654297 949.79492 L 202.87109 949.79492 L 202.87109 2048.6465 A 12.50125 12.50125 0 1 0 227.87109 2048.6465 L 227.87109 949.79492 L 239.03711 949.79492 L 239.03711 2048.6465 A 12.50125 12.50125 0 1 0 264.03711 2048.6465 L 264.03711 949.79492 L 551.77344 949.79492 L 552.78906 949.79492 A 12.50125 12.50125 0 1 0 552.78906 924.79492 L 551.77344 924.79492 L 264.03711 924.79492 L 264.03711 647.20508 C 264.03711 605.62396 271.03765 573.93721 286.83984 553.52734 C 302.64204 533.11748 327.71962 521.44531 371.2793 521.44531 L 566.08594 521.44531 A 12.50125 12.50125 0 1 0 566.08594 496.44531 L 371.2793 496.44531 C 322.96726 496.44531 288.17297 510.96932 267.07227 538.22266 C 245.97156 565.47599 239.03711 602.9192 239.03711 647.20508 L 239.03711 924.79492 L 227.87109 924.79492 L 227.87109 700.94531 C 227.87109 634.539 232.94665 579.00635 251.59375 542.27344 C 270.24085 505.54052 300.30356 485.25781 360.57422 485.25781 L 566.17383 485.25781 A 12.50125 12.50125 0 1 0 566.17383 460.25781 L 360.57422 460.25781 z "
       transform="translate(0,-288)"
       id="path5829-3-3" />
  </g>
</svg>
