<?xml version="1.0" encoding="UTF-8" standalone="no"?>
<!--?xml version="1.0" encoding="UTF-8" standalone="no"?-->

<svg
   xmlns:dc="http://purl.org/dc/elements/1.1/"
   xmlns:cc="http://creativecommons.org/ns#"
   xmlns:rdf="http://www.w3.org/1999/02/22-rdf-syntax-ns#"
   xmlns:svg="http://www.w3.org/2000/svg"
   xmlns="http://www.w3.org/2000/svg"
   xmlns:sodipodi="http://sodipodi.sourceforge.net/DTD/sodipodi-0.dtd"
   xmlns:inkscape="http://www.inkscape.org/namespaces/inkscape"
   version="1.1"
   viewBox="0 -288 1392 2048"
   id="svg6"
   sodipodi:docname="G.svg"
   width="1392"
   height="2048"
   inkscape:version="0.92.1 r">
  <metadata
     id="metadata12">
    <rdf:rdf>
      <cc:work
         rdf:about="">
        <dc:format>image/svg+xml</dc:format>
        <dc:type
           rdf:resource="http://purl.org/dc/dcmitype/StillImage" />
        <dc:title />
      </cc:work>
    </rdf:rdf>
    <rdf:RDF>
      <cc:Work
         rdf:about="">
        <dc:format>image/svg+xml</dc:format>
        <dc:type
           rdf:resource="http://purl.org/dc/dcmitype/StillImage" />
      </cc:Work>
    </rdf:RDF>
  </metadata>
  <defs
     id="defs10" />
  <sodipodi:namedview
     pagecolor="#ffffff"
     bordercolor="#666666"
     borderopacity="1"
     objecttolerance="10"
     gridtolerance="10"
     guidetolerance="10"
     inkscape:pageopacity="0"
     inkscape:pageshadow="2"
     inkscape:window-width="1364"
     inkscape:window-height="730"
     id="namedview8"
     showgrid="false"
     inkscape:zoom="0.14321191"
     inkscape:cx="-735.11474"
     inkscape:cy="-50.739215"
     inkscape:window-x="0"
     inkscape:window-y="18"
     inkscape:window-maximized="0"
     inkscape:current-layer="layer2" />
  <g
     inkscape:groupmode="layer"
     id="layer2"
     inkscape:label="trace"
     style="display:inline">
    <path
       style="color:#000000;font-style:normal;font-variant:normal;font-weight:normal;font-stretch:normal;font-size:medium;line-height:normal;font-family:sans-serif;font-variant-ligatures:normal;font-variant-position:normal;font-variant-caps:normal;font-variant-numeric:normal;font-variant-alternates:normal;font-feature-settings:normal;text-indent:0;text-align:start;text-decoration:none;text-decoration-line:none;text-decoration-style:solid;text-decoration-color:#000000;letter-spacing:normal;word-spacing:normal;text-transform:none;writing-mode:lr-tb;direction:ltr;text-orientation:mixed;dominant-baseline:auto;baseline-shift:baseline;text-anchor:start;white-space:normal;shape-padding:0;clip-rule:nonzero;display:inline;overflow:visible;visibility:visible;opacity:1;isolation:auto;mix-blend-mode:normal;color-interpolation:sRGB;color-interpolation-filters:linearRGB;solid-color:#000000;solid-opacity:1;vector-effect:none;fill:#000000;fill-opacity:1;fill-rule:evenodd;stroke:none;stroke-width:25;stroke-linecap:round;stroke-linejoin:round;stroke-miterlimit:4;stroke-dasharray:none;stroke-dashoffset:0;stroke-opacity:1;color-rendering:auto;image-rendering:auto;shape-rendering:auto;text-rendering:auto;enable-background:accumulate"
       d="M 660.98828 533.71094 C 477.76934 533.71094 350.27155 619.62274 271.07422 755.23828 C 191.87689 890.85383 159.31445 1075.3371 159.31445 1276.3457 C 159.31445 1497.4218 206.02593 1684.3593 298.22852 1816.918 C 390.4311 1949.4767 528.96156 2026.75 707.25977 2026.75 C 877.89575 2026.75 1000.6716 1977.1793 1080.3145 1896.7266 C 1102.5059 1874.3094 1121.288 1849.562 1136.8457 1822.9531 C 1140.6472 1847.4211 1145.6549 1879.7399 1150.9062 1913.9492 C 1155.9033 1946.5011 1160.9015 1979.3383 1164.6445 2004.5742 C 1166.516 2017.1922 1168.0746 2027.9154 1169.1582 2035.7148 C 1169.7 2039.6146 1170.1234 2042.7885 1170.4023 2045.0508 C 1170.6813 2047.3131 1170.7578 2049.7157 1170.7578 2048 A 12.50125 12.50125 0 1 0 1195.7578 2048 L 1195.7578 1323 A 12.50125 12.50125 0 0 0 1183.2578 1310.5 L 1143.2676 1310.5 L 785 1310.5 A 12.50125 12.50125 0 0 0 773.76367 1317.1719 A 12.50125 12.50125 0 0 0 773.23633 1318.3066 A 12.50125 12.50125 0 0 0 785 1335.5 L 1130.7676 1335.5 L 1130.7676 1780.8789 C 1128.1745 1786.4108 1125.457 1791.8702 1122.6016 1797.25 C 1118.3383 1803.0342 1112.4225 1809.8073 1104.9238 1817.1191 C 1048.4609 1872.1752 905.17106 1955.9219 706.79297 1955.9219 C 548.75067 1955.9219 429.865 1876.3474 348.79102 1751.2656 C 267.71703 1626.1839 225.73437 1455.3785 225.73438 1276.5605 C 225.73438 1068.0137 266.44169 892.86882 346.18164 770.92773 C 425.92159 648.98665 543.57937 579.36328 703.25977 579.36328 C 986.77243 579.36328 1118.5 771.09436 1118.5 919.11133 A 12.50125 12.50125 0 1 0 1143.5 919.11133 C 1143.5 770.38573 1022.2721 589.14363 776.71094 558.7793 C 1020.6058 562.46538 1175.4316 734.24364 1175.4316 918.34375 A 12.50125 12.50125 0 1 0 1200.4316 918.34375 C 1200.4316 718.01507 1028.9359 533.71094 768.70117 533.71094 L 660.98828 533.71094 z M 628.94141 559.625 C 498.02597 578.73108 395.9765 649.10063 325.25781 757.24609 C 241.67038 885.07088 200.73436 1064.7765 200.73438 1276.5605 C 200.73436 1459.2738 243.24833 1634.3968 327.8125 1764.8633 C 412.37667 1895.3297 540.26932 1980.9219 706.79297 1980.9219 C 857.31658 1980.9219 976.94352 1935.209 1054.6641 1886.8418 C 980.24227 1957.3774 867.3271 2001.75 707.25977 2001.75 C 536.09847 2001.75 406.90693 1929.3821 318.75195 1802.6426 C 230.59698 1675.9031 184.31445 1493.8883 184.31445 1276.3457 C 184.31445 1078.0589 216.96148 897.47359 292.66211 767.8457 C 363.65912 646.27217 471.06369 568.78493 628.94141 559.625 z M 1155.7676 1335.5 L 1170.7578 1335.5 L 1170.7578 1586.8281 C 1170.7578 1630.0501 1165.8718 1671.7252 1155.7676 1710.9043 L 1155.7676 1335.5 z M 1170.7578 1748.0195 L 1170.7578 1878.7031 C 1163.2769 1830.2266 1156.9602 1789.6265 1156.2617 1785.1543 C 1161.6691 1773.0679 1166.4921 1760.6756 1170.7578 1748.0195 z "
       transform="translate(0,-288)"
       id="path5236-7-72-2" />
  </g>
</svg>
