<?xml version="1.0" encoding="UTF-8" standalone="no"?>
<!--?xml version="1.0" encoding="UTF-8" standalone="no"?-->

<svg
   xmlns:dc="http://purl.org/dc/elements/1.1/"
   xmlns:cc="http://creativecommons.org/ns#"
   xmlns:rdf="http://www.w3.org/1999/02/22-rdf-syntax-ns#"
   xmlns:svg="http://www.w3.org/2000/svg"
   xmlns="http://www.w3.org/2000/svg"
   xmlns:sodipodi="http://sodipodi.sourceforge.net/DTD/sodipodi-0.dtd"
   xmlns:inkscape="http://www.inkscape.org/namespaces/inkscape"
   version="1.1"
   viewBox="0 -288 1024 2048"
   id="svg6"
   sodipodi:docname="h.svg"
   width="1024"
   height="2048"
   inkscape:version="0.92.1 r">
  <metadata
     id="metadata12">
    <rdf:rdf>
      <cc:work
         rdf:about="">
        <dc:format>image/svg+xml</dc:format>
        <dc:type
           rdf:resource="http://purl.org/dc/dcmitype/StillImage" />
        <dc:title />
      </cc:work>
    </rdf:rdf>
    <rdf:RDF>
      <cc:Work
         rdf:about="">
        <dc:format>image/svg+xml</dc:format>
        <dc:type
           rdf:resource="http://purl.org/dc/dcmitype/StillImage" />
      </cc:Work>
    </rdf:RDF>
  </metadata>
  <defs
     id="defs10" />
  <sodipodi:namedview
     pagecolor="#ffffff"
     bordercolor="#666666"
     borderopacity="1"
     objecttolerance="10"
     gridtolerance="10"
     guidetolerance="10"
     inkscape:pageopacity="0"
     inkscape:pageshadow="2"
     inkscape:window-width="1364"
     inkscape:window-height="730"
     id="namedview8"
     showgrid="false"
     inkscape:zoom="0.41964567"
     inkscape:cx="275.07572"
     inkscape:cy="772.7754"
     inkscape:window-x="0"
     inkscape:window-y="18"
     inkscape:window-maximized="0"
     inkscape:current-layer="layer3" />
  <g
     inkscape:groupmode="layer"
     id="layer3"
     inkscape:label="trace">
    <path
       style="color:#000000;font-style:normal;font-variant:normal;font-weight:normal;font-stretch:normal;font-size:medium;line-height:normal;font-family:sans-serif;font-variant-ligatures:normal;font-variant-position:normal;font-variant-caps:normal;font-variant-numeric:normal;font-variant-alternates:normal;font-feature-settings:normal;text-indent:0;text-align:start;text-decoration:none;text-decoration-line:none;text-decoration-style:solid;text-decoration-color:#000000;letter-spacing:normal;word-spacing:normal;text-transform:none;writing-mode:lr-tb;direction:ltr;text-orientation:mixed;dominant-baseline:auto;baseline-shift:baseline;text-anchor:start;white-space:normal;shape-padding:0;clip-rule:nonzero;display:inline;overflow:visible;visibility:visible;opacity:1;isolation:auto;mix-blend-mode:normal;color-interpolation:sRGB;color-interpolation-filters:linearRGB;solid-color:#000000;solid-opacity:1;vector-effect:none;fill:#000000;fill-opacity:1;fill-rule:evenodd;stroke:none;stroke-width:25;stroke-linecap:round;stroke-linejoin:round;stroke-miterlimit:4;stroke-dasharray:none;stroke-dashoffset:0;stroke-opacity:1;color-rendering:auto;image-rendering:auto;shape-rendering:auto;text-rendering:auto;enable-background:accumulate"
       d="M 214.54297 410.32422 A 12.50125 12.50125 0 0 0 202.23047 423 L 202.23047 1192.4258 A 12.50125 12.50125 0 0 0 202.23047 1202.6191 L 202.23047 2048 A 12.50125 12.50125 0 1 0 227.23047 2048 L 227.23047 1199.3535 C 229.79351 1195.2899 233.96232 1188.772 240 1179.7871 L 240 2048 A 12.50125 12.50125 0 1 0 265 2048 L 265 1144.1875 C 280.55809 1122.9324 299.88815 1098.1095 321.83203 1073.2832 C 322.50211 1072.5251 323.18639 1071.7691 323.86133 1071.0117 C 374.01303 1022.0343 454.61632 965.5 559.54492 965.5 C 654.40002 965.5 700.28116 1004.7905 726.07422 1060.1211 C 751.86728 1115.4517 755.00586 1188.1686 755.00586 1250.0469 L 755.00586 2047.9902 A 12.50125 12.50125 0 1 0 780.00586 2047.9902 L 780.00586 1250.0469 C 780.00586 1187.4355 777.6672 1111.6287 748.73242 1049.5586 C 726.54991 1001.9733 687.2244 963.25224 624.05078 947.77148 C 696.86274 956.31554 736.336 992.53861 759.96289 1036.2676 C 787.0512 1086.403 791.38086 1147.5262 791.38086 1185.334 L 791.38086 2048.0098 A 12.50125 12.50125 0 1 0 816.38086 2048.0098 L 816.38086 1185.334 C 816.38086 1145.7555 812.48697 1080.89 781.95703 1024.3848 C 751.42769 967.881 692.3287 920.86182 589.85938 920.85938 L 589.85156 920.85938 C 590.91509 920.85992 588.75945 920.84773 586.83398 920.82812 C 584.90354 920.80853 582.17611 920.78175 578.92188 920.74805 C 572.41341 920.68075 563.79203 920.58969 555.18945 920.5 C 537.98431 920.32063 520.85547 920.14258 520.85547 920.14258 A 12.50125 12.50125 0 0 0 520.72461 920.14062 C 442.25553 920.14062 366.50356 986.01398 307.77539 1051.4844 C 289.83466 1068.8884 275.51405 1085.4756 265 1098.7598 L 265 423 A 12.50125 12.50125 0 0 0 252.3125 410.32422 A 12.50125 12.50125 0 0 0 240 423 L 240 1136.0742 C 235.34448 1142.5327 231.08954 1148.573 227.23047 1154.1562 L 227.23047 423 A 12.50125 12.50125 0 0 0 214.54297 410.32422 z "
       transform="translate(0,-288)"
       id="path5236-3-9-6" />
  </g>
</svg>
