<?xml version="1.0" encoding="UTF-8" standalone="no"?>
<!--?xml version="1.0" encoding="UTF-8" standalone="no"?-->

<svg
   xmlns:dc="http://purl.org/dc/elements/1.1/"
   xmlns:cc="http://creativecommons.org/ns#"
   xmlns:rdf="http://www.w3.org/1999/02/22-rdf-syntax-ns#"
   xmlns:svg="http://www.w3.org/2000/svg"
   xmlns="http://www.w3.org/2000/svg"
   xmlns:sodipodi="http://sodipodi.sourceforge.net/DTD/sodipodi-0.dtd"
   xmlns:inkscape="http://www.inkscape.org/namespaces/inkscape"
   version="1.1"
   viewBox="0 -288 504 2048"
   id="svg6"
   sodipodi:docname="I.svg"
   width="504"
   height="2048"
   inkscape:version="0.92.1 r">
  <metadata
     id="metadata12">
    <rdf:rdf>
      <cc:work
         rdf:about="">
        <dc:format>image/svg+xml</dc:format>
        <dc:type
           rdf:resource="http://purl.org/dc/dcmitype/StillImage" />
        <dc:title />
      </cc:work>
    </rdf:rdf>
    <rdf:RDF>
      <cc:Work
         rdf:about="">
        <dc:format>image/svg+xml</dc:format>
        <dc:type
           rdf:resource="http://purl.org/dc/dcmitype/StillImage" />
      </cc:Work>
    </rdf:RDF>
  </metadata>
  <defs
     id="defs10" />
  <sodipodi:namedview
     pagecolor="#ffffff"
     bordercolor="#666666"
     borderopacity="1"
     objecttolerance="10"
     gridtolerance="10"
     guidetolerance="10"
     inkscape:pageopacity="0"
     inkscape:pageshadow="2"
     inkscape:window-width="1364"
     inkscape:window-height="730"
     id="namedview8"
     showgrid="false"
     inkscape:zoom="0.2507248"
     inkscape:cx="-742.87151"
     inkscape:cy="1153.4452"
     inkscape:window-x="0"
     inkscape:window-y="18"
     inkscape:window-maximized="0"
     inkscape:current-layer="layer2" />
  <g
     inkscape:groupmode="layer"
     id="layer2"
     inkscape:label="trace"
     style="display:inline">
    <path
       style="color:#000000;font-style:normal;font-variant:normal;font-weight:normal;font-stretch:normal;font-size:medium;line-height:normal;font-family:sans-serif;font-variant-ligatures:normal;font-variant-position:normal;font-variant-caps:normal;font-variant-numeric:normal;font-variant-alternates:normal;font-feature-settings:normal;text-indent:0;text-align:start;text-decoration:none;text-decoration-line:none;text-decoration-style:solid;text-decoration-color:#000000;letter-spacing:normal;word-spacing:normal;text-transform:none;writing-mode:lr-tb;direction:ltr;text-orientation:mixed;dominant-baseline:auto;baseline-shift:baseline;text-anchor:start;white-space:normal;shape-padding:0;clip-rule:nonzero;display:inline;overflow:visible;visibility:visible;opacity:1;isolation:auto;mix-blend-mode:normal;color-interpolation:sRGB;color-interpolation-filters:linearRGB;solid-color:#000000;solid-opacity:1;vector-effect:none;fill:#000000;fill-opacity:1;fill-rule:evenodd;stroke:none;stroke-width:25;stroke-linecap:round;stroke-linejoin:round;stroke-miterlimit:4;stroke-dasharray:none;stroke-dashoffset:0;stroke-opacity:1;color-rendering:auto;image-rendering:auto;shape-rendering:auto;text-rendering:auto;enable-background:accumulate"
       d="M 227.94336 535.32422 A 12.50125 12.50125 0 0 0 226.13281 535.5 L 41.419922 535.5 A 12.50125 12.50125 0 1 0 41.419922 560.5 L 215.63281 560.5 L 215.63281 570.5 L 41.419922 570.5 A 12.50125 12.50125 0 1 0 41.419922 595.5 L 215.63281 595.5 L 215.63281 1940.5 L 41.419922 1940.5 A 12.50125 12.50125 0 1 0 41.419922 1965.5 L 215.63281 1965.5 L 215.63281 1985.5 L 41.419922 1985.5 A 12.50125 12.50125 0 1 0 41.419922 2010.5 L 226.09375 2010.5 A 12.50125 12.50125 0 0 0 230.14258 2010.5 L 454.84961 2010.5 A 12.50125 12.50125 0 1 0 454.84961 1985.5 L 240.63281 1985.5 L 240.63281 1965.5 L 262.08398 1965.5 A 12.50125 12.50125 0 0 0 266.13281 1965.5 L 454.84961 1965.5 A 12.50125 12.50125 0 1 0 454.84961 1940.5 L 276.62305 1940.5 L 276.62305 595.5 L 454.84961 595.5 A 12.50125 12.50125 0 1 0 454.84961 570.5 L 266.16211 570.5 A 12.50125 12.50125 0 0 0 263.93359 570.32422 A 12.50125 12.50125 0 0 0 262.12305 570.5 L 240.63281 570.5 L 240.63281 560.5 L 454.84961 560.5 A 12.50125 12.50125 0 1 0 454.84961 535.5 L 230.17188 535.5 A 12.50125 12.50125 0 0 0 227.94336 535.32422 z M 240.63281 595.5 L 251.62305 595.5 L 251.62305 1940.5 L 240.63281 1940.5 L 240.63281 595.5 z "
       transform="translate(0,-288)"
       id="path5236-7-72-2" />
  </g>
</svg>
