<?xml version="1.0" encoding="UTF-8" standalone="no"?>
<!--?xml version="1.0" encoding="UTF-8" standalone="no"?-->

<svg
   xmlns:dc="http://purl.org/dc/elements/1.1/"
   xmlns:cc="http://creativecommons.org/ns#"
   xmlns:rdf="http://www.w3.org/1999/02/22-rdf-syntax-ns#"
   xmlns:svg="http://www.w3.org/2000/svg"
   xmlns="http://www.w3.org/2000/svg"
   xmlns:sodipodi="http://sodipodi.sourceforge.net/DTD/sodipodi-0.dtd"
   xmlns:inkscape="http://www.inkscape.org/namespaces/inkscape"
   version="1.1"
   viewBox="0 -288 448 2048"
   id="svg6"
   sodipodi:docname="j.svg"
   width="448"
   height="2048"
   inkscape:version="0.92.1 r">
  <metadata
     id="metadata12">
    <rdf:rdf>
      <cc:work
         rdf:about="">
        <dc:format>image/svg+xml</dc:format>
        <dc:type
           rdf:resource="http://purl.org/dc/dcmitype/StillImage" />
        <dc:title />
      </cc:work>
    </rdf:rdf>
    <rdf:RDF>
      <cc:Work
         rdf:about="">
        <dc:format>image/svg+xml</dc:format>
        <dc:type
           rdf:resource="http://purl.org/dc/dcmitype/StillImage" />
      </cc:Work>
    </rdf:RDF>
  </metadata>
  <defs
     id="defs10" />
  <sodipodi:namedview
     pagecolor="#ffffff"
     bordercolor="#666666"
     borderopacity="1"
     objecttolerance="10"
     gridtolerance="10"
     guidetolerance="10"
     inkscape:pageopacity="0"
     inkscape:pageshadow="2"
     inkscape:window-width="1364"
     inkscape:window-height="730"
     id="namedview8"
     showgrid="false"
     inkscape:zoom="0.14836716"
     inkscape:cx="-1141.3749"
     inkscape:cy="572.34868"
     inkscape:window-x="0"
     inkscape:window-y="18"
     inkscape:window-maximized="0"
     inkscape:current-layer="layer2"
     showguides="true"
     inkscape:guide-bbox="true"
     inkscape:measure-start="179.978,1134.71"
     inkscape:measure-end="320.571,1134.71">
    <sodipodi:guide
       position="486.58928,-227.34089"
       orientation="0,1"
       id="guide284"
       inkscape:locked="false" />
    <sodipodi:guide
       position="204.11564,1141.1439"
       orientation="1,0"
       id="guide344"
       inkscape:locked="false" />
    <sodipodi:guide
       position="240.30331,1172.1019"
       orientation="1,0"
       id="guide346"
       inkscape:locked="false" />
  </sodipodi:namedview>
  <g
     inkscape:groupmode="layer"
     id="layer2"
     inkscape:label="trace">
    <path
       style="color:#000000;font-style:normal;font-variant:normal;font-weight:normal;font-stretch:normal;font-size:medium;line-height:normal;font-family:sans-serif;font-variant-ligatures:normal;font-variant-position:normal;font-variant-caps:normal;font-variant-numeric:normal;font-variant-alternates:normal;font-feature-settings:normal;text-indent:0;text-align:start;text-decoration:none;text-decoration-line:none;text-decoration-style:solid;text-decoration-color:#000000;letter-spacing:normal;word-spacing:normal;text-transform:none;writing-mode:lr-tb;direction:ltr;text-orientation:mixed;dominant-baseline:auto;baseline-shift:baseline;text-anchor:start;white-space:normal;shape-padding:0;clip-rule:nonzero;display:inline;overflow:visible;visibility:visible;opacity:1;isolation:auto;mix-blend-mode:normal;color-interpolation:sRGB;color-interpolation-filters:linearRGB;solid-color:#000000;solid-opacity:1;vector-effect:none;fill:#000000;fill-opacity:1;fill-rule:evenodd;stroke:none;stroke-width:25;stroke-linecap:round;stroke-linejoin:round;stroke-miterlimit:4;stroke-dasharray:none;stroke-dashoffset:0;stroke-opacity:1;color-rendering:auto;image-rendering:auto;shape-rendering:auto;text-rendering:auto;enable-background:accumulate"
       d="M 204.54297 411.7832 A 12.50125 12.50125 0 0 0 192.23047 424.46094 L 192.23047 687.5625 A 12.50125 12.50125 0 1 0 217.23047 687.5625 L 217.23047 424.46094 A 12.50125 12.50125 0 0 0 204.54297 411.7832 z M 240.3125 411.7832 A 12.50125 12.50125 0 0 0 228 424.46094 L 228 687.5625 A 12.50125 12.50125 0 1 0 253 687.5625 L 253 424.46094 A 12.50125 12.50125 0 0 0 240.3125 411.7832 z M 204.00586 870.32422 A 12.50125 12.50125 0 0 0 191.69531 883 L 191.69531 2085.459 C 191.69531 2119.7513 185.77451 2153.866 169.62695 2178.4043 C 153.47939 2202.9426 127.9441 2219.5128 81.701172 2220.2148 A 12.50125 12.50125 0 0 0 81.662109 2220.2148 C 82.620039 2220.1978 80.100889 2220.2146 77.478516 2220.2246 L 66.830078 2220.2246 C 58.112413 2220.2246 46.630318 2220.2244 35.195312 2220.2246 C 12.325304 2220.2246 -10.355469 2220.2129 -10.355469 2220.2129 A 12.50125 12.50125 0 1 0 -10.363281 2245.2129 C -10.363281 2245.2129 12.318825 2245.2226 35.191406 2245.2246 L 66.833984 2245.2246 C 71.195305 2245.2239 74.866345 2245.2246 77.498047 2245.2246 C 80.125299 2245.2246 80.775541 2245.2379 82.111328 2245.2129 L 82.119141 2245.2129 C 134.58953 2244.4061 170.1941 2223.0207 190.50977 2192.1484 C 210.83042 2161.2685 216.69531 2122.5065 216.69531 2085.4609 L 216.69531 883 A 12.50125 12.50125 0 0 0 204.00586 870.32422 z M 240.17188 870.32422 A 12.50125 12.50125 0 0 0 227.86133 883 L 227.86133 2070.7695 C 227.86133 2157.7706 208.64885 2207.1309 178.04297 2235.2793 C 147.43708 2263.4277 102.82066 2272.4023 47.158203 2272.4023 L -10.441406 2272.4023 A 12.50125 12.50125 0 1 0 -10.441406 2297.4023 L 47.158203 2297.4023 C 105.48283 2297.4023 157.46787 2288.1677 194.9668 2253.6797 C 232.46572 2219.1917 252.86133 2161.4851 252.86133 2070.7695 L 252.86133 883 A 12.50125 12.50125 0 0 0 240.17188 870.32422 z "
       transform="translate(0,-288)"
       id="path5829-3-3" />
  </g>
</svg>
