<?xml version="1.0" encoding="UTF-8" standalone="no"?>
<!--?xml version="1.0" encoding="UTF-8" standalone="no"?-->

<svg
   xmlns:dc="http://purl.org/dc/elements/1.1/"
   xmlns:cc="http://creativecommons.org/ns#"
   xmlns:rdf="http://www.w3.org/1999/02/22-rdf-syntax-ns#"
   xmlns:svg="http://www.w3.org/2000/svg"
   xmlns="http://www.w3.org/2000/svg"
   xmlns:sodipodi="http://sodipodi.sourceforge.net/DTD/sodipodi-0.dtd"
   xmlns:inkscape="http://www.inkscape.org/namespaces/inkscape"
   version="1.1"
   viewBox="0 -288 944 2048"
   id="svg6"
   sodipodi:docname="k.svg"
   width="944"
   height="2048"
   inkscape:version="0.92.1 r">
  <metadata
     id="metadata12">
    <rdf:rdf>
      <cc:work
         rdf:about="">
        <dc:format>image/svg+xml</dc:format>
        <dc:type
           rdf:resource="http://purl.org/dc/dcmitype/StillImage" />
        <dc:title />
      </cc:work>
    </rdf:rdf>
    <rdf:RDF>
      <cc:Work
         rdf:about="">
        <dc:format>image/svg+xml</dc:format>
        <dc:type
           rdf:resource="http://purl.org/dc/dcmitype/StillImage" />
      </cc:Work>
    </rdf:RDF>
  </metadata>
  <defs
     id="defs10" />
  <sodipodi:namedview
     pagecolor="#ffffff"
     bordercolor="#666666"
     borderopacity="1"
     objecttolerance="10"
     gridtolerance="10"
     guidetolerance="10"
     inkscape:pageopacity="0"
     inkscape:pageshadow="2"
     inkscape:window-width="1364"
     inkscape:window-height="730"
     id="namedview8"
     showgrid="false"
     inkscape:zoom="0.14836715"
     inkscape:cx="-1095.2017"
     inkscape:cy="197.80034"
     inkscape:window-x="0"
     inkscape:window-y="18"
     inkscape:window-maximized="0"
     inkscape:current-layer="layer3"
     inkscape:measure-start="728.887,1159.89"
     inkscape:measure-end="796.441,1159.89" />
  <g
     inkscape:groupmode="layer"
     id="layer3"
     inkscape:label="trace"
     style="display:inline">
    <path
       style="color:#000000;font-style:normal;font-variant:normal;font-weight:normal;font-stretch:normal;font-size:medium;line-height:normal;font-family:sans-serif;font-variant-ligatures:normal;font-variant-position:normal;font-variant-caps:normal;font-variant-numeric:normal;font-variant-alternates:normal;font-feature-settings:normal;text-indent:0;text-align:start;text-decoration:none;text-decoration-line:none;text-decoration-style:solid;text-decoration-color:#000000;letter-spacing:normal;word-spacing:normal;text-transform:none;writing-mode:lr-tb;direction:ltr;text-orientation:mixed;dominant-baseline:auto;baseline-shift:baseline;text-anchor:start;white-space:normal;shape-padding:0;clip-rule:nonzero;display:inline;overflow:visible;visibility:visible;opacity:1;isolation:auto;mix-blend-mode:normal;color-interpolation:sRGB;color-interpolation-filters:linearRGB;solid-color:#000000;solid-opacity:1;vector-effect:none;fill:#000000;fill-opacity:1;fill-rule:evenodd;stroke:none;stroke-width:25;stroke-linecap:round;stroke-linejoin:round;stroke-miterlimit:4;stroke-dasharray:none;stroke-dashoffset:0;stroke-opacity:1;color-rendering:auto;image-rendering:auto;shape-rendering:auto;text-rendering:auto;enable-background:accumulate"
       d="M 214.54297 410.32422 A 12.50125 12.50125 0 0 0 202.23047 423 L 202.23047 2048 A 12.50125 12.50125 0 1 0 227.23047 2048 L 227.23047 1560.957 C 228.5058 1559.6017 230.01043 1557.9625 231.92578 1555.8301 C 234.16475 1553.3373 236.8661 1550.2888 240 1546.7246 L 240 2048 A 12.50125 12.50125 0 1 0 265 2048 L 265 1517.9727 C 279.12509 1501.6182 296.36321 1481.5387 316.00977 1458.5664 C 344.69346 1425.0272 378.5074 1385.3236 414.46094 1343.0117 C 443.24619 1402.2578 508.59171 1536.9898 574.00391 1673.5254 C 617.7099 1764.7534 661.4163 1856.7227 694.16211 1927.3008 C 710.53502 1962.5898 724.17342 1992.5445 733.66406 2014.291 C 738.40938 2025.1643 742.12148 2034.0036 744.57422 2040.291 C 745.80059 2043.4347 746.71469 2045.9561 747.24609 2047.6074 C 747.77749 2049.2588 747.64844 2051.0852 747.64844 2048 A 12.50125 12.50125 0 1 0 772.64844 2048 C 772.64844 2043.428 771.83505 2042.4107 771.04297 2039.9492 C 770.25089 2037.4878 769.20043 2034.6278 767.86523 2031.2051 C 765.19484 2024.3597 761.39404 2015.3305 756.57617 2004.291 C 746.94044 1982.212 733.25501 1952.1594 716.83984 1916.7793 C 684.00952 1846.0191 640.27964 1754.0004 596.55078 1662.7246 C 532.76889 1529.5919 469.81454 1399.7549 439.95898 1338.293 C 460.51582 1378.8452 530.12708 1516.2086 610.70312 1676.2129 C 657.38306 1768.9078 704.06336 1861.9327 739.05664 1932.4082 C 756.55328 1967.6459 771.13097 1997.2527 781.30469 2018.3164 C 786.39155 2028.8483 790.38128 2037.2561 793.04883 2043.0801 C 794.3826 2045.9921 795.39153 2048.2757 795.99219 2049.7227 C 796.15203 2050.1077 796.18628 2050.2146 796.28125 2050.459 C 796.26315 2050.363 796.26024 2050.0541 796.24414 2049.9102 A 12.50125 12.50125 0 0 0 796.36914 2050.6777 C 796.41114 2050.7881 796.52341 2051.0663 796.53711 2051.1055 C 796.54311 2051.1225 796.49342 2051.1054 796.48242 2051.1504 A 12.50125 12.50125 0 0 0 821.10742 2048 C 821.10742 2043.2207 820.45145 2043.7557 820.13672 2042.8555 C 819.82199 2041.9552 819.48837 2041.1175 819.08203 2040.1387 C 818.26936 2038.181 817.18099 2035.7302 815.7793 2032.6699 C 812.97591 2026.5494 808.94195 2018.0553 803.81641 2007.4434 C 793.56531 1986.2195 778.96459 1956.5684 761.44727 1921.2891 C 726.41262 1850.7302 679.72188 1757.6849 633.03125 1664.9688 C 542.21665 1484.6331 454.40578 1311.4737 449.48242 1301.7656 C 470.01566 1277.5679 490.82284 1253.0295 511.7832 1228.2773 C 582.75265 1144.4693 653.57229 1060.5639 706.66016 997.39648 C 733.20409 965.81278 755.31178 939.41616 770.80469 920.79102 C 778.55114 911.47845 784.64012 904.11434 788.83008 898.98047 C 790.92505 896.41353 792.53774 894.41312 793.69727 892.93945 C 794.27703 892.20262 794.73321 891.61538 795.16211 891.03125 C 795.37656 890.73919 795.57275 890.47388 795.88477 889.99219 C 796.04077 889.75134 796.22045 889.48259 796.54102 888.87109 C 796.86158 888.2596 797.99609 888.74046 797.99609 883 A 12.50125 12.50125 0 0 0 785.30664 870.32422 A 12.50125 12.50125 0 0 0 774.51562 876.87695 C 774.35348 877.08792 774.28818 877.17875 774.05078 877.48047 C 773.07074 878.72602 771.50766 880.66407 769.46094 883.17188 C 765.3675 888.18749 759.30674 895.521 751.58594 904.80273 C 736.14433 923.3662 714.05037 949.74474 687.52148 981.31055 C 634.46371 1044.4421 563.6571 1128.3336 492.70508 1212.1211 C 476.16218 1231.6567 459.64255 1251.1459 443.30664 1270.4062 C 463.52795 1245.4056 483.6747 1220.504 504.50781 1194.7109 C 565.19972 1119.5694 625.88305 1044.2634 671.41211 987.38672 C 694.17664 958.94835 713.14955 935.12164 726.46484 918.19531 C 733.12249 909.73215 738.35823 903.00391 741.99414 898.22266 C 743.8121 895.83203 745.2201 893.94343 746.28125 892.45508 C 746.81182 891.7109 747.24394 891.09249 747.70117 890.37109 C 747.92979 890.01039 748.16021 889.65095 748.50391 888.98828 C 748.8476 888.32561 749.99609 888.98873 749.99609 883 A 12.50125 12.50125 0 0 0 737.30664 870.32422 A 12.50125 12.50125 0 0 0 726.12891 877.65039 A 12.50125 12.50125 0 0 0 726.12695 877.65234 C 726.12695 877.65234 726.125 877.6543 726.125 877.6543 A 12.50125 12.50125 0 0 0 725.07031 881.59961 C 725.14021 880.07642 725.27901 879.06425 725.47266 878.55273 C 724.67723 879.65293 723.6271 881.07605 722.0957 883.08984 C 718.62169 887.65819 713.42893 894.33 706.81445 902.73828 C 693.5855 919.55485 674.63665 943.3533 651.89453 971.76367 C 606.41028 1028.5844 545.73853 1103.8772 485.05859 1179.0039 C 424.37866 1254.1307 363.68825 1329.0936 318.1543 1385.2734 C 296.16598 1412.4027 278.21083 1434.536 265 1450.8066 L 265 423 A 12.50125 12.50125 0 0 0 252.3125 410.32422 A 12.50125 12.50125 0 0 0 240 423 L 240 1482.4375 A 12.50125 12.50125 0 0 0 240 1491.0293 L 240 1508.6562 C 237.2277 1511.8578 234.32809 1515.2113 231.86523 1518.043 C 230.13545 1520.0318 228.80065 1521.5475 227.23047 1523.3457 L 227.23047 423 A 12.50125 12.50125 0 0 0 214.54297 410.32422 z M 774.19141 877.5 A 12.50125 12.50125 0 0 0 773.07617 881.54102 C 773.24891 878.19933 773.83714 877.79743 774.19141 877.5 z "
       transform="translate(0,-288)"
       id="path5236-3-9-6" />
  </g>
</svg>
