<?xml version="1.0" encoding="UTF-8" standalone="no"?>
<!--?xml version="1.0" encoding="UTF-8" standalone="no"?-->

<svg
   xmlns:dc="http://purl.org/dc/elements/1.1/"
   xmlns:cc="http://creativecommons.org/ns#"
   xmlns:rdf="http://www.w3.org/1999/02/22-rdf-syntax-ns#"
   xmlns:svg="http://www.w3.org/2000/svg"
   xmlns="http://www.w3.org/2000/svg"
   xmlns:sodipodi="http://sodipodi.sourceforge.net/DTD/sodipodi-0.dtd"
   xmlns:inkscape="http://www.inkscape.org/namespaces/inkscape"
   version="1.1"
   viewBox="0 -288 1024 2048"
   id="svg6"
   sodipodi:docname="n.svg"
   width="1024"
   height="2048"
   inkscape:version="0.92.1 r">
  <metadata
     id="metadata12">
    <rdf:rdf>
      <cc:work
         rdf:about="">
        <dc:format>image/svg+xml</dc:format>
        <dc:type
           rdf:resource="http://purl.org/dc/dcmitype/StillImage" />
        <dc:title />
      </cc:work>
    </rdf:rdf>
    <rdf:RDF>
      <cc:Work
         rdf:about="">
        <dc:format>image/svg+xml</dc:format>
        <dc:type
           rdf:resource="http://purl.org/dc/dcmitype/StillImage" />
        <dc:title></dc:title>
      </cc:Work>
    </rdf:RDF>
  </metadata>
  <defs
     id="defs10" />
  <sodipodi:namedview
     pagecolor="#ffffff"
     bordercolor="#666666"
     borderopacity="1"
     objecttolerance="10"
     gridtolerance="10"
     guidetolerance="10"
     inkscape:pageopacity="0"
     inkscape:pageshadow="2"
     inkscape:window-width="1364"
     inkscape:window-height="730"
     id="namedview8"
     showgrid="false"
     inkscape:zoom="0.22826429"
     inkscape:cx="38.314451"
     inkscape:cy="325.29263"
     inkscape:window-x="0"
     inkscape:window-y="18"
     inkscape:window-maximized="0"
     inkscape:current-layer="layer2"
     inkscape:measure-start="181.477,341.874"
     inkscape:measure-end="274.966,341.874" />
  <g
     inkscape:groupmode="layer"
     id="layer2"
     inkscape:label="trace">
    <path
       style="color:#000000;font-style:normal;font-variant:normal;font-weight:normal;font-stretch:normal;font-size:medium;line-height:normal;font-family:sans-serif;font-variant-ligatures:normal;font-variant-position:normal;font-variant-caps:normal;font-variant-numeric:normal;font-variant-alternates:normal;font-feature-settings:normal;text-indent:0;text-align:start;text-decoration:none;text-decoration-line:none;text-decoration-style:solid;text-decoration-color:#000000;letter-spacing:normal;word-spacing:normal;text-transform:none;writing-mode:lr-tb;direction:ltr;text-orientation:mixed;dominant-baseline:auto;baseline-shift:baseline;text-anchor:start;white-space:normal;shape-padding:0;clip-rule:nonzero;display:inline;overflow:visible;visibility:visible;opacity:1;isolation:auto;mix-blend-mode:normal;color-interpolation:sRGB;color-interpolation-filters:linearRGB;solid-color:#000000;solid-opacity:1;vector-effect:none;fill:#000000;fill-opacity:1;fill-rule:evenodd;stroke:none;stroke-width:25;stroke-linecap:round;stroke-linejoin:round;stroke-miterlimit:4;stroke-dasharray:none;stroke-dashoffset:0;stroke-opacity:1;color-rendering:auto;image-rendering:auto;shape-rendering:auto;text-rendering:auto;enable-background:accumulate"
       d="m 214.67773,582.32227 a 12.50125,12.50125 0 0 0 -12.43554,12.55468 c -0.0336,3.41778 0.22338,3.38238 0.50976,5.66211 0.28638,2.27974 0.6946,5.30022 1.21289,9.00782 1.03659,7.41519 2.51232,17.55236 4.28321,29.51367 3.54178,23.92261 8.26475,55.1235 12.99023,86.10351 9.37774,61.48002 18.61687,121.14279 18.76172,122.07813 V 1760 a 12.50125,12.50125 0 1 0 25,0 V 846.2832 a 12.50125,12.50125 0 0 0 -0.14648,-1.91406 c 0,0 -9.4551,-61.05169 -18.9004,-122.97461 -4.72264,-30.96146 -9.44324,-62.14184 -12.9746,-85.99414 -1.76569,-11.92615 -3.23504,-22.02599 -4.25391,-29.31445 -0.50943,-3.64423 -0.90783,-6.59124 -1.16797,-8.66211 -0.26014,-2.07087 -0.28953,-4.83935 -0.31445,-2.30078 a 12.50125,12.50125 0 0 0 -12.56446,-12.80078 z"
       id="path5236-3-9-6"
       inkscape:connector-curvature="0" />
    <path
       style="color:#000000;font-style:normal;font-variant:normal;font-weight:normal;font-stretch:normal;font-size:medium;line-height:normal;font-family:sans-serif;font-variant-ligatures:normal;font-variant-position:normal;font-variant-caps:normal;font-variant-numeric:normal;font-variant-alternates:normal;font-feature-settings:normal;text-indent:0;text-align:start;text-decoration:none;text-decoration-line:none;text-decoration-style:solid;text-decoration-color:#000000;letter-spacing:normal;word-spacing:normal;text-transform:none;writing-mode:lr-tb;direction:ltr;text-orientation:mixed;dominant-baseline:auto;baseline-shift:baseline;text-anchor:start;white-space:normal;shape-padding:0;clip-rule:nonzero;display:inline;overflow:visible;visibility:visible;opacity:1;isolation:auto;mix-blend-mode:normal;color-interpolation:sRGB;color-interpolation-filters:linearRGB;solid-color:#000000;solid-opacity:1;vector-effect:none;fill:#000000;fill-opacity:1;fill-rule:evenodd;stroke:none;stroke-width:25;stroke-linecap:round;stroke-linejoin:round;stroke-miterlimit:4;stroke-dasharray:none;stroke-dashoffset:0;stroke-opacity:1;color-rendering:auto;image-rendering:auto;shape-rendering:auto;text-rendering:auto;enable-background:accumulate"
       d="M 214.54297,582.32422 A 12.50125,12.50125 0 0 0 202.23047,595 V 800.32422 1609.0508 1760 a 12.50125,12.50125 0 1 0 25,0 V 1609.0508 800.32422 595 a 12.50125,12.50125 0 0 0 -12.6875,-12.67578 z"
       id="path5236-7-5-3-1"
       inkscape:connector-curvature="0" />
    <path
       style="color:#000000;font-style:normal;font-variant:normal;font-weight:normal;font-stretch:normal;font-size:medium;line-height:normal;font-family:sans-serif;font-variant-ligatures:normal;font-variant-position:normal;font-variant-caps:normal;font-variant-numeric:normal;font-variant-alternates:normal;font-feature-settings:normal;text-indent:0;text-align:start;text-decoration:none;text-decoration-line:none;text-decoration-style:solid;text-decoration-color:#000000;letter-spacing:normal;word-spacing:normal;text-transform:none;writing-mode:lr-tb;direction:ltr;text-orientation:mixed;dominant-baseline:auto;baseline-shift:baseline;text-anchor:start;white-space:normal;shape-padding:0;clip-rule:nonzero;display:inline;overflow:visible;visibility:visible;opacity:1;isolation:auto;mix-blend-mode:normal;color-interpolation:sRGB;color-interpolation-filters:linearRGB;solid-color:#000000;solid-opacity:1;vector-effect:none;fill:#000000;fill-opacity:1;fill-rule:evenodd;stroke:none;stroke-width:25;stroke-linecap:round;stroke-linejoin:round;stroke-miterlimit:4;stroke-dasharray:none;stroke-dashoffset:0;stroke-opacity:1;color-rendering:auto;image-rendering:auto;shape-rendering:auto;text-rendering:auto;enable-background:accumulate"
       d="m 520.72461,632.14062 c -80.56456,0 -158.27293,69.43777 -217.625,136.58594 -59.35207,67.14818 -100.05664,134.14649 -100.05664,134.14649 a 12.50125,12.50125 0 1 0 21.36133,12.98828 c 0,0 39.78468,-65.36345 97.42773,-130.57813 57.63736,-65.20823 133.42061,-128.12819 198.87305,-128.14062 0.11055,0.001 17.07453,0.17862 34.22461,0.35742 8.60293,0.0897 17.22448,0.17879 23.73437,0.24609 3.25495,0.0337 5.98281,0.0624 7.91602,0.082 1.9332,0.0197 2.02827,0.0305 3.26367,0.0313 a 12.50125,12.50125 0 0 0 0.008,0 c 95.11084,0 143.02302,40.27279 170.11133,90.4082 27.08831,50.13541 31.41797,111.25866 31.41797,149.0664 v 862.67582 a 12.50125,12.50125 0 1 0 25,0 V 897.33398 c 0,-39.5785 -3.89389,-104.44397 -34.42383,-160.94921 C 751.42788,679.881 692.3287,632.86183 589.85938,632.85938 h -0.008 c 1.06353,5.5e-4 -1.09211,-0.0117 -3.01758,-0.0313 -1.93044,-0.0196 -4.65787,-0.0464 -7.9121,-0.0801 -6.50847,-0.0673 -15.12985,-0.15836 -23.73243,-0.24805 -17.20514,-0.17937 -34.33398,-0.35742 -34.33398,-0.35742 a 12.50125,12.50125 0 0 0 -0.13086,-0.002 z"
       id="path147-2-2-1-6-0"
       inkscape:connector-curvature="0" />
    <path
       style="color:#000000;font-style:normal;font-variant:normal;font-weight:normal;font-stretch:normal;font-size:medium;line-height:normal;font-family:sans-serif;font-variant-ligatures:normal;font-variant-position:normal;font-variant-caps:normal;font-variant-numeric:normal;font-variant-alternates:normal;font-feature-settings:normal;text-indent:0;text-align:start;text-decoration:none;text-decoration-line:none;text-decoration-style:solid;text-decoration-color:#000000;letter-spacing:normal;word-spacing:normal;text-transform:none;writing-mode:lr-tb;direction:ltr;text-orientation:mixed;dominant-baseline:auto;baseline-shift:baseline;text-anchor:start;white-space:normal;shape-padding:0;clip-rule:nonzero;display:inline;overflow:visible;visibility:visible;opacity:1;isolation:auto;mix-blend-mode:normal;color-interpolation:sRGB;color-interpolation-filters:linearRGB;solid-color:#000000;solid-opacity:1;vector-effect:none;fill:#000000;fill-opacity:1;fill-rule:evenodd;stroke:none;stroke-width:25;stroke-linecap:round;stroke-linejoin:round;stroke-miterlimit:4;stroke-dasharray:none;stroke-dashoffset:0;stroke-opacity:1;color-rendering:auto;image-rendering:auto;shape-rendering:auto;text-rendering:auto;enable-background:accumulate"
       d="M 559.54492,652.5 C 358.72917,652.5 243.7168,840.32227 243.7168,840.32227 a 12.50125,12.50125 0 1 0 21.27539,13.12695 c 0,0 109.44709,-175.94922 294.55273,-175.94922 94.8551,0 140.73624,39.29051 166.5293,94.62109 25.79306,55.33059 28.93164,128.04747 28.93164,189.92579 v 797.94332 a 12.50125,12.50125 0 1 0 25,0 V 962.04688 c 0,-62.61138 -2.33866,-138.41818 -31.27344,-200.48829 C 719.79765,699.48849 661.69903,652.5 559.54492,652.5 Z"
       id="path147-6-9-9-2-06-6"
       inkscape:connector-curvature="0" />
  </g>
</svg>
