<?xml version="1.0" encoding="UTF-8" standalone="no"?>
<!--?xml version="1.0" encoding="UTF-8" standalone="no"?-->

<svg
   xmlns:dc="http://purl.org/dc/elements/1.1/"
   xmlns:cc="http://creativecommons.org/ns#"
   xmlns:rdf="http://www.w3.org/1999/02/22-rdf-syntax-ns#"
   xmlns:svg="http://www.w3.org/2000/svg"
   xmlns="http://www.w3.org/2000/svg"
   xmlns:sodipodi="http://sodipodi.sourceforge.net/DTD/sodipodi-0.dtd"
   xmlns:inkscape="http://www.inkscape.org/namespaces/inkscape"
   version="1.1"
   viewBox="0 -288 1264 2048"
   id="svg6"
   sodipodi:docname="P.svg"
   width="1264"
   height="2048"
   inkscape:version="0.92.1 r">
  <metadata
     id="metadata12">
    <rdf:rdf>
      <cc:work
         rdf:about="">
        <dc:format>image/svg+xml</dc:format>
        <dc:type
           rdf:resource="http://purl.org/dc/dcmitype/StillImage" />
        <dc:title />
      </cc:work>
    </rdf:rdf>
    <rdf:RDF>
      <cc:Work
         rdf:about="">
        <dc:format>image/svg+xml</dc:format>
        <dc:type
           rdf:resource="http://purl.org/dc/dcmitype/StillImage" />
      </cc:Work>
    </rdf:RDF>
  </metadata>
  <defs
     id="defs10" />
  <sodipodi:namedview
     pagecolor="#ffffff"
     bordercolor="#666666"
     borderopacity="1"
     objecttolerance="10"
     gridtolerance="10"
     guidetolerance="10"
     inkscape:pageopacity="0"
     inkscape:pageshadow="2"
     inkscape:window-width="1364"
     inkscape:window-height="730"
     id="namedview8"
     showgrid="false"
     inkscape:zoom="0.60181374"
     inkscape:cx="484.05641"
     inkscape:cy="712.81791"
     inkscape:window-x="0"
     inkscape:window-y="18"
     inkscape:window-maximized="0"
     inkscape:current-layer="layer3"
     showguides="true"
     inkscape:guide-bbox="true"
     inkscape:measure-start="496.269,1540.2"
     inkscape:measure-end="496.269,1389.86">
    <sodipodi:guide
       position="751.69046,763.96296"
       orientation="1,0"
       id="guide844"
       inkscape:locked="false" />
  </sodipodi:namedview>
  <g
     inkscape:groupmode="layer"
     id="layer3"
     inkscape:label="traces"
     style="display:inline">
    <path
       style="color:#000000;font-style:normal;font-variant:normal;font-weight:normal;font-stretch:normal;font-size:medium;line-height:normal;font-family:sans-serif;font-variant-ligatures:normal;font-variant-position:normal;font-variant-caps:normal;font-variant-numeric:normal;font-variant-alternates:normal;font-feature-settings:normal;text-indent:0;text-align:start;text-decoration:none;text-decoration-line:none;text-decoration-style:solid;text-decoration-color:#000000;letter-spacing:normal;word-spacing:normal;text-transform:none;writing-mode:lr-tb;direction:ltr;text-orientation:mixed;dominant-baseline:auto;baseline-shift:baseline;text-anchor:start;white-space:normal;shape-padding:0;clip-rule:nonzero;display:inline;overflow:visible;visibility:visible;opacity:1;isolation:auto;mix-blend-mode:normal;color-interpolation:sRGB;color-interpolation-filters:linearRGB;solid-color:#000000;solid-opacity:1;vector-effect:none;fill:#000000;fill-opacity:1;fill-rule:evenodd;stroke:none;stroke-width:25;stroke-linecap:round;stroke-linejoin:round;stroke-miterlimit:4;stroke-dasharray:none;stroke-dashoffset:0;stroke-opacity:1;color-rendering:auto;image-rendering:auto;shape-rendering:auto;text-rendering:auto;enable-background:accumulate"
       d="M 212.13281 532.74023 A 12.50125 12.50125 0 0 0 199.63281 545.24023 L 199.63281 1223.1387 A 12.50125 12.50125 0 0 0 199.63281 1232.8633 L 199.63281 2048 A 12.50125 12.50125 0 1 0 224.63281 2048 L 224.63281 1240.5 L 239.62305 1240.5 L 239.62305 2048 A 12.50125 12.50125 0 1 0 264.62305 2048 L 264.62305 1240.5 L 622.6582 1240.5 C 737.84166 1240.5 857.80247 1221.9892 950.39062 1167.5449 C 1042.9788 1113.1007 1107.2168 1021.0818 1107.2168 880.96875 C 1107.2168 781.74549 1077.3581 694.07812 1013.4668 631.61523 C 949.57547 569.15235 852.55802 532.74023 721.29688 532.74023 L 212.13281 532.74023 z M 224.63281 557.74023 L 721.29688 557.74023 C 847.96189 557.74023 937.65296 592.45723 995.99023 649.49023 C 1054.3275 706.52324 1082.2168 786.72011 1082.2168 880.96875 C 1082.2168 1013.6146 1024.2482 1095.1126 937.71875 1145.9941 C 898.54213 1169.031 853.30031 1185.4362 805.08984 1196.5137 C 845.52436 1184.2953 884.15585 1167.0186 918.56836 1143.7305 C 1000.1675 1088.5094 1057.1369 998.39741 1054.6992 867.16211 C 1054.6679 799.20634 1029.4056 725.16797 974.56641 667.8418 C 919.69321 610.4801 835.16295 570.5 719.2207 570.5 L 252.12305 570.5 A 12.50125 12.50125 0 0 0 239.62305 583 L 239.62305 1215.5 L 224.63281 1215.5 L 224.63281 557.74023 z M 264.62305 595.5 L 719.2207 595.5 C 829.47002 595.5 906.43151 632.7819 956.50195 685.12305 C 1006.5724 737.46419 1029.7031 805.51456 1029.7031 867.28906 A 12.50125 12.50125 0 0 0 1029.7031 867.52344 C 1032.0397 991.51937 980.35642 1071.729 904.55664 1123.0254 C 828.75686 1174.3218 727.89067 1195.5 634.65625 1195.5 L 634.58203 1195.5 L 264.62305 1195.5 L 264.62305 595.5 z "
       transform="translate(0,-288)"
       id="path5236-7-72-2" />
  </g>
  <g
     inkscape:groupmode="layer"
     id="layer4"
     inkscape:label="traces 2"
     style="display:inline" />
</svg>
