<?xml version="1.0" encoding="UTF-8" standalone="no"?>
<!--?xml version="1.0" encoding="UTF-8" standalone="no"?-->

<svg
   xmlns:dc="http://purl.org/dc/elements/1.1/"
   xmlns:cc="http://creativecommons.org/ns#"
   xmlns:rdf="http://www.w3.org/1999/02/22-rdf-syntax-ns#"
   xmlns:svg="http://www.w3.org/2000/svg"
   xmlns="http://www.w3.org/2000/svg"
   xmlns:sodipodi="http://sodipodi.sourceforge.net/DTD/sodipodi-0.dtd"
   xmlns:inkscape="http://www.inkscape.org/namespaces/inkscape"
   version="1.1"
   viewBox="0 -288 944 2048"
   id="svg6"
   sodipodi:docname="s.svg"
   width="944"
   height="2048"
   inkscape:version="0.92.1 r">
  <metadata
     id="metadata12">
    <rdf:rdf>
      <cc:work
         rdf:about="">
        <dc:format>image/svg+xml</dc:format>
        <dc:type
           rdf:resource="http://purl.org/dc/dcmitype/StillImage" />
        <dc:title />
      </cc:work>
    </rdf:rdf>
    <rdf:RDF>
      <cc:Work
         rdf:about="">
        <dc:format>image/svg+xml</dc:format>
        <dc:type
           rdf:resource="http://purl.org/dc/dcmitype/StillImage" />
      </cc:Work>
    </rdf:RDF>
  </metadata>
  <defs
     id="defs10" />
  <sodipodi:namedview
     pagecolor="#ffffff"
     bordercolor="#666666"
     borderopacity="1"
     objecttolerance="10"
     gridtolerance="10"
     guidetolerance="10"
     inkscape:pageopacity="0"
     inkscape:pageshadow="2"
     inkscape:window-width="1364"
     inkscape:window-height="730"
     id="namedview8"
     showgrid="false"
     inkscape:zoom="0.074183575"
     inkscape:cx="287.75205"
     inkscape:cy="722.42279"
     inkscape:window-x="0"
     inkscape:window-y="18"
     inkscape:window-maximized="0"
     inkscape:current-layer="layer3"
     showguides="true"
     inkscape:guide-bbox="true"
     inkscape:measure-start="481.627,77.6468"
     inkscape:measure-end="481.627,47.1864">
    <sodipodi:guide
       position="438.23729,503.32203"
       orientation="1,0"
       id="guide5650"
       inkscape:locked="false" />
    <sodipodi:guide
       position="525.01695,507.66102"
       orientation="1,0"
       id="guide5652"
       inkscape:locked="false" />
  </sodipodi:namedview>
  <g
     inkscape:groupmode="layer"
     id="layer3"
     inkscape:label="trace2"
     style="display:inline">
    <path
       style="color:#000000;font-style:normal;font-variant:normal;font-weight:normal;font-stretch:normal;font-size:medium;line-height:normal;font-family:sans-serif;font-variant-ligatures:normal;font-variant-position:normal;font-variant-caps:normal;font-variant-numeric:normal;font-variant-alternates:normal;font-feature-settings:normal;text-indent:0;text-align:start;text-decoration:none;text-decoration-line:none;text-decoration-style:solid;text-decoration-color:#000000;letter-spacing:normal;word-spacing:normal;text-transform:none;writing-mode:lr-tb;direction:ltr;text-orientation:mixed;dominant-baseline:auto;baseline-shift:baseline;text-anchor:start;white-space:normal;shape-padding:0;clip-rule:nonzero;display:inline;overflow:visible;visibility:visible;opacity:1;isolation:auto;mix-blend-mode:normal;color-interpolation:sRGB;color-interpolation-filters:linearRGB;solid-color:#000000;solid-opacity:1;vector-effect:none;fill:#010000;fill-opacity:1;fill-rule:evenodd;stroke:none;stroke-width:25;stroke-linecap:round;stroke-linejoin:round;stroke-miterlimit:4;stroke-dasharray:none;stroke-dashoffset:0;stroke-opacity:1;color-rendering:auto;image-rendering:auto;shape-rendering:auto;text-rendering:auto;enable-background:accumulate"
       d="M 486.54297 920.46094 L 404.39062 920.53906 C 363.22596 920.54206 305.73821 939.07632 256.91992 979.74414 C 208.09722 1020.4156 168.77917 1084.2333 168.7793 1172.3848 C 168.7793 1264.2032 196.2343 1326.472 243.9375 1369.3496 C 290.59373 1411.2862 354.92572 1434.7422 429.96875 1455.1094 C 431.55943 1455.59 433.15623 1456.0868 434.74219 1456.5547 L 521.22656 1482.0703 L 521.48047 1482.1445 L 538.89844 1487.3125 C 654.91385 1525.1862 719.50586 1618.9709 719.50586 1733.1289 C 719.50586 1831.0856 679.07469 1887.3591 630.2793 1921.1172 C 581.48391 1954.8753 523.07018 1964.9336 491.16406 1964.9336 C 369.86643 1964.9336 307.26366 1917.8362 272.40039 1860.4492 C 237.53712 1803.0622 231.71875 1733.8491 231.71875 1691.957 A 12.50125 12.50125 0 1 0 206.71875 1691.957 C 206.71875 1736.0472 212.24042 1809.5725 251.0332 1873.4277 C 289.82598 1937.2829 363.19704 1989.9336 491.16406 1989.9336 C 528.07487 1989.9336 590.08048 1979.3262 644.50195 1941.6758 C 698.92342 1904.0254 744.50586 1838.1483 744.50586 1733.1289 C 744.50586 1672.9991 727.30567 1617.3761 695.30078 1571.3555 C 696.24258 1572.4252 697.17591 1573.5009 698.0918 1574.5879 C 730.29918 1612.8128 747.16016 1662.1218 747.16016 1725.6055 C 747.16016 1834.6635 712.82122 1903.2463 663.27344 1945.7949 C 613.72566 1988.3435 547.59687 2005.0848 482.88672 2005.4902 A 12.50125 12.50125 0 0 0 482.78516 2005.4902 C 482.2164 2005.5002 481.58744 2005.5 480.89844 2005.5 C 358.31037 2005.5 286.12384 1958.453 242.59766 1895.9961 C 199.07147 1833.5391 185.07422 1754.3404 185.07422 1691.957 A 12.50125 12.50125 0 1 0 160.07422 1691.957 C 160.07422 1758.013 174.38008 1841.8365 222.08594 1910.291 C 269.79179 1978.7455 351.76855 2030.5 480.89844 2030.5 C 481.56888 2030.5 482.30063 2030.4994 483.08594 2030.4883 C 551.97411 2030.0495 624.17563 2012.3229 679.56055 1964.7617 C 734.95693 1917.1907 772.16016 1839.9996 772.16016 1725.6055 C 772.16016 1657.6229 753.53216 1601.5878 717.21094 1558.4805 C 680.93292 1515.4244 627.67347 1485.6656 559.99414 1467.4941 L 545.4375 1463.1758 C 539.90855 1461.3828 534.28456 1459.7068 528.55469 1458.166 L 527.57617 1457.877 L 441.79297 1432.4297 A 12.50125 12.50125 0 0 0 441.47266 1432.3398 C 439.98174 1431.9404 438.53112 1431.5325 437.05078 1431.1309 C 384.48561 1415.2179 330.9961 1392.1941 290.85156 1355.4023 C 249.49391 1317.4988 221.53711 1265.5734 221.53711 1187.9316 C 221.53711 1061.2749 311.68806 965.55638 450.51172 965.50195 C 547.19178 967.27539 606.43179 1004.232 643.25391 1054.6816 C 680.09024 1105.1507 693.87374 1170.3043 694.18359 1227.1152 A 12.50125 12.50125 0 1 0 719.18359 1226.9785 C 718.85256 1166.2846 704.52226 1096.2198 663.44727 1039.9434 C 631.16436 995.71286 581.97365 960.73551 512.35156 946.88281 C 635.65863 960.56736 737.7643 1072.4145 738.60938 1227.1035 A 12.50125 12.50125 0 1 0 763.60938 1226.9668 C 762.64162 1049.8164 635.54186 920.31983 486.54297 920.46094 z M 392.99805 946.13086 C 274.22795 970.03004 196.53711 1067.6084 196.53711 1187.9316 C 196.53711 1223.9951 202.41374 1255.6699 212.74219 1283.4102 C 200.40764 1253.7878 193.7793 1217.6708 193.7793 1172.3848 C 193.77918 1091.5654 228.79584 1035.7101 272.92188 998.95117 C 312.31438 966.13545 359.61649 949.35592 392.99805 946.13086 z "
       transform="translate(0,-288)"
       id="path5848-2-90-2-3" />
  </g>
  <g
     inkscape:groupmode="layer"
     id="layer4"
     inkscape:label="trace3"
     style="display:inline" />
</svg>
