<?xml version="1.0" encoding="UTF-8" standalone="no"?>
<!--?xml version="1.0" encoding="UTF-8" standalone="no"?-->

<svg
   xmlns:dc="http://purl.org/dc/elements/1.1/"
   xmlns:cc="http://creativecommons.org/ns#"
   xmlns:rdf="http://www.w3.org/1999/02/22-rdf-syntax-ns#"
   xmlns:svg="http://www.w3.org/2000/svg"
   xmlns="http://www.w3.org/2000/svg"
   xmlns:sodipodi="http://sodipodi.sourceforge.net/DTD/sodipodi-0.dtd"
   xmlns:inkscape="http://www.inkscape.org/namespaces/inkscape"
   version="1.1"
   viewBox="0 -288 1016 2048"
   id="svg6"
   sodipodi:docname="two.svg"
   width="1016"
   height="2048"
   inkscape:version="0.92.1 r">
  <metadata
     id="metadata12">
    <rdf:rdf>
      <cc:work
         rdf:about="">
        <dc:format>image/svg+xml</dc:format>
        <dc:type
           rdf:resource="http://purl.org/dc/dcmitype/StillImage" />
        <dc:title />
      </cc:work>
    </rdf:rdf>
    <rdf:RDF>
      <cc:Work
         rdf:about="">
        <dc:format>image/svg+xml</dc:format>
        <dc:type
           rdf:resource="http://purl.org/dc/dcmitype/StillImage" />
      </cc:Work>
    </rdf:RDF>
  </metadata>
  <defs
     id="defs10" />
  <sodipodi:namedview
     pagecolor="#ffffff"
     bordercolor="#666666"
     borderopacity="1"
     objecttolerance="10"
     gridtolerance="10"
     guidetolerance="10"
     inkscape:pageopacity="0"
     inkscape:pageshadow="2"
     inkscape:window-width="1364"
     inkscape:window-height="730"
     id="namedview8"
     showgrid="false"
     inkscape:zoom="0.10454805"
     inkscape:cx="-2115.0533"
     inkscape:cy="670.8299"
     inkscape:window-x="0"
     inkscape:window-y="18"
     inkscape:window-maximized="0"
     inkscape:current-layer="layer2"
     inkscape:measure-start="919.738,1129.44"
     inkscape:measure-end="1103.69,1114.72" />
  <g
     inkscape:groupmode="layer"
     id="layer2"
     inkscape:label="trace"
     style="display:inline">
    <path
       style="color:#000000;font-style:normal;font-variant:normal;font-weight:normal;font-stretch:normal;font-size:medium;line-height:normal;font-family:sans-serif;font-variant-ligatures:normal;font-variant-position:normal;font-variant-caps:normal;font-variant-numeric:normal;font-variant-alternates:normal;font-feature-settings:normal;text-indent:0;text-align:start;text-decoration:none;text-decoration-line:none;text-decoration-style:solid;text-decoration-color:#000000;letter-spacing:normal;word-spacing:normal;text-transform:none;writing-mode:lr-tb;direction:ltr;text-orientation:mixed;dominant-baseline:auto;baseline-shift:baseline;text-anchor:start;white-space:normal;shape-padding:0;clip-rule:nonzero;display:inline;overflow:visible;visibility:visible;opacity:1;isolation:auto;mix-blend-mode:normal;color-interpolation:sRGB;color-interpolation-filters:linearRGB;solid-color:#000000;solid-opacity:1;vector-effect:none;fill:#000000;fill-opacity:1;fill-rule:evenodd;stroke:none;stroke-width:25;stroke-linecap:round;stroke-linejoin:round;stroke-miterlimit:4;stroke-dasharray:none;stroke-dashoffset:0;stroke-opacity:1;color-rendering:auto;image-rendering:auto;shape-rendering:auto;text-rendering:auto;enable-background:accumulate"
       d="M 451.45508 535.5 C 321.1216 535.5 186.39648 676.75223 186.39648 903.11133 A 12.50125 12.50125 0 1 0 211.39648 903.11133 C 211.39648 686.64501 339.51662 560.5 451.45508 560.5 L 460.53711 560.5 C 383.7044 574.89497 328.43032 619.02779 292.17383 674.99023 C 247.70384 743.63033 230.45313 829.43943 230.45312 903.11133 A 12.50125 12.50125 0 1 0 255.45312 903.11133 C 255.45312 833.40199 272.29308 751.6539 313.1543 688.58398 C 354.01552 625.51407 417.51365 580.5 516.09961 580.5 C 579.23777 580.5 643.98253 593.49993 692.58008 634.92773 C 741.17763 676.35554 775.51172 746.91868 775.51172 867.89258 C 775.51172 1088.2978 654.69511 1233.1004 555.5 1362.0723 C 550.81449 1368.1643 546.12403 1374.2036 541.43359 1380.1992 C 541.43159 1380.2018 541.42974 1380.2045 541.42773 1380.207 C 473.05003 1465.1176 386.64716 1563.75 315.42383 1666.2324 C 239.45004 1775.5502 180.08008 1889.3919 180.08008 1998 A 12.50125 12.50125 0 0 0 192.58008 2010.5 L 871.44336 2010.5 A 12.50125 12.50125 0 1 0 871.44336 1985.5 L 205.51172 1985.5 C 208.37525 1923.197 232.25308 1856.8092 268.21484 1789.7188 C 251.07914 1841.2201 241.19922 1896.5957 241.19922 1958 A 12.50125 12.50125 0 0 0 253.69922 1970.5 L 871.47266 1970.5 A 12.50125 12.50125 0 1 0 871.47266 1945.5 L 266.45117 1945.5 C 269.03751 1832.3725 306.38528 1741.7042 362.16602 1654.5957 C 416.48743 1569.7661 488.36475 1488.6581 561.19141 1395.5215 C 565.68507 1389.9381 570.112 1384.4053 574.45117 1378.9316 C 719.70532 1195.6997 837.24414 1046.4132 837.24414 857.33398 A 12.50125 12.50125 0 0 0 837.24219 857.0918 C 835.12902 747.72687 801.13706 666.97225 749.95312 613.81445 C 698.76919 560.65666 630.83446 535.5 562.81445 535.5 L 451.45508 535.5 z M 590.75391 562.06641 C 642.79211 567.91868 692.66382 590.35997 731.94336 631.1543 C 778.1954 679.19 810.20176 753.06653 812.24219 857.45898 C 812.22567 913.52969 801.15443 966.20908 781.48828 1017.7676 C 793.49681 971.65693 800.51172 921.93984 800.51172 867.89258 C 800.51172 742.11559 763.73403 662.73279 708.79883 615.90234 C 674.17048 586.38282 633.07317 570.08681 590.75391 562.06641 z "
       transform="translate(0,-288)"
       id="path5546-0-3-9" />
  </g>
</svg>
