<?xml version="1.0" encoding="UTF-8" standalone="no"?>
<!--?xml version="1.0" encoding="UTF-8" standalone="no"?-->

<svg
   xmlns:dc="http://purl.org/dc/elements/1.1/"
   xmlns:cc="http://creativecommons.org/ns#"
   xmlns:rdf="http://www.w3.org/1999/02/22-rdf-syntax-ns#"
   xmlns:svg="http://www.w3.org/2000/svg"
   xmlns="http://www.w3.org/2000/svg"
   xmlns:sodipodi="http://sodipodi.sourceforge.net/DTD/sodipodi-0.dtd"
   xmlns:inkscape="http://www.inkscape.org/namespaces/inkscape"
   version="1.1"
   viewBox="0 -288 1328 2048"
   id="svg6"
   sodipodi:docname="w.svg"
   width="1328"
   height="2048"
   inkscape:version="0.92.1 r">
  <metadata
     id="metadata12">
    <rdf:rdf>
      <cc:work
         rdf:about="">
        <dc:format>image/svg+xml</dc:format>
        <dc:type
           rdf:resource="http://purl.org/dc/dcmitype/StillImage" />
        <dc:title />
      </cc:work>
    </rdf:rdf>
    <rdf:RDF>
      <cc:Work
         rdf:about="">
        <dc:format>image/svg+xml</dc:format>
        <dc:type
           rdf:resource="http://purl.org/dc/dcmitype/StillImage" />
      </cc:Work>
    </rdf:RDF>
  </metadata>
  <defs
     id="defs10" />
  <sodipodi:namedview
     pagecolor="#ffffff"
     bordercolor="#666666"
     borderopacity="1"
     objecttolerance="10"
     gridtolerance="10"
     guidetolerance="10"
     inkscape:pageopacity="0"
     inkscape:pageshadow="2"
     inkscape:window-width="1364"
     inkscape:window-height="730"
     id="namedview8"
     showgrid="false"
     inkscape:zoom="0.16140723"
     inkscape:cx="40.172304"
     inkscape:cy="555.37285"
     inkscape:window-x="0"
     inkscape:window-y="18"
     inkscape:window-maximized="0"
     inkscape:current-layer="layer3"
     inkscape:measure-start="108.932,1160.18"
     inkscape:measure-end="190.719,1160.18"
     showguides="true"
     inkscape:guide-bbox="true">
    <sodipodi:guide
       position="368.1212,1267.685"
       orientation="0,1"
       id="guide4527"
       inkscape:locked="false" />
  </sodipodi:namedview>
  <g
     inkscape:groupmode="layer"
     id="layer3"
     inkscape:label="trace">
    <path
       style="color:#000000;font-style:normal;font-variant:normal;font-weight:normal;font-stretch:normal;font-size:medium;line-height:normal;font-family:sans-serif;font-variant-ligatures:normal;font-variant-position:normal;font-variant-caps:normal;font-variant-numeric:normal;font-variant-alternates:normal;font-feature-settings:normal;text-indent:0;text-align:start;text-decoration:none;text-decoration-line:none;text-decoration-style:solid;text-decoration-color:#000000;letter-spacing:normal;word-spacing:normal;text-transform:none;writing-mode:lr-tb;direction:ltr;text-orientation:mixed;dominant-baseline:auto;baseline-shift:baseline;text-anchor:start;white-space:normal;shape-padding:0;clip-rule:nonzero;display:inline;overflow:visible;visibility:visible;opacity:1;isolation:auto;mix-blend-mode:normal;color-interpolation:sRGB;color-interpolation-filters:linearRGB;solid-color:#000000;solid-opacity:1;vector-effect:none;fill:#050000;fill-opacity:1;fill-rule:evenodd;stroke:none;stroke-width:25;stroke-linecap:round;stroke-linejoin:round;stroke-miterlimit:4;stroke-dasharray:none;stroke-dashoffset:0;stroke-opacity:1;color-rendering:auto;image-rendering:auto;shape-rendering:auto;text-rendering:auto;enable-background:accumulate"
       d="M 121.55273 870.32422 A 12.50125 12.50125 0 0 0 109.24023 883 C 109.24023 885.96283 109.5527 887.26841 109.98047 890.24805 C 110.40824 893.22768 111.02035 897.08388 111.8125 901.83594 C 113.39681 911.34004 115.70119 924.39971 118.63086 940.55859 C 124.49019 972.87637 132.84873 1017.5608 142.87695 1070.4492 C 162.9334 1176.2261 189.66735 1314.8033 216.40234 1452.5723 C 269.87233 1728.1102 323.3418 2000.4082 323.3418 2000.4082 A 12.50125 12.50125 0 0 0 335.60742 2010.5 L 351.83984 2010.5 L 448.58984 2010.5 L 462.88672 2010.5 A 12.50125 12.50125 0 0 0 475.23047 1999.9746 L 643.99219 945.5 L 690.67773 945.5 L 859.26367 1999.9727 A 12.50125 12.50125 0 0 0 871.60742 2010.5 L 885.9043 2010.5 L 984.58984 2010.5 L 998.88672 2010.5 A 12.50125 12.50125 0 0 0 1011.1504 2000.4238 C 1011.1504 2000.4238 1064.6189 1729.8371 1118.0898 1455.1523 C 1144.8253 1317.8099 1171.561 1179.4454 1191.6191 1073.3379 C 1201.6482 1020.2842 1210.0074 975.29962 1215.8691 942.49805 C 1218.8 926.09726 1221.1045 912.75116 1222.6914 902.90039 C 1224.2783 893.04962 1225.252 888.44995 1225.252 883 A 12.50125 12.50125 0 1 0 1200.252 883 C 1200.252 881.63809 1199.5557 889.32765 1198.0098 898.92383 C 1196.4639 908.52 1194.1748 921.77842 1191.2578 938.10156 C 1185.4238 970.74785 1177.0756 1015.6828 1167.0547 1068.6934 C 1147.0129 1174.7144 1120.2818 1313.0554 1093.5508 1450.375 C 1080.0245 1519.8603 1066.7544 1587.7609 1054.2793 1651.4668 C 1064.6792 1588.0515 1075.7306 1520.5422 1086.8027 1452.6973 C 1109.2728 1315.0115 1131.7431 1176.4776 1148.5996 1070.6426 C 1157.0278 1017.7251 1164.051 972.98683 1168.9746 940.58594 C 1171.4364 924.38549 1173.3734 911.27486 1174.7031 901.7207 C 1175.368 896.94363 1175.8795 893.06111 1176.2363 890.06641 C 1176.5931 887.0717 1176.8398 885.57234 1176.8398 883 A 12.50125 12.50125 0 1 0 1151.8398 883 C 1151.8398 882.12496 1151.7355 884.39461 1151.4121 887.10938 C 1151.0887 889.82413 1150.5931 893.59114 1149.9414 898.27344 C 1148.6381 907.63803 1146.7111 920.68582 1144.2578 936.83008 C 1139.3513 969.1186 1132.3335 1013.8223 1123.9102 1066.709 C 1107.0635 1172.4825 1084.5964 1311.0003 1062.1289 1448.6699 C 1018.0531 1718.7453 975.64576 1975.3969 973.97656 1985.5 L 896.81055 1985.5 L 752.67383 931.30664 A 12.50125 12.50125 0 0 0 740.28906 920.5 L 701.49023 920.5 L 633.33398 920.5 L 594.25977 920.5 A 12.50125 12.50125 0 0 0 581.875 931.30664 L 437.68359 1985.5 L 362.5 1985.5 C 360.81594 1975.419 317.92952 1718.7356 273.36133 1448.6484 C 250.64391 1310.9789 227.92665 1172.4606 210.89258 1066.6875 C 202.37554 1013.8009 195.27937 969.09653 190.31836 936.80859 C 187.83786 920.66463 185.88996 907.61946 184.57227 898.25586 C 183.91342 893.57406 183.41278 889.80703 183.08594 887.09375 C 182.75909 884.38047 182.6543 882.10579 182.6543 883 A 12.50125 12.50125 0 0 0 169.96484 870.32422 A 12.50125 12.50125 0 0 0 157.6543 883 C 157.6543 885.59152 157.90274 887.08584 158.26367 890.08203 C 158.6246 893.07823 159.14408 896.96071 159.81641 901.73828 C 161.16106 911.29343 163.1182 924.40473 165.60742 940.60547 C 170.58587 973.00694 177.6889 1017.7445 186.21094 1070.6621 C 203.25501 1176.4974 225.97521 1315.0329 248.69531 1452.7188 C 262.10357 1533.9739 275.07187 1612.2469 287.3125 1686.0098 C 272.76664 1611.4632 257.26791 1531.9211 240.94531 1447.8086 C 214.2138 1310.0576 187.48288 1171.4992 167.43945 1065.791 C 157.41774 1012.9369 149.06693 968.29126 143.23047 936.09961 C 140.31224 920.00378 138.02115 907.0139 136.47266 897.72461 C 135.69841 893.07996 135.11005 889.35292 134.72852 886.69531 C 134.34698 884.03771 134.24023 881.65219 134.24023 883 A 12.50125 12.50125 0 0 0 121.55273 870.32422 z M 605.16602 945.5 L 618.67383 945.5 L 525.75 1526.1113 L 605.16602 945.5 z M 715.99609 945.5 L 729.38281 945.5 L 808.45117 1523.7871 L 715.99609 945.5 z "
       transform="translate(0,-288)"
       id="path5109-6-3" />
  </g>
</svg>
