<?xml version="1.0" encoding="UTF-8" standalone="no"?>
<!--?xml version="1.0" encoding="UTF-8" standalone="no"?-->

<svg
   xmlns:dc="http://purl.org/dc/elements/1.1/"
   xmlns:cc="http://creativecommons.org/ns#"
   xmlns:rdf="http://www.w3.org/1999/02/22-rdf-syntax-ns#"
   xmlns:svg="http://www.w3.org/2000/svg"
   xmlns="http://www.w3.org/2000/svg"
   xmlns:sodipodi="http://sodipodi.sourceforge.net/DTD/sodipodi-0.dtd"
   xmlns:inkscape="http://www.inkscape.org/namespaces/inkscape"
   version="1.1"
   viewBox="0 -288 944 2048"
   id="svg6"
   sodipodi:docname="x.svg"
   width="944"
   height="2048"
   inkscape:version="0.92.1 r">
  <metadata
     id="metadata12">
    <rdf:rdf>
      <cc:work
         rdf:about="">
        <dc:format>image/svg+xml</dc:format>
        <dc:type
           rdf:resource="http://purl.org/dc/dcmitype/StillImage" />
        <dc:title />
      </cc:work>
    </rdf:rdf>
    <rdf:RDF>
      <cc:Work
         rdf:about="">
        <dc:format>image/svg+xml</dc:format>
        <dc:type
           rdf:resource="http://purl.org/dc/dcmitype/StillImage" />
      </cc:Work>
    </rdf:RDF>
  </metadata>
  <defs
     id="defs10" />
  <sodipodi:namedview
     pagecolor="#ffffff"
     bordercolor="#666666"
     borderopacity="1"
     objecttolerance="10"
     gridtolerance="10"
     guidetolerance="10"
     inkscape:pageopacity="0"
     inkscape:pageshadow="2"
     inkscape:window-width="1364"
     inkscape:window-height="730"
     id="namedview8"
     showgrid="false"
     inkscape:zoom="0.32281446"
     inkscape:cx="-126.23087"
     inkscape:cy="361.70951"
     inkscape:window-x="0"
     inkscape:window-y="18"
     inkscape:window-maximized="0"
     inkscape:current-layer="layer3"
     inkscape:measure-start="316.934,14.2978"
     inkscape:measure-end="23.8296,14.2978" />
  <g
     inkscape:groupmode="layer"
     id="layer3"
     inkscape:label="trace">
    <path
       style="color:#000000;font-style:normal;font-variant:normal;font-weight:normal;font-stretch:normal;font-size:medium;line-height:normal;font-family:sans-serif;font-variant-ligatures:normal;font-variant-position:normal;font-variant-caps:normal;font-variant-numeric:normal;font-variant-alternates:normal;font-feature-settings:normal;text-indent:0;text-align:start;text-decoration:none;text-decoration-line:none;text-decoration-style:solid;text-decoration-color:#000000;letter-spacing:normal;word-spacing:normal;text-transform:none;writing-mode:lr-tb;direction:ltr;text-orientation:mixed;dominant-baseline:auto;baseline-shift:baseline;text-anchor:start;white-space:normal;shape-padding:0;clip-rule:nonzero;display:inline;overflow:visible;visibility:visible;opacity:1;isolation:auto;mix-blend-mode:normal;color-interpolation:sRGB;color-interpolation-filters:linearRGB;solid-color:#000000;solid-opacity:1;vector-effect:none;fill:#050000;fill-opacity:1;fill-rule:evenodd;stroke:none;stroke-width:25;stroke-linecap:round;stroke-linejoin:round;stroke-miterlimit:4;stroke-dasharray:none;stroke-dashoffset:0;stroke-opacity:1;color-rendering:auto;image-rendering:auto;shape-rendering:auto;text-rendering:auto;enable-background:accumulate"
       d="M 161.55273 870.32422 A 12.50125 12.50125 0 0 0 149.24023 883 C 149.24023 886.1989 149.71362 886.57982 149.94727 887.3125 C 150.18091 888.04518 150.38908 888.57972 150.61523 889.13672 C 151.06755 890.25072 151.58785 891.39806 152.23828 892.78125 C 153.53914 895.54763 155.34775 899.18072 157.68945 903.76758 C 162.37286 912.9413 169.16494 925.85709 177.80273 942.05859 C 195.07833 974.4616 219.71476 1019.9657 249.27734 1074.2461 C 305.57551 1177.6162 379.95745 1313.2147 454.95703 1450.002 C 457.33487 1455.1582 459.68092 1460.2532 462.06055 1465.4121 C 384.58207 1606.7327 307.40107 1747.63 249.26758 1854.8008 C 219.70228 1909.3053 195.06172 1955.089 177.77734 1987.8379 C 169.13516 2004.2123 162.33747 2017.314 157.64062 2026.709 C 155.2922 2031.4065 153.47488 2035.1589 152.1582 2038.0723 C 151.49986 2039.5289 150.97069 2040.7568 150.50977 2041.9727 C 150.04884 2043.1886 149.24023 2042.8414 149.24023 2048 A 12.50125 12.50125 0 0 0 173.91797 2050.9492 C 173.9183 2050.8832 173.86862 2050.8812 173.88672 2050.834 C 173.90152 2050.795 173.97462 2050.6317 173.99414 2050.582 A 12.50125 12.50125 0 0 0 174.0918 2050.1152 C 174.0828 2050.1792 174.08137 2050.3482 174.07227 2050.3984 C 174.25666 2049.9387 174.49927 2049.3431 174.93945 2048.3691 C 176.00867 2046.0033 177.73251 2042.4282 180.00195 2037.8887 C 184.54084 2028.8096 191.28887 2015.7963 199.88672 1999.5059 C 217.08241 1966.925 241.6988 1921.1848 271.24219 1866.7207 C 287.25662 1837.1976 304.90851 1804.7768 323.42773 1770.8203 C 309.08973 1801.929 295.5169 1831.4135 283.01562 1858.6328 C 258.26216 1912.5291 237.63136 1957.7075 223.16602 1989.9082 C 215.93335 2006.0085 210.24524 2018.8548 206.32422 2027.9961 C 204.36371 2032.5668 202.84984 2036.1947 201.76367 2038.959 C 201.22059 2040.3411 200.78746 2041.4911 200.41797 2042.5898 C 200.04848 2043.6886 199.38281 2042.9644 199.38281 2048.041 A 12.50125 12.50125 0 0 0 224.12891 2050.6621 C 224.13391 2050.6151 224.10393 2050.5921 224.11523 2050.5586 C 224.12733 2050.5226 224.18041 2050.3867 224.19531 2050.3438 A 12.50125 12.50125 0 0 0 224.28906 2049.6465 C 224.27676 2049.8071 224.27191 2050.0774 224.25781 2050.1797 C 224.42202 2049.7127 224.64779 2049.0844 225.0332 2048.1035 C 225.94484 2045.7834 227.39456 2042.2957 229.30078 2037.8516 C 233.11322 2028.9634 238.76758 2016.1869 245.9707 2000.1523 C 260.37694 1968.0832 280.99175 1922.9348 305.73242 1869.0664 C 352.60626 1767.007 414.5138 1633.1472 476.98828 1497.7617 C 539.46266 1633.1469 601.36844 1767.0072 648.24219 1869.0664 C 672.98286 1922.9348 693.59767 1968.0832 708.00391 2000.1523 C 715.20703 2016.1869 720.86139 2028.9634 724.67383 2037.8516 C 726.58005 2042.2957 728.02977 2045.7834 728.94141 2048.1035 C 729.3265 2049.0836 729.55251 2049.7106 729.7168 2050.1777 C 729.7034 2050.0797 729.6993 2049.8203 729.6875 2049.6699 A 12.50125 12.50125 0 0 0 729.7793 2050.3438 C 729.7942 2050.3868 729.84728 2050.5227 729.85938 2050.5586 C 729.87347 2050.6006 729.8381 2050.6266 729.8418 2050.6875 A 12.50125 12.50125 0 0 0 754.58984 2048.041 C 754.58984 2042.9644 753.92613 2043.6886 753.55664 2042.5898 C 753.18715 2041.4911 752.75402 2040.3411 752.21094 2038.959 C 751.12477 2036.1947 749.6109 2032.5668 747.65039 2027.9961 C 743.72937 2018.8548 738.04126 2006.0085 730.80859 1989.9082 C 716.34325 1957.7075 695.71245 1912.5291 670.95898 1858.6328 C 658.45771 1831.4135 644.88488 1801.929 630.54688 1770.8203 C 649.0661 1804.7768 666.71799 1837.1976 682.73242 1866.7207 C 712.27581 1921.1848 736.8922 1966.925 754.08789 1999.5059 C 762.68574 2015.7963 769.43377 2028.8096 773.97266 2037.8887 C 776.2421 2042.4282 777.96594 2046.0033 779.03516 2048.3691 C 779.47533 2049.3431 779.71795 2049.9387 779.90234 2050.3984 C 779.88604 2050.3084 779.88199 2050.0252 779.86719 2049.8906 A 12.50125 12.50125 0 0 0 779.95703 2050.5293 C 779.98183 2050.5923 780.06993 2050.7866 780.08789 2050.834 C 780.10529 2050.88 780.05769 2050.882 780.05859 2050.9453 A 12.50125 12.50125 0 0 0 804.73438 2048 C 804.73437 2042.8414 803.92577 2043.1886 803.46484 2041.9727 C 803.00391 2040.7568 802.47475 2039.5289 801.81641 2038.0723 C 800.49973 2035.1589 798.68241 2031.4065 796.33398 2026.709 C 791.63714 2017.314 784.83945 2004.2123 776.19727 1987.8379 C 758.91289 1955.089 734.27233 1909.3053 704.70703 1854.8008 C 646.57354 1747.63 569.39253 1606.7327 491.91406 1465.4121 C 494.29358 1460.2534 496.6379 1455.158 499.01562 1450.002 C 574.01536 1313.2144 648.39899 1177.6164 704.69727 1074.2461 C 734.25985 1019.9657 758.89627 974.4616 776.17188 942.05859 C 784.80966 925.85709 791.60175 912.9413 796.28516 903.76758 C 798.62686 899.18072 800.43547 895.54763 801.73633 892.78125 C 802.38676 891.39806 802.90511 890.25072 803.35742 889.13672 C 803.58358 888.57972 803.7937 888.04518 804.02734 887.3125 C 804.26099 886.57982 804.73436 886.1989 804.73438 883 A 12.50125 12.50125 0 0 0 792.04492 870.32422 A 12.50125 12.50125 0 0 0 780.06055 880.03125 C 779.8765 880.46838 779.58848 881.13202 779.11328 882.14258 C 778.02824 884.45 776.29569 887.94191 774.01953 892.40039 C 769.4672 901.31736 762.71356 914.16207 754.11133 930.29688 C 736.90686 962.56647 712.28829 1008.0389 682.74219 1062.2891 C 671.44973 1083.0233 658.86844 1106.0533 646.27344 1129.1094 C 654.03658 1112.045 661.58934 1095.4133 668.71875 1079.6562 C 693.47996 1024.9302 714.11848 978.71857 728.60742 945.24219 C 735.85189 928.504 741.55482 914.96411 745.50781 905.02148 C 747.48431 900.05017 749.01996 895.99658 750.13477 892.73438 C 751.24957 889.47216 752.32031 888.91123 752.32031 883 A 12.50125 12.50125 0 0 0 739.63281 870.32422 A 12.50125 12.50125 0 0 0 727.32031 883 C 727.32031 878.78607 727.36151 882.06452 726.47852 884.64844 C 725.59551 887.23235 724.16758 891.03082 722.27734 895.78516 C 718.49688 905.29383 712.85538 918.69712 705.66406 935.3125 C 691.28143 968.54325 670.67628 1014.688 645.94336 1069.3516 C 599.61362 1171.7473 538.73072 1304.1832 476.98828 1438.0723 C 415.24572 1304.183 354.36108 1171.7475 308.03125 1069.3516 C 283.29833 1014.688 262.69318 968.54325 248.31055 935.3125 C 241.11923 918.69712 235.47773 905.29383 231.69727 895.78516 C 229.80703 891.03082 228.3791 887.23235 227.49609 884.64844 C 226.61309 882.06452 226.6543 878.78607 226.6543 883 A 12.50125 12.50125 0 0 0 213.96484 870.32422 A 12.50125 12.50125 0 0 0 201.6543 883 C 201.6543 888.91123 202.72504 889.47021 203.83984 892.73242 C 204.95465 895.99463 206.4903 900.05017 208.4668 905.02148 C 212.41979 914.96411 218.12272 928.504 225.36719 945.24219 C 239.85613 978.71857 260.49465 1024.9302 285.25586 1079.6562 C 292.38526 1095.4133 299.93803 1112.045 307.70117 1129.1094 C 295.10617 1106.0533 282.52488 1083.0233 271.23242 1062.2891 C 241.68632 1008.0389 217.06775 962.56648 199.86328 930.29688 C 191.26105 914.16206 184.5074 901.31736 179.95508 892.40039 C 177.67891 887.9419 175.94637 884.45 174.86133 882.14258 C 174.38344 881.1263 174.09135 880.45502 173.9082 880.01953 A 12.50125 12.50125 0 0 0 161.55273 870.32422 z M 173.92188 880.07617 C 173.98438 880.19804 174.01208 880.51109 174.07422 880.85742 A 12.50125 12.50125 0 0 0 173.92188 880.07617 z M 780.05078 880.08008 A 12.50125 12.50125 0 0 0 779.9082 880.76562 C 779.9673 880.45871 779.9923 880.19513 780.05078 880.08008 z "
       transform="translate(0,-288)"
       id="path5109-6" />
  </g>
</svg>
