<?xml version="1.0" encoding="UTF-8" standalone="no"?>
<!--?xml version="1.0" encoding="UTF-8" standalone="no"?-->

<svg
   xmlns:dc="http://purl.org/dc/elements/1.1/"
   xmlns:cc="http://creativecommons.org/ns#"
   xmlns:rdf="http://www.w3.org/1999/02/22-rdf-syntax-ns#"
   xmlns:svg="http://www.w3.org/2000/svg"
   xmlns="http://www.w3.org/2000/svg"
   xmlns:sodipodi="http://sodipodi.sourceforge.net/DTD/sodipodi-0.dtd"
   xmlns:inkscape="http://www.inkscape.org/namespaces/inkscape"
   version="1.1"
   viewBox="0 -288 976 2048"
   id="svg6"
   sodipodi:docname="y.svg"
   width="976"
   height="2048"
   inkscape:version="0.92.1 r">
  <metadata
     id="metadata12">
    <rdf:rdf>
      <cc:work
         rdf:about="">
        <dc:format>image/svg+xml</dc:format>
        <dc:type
           rdf:resource="http://purl.org/dc/dcmitype/StillImage" />
        <dc:title />
      </cc:work>
    </rdf:rdf>
    <rdf:RDF>
      <cc:Work
         rdf:about="">
        <dc:format>image/svg+xml</dc:format>
        <dc:type
           rdf:resource="http://purl.org/dc/dcmitype/StillImage" />
      </cc:Work>
    </rdf:RDF>
  </metadata>
  <defs
     id="defs10" />
  <sodipodi:namedview
     pagecolor="#ffffff"
     bordercolor="#666666"
     borderopacity="1"
     objecttolerance="10"
     gridtolerance="10"
     guidetolerance="10"
     inkscape:pageopacity="0"
     inkscape:pageshadow="2"
     inkscape:window-width="1364"
     inkscape:window-height="730"
     id="namedview8"
     showgrid="false"
     inkscape:zoom="0.16140723"
     inkscape:cx="-586.37869"
     inkscape:cy="1144.0251"
     inkscape:window-x="0"
     inkscape:window-y="18"
     inkscape:window-maximized="0"
     inkscape:current-layer="layer3"
     inkscape:measure-start="505.188,-278.807"
     inkscape:measure-end="188.254,-278.807"
     showguides="true"
     inkscape:guide-bbox="true">
    <sodipodi:guide
       position="842.77032,1176.6247"
       orientation="1,0"
       id="guide4527"
       inkscape:locked="false" />
    <sodipodi:guide
       position="137.32824,1138.2237"
       orientation="1,0"
       id="guide4520"
       inkscape:locked="false" />
    <sodipodi:guide
       position="170.08397,1161.5454"
       orientation="1,0"
       id="guide4522"
       inkscape:locked="false" />
    <sodipodi:guide
       position="505.1881,1241.5236"
       orientation="1,0"
       id="guide4524"
       inkscape:locked="false" />
    <sodipodi:guide
       position="824.20725,1164.9709"
       orientation="0,1"
       id="guide4526"
       inkscape:locked="false" />
  </sodipodi:namedview>
  <g
     inkscape:groupmode="layer"
     id="layer3"
     inkscape:label="trace">
    <path
       style="color:#000000;font-style:normal;font-variant:normal;font-weight:normal;font-stretch:normal;font-size:medium;line-height:normal;font-family:sans-serif;font-variant-ligatures:normal;font-variant-position:normal;font-variant-caps:normal;font-variant-numeric:normal;font-variant-alternates:normal;font-feature-settings:normal;text-indent:0;text-align:start;text-decoration:none;text-decoration-line:none;text-decoration-style:solid;text-decoration-color:#000000;letter-spacing:normal;word-spacing:normal;text-transform:none;writing-mode:lr-tb;direction:ltr;text-orientation:mixed;dominant-baseline:auto;baseline-shift:baseline;text-anchor:start;white-space:normal;shape-padding:0;clip-rule:nonzero;display:inline;overflow:visible;visibility:visible;opacity:1;isolation:auto;mix-blend-mode:normal;color-interpolation:sRGB;color-interpolation-filters:linearRGB;solid-color:#000000;solid-opacity:1;vector-effect:none;fill:#050000;fill-opacity:1;fill-rule:evenodd;stroke:none;stroke-width:25;stroke-linecap:round;stroke-linejoin:round;stroke-miterlimit:4;stroke-dasharray:none;stroke-dashoffset:0;stroke-opacity:1;color-rendering:auto;image-rendering:auto;shape-rendering:auto;text-rendering:auto;enable-background:accumulate"
       d="M 133.05078 870.32422 A 12.50125 12.50125 0 0 0 120.73828 883 C 120.73828 887.13865 121.3697 887.80106 121.94922 889.80078 C 122.52873 891.8005 123.28994 894.11077 124.25977 896.89258 C 126.19943 902.45619 128.96807 909.84336 132.51953 919.00195 C 139.62245 937.31915 149.84278 962.66152 162.48438 993.48242 C 187.76754 1055.1242 222.72074 1138.6389 261.49805 1230.9238 C 338.24949 1413.5822 429.93702 1630.4865 491.13281 1779.6992 C 488.12004 1786.5272 431.65371 1914.5095 373.22852 2048.0312 C 343.22843 2116.5919 313.22886 2185.4418 290.71289 2237.7637 C 279.45491 2263.9246 270.07045 2285.9464 263.47266 2301.7852 C 260.17376 2309.7045 257.57542 2316.0652 255.75586 2320.7129 C 254.84608 2323.0367 254.13582 2324.9161 253.58984 2326.4785 C 253.31686 2327.2597 253.08489 2327.9474 252.86133 2328.7246 C 252.63777 2329.5018 252.20117 2329.4669 252.20117 2333 A 12.50125 12.50125 0 0 0 276.94922 2335.5996 C 276.92922 2335.5856 276.88532 2335.6417 276.88672 2335.6367 C 276.88972 2335.6247 276.98522 2335.3451 277.03516 2335.1914 A 12.50125 12.50125 0 0 0 277.0918 2334.7227 C 277.0816 2334.8047 277.08131 2335.0257 277.07031 2335.0859 C 277.11841 2334.9403 277.11801 2334.9311 277.18945 2334.7266 C 277.55153 2333.6904 278.18742 2331.9935 279.03516 2329.8281 C 280.73062 2325.4974 283.28829 2319.2304 286.55078 2311.3984 C 293.07576 2295.7345 302.43757 2273.7595 313.67578 2247.6445 C 336.1522 2195.4146 366.14304 2126.5917 396.13281 2058.0547 C 400.13914 2048.8988 403.91386 2040.3125 407.90234 2031.207 C 400.09002 2053.3335 391.9631 2076.3175 384.8125 2096.6348 C 361.01083 2164.2632 341.1751 2221.0509 327.27148 2261.625 C 320.31968 2281.9121 314.85345 2298.1368 311.0957 2309.7051 C 309.21683 2315.4892 307.76709 2320.0954 306.74609 2323.5684 C 306.2356 2325.3048 305.834 2326.7442 305.51562 2328.0332 C 305.19725 2329.3222 304.7832 2329.4613 304.7832 2333 A 12.50125 12.50125 0 1 0 329.7832 2333 C 329.7832 2333.5797 329.77306 2333.8938 329.76367 2334.1836 C 329.77257 2334.1308 329.77296 2334.0787 329.78516 2334.0293 C 329.95479 2333.3425 330.28044 2332.1499 330.73047 2330.6191 C 331.63053 2327.5576 333.03376 2323.09 334.87305 2317.4277 C 338.55162 2306.1033 343.9906 2289.95 350.91992 2269.7285 C 364.77856 2229.2856 384.60377 2172.533 408.39453 2104.9355 C 455.97606 1969.7407 519.43195 1791.1463 582.88867 1612.5195 C 646.34539 1433.8928 709.80234 1255.2333 757.40625 1119.8633 C 781.20821 1052.1783 801.04472 995.32064 814.94922 954.66016 C 821.90147 934.32992 827.36794 918.05894 831.12695 906.4375 C 833.00646 900.62678 834.45627 895.99133 835.47852 892.48633 C 835.98964 890.73383 836.39421 889.27662 836.71289 887.96875 C 837.03158 886.66088 837.43555 886.41868 837.43555 883 A 12.50125 12.50125 0 0 0 824.74609 870.32422 A 12.50125 12.50125 0 0 0 812.43555 883 C 812.43555 882.42542 812.44391 882.101 812.45312 881.82422 C 812.44188 881.90244 812.43993 881.97671 812.42188 882.05078 C 812.25255 882.74568 811.92792 883.94546 811.47852 885.48633 C 810.57972 888.56806 809.1785 893.05972 807.33984 898.74414 C 803.66254 910.11299 798.2238 926.31038 791.29492 946.57227 C 777.43717 987.09604 757.61274 1043.918 733.82227 1111.5703 C 705.6548 1191.6694 671.65685 1287.6877 635.65625 1389.1699 C 640.69236 1372.4351 645.47005 1356.6016 650.53516 1339.7539 C 684.01361 1228.3971 717.49339 1116.6529 742.60938 1031.9473 C 755.16737 989.59447 765.63328 954.0053 772.97266 928.57227 C 776.64234 915.85575 779.52759 905.68671 781.51758 898.42188 C 782.51257 894.78945 783.28189 891.89407 783.83203 889.68164 C 784.1071 888.57543 784.32548 887.65169 784.50781 886.7832 C 784.69014 885.91472 784.96875 886.00292 784.96875 883 A 12.50125 12.50125 0 0 0 772.28125 870.32422 A 12.50125 12.50125 0 0 0 760.03516 881.67773 C 759.95846 882.04086 759.79833 882.73145 759.57031 883.64844 C 759.10702 885.51159 758.37275 888.288 757.40625 891.81641 C 755.47325 898.87323 752.60439 908.98118 748.95117 921.64062 C 741.64473 946.95955 731.18974 982.51697 718.64062 1024.8398 C 693.54239 1109.4856 660.06759 1221.2152 626.59375 1332.5566 C 568.19611 1526.8002 517.40855 1694.6797 503.48633 1740.6875 C 448.82008 1593.1445 376.1204 1391.11 315.33203 1219.6797 C 282.48857 1127.0573 253.12861 1043.3919 231.99414 982.1582 C 221.4269 951.54134 212.91453 926.52511 207.06641 908.85352 C 204.14235 900.01772 201.88056 893.00754 200.38672 888.13672 C 199.6398 885.70131 199.08281 883.78727 198.75586 882.56641 C 198.62525 882.07869 198.58183 881.48554 198.56445 881.11133 C 198.57364 881.4422 198.58398 882.01901 198.58398 883 A 12.50125 12.50125 0 0 0 185.89648 870.32422 A 12.50125 12.50125 0 0 0 173.58398 883 C 173.58398 887.79337 174.14404 887.30289 174.60742 889.0332 C 175.0708 890.76351 175.68953 892.86876 176.48633 895.4668 C 178.07992 900.66286 180.37672 907.77681 183.33203 916.70703 C 189.24265 934.56748 197.77496 959.64217 208.36133 990.31445 C 229.53406 1051.659 258.9096 1135.3663 291.76953 1228.0352 C 299.51995 1249.8923 307.49245 1272.3153 315.56836 1294.9922 C 305.18729 1270.3174 294.51889 1244.977 284.54492 1221.2402 C 245.77598 1128.9752 210.83713 1045.4866 185.61523 983.99414 C 173.00428 953.24792 162.81798 927.99043 155.82812 909.96484 C 152.3332 900.95205 149.63403 893.73196 147.86719 888.66406 C 146.98377 886.13011 146.33292 884.11864 145.96289 882.8418 C 145.59287 881.56496 145.73828 879.9959 145.73828 883 A 12.50125 12.50125 0 0 0 133.05078 870.32422 z M 198.56445 881.11133 C 198.55098 880.62605 198.54892 880.77685 198.56445 881.11133 z M 812.45312 881.82422 C 812.52535 881.322 812.48329 880.91802 812.45312 881.82422 z M 329.76367 2334.1836 C 329.67355 2334.7181 329.72954 2335.2376 329.76367 2334.1836 z "
       transform="translate(0,-288)"
       id="path5109-6" />
  </g>
</svg>
