<?xml version="1.0" encoding="UTF-8" standalone="no"?>
<!--?xml version="1.0" encoding="UTF-8" standalone="no"?-->

<svg
   xmlns:dc="http://purl.org/dc/elements/1.1/"
   xmlns:cc="http://creativecommons.org/ns#"
   xmlns:rdf="http://www.w3.org/1999/02/22-rdf-syntax-ns#"
   xmlns:svg="http://www.w3.org/2000/svg"
   xmlns="http://www.w3.org/2000/svg"
   xmlns:sodipodi="http://sodipodi.sourceforge.net/DTD/sodipodi-0.dtd"
   xmlns:inkscape="http://www.inkscape.org/namespaces/inkscape"
   version="1.1"
   viewBox="0 -288 1208 2048"
   id="svg6"
   sodipodi:docname="Y.svg"
   width="1208"
   height="2048"
   inkscape:version="0.92.1 r">
  <metadata
     id="metadata12">
    <rdf:rdf>
      <cc:work
         rdf:about="">
        <dc:format>image/svg+xml</dc:format>
        <dc:type
           rdf:resource="http://purl.org/dc/dcmitype/StillImage" />
        <dc:title />
      </cc:work>
    </rdf:rdf>
    <rdf:RDF>
      <cc:Work
         rdf:about="">
        <dc:format>image/svg+xml</dc:format>
        <dc:type
           rdf:resource="http://purl.org/dc/dcmitype/StillImage" />
      </cc:Work>
    </rdf:RDF>
  </metadata>
  <defs
     id="defs10" />
  <sodipodi:namedview
     pagecolor="#ffffff"
     bordercolor="#666666"
     borderopacity="1"
     objecttolerance="10"
     gridtolerance="10"
     guidetolerance="10"
     inkscape:pageopacity="0"
     inkscape:pageshadow="2"
     inkscape:window-width="1364"
     inkscape:window-height="730"
     id="namedview8"
     showgrid="false"
     inkscape:zoom="0.19287127"
     inkscape:cx="-104.87293"
     inkscape:cy="1793.9213"
     inkscape:window-x="0"
     inkscape:window-y="18"
     inkscape:window-maximized="0"
     inkscape:current-layer="layer3"
     inkscape:measure-start="997.664,1544.09"
     inkscape:measure-end="1082.98,1544.09"
     showguides="true"
     inkscape:guide-bbox="true">
    <sodipodi:guide
       position="744.02015,547.6602"
       orientation="1,0"
       id="guide3860"
       inkscape:locked="false" />
    <sodipodi:guide
       position="750.5399,497.41965"
       orientation="0,1"
       id="guide893"
       inkscape:locked="false" />
    <sodipodi:guide
       position="200.94286,1516.5898"
       orientation="0,1"
       id="guide209"
       inkscape:locked="false" />
  </sodipodi:namedview>
  <g
     inkscape:groupmode="layer"
     id="layer3"
     inkscape:label="trace">
    <path
       style="color:#000000;font-style:normal;font-variant:normal;font-weight:normal;font-stretch:normal;font-size:medium;line-height:normal;font-family:sans-serif;font-variant-ligatures:normal;font-variant-position:normal;font-variant-caps:normal;font-variant-numeric:normal;font-variant-alternates:normal;font-feature-settings:normal;text-indent:0;text-align:start;text-decoration:none;text-decoration-line:none;text-decoration-style:solid;text-decoration-color:#000000;letter-spacing:normal;word-spacing:normal;text-transform:none;writing-mode:lr-tb;direction:ltr;text-orientation:mixed;dominant-baseline:auto;baseline-shift:baseline;text-anchor:start;white-space:normal;shape-padding:0;clip-rule:nonzero;display:inline;overflow:visible;visibility:visible;opacity:1;isolation:auto;mix-blend-mode:normal;color-interpolation:sRGB;color-interpolation-filters:linearRGB;solid-color:#000000;solid-opacity:1;vector-effect:none;fill:#000000;fill-opacity:1;fill-rule:evenodd;stroke:none;stroke-width:25;stroke-linecap:round;stroke-linejoin:round;stroke-miterlimit:4;stroke-dasharray:none;stroke-dashoffset:0;stroke-opacity:1;color-rendering:auto;image-rendering:auto;shape-rendering:auto;text-rendering:auto;enable-background:accumulate"
       d="M 1005.3105 485.32227 A 12.50125 12.50125 0 0 0 992.99805 498 C 992.99805 496.09938 992.99005 497.82311 992.39258 499.89258 C 991.7956 501.96204 990.79871 504.96906 989.45898 508.66797 C 986.77954 516.06578 982.72964 526.28319 977.55273 538.75 C 967.19892 563.68362 952.31952 597.68504 934.45312 637.55859 C 898.72033 717.3057 851.02302 820.59861 803.32617 922.83984 C 710.6357 1121.5278 621.08574 1309.6225 615.90625 1320.5 L 594.45117 1320.5 C 589.27251 1309.6184 499.72058 1121.4201 407.0293 922.67773 C 359.33227 820.409 311.63575 717.10318 275.90234 637.375 C 258.03564 597.51091 243.15541 563.52727 232.80078 538.62109 C 227.62347 526.168 223.57465 515.96583 220.89453 508.58594 C 219.55447 504.89599 218.55594 501.89938 217.95898 499.83984 C 217.36203 497.78031 217.35742 496.04729 217.35742 498 A 12.50125 12.50125 0 0 0 204.66992 485.32422 A 12.50125 12.50125 0 0 0 192.35742 498 C 192.35742 502.02961 193.09985 503.8752 193.94727 506.79883 C 194.79468 509.72246 195.93904 513.11331 197.39453 517.12109 C 200.30551 525.13667 204.45739 535.5682 209.7168 548.21875 C 220.23561 573.51984 235.1735 607.62478 253.08984 647.59961 C 285.48126 719.87116 327.65308 811.35708 370.69531 903.83398 C 319.88714 807.84899 269.80105 712.23555 231.70508 637.33398 C 211.41786 597.44671 194.52146 563.41471 182.77148 538.44531 C 176.8965 525.96061 172.30217 515.72209 169.27148 508.31836 C 167.75614 504.61649 166.63269 501.60848 165.96875 499.56445 C 165.30481 497.52042 165.33594 495.79933 165.33594 498 A 12.50125 12.50125 0 0 0 152.64844 485.32422 A 12.50125 12.50125 0 0 0 140.33594 498 C 140.33594 502.35347 141.21508 504.28134 142.19141 507.28711 C 143.16773 510.29288 144.47736 513.73538 146.13672 517.78906 C 149.45543 525.89644 154.17317 536.38788 160.15039 549.08984 C 172.10484 574.49377 189.07294 608.65939 209.42188 648.66797 C 250.11971 728.68513 304.31905 832.01721 358.51758 934.27148 C 465.02776 1135.2202 570.3247 1329.7616 574 1336.5508 L 574 2048 A 12.50125 12.50125 0 1 0 599 2048 L 599 1345.5 L 611.5 1345.5 L 611.5 2048 A 12.50125 12.50125 0 1 0 636.5 2048 L 636.5 1335.8223 C 641.23829 1327.0569 745.70906 1133.7564 851.71484 933.68359 C 905.94374 831.33327 960.17396 727.95432 1000.8926 648.01562 C 1021.2519 608.04628 1038.2259 573.95281 1050.1836 548.66406 C 1056.1625 536.01969 1060.8836 525.59658 1064.2012 517.57422 C 1065.86 513.56304 1067.1676 510.16787 1068.1445 507.21289 C 1069.1215 504.25791 1070.0195 502.46219 1070.0195 498 A 12.50125 12.50125 0 1 0 1045.0195 498 C 1045.0195 495.59309 1045.0725 497.35604 1044.4082 499.36523 C 1043.7439 501.37443 1042.6154 504.34944 1041.0977 508.01953 C 1038.0622 515.3597 1033.4641 525.54095 1027.584 537.97656 C 1015.8237 562.8478 998.91545 596.81461 978.61523 636.66797 C 941.48376 709.56444 892.971 802.21455 843.49609 895.75977 C 885.19494 806.1354 925.8406 717.91878 957.26758 647.78125 C 975.18423 607.79555 990.12101 573.67085 1000.6406 548.33789 C 1005.9004 535.67141 1010.0532 525.22059 1012.9648 517.18164 C 1014.4207 513.16216 1015.5667 509.75976 1016.4141 506.82227 C 1017.2614 503.88477 1017.998 502.00462 1017.998 498 A 12.50125 12.50125 0 0 0 1005.3105 485.32227 z "
       transform="translate(0,-288)"
       id="path5236-7-72-2-3" />
  </g>
</svg>
