<?xml version="1.0" encoding="UTF-8" standalone="no"?>
<!--?xml version="1.0" encoding="UTF-8" standalone="no"?-->

<svg
   xmlns:dc="http://purl.org/dc/elements/1.1/"
   xmlns:cc="http://creativecommons.org/ns#"
   xmlns:rdf="http://www.w3.org/1999/02/22-rdf-syntax-ns#"
   xmlns:svg="http://www.w3.org/2000/svg"
   xmlns="http://www.w3.org/2000/svg"
   xmlns:sodipodi="http://sodipodi.sourceforge.net/DTD/sodipodi-0.dtd"
   xmlns:inkscape="http://www.inkscape.org/namespaces/inkscape"
   version="1.1"
   viewBox="0 -288 1160 2048"
   id="svg6"
   sodipodi:docname="Z.svg"
   width="1160"
   height="2048"
   inkscape:version="0.92.1 r">
  <metadata
     id="metadata12">
    <rdf:rdf>
      <cc:work
         rdf:about="">
        <dc:format>image/svg+xml</dc:format>
        <dc:type
           rdf:resource="http://purl.org/dc/dcmitype/StillImage" />
        <dc:title />
      </cc:work>
    </rdf:rdf>
    <rdf:RDF>
      <cc:Work
         rdf:about="">
        <dc:format>image/svg+xml</dc:format>
        <dc:type
           rdf:resource="http://purl.org/dc/dcmitype/StillImage" />
      </cc:Work>
    </rdf:RDF>
  </metadata>
  <defs
     id="defs10" />
  <sodipodi:namedview
     pagecolor="#ffffff"
     bordercolor="#666666"
     borderopacity="1"
     objecttolerance="10"
     gridtolerance="10"
     guidetolerance="10"
     inkscape:pageopacity="0"
     inkscape:pageshadow="2"
     inkscape:window-width="1364"
     inkscape:window-height="730"
     id="namedview8"
     showgrid="false"
     inkscape:zoom="0.45216188"
     inkscape:cx="58.615126"
     inkscape:cy="1377.9156"
     inkscape:window-x="0"
     inkscape:window-y="18"
     inkscape:window-maximized="0"
     inkscape:current-layer="layer3"
     inkscape:measure-start="265.4,1306.58"
     inkscape:measure-end="265.4,1634.93"
     showguides="true"
     inkscape:guide-bbox="true">
    <sodipodi:guide
       position="845.51112,411.80334"
       orientation="1,0"
       id="guide4527"
       inkscape:locked="false" />
    <sodipodi:guide
       position="137.32824,1138.2237"
       orientation="1,0"
       id="guide4520"
       inkscape:locked="false" />
    <sodipodi:guide
       position="170.08397,1161.5454"
       orientation="1,0"
       id="guide4522"
       inkscape:locked="false" />
    <sodipodi:guide
       position="505.1881,1241.5236"
       orientation="1,0"
       id="guide4524"
       inkscape:locked="false" />
    <sodipodi:guide
       position="824.20725,1164.9709"
       orientation="0,1"
       id="guide4526"
       inkscape:locked="false" />
  </sodipodi:namedview>
  <g
     inkscape:groupmode="layer"
     id="layer3"
     inkscape:label="trace"
     style="display:inline">
    <path
       style="color:#000000;font-style:normal;font-variant:normal;font-weight:normal;font-stretch:normal;font-size:medium;line-height:normal;font-family:sans-serif;font-variant-ligatures:normal;font-variant-position:normal;font-variant-caps:normal;font-variant-numeric:normal;font-variant-alternates:normal;font-feature-settings:normal;text-indent:0;text-align:start;text-decoration:none;text-decoration-line:none;text-decoration-style:solid;text-decoration-color:#000000;letter-spacing:normal;word-spacing:normal;text-transform:none;writing-mode:lr-tb;direction:ltr;text-orientation:mixed;dominant-baseline:auto;baseline-shift:baseline;text-anchor:start;white-space:normal;shape-padding:0;clip-rule:nonzero;display:inline;overflow:visible;visibility:visible;opacity:1;isolation:auto;mix-blend-mode:normal;color-interpolation:sRGB;color-interpolation-filters:linearRGB;solid-color:#000000;solid-opacity:1;vector-effect:none;fill:#000000;fill-opacity:1;fill-rule:evenodd;stroke:none;stroke-width:25;stroke-linecap:round;stroke-linejoin:round;stroke-miterlimit:4;stroke-dasharray:none;stroke-dashoffset:0;stroke-opacity:1;color-rendering:auto;image-rendering:auto;shape-rendering:auto;text-rendering:auto;enable-background:accumulate"
       d="M 156.75586 535.5 A 12.50125 12.50125 0 1 0 156.75586 560.5 L 941.62305 560.5 L 941.62305 616.66211 L 789.51953 881.13867 L 914.73047 635.67969 A 12.50125 12.50125 0 0 0 916.0957 630 L 916.0957 583 A 12.50125 12.50125 0 0 0 903.5957 570.5 L 156.22852 570.5 A 12.50125 12.50125 0 1 0 156.22852 595.5 L 891.0957 595.5 L 891.0957 626.99609 L 541.21875 1312.8848 L 193.91992 1916.7676 A 12.50125 12.50125 0 0 0 192.25586 1923 L 192.25586 1998 A 12.50125 12.50125 0 0 0 204.75586 2010.5 L 1000.123 2010.5 A 12.50125 12.50125 0 1 0 1000.123 1985.5 L 217.25586 1985.5 L 217.25586 1926.3379 L 314.89844 1756.5586 L 243.09375 1897.3203 A 12.50125 12.50125 0 0 0 241.72852 1903 L 241.72852 1958 A 12.50125 12.50125 0 0 0 254.22852 1970.5 L 999.5957 1970.5 A 12.50125 12.50125 0 1 0 999.5957 1945.5 L 266.72852 1945.5 L 266.72852 1906.0039 L 563.20312 1324.8027 L 964.95703 626.23242 A 12.50125 12.50125 0 0 0 966.62305 620 L 966.62305 548 A 12.50125 12.50125 0 0 0 954.12305 535.5 L 156.75586 535.5 z "
       transform="translate(0,-288)"
       id="path5236-7-72-2-3" />
  </g>
</svg>
