<?xml version="1.0" encoding="UTF-8" standalone="no"?>
<!--?xml version="1.0" encoding="UTF-8" standalone="no"?-->

<svg
   xmlns:dc="http://purl.org/dc/elements/1.1/"
   xmlns:cc="http://creativecommons.org/ns#"
   xmlns:rdf="http://www.w3.org/1999/02/22-rdf-syntax-ns#"
   xmlns:svg="http://www.w3.org/2000/svg"
   xmlns="http://www.w3.org/2000/svg"
   xmlns:sodipodi="http://sodipodi.sourceforge.net/DTD/sodipodi-0.dtd"
   xmlns:inkscape="http://www.inkscape.org/namespaces/inkscape"
   version="1.1"
   viewBox="0 -288 1296 2048"
   id="svg6"
   sodipodi:docname="A.svg"
   width="1296"
   height="2048"
   inkscape:version="0.92.1 r">
  <metadata
     id="metadata12">
    <rdf:rdf>
      <cc:work
         rdf:about="">
        <dc:format>image/svg+xml</dc:format>
        <dc:type
           rdf:resource="http://purl.org/dc/dcmitype/StillImage" />
        <dc:title />
      </cc:work>
    </rdf:rdf>
    <rdf:RDF>
      <cc:Work
         rdf:about="">
        <dc:format>image/svg+xml</dc:format>
        <dc:type
           rdf:resource="http://purl.org/dc/dcmitype/StillImage" />
      </cc:Work>
    </rdf:RDF>
  </metadata>
  <defs
     id="defs10" />
  <sodipodi:namedview
     pagecolor="#ffffff"
     bordercolor="#666666"
     borderopacity="1"
     objecttolerance="10"
     gridtolerance="10"
     guidetolerance="10"
     inkscape:pageopacity="0"
     inkscape:pageshadow="2"
     inkscape:window-width="1364"
     inkscape:window-height="730"
     id="namedview8"
     showgrid="false"
     showguides="true"
     inkscape:guide-bbox="true"
     inkscape:measure-start="142.668,36.8175"
     inkscape:measure-end="191.276,23.7931"
     inkscape:zoom="0.83929139"
     inkscape:cx="-267.69405"
     inkscape:cy="458.75557"
     inkscape:window-x="2560"
     inkscape:window-y="18"
     inkscape:window-maximized="0"
     inkscape:current-layer="layer2">
    <sodipodi:guide
       position="647.37424,895.89231"
       orientation="1,0"
       id="guide5107"
       inkscape:locked="false" />
    <sodipodi:guide
       position="-91.118644,1361.3559"
       orientation="1,0"
       id="guide5194"
       inkscape:locked="false" />
  </sodipodi:namedview>
  <g
     inkscape:groupmode="layer"
     id="layer2"
     inkscape:label="trace"
     style="display:inline">
    <path
       style="color:#000000;font-style:normal;font-variant:normal;font-weight:normal;font-stretch:normal;font-size:medium;line-height:normal;font-family:sans-serif;font-variant-ligatures:normal;font-variant-position:normal;font-variant-caps:normal;font-variant-numeric:normal;font-variant-alternates:normal;font-feature-settings:normal;text-indent:0;text-align:start;text-decoration:none;text-decoration-line:none;text-decoration-style:solid;text-decoration-color:#000000;letter-spacing:normal;word-spacing:normal;text-transform:none;writing-mode:lr-tb;direction:ltr;text-orientation:mixed;dominant-baseline:auto;baseline-shift:baseline;text-anchor:start;white-space:normal;shape-padding:0;clip-rule:nonzero;display:inline;overflow:visible;visibility:visible;opacity:1;isolation:auto;mix-blend-mode:normal;color-interpolation:sRGB;color-interpolation-filters:linearRGB;solid-color:#000000;solid-opacity:1;vector-effect:none;fill:#050000;fill-opacity:1;fill-rule:evenodd;stroke:none;stroke-width:100;stroke-linecap:butt;stroke-linejoin:miter;stroke-miterlimit:4;stroke-dasharray:none;stroke-dashoffset:0;stroke-opacity:1;color-rendering:auto;image-rendering:auto;shape-rendering:auto;text-rendering:auto;enable-background:accumulate"
       d="M 558.9375 498 L 547.95117 533.04102 C 547.95117 533.04102 431.73954 903.66801 315.51953 1276.5215 C 257.40953 1462.9482 199.29988 1649.926 155.69141 1791.4805 C 133.88717 1862.2577 115.71357 1921.6605 102.94336 1964.0801 C 96.558254 1985.2898 91.530851 2002.2244 88.019531 2014.4199 C 86.263871 2020.5177 84.896516 2025.389 83.847656 2029.3496 C 83.323226 2031.3299 82.883319 2033.0347 82.4375 2034.9883 C 81.991681 2036.9418 80.847656 2033.9691 80.847656 2048 L 138.84766 2048 L 180.84766 2048 C 180.84766 2052.8343 180.66886 2053.6501 180.51758 2054.9395 C 180.95041 2053.3052 181.6371 2050.8342 182.43555 2048 L 238.84766 2048 C 238.84766 2049.8331 238.83572 2051.2956 238.82031 2052.502 C 238.82798 2052.4651 238.83176 2052.4122 238.83984 2052.377 C 239.47677 2049.6011 240.62431 2044.973 242.16211 2039.0684 C 245.2377 2027.2591 249.90204 2010.1596 255.85938 1988.8301 C 267.77405 1946.1711 284.88946 1886.4398 305.43555 1815.541 C 331.34794 1726.1246 362.96678 1618.1496 396.36523 1504.5762 L 901.08203 1504.5762 C 934.12222 1616.7875 965.38983 1723.5426 991.04883 1812.3066 C 1011.5889 1883.3624 1028.6961 1943.3942 1040.5918 1986.5 C 1046.5397 2008.0529 1051.1938 2025.4172 1054.2461 2037.4805 C 1055.7723 2043.5121 1056.9019 2048.2622 1057.5234 2051.127 C 1057.5889 2051.4285 1057.6352 2051.7672 1057.6777 2052.1055 C 1057.6597 2051.062 1057.6465 2049.7965 1057.6465 2048 L 1114.0586 2048 C 1114.857 2050.8342 1115.5437 2053.3052 1115.9766 2054.9395 C 1115.8253 2053.6501 1115.6465 2052.8343 1115.6465 2048 L 1157.6465 2048 L 1215.6465 2048 C 1215.6465 2033.9691 1214.5025 2036.9418 1214.0566 2034.9883 C 1213.6108 2033.0347 1213.1709 2031.3299 1212.6465 2029.3496 C 1211.5976 2025.389 1210.2303 2020.5177 1208.4746 2014.4199 C 1204.9633 2002.2244 1199.9359 1985.2898 1193.5508 1964.0801 C 1180.7806 1921.6605 1162.607 1862.2577 1140.8027 1791.4805 C 1097.1943 1649.926 1039.0846 1462.9482 980.97461 1276.5215 C 864.75459 903.66801 748.54297 533.04102 748.54297 533.04102 L 737.55469 498 L 706.04297 498 L 590.39453 498 L 558.9375 498 z M 1057.6777 2052.1055 C 1057.7634 2057.0683 1057.9762 2054.4813 1057.6777 2052.1055 z M 238.82031 2052.502 C 238.29646 2055.0189 238.70972 2061.1588 238.82031 2052.502 z M 648.31055 653.90039 C 679.86422 759.31285 752.52048 1002.2394 840.29688 1298.6816 C 850.7862 1334.1066 861.20658 1369.3862 871.59961 1404.5762 L 425.80273 1404.5762 C 435.90284 1370.3114 446.0188 1335.9904 456.20703 1301.4941 C 544.07517 1003.9818 616.83545 759.56427 648.31055 653.90039 z "
       transform="translate(0,-288)"
       id="path5109-6" />
  </g>
</svg>
