<?xml version="1.0" encoding="UTF-8" standalone="no"?>
<!--?xml version="1.0" encoding="UTF-8" standalone="no"?-->

<svg
   xmlns:dc="http://purl.org/dc/elements/1.1/"
   xmlns:cc="http://creativecommons.org/ns#"
   xmlns:rdf="http://www.w3.org/1999/02/22-rdf-syntax-ns#"
   xmlns:svg="http://www.w3.org/2000/svg"
   xmlns="http://www.w3.org/2000/svg"
   xmlns:sodipodi="http://sodipodi.sourceforge.net/DTD/sodipodi-0.dtd"
   xmlns:inkscape="http://www.inkscape.org/namespaces/inkscape"
   version="1.1"
   viewBox="0 -288 976 2048"
   id="svg6"
   sodipodi:docname="a.svg"
   width="976"
   height="2048"
   inkscape:version="0.92.1 r">
  <metadata
     id="metadata12">
    <rdf:rdf>
      <cc:work
         rdf:about="">
        <dc:format>image/svg+xml</dc:format>
        <dc:type
           rdf:resource="http://purl.org/dc/dcmitype/StillImage" />
        <dc:title />
      </cc:work>
    </rdf:rdf>
    <rdf:RDF>
      <cc:Work
         rdf:about="">
        <dc:format>image/svg+xml</dc:format>
        <dc:type
           rdf:resource="http://purl.org/dc/dcmitype/StillImage" />
      </cc:Work>
    </rdf:RDF>
  </metadata>
  <defs
     id="defs10" />
  <sodipodi:namedview
     pagecolor="#ffffff"
     bordercolor="#666666"
     borderopacity="1"
     objecttolerance="10"
     gridtolerance="10"
     guidetolerance="10"
     inkscape:pageopacity="0"
     inkscape:pageshadow="2"
     inkscape:window-width="1364"
     inkscape:window-height="730"
     id="namedview8"
     showgrid="false"
     inkscape:zoom="0.70302186"
     inkscape:cx="-979.78111"
     inkscape:cy="1013.8635"
     inkscape:window-x="2560"
     inkscape:window-y="18"
     inkscape:window-maximized="0"
     inkscape:current-layer="layer2"
     inkscape:measure-start="489.366,1118.33"
     inkscape:measure-end="489.366,1096.66" />
  <g
     inkscape:groupmode="layer"
     id="layer2"
     inkscape:label="trace"
     style="display:inline">
    <path
       style="color:#000000;font-style:normal;font-variant:normal;font-weight:normal;font-stretch:normal;font-size:medium;line-height:normal;font-family:sans-serif;font-variant-ligatures:normal;font-variant-position:normal;font-variant-caps:normal;font-variant-numeric:normal;font-variant-alternates:normal;font-feature-settings:normal;text-indent:0;text-align:start;text-decoration:none;text-decoration-line:none;text-decoration-style:solid;text-decoration-color:#000000;letter-spacing:normal;word-spacing:normal;text-transform:none;writing-mode:lr-tb;direction:ltr;text-orientation:mixed;dominant-baseline:auto;baseline-shift:baseline;text-anchor:start;white-space:normal;shape-padding:0;clip-rule:nonzero;display:inline;overflow:visible;visibility:visible;opacity:1;isolation:auto;mix-blend-mode:normal;color-interpolation:sRGB;color-interpolation-filters:linearRGB;solid-color:#000000;solid-opacity:1;vector-effect:none;fill:#000000;fill-opacity:1;fill-rule:evenodd;stroke:none;stroke-width:100;stroke-linecap:butt;stroke-linejoin:round;stroke-miterlimit:4;stroke-dasharray:none;stroke-dashoffset:0;stroke-opacity:1;color-rendering:auto;image-rendering:auto;shape-rendering:auto;text-rendering:auto;enable-background:accumulate"
       d="M 431.45508 883 C 280.8316 883 130.89648 1014.483 130.89648 1208.1738 L 180.95312 1208.1738 L 230.89648 1208.1738 L 280.95312 1208.1738 C 280.95312 1176.3894 289.57727 1121.0484 318.13867 1079.1035 C 346.70008 1037.1586 391.12354 1003 488.09961 1003 C 547.55239 1003 593.32808 1016.9894 624.4375 1046.2207 C 655.54692 1075.452 678.01172 1124.0337 678.01172 1211.8926 L 678.01172 1308.8398 C 597.07443 1312.4908 492.0407 1323.7638 393.29883 1358.5059 C 322.1214 1383.5494 253.2327 1421.2697 201.0957 1480.1953 C 149.08888 1538.9738 116.04367 1619.2303 115.87891 1717.5547 C 115.87491 1717.8028 115.79841 1722.2582 116.01172 1728.707 C 116.97687 1757.8817 122.9918 1835.9838 165.49023 1913.8184 C 207.98867 1991.6529 295.43737 2067.0215 433.20117 2067.0215 C 539.33131 2067.0215 629.06814 1998.4099 695.81836 1935.8574 C 696.21108 1935.4894 696.59319 1935.1219 696.98438 1934.7539 C 699.07469 1946.1983 701.13428 1957.5245 703.08984 1968.3809 C 707.05844 1990.4125 710.6114 2010.5671 713.13672 2025.8008 C 715.66204 2041.0345 716.92195 2058.1694 716.75391 2048.9062 L 766.74609 2048 L 816.74414 2048 L 816.74414 1203.334 C 816.74414 1104.5956 790.67283 1023.908 741 967.57227 C 691.32717 911.23649 619.35065 883 542.81445 883 L 431.45508 883 z M 678.01172 1411.5156 L 678.01172 1804.9199 C 664.66978 1818.5243 641.0451 1841.0714 610.53711 1863.8477 C 562.04391 1900.051 498.20262 1933 441.98438 1933 C 371.20124 1933 332.175 1905.9237 303.96875 1866.4316 C 275.7625 1826.9396 262.45508 1771.8846 262.45508 1727.0195 C 262.45508 1593.3001 331.26127 1522.0175 427.5293 1473.7539 C 505.67385 1434.5764 601.60267 1416.8151 678.01172 1411.5156 z "
       transform="translate(0,-288)"
       id="path5546-1-6-6-4" />
  </g>
</svg>
