<?xml version="1.0" encoding="UTF-8" standalone="no"?>
<!--?xml version="1.0" encoding="UTF-8" standalone="no"?-->

<svg
   xmlns:dc="http://purl.org/dc/elements/1.1/"
   xmlns:cc="http://creativecommons.org/ns#"
   xmlns:rdf="http://www.w3.org/1999/02/22-rdf-syntax-ns#"
   xmlns:svg="http://www.w3.org/2000/svg"
   xmlns="http://www.w3.org/2000/svg"
   xmlns:sodipodi="http://sodipodi.sourceforge.net/DTD/sodipodi-0.dtd"
   xmlns:inkscape="http://www.inkscape.org/namespaces/inkscape"
   version="1.1"
   viewBox="0 -288 976 2048"
   id="svg6"
   sodipodi:docname="acircumflex.svg"
   width="976"
   height="2048"
   inkscape:version="0.92.1 r">
  <metadata
     id="metadata12">
    <rdf:rdf>
      <cc:work
         rdf:about="">
        <dc:format>image/svg+xml</dc:format>
        <dc:type
           rdf:resource="http://purl.org/dc/dcmitype/StillImage" />
        <dc:title />
      </cc:work>
    </rdf:rdf>
    <rdf:RDF>
      <cc:Work
         rdf:about="">
        <dc:format>image/svg+xml</dc:format>
        <dc:type
           rdf:resource="http://purl.org/dc/dcmitype/StillImage" />
      </cc:Work>
    </rdf:RDF>
  </metadata>
  <defs
     id="defs10" />
  <sodipodi:namedview
     pagecolor="#ffffff"
     bordercolor="#666666"
     borderopacity="1"
     objecttolerance="10"
     gridtolerance="10"
     guidetolerance="10"
     inkscape:pageopacity="0"
     inkscape:pageshadow="2"
     inkscape:window-width="1364"
     inkscape:window-height="730"
     id="namedview8"
     showgrid="false"
     inkscape:zoom="0.6050443"
     inkscape:cx="2406.0071"
     inkscape:cy="541.23238"
     inkscape:window-x="2560"
     inkscape:window-y="18"
     inkscape:window-maximized="0"
     inkscape:current-layer="layer4"
     inkscape:measure-start="511.828,854.564"
     inkscape:measure-end="511.828,957.32" />
  <g
     inkscape:groupmode="layer"
     id="layer4"
     inkscape:label="trace 3">
    <path
       style="color:#000000;font-style:normal;font-variant:normal;font-weight:normal;font-stretch:normal;font-size:medium;line-height:normal;font-family:sans-serif;font-variant-ligatures:normal;font-variant-position:normal;font-variant-caps:normal;font-variant-numeric:normal;font-variant-alternates:normal;font-feature-settings:normal;text-indent:0;text-align:start;text-decoration:none;text-decoration-line:none;text-decoration-style:solid;text-decoration-color:#000000;letter-spacing:normal;word-spacing:normal;text-transform:none;writing-mode:lr-tb;direction:ltr;text-orientation:mixed;dominant-baseline:auto;baseline-shift:baseline;text-anchor:start;white-space:normal;shape-padding:0;clip-rule:nonzero;display:inline;overflow:visible;visibility:visible;opacity:1;isolation:auto;mix-blend-mode:normal;color-interpolation:sRGB;color-interpolation-filters:linearRGB;solid-color:#000000;solid-opacity:1;vector-effect:none;fill:#000000;fill-opacity:1;fill-rule:evenodd;stroke:none;stroke-width:100;stroke-linecap:butt;stroke-linejoin:round;stroke-miterlimit:4;stroke-dasharray:none;stroke-dashoffset:0;stroke-opacity:1;color-rendering:auto;image-rendering:auto;shape-rendering:auto;text-rendering:auto;enable-background:accumulate"
       d="M 482.5957 329.34961 L 357.34375 503.4375 L 182.94336 711.01953 L 198.55469 724.13672 L 193.54492 731.09961 L 274.71875 789.50195 L 436.31641 564.89648 L 482.5957 509.8125 L 528.85352 564.87109 L 690.4707 789.50195 L 771.64453 731.09961 L 766.63477 724.13672 L 782.24609 711.01953 L 607.84766 503.4375 L 482.5957 329.34961 z M 431.45508 1078 C 358.91346 1078 286.03521 1103.2455 228.88867 1150.4961 C 171.74214 1197.7467 130.89648 1269.6983 130.89648 1355.1562 L 180.95312 1355.1562 L 230.89648 1355.1562 L 280.95312 1355.1562 C 280.95312 1331.4626 288.27756 1290.8417 315.03906 1259.0957 C 341.80057 1227.3497 388.48598 1198 488.09961 1198 C 549.58672 1198 598.54924 1209.9066 628.6543 1232.5098 C 658.75935 1255.1129 678.01172 1288.274 678.01172 1358.2578 L 678.01172 1430.8281 C 597.5728 1433.8768 493.48844 1443.2364 395.81641 1471.8984 C 325.29806 1492.5922 257.1742 1523.3896 204.24609 1573.2812 C 151.48899 1623.0119 116.11292 1693.9827 115.88477 1779.7812 C 115.87877 1780.1272 115.79907 1784.244 116.02344 1789.9023 C 117.0746 1816.4034 123.73478 1881.8649 168.24609 1946.2539 C 212.75741 2010.6429 299.01657 2068 433.20117 2068 C 534.18639 2068 624.26071 2015.2605 691.23438 1966.0527 C 693.19368 1964.6132 695.13115 1963.1733 697.05273 1961.7344 C 699.20933 1971.1815 701.42198 1980.8531 703.44531 1989.7812 C 707.45901 2007.4923 711.06186 2023.6087 713.58789 2035.4863 C 714.85091 2041.4252 715.84922 2046.342 716.44336 2049.5254 C 716.64585 2050.6104 716.723 2051.9042 716.76367 2052.9395 C 716.74609 2051.9667 716.72852 2050.5589 716.72852 2048 L 716.74414 2048 L 816.72852 2048 L 816.74414 2048 L 816.74414 1351.1191 C 816.74414 1265.5921 788.45706 1194.0289 737.57031 1146.6465 C 686.68356 1099.2641 617.1275 1078 542.81445 1078 L 431.45508 1078 z M 716.76367 2052.9395 C 716.79735 2054.8024 716.81535 2054.2549 716.76367 2052.9395 z M 678.01172 1533.916 L 678.01172 1844.209 C 661.84224 1855.7636 636.44746 1873.0017 606.16406 1890.3438 C 553.46587 1920.5216 485.99239 1948 441.98438 1948 C 368.46864 1948 327.61267 1924.3409 300.92969 1893.8086 C 274.24671 1863.2763 262.45508 1821.9841 262.45508 1787.8906 C 262.45508 1737.1122 280.22332 1700.3056 311.64062 1667.1621 C 343.05795 1634.0186 389.44166 1606.4902 441.51758 1585.8691 C 521.27177 1554.2881 613.97738 1539.2396 678.01172 1533.916 z "
       transform="translate(0,-288)"
       id="path5546-0-3-9-3" />
  </g>
</svg>
