<?xml version="1.0" encoding="UTF-8" standalone="no"?>
<!--?xml version="1.0" encoding="UTF-8" standalone="no"?-->

<svg
   xmlns:dc="http://purl.org/dc/elements/1.1/"
   xmlns:cc="http://creativecommons.org/ns#"
   xmlns:rdf="http://www.w3.org/1999/02/22-rdf-syntax-ns#"
   xmlns:svg="http://www.w3.org/2000/svg"
   xmlns="http://www.w3.org/2000/svg"
   xmlns:sodipodi="http://sodipodi.sourceforge.net/DTD/sodipodi-0.dtd"
   xmlns:inkscape="http://www.inkscape.org/namespaces/inkscape"
   version="1.1"
   viewBox="0 -288 1304 2048"
   id="svg6"
   sodipodi:docname="B.svg"
   width="1304"
   height="2048"
   inkscape:version="0.92.1 r">
  <metadata
     id="metadata12">
    <rdf:rdf>
      <cc:work
         rdf:about="">
        <dc:format>image/svg+xml</dc:format>
        <dc:type
           rdf:resource="http://purl.org/dc/dcmitype/StillImage" />
        <dc:title />
      </cc:work>
    </rdf:rdf>
    <rdf:RDF>
      <cc:Work
         rdf:about="">
        <dc:format>image/svg+xml</dc:format>
        <dc:type
           rdf:resource="http://purl.org/dc/dcmitype/StillImage" />
      </cc:Work>
    </rdf:RDF>
  </metadata>
  <defs
     id="defs10" />
  <sodipodi:namedview
     pagecolor="#ffffff"
     bordercolor="#666666"
     borderopacity="1"
     objecttolerance="10"
     gridtolerance="10"
     guidetolerance="10"
     inkscape:pageopacity="0"
     inkscape:pageshadow="2"
     inkscape:window-width="1364"
     inkscape:window-height="730"
     id="namedview8"
     showgrid="false"
     inkscape:zoom="0.20982283"
     inkscape:cx="-689.53643"
     inkscape:cy="200.62458"
     inkscape:window-x="2560"
     inkscape:window-y="18"
     inkscape:window-maximized="0"
     inkscape:current-layer="layer3"
     showguides="true"
     inkscape:guide-bbox="true"
     inkscape:measure-start="496.269,1540.2"
     inkscape:measure-end="496.269,1389.86">
    <sodipodi:guide
       position="751.69046,763.96296"
       orientation="1,0"
       id="guide844"
       inkscape:locked="false" />
  </sodipodi:namedview>
  <g
     inkscape:groupmode="layer"
     id="layer3"
     inkscape:label="traces"
     style="display:inline">
    <path
       style="color:#000000;font-style:normal;font-variant:normal;font-weight:normal;font-stretch:normal;font-size:medium;line-height:normal;font-family:sans-serif;font-variant-ligatures:normal;font-variant-position:normal;font-variant-caps:normal;font-variant-numeric:normal;font-variant-alternates:normal;font-feature-settings:normal;text-indent:0;text-align:start;text-decoration:none;text-decoration-line:none;text-decoration-style:solid;text-decoration-color:#000000;letter-spacing:normal;word-spacing:normal;text-transform:none;writing-mode:lr-tb;direction:ltr;text-orientation:mixed;dominant-baseline:auto;baseline-shift:baseline;text-anchor:start;white-space:normal;shape-padding:0;clip-rule:nonzero;display:inline;overflow:visible;visibility:visible;opacity:1;isolation:auto;mix-blend-mode:normal;color-interpolation:sRGB;color-interpolation-filters:linearRGB;solid-color:#000000;solid-opacity:1;vector-effect:none;fill:#000000;fill-opacity:1;fill-rule:evenodd;stroke:none;stroke-width:100;stroke-linecap:butt;stroke-linejoin:miter;stroke-miterlimit:4;stroke-dasharray:none;stroke-dashoffset:0;stroke-opacity:1;color-rendering:auto;image-rendering:auto;shape-rendering:auto;text-rendering:auto;enable-background:accumulate"
       d="M 162.13281 495.24023 L 162.13281 2048 L 768.60938 2048 C 926.73668 2048 1041.425 2000.1872 1112.4883 1918.4941 C 1183.5516 1836.8011 1208.2168 1728.1356 1208.2168 1615.6562 C 1208.2168 1449.8039 1141.3436 1330.8343 1032.6797 1264.043 C 1002.2586 1245.3444 969.11802 1230.4865 933.79688 1218.6191 C 945.93391 1212.8597 957.84189 1206.6658 969.40039 1199.8691 C 1071.0767 1140.0808 1144.7168 1032.2827 1144.7168 880.96875 C 1144.7168 774.28354 1111.9041 675.40849 1039.6816 604.80078 C 967.45927 534.19307 859.45224 495.24023 721.29688 495.24023 L 162.13281 495.24023 z M 302.12305 633 L 719.2207 633 C 820.93061 633 886.53797 666.2346 929.4043 711.04492 C 972.27062 755.85524 992.20313 814.8383 992.20312 867.28906 L 992.20312 867.75781 L 992.21289 868.22852 C 994.34066 981.25008 949.5388 1053.0564 881.8125 1103.1914 C 821.2972 1147.9884 740.15856 1172.4399 662.30859 1177.1426 C 649.10628 1177.7154 635.86858 1178 622.6582 1178 L 302.12305 1178 L 302.12305 633 z M 302.12305 1278 L 622.6582 1278 C 644.73061 1278 666.24945 1278.4663 687.18945 1279.3965 C 787.20358 1284.7816 875.1637 1306.0693 937.31445 1346.3906 C 1010.1571 1393.6485 1053.8164 1462.9343 1053.8164 1588.1113 L 1053.8164 1588.4961 L 1053.8262 1588.8789 C 1055.4255 1692.9169 1032.8082 1770.8184 984.60352 1822.8516 C 936.39888 1874.8847 857.74764 1907.9043 727.15234 1907.9043 L 727.14258 1907.9043 L 302.12695 1908.0762 L 302.12305 1278 z "
       transform="translate(0,-288)"
       id="path5236-7-72-2" />
  </g>
  <g
     inkscape:groupmode="layer"
     id="layer4"
     inkscape:label="traces 2"
     style="display:inline" />
</svg>
