<?xml version="1.0" encoding="UTF-8" standalone="no"?>
<!--?xml version="1.0" encoding="UTF-8" standalone="no"?-->

<svg
   xmlns:dc="http://purl.org/dc/elements/1.1/"
   xmlns:cc="http://creativecommons.org/ns#"
   xmlns:rdf="http://www.w3.org/1999/02/22-rdf-syntax-ns#"
   xmlns:svg="http://www.w3.org/2000/svg"
   xmlns="http://www.w3.org/2000/svg"
   xmlns:sodipodi="http://sodipodi.sourceforge.net/DTD/sodipodi-0.dtd"
   xmlns:inkscape="http://www.inkscape.org/namespaces/inkscape"
   version="1.1"
   viewBox="0 -288 1016 2048"
   id="svg6"
   sodipodi:docname="b.svg"
   width="1016"
   height="2048"
   inkscape:version="0.92.1 r">
  <metadata
     id="metadata12">
    <rdf:rdf>
      <cc:work
         rdf:about="">
        <dc:format>image/svg+xml</dc:format>
        <dc:type
           rdf:resource="http://purl.org/dc/dcmitype/StillImage" />
        <dc:title />
      </cc:work>
    </rdf:rdf>
    <rdf:RDF>
      <cc:Work
         rdf:about="">
        <dc:format>image/svg+xml</dc:format>
        <dc:type
           rdf:resource="http://purl.org/dc/dcmitype/StillImage" />
      </cc:Work>
    </rdf:RDF>
  </metadata>
  <defs
     id="defs10" />
  <sodipodi:namedview
     pagecolor="#ffffff"
     bordercolor="#666666"
     borderopacity="1"
     objecttolerance="10"
     gridtolerance="10"
     guidetolerance="10"
     inkscape:pageopacity="0"
     inkscape:pageshadow="2"
     inkscape:window-width="1364"
     inkscape:window-height="730"
     id="namedview8"
     showgrid="false"
     inkscape:zoom="1.0958038"
     inkscape:cx="147.15944"
     inkscape:cy="983.94193"
     inkscape:window-x="2560"
     inkscape:window-y="18"
     inkscape:window-maximized="0"
     inkscape:current-layer="layer2"
     inkscape:measure-start="169.22,1.62712"
     inkscape:measure-end="269.017,1.62712" />
  <g
     inkscape:groupmode="layer"
     id="layer2"
     inkscape:label="trace">
    <path
       style="color:#000000;font-style:normal;font-variant:normal;font-weight:normal;font-stretch:normal;font-size:medium;line-height:normal;font-family:sans-serif;font-variant-ligatures:normal;font-variant-position:normal;font-variant-caps:normal;font-variant-numeric:normal;font-variant-alternates:normal;font-feature-settings:normal;text-indent:0;text-align:start;text-decoration:none;text-decoration-line:none;text-decoration-style:solid;text-decoration-color:#000000;letter-spacing:normal;word-spacing:normal;text-transform:none;writing-mode:lr-tb;direction:ltr;text-orientation:mixed;dominant-baseline:auto;baseline-shift:baseline;text-anchor:start;white-space:normal;shape-padding:0;clip-rule:nonzero;display:inline;overflow:visible;visibility:visible;opacity:1;isolation:auto;mix-blend-mode:normal;color-interpolation:sRGB;color-interpolation-filters:linearRGB;solid-color:#000000;solid-opacity:1;vector-effect:none;fill:#000000;fill-opacity:0.99708174;fill-rule:evenodd;stroke:none;stroke-width:100;stroke-linecap:butt;stroke-linejoin:miter;stroke-miterlimit:4;stroke-dasharray:none;stroke-dashoffset:0;stroke-opacity:1;color-rendering:auto;image-rendering:auto;shape-rendering:auto;text-rendering:auto;enable-background:accumulate"
       d="M 168.91602 422.94141 L 168.91602 724.45898 L 168.91602 1838.8555 L 168.91797 2047.6855 L 268.91797 2047.6855 C 268.91797 2058.2182 268.69143 2051.659 269.29688 2048.1934 C 269.90231 2044.7277 270.8993 2039.4775 272.1582 2033.1484 C 274.67601 2020.4903 278.25303 2003.3708 282.23828 1984.5605 C 283.98634 1976.3098 285.90461 1967.3472 287.75977 1958.6504 C 352.07227 2012.1871 440.62145 2068 545.0293 2068 C 666.40415 2068 759.73733 1987.2354 813.60156 1873.877 C 867.4658 1760.5185 891 1611.7072 891 1446.6406 C 891 1286.8703 875.03047 1153.6964 833.28125 1053.6172 C 791.53203 953.538 712.38357 883.42578 609.6875 883.42578 L 610.13867 883.42773 L 515.33594 882.57422 L 515.11133 882.57422 C 483.79576 882.57422 458.46441 893.46351 430.50781 907.22266 C 402.55121 920.9818 373.25169 939.04548 343.77344 959.19922 C 335.52578 964.83799 327.27954 970.64752 319.07422 976.55664 C 315.06066 979.111 311.14365 981.6667 307.33789 984.21289 L 307.33789 724.45898 L 307.33789 422.94141 L 268.91602 422.94141 L 207.33789 422.94141 L 168.91602 422.94141 z M 549.75391 1002.9668 C 611.75916 1002.8892 647.30622 1010.8739 680.74805 1062.8984 C 715.26864 1116.6011 743.3457 1232.3852 743.3457 1445.7441 C 743.3457 1592.5467 726.00605 1721.2736 688.35156 1806.5645 C 650.71543 1891.8137 603.80248 1932.4322 518.76953 1932.9961 C 418.77539 1932.9244 344.73807 1876.271 312.9082 1846.7246 C 310.99386 1844.853 309.16705 1843.0271 307.33789 1841.1973 L 307.33789 1111.9316 C 307.35436 1111.9181 307.37025 1111.9042 307.38672 1111.8906 C 346.93323 1080.4955 453.60877 1003 543.23047 1003 L 543.45117 1003 L 543.66992 1002.998 C 545.72597 1002.98 547.75374 1002.9693 549.75391 1002.9668 z "
       transform="translate(0,-288)"
       id="path5236-72-2" />
  </g>
</svg>
