<?xml version="1.0" encoding="UTF-8" standalone="no"?>
<!--?xml version="1.0" encoding="UTF-8" standalone="no"?-->

<svg
   xmlns:dc="http://purl.org/dc/elements/1.1/"
   xmlns:cc="http://creativecommons.org/ns#"
   xmlns:rdf="http://www.w3.org/1999/02/22-rdf-syntax-ns#"
   xmlns:svg="http://www.w3.org/2000/svg"
   xmlns="http://www.w3.org/2000/svg"
   xmlns:sodipodi="http://sodipodi.sourceforge.net/DTD/sodipodi-0.dtd"
   xmlns:inkscape="http://www.inkscape.org/namespaces/inkscape"
   version="1.1"
   viewBox="0 -288 1024 2048"
   id="svg6"
   sodipodi:docname="ccedilla.svg"
   width="1024"
   height="2048"
   inkscape:version="0.92.1 r">
  <metadata
     id="metadata12">
    <rdf:rdf>
      <cc:work
         rdf:about="">
        <dc:format>image/svg+xml</dc:format>
        <dc:type
           rdf:resource="http://purl.org/dc/dcmitype/StillImage" />
        <dc:title />
      </cc:work>
    </rdf:rdf>
    <rdf:RDF>
      <cc:Work
         rdf:about="">
        <dc:format>image/svg+xml</dc:format>
        <dc:type
           rdf:resource="http://purl.org/dc/dcmitype/StillImage" />
      </cc:Work>
    </rdf:RDF>
  </metadata>
  <defs
     id="defs10" />
  <sodipodi:namedview
     pagecolor="#ffffff"
     bordercolor="#666666"
     borderopacity="1"
     objecttolerance="10"
     gridtolerance="10"
     guidetolerance="10"
     inkscape:pageopacity="0"
     inkscape:pageshadow="2"
     inkscape:window-width="1364"
     inkscape:window-height="730"
     id="namedview8"
     showgrid="false"
     inkscape:zoom="0.587792"
     inkscape:cx="285.64698"
     inkscape:cy="-312.6057"
     inkscape:window-x="2560"
     inkscape:window-y="18"
     inkscape:window-maximized="0"
     inkscape:current-layer="layer3"
     inkscape:measure-start="812.669,393.487"
     inkscape:measure-end="881.319,393.487"
     showguides="true"
     inkscape:guide-bbox="true">
    <sodipodi:guide
       position="532.61017,1118.1017"
       orientation="1,0"
       id="guide5888"
       inkscape:locked="false" />
    <sodipodi:guide
       position="825.77129,-279.05375"
       orientation="1,0"
       id="guide5890"
       inkscape:locked="false" />
    <sodipodi:guide
       position="262.86142,920"
       orientation="0,1"
       id="guide47"
       inkscape:locked="false"
       inkscape:label=""
       inkscape:color="rgb(0,0,255)" />
    <sodipodi:guide
       position="1401.8837,900"
       orientation="0,1"
       id="guide4523"
       inkscape:locked="false"
       inkscape:label=""
       inkscape:color="rgb(0,0,255)" />
    <sodipodi:guide
       position="660.59618,30"
       orientation="0,1"
       id="guide4525"
       inkscape:locked="false"
       inkscape:label=""
       inkscape:color="rgb(0,0,255)" />
    <sodipodi:guide
       position="589.34782,50"
       orientation="0,1"
       id="guide4527"
       inkscape:locked="false"
       inkscape:label=""
       inkscape:color="rgb(0,0,255)" />
  </sodipodi:namedview>
  <g
     inkscape:groupmode="layer"
     id="layer3"
     inkscape:label="trace"
     style="display:inline">
    <path
       style="color:#000000;font-style:normal;font-variant:normal;font-weight:normal;font-stretch:normal;font-size:medium;line-height:normal;font-family:sans-serif;font-variant-ligatures:normal;font-variant-position:normal;font-variant-caps:normal;font-variant-numeric:normal;font-variant-alternates:normal;font-feature-settings:normal;text-indent:0;text-align:start;text-decoration:none;text-decoration-line:none;text-decoration-style:solid;text-decoration-color:#000000;letter-spacing:normal;word-spacing:normal;text-transform:none;writing-mode:lr-tb;direction:ltr;text-orientation:mixed;dominant-baseline:auto;baseline-shift:baseline;text-anchor:start;white-space:normal;shape-padding:0;clip-rule:nonzero;display:inline;overflow:visible;visibility:visible;opacity:1;isolation:auto;mix-blend-mode:normal;color-interpolation:sRGB;color-interpolation-filters:linearRGB;solid-color:#000000;solid-opacity:1;vector-effect:none;fill:#000000;fill-opacity:1;fill-rule:evenodd;stroke:none;stroke-width:100;stroke-linecap:butt;stroke-linejoin:miter;stroke-miterlimit:4;stroke-dasharray:none;stroke-dashoffset:0;stroke-opacity:1;color-rendering:auto;image-rendering:auto;shape-rendering:auto;text-rendering:auto;enable-background:accumulate"
       d="M 490.85938 1078 C 381.53418 1078 284.53003 1127.2432 220.3418 1213.4551 C 156.15356 1299.6669 122.76172 1419.7014 122.76172 1565.0586 C 122.76172 1843.7261 280.49027 2036.5129 479 2064.4941 L 477.05859 2100.9375 L 475.81445 2119.8906 L 476.03516 2120.166 L 475.75391 2125.4336 L 490.62305 2138.4277 L 525.57227 2182.1797 L 533.80664 2176.168 L 534.9082 2177.1309 L 543.22266 2169.291 L 558.875 2157.8613 C 562.39256 2161.2925 568.76563 2168.6645 568.76562 2185.2871 C 568.76562 2200.8241 564.73579 2216.0571 561.31055 2222.3965 C 561.12147 2222.7464 561.17828 2222.7431 561.03516 2223.0254 C 556.31094 2222.3814 552.77061 2221.2565 550.11328 2220.1992 C 548.25903 2219.4615 546.9329 2218.8086 545.39844 2218.0078 C 544.63121 2217.6074 543.92399 2217.2067 542.12695 2216.2988 C 541.22843 2215.8449 540.13724 2215.2599 537.63281 2214.2383 C 535.12839 2213.2167 533.25933 2210.3965 518.25195 2210.3965 L 518.25195 2310.3965 C 503.4599 2310.3965 501.92239 2307.6728 499.86133 2306.832 C 497.80027 2305.9913 497.26569 2305.6721 497.03711 2305.5566 C 496.57994 2305.3257 497.66471 2305.895 499.13477 2306.6621 C 502.07487 2308.1964 507.00542 2310.6727 513.14453 2313.1152 C 514.75459 2313.7558 516.46214 2314.3955 518.25195 2315.0273 L 518.25195 2319.8164 C 510.64755 2319.8164 506.6903 2319.1728 504.375 2318.4395 C 507.29046 2319.7687 510.69913 2321.2511 514.97461 2322.8066 C 527.48603 2327.3588 545.29433 2331.8242 566.84375 2331.8242 C 605.78511 2331.8242 638.87995 2304.6262 654.08984 2276.1758 C 669.29974 2247.7254 674.26758 2216.5083 674.26758 2184.5117 C 674.26758 2151.3193 664.94066 2120.6196 647.15234 2095.7539 C 637.87451 2082.7847 625.4962 2071.0203 610.74805 2062.7051 C 721.52197 2046.9433 799.17305 1997.5019 846.80469 1936.1738 C 904.84345 1861.4461 919.65625 1775.2116 919.65625 1713.9395 L 872.42969 1713.9395 C 872.42969 1713.9375 872.42969 1713.9356 872.42969 1713.9336 L 772.42969 1713.9336 C 772.42969 1854.6897 677.91176 1948 533.32617 1948 C 432.21333 1948 372.20143 1909.5852 328.72461 1842.0215 C 285.24779 1774.4577 263.07812 1673.449 263.07812 1558.5176 C 263.07812 1432.5836 289.40116 1341.2785 333.40039 1284.2266 C 377.39962 1227.1747 438.74368 1198 532.80273 1198 C 621.69082 1198 678.57947 1225.1627 715.64648 1263.5977 C 752.7135 1302.0326 771.08789 1354.6169 771.08789 1411.4199 L 871.08789 1411.4199 C 871.08789 1411.1778 871.08057 1410.9355 871.08008 1410.6934 L 919.1582 1410.6934 C 919.1582 1325.535 889.99433 1242.1037 831.07812 1179.6797 C 772.16193 1117.2557 683.66338 1078 575.45898 1078 L 490.85938 1078 z M 564.24219 2153.9414 C 564.24219 2153.9414 564.80185 2154.2299 563.5957 2154.4141 L 564.24219 2153.9414 z M 498.07031 2315.4629 C 497.81986 2315.3435 498.99887 2315.9283 500.55664 2316.6836 C 500.81279 2316.8078 501.26697 2317.0038 501.54883 2317.1387 C 501.15153 2316.878 500.79697 2316.623 500.42969 2316.4785 C 498.59813 2315.7578 498.19554 2315.5226 498.07031 2315.4629 z "
       transform="translate(0,-288)"
       id="path5546-0-3-2-5-5" />
  </g>
  <g
     inkscape:groupmode="layer"
     id="layer4"
     inkscape:label="trace 1" />
</svg>
