<?xml version="1.0" encoding="UTF-8" standalone="no"?>
<!--?xml version="1.0" encoding="UTF-8" standalone="no"?-->

<svg
   xmlns:dc="http://purl.org/dc/elements/1.1/"
   xmlns:cc="http://creativecommons.org/ns#"
   xmlns:rdf="http://www.w3.org/1999/02/22-rdf-syntax-ns#"
   xmlns:svg="http://www.w3.org/2000/svg"
   xmlns="http://www.w3.org/2000/svg"
   xmlns:sodipodi="http://sodipodi.sourceforge.net/DTD/sodipodi-0.dtd"
   xmlns:inkscape="http://www.inkscape.org/namespaces/inkscape"
   version="1.1"
   viewBox="0 -288 1024 2048"
   id="svg6"
   sodipodi:docname="ecircumflex.svg"
   width="1024"
   height="2048"
   inkscape:version="0.92.1 r">
  <metadata
     id="metadata12">
    <rdf:rdf>
      <cc:work
         rdf:about="">
        <dc:format>image/svg+xml</dc:format>
        <dc:type
           rdf:resource="http://purl.org/dc/dcmitype/StillImage" />
        <dc:title />
      </cc:work>
    </rdf:rdf>
    <rdf:RDF>
      <cc:Work
         rdf:about="">
        <dc:format>image/svg+xml</dc:format>
        <dc:type
           rdf:resource="http://purl.org/dc/dcmitype/StillImage" />
      </cc:Work>
    </rdf:RDF>
  </metadata>
  <defs
     id="defs10" />
  <sodipodi:namedview
     pagecolor="#ffffff"
     bordercolor="#666666"
     borderopacity="1"
     objecttolerance="10"
     gridtolerance="10"
     guidetolerance="10"
     inkscape:pageopacity="0"
     inkscape:pageshadow="2"
     inkscape:window-width="1364"
     inkscape:window-height="730"
     id="namedview8"
     showgrid="false"
     inkscape:zoom="0.41468604"
     inkscape:cx="2215.694"
     inkscape:cy="-281.85961"
     inkscape:window-x="2560"
     inkscape:window-y="18"
     inkscape:window-maximized="0"
     inkscape:current-layer="layer2"
     inkscape:measure-start="1198.87,818.422"
     inkscape:measure-end="1198.77,818.326"
     showguides="true"
     inkscape:guide-bbox="true">
    <sodipodi:guide
       position="860.20339,725.69492"
       orientation="0,1"
       id="guide880"
       inkscape:locked="false" />
    <sodipodi:guide
       position="514.29434,1188.8982"
       orientation="1,0"
       id="guide882"
       inkscape:locked="false" />
    <sodipodi:guide
       position="557.55932,10.847458"
       orientation="1,0"
       id="guide884"
       inkscape:locked="false" />
    <sodipodi:guide
       position="938.84605,960.32292"
       orientation="0,1"
       id="guide886"
       inkscape:locked="false" />
    <sodipodi:guide
       position="465.58787,1166.079"
       orientation="0,1"
       id="guide888"
       inkscape:locked="false" />
    <sodipodi:guide
       position="1153.6271,1046.7797"
       orientation="0,1"
       id="guide890"
       inkscape:locked="false" />
    <sodipodi:guide
       position="1700.6673,960.32292"
       orientation="0,1"
       id="guide4458"
       inkscape:locked="false" />
    <sodipodi:guide
       position="1499.3458,920.82408"
       orientation="0,1"
       id="guide4460"
       inkscape:locked="false" />
    <sodipodi:guide
       position="1500.5794,901.08773"
       orientation="0,1"
       id="guide4462"
       inkscape:locked="false" />
  </sodipodi:namedview>
  <g
     inkscape:groupmode="layer"
     id="layer2"
     inkscape:label="trace"
     style="display:inline">
    <path
       style="color:#000000;font-style:normal;font-variant:normal;font-weight:normal;font-stretch:normal;font-size:medium;line-height:normal;font-family:sans-serif;font-variant-ligatures:normal;font-variant-position:normal;font-variant-caps:normal;font-variant-numeric:normal;font-variant-alternates:normal;font-feature-settings:normal;text-indent:0;text-align:start;text-decoration:none;text-decoration-line:none;text-decoration-style:solid;text-decoration-color:#000000;letter-spacing:normal;word-spacing:normal;text-transform:none;writing-mode:lr-tb;direction:ltr;text-orientation:mixed;dominant-baseline:auto;baseline-shift:baseline;text-anchor:start;white-space:normal;shape-padding:0;clip-rule:nonzero;display:inline;overflow:visible;visibility:visible;opacity:1;isolation:auto;mix-blend-mode:normal;color-interpolation:sRGB;color-interpolation-filters:linearRGB;solid-color:#000000;solid-opacity:1;vector-effect:none;fill:#000000;fill-opacity:1;fill-rule:evenodd;stroke:none;stroke-width:100;stroke-linecap:butt;stroke-linejoin:miter;stroke-miterlimit:4;stroke-dasharray:none;stroke-dashoffset:0;stroke-opacity:1;color-rendering:auto;image-rendering:auto;shape-rendering:auto;text-rendering:auto;enable-background:accumulate"
       d="M 482.5957 329.34961 L 357.34375 503.4375 L 182.94336 711.01953 L 198.55469 724.13672 L 193.54492 731.09961 L 274.71875 789.50195 L 436.31641 564.89648 L 482.5957 509.8125 L 528.85352 564.87109 L 690.4707 789.50195 L 771.64453 731.09961 L 766.63477 724.13672 L 782.24609 711.01953 L 607.84766 503.4375 L 482.5957 329.34961 z M 470.04492 1077.9512 L 469.69727 1077.9551 C 375.3474 1079.265 283.25529 1112.0286 220.71094 1191.7891 C 158.16659 1271.5495 126.0957 1390.5458 126.0957 1559.793 C 126.0957 1721.275 162.85163 1848.7724 237.07031 1937.3125 C 311.22837 2025.7803 421.59339 2069.7095 548.44336 2069.7812 C 664.80858 2071.1873 752.56263 2032.343 810.10547 1985.6211 C 838.90434 1962.2379 860.33321 1937.1338 875.26367 1913.3652 C 890.19413 1889.5966 900.43945 1870.3031 900.43945 1841.4434 L 800.43945 1841.4434 C 800.43945 1837.5045 800.16153 1838.3128 799.07031 1841.5352 L 752.80664 1841.5352 C 752.80664 1838.5518 738.28162 1876.784 702.13477 1904.5391 C 665.98791 1932.2941 614.43282 1954.6465 556.35938 1954.6465 C 475.07675 1954.6465 404.34559 1930.76 351.25977 1872.6152 C 304.06755 1820.9257 268.56891 1738.199 261.25195 1610.2637 L 866.00195 1610.2637 L 866.00195 1610.1406 L 901.19727 1610.1406 L 900.29492 1518.0859 C 900.21063 1380.2595 864.67917 1270.7093 802.29102 1194.4785 C 739.82866 1118.1532 650.19209 1077.9512 555.96289 1077.9512 L 470.04492 1077.9512 z M 516.10352 1194.6816 L 516.2207 1194.6836 L 516.33984 1194.6836 C 597.27634 1194.6836 654.90935 1217.4406 696.58984 1266.2012 C 737.08763 1313.5781 764.40933 1391.6291 765.93164 1510.1367 L 260.99023 1510.1367 C 266.77461 1389.3081 293.67817 1312.1004 330.92773 1266.4883 C 373.10202 1214.8458 430.81471 1194.2785 516.10352 1194.6816 z "
       transform="translate(0,-288)"
       id="path5200" />
  </g>
</svg>
