<?xml version="1.0" encoding="UTF-8" standalone="no"?>
<!--?xml version="1.0" encoding="UTF-8" standalone="no"?-->

<svg
   xmlns:dc="http://purl.org/dc/elements/1.1/"
   xmlns:cc="http://creativecommons.org/ns#"
   xmlns:rdf="http://www.w3.org/1999/02/22-rdf-syntax-ns#"
   xmlns:svg="http://www.w3.org/2000/svg"
   xmlns="http://www.w3.org/2000/svg"
   xmlns:sodipodi="http://sodipodi.sourceforge.net/DTD/sodipodi-0.dtd"
   xmlns:inkscape="http://www.inkscape.org/namespaces/inkscape"
   version="1.1"
   viewBox="0 -288 1024 2048"
   id="svg6"
   sodipodi:docname="eight.svg"
   width="1024"
   height="2048"
   inkscape:version="0.92.1 r">
  <metadata
     id="metadata12">
    <rdf:rdf>
      <cc:work
         rdf:about="">
        <dc:format>image/svg+xml</dc:format>
        <dc:type
           rdf:resource="http://purl.org/dc/dcmitype/StillImage" />
        <dc:title />
      </cc:work>
    </rdf:rdf>
    <rdf:RDF>
      <cc:Work
         rdf:about="">
        <dc:format>image/svg+xml</dc:format>
        <dc:type
           rdf:resource="http://purl.org/dc/dcmitype/StillImage" />
      </cc:Work>
    </rdf:RDF>
  </metadata>
  <defs
     id="defs10" />
  <sodipodi:namedview
     pagecolor="#ffffff"
     bordercolor="#666666"
     borderopacity="1"
     objecttolerance="10"
     gridtolerance="10"
     guidetolerance="10"
     inkscape:pageopacity="0"
     inkscape:pageshadow="2"
     inkscape:window-width="1364"
     inkscape:window-height="730"
     id="namedview8"
     showgrid="false"
     inkscape:zoom="0.19643649"
     inkscape:cx="-2660.2049"
     inkscape:cy="1485.0467"
     inkscape:window-x="2560"
     inkscape:window-y="18"
     inkscape:window-maximized="0"
     inkscape:current-layer="layer3"
     inkscape:measure-start="518.14,-132.547"
     inkscape:measure-end="518.14,289.194"
     showguides="true"
     inkscape:guide-bbox="true">
    <sodipodi:guide
       position="186.77207,501.25482"
       orientation="0,1"
       id="guide895"
       inkscape:locked="false" />
    <sodipodi:guide
       position="514.5623,791.70672"
       orientation="1,0"
       id="guide172"
       inkscape:locked="false" />
    <sodipodi:guide
       position="332.87455,183.7588"
       orientation="1,0"
       id="guide174"
       inkscape:locked="false" />
    <sodipodi:guide
       position="514.5623,205.59899"
       orientation="0,1"
       id="guide176"
       inkscape:locked="false" />
    <sodipodi:guide
       position="170.20282,953.0605"
       orientation="0,1"
       id="guide178"
       inkscape:locked="false" />
  </sodipodi:namedview>
  <g
     inkscape:groupmode="layer"
     id="layer3"
     inkscape:label="trace"
     style="display:inline">
    <path
       style="color:#000000;font-style:normal;font-variant:normal;font-weight:normal;font-stretch:normal;font-size:medium;line-height:normal;font-family:sans-serif;font-variant-ligatures:normal;font-variant-position:normal;font-variant-caps:normal;font-variant-numeric:normal;font-variant-alternates:normal;font-feature-settings:normal;text-indent:0;text-align:start;text-decoration:none;text-decoration-line:none;text-decoration-style:solid;text-decoration-color:#000000;letter-spacing:normal;word-spacing:normal;text-transform:none;writing-mode:lr-tb;direction:ltr;text-orientation:mixed;dominant-baseline:auto;baseline-shift:baseline;text-anchor:start;white-space:normal;shape-padding:0;clip-rule:nonzero;display:inline;overflow:visible;visibility:visible;opacity:1;isolation:auto;mix-blend-mode:normal;color-interpolation:sRGB;color-interpolation-filters:linearRGB;solid-color:#000000;solid-opacity:1;vector-effect:none;fill:#010000;fill-opacity:1;fill-rule:evenodd;stroke:none;stroke-width:100;stroke-linecap:butt;stroke-linejoin:round;stroke-miterlimit:4;stroke-dasharray:none;stroke-dashoffset:0;stroke-opacity:1;color-rendering:auto;image-rendering:auto;shape-rendering:auto;text-rendering:auto;enable-background:accumulate"
       d="M 465.34766 498 C 405.86036 498 334.9791 527.96203 271.75977 592.44922 C 208.54043 656.93641 158.30648 758.50573 158.30664 896.97656 A 50.005 50.005 0 0 0 158.31641 897.96289 C 160.46147 1006.79 192.11115 1095.6428 251.66211 1163.5039 C 288.8965 1205.9342 335.52611 1239.7706 390.23242 1268.3809 C 330.76146 1299.9121 277.82795 1338.3186 234.83398 1385.418 C 167.47766 1459.2059 126.30664 1555.3775 126.30664 1668.8438 C 126.30664 1809.5668 172.35686 1913.8295 246.76562 1978.8145 C 321.1744 2043.7994 418.48044 2068 514.65234 2068 C 610.82425 2068 708.13225 2043.7994 782.54102 1978.8145 C 856.94955 1913.8295 903 1809.5668 903 1668.8438 C 903 1555.3208 861.60617 1459.1303 794.07617 1385.3652 C 750.99961 1338.3114 698.01235 1299.9368 638.53711 1268.4277 C 693.6432 1239.7638 740.87922 1205.8382 778.60547 1163.3008 C 838.88911 1095.3293 871 1005.8723 871 896.97656 A 50.005 50.005 0 0 0 870.99023 895.99219 C 868.27075 758.00271 818.30509 657.10131 755.87695 592.67578 C 693.44882 528.25025 623.45675 498 563.95898 498 L 465.34766 498 z M 514.30664 630 C 578.18606 630 633.19781 652.29067 673.74609 695.0332 C 714.29437 737.77574 741.80664 802.67377 741.80664 894.88281 C 741.80664 987.64441 722.19604 1050.4702 684.14062 1099.9219 C 648.65639 1146.0324 593.79231 1182.7768 514.30469 1214.2695 C 434.84005 1182.7885 380.17697 1146.1479 344.86328 1100.1211 C 306.9897 1050.7578 287.49805 987.90416 287.49805 894.88281 C 287.49805 802.61735 314.89174 737.68254 355.27148 694.9707 C 395.65123 652.25887 450.42722 630 514.30664 630 z M 514.30664 1321.7461 C 674.12469 1388.3959 771.01396 1536.1139 769.76367 1675.3809 L 769.76172 1675.6055 L 769.76172 1675.8301 C 769.76177 1818.2267 671.47162 1933 515 1933 C 358.52838 1933 259.54492 1818.0881 259.54492 1675.8301 L 259.54492 1675.6055 L 259.54297 1675.3809 C 258.29155 1535.983 354.56823 1388.377 514.30664 1321.7461 z "
       transform="translate(0,-288)"
       id="path5848-2-9-9-9-6" />
  </g>
</svg>
