<?xml version="1.0" encoding="UTF-8" standalone="no"?>
<!--?xml version="1.0" encoding="UTF-8" standalone="no"?-->

<svg
   xmlns:dc="http://purl.org/dc/elements/1.1/"
   xmlns:cc="http://creativecommons.org/ns#"
   xmlns:rdf="http://www.w3.org/1999/02/22-rdf-syntax-ns#"
   xmlns:svg="http://www.w3.org/2000/svg"
   xmlns="http://www.w3.org/2000/svg"
   xmlns:sodipodi="http://sodipodi.sourceforge.net/DTD/sodipodi-0.dtd"
   xmlns:inkscape="http://www.inkscape.org/namespaces/inkscape"
   version="1.1"
   viewBox="0 -288 1024 2048"
   id="svg6"
   sodipodi:docname="five.svg"
   width="1024"
   height="2048"
   inkscape:version="0.92.1 r">
  <metadata
     id="metadata12">
    <rdf:rdf>
      <cc:work
         rdf:about="">
        <dc:format>image/svg+xml</dc:format>
        <dc:type
           rdf:resource="http://purl.org/dc/dcmitype/StillImage" />
        <dc:title />
      </cc:work>
    </rdf:rdf>
    <rdf:RDF>
      <cc:Work
         rdf:about="">
        <dc:format>image/svg+xml</dc:format>
        <dc:type
           rdf:resource="http://purl.org/dc/dcmitype/StillImage" />
      </cc:Work>
    </rdf:RDF>
  </metadata>
  <defs
     id="defs10" />
  <sodipodi:namedview
     pagecolor="#ffffff"
     bordercolor="#666666"
     borderopacity="1"
     objecttolerance="10"
     gridtolerance="10"
     guidetolerance="10"
     inkscape:pageopacity="0"
     inkscape:pageshadow="2"
     inkscape:window-width="1364"
     inkscape:window-height="730"
     id="namedview8"
     showgrid="false"
     inkscape:zoom="1.0948114"
     inkscape:cx="159.37364"
     inkscape:cy="691.8829"
     inkscape:window-x="2560"
     inkscape:window-y="18"
     inkscape:window-maximized="0"
     inkscape:current-layer="layer3"
     inkscape:measure-start="-6.11514,1420.24"
     inkscape:measure-end="421.944,1420.24"
     showguides="true"
     inkscape:guide-bbox="true">
    <sodipodi:guide
       position="845.51112,411.80334"
       orientation="1,0"
       id="guide4527"
       inkscape:locked="false" />
    <sodipodi:guide
       position="137.32824,1138.2237"
       orientation="1,0"
       id="guide4520"
       inkscape:locked="false" />
    <sodipodi:guide
       position="505.1881,1241.5236"
       orientation="1,0"
       id="guide4524"
       inkscape:locked="false" />
    <sodipodi:guide
       position="824.20725,1164.9709"
       orientation="0,1"
       id="guide4526"
       inkscape:locked="false" />
    <sodipodi:guide
       position="150.82,1465.3865"
       orientation="0,1"
       id="guide83"
       inkscape:locked="false" />
  </sodipodi:namedview>
  <g
     inkscape:groupmode="layer"
     id="layer3"
     inkscape:label="trace"
     style="display:inline">
    <path
       style="color:#000000;font-style:normal;font-variant:normal;font-weight:normal;font-stretch:normal;font-size:medium;line-height:normal;font-family:sans-serif;font-variant-ligatures:normal;font-variant-position:normal;font-variant-caps:normal;font-variant-numeric:normal;font-variant-alternates:normal;font-feature-settings:normal;text-indent:0;text-align:start;text-decoration:none;text-decoration-line:none;text-decoration-style:solid;text-decoration-color:#000000;letter-spacing:normal;word-spacing:normal;text-transform:none;writing-mode:lr-tb;direction:ltr;text-orientation:mixed;dominant-baseline:auto;baseline-shift:baseline;text-anchor:start;white-space:normal;shape-padding:0;clip-rule:nonzero;display:inline;overflow:visible;visibility:visible;opacity:1;isolation:auto;mix-blend-mode:normal;color-interpolation:sRGB;color-interpolation-filters:linearRGB;solid-color:#000000;solid-opacity:1;vector-effect:none;fill:#000000;fill-opacity:1;fill-rule:evenodd;stroke:none;stroke-width:100;stroke-linecap:butt;stroke-linejoin:miter;stroke-miterlimit:4;stroke-dasharray:none;stroke-dashoffset:0;stroke-opacity:1;color-rendering:auto;image-rendering:auto;shape-rendering:auto;text-rendering:auto;enable-background:accumulate"
       d="M 145.0625 498 L 144.35547 1057.9297 L 142.71289 1078.5273 L 144.32617 1080.1914 L 144.32031 1085.3828 L 161.02734 1097.4043 L 236.94141 1175.6523 L 270.95703 1155.1973 C 270.95703 1155.1973 342.01812 1114.0293 423.32617 1114.0293 L 424.04688 1114.0293 L 424.76367 1114.0078 C 543.805 1110.5838 744.36523 1239.582 744.36523 1498.3965 C 744.36523 1610.4106 715.78064 1720.535 664.53516 1798.6289 C 613.37416 1876.594 544.64769 1923.1299 448.83203 1923.2832 C 358.27822 1921.1813 288.69128 1904.6892 240.33398 1888.8477 C 216.09561 1880.9073 197.28532 1873.1654 183.30469 1867.1582 C 176.31437 1864.1546 170.62724 1861.6102 165.2207 1859.3613 C 162.51744 1858.2369 159.9446 1857.1817 156.47852 1856.0176 C 153.01243 1854.8534 150.30003 1852.6699 137.32812 1852.6699 L 137.32812 1903.3652 L 137.32812 1952.6699 C 131.83527 1952.6699 128.93537 1952.2861 127.22852 1951.8711 C 129.50121 1952.8215 133.14376 1954.4078 137.32812 1956.2246 L 137.32812 2003.3652 C 132.22421 2003.3652 129.60527 2003.0655 127.91797 2002.7285 C 131.58104 2004.1685 137.80516 2006.7467 145.70508 2009.9004 C 161.60232 2016.2467 184.47608 2024.9441 213.30273 2033.5801 C 270.95605 2050.852 352.78173 2068 454.95508 2068 C 597.01949 2068 709.39477 1995.095 778.96484 1887.9453 C 848.53491 1780.7956 880.32617 1641.0884 880.32617 1494.2285 C 880.32617 1218.7638 682.43453 990.81406 440.69141 990.31055 C 365.97623 990.15492 308.98864 1004.1 270.125 1018.8398 C 261.65936 1022.0506 253.96478 1025.4118 247.00391 1028.7129 L 277.35156 648 L 880 648 L 880 598 L 880 548 L 880 498 L 145.0625 498 z "
       transform="translate(0,-288)"
       id="path5236-7-72-2-3" />
  </g>
</svg>
