<?xml version="1.0" encoding="UTF-8" standalone="no"?>
<!--?xml version="1.0" encoding="UTF-8" standalone="no"?-->

<svg
   xmlns:dc="http://purl.org/dc/elements/1.1/"
   xmlns:cc="http://creativecommons.org/ns#"
   xmlns:rdf="http://www.w3.org/1999/02/22-rdf-syntax-ns#"
   xmlns:svg="http://www.w3.org/2000/svg"
   xmlns="http://www.w3.org/2000/svg"
   xmlns:sodipodi="http://sodipodi.sourceforge.net/DTD/sodipodi-0.dtd"
   xmlns:inkscape="http://www.inkscape.org/namespaces/inkscape"
   version="1.1"
   viewBox="0 -288 1392 2048"
   id="svg6"
   sodipodi:docname="G.svg"
   width="1392"
   height="2048"
   inkscape:version="0.92.1 r">
  <metadata
     id="metadata12">
    <rdf:rdf>
      <cc:work
         rdf:about="">
        <dc:format>image/svg+xml</dc:format>
        <dc:type
           rdf:resource="http://purl.org/dc/dcmitype/StillImage" />
        <dc:title />
      </cc:work>
    </rdf:rdf>
    <rdf:RDF>
      <cc:Work
         rdf:about="">
        <dc:format>image/svg+xml</dc:format>
        <dc:type
           rdf:resource="http://purl.org/dc/dcmitype/StillImage" />
      </cc:Work>
    </rdf:RDF>
  </metadata>
  <defs
     id="defs10" />
  <sodipodi:namedview
     pagecolor="#ffffff"
     bordercolor="#666666"
     borderopacity="1"
     objecttolerance="10"
     gridtolerance="10"
     guidetolerance="10"
     inkscape:pageopacity="0"
     inkscape:pageshadow="2"
     inkscape:window-width="1364"
     inkscape:window-height="730"
     id="namedview8"
     showgrid="false"
     inkscape:zoom="0.31159779"
     inkscape:cx="-735.11474"
     inkscape:cy="-50.739215"
     inkscape:window-x="2560"
     inkscape:window-y="18"
     inkscape:window-maximized="0"
     inkscape:current-layer="layer2" />
  <g
     inkscape:groupmode="layer"
     id="layer2"
     inkscape:label="trace"
     style="display:inline">
    <path
       style="color:#000000;font-style:normal;font-variant:normal;font-weight:normal;font-stretch:normal;font-size:medium;line-height:normal;font-family:sans-serif;font-variant-ligatures:normal;font-variant-position:normal;font-variant-caps:normal;font-variant-numeric:normal;font-variant-alternates:normal;font-feature-settings:normal;text-indent:0;text-align:start;text-decoration:none;text-decoration-line:none;text-decoration-style:solid;text-decoration-color:#000000;letter-spacing:normal;word-spacing:normal;text-transform:none;writing-mode:lr-tb;direction:ltr;text-orientation:mixed;dominant-baseline:auto;baseline-shift:baseline;text-anchor:start;white-space:normal;shape-padding:0;clip-rule:nonzero;display:inline;overflow:visible;visibility:visible;opacity:1;isolation:auto;mix-blend-mode:normal;color-interpolation:sRGB;color-interpolation-filters:linearRGB;solid-color:#000000;solid-opacity:1;vector-effect:none;fill:#000000;fill-opacity:1;fill-rule:evenodd;stroke:none;stroke-width:100;stroke-linecap:butt;stroke-linejoin:miter;stroke-miterlimit:4;stroke-dasharray:none;stroke-dashoffset:0;stroke-opacity:1;color-rendering:auto;image-rendering:auto;shape-rendering:auto;text-rendering:auto;enable-background:accumulate"
       d="M 660.98828 496.21094 C 466.24194 496.21094 323.13378 591.7311 238.69141 736.32812 C 154.24903 880.92516 121.81445 1071.2543 121.81445 1276.3457 C 121.81445 1502.7222 169.16935 1697.0426 267.44336 1838.3301 C 365.71737 1979.6176 518.25621 2064.25 707.25977 2064.25 C 885.11706 2064.25 1019.2175 2011.747 1106.9629 1923.1094 C 1109.1266 1920.9237 1111.2514 1918.7131 1113.3555 1916.4883 C 1113.5325 1917.6406 1113.6647 1918.4873 1113.8418 1919.6406 C 1118.8338 1952.1601 1123.8238 1984.9615 1127.5488 2010.0762 C 1129.4113 2022.6335 1130.9598 2033.2893 1132.0137 2040.875 C 1132.5406 2044.6679 1132.9464 2047.7171 1133.1836 2049.6406 C 1133.2316 2050.0297 1133.2536 2050.5609 1133.2734 2051.0645 C 1133.2658 2050.3027 1133.2578 2049.5852 1133.2578 2048 L 1233.2578 2048 L 1233.2578 1273 L 1193.2676 1273 L 785 1273 L 785 1373 L 1093.2676 1373 L 1093.2676 1772.4395 C 1092.547 1773.8798 1091.8148 1775.3128 1091.0742 1776.7402 C 1088.284 1780.2806 1084.1349 1785.0131 1078.7441 1790.2695 C 1031.1647 1836.6634 894.7172 1918.4219 706.79297 1918.4219 C 561.4727 1918.4219 456.09847 1847.8739 380.25977 1730.8691 C 304.42106 1613.8644 263.23437 1449.5355 263.23438 1276.5605 C 263.23438 1072.8695 303.59768 904.56866 377.56641 791.45312 C 451.53513 678.33759 554.64954 616.86328 703.25977 616.86328 C 969.75878 616.86328 1081 793.37818 1081 919.11133 L 1181 919.11133 C 1181 918.85583 1180.9948 918.59937 1180.9941 918.34375 L 1237.9316 918.34375 C 1237.9316 696.68468 1046.5198 496.21094 768.70117 496.21094 L 660.98828 496.21094 z M 1133.2734 2051.0645 C 1133.2986 2053.5885 1133.3337 2052.5899 1133.2734 2051.0645 z "
       transform="translate(0,-288)"
       id="path5236-7-72-2" />
  </g>
</svg>
