<?xml version="1.0" encoding="UTF-8" standalone="no"?>
<!--?xml version="1.0" encoding="UTF-8" standalone="no"?-->

<svg
   xmlns:dc="http://purl.org/dc/elements/1.1/"
   xmlns:cc="http://creativecommons.org/ns#"
   xmlns:rdf="http://www.w3.org/1999/02/22-rdf-syntax-ns#"
   xmlns:svg="http://www.w3.org/2000/svg"
   xmlns="http://www.w3.org/2000/svg"
   xmlns:sodipodi="http://sodipodi.sourceforge.net/DTD/sodipodi-0.dtd"
   xmlns:inkscape="http://www.inkscape.org/namespaces/inkscape"
   version="1.1"
   viewBox="0 -288 944 2048"
   id="svg6"
   sodipodi:docname="g.svg"
   width="944"
   height="2048"
   inkscape:version="0.92.1 r">
  <metadata
     id="metadata12">
    <rdf:rdf>
      <cc:work
         rdf:about="">
        <dc:format>image/svg+xml</dc:format>
        <dc:type
           rdf:resource="http://purl.org/dc/dcmitype/StillImage" />
        <dc:title />
      </cc:work>
    </rdf:rdf>
    <rdf:RDF>
      <cc:Work
         rdf:about="">
        <dc:format>image/svg+xml</dc:format>
        <dc:type
           rdf:resource="http://purl.org/dc/dcmitype/StillImage" />
      </cc:Work>
    </rdf:RDF>
  </metadata>
  <defs
     id="defs10" />
  <sodipodi:namedview
     pagecolor="#ffffff"
     bordercolor="#666666"
     borderopacity="1"
     objecttolerance="10"
     gridtolerance="10"
     guidetolerance="10"
     inkscape:pageopacity="0"
     inkscape:pageshadow="2"
     inkscape:window-width="1364"
     inkscape:window-height="730"
     id="namedview8"
     showgrid="false"
     inkscape:zoom="0.4565286"
     inkscape:cx="-499.30377"
     inkscape:cy="441.63857"
     inkscape:window-x="2560"
     inkscape:window-y="18"
     inkscape:window-maximized="0"
     inkscape:current-layer="layer3"
     inkscape:measure-start="186.958,-216.373"
     inkscape:measure-end="186.958,-156.795" />
  <g
     inkscape:groupmode="layer"
     id="layer3"
     inkscape:label="trace">
    <path
       style="color:#000000;font-style:normal;font-variant:normal;font-weight:normal;font-stretch:normal;font-size:medium;line-height:normal;font-family:sans-serif;font-variant-ligatures:normal;font-variant-position:normal;font-variant-caps:normal;font-variant-numeric:normal;font-variant-alternates:normal;font-feature-settings:normal;text-indent:0;text-align:start;text-decoration:none;text-decoration-line:none;text-decoration-style:solid;text-decoration-color:#000000;letter-spacing:normal;word-spacing:normal;text-transform:none;writing-mode:lr-tb;direction:ltr;text-orientation:mixed;dominant-baseline:auto;baseline-shift:baseline;text-anchor:start;white-space:normal;shape-padding:0;clip-rule:nonzero;display:inline;overflow:visible;visibility:visible;opacity:1;isolation:auto;mix-blend-mode:normal;color-interpolation:sRGB;color-interpolation-filters:linearRGB;solid-color:#000000;solid-opacity:1;vector-effect:none;fill:#000000;fill-opacity:1;fill-rule:evenodd;stroke:none;stroke-width:100;stroke-linecap:butt;stroke-linejoin:miter;stroke-miterlimit:4;stroke-dasharray:none;stroke-dashoffset:0;stroke-opacity:1;color-rendering:auto;image-rendering:auto;shape-rendering:auto;text-rendering:auto;enable-background:accumulate"
       d="M 399.63477 881 C 297.61832 881 216.14093 944.19477 173.33203 1040.9863 C 130.52313 1137.7779 114.76172 1268.255 114.76172 1432.2773 C 114.76172 1613.7347 131.95781 1750.6965 180.96875 1849.9082 C 229.93655 1949.0326 321.30814 2005.5844 432.67773 2003.9434 C 522.95955 2003.7721 593.95909 1956.9114 646.99414 1900.9199 L 646.99414 1932.5078 C 646.99414 2027.3754 626.29442 2088.6759 593.85156 2125.3359 C 561.40871 2161.9959 513.72703 2181.2676 437.71484 2181.2676 C 298.58151 2181.2676 200.7207 2162.8906 200.7207 2162.8906 L 189.49219 2222.8027 L 172.10938 2309.5 C 172.10938 2309.5 258.31174 2326.4277 427.44531 2326.4277 L 428.44531 2326.4277 L 429.44531 2326.3887 C 522.52417 2322.6621 617.16522 2302.4731 686.1543 2232.4219 C 754.91518 2162.6023 789.57733 2051.0123 783.16016 1886.4023 L 783.16016 883 L 683.16016 883 C 683.16016 889.17942 677.97709 928.7642 670.71875 970.20898 C 625.97006 919.83053 564.36643 881 484.23242 881 L 399.63477 881 z M 439.57812 1001.998 C 572.6294 1001.998 631.3303 1090.5482 646.99414 1119.5527 L 646.99414 1728.0527 C 627.01647 1760.194 549.13364 1871.9883 432.13477 1871.9883 C 392.13059 1871.9883 366.07716 1862.3406 344.75 1845.8301 C 323.42284 1829.3195 305.83131 1803.8578 291.94336 1767.6523 C 264.16746 1695.2413 255.07813 1582.9638 255.07812 1456.7676 C 255.07814 1296.0135 267.58779 1173.9353 297.35156 1101.0059 C 327.11533 1028.0764 360.22432 1001.998 439.57812 1001.998 z "
       transform="translate(0,-288)"
       id="path5829-3-3" />
  </g>
</svg>
