<?xml version="1.0" encoding="UTF-8" standalone="no"?>
<!--?xml version="1.0" encoding="UTF-8" standalone="no"?-->

<svg
   xmlns:dc="http://purl.org/dc/elements/1.1/"
   xmlns:cc="http://creativecommons.org/ns#"
   xmlns:rdf="http://www.w3.org/1999/02/22-rdf-syntax-ns#"
   xmlns:svg="http://www.w3.org/2000/svg"
   xmlns="http://www.w3.org/2000/svg"
   xmlns:sodipodi="http://sodipodi.sourceforge.net/DTD/sodipodi-0.dtd"
   xmlns:inkscape="http://www.inkscape.org/namespaces/inkscape"
   version="1.1"
   viewBox="0 -288 1112 2048"
   id="svg6"
   sodipodi:docname="J.svg"
   width="1112"
   height="2048"
   inkscape:version="0.92.1 r">
  <metadata
     id="metadata12">
    <rdf:rdf>
      <cc:work
         rdf:about="">
        <dc:format>image/svg+xml</dc:format>
        <dc:type
           rdf:resource="http://purl.org/dc/dcmitype/StillImage" />
        <dc:title />
      </cc:work>
    </rdf:rdf>
    <rdf:RDF>
      <cc:Work
         rdf:about="">
        <dc:format>image/svg+xml</dc:format>
        <dc:type
           rdf:resource="http://purl.org/dc/dcmitype/StillImage" />
      </cc:Work>
    </rdf:RDF>
  </metadata>
  <defs
     id="defs10" />
  <sodipodi:namedview
     pagecolor="#ffffff"
     bordercolor="#666666"
     borderopacity="1"
     objecttolerance="10"
     gridtolerance="10"
     guidetolerance="10"
     inkscape:pageopacity="0"
     inkscape:pageshadow="2"
     inkscape:window-width="1364"
     inkscape:window-height="730"
     id="namedview8"
     showgrid="false"
     inkscape:zoom="0.30221943"
     inkscape:cx="-1668.5048"
     inkscape:cy="486.64179"
     inkscape:window-x="2560"
     inkscape:window-y="18"
     inkscape:window-maximized="0"
     inkscape:current-layer="layer3"
     inkscape:measure-start="120.108,85.841"
     inkscape:measure-end="120.108,197.642" />
  <g
     inkscape:groupmode="layer"
     id="layer3"
     inkscape:label="trace">
    <path
       style="color:#000000;font-style:normal;font-variant:normal;font-weight:normal;font-stretch:normal;font-size:medium;line-height:normal;font-family:sans-serif;font-variant-ligatures:normal;font-variant-position:normal;font-variant-caps:normal;font-variant-numeric:normal;font-variant-alternates:normal;font-feature-settings:normal;text-indent:0;text-align:start;text-decoration:none;text-decoration-line:none;text-decoration-style:solid;text-decoration-color:#000000;letter-spacing:normal;word-spacing:normal;text-transform:none;writing-mode:lr-tb;direction:ltr;text-orientation:mixed;dominant-baseline:auto;baseline-shift:baseline;text-anchor:start;white-space:normal;shape-padding:0;clip-rule:nonzero;display:inline;overflow:visible;visibility:visible;opacity:1;isolation:auto;mix-blend-mode:normal;color-interpolation:sRGB;color-interpolation-filters:linearRGB;solid-color:#000000;solid-opacity:1;vector-effect:none;fill:#000000;fill-opacity:1;fill-rule:evenodd;stroke:none;stroke-width:100;stroke-linecap:butt;stroke-linejoin:miter;stroke-miterlimit:4;stroke-dasharray:none;stroke-dashoffset:0;stroke-opacity:1;color-rendering:auto;image-rendering:auto;shape-rendering:auto;text-rendering:auto;enable-background:accumulate"
       d="M 806.78906 498 L 806.78906 1529.4707 C 806.78906 1697.6073 761.28765 1789.9236 697.45703 1845.0488 C 633.62642 1900.174 543.80537 1921.1037 445.5957 1923.0098 C 379.14925 1924.2993 302.32398 1905.3754 242.78125 1885.3008 C 213.00989 1875.2635 187.48708 1865.0833 169.09375 1857.3828 C 159.89708 1853.5326 152.5242 1850.3207 146.9707 1847.9219 C 144.19396 1846.7225 141.93764 1845.7475 139.63086 1844.8066 C 138.47747 1844.3362 137.38567 1843.8885 135.53711 1843.2363 C 133.68855 1842.5841 138.24649 1840.1406 118 1840.1406 L 118 1897.3066 L 118 1940.1406 C 113.11213 1940.1406 109.80687 1939.9997 107.47266 1939.7891 C 110.26199 1940.9941 113.85879 1942.5526 118 1944.3301 L 118 1997.3066 C 114.1887 1997.3066 111.54833 1997.2026 109.67773 1997.0488 C 109.80255 1997.0958 109.7812 1997.0848 109.91016 1997.1328 C 114.39328 1998.8173 121.5516 2001.6238 130.46484 2005.0195 C 148.29134 2011.811 173.42792 2021.0498 203.77734 2030.3184 C 264.47619 2048.8554 346.22162 2067.7769 436.17188 2068 L 437.23438 2068 L 438.29688 2067.959 C 530.01918 2064.2868 659.33176 2047.763 767.05469 1966.1816 C 874.59742 1884.7367 952.19068 1737.5449 942.95508 1502.9297 L 942.95508 1503.7812 L 942.91406 1501.7559 C 942.93002 1502.1495 942.9396 1502.5366 942.95508 1502.9297 L 942.95508 498 L 906.78906 498 L 842.95508 498 L 806.78906 498 z M 101.86523 1937.4004 C 101.92223 1937.4234 102.19708 1937.5431 102.26758 1937.5723 C 102.25618 1937.5623 102.27982 1937.5441 102.26562 1937.5391 C 101.33701 1937.2114 101.47937 1937.243 101.86523 1937.4004 z "
       transform="translate(0,-288)"
       id="path5829-3-3" />
  </g>
</svg>
