<?xml version="1.0" encoding="UTF-8" standalone="no"?>
<!--?xml version="1.0" encoding="UTF-8" standalone="no"?-->

<svg
   xmlns:dc="http://purl.org/dc/elements/1.1/"
   xmlns:cc="http://creativecommons.org/ns#"
   xmlns:rdf="http://www.w3.org/1999/02/22-rdf-syntax-ns#"
   xmlns:svg="http://www.w3.org/2000/svg"
   xmlns="http://www.w3.org/2000/svg"
   xmlns:sodipodi="http://sodipodi.sourceforge.net/DTD/sodipodi-0.dtd"
   xmlns:inkscape="http://www.inkscape.org/namespaces/inkscape"
   version="1.1"
   viewBox="0 -288 1224 2048"
   id="svg6"
   sodipodi:docname="K.svg"
   width="1224"
   height="2048"
   inkscape:version="0.92.1 r">
  <metadata
     id="metadata12">
    <rdf:rdf>
      <cc:work
         rdf:about="">
        <dc:format>image/svg+xml</dc:format>
        <dc:type
           rdf:resource="http://purl.org/dc/dcmitype/StillImage" />
        <dc:title />
      </cc:work>
    </rdf:rdf>
    <rdf:RDF>
      <cc:Work
         rdf:about="">
        <dc:format>image/svg+xml</dc:format>
        <dc:type
           rdf:resource="http://purl.org/dc/dcmitype/StillImage" />
      </cc:Work>
    </rdf:RDF>
  </metadata>
  <defs
     id="defs10" />
  <sodipodi:namedview
     pagecolor="#ffffff"
     bordercolor="#666666"
     borderopacity="1"
     objecttolerance="10"
     gridtolerance="10"
     guidetolerance="10"
     inkscape:pageopacity="0"
     inkscape:pageshadow="2"
     inkscape:window-width="1364"
     inkscape:window-height="730"
     id="namedview8"
     showgrid="false"
     inkscape:zoom="0.27395094"
     inkscape:cx="-2015.6404"
     inkscape:cy="425.03623"
     inkscape:window-x="2560"
     inkscape:window-y="18"
     inkscape:window-maximized="0"
     inkscape:current-layer="layer3"
     inkscape:measure-start="728.887,1159.89"
     inkscape:measure-end="796.441,1159.89" />
  <g
     inkscape:groupmode="layer"
     id="layer3"
     inkscape:label="trace"
     style="display:inline">
    <path
       style="color:#000000;font-style:normal;font-variant:normal;font-weight:normal;font-stretch:normal;font-size:medium;line-height:normal;font-family:sans-serif;font-variant-ligatures:normal;font-variant-position:normal;font-variant-caps:normal;font-variant-numeric:normal;font-variant-alternates:normal;font-feature-settings:normal;text-indent:0;text-align:start;text-decoration:none;text-decoration-line:none;text-decoration-style:solid;text-decoration-color:#000000;letter-spacing:normal;word-spacing:normal;text-transform:none;writing-mode:lr-tb;direction:ltr;text-orientation:mixed;dominant-baseline:auto;baseline-shift:baseline;text-anchor:start;white-space:normal;shape-padding:0;clip-rule:nonzero;display:inline;overflow:visible;visibility:visible;opacity:1;isolation:auto;mix-blend-mode:normal;color-interpolation:sRGB;color-interpolation-filters:linearRGB;solid-color:#000000;solid-opacity:1;vector-effect:none;fill:#000000;fill-opacity:1;fill-rule:evenodd;stroke:none;stroke-width:100;stroke-linecap:butt;stroke-linejoin:miter;stroke-miterlimit:4;stroke-dasharray:none;stroke-dashoffset:0;stroke-opacity:1;color-rendering:auto;image-rendering:auto;shape-rendering:auto;text-rendering:auto;enable-background:accumulate"
       d="M 1016.1641 465.87109 C 1016.3482 465.66032 1015.9256 466.14133 1015.2969 466.82227 C 1014.5492 467.63202 1012.8351 469.43845 1011.4414 470.91602 C 1011.9651 470.91568 1012.4211 470.89042 1012.6621 470.52539 C 1014.0114 468.48207 1014.5764 467.82203 1015.0137 467.26758 C 1015.8883 466.15867 1016.072 465.97648 1016.1641 465.87109 z M 967.00391 467.36328 C 966.95578 467.4207 966.78422 467.62803 966.56055 467.88477 C 965.66583 468.91171 963.70541 471.09824 961.08789 473.95508 C 955.85285 479.66876 947.82904 488.2755 937.5918 499.16016 C 917.11732 520.92948 887.68973 551.92685 852.36914 588.98242 C 781.72797 663.09356 687.45539 761.49846 593.17383 859.73633 C 498.89227 957.97419 404.59282 1056.055 333.85547 1129.5703 C 320.88275 1143.0525 313.74248 1150.4596 302.5 1162.1387 L 302.5 498 L 264.73047 498 L 202.5 498 L 164.73047 498 L 164.73047 2048 L 202.5 2048 L 264.73047 2048 L 302.5 2048 L 302.5 1339.2715 C 324.38856 1317.2227 351.95611 1289.3156 384.15625 1256.6191 C 408.82195 1231.5732 436.59048 1203.3156 465.50195 1173.8711 C 516.21049 1263.367 601.6439 1414.383 690.83984 1573.3535 C 758.7227 1694.3385 826.60422 1816.0641 877.38672 1908.7949 C 902.77797 1955.1603 923.91559 1994.3225 938.48438 2022.2012 C 945.76876 2036.1405 951.43727 2047.3288 954.94727 2054.6602 C 956.70227 2058.3258 957.93538 2061.1094 958.32617 2062.0625 C 958.52157 2062.5391 958.50292 2062.6141 958.11133 2061.3848 C 957.71973 2060.1554 956.14844 2059.5257 956.14844 2048 L 998.24609 2048 C 1000.5257 2052.135 1002.6886 2056.0681 1004.2793 2059.0234 C 1006.2008 2062.5934 1007.6241 2065.3253 1008.2422 2066.5664 C 1008.5512 2067.187 1008.6797 2067.5189 1008.3203 2066.6895 C 1008.1407 2066.2747 1007.8406 2065.6338 1007.2207 2063.8301 C 1006.6008 2062.0263 1004.6074 2061.7837 1004.6074 2048 L 1056.1484 2048 L 1104.6074 2048 C 1104.6074 2034.0516 1102.5469 2033.5273 1101.791 2031.3281 C 1101.0352 2029.1289 1100.5314 2027.9788 1100.082 2026.9414 C 1099.1833 2024.8667 1098.5085 2023.5016 1097.7559 2021.9902 C 1096.2506 2018.9674 1094.5221 2015.6922 1092.334 2011.627 C 1087.9577 2003.4964 1081.8502 1992.4689 1074.1055 1978.6621 C 1058.6159 1951.0485 1036.657 1912.4825 1010.3164 1866.5137 C 957.63525 1774.5761 887.47717 1653.1251 817.31836 1532.0039 C 692.31381 1316.1979 581.63182 1126.066 555.83984 1081.7676 C 593.95263 1042.8741 632.9876 1003.011 672.45312 962.66016 C 777.05733 855.70939 881.50615 748.6646 959.8418 668.11914 C 999.00962 627.84641 1031.6414 594.2076 1054.5508 570.46289 C 1066.0055 558.59054 1075.0145 549.20911 1081.2949 542.60156 C 1084.4351 539.29779 1086.8659 536.71758 1088.7656 534.66016 C 1089.7155 533.63145 1090.4885 532.7909 1091.4746 531.66211 C 1091.9677 531.09771 1092.4547 530.55849 1093.5312 529.19336 C 1094.0696 528.51079 1094.7094 527.74904 1096.1094 525.62891 C 1097.5094 523.50878 1104.4238 531.82348 1104.4238 498 L 1056.4238 498 L 1004.4238 498 C 1004.4238 486.44749 1005.2558 480.05157 1006.3691 476.25195 C 1001.1151 481.76564 994.18855 488.98718 985.50195 498 L 956.42383 498 C 956.42383 479.53586 960.53466 477.9243 961.96289 475.1582 C 963.39112 472.39211 964.19846 471.25331 964.80664 470.34961 C 966.02301 468.5422 966.43735 468.07821 966.70703 467.73828 C 966.97671 467.39835 967.05203 467.30586 967.00391 467.36328 z "
       transform="translate(0,-288)"
       id="path5236-3-9-6" />
  </g>
</svg>
