<?xml version="1.0" encoding="UTF-8" standalone="no"?>
<!--?xml version="1.0" encoding="UTF-8" standalone="no"?-->

<svg
   xmlns:dc="http://purl.org/dc/elements/1.1/"
   xmlns:cc="http://creativecommons.org/ns#"
   xmlns:rdf="http://www.w3.org/1999/02/22-rdf-syntax-ns#"
   xmlns:svg="http://www.w3.org/2000/svg"
   xmlns="http://www.w3.org/2000/svg"
   xmlns:sodipodi="http://sodipodi.sourceforge.net/DTD/sodipodi-0.dtd"
   xmlns:inkscape="http://www.inkscape.org/namespaces/inkscape"
   version="1.1"
   viewBox="0 -288 1504 2048"
   id="svg6"
   sodipodi:docname="m.svg"
   width="1504"
   height="2048"
   inkscape:version="0.92.1 r">
  <metadata
     id="metadata12">
    <rdf:rdf>
      <cc:work
         rdf:about="">
        <dc:format>image/svg+xml</dc:format>
        <dc:type
           rdf:resource="http://purl.org/dc/dcmitype/StillImage" />
        <dc:title />
      </cc:work>
    </rdf:rdf>
    <rdf:RDF>
      <cc:Work
         rdf:about="">
        <dc:format>image/svg+xml</dc:format>
        <dc:type
           rdf:resource="http://purl.org/dc/dcmitype/StillImage" />
      </cc:Work>
    </rdf:RDF>
  </metadata>
  <defs
     id="defs10" />
  <sodipodi:namedview
     pagecolor="#ffffff"
     bordercolor="#666666"
     borderopacity="1"
     objecttolerance="10"
     gridtolerance="10"
     guidetolerance="10"
     inkscape:pageopacity="0"
     inkscape:pageshadow="2"
     inkscape:window-width="1364"
     inkscape:window-height="730"
     id="namedview8"
     showgrid="false"
     inkscape:zoom="0.20795676"
     inkscape:cx="-1968.1697"
     inkscape:cy="221.42519"
     inkscape:window-x="2560"
     inkscape:window-y="18"
     inkscape:window-maximized="0"
     inkscape:current-layer="layer2"
     inkscape:measure-start="155.556,1178.32"
     inkscape:measure-end="261.789,1178.32"
     showguides="true"
     inkscape:guide-bbox="true">
    <sodipodi:guide
       position="584.0817,1100.7104"
       orientation="0,1"
       id="guide474"
       inkscape:locked="false" />
    <sodipodi:guide
       position="631.60541,1119.8732"
       orientation="0,1"
       id="guide476"
       inkscape:locked="false" />
  </sodipodi:namedview>
  <g
     inkscape:groupmode="layer"
     id="layer2"
     inkscape:label="trace">
    <path
       style="color:#000000;font-style:normal;font-variant:normal;font-weight:normal;font-stretch:normal;font-size:medium;line-height:normal;font-family:sans-serif;font-variant-ligatures:normal;font-variant-position:normal;font-variant-caps:normal;font-variant-numeric:normal;font-variant-alternates:normal;font-feature-settings:normal;text-indent:0;text-align:start;text-decoration:none;text-decoration-line:none;text-decoration-style:solid;text-decoration-color:#000000;letter-spacing:normal;word-spacing:normal;text-transform:none;writing-mode:lr-tb;direction:ltr;text-orientation:mixed;dominant-baseline:auto;baseline-shift:baseline;text-anchor:start;white-space:normal;shape-padding:0;clip-rule:nonzero;display:inline;overflow:visible;visibility:visible;opacity:1;isolation:auto;mix-blend-mode:normal;color-interpolation:sRGB;color-interpolation-filters:linearRGB;solid-color:#000000;solid-opacity:1;vector-effect:none;fill:#000000;fill-opacity:1;fill-rule:evenodd;stroke:none;stroke-width:100;stroke-linecap:butt;stroke-linejoin:miter;stroke-miterlimit:4;stroke-dasharray:none;stroke-dashoffset:0;stroke-opacity:1;color-rendering:auto;image-rendering:auto;shape-rendering:auto;text-rendering:auto;enable-background:accumulate"
       d="M 264.64648 876.50781 C 264.64328 876.52021 264.63993 876.56621 264.63867 876.64062 C 264.63376 876.93039 264.64826 877.6685 264.69531 878.50781 C 264.67602 877.32027 264.65853 876.46114 264.64648 876.50781 z M 264.69531 878.50781 C 264.7119 879.52878 264.73047 880.6805 264.73047 883 L 164.73047 883 L 164.73047 1088.3242 L 164.73047 1897.0508 L 164.73047 2048 L 202.5 2048 L 264.73047 2048 L 302.5 2048 L 302.5 1079.5566 C 323.63398 1055.7424 382.6757 1003 491.20508 1003 C 590.89639 1003 624.02384 1036.257 646.50977 1083.3125 C 668.99569 1130.368 671.50586 1197.4808 671.50586 1250.0469 L 671.50586 2047.9902 L 707.88086 2047.9902 L 707.88086 2048.0098 L 807.88086 2048.0098 L 807.88086 1175.334 C 807.88086 1164.752 807.44095 1147.5986 804.63477 1126.4961 C 850.90283 1073.2225 929.88409 1003 1024.8027 1003 C 1124.4961 1003 1157.6288 1036.2586 1180.1172 1083.3145 C 1202.6056 1130.3703 1205.1152 1197.4824 1205.1152 1250.0469 L 1205.1152 2048 L 1291.4766 2048 L 1341.4766 2048.0547 L 1342.4336 1179.0039 L 1342.4336 1178.9766 C 1342.4336 1152.7315 1339.7604 1085.3925 1305.0312 1017.3848 C 1270.3041 949.37709 1194.2866 883 1075.7441 883 L 1016.8477 883 C 900.68099 883 816.47429 948.9196 765.2832 1006.0781 C 728.40932 942.26879 654.02196 883 541.17383 883 L 482.2832 883 C 398.89522 883 331.70038 916.18648 281.39453 955.40039 C 280.15033 949.97234 278.83095 944.25348 277.64453 939.04883 C 273.72975 921.87529 270.21691 906.24819 267.75586 894.74609 C 266.52533 888.99505 265.55345 884.23844 264.97852 881.17773 C 264.83097 880.3923 264.74493 879.39279 264.69531 878.50781 z "
       transform="translate(0,-288)"
       id="path5236-3-9-6" />
  </g>
</svg>
