<?xml version="1.0" encoding="UTF-8" standalone="no"?>
<!--?xml version="1.0" encoding="UTF-8" standalone="no"?-->

<svg
   xmlns:dc="http://purl.org/dc/elements/1.1/"
   xmlns:cc="http://creativecommons.org/ns#"
   xmlns:rdf="http://www.w3.org/1999/02/22-rdf-syntax-ns#"
   xmlns:svg="http://www.w3.org/2000/svg"
   xmlns="http://www.w3.org/2000/svg"
   xmlns:sodipodi="http://sodipodi.sourceforge.net/DTD/sodipodi-0.dtd"
   xmlns:inkscape="http://www.inkscape.org/namespaces/inkscape"
   version="1.1"
   viewBox="0 -288 1040 2048"
   id="svg6"
   sodipodi:docname="ograve.svg"
   width="1040"
   height="2048"
   inkscape:version="0.92.1 r">
  <metadata
     id="metadata12">
    <rdf:rdf>
      <cc:work
         rdf:about="">
        <dc:format>image/svg+xml</dc:format>
        <dc:type
           rdf:resource="http://purl.org/dc/dcmitype/StillImage" />
        <dc:title />
      </cc:work>
    </rdf:rdf>
    <rdf:RDF>
      <cc:Work
         rdf:about="">
        <dc:format>image/svg+xml</dc:format>
        <dc:type
           rdf:resource="http://purl.org/dc/dcmitype/StillImage" />
      </cc:Work>
    </rdf:RDF>
  </metadata>
  <defs
     id="defs10" />
  <sodipodi:namedview
     pagecolor="#ffffff"
     bordercolor="#666666"
     borderopacity="1"
     objecttolerance="10"
     gridtolerance="10"
     guidetolerance="10"
     inkscape:pageopacity="0"
     inkscape:pageshadow="2"
     inkscape:window-width="1364"
     inkscape:window-height="730"
     id="namedview8"
     showgrid="false"
     inkscape:zoom="0.59608082"
     inkscape:cx="-494.61832"
     inkscape:cy="164.85647"
     inkscape:window-x="2560"
     inkscape:window-y="18"
     inkscape:window-maximized="0"
     inkscape:current-layer="layer3"
     showguides="true"
     inkscape:guide-bbox="true"
     inkscape:measure-start="1224.51,1052.2"
     inkscape:measure-end="1228.18,1052.2">
    <sodipodi:guide
       position="1065.0344,577.42827"
       orientation="0,1"
       id="guide44"
       inkscape:locked="false" />
    <sodipodi:guide
       position="513.26958,889.05623"
       orientation="1,0"
       id="guide61"
       inkscape:locked="false" />
    <sodipodi:guide
       position="286.55127,7.1488883"
       orientation="1,0"
       id="guide48"
       inkscape:locked="false" />
    <sodipodi:guide
       position="852.93056,248.53885"
       orientation="0,1"
       id="guide50"
       inkscape:locked="false" />
    <sodipodi:guide
       position="860.39849,906.5684"
       orientation="0,1"
       id="guide52"
       inkscape:locked="false" />
    <sodipodi:guide
       position="748.77593,1110.8423"
       orientation="1,0"
       id="guide54"
       inkscape:locked="false" />
  </sodipodi:namedview>
  <g
     inkscape:groupmode="layer"
     id="layer3"
     inkscape:label="trace">
    <path
       style="color:#000000;font-style:normal;font-variant:normal;font-weight:normal;font-stretch:normal;font-size:medium;line-height:normal;font-family:sans-serif;font-variant-ligatures:normal;font-variant-position:normal;font-variant-caps:normal;font-variant-numeric:normal;font-variant-alternates:normal;font-feature-settings:normal;text-indent:0;text-align:start;text-decoration:none;text-decoration-line:none;text-decoration-style:solid;text-decoration-color:#000000;letter-spacing:normal;word-spacing:normal;text-transform:none;writing-mode:lr-tb;direction:ltr;text-orientation:mixed;dominant-baseline:auto;baseline-shift:baseline;text-anchor:start;white-space:normal;shape-padding:0;clip-rule:nonzero;display:inline;overflow:visible;visibility:visible;opacity:1;isolation:auto;mix-blend-mode:normal;color-interpolation:sRGB;color-interpolation-filters:linearRGB;solid-color:#000000;solid-opacity:1;vector-effect:none;fill:#000000;fill-opacity:1;fill-rule:evenodd;stroke:none;stroke-width:100;stroke-linecap:butt;stroke-linejoin:miter;stroke-miterlimit:4;stroke-dasharray:none;stroke-dashoffset:0;stroke-opacity:1;color-rendering:auto;image-rendering:auto;shape-rendering:auto;text-rendering:auto;enable-background:accumulate"
       d="M 378.19336 381.49805 L 360.33594 397.58594 L 357.39258 394.93359 L 332.03906 423.07617 L 303.89648 448.42969 L 306.54883 451.37305 L 290.46094 469.23047 L 461.18359 623.02539 L 614.99609 793.76758 L 632.85547 777.67773 L 635.79883 780.33008 L 661.15039 752.1875 L 689.29297 726.83594 L 686.64062 723.89258 L 702.73047 706.0332 L 531.98828 552.2207 L 378.19336 381.49805 z M 470.02539 1078 L 469.67773 1078.0039 C 357.89435 1079.5611 264.90583 1132.7245 208.00586 1220.791 C 151.10589 1308.8576 126.08594 1427.6532 126.08594 1569.5625 C 126.08594 1711.9464 153.61732 1833.9674 217.82227 1924.1445 C 282.02721 2014.3217 385.23855 2067.3079 512.44727 2068 C 640.21783 2068.6952 743.98525 2015.6305 808.34961 1925.127 C 872.71397 1834.6234 900.27148 1712.0478 900.27148 1569.5625 C 900.27148 1427.6232 875.28561 1308.2546 818.39453 1219.8281 C 761.50345 1131.4015 668.08717 1078 555.94336 1078 L 470.02539 1078 z M 514.07031 1198 L 514.1875 1198 L 514.30664 1198 C 600.95841 1198 657.39098 1218.6666 698.6543 1270.9219 C 739.91761 1323.1771 767.84961 1417.0268 767.84961 1569.6777 C 767.84961 1721.7505 739.44693 1819.4596 697.08789 1875.5508 C 654.72885 1931.6419 598.39755 1954.5313 514.30664 1954.5312 C 428.94852 1954.5313 372.10615 1931.5249 329.60156 1875.4766 C 287.09697 1819.4283 258.75 1721.7726 258.75 1569.6777 C 258.75 1417.9815 288.62214 1324.3229 331.46484 1271.3828 C 374.30755 1218.4428 431.85504 1197.6101 514.07031 1198 z "
       transform="translate(0,-288)"
       id="path5546-1-6-6-0-9-4" />
  </g>
</svg>
