<?xml version="1.0" encoding="UTF-8" standalone="no"?>
<!--?xml version="1.0" encoding="UTF-8" standalone="no"?-->

<svg
   xmlns:dc="http://purl.org/dc/elements/1.1/"
   xmlns:cc="http://creativecommons.org/ns#"
   xmlns:rdf="http://www.w3.org/1999/02/22-rdf-syntax-ns#"
   xmlns:svg="http://www.w3.org/2000/svg"
   xmlns="http://www.w3.org/2000/svg"
   xmlns:sodipodi="http://sodipodi.sourceforge.net/DTD/sodipodi-0.dtd"
   xmlns:inkscape="http://www.inkscape.org/namespaces/inkscape"
   version="1.1"
   viewBox="0 -288 1016 2048"
   id="svg6"
   sodipodi:docname="p.svg"
   width="1016"
   height="2048"
   inkscape:version="0.92.1 r">
  <metadata
     id="metadata12">
    <rdf:rdf>
      <cc:work
         rdf:about="">
        <dc:format>image/svg+xml</dc:format>
        <dc:type
           rdf:resource="http://purl.org/dc/dcmitype/StillImage" />
        <dc:title />
      </cc:work>
    </rdf:rdf>
    <rdf:RDF>
      <cc:Work
         rdf:about="">
        <dc:format>image/svg+xml</dc:format>
        <dc:type
           rdf:resource="http://purl.org/dc/dcmitype/StillImage" />
      </cc:Work>
    </rdf:RDF>
  </metadata>
  <defs
     id="defs10" />
  <sodipodi:namedview
     pagecolor="#ffffff"
     bordercolor="#666666"
     borderopacity="1"
     objecttolerance="10"
     gridtolerance="10"
     guidetolerance="10"
     inkscape:pageopacity="0"
     inkscape:pageshadow="2"
     inkscape:window-width="1364"
     inkscape:window-height="730"
     id="namedview8"
     showgrid="false"
     inkscape:zoom="0.54030434"
     inkscape:cx="-388.53485"
     inkscape:cy="411.69144"
     inkscape:window-x="2560"
     inkscape:window-y="18"
     inkscape:window-maximized="0"
     inkscape:current-layer="layer2" />
  <g
     inkscape:groupmode="layer"
     id="layer2"
     inkscape:label="trace">
    <path
       style="color:#000000;font-style:normal;font-variant:normal;font-weight:normal;font-stretch:normal;font-size:medium;line-height:normal;font-family:sans-serif;font-variant-ligatures:normal;font-variant-position:normal;font-variant-caps:normal;font-variant-numeric:normal;font-variant-alternates:normal;font-feature-settings:normal;text-indent:0;text-align:start;text-decoration:none;text-decoration-line:none;text-decoration-style:solid;text-decoration-color:#000000;letter-spacing:normal;word-spacing:normal;text-transform:none;writing-mode:lr-tb;direction:ltr;text-orientation:mixed;dominant-baseline:auto;baseline-shift:baseline;text-anchor:start;white-space:normal;shape-padding:0;clip-rule:nonzero;display:inline;overflow:visible;visibility:visible;opacity:1;isolation:auto;mix-blend-mode:normal;color-interpolation:sRGB;color-interpolation-filters:linearRGB;solid-color:#000000;solid-opacity:1;vector-effect:none;fill:#000000;fill-opacity:0.99708174;fill-rule:evenodd;stroke:none;stroke-width:100;stroke-linecap:butt;stroke-linejoin:miter;stroke-miterlimit:4;stroke-dasharray:none;stroke-dashoffset:0;stroke-opacity:1;color-rendering:auto;image-rendering:auto;shape-rendering:auto;text-rendering:auto;enable-background:accumulate"
       d="M 261.05664 879.26953 C 260.96087 879.35784 260.91797 880.49009 260.91797 883 L 160.91797 883 L 160.91602 1180.459 L 160.91602 2333 L 199.33789 2333 L 260.91602 2333 L 299.33789 2333 L 299.33789 1978.2324 C 361.08598 2025.5602 442.72916 2068 537.0293 2068 C 658.40415 2068 753.21658 1987.8872 809.25781 1874.5859 C 865.29905 1761.2846 891 1612.1235 891 1446.6406 C 891 1286.4436 872.89593 1152.8157 828.9082 1052.7461 C 784.92047 952.67646 704.38357 883.42578 601.6875 883.42578 L 602.13867 883.42773 L 507.33594 882.57422 L 507.11133 882.57422 C 475.51106 882.57422 450.14953 893.70985 422.12305 907.73047 C 394.09657 921.75108 364.73472 940.1496 335.2207 960.67773 C 317.535 972.97882 299.85685 986.03115 282.65234 999.32617 C 279.86317 984.99221 277.02758 970.45295 274.42383 956.92578 C 270.44161 936.2371 266.86924 917.31682 264.35938 903.07812 C 262.47697 892.39912 261.4817 879.99109 261.10156 879.29492 C 261.08572 879.26592 261.07032 879.25692 261.05664 879.26953 z M 541.76172 1002.9688 C 603.93127 1002.9314 642.24947 1011.5626 677.30469 1063.7441 C 713.49071 1117.6089 743.3457 1232.6919 743.3457 1445.7441 C 743.3457 1592.1037 724.15574 1720.4298 684.70703 1805.7793 C 645.27659 1891.0893 595.80688 1932.4334 510.76367 1932.9961 C 443.7844 1932.9549 391.85306 1911.8267 354.75586 1888.2871 C 333.53425 1871.3935 314.73305 1854.1014 299.33789 1838.8809 L 299.33789 1180.459 L 299.33789 1114.4004 C 306.29596 1108.5514 313.44638 1102.6457 320.76367 1096.7324 C 333.54636 1086.9072 349.09881 1075.6722 366.79297 1064.3438 C 416.7491 1032.3601 481.95614 1003 535.23047 1003 L 535.45117 1003 L 535.66992 1002.998 C 537.72572 1002.98 539.75625 1002.97 541.76172 1002.9688 z "
       transform="translate(0,-288)"
       id="path5236-72-2" />
  </g>
</svg>
