<?xml version="1.0" encoding="UTF-8" standalone="no"?>
<!--?xml version="1.0" encoding="UTF-8" standalone="no"?-->

<svg
   xmlns:dc="http://purl.org/dc/elements/1.1/"
   xmlns:cc="http://creativecommons.org/ns#"
   xmlns:rdf="http://www.w3.org/1999/02/22-rdf-syntax-ns#"
   xmlns:svg="http://www.w3.org/2000/svg"
   xmlns="http://www.w3.org/2000/svg"
   xmlns:sodipodi="http://sodipodi.sourceforge.net/DTD/sodipodi-0.dtd"
   xmlns:inkscape="http://www.inkscape.org/namespaces/inkscape"
   version="1.1"
   viewBox="0 -288 1448 2048"
   id="svg6"
   sodipodi:docname="Q.svg"
   width="1448"
   height="2048"
   inkscape:version="0.92.1 r">
  <metadata
     id="metadata12">
    <rdf:rdf>
      <cc:work
         rdf:about="">
        <dc:format>image/svg+xml</dc:format>
        <dc:type
           rdf:resource="http://purl.org/dc/dcmitype/StillImage" />
        <dc:title />
      </cc:work>
    </rdf:rdf>
    <rdf:RDF>
      <cc:Work
         rdf:about="">
        <dc:format>image/svg+xml</dc:format>
        <dc:type
           rdf:resource="http://purl.org/dc/dcmitype/StillImage" />
      </cc:Work>
    </rdf:RDF>
  </metadata>
  <defs
     id="defs10" />
  <sodipodi:namedview
     pagecolor="#ffffff"
     bordercolor="#666666"
     borderopacity="1"
     objecttolerance="10"
     gridtolerance="10"
     guidetolerance="10"
     inkscape:pageopacity="0"
     inkscape:pageshadow="2"
     inkscape:window-width="1364"
     inkscape:window-height="730"
     id="namedview8"
     showgrid="false"
     inkscape:zoom="0.13890157"
     inkscape:cx="-2191.572"
     inkscape:cy="-1403.041"
     inkscape:window-x="2560"
     inkscape:window-y="18"
     inkscape:window-maximized="0"
     inkscape:current-layer="layer3"
     showguides="true"
     inkscape:guide-bbox="true"
     inkscape:measure-start="1179.37,-369.024"
     inkscape:measure-end="1179.37,-60.2488">
    <sodipodi:guide
       position="1149.8305,670.37288"
       orientation="1,0"
       id="guide969"
       inkscape:locked="false" />
    <sodipodi:guide
       position="373.24241,1370.8989"
       orientation="1,0"
       id="guide4555"
       inkscape:locked="false" />
    <sodipodi:guide
       position="347.07582,1457.8992"
       orientation="1,0"
       id="guide4557"
       inkscape:locked="false" />
    <sodipodi:guide
       position="201.10513,1171.3809"
       orientation="0,1"
       id="guide4559"
       inkscape:locked="false" />
    <sodipodi:guide
       position="720.3631,1549.8653"
       orientation="1,0"
       id="guide4561"
       inkscape:locked="false" />
  </sodipodi:namedview>
  <g
     inkscape:groupmode="layer"
     id="layer3"
     inkscape:label="trace"
     style="display:inline">
    <path
       style="color:#000000;font-style:normal;font-variant:normal;font-weight:normal;font-stretch:normal;font-size:medium;line-height:normal;font-family:sans-serif;font-variant-ligatures:normal;font-variant-position:normal;font-variant-caps:normal;font-variant-numeric:normal;font-variant-alternates:normal;font-feature-settings:normal;text-indent:0;text-align:start;text-decoration:none;text-decoration-line:none;text-decoration-style:solid;text-decoration-color:#000000;letter-spacing:normal;word-spacing:normal;text-transform:none;writing-mode:lr-tb;direction:ltr;text-orientation:mixed;dominant-baseline:auto;baseline-shift:baseline;text-anchor:start;white-space:normal;shape-padding:0;clip-rule:nonzero;display:inline;overflow:visible;visibility:visible;opacity:1;isolation:auto;mix-blend-mode:normal;color-interpolation:sRGB;color-interpolation-filters:linearRGB;solid-color:#000000;solid-opacity:1;vector-effect:none;fill:#000000;fill-opacity:1;fill-rule:evenodd;stroke:none;stroke-width:100;stroke-linecap:butt;stroke-linejoin:miter;stroke-miterlimit:4;stroke-dasharray:none;stroke-dashoffset:0;stroke-opacity:1;color-rendering:auto;image-rendering:auto;shape-rendering:auto;text-rendering:auto;enable-background:accumulate"
       d="M 676.98828 496.21094 C 507.01333 496.21094 365.76094 591.2182 272.63672 734.26172 C 179.51279 877.30479 129.81477 1068.6183 129.81445 1276.3438 L 129.81445 1276.3457 C 129.81474 1501.1631 178.60595 1694.3239 276.90234 1835.1777 C 375.19763 1976.0299 526.09343 2061.5351 711.00586 2064.1836 C 714.08693 2064.2286 717.1703 2064.25 720.25781 2064.25 C 727.07745 2064.25 733.84595 2064.1241 740.57422 2063.9023 C 764.32114 2116.1311 793.65267 2160.6199 827.89062 2197.9082 C 927.35636 2306.2355 1064.6577 2348 1204.627 2348 L 1204.627 2320 L 1204.627 2220 C 1082.0716 2220 976.68808 2192.1105 900.25 2114.9102 C 882.07084 2096.5497 865.19609 2075.0216 850.02734 2049.8262 C 978.90333 2020.1005 1085.4294 1945.6904 1161.207 1838.6738 C 1261.1381 1697.5467 1310.7012 1503.0261 1310.7012 1276.3457 C 1310.7012 1068.6257 1261.0441 877.31287 1167.9375 734.26562 C 1074.8309 591.21873 933.56979 496.21094 763.5293 496.21094 L 676.98828 496.21094 z M 720.97852 643.03906 C 878.5763 643.03906 983.81113 713.53735 1057.6504 829.62305 C 1131.4896 945.70874 1168.5605 1109.6263 1168.5605 1282.9004 C 1168.5605 1476.8649 1130.0537 1635.0238 1060.5801 1743.7402 C 997.95584 1841.7383 912.89978 1901.784 797.26562 1920.0703 C 782.01085 1861.5902 772.59821 1791.8647 770.71484 1708.7578 C 770.71445 1708.7403 770.71329 1708.7226 770.71289 1708.7051 C 770.66144 1706.4305 770.62413 1704.1306 770.58398 1701.8359 C 770.56384 1700.6857 770.53682 1699.5474 770.51953 1698.3926 C 770.46783 1694.9345 770.42833 1691.4548 770.40234 1687.9512 C 770.40233 1687.9492 770.40236 1687.9473 770.40234 1687.9453 C 770.37636 1684.4397 770.36328 1680.9109 770.36328 1677.3594 L 670.36328 1677.3594 C 670.36328 1681.1583 670.37784 1684.9372 670.40625 1688.6973 C 670.40626 1688.6986 670.40624 1688.6999 670.40625 1688.7012 C 670.43466 1692.4599 670.47652 1696.2 670.5332 1699.9199 C 671.80631 1784.043 680.24641 1858.9942 695.10352 1925.3828 C 558.28589 1919.1512 460.13427 1861.4365 388.89258 1759.0039 C 313.3572 1650.3978 271.23437 1487.2742 271.23438 1283.9004 C 271.23438 1110.1437 308.60785 946.02354 382.85156 829.81445 C 457.09527 713.60536 562.91015 643.03906 720.97852 643.03906 z "
       transform="translate(0,-288)"
       id="path144" />
  </g>
  <g
     inkscape:groupmode="layer"
     id="layer4"
     inkscape:label="trace2" />
  <g
     inkscape:groupmode="layer"
     id="layer5"
     inkscape:label="trace3" />
</svg>
