<?xml version="1.0" encoding="UTF-8" standalone="no"?>
<!--?xml version="1.0" encoding="UTF-8" standalone="no"?-->

<svg
   xmlns:dc="http://purl.org/dc/elements/1.1/"
   xmlns:cc="http://creativecommons.org/ns#"
   xmlns:rdf="http://www.w3.org/1999/02/22-rdf-syntax-ns#"
   xmlns:svg="http://www.w3.org/2000/svg"
   xmlns="http://www.w3.org/2000/svg"
   xmlns:sodipodi="http://sodipodi.sourceforge.net/DTD/sodipodi-0.dtd"
   xmlns:inkscape="http://www.inkscape.org/namespaces/inkscape"
   version="1.1"
   viewBox="0 -288 1016 2048"
   id="svg6"
   sodipodi:docname="q.svg"
   width="1016"
   height="2048"
   inkscape:version="0.92.1 r">
  <metadata
     id="metadata12">
    <rdf:rdf>
      <cc:work
         rdf:about="">
        <dc:format>image/svg+xml</dc:format>
        <dc:type
           rdf:resource="http://purl.org/dc/dcmitype/StillImage" />
        <dc:title />
      </cc:work>
    </rdf:rdf>
    <rdf:RDF>
      <cc:Work
         rdf:about="">
        <dc:format>image/svg+xml</dc:format>
        <dc:type
           rdf:resource="http://purl.org/dc/dcmitype/StillImage" />
      </cc:Work>
    </rdf:RDF>
  </metadata>
  <defs
     id="defs10" />
  <sodipodi:namedview
     pagecolor="#ffffff"
     bordercolor="#666666"
     borderopacity="1"
     objecttolerance="10"
     gridtolerance="10"
     guidetolerance="10"
     inkscape:pageopacity="0"
     inkscape:pageshadow="2"
     inkscape:window-width="1364"
     inkscape:window-height="730"
     id="namedview8"
     showgrid="false"
     inkscape:zoom="0.45652858"
     inkscape:cx="-269.24376"
     inkscape:cy="91.682273"
     inkscape:window-x="2560"
     inkscape:window-y="18"
     inkscape:window-maximized="0"
     inkscape:current-layer="layer2" />
  <g
     inkscape:groupmode="layer"
     id="layer2"
     inkscape:label="trace">
    <path
       style="color:#000000;font-style:normal;font-variant:normal;font-weight:normal;font-stretch:normal;font-size:medium;line-height:normal;font-family:sans-serif;font-variant-ligatures:normal;font-variant-position:normal;font-variant-caps:normal;font-variant-numeric:normal;font-variant-alternates:normal;font-feature-settings:normal;text-indent:0;text-align:start;text-decoration:none;text-decoration-line:none;text-decoration-style:solid;text-decoration-color:#000000;letter-spacing:normal;word-spacing:normal;text-transform:none;writing-mode:lr-tb;direction:ltr;text-orientation:mixed;dominant-baseline:auto;baseline-shift:baseline;text-anchor:start;white-space:normal;shape-padding:0;clip-rule:nonzero;display:inline;overflow:visible;visibility:visible;opacity:1;isolation:auto;mix-blend-mode:normal;color-interpolation:sRGB;color-interpolation-filters:linearRGB;solid-color:#000000;solid-opacity:1;vector-effect:none;fill:#000000;fill-opacity:0.99708174;fill-rule:evenodd;stroke:none;stroke-width:100;stroke-linecap:butt;stroke-linejoin:miter;stroke-miterlimit:4;stroke-dasharray:none;stroke-dashoffset:0;stroke-opacity:1;color-rendering:auto;image-rendering:auto;shape-rendering:auto;text-rendering:auto;enable-background:accumulate"
       d="M 433.63477 881 C 327.77557 881 242.71954 953.62182 192.03906 1058.5176 C 141.35858 1163.4133 116.76172 1303.9591 116.76172 1468.2773 C 116.76172 1648.6572 151.77525 1795.4969 217.32617 1901 C 282.79539 2006.3716 383.99194 2069.6177 498.54297 2067.9863 C 589.9399 2067.8694 663.17423 2023.6407 718.05859 1971.4434 L 718.05859 2190.8926 L 718.05859 2333 L 756.48047 2333 L 818.05859 2333 L 856.48047 2333 L 856.48047 2190.8926 L 856.48047 1249.4395 L 856.56445 1249.4395 C 856.56445 1247.959 856.53056 1246.5434 856.48047 1245.1562 L 856.48047 1076.4961 L 856.48047 883 L 856.47461 883 C 856.47337 882.82261 856.47838 882.6815 856.47656 882.5 L 806.48047 883 L 756.48047 883 L 756.48047 883.38867 C 756.46507 881.95443 756.44255 881.32509 756.40234 881.36914 C 756.27761 881.50589 755.98955 887.72858 755.26367 893.60156 C 754.29583 901.4322 752.83653 912.12081 751.06641 924.4707 C 747.89216 946.61686 743.70691 974.20325 739.41797 1001.9023 C 686.35732 937.18352 613.02692 881 518.23242 881 L 433.63477 881 z M 491.57812 1001.998 C 624.99306 1001.998 699.68022 1118.82 718.05859 1151.6895 L 718.05859 1807.6348 C 691.45443 1840.3693 605.95559 1933 490.13477 1933 C 411.07452 1933 360.63654 1894.4268 319.92188 1813.541 C 279.2072 1732.6553 257.07812 1610.0319 257.07812 1466.7676 C 257.07812 1294.0838 281.43761 1172.6869 321.66211 1101.0059 C 361.8866 1029.3248 410.62806 1001.998 491.57812 1001.998 z "
       transform="translate(0,-288)"
       id="path5236-72-2" />
  </g>
</svg>
