<?xml version="1.0" encoding="UTF-8" standalone="no"?>
<!--?xml version="1.0" encoding="UTF-8" standalone="no"?-->

<svg
   xmlns:dc="http://purl.org/dc/elements/1.1/"
   xmlns:cc="http://creativecommons.org/ns#"
   xmlns:rdf="http://www.w3.org/1999/02/22-rdf-syntax-ns#"
   xmlns:svg="http://www.w3.org/2000/svg"
   xmlns="http://www.w3.org/2000/svg"
   xmlns:sodipodi="http://sodipodi.sourceforge.net/DTD/sodipodi-0.dtd"
   xmlns:inkscape="http://www.inkscape.org/namespaces/inkscape"
   version="1.1"
   viewBox="0 -288 928 2048"
   id="svg6"
   sodipodi:docname="question.svg"
   width="928"
   height="2048"
   inkscape:version="0.92.1 r">
  <metadata
     id="metadata12">
    <rdf:rdf>
      <cc:work
         rdf:about="">
        <dc:format>image/svg+xml</dc:format>
        <dc:type
           rdf:resource="http://purl.org/dc/dcmitype/StillImage" />
        <dc:title />
      </cc:work>
    </rdf:rdf>
    <rdf:RDF>
      <cc:Work
         rdf:about="">
        <dc:format>image/svg+xml</dc:format>
        <dc:type
           rdf:resource="http://purl.org/dc/dcmitype/StillImage" />
      </cc:Work>
    </rdf:RDF>
  </metadata>
  <defs
     id="defs10" />
  <sodipodi:namedview
     pagecolor="#ffffff"
     bordercolor="#666666"
     borderopacity="1"
     objecttolerance="10"
     gridtolerance="10"
     guidetolerance="10"
     inkscape:pageopacity="0"
     inkscape:pageshadow="2"
     inkscape:window-width="1364"
     inkscape:window-height="730"
     id="namedview8"
     showgrid="false"
     inkscape:zoom="0.27300211"
     inkscape:cx="-1623.4793"
     inkscape:cy="-414.95934"
     inkscape:window-x="2560"
     inkscape:window-y="18"
     inkscape:window-maximized="0"
     inkscape:current-layer="layer2"
     inkscape:measure-start="113.256,1340.1"
     inkscape:measure-end="113.256,1431.14"
     showguides="false"
     inkscape:guide-bbox="true">
    <sodipodi:guide
       position="427.10985,489.7839"
       orientation="1,0"
       id="guide132"
       inkscape:locked="false" />
    <sodipodi:guide
       position="465.17694,293.51362"
       orientation="1,0"
       id="guide134"
       inkscape:locked="false" />
  </sodipodi:namedview>
  <g
     inkscape:groupmode="layer"
     id="layer2"
     inkscape:label="trace"
     style="display:inline">
    <path
       style="color:#000000;font-style:normal;font-variant:normal;font-weight:normal;font-stretch:normal;font-size:medium;line-height:normal;font-family:sans-serif;font-variant-ligatures:normal;font-variant-position:normal;font-variant-caps:normal;font-variant-numeric:normal;font-variant-alternates:normal;font-feature-settings:normal;text-indent:0;text-align:start;text-decoration:none;text-decoration-line:none;text-decoration-style:solid;text-decoration-color:#000000;letter-spacing:normal;word-spacing:normal;text-transform:none;writing-mode:lr-tb;direction:ltr;text-orientation:mixed;dominant-baseline:auto;baseline-shift:baseline;text-anchor:start;white-space:normal;shape-padding:0;clip-rule:nonzero;display:inline;overflow:visible;visibility:visible;opacity:1;isolation:auto;mix-blend-mode:normal;color-interpolation:sRGB;color-interpolation-filters:linearRGB;solid-color:#000000;solid-opacity:1;vector-effect:none;fill:#000000;fill-opacity:1;fill-rule:evenodd;stroke:none;stroke-width:100;stroke-linecap:butt;stroke-linejoin:miter;stroke-miterlimit:4;stroke-dasharray:none;stroke-dashoffset:0;stroke-opacity:1;color-rendering:auto;image-rendering:auto;shape-rendering:auto;text-rendering:auto;enable-background:accumulate"
       d="M 397.45508 498 C 304.87016 498 227.78235 546.18792 172.36914 591.78906 C 144.66254 614.58963 122.13689 637.32113 105.8418 654.98828 C 97.694247 663.82186 91.097925 671.40761 86.345703 676.95898 C 81.593481 682.51036 75.074467 689.37865 80.462891 683.99023 L 112.22656 715.75391 C 111.69268 716.50015 110.88898 717.62055 110.50977 718.14648 C 111.02811 717.59156 111.49581 717.08623 112.53711 716.06445 L 151.17383 754.70117 C 151.249 754.626 151.29754 754.57567 151.37109 754.50195 L 182.51172 787.48633 C 191.91933 778.60471 189.61355 779.41058 191.08789 777.37695 C 192.56223 775.34332 194.05319 773.23553 195.86914 770.71484 C 199.50105 765.67346 204.32141 759.11814 210.5293 751.375 C 222.94507 735.88872 240.82177 715.82266 263.85547 696.19531 C 309.92287 656.94061 374.69168 620 462.09961 620 C 520.37289 620 575.51311 631.816 614.4668 664.64648 C 653.42048 697.47697 684.01172 754.12332 684.01172 867.89258 C 684.01172 998.89969 619.4023 1070.5453 542.03516 1164.0684 C 464.66801 1257.5914 377.10938 1372.189 377.10938 1558.2168 L 477.10938 1558.2168 C 477.10938 1558.0588 477.11315 1557.904 477.11328 1557.7461 L 514.38672 1557.7461 C 514.38672 1387.9612 578.63594 1318.4176 654.88672 1232.8965 C 731.1375 1147.3753 820.74414 1045.2056 820.74414 857.33398 L 820.74414 856.85156 L 820.73438 856.36719 C 818.4791 739.6381 781.52019 648.61817 722.96484 587.80469 C 664.4095 526.99121 586.02457 498 508.81445 498 L 397.45508 498 z M 377.70312 1783.5059 L 377.70312 2048 L 477.70312 2048 L 515.4707 2048 L 515.4707 1783.5059 L 477.70312 1783.5059 L 377.70312 1783.5059 z "
       transform="translate(0,-288)"
       id="path5546-0-3-9" />
  </g>
</svg>
