<?xml version="1.0" encoding="UTF-8" standalone="no"?>
<!--?xml version="1.0" encoding="UTF-8" standalone="no"?-->

<svg
   xmlns:dc="http://purl.org/dc/elements/1.1/"
   xmlns:cc="http://creativecommons.org/ns#"
   xmlns:rdf="http://www.w3.org/1999/02/22-rdf-syntax-ns#"
   xmlns:svg="http://www.w3.org/2000/svg"
   xmlns="http://www.w3.org/2000/svg"
   xmlns:sodipodi="http://sodipodi.sourceforge.net/DTD/sodipodi-0.dtd"
   xmlns:inkscape="http://www.inkscape.org/namespaces/inkscape"
   version="1.1"
   viewBox="0 -288 1264 2048"
   id="svg6"
   sodipodi:docname="R.svg"
   width="1264"
   height="2048"
   inkscape:version="0.92.1 r">
  <metadata
     id="metadata12">
    <rdf:rdf>
      <cc:work
         rdf:about="">
        <dc:format>image/svg+xml</dc:format>
        <dc:type
           rdf:resource="http://purl.org/dc/dcmitype/StillImage" />
        <dc:title />
      </cc:work>
    </rdf:rdf>
    <rdf:RDF>
      <cc:Work
         rdf:about="">
        <dc:format>image/svg+xml</dc:format>
        <dc:type
           rdf:resource="http://purl.org/dc/dcmitype/StillImage" />
      </cc:Work>
    </rdf:RDF>
  </metadata>
  <defs
     id="defs10" />
  <sodipodi:namedview
     pagecolor="#ffffff"
     bordercolor="#666666"
     borderopacity="1"
     objecttolerance="10"
     gridtolerance="10"
     guidetolerance="10"
     inkscape:pageopacity="0"
     inkscape:pageshadow="2"
     inkscape:window-width="1364"
     inkscape:window-height="730"
     id="namedview8"
     showgrid="false"
     inkscape:zoom="0.29802868"
     inkscape:cx="-192.23864"
     inkscape:cy="1040.6564"
     inkscape:window-x="2560"
     inkscape:window-y="18"
     inkscape:window-maximized="0"
     inkscape:current-layer="layer3"
     showguides="true"
     inkscape:guide-bbox="true"
     inkscape:measure-start="1047.03,3.8185"
     inkscape:measure-end="1138.68,3.8185">
    <sodipodi:guide
       position="751.69046,763.96296"
       orientation="1,0"
       id="guide844"
       inkscape:locked="false" />
  </sodipodi:namedview>
  <g
     inkscape:groupmode="layer"
     id="layer3"
     inkscape:label="traces"
     style="display:inline">
    <path
       style="color:#000000;font-style:normal;font-variant:normal;font-weight:normal;font-stretch:normal;font-size:medium;line-height:normal;font-family:sans-serif;font-variant-ligatures:normal;font-variant-position:normal;font-variant-caps:normal;font-variant-numeric:normal;font-variant-alternates:normal;font-feature-settings:normal;text-indent:0;text-align:start;text-decoration:none;text-decoration-line:none;text-decoration-style:solid;text-decoration-color:#000000;letter-spacing:normal;word-spacing:normal;text-transform:none;writing-mode:lr-tb;direction:ltr;text-orientation:mixed;dominant-baseline:auto;baseline-shift:baseline;text-anchor:start;white-space:normal;shape-padding:0;clip-rule:nonzero;display:inline;overflow:visible;visibility:visible;opacity:1;isolation:auto;mix-blend-mode:normal;color-interpolation:sRGB;color-interpolation-filters:linearRGB;solid-color:#000000;solid-opacity:1;vector-effect:none;fill:#000000;fill-opacity:1;fill-rule:evenodd;stroke:none;stroke-width:100;stroke-linecap:butt;stroke-linejoin:miter;stroke-miterlimit:4;stroke-dasharray:none;stroke-dashoffset:0;stroke-opacity:1;color-rendering:auto;image-rendering:auto;shape-rendering:auto;text-rendering:auto;enable-background:accumulate"
       d="M 162.13281 495.24023 L 162.13281 2048 L 202.12305 2048 L 262.13281 2048 L 302.12305 2048 L 302.12305 1278 L 585.49609 1278 C 625.08406 1349.1247 706.42326 1495.4397 789.14062 1645.4043 C 846.41048 1749.2331 903.679 1853.6191 946.51953 1932.957 C 967.93979 1972.626 985.77185 2006.0732 998.05469 2029.7773 C 1004.1961 2041.6294 1008.976 2051.1104 1011.9141 2057.2383 C 1012.4764 2058.4112 1012.9028 2059.3353 1013.3184 2060.2363 C 1012.7376 2058.6589 1012.1484 2055.5439 1012.1484 2048 L 1064.0332 2048 C 1066.91 2053.0747 1069.3985 2057.5068 1071.1953 2060.7871 C 1072.8176 2063.7488 1073.9967 2065.9977 1074.4004 2066.8047 C 1074.6022 2067.2082 1074.6289 2067.3375 1074.166 2066.252 C 1073.9346 2065.7092 1073.5765 2064.9184 1072.9297 2062.9531 C 1072.2886 2061.0054 1070.5507 2059.6498 1070.5195 2048 L 1112.1484 2048 C 1112.1484 2047.8923 1112.1428 2047.819 1112.1426 2047.7129 L 1170.5137 2047.7129 C 1170.5137 2035.6037 1168.6827 2034.0129 1167.918 2031.6895 C 1167.1532 2029.366 1166.6196 2028.1207 1166.1543 2027.0293 C 1165.2236 2024.8465 1164.551 2023.4997 1163.832 2022.0625 C 1162.394 2019.1881 1160.8427 2016.2941 1158.9004 2012.748 C 1155.0157 2005.656 1149.6886 1996.2542 1142.9453 1984.5273 C 1129.4587 1961.0736 1110.3978 1928.5078 1087.5371 1889.7422 C 1041.8157 1812.211 980.95572 1709.9958 920.0957 1608.1113 C 840.99956 1475.6981 765.38333 1349.6525 719.69336 1273.5547 C 807.83507 1265.121 895.06616 1243.5796 969.40039 1199.8691 C 1071.0767 1140.0808 1144.7168 1032.2827 1144.7168 880.96875 C 1144.7168 774.28354 1111.9041 675.40849 1039.6816 604.80078 C 967.45927 534.19307 859.45224 495.24023 721.29688 495.24023 L 162.13281 495.24023 z M 1013.3184 2060.2363 C 1013.514 2060.7678 1013.7042 2061.1631 1013.875 2061.4395 C 1013.7147 2061.0853 1013.5189 2060.6711 1013.3184 2060.2363 z M 1013.875 2061.4395 C 1014.2503 2062.2688 1014.5668 2062.9828 1014.6855 2063.2676 C 1014.8229 2063.5968 1014.7725 2063.5756 1014.3477 2062.293 C 1014.2502 2061.9987 1014.0768 2061.7659 1013.875 2061.4395 z M 302.12305 633 L 719.2207 633 C 820.93061 633 886.53797 666.2346 929.4043 711.04492 C 972.27062 755.85524 992.20313 814.8383 992.20312 867.28906 L 992.20312 867.75781 L 992.21289 868.22852 C 994.34112 981.27465 950.60507 1046.5828 883.53906 1091.9688 C 816.47306 1137.3547 722.27716 1158 634.65625 1158 L 634.58203 1158 L 606.86719 1158 L 302.12305 1158 L 302.12305 633 z "
       transform="translate(0,-288)"
       id="path5236-7-72-2" />
  </g>
  <g
     inkscape:groupmode="layer"
     id="layer4"
     inkscape:label="traces 2"
     style="display:inline" />
</svg>
