<?xml version="1.0" encoding="UTF-8" standalone="no"?>
<!--?xml version="1.0" encoding="UTF-8" standalone="no"?-->

<svg
   xmlns:dc="http://purl.org/dc/elements/1.1/"
   xmlns:cc="http://creativecommons.org/ns#"
   xmlns:rdf="http://www.w3.org/1999/02/22-rdf-syntax-ns#"
   xmlns:svg="http://www.w3.org/2000/svg"
   xmlns="http://www.w3.org/2000/svg"
   xmlns:sodipodi="http://sodipodi.sourceforge.net/DTD/sodipodi-0.dtd"
   xmlns:inkscape="http://www.inkscape.org/namespaces/inkscape"
   version="1.1"
   viewBox="0 -288 944 2048"
   id="svg6"
   sodipodi:docname="s.svg"
   width="944"
   height="2048"
   inkscape:version="0.92.1 r">
  <metadata
     id="metadata12">
    <rdf:rdf>
      <cc:work
         rdf:about="">
        <dc:format>image/svg+xml</dc:format>
        <dc:type
           rdf:resource="http://purl.org/dc/dcmitype/StillImage" />
        <dc:title />
      </cc:work>
    </rdf:rdf>
    <rdf:RDF>
      <cc:Work
         rdf:about="">
        <dc:format>image/svg+xml</dc:format>
        <dc:type
           rdf:resource="http://purl.org/dc/dcmitype/StillImage" />
      </cc:Work>
    </rdf:RDF>
  </metadata>
  <defs
     id="defs10" />
  <sodipodi:namedview
     pagecolor="#ffffff"
     bordercolor="#666666"
     borderopacity="1"
     objecttolerance="10"
     gridtolerance="10"
     guidetolerance="10"
     inkscape:pageopacity="0"
     inkscape:pageshadow="2"
     inkscape:window-width="1364"
     inkscape:window-height="730"
     id="namedview8"
     showgrid="false"
     inkscape:zoom="0.16140723"
     inkscape:cx="287.75205"
     inkscape:cy="722.42279"
     inkscape:window-x="2560"
     inkscape:window-y="18"
     inkscape:window-maximized="0"
     inkscape:current-layer="layer3"
     showguides="true"
     inkscape:guide-bbox="true"
     inkscape:measure-start="481.627,77.6468"
     inkscape:measure-end="481.627,47.1864">
    <sodipodi:guide
       position="438.23729,503.32203"
       orientation="1,0"
       id="guide5650"
       inkscape:locked="false" />
    <sodipodi:guide
       position="525.01695,507.66102"
       orientation="1,0"
       id="guide5652"
       inkscape:locked="false" />
  </sodipodi:namedview>
  <g
     inkscape:groupmode="layer"
     id="layer3"
     inkscape:label="trace2"
     style="display:inline">
    <path
       style="color:#000000;font-style:normal;font-variant:normal;font-weight:normal;font-stretch:normal;font-size:medium;line-height:normal;font-family:sans-serif;font-variant-ligatures:normal;font-variant-position:normal;font-variant-caps:normal;font-variant-numeric:normal;font-variant-alternates:normal;font-feature-settings:normal;text-indent:0;text-align:start;text-decoration:none;text-decoration-line:none;text-decoration-style:solid;text-decoration-color:#000000;letter-spacing:normal;word-spacing:normal;text-transform:none;writing-mode:lr-tb;direction:ltr;text-orientation:mixed;dominant-baseline:auto;baseline-shift:baseline;text-anchor:start;white-space:normal;shape-padding:0;clip-rule:nonzero;display:inline;overflow:visible;visibility:visible;opacity:1;isolation:auto;mix-blend-mode:normal;color-interpolation:sRGB;color-interpolation-filters:linearRGB;solid-color:#000000;solid-opacity:1;vector-effect:none;fill:#010000;fill-opacity:1;fill-rule:evenodd;stroke:none;stroke-width:100;stroke-linecap:butt;stroke-linejoin:miter;stroke-miterlimit:4;stroke-dasharray:none;stroke-dashoffset:0;stroke-opacity:1;color-rendering:auto;image-rendering:auto;shape-rendering:auto;text-rendering:auto;enable-background:accumulate"
       d="M 486.50586 882.96094 L 404.40234 883.03906 C 351.42165 883.03906 288.78569 904.39133 232.91797 950.93164 C 177.05025 997.47195 131.27915 1073.235 131.2793 1172.3848 C 131.2793 1271.4542 163.31104 1347.3004 218.86914 1397.2383 C 273.06049 1445.9476 342.79326 1470.3076 419.50977 1491.123 C 421.04903 1491.5867 422.59914 1492.0696 424.13086 1492.5215 L 509.86133 1517.8145 L 528.63477 1523.3848 C 630.26764 1556.731 682.00586 1633.8646 682.00586 1733.1289 C 682.00586 1820.4917 649.29963 1862.3577 608.94336 1890.2773 C 568.58709 1918.197 515.56314 1927.4336 491.16406 1927.4336 C 379.87052 1927.4336 333.41823 1888.6632 304.44922 1840.9785 C 275.4802 1793.2938 269.21875 1730.5519 269.21875 1691.957 L 222.57422 1691.957 L 169.21875 1691.957 L 122.57422 1691.957 C 122.57422 1763.5219 137.34495 1854.2797 191.32031 1931.7305 C 245.29567 2009.181 341.95582 2068 480.89844 2068 C 481.49782 2068 482.36267 2068.0003 483.32812 2067.9863 C 558.50207 2067.5073 639.83668 2048.3038 703.99219 1993.2109 C 768.16147 1938.1063 809.66016 1848.0037 809.66016 1725.6055 C 809.66016 1650.8747 788.38065 1584.7474 745.88867 1534.3164 C 703.56146 1484.0809 642.8539 1451.0073 570.30273 1431.4375 L 570.73828 1431.5664 L 569.45898 1431.2051 C 569.74175 1431.2808 570.02033 1431.3613 570.30273 1431.4375 L 555.46094 1427.0352 C 550.04072 1425.2904 544.54589 1423.6524 538.9668 1422.1406 L 539.16602 1422.1992 L 539.06641 1422.1719 L 538.9668 1422.1406 L 538.31836 1421.9492 L 452.45703 1396.4785 A 50.005 50.005 0 0 0 451.17773 1396.1172 C 449.89037 1395.7722 448.64979 1395.4206 447.37305 1395.0742 C 397.82981 1380.0004 349.79654 1358.558 316.1875 1327.7559 C 281.43551 1295.9063 259.03711 1256.3412 259.03711 1187.9316 C 259.03711 1079.5773 329.24988 1003.1653 450.27734 1003.0137 C 537.1547 1004.7106 582.55259 1035.1215 612.96484 1076.7891 C 643.44318 1118.5471 656.40746 1176.3339 656.68555 1227.3203 L 701.10742 1227.0781 C 701.1079 1227.1553 701.11091 1227.2314 701.11133 1227.3086 L 801.10938 1226.7637 C 800.04498 1031.9237 657.20814 882.79927 486.50586 882.96094 z "
       transform="translate(0,-288)"
       id="path5848-2-90-2-3" />
  </g>
  <g
     inkscape:groupmode="layer"
     id="layer4"
     inkscape:label="trace3"
     style="display:inline" />
</svg>
