<?xml version="1.0" encoding="UTF-8" standalone="no"?>
<!--?xml version="1.0" encoding="UTF-8" standalone="no"?-->

<svg
   xmlns:dc="http://purl.org/dc/elements/1.1/"
   xmlns:cc="http://creativecommons.org/ns#"
   xmlns:rdf="http://www.w3.org/1999/02/22-rdf-syntax-ns#"
   xmlns:svg="http://www.w3.org/2000/svg"
   xmlns="http://www.w3.org/2000/svg"
   xmlns:sodipodi="http://sodipodi.sourceforge.net/DTD/sodipodi-0.dtd"
   xmlns:inkscape="http://www.inkscape.org/namespaces/inkscape"
   version="1.1"
   viewBox="0 -288 1040 2048"
   id="svg6"
   sodipodi:docname="six.svg"
   width="1040"
   height="2048"
   inkscape:version="0.92.1 r">
  <metadata
     id="metadata12">
    <rdf:rdf>
      <cc:work
         rdf:about="">
        <dc:format>image/svg+xml</dc:format>
        <dc:type
           rdf:resource="http://purl.org/dc/dcmitype/StillImage" />
        <dc:title />
      </cc:work>
    </rdf:rdf>
    <rdf:RDF>
      <cc:Work
         rdf:about="">
        <dc:format>image/svg+xml</dc:format>
        <dc:type
           rdf:resource="http://purl.org/dc/dcmitype/StillImage" />
      </cc:Work>
    </rdf:RDF>
  </metadata>
  <defs
     id="defs10" />
  <sodipodi:namedview
     pagecolor="#ffffff"
     bordercolor="#666666"
     borderopacity="1"
     objecttolerance="10"
     gridtolerance="10"
     guidetolerance="10"
     inkscape:pageopacity="0"
     inkscape:pageshadow="2"
     inkscape:window-width="1364"
     inkscape:window-height="730"
     id="namedview8"
     showgrid="false"
     inkscape:zoom="0.35767853"
     inkscape:cx="-496.12778"
     inkscape:cy="606.61017"
     inkscape:window-x="2560"
     inkscape:window-y="18"
     inkscape:window-maximized="0"
     inkscape:current-layer="layer3"
     showguides="true"
     inkscape:guide-bbox="true"
     inkscape:measure-start="513.27,-28.08"
     inkscape:measure-end="513.27,158.652">
    <sodipodi:guide
       position="1065.0344,577.42827"
       orientation="0,1"
       id="guide44"
       inkscape:locked="false" />
    <sodipodi:guide
       position="513.26958,889.05623"
       orientation="1,0"
       id="guide61"
       inkscape:locked="false" />
    <sodipodi:guide
       position="286.55127,7.1488883"
       orientation="1,0"
       id="guide48"
       inkscape:locked="false" />
    <sodipodi:guide
       position="852.93056,248.53885"
       orientation="0,1"
       id="guide50"
       inkscape:locked="false" />
    <sodipodi:guide
       position="860.39849,906.5684"
       orientation="0,1"
       id="guide52"
       inkscape:locked="false" />
    <sodipodi:guide
       position="748.77593,1110.8423"
       orientation="1,0"
       id="guide54"
       inkscape:locked="false" />
  </sodipodi:namedview>
  <g
     inkscape:groupmode="layer"
     id="layer3"
     inkscape:label="trace">
    <path
       style="color:#000000;font-style:normal;font-variant:normal;font-weight:normal;font-stretch:normal;font-size:medium;line-height:normal;font-family:sans-serif;font-variant-ligatures:normal;font-variant-position:normal;font-variant-caps:normal;font-variant-numeric:normal;font-variant-alternates:normal;font-feature-settings:normal;text-indent:0;text-align:start;text-decoration:none;text-decoration-line:none;text-decoration-style:solid;text-decoration-color:#000000;letter-spacing:normal;word-spacing:normal;text-transform:none;writing-mode:lr-tb;direction:ltr;text-orientation:mixed;dominant-baseline:auto;baseline-shift:baseline;text-anchor:start;white-space:normal;shape-padding:0;clip-rule:nonzero;display:inline;overflow:visible;visibility:visible;opacity:1;isolation:auto;mix-blend-mode:normal;color-interpolation:sRGB;color-interpolation-filters:linearRGB;solid-color:#000000;solid-opacity:1;vector-effect:none;fill:#000000;fill-opacity:1;fill-rule:evenodd;stroke:none;stroke-width:100;stroke-linecap:butt;stroke-linejoin:miter;stroke-miterlimit:4;stroke-dasharray:none;stroke-dashoffset:0;stroke-opacity:1;color-rendering:auto;image-rendering:auto;shape-rendering:auto;text-rendering:auto;enable-background:accumulate"
       d="M 576 473.00977 C 575.9531 473.08237 575.01081 474.4854 573.67969 476.38086 C 571.01745 480.17177 566.61278 486.29923 560.99805 494.16406 C 560.17759 495.31332 559.14452 496.77452 558.27148 498 L 513.89844 498 C 513.89844 489.12898 514.52083 484.22392 515.32812 481.36719 C 512.86085 485.01535 510.20811 488.91387 506.0957 494.94141 C 495.50989 510.45698 480.17314 533.08757 461.80664 561.73633 C 425.07365 619.03385 376.11166 700.54064 327.07031 799.86914 C 228.98761 998.52614 129.9082 1268.7083 129.9082 1561.3066 C 129.9082 1709.3856 156.90123 1833.2493 220.46289 1924.1777 C 284.02455 2015.1062 386.67002 2067.2771 512.4375 2068 C 638.77763 2068.7263 741.99698 2016.471 805.71484 1925.2031 C 869.43271 1833.9353 896.44727 1709.4906 896.44727 1561.3066 C 896.44727 1413.757 872.47368 1288.1558 817.51172 1194.25 C 762.54976 1100.3442 670.13351 1040.584 557.45898 1040.584 L 472.85938 1040.584 C 437.02987 1040.584 397.82813 1050.4194 359.13477 1070.7012 C 389.76614 990.06827 424.84643 914.59401 460.15234 847.1875 C 509.89938 752.20983 559.76066 673.15768 597.14258 617.48438 C 615.83354 589.64772 631.37976 567.68558 642.38672 552.26758 C 647.8902 544.55858 652.22169 538.54201 655.51562 533.85156 C 657.1626 531.50634 658.50432 529.58455 659.99609 527.27539 C 660.74198 526.12081 661.495 524.97903 662.74805 522.68555 C 663.37457 521.53881 664.13438 520.1741 665.27734 517.41797 C 666.42031 514.66183 669.16406 512.27083 669.16406 498 L 613.89844 498 L 569.16406 498 C 569.16406 483.84558 571.85983 481.62996 572.9043 479.11133 C 573.94877 476.5927 574.5611 475.52731 574.99219 474.73828 C 575.85436 473.16023 576.02345 472.97346 576 473.00977 z M 519.99023 474.38281 C 520.03143 474.31461 519.22113 475.57205 518.39062 476.83789 C 518.54197 476.72569 518.77507 476.64977 518.86523 476.46875 C 519.73511 474.72234 519.96435 474.4257 519.99023 474.38281 z M 514.29492 1141.8301 C 594.23797 1141.8301 649.28647 1172.6056 692.28516 1238.1348 C 735.28385 1303.6639 762.04492 1407.7835 762.04492 1545.3066 C 762.04492 1704.9113 734.0846 1803.5402 693.19531 1858.0547 C 652.30602 1912.5692 598.08606 1933 514.29492 1933 C 429.26128 1933 373.83403 1912.3331 332.35156 1857.793 C 290.86909 1803.2529 262.55469 1704.8321 262.55469 1545.3066 C 262.55469 1453.94 275.27846 1362.7395 296.08008 1274.5332 C 322.74318 1228.8732 354.21933 1196.8955 384.13867 1175.666 C 416.51373 1156.3122 459.15535 1141.8301 514.29492 1141.8301 z "
       transform="translate(0,-288)"
       id="path5546-1-6-6-0-9-4" />
  </g>
</svg>
