<?xml version="1.0" encoding="UTF-8" standalone="no"?>
<!--?xml version="1.0" encoding="UTF-8" standalone="no"?-->

<svg
   xmlns:dc="http://purl.org/dc/elements/1.1/"
   xmlns:cc="http://creativecommons.org/ns#"
   xmlns:rdf="http://www.w3.org/1999/02/22-rdf-syntax-ns#"
   xmlns:svg="http://www.w3.org/2000/svg"
   xmlns="http://www.w3.org/2000/svg"
   xmlns:sodipodi="http://sodipodi.sourceforge.net/DTD/sodipodi-0.dtd"
   xmlns:inkscape="http://www.inkscape.org/namespaces/inkscape"
   version="1.1"
   viewBox="0 -288 1024 2048"
   id="svg6"
   sodipodi:docname="three.svg"
   width="1024"
   height="2048"
   inkscape:version="0.92.1 r">
  <metadata
     id="metadata12">
    <rdf:rdf>
      <cc:work
         rdf:about="">
        <dc:format>image/svg+xml</dc:format>
        <dc:type
           rdf:resource="http://purl.org/dc/dcmitype/StillImage" />
        <dc:title />
      </cc:work>
    </rdf:rdf>
    <rdf:RDF>
      <cc:Work
         rdf:about="">
        <dc:format>image/svg+xml</dc:format>
        <dc:type
           rdf:resource="http://purl.org/dc/dcmitype/StillImage" />
      </cc:Work>
    </rdf:RDF>
  </metadata>
  <defs
     id="defs10" />
  <sodipodi:namedview
     pagecolor="#ffffff"
     bordercolor="#666666"
     borderopacity="1"
     objecttolerance="10"
     gridtolerance="10"
     guidetolerance="10"
     inkscape:pageopacity="0"
     inkscape:pageshadow="2"
     inkscape:window-width="1364"
     inkscape:window-height="730"
     id="namedview8"
     showgrid="false"
     inkscape:zoom="0.38004909"
     inkscape:cx="952.11886"
     inkscape:cy="682.76918"
     inkscape:window-x="2560"
     inkscape:window-y="18"
     inkscape:window-maximized="0"
     inkscape:current-layer="layer3"
     inkscape:measure-start="148.403,112.827"
     inkscape:measure-end="148.403,207.358"
     showguides="true"
     inkscape:guide-bbox="true">
    <sodipodi:guide
       position="845.51112,411.80334"
       orientation="1,0"
       id="guide4527"
       inkscape:locked="false" />
    <sodipodi:guide
       position="137.32824,1138.2237"
       orientation="1,0"
       id="guide4520"
       inkscape:locked="false" />
    <sodipodi:guide
       position="505.1881,1241.5236"
       orientation="1,0"
       id="guide4524"
       inkscape:locked="false" />
    <sodipodi:guide
       position="2685.0253,1156.4501"
       orientation="0,1"
       id="guide4526"
       inkscape:locked="false" />
  </sodipodi:namedview>
  <g
     inkscape:groupmode="layer"
     id="layer3"
     inkscape:label="trace"
     style="display:inline">
    <path
       style="color:#000000;font-style:normal;font-variant:normal;font-weight:normal;font-stretch:normal;font-size:medium;line-height:normal;font-family:sans-serif;font-variant-ligatures:normal;font-variant-position:normal;font-variant-caps:normal;font-variant-numeric:normal;font-variant-alternates:normal;font-feature-settings:normal;text-indent:0;text-align:start;text-decoration:none;text-decoration-line:none;text-decoration-style:solid;text-decoration-color:#000000;letter-spacing:normal;word-spacing:normal;text-transform:none;writing-mode:lr-tb;direction:ltr;text-orientation:mixed;dominant-baseline:auto;baseline-shift:baseline;text-anchor:start;white-space:normal;shape-padding:0;clip-rule:nonzero;display:inline;overflow:visible;visibility:visible;opacity:1;isolation:auto;mix-blend-mode:normal;color-interpolation:sRGB;color-interpolation-filters:linearRGB;solid-color:#000000;solid-opacity:1;vector-effect:none;fill:#000000;fill-opacity:1;fill-rule:evenodd;stroke:none;stroke-width:100;stroke-linecap:butt;stroke-linejoin:miter;stroke-miterlimit:4;stroke-dasharray:none;stroke-dashoffset:0;stroke-opacity:1;color-rendering:auto;image-rendering:auto;shape-rendering:auto;text-rendering:auto;enable-background:accumulate"
       d="M 156.75586 498 L 156.75586 533 L 156.22852 533 L 156.22852 633 L 705.73242 633 L 340 1099.8984 L 340 1111.2988 L 340 1202.4023 L 340 1215.5566 L 390 1215.5566 C 492.98711 1215.5566 583.02335 1234.3041 644.77344 1283.8965 C 706.52353 1333.4889 748.90625 1416.2279 748.90625 1571.0977 C 748.90625 1683.9453 723.24194 1774.7787 678.00781 1834.6113 C 632.86025 1894.3295 569.77158 1927.8601 473.44922 1927.9883 C 387.37995 1925.9428 313.93405 1898.1051 260.16406 1870.0566 C 233.21855 1856.0008 211.3946 1842.0195 195.13867 1831.1797 C 187.01071 1825.7598 180.39259 1821.1852 174.31055 1817.2344 C 171.26953 1815.259 168.47835 1813.4568 164.54883 1811.3398 C 160.6193 1809.2229 160.17193 1804.0137 137.32812 1804.0137 L 137.32812 1858.6699 L 137.32812 1904.0137 C 128.88059 1904.0137 124.67368 1903.2973 121.88867 1902.4707 C 125.56479 1904.8976 130.76068 1908.4202 137.32812 1912.8145 L 137.32812 1958.6699 C 129.86201 1958.6699 126.01027 1958.1406 123.31445 1957.5117 C 127.56364 1960.0604 133.52199 1963.7467 141.60938 1968.6074 C 159.41988 1979.3119 184.91097 1993.9923 216.61523 2008.6953 C 280.02376 2038.1013 368.92592 2068 474.95508 2068 C 607.91761 2068 717.0902 2011.9234 787.44336 1920.1602 C 857.79652 1828.3969 891.13477 1704.5385 891.13477 1566.2812 C 891.13477 1396.5322 831.70165 1274.2297 736.43945 1200.7246 C 662.64283 1143.7825 571.53486 1116.1422 475.14258 1106.5391 L 872.12305 638.34375 L 872.12305 498 L 156.75586 498 z "
       transform="translate(0,-288)"
       id="path5236-7-72-2-3" />
  </g>
</svg>
