<?xml version="1.0" encoding="UTF-8" standalone="no"?>
<!--?xml version="1.0" encoding="UTF-8" standalone="no"?-->

<svg
   xmlns:dc="http://purl.org/dc/elements/1.1/"
   xmlns:cc="http://creativecommons.org/ns#"
   xmlns:rdf="http://www.w3.org/1999/02/22-rdf-syntax-ns#"
   xmlns:svg="http://www.w3.org/2000/svg"
   xmlns="http://www.w3.org/2000/svg"
   xmlns:sodipodi="http://sodipodi.sourceforge.net/DTD/sodipodi-0.dtd"
   xmlns:inkscape="http://www.inkscape.org/namespaces/inkscape"
   version="1.1"
   viewBox="0 -288 1016 2048"
   id="svg6"
   sodipodi:docname="two.svg"
   width="1016"
   height="2048"
   inkscape:version="0.92.1 r">
  <metadata
     id="metadata12">
    <rdf:rdf>
      <cc:work
         rdf:about="">
        <dc:format>image/svg+xml</dc:format>
        <dc:type
           rdf:resource="http://purl.org/dc/dcmitype/StillImage" />
        <dc:title />
      </cc:work>
    </rdf:rdf>
    <rdf:RDF>
      <cc:Work
         rdf:about="">
        <dc:format>image/svg+xml</dc:format>
        <dc:type
           rdf:resource="http://purl.org/dc/dcmitype/StillImage" />
      </cc:Work>
    </rdf:RDF>
  </metadata>
  <defs
     id="defs10" />
  <sodipodi:namedview
     pagecolor="#ffffff"
     bordercolor="#666666"
     borderopacity="1"
     objecttolerance="10"
     gridtolerance="10"
     guidetolerance="10"
     inkscape:pageopacity="0"
     inkscape:pageshadow="2"
     inkscape:window-width="1364"
     inkscape:window-height="730"
     id="namedview8"
     showgrid="false"
     inkscape:zoom="0.22747369"
     inkscape:cx="-2115.0533"
     inkscape:cy="670.8299"
     inkscape:window-x="2560"
     inkscape:window-y="18"
     inkscape:window-maximized="0"
     inkscape:current-layer="layer2"
     inkscape:measure-start="919.738,1129.44"
     inkscape:measure-end="1103.69,1114.72" />
  <g
     inkscape:groupmode="layer"
     id="layer2"
     inkscape:label="trace"
     style="display:inline">
    <path
       style="color:#000000;font-style:normal;font-variant:normal;font-weight:normal;font-stretch:normal;font-size:medium;line-height:normal;font-family:sans-serif;font-variant-ligatures:normal;font-variant-position:normal;font-variant-caps:normal;font-variant-numeric:normal;font-variant-alternates:normal;font-feature-settings:normal;text-indent:0;text-align:start;text-decoration:none;text-decoration-line:none;text-decoration-style:solid;text-decoration-color:#000000;letter-spacing:normal;word-spacing:normal;text-transform:none;writing-mode:lr-tb;direction:ltr;text-orientation:mixed;dominant-baseline:auto;baseline-shift:baseline;text-anchor:start;white-space:normal;shape-padding:0;clip-rule:nonzero;display:inline;overflow:visible;visibility:visible;opacity:1;isolation:auto;mix-blend-mode:normal;color-interpolation:sRGB;color-interpolation-filters:linearRGB;solid-color:#000000;solid-opacity:1;vector-effect:none;fill:#000000;fill-opacity:1;fill-rule:evenodd;stroke:none;stroke-width:100;stroke-linecap:butt;stroke-linejoin:miter;stroke-miterlimit:4;stroke-dasharray:none;stroke-dashoffset:0;stroke-opacity:1;color-rendering:auto;image-rendering:auto;shape-rendering:auto;text-rendering:auto;enable-background:accumulate"
       d="M 451.45508 498 C 293.52906 498 148.89648 661.91305 148.89648 903.11133 L 192.95312 903.11133 L 248.89648 903.11133 L 292.95312 903.11133 C 292.95312 839.34584 309.17888 763.68925 344.62695 708.97461 C 380.07503 654.25997 429.20635 618 516.09961 618 C 574.11587 618 629.16089 630.141 668.25195 663.46484 C 707.34302 696.78869 738.01172 754.12332 738.01172 867.89258 C 738.01172 1074.5583 625.69224 1209.3008 525.77539 1339.2109 C 521.21554 1345.1396 516.64345 1351.023 512.06641 1356.8711 C 444.51153 1440.7103 357.48056 1540.0066 284.62891 1644.832 C 206.85957 1756.7334 142.58008 1875.5115 142.58008 1998 L 142.58008 2048 L 871.44336 2048 L 871.44336 2008 L 871.47266 2008 L 871.47266 1908 L 306.25586 1908 C 315.06558 1820.4325 346.91829 1747.9458 393.74609 1674.8184 C 445.82282 1593.4941 517.01841 1512.9493 590.66797 1418.709 C 595.12105 1413.1723 599.51894 1407.6742 603.83594 1402.2285 C 749.16715 1218.8993 874.74414 1062.0301 874.74414 857.33398 L 874.74414 856.85156 L 874.73438 856.36719 C 872.4791 739.6381 835.52019 648.61817 776.96484 587.80469 C 718.4095 526.99121 640.02457 498 562.81445 498 L 451.45508 498 z "
       transform="translate(0,-288)"
       id="path5546-0-3-9" />
  </g>
</svg>
