<?xml version="1.0" encoding="UTF-8" standalone="no"?>
<!--?xml version="1.0" encoding="UTF-8" standalone="no"?-->

<svg
   xmlns:dc="http://purl.org/dc/elements/1.1/"
   xmlns:cc="http://creativecommons.org/ns#"
   xmlns:rdf="http://www.w3.org/1999/02/22-rdf-syntax-ns#"
   xmlns:svg="http://www.w3.org/2000/svg"
   xmlns="http://www.w3.org/2000/svg"
   xmlns:sodipodi="http://sodipodi.sourceforge.net/DTD/sodipodi-0.dtd"
   xmlns:inkscape="http://www.inkscape.org/namespaces/inkscape"
   version="1.1"
   viewBox="0 -288 1024 2048"
   id="svg6"
   sodipodi:docname="ugrave.svg"
   width="1024"
   height="2048"
   inkscape:version="0.92.1 r">
  <metadata
     id="metadata12">
    <rdf:rdf>
      <cc:work
         rdf:about="">
        <dc:format>image/svg+xml</dc:format>
        <dc:type
           rdf:resource="http://purl.org/dc/dcmitype/StillImage" />
        <dc:title />
      </cc:work>
    </rdf:rdf>
    <rdf:RDF>
      <cc:Work
         rdf:about="">
        <dc:format>image/svg+xml</dc:format>
        <dc:type
           rdf:resource="http://purl.org/dc/dcmitype/StillImage" />
      </cc:Work>
    </rdf:RDF>
  </metadata>
  <defs
     id="defs10" />
  <sodipodi:namedview
     pagecolor="#ffffff"
     bordercolor="#666666"
     borderopacity="1"
     objecttolerance="10"
     gridtolerance="10"
     guidetolerance="10"
     inkscape:pageopacity="0"
     inkscape:pageshadow="2"
     inkscape:window-width="1364"
     inkscape:window-height="730"
     id="namedview8"
     showgrid="false"
     inkscape:zoom="0.2751676"
     inkscape:cx="-3148.961"
     inkscape:cy="-1073.2838"
     inkscape:window-x="2560"
     inkscape:window-y="18"
     inkscape:window-maximized="0"
     inkscape:current-layer="g4521"
     inkscape:measure-start="181.477,341.874"
     inkscape:measure-end="274.966,341.874"
     showguides="true"
     inkscape:guide-bbox="true">
    <sodipodi:guide
       position="1407.5273,971.34483"
       orientation="0,1"
       id="guide4523"
       inkscape:locked="false" />
  </sodipodi:namedview>
  <g
     inkscape:groupmode="layer"
     id="layer2"
     inkscape:label="trace">
    <g
       id="g4521"
       transform="matrix(1.0122669,0,0,0.84867768,-6.3396376,269.35373)">
      <path
         style="color:#000000;font-style:normal;font-variant:normal;font-weight:normal;font-stretch:normal;font-size:medium;line-height:normal;font-family:sans-serif;font-variant-ligatures:normal;font-variant-position:normal;font-variant-caps:normal;font-variant-numeric:normal;font-variant-alternates:normal;font-feature-settings:normal;text-indent:0;text-align:start;text-decoration:none;text-decoration-line:none;text-decoration-style:solid;text-decoration-color:#000000;letter-spacing:normal;word-spacing:normal;text-transform:none;writing-mode:lr-tb;direction:ltr;text-orientation:mixed;dominant-baseline:auto;baseline-shift:baseline;text-anchor:start;white-space:normal;shape-padding:0;clip-rule:nonzero;display:inline;overflow:visible;visibility:visible;opacity:1;isolation:auto;mix-blend-mode:normal;color-interpolation:sRGB;color-interpolation-filters:linearRGB;solid-color:#000000;solid-opacity:1;vector-effect:none;fill:#000000;fill-opacity:1;fill-rule:evenodd;stroke:none;stroke-width:92.68701935;stroke-linecap:butt;stroke-linejoin:miter;stroke-miterlimit:4;stroke-dasharray:none;stroke-dashoffset:0;stroke-opacity:1;color-rendering:auto;image-rendering:auto;shape-rendering:auto;text-rendering:auto;enable-background:accumulate"
         d="M 387.93945 383.51562 L 307.16406 434.66406 L 312.29688 440.36133 L 293.38477 455.11719 L 464.27734 609.06836 L 618.26367 780.00195 L 699.04102 728.85352 L 693.91016 723.1582 L 712.82227 708.40039 L 541.91797 554.43945 L 387.93945 383.51562 z M 164.46094 1078 L 164.46094 1796.4434 C 164.46094 1832.6525 168.37376 1895.8375 205.72461 1955.3848 C 243.07547 2014.9321 322.44858 2068 442.64258 2068 C 573.09281 2068 672.6036 1996.1238 740.92578 1925.875 C 742.96528 1938.1459 745.05985 1950.7065 746.97852 1962.3398 C 750.95295 1986.4377 754.52518 2008.4168 757.07422 2024.959 C 758.34873 2033.23 759.3683 2040.1609 760.03516 2045.1328 C 760.70202 2050.1047 760.83789 2055.4417 760.83789 2051.0273 L 862.06445 2051.0273 L 862.06445 1878.7734 L 862.06445 1192.4258 L 862.06445 1078 L 823.83203 1078 L 760.83789 1078 L 722.60547 1078 L 722.60547 1799.6016 C 702.68699 1826.9947 603.1641 1953.4277 462.40625 1953.4277 C 377.69671 1953.4277 349.79072 1929.5766 328.33203 1890.5488 C 306.87335 1851.521 302.50781 1793.105 302.50781 1741.5234 L 302.50781 1078 L 265.6875 1078 L 164.46094 1078 z "
         transform="matrix(0.98788175,0,0,1.1783036,6.2628123,-656.73193)"
         id="path5236-3-9-6" />
    </g>
  </g>
</svg>
