<?xml version="1.0" encoding="UTF-8" standalone="no"?>
<!--?xml version="1.0" encoding="UTF-8" standalone="no"?-->

<svg
   xmlns:dc="http://purl.org/dc/elements/1.1/"
   xmlns:cc="http://creativecommons.org/ns#"
   xmlns:rdf="http://www.w3.org/1999/02/22-rdf-syntax-ns#"
   xmlns:svg="http://www.w3.org/2000/svg"
   xmlns="http://www.w3.org/2000/svg"
   xmlns:sodipodi="http://sodipodi.sourceforge.net/DTD/sodipodi-0.dtd"
   xmlns:inkscape="http://www.inkscape.org/namespaces/inkscape"
   version="1.1"
   viewBox="0 -288 1296 2048"
   id="svg6"
   sodipodi:docname="V.svg"
   width="1296"
   height="2048"
   inkscape:version="0.92.1 r">
  <metadata
     id="metadata12">
    <rdf:rdf>
      <cc:work
         rdf:about="">
        <dc:format>image/svg+xml</dc:format>
        <dc:type
           rdf:resource="http://purl.org/dc/dcmitype/StillImage" />
        <dc:title />
      </cc:work>
    </rdf:rdf>
    <rdf:RDF>
      <cc:Work
         rdf:about="">
        <dc:format>image/svg+xml</dc:format>
        <dc:type
           rdf:resource="http://purl.org/dc/dcmitype/StillImage" />
      </cc:Work>
    </rdf:RDF>
  </metadata>
  <defs
     id="defs10" />
  <sodipodi:namedview
     pagecolor="#ffffff"
     bordercolor="#666666"
     borderopacity="1"
     objecttolerance="10"
     gridtolerance="10"
     guidetolerance="10"
     inkscape:pageopacity="0"
     inkscape:pageshadow="2"
     inkscape:window-width="1364"
     inkscape:window-height="730"
     id="namedview8"
     showgrid="false"
     inkscape:zoom="0.29673431"
     inkscape:cx="96.995403"
     inkscape:cy="1048.1702"
     inkscape:window-x="2560"
     inkscape:window-y="18"
     inkscape:window-maximized="0"
     inkscape:current-layer="layer3"
     inkscape:measure-start="121.623,1547.26"
     inkscape:measure-end="200.943,1547.26"
     showguides="true"
     inkscape:guide-bbox="true">
    <sodipodi:guide
       position="650.11518,-83.75717"
       orientation="1,0"
       id="guide3860"
       inkscape:locked="false" />
    <sodipodi:guide
       position="750.5399,497.41965"
       orientation="0,1"
       id="guide893"
       inkscape:locked="false" />
    <sodipodi:guide
       position="1214.479,1532.0582"
       orientation="0,1"
       id="guide61"
       inkscape:locked="false" />
  </sodipodi:namedview>
  <g
     inkscape:groupmode="layer"
     id="layer3"
     inkscape:label="trace"
     style="display:inline">
    <path
       style="color:#000000;font-style:normal;font-variant:normal;font-weight:normal;font-stretch:normal;font-size:medium;line-height:normal;font-family:sans-serif;font-variant-ligatures:normal;font-variant-position:normal;font-variant-caps:normal;font-variant-numeric:normal;font-variant-alternates:normal;font-feature-settings:normal;text-indent:0;text-align:start;text-decoration:none;text-decoration-line:none;text-decoration-style:solid;text-decoration-color:#000000;letter-spacing:normal;word-spacing:normal;text-transform:none;writing-mode:lr-tb;direction:ltr;text-orientation:mixed;dominant-baseline:auto;baseline-shift:baseline;text-anchor:start;white-space:normal;shape-padding:0;clip-rule:nonzero;display:inline;overflow:visible;visibility:visible;opacity:1;isolation:auto;mix-blend-mode:normal;color-interpolation:sRGB;color-interpolation-filters:linearRGB;solid-color:#000000;solid-opacity:1;vector-effect:none;fill:#000000;fill-opacity:1;fill-rule:evenodd;stroke:none;stroke-width:100;stroke-linecap:butt;stroke-linejoin:miter;stroke-miterlimit:4;stroke-dasharray:none;stroke-dashoffset:0;stroke-opacity:1;color-rendering:auto;image-rendering:auto;shape-rendering:auto;text-rendering:auto;enable-background:accumulate"
       d="M 174.7793 491.03906 C 174.93339 492.31753 175.11328 493.18971 175.11328 498 L 135.13477 498 L 75.113281 498 C 75.113281 511.81806 76.259589 509.0796 76.712891 511.06055 C 77.166192 513.0415 77.61316 514.76478 78.144531 516.75977 C 79.207274 520.74973 80.589466 525.63835 82.363281 531.75195 C 85.910912 543.97915 90.987077 560.9339 97.433594 582.16016 C 110.32663 624.61266 128.67237 684.0307 150.68359 754.8125 C 194.70603 896.3761 253.36686 1083.319 312.02734 1269.6973 C 429.34832 1642.4538 546.66016 2012.9258 546.66016 2012.9258 L 557.71484 2047.832 L 568.53125 2047.832 L 568.58008 2048.0059 L 732.98633 2048.0059 L 733.03516 2047.832 L 743.85156 2047.832 L 754.9043 2012.9258 C 754.9043 2012.9258 872.21809 1642.4537 989.53906 1269.6973 C 1048.1995 1083.319 1106.8604 896.37609 1150.8828 754.8125 C 1172.894 684.0307 1191.2398 624.61266 1204.1328 582.16016 C 1210.5793 560.9339 1215.6535 543.97915 1219.2012 531.75195 C 1220.975 525.63835 1222.3591 520.74973 1223.4219 516.75977 C 1223.9532 514.76478 1224.3983 513.0415 1224.8516 511.06055 C 1225.3049 509.0796 1226.4512 511.81806 1226.4512 498 L 1166.4297 498 L 1126.4512 498 C 1126.4512 493.19516 1126.6294 492.32673 1126.7832 491.04688 C 1126.3474 492.6824 1125.6541 495.15942 1124.8477 498 L 1066.4297 498 C 1066.4297 494.29666 1066.5539 493.26931 1066.668 492.29883 C 1066.592 492.64239 1066.601 492.62897 1066.498 493.07617 C 1065.8634 495.83174 1064.7457 500.37767 1063.2578 506.19727 C 1060.2821 517.83645 1055.7947 534.73954 1050.0684 555.9043 C 1038.6156 598.23382 1022.1806 657.73762 1002.4551 728.51953 C 963.00403 870.08336 910.36712 1056.8431 857.72852 1242.8945 C 760.76557 1585.6107 672.24593 1896.2438 657.54297 1947.832 L 644.02148 1947.832 C 629.31853 1896.2438 540.80083 1585.6107 443.83789 1242.8945 C 391.19929 1056.843 338.5604 870.08337 299.10938 728.51953 C 279.38386 657.73761 262.95078 598.23382 251.49805 555.9043 C 245.77168 534.73954 241.28237 517.83645 238.30664 506.19727 C 236.81877 500.37767 235.70298 495.83174 235.06836 493.07617 C 234.96507 492.62767 234.97226 492.64108 234.89648 492.29688 C 235.01064 493.26702 235.13477 494.29535 235.13477 498 L 176.7168 498 C 175.90929 495.15547 175.21514 492.67499 174.7793 491.03906 z "
       transform="translate(0,-288)"
       id="path5236-7-72-2-3" />
  </g>
</svg>
