<?xml version="1.0" encoding="UTF-8" standalone="no"?>
<!--?xml version="1.0" encoding="UTF-8" standalone="no"?-->

<svg
   xmlns:dc="http://purl.org/dc/elements/1.1/"
   xmlns:cc="http://creativecommons.org/ns#"
   xmlns:rdf="http://www.w3.org/1999/02/22-rdf-syntax-ns#"
   xmlns:svg="http://www.w3.org/2000/svg"
   xmlns="http://www.w3.org/2000/svg"
   xmlns:sodipodi="http://sodipodi.sourceforge.net/DTD/sodipodi-0.dtd"
   xmlns:inkscape="http://www.inkscape.org/namespaces/inkscape"
   version="1.1"
   viewBox="0 -288 1520 2048"
   id="svg6"
   sodipodi:docname="W.svg"
   width="1520"
   height="2048"
   inkscape:version="0.92.1 r">
  <metadata
     id="metadata12">
    <rdf:rdf>
      <cc:work
         rdf:about="">
        <dc:format>image/svg+xml</dc:format>
        <dc:type
           rdf:resource="http://purl.org/dc/dcmitype/StillImage" />
        <dc:title />
      </cc:work>
    </rdf:rdf>
    <rdf:RDF>
      <cc:Work
         rdf:about="">
        <dc:format>image/svg+xml</dc:format>
        <dc:type
           rdf:resource="http://purl.org/dc/dcmitype/StillImage" />
      </cc:Work>
    </rdf:RDF>
  </metadata>
  <defs
     id="defs10" />
  <sodipodi:namedview
     pagecolor="#ffffff"
     bordercolor="#666666"
     borderopacity="1"
     objecttolerance="10"
     gridtolerance="10"
     guidetolerance="10"
     inkscape:pageopacity="0"
     inkscape:pageshadow="2"
     inkscape:window-width="1364"
     inkscape:window-height="730"
     id="namedview8"
     showgrid="false"
     inkscape:zoom="0.49665318"
     inkscape:cx="28.947739"
     inkscape:cy="1584.3354"
     inkscape:window-x="2560"
     inkscape:window-y="18"
     inkscape:window-maximized="0"
     inkscape:current-layer="layer3"
     inkscape:measure-start="108.932,1160.18"
     inkscape:measure-end="190.719,1160.18"
     showguides="true"
     inkscape:guide-bbox="true">
    <sodipodi:guide
       position="1447.4228,1514.4019"
       orientation="0,1"
       id="guide4527"
       inkscape:locked="false" />
  </sodipodi:namedview>
  <g
     inkscape:groupmode="layer"
     id="layer3"
     inkscape:label="trace">
    <path
       style="color:#000000;font-style:normal;font-variant:normal;font-weight:normal;font-stretch:normal;font-size:medium;line-height:normal;font-family:sans-serif;font-variant-ligatures:normal;font-variant-position:normal;font-variant-caps:normal;font-variant-numeric:normal;font-variant-alternates:normal;font-feature-settings:normal;text-indent:0;text-align:start;text-decoration:none;text-decoration-line:none;text-decoration-style:solid;text-decoration-color:#000000;letter-spacing:normal;word-spacing:normal;text-transform:none;writing-mode:lr-tb;direction:ltr;text-orientation:mixed;dominant-baseline:auto;baseline-shift:baseline;text-anchor:start;white-space:normal;shape-padding:0;clip-rule:nonzero;display:inline;overflow:visible;visibility:visible;opacity:1;isolation:auto;mix-blend-mode:normal;color-interpolation:sRGB;color-interpolation-filters:linearRGB;solid-color:#000000;solid-opacity:1;vector-effect:none;fill:#050000;fill-opacity:1;fill-rule:evenodd;stroke:none;stroke-width:100;stroke-linecap:butt;stroke-linejoin:miter;stroke-miterlimit:4;stroke-dasharray:none;stroke-dashoffset:0;stroke-opacity:1;color-rendering:auto;image-rendering:auto;shape-rendering:auto;text-rendering:auto;enable-background:accumulate"
       d="M 241.70898 494.63672 C 241.63928 494.50657 241.60938 495.48945 241.60938 498 L 187.94141 498 C 187.85186 496.87751 187.78828 495.8257 187.76367 495.33594 C 187.72767 494.62013 187.74023 495.05027 187.74023 498 L 141.60938 498 L 87.740234 498 C 87.740234 506.11103 88.255127 506.93354 88.769531 511.28516 C 89.283935 515.63677 89.982362 520.97241 90.878906 527.49023 C 92.671994 540.52589 95.248011 558.19467 98.517578 580.01953 C 105.05671 623.66926 114.36345 683.84824 125.52734 755.04883 C 147.85513 897.45 177.60472 1083.8761 207.35547 1269.1953 C 266.85696 1639.8336 326.35547 2006.0195 326.35547 2006.0195 L 333.17578 2048 L 357.14258 2048 L 536.73047 2048 L 560.91797 2048 L 752.62891 655.87305 L 944.5293 2048 L 968.71094 2048 L 1148.2969 2048 L 1172.2637 2048 L 1179.0859 2006.0195 C 1179.0859 2006.0195 1238.5824 1639.8706 1298.084 1269.25 C 1327.8348 1083.9397 1357.5862 897.51776 1379.9141 755.10938 C 1391.078 683.90517 1400.3826 623.7209 1406.9219 580.06055 C 1410.1915 558.23037 1412.7673 540.55338 1414.5605 527.50977 C 1415.4572 520.98796 1416.1574 515.64964 1416.6719 511.29297 C 1417.1863 506.9363 1417.6992 506.08714 1417.6992 498 L 1363.832 498 L 1317.6992 498 C 1317.6992 493.07024 1317.7162 495.24733 1317.498 498 L 1263.832 498 C 1263.832 487.99225 1263.3367 502.36203 1261.8457 514.71875 C 1260.3547 527.07547 1258.1248 544.52205 1255.2812 566.15039 C 1249.5941 609.40708 1241.4417 669.47419 1231.6562 740.56836 C 1212.0856 882.75669 1185.9768 1069.1165 1159.8672 1254.3652 C 1110.6922 1603.2642 1067.0784 1908.964 1061.5117 1948 L 1057.125 1948 L 878.13867 498 L 831.81055 498 L 673.42578 498 L 627.23633 498 L 448.3125 1948 L 443.92773 1948 C 438.36127 1908.9632 394.74937 1603.2439 345.57422 1254.334 C 319.46462 1069.0799 293.35393 882.71781 273.7832 740.5332 C 263.99784 669.4409 255.84542 609.37826 250.1582 566.12695 C 247.31459 544.5013 245.0868 527.05638 243.5957 514.70312 C 242.47738 505.43818 241.91802 495.02716 241.70898 494.63672 z "
       transform="translate(0,-288)"
       id="path5109-6-3" />
  </g>
</svg>
