<?xml version="1.0" encoding="UTF-8" standalone="no"?>
<!--?xml version="1.0" encoding="UTF-8" standalone="no"?-->

<svg
   xmlns:dc="http://purl.org/dc/elements/1.1/"
   xmlns:cc="http://creativecommons.org/ns#"
   xmlns:rdf="http://www.w3.org/1999/02/22-rdf-syntax-ns#"
   xmlns:svg="http://www.w3.org/2000/svg"
   xmlns="http://www.w3.org/2000/svg"
   xmlns:sodipodi="http://sodipodi.sourceforge.net/DTD/sodipodi-0.dtd"
   xmlns:inkscape="http://www.inkscape.org/namespaces/inkscape"
   version="1.1"
   viewBox="0 -288 1328 2048"
   id="svg6"
   sodipodi:docname="w.svg"
   width="1328"
   height="2048"
   inkscape:version="0.92.1 r">
  <metadata
     id="metadata12">
    <rdf:rdf>
      <cc:work
         rdf:about="">
        <dc:format>image/svg+xml</dc:format>
        <dc:type
           rdf:resource="http://purl.org/dc/dcmitype/StillImage" />
        <dc:title />
      </cc:work>
    </rdf:rdf>
    <rdf:RDF>
      <cc:Work
         rdf:about="">
        <dc:format>image/svg+xml</dc:format>
        <dc:type
           rdf:resource="http://purl.org/dc/dcmitype/StillImage" />
      </cc:Work>
    </rdf:RDF>
  </metadata>
  <defs
     id="defs10" />
  <sodipodi:namedview
     pagecolor="#ffffff"
     bordercolor="#666666"
     borderopacity="1"
     objecttolerance="10"
     gridtolerance="10"
     guidetolerance="10"
     inkscape:pageopacity="0"
     inkscape:pageshadow="2"
     inkscape:window-width="1364"
     inkscape:window-height="730"
     id="namedview8"
     showgrid="false"
     inkscape:zoom="0.35118682"
     inkscape:cx="40.172304"
     inkscape:cy="555.37285"
     inkscape:window-x="2560"
     inkscape:window-y="18"
     inkscape:window-maximized="0"
     inkscape:current-layer="layer3"
     inkscape:measure-start="108.932,1160.18"
     inkscape:measure-end="190.719,1160.18"
     showguides="true"
     inkscape:guide-bbox="true">
    <sodipodi:guide
       position="368.1212,1267.685"
       orientation="0,1"
       id="guide4527"
       inkscape:locked="false" />
  </sodipodi:namedview>
  <g
     inkscape:groupmode="layer"
     id="layer3"
     inkscape:label="trace">
    <path
       style="color:#000000;font-style:normal;font-variant:normal;font-weight:normal;font-stretch:normal;font-size:medium;line-height:normal;font-family:sans-serif;font-variant-ligatures:normal;font-variant-position:normal;font-variant-caps:normal;font-variant-numeric:normal;font-variant-alternates:normal;font-feature-settings:normal;text-indent:0;text-align:start;text-decoration:none;text-decoration-line:none;text-decoration-style:solid;text-decoration-color:#000000;letter-spacing:normal;word-spacing:normal;text-transform:none;writing-mode:lr-tb;direction:ltr;text-orientation:mixed;dominant-baseline:auto;baseline-shift:baseline;text-anchor:start;white-space:normal;shape-padding:0;clip-rule:nonzero;display:inline;overflow:visible;visibility:visible;opacity:1;isolation:auto;mix-blend-mode:normal;color-interpolation:sRGB;color-interpolation-filters:linearRGB;solid-color:#000000;solid-opacity:1;vector-effect:none;fill:#050000;fill-opacity:1;fill-rule:evenodd;stroke:none;stroke-width:100;stroke-linecap:butt;stroke-linejoin:miter;stroke-miterlimit:4;stroke-dasharray:none;stroke-dashoffset:0;stroke-opacity:1;color-rendering:auto;image-rendering:auto;shape-rendering:auto;text-rendering:auto;enable-background:accumulate"
       d="M 1162.6543 878.30078 C 1162.5702 878.37971 1162.4177 880.31826 1162.1699 883 L 1114.3398 883 C 1114.3398 876.9539 1114.4492 880.377 1114.1758 882.67188 C 1113.9024 884.96673 1113.4307 888.56535 1112.7988 893.10547 C 1111.5351 902.18571 1109.624 915.13533 1107.1836 931.19531 C 1102.3027 963.31527 1095.2929 1007.9699 1086.877 1060.8105 C 1070.045 1166.4917 1047.5826 1304.9854 1025.1191 1442.6309 C 983.62807 1696.8683 948.23704 1911.039 942.13281 1948 L 929.53125 1948 L 783.91797 883 L 743.98047 883 L 590.69922 883 L 550.63281 883 L 404.96484 1948 L 394.28711 1948 C 388.12661 1911.1088 352.32145 1696.825 310.36133 1442.543 C 287.64794 1304.8978 264.93507 1166.4065 247.91602 1060.7266 C 239.40649 1007.8866 232.31765 963.23091 227.38281 931.11328 C 224.91539 915.05447 222.9843 902.10557 221.70703 893.0293 C 221.0684 888.49116 220.59213 884.89632 220.31641 882.60742 C 220.17854 881.46297 220.13702 880.03163 220.13086 879.65039 C 220.12486 879.26915 220.1543 879.93859 220.1543 883 L 172.0957 883 C 172.0177 882.48212 171.9079 881.78681 171.84766 881.36719 C 171.7793 880.89103 171.74316 880.33271 171.7168 879.82422 C 171.72785 880.55003 171.74023 881.39175 171.74023 883 L 120.1543 883 L 71.740234 883 C 71.740234 892.42879 72.364209 892.11545 72.861328 895.57812 C 73.358447 899.04081 74.005209 903.08879 74.824219 908.00195 C 76.462239 917.82828 78.785607 930.99457 81.732422 947.24805 C 87.626053 979.755 95.995217 1024.4956 106.0332 1077.4355 C 126.10918 1183.3154 152.84963 1321.919 179.58984 1459.7148 C 233.07027 1735.3065 286.54297 2007.6348 286.54297 2007.6348 L 294.4707 2048 L 309.56445 2048 L 492.2168 2048 L 505.52148 2048 L 667.32812 1036.9805 L 828.96484 2048 L 842.27539 2048 L 1027.0059 2048 L 1039.9727 2048 L 1047.9375 2007.6934 C 1047.9375 2007.6934 1101.4142 1737.0717 1154.8984 1462.3184 C 1181.6406 1324.9417 1208.3842 1186.5398 1228.4668 1080.3027 C 1238.5081 1027.1842 1246.8798 982.1302 1252.7832 949.0957 C 1255.7349 932.57845 1258.0664 919.09594 1259.7148 908.86328 C 1261.3633 898.63062 1262.752 898.66773 1262.752 883 L 1214.3398 883 L 1162.752 883 C 1162.752 880.10508 1162.7345 878.70398 1162.6855 878.375 C 1162.6763 878.31332 1162.6659 878.28988 1162.6543 878.30078 z M 171.7168 879.82422 C 171.6859 877.79581 171.64754 878.48846 171.7168 879.82422 z "
       transform="translate(0,-288)"
       id="path5109-6-3" />
  </g>
</svg>
