<?xml version="1.0" encoding="UTF-8" standalone="no"?>
<!--?xml version="1.0" encoding="UTF-8" standalone="no"?-->

<svg
   xmlns:dc="http://purl.org/dc/elements/1.1/"
   xmlns:cc="http://creativecommons.org/ns#"
   xmlns:rdf="http://www.w3.org/1999/02/22-rdf-syntax-ns#"
   xmlns:svg="http://www.w3.org/2000/svg"
   xmlns="http://www.w3.org/2000/svg"
   xmlns:sodipodi="http://sodipodi.sourceforge.net/DTD/sodipodi-0.dtd"
   xmlns:inkscape="http://www.inkscape.org/namespaces/inkscape"
   version="1.1"
   viewBox="0 -288 944 2048"
   id="svg6"
   sodipodi:docname="x.svg"
   width="944"
   height="2048"
   inkscape:version="0.92.1 r">
  <metadata
     id="metadata12">
    <rdf:rdf>
      <cc:work
         rdf:about="">
        <dc:format>image/svg+xml</dc:format>
        <dc:type
           rdf:resource="http://purl.org/dc/dcmitype/StillImage" />
        <dc:title />
      </cc:work>
    </rdf:rdf>
    <rdf:RDF>
      <cc:Work
         rdf:about="">
        <dc:format>image/svg+xml</dc:format>
        <dc:type
           rdf:resource="http://purl.org/dc/dcmitype/StillImage" />
      </cc:Work>
    </rdf:RDF>
  </metadata>
  <defs
     id="defs10" />
  <sodipodi:namedview
     pagecolor="#ffffff"
     bordercolor="#666666"
     borderopacity="1"
     objecttolerance="10"
     gridtolerance="10"
     guidetolerance="10"
     inkscape:pageopacity="0"
     inkscape:pageshadow="2"
     inkscape:window-width="1364"
     inkscape:window-height="730"
     id="namedview8"
     showgrid="false"
     inkscape:zoom="0.70237365"
     inkscape:cx="-126.23087"
     inkscape:cy="361.70951"
     inkscape:window-x="2560"
     inkscape:window-y="18"
     inkscape:window-maximized="0"
     inkscape:current-layer="layer3"
     inkscape:measure-start="316.934,14.2978"
     inkscape:measure-end="23.8296,14.2978" />
  <g
     inkscape:groupmode="layer"
     id="layer3"
     inkscape:label="trace">
    <path
       style="color:#000000;font-style:normal;font-variant:normal;font-weight:normal;font-stretch:normal;font-size:medium;line-height:normal;font-family:sans-serif;font-variant-ligatures:normal;font-variant-position:normal;font-variant-caps:normal;font-variant-numeric:normal;font-variant-alternates:normal;font-feature-settings:normal;text-indent:0;text-align:start;text-decoration:none;text-decoration-line:none;text-decoration-style:solid;text-decoration-color:#000000;letter-spacing:normal;word-spacing:normal;text-transform:none;writing-mode:lr-tb;direction:ltr;text-orientation:mixed;dominant-baseline:auto;baseline-shift:baseline;text-anchor:start;white-space:normal;shape-padding:0;clip-rule:nonzero;display:inline;overflow:visible;visibility:visible;opacity:1;isolation:auto;mix-blend-mode:normal;color-interpolation:sRGB;color-interpolation-filters:linearRGB;solid-color:#000000;solid-opacity:1;vector-effect:none;fill:#050000;fill-opacity:1;fill-rule:evenodd;stroke:none;stroke-width:100;stroke-linecap:butt;stroke-linejoin:miter;stroke-miterlimit:4;stroke-dasharray:none;stroke-dashoffset:0;stroke-opacity:1;color-rendering:auto;image-rendering:auto;shape-rendering:auto;text-rendering:auto;enable-background:accumulate"
       d="M 208.4082 865.33008 C 208.35116 865.2011 208.37839 865.26293 208.52539 865.625 C 208.6724 865.98706 208.93942 866.59081 209.49219 868.32422 C 210.04496 870.05763 211.74023 870.72241 211.74023 883 L 164.1543 883 L 111.74023 883 C 111.74023 895.4848 113.51325 896.49469 114.21875 898.70703 C 114.92425 900.91937 115.42104 902.1357 115.87109 903.24414 C 116.7712 905.46102 117.49044 907.01088 118.30273 908.73828 C 119.92732 912.19309 121.84905 916.04089 124.28906 920.82031 C 129.16909 930.37917 136.0198 943.39962 144.71094 959.70117 C 162.09321 992.30428 186.75839 1037.8578 216.3457 1092.1836 C 272.15283 1194.6521 345.70583 1328.7447 419.96875 1464.1875 C 345.62375 1599.8032 272.18535 1733.9023 216.30469 1836.9199 C 186.70653 1891.485 162.03068 1937.3331 144.61328 1970.334 C 135.90458 1986.8344 129.03338 2000.0725 124.09961 2009.9414 C 121.63272 2014.8759 119.6742 2018.8942 117.98633 2022.6289 C 117.14239 2024.4962 116.37989 2026.2143 115.44531 2028.6797 C 114.51074 2031.145 111.74023 2028.1516 111.74023 2048 L 161.88281 2048 C 161.88281 2048.0147 161.88281 2048.0262 161.88281 2048.041 L 211.74023 2048.041 C 211.73888 2054.0244 211.47203 2057.3034 211.13477 2059.6348 C 211.91744 2058.0071 212.37549 2056.9974 213.54492 2054.6582 C 214.5279 2052.692 215.66816 2050.4417 216.89258 2048.041 L 261.88281 2048.041 C 261.88281 2052.6349 261.75659 2055.6741 261.57812 2057.875 C 262.26974 2056.204 262.72202 2055.0613 263.76367 2052.6328 C 267.41324 2044.1243 273.01894 2031.4554 280.17773 2015.5195 C 294.49532 1983.6478 315.08905 1938.5454 339.81055 1884.7188 C 377.96407 1801.6462 426.72293 1696.0954 476.98828 1587.2285 C 527.25351 1696.0951 576.01063 1801.6464 614.16406 1884.7188 C 638.88556 1938.5454 659.47929 1983.6478 673.79688 2015.5195 C 680.95566 2031.4554 686.56137 2044.1243 690.21094 2052.6328 C 691.25179 2055.0594 691.70316 2056.2007 692.39453 2057.8711 C 692.21619 2055.6703 692.08984 2052.6331 692.08984 2048.041 L 737.08203 2048.041 C 738.30645 2050.4417 739.44671 2052.692 740.42969 2054.6582 C 741.59912 2056.9974 742.05717 2058.0071 742.83984 2059.6348 C 742.50257 2057.3034 742.23573 2054.0244 742.23438 2048.041 L 792.08984 2048.041 C 792.08984 2048.0262 792.08985 2048.0147 792.08984 2048 L 842.23438 2048 C 842.23437 2028.1516 839.46387 2031.145 838.5293 2028.6797 C 837.59472 2026.2143 836.83222 2024.4962 835.98828 2022.6289 C 834.30041 2018.8942 832.34189 2014.8759 829.875 2009.9414 C 824.94123 2000.0725 818.07003 1986.8344 809.36133 1970.334 C 791.94393 1937.3331 767.26808 1891.485 737.66992 1836.9199 C 681.78926 1733.9022 608.35086 1599.8032 534.00586 1464.1875 C 608.26878 1328.7447 681.82178 1194.6521 737.62891 1092.1836 C 767.21622 1037.8578 791.8814 992.30428 809.26367 959.70117 C 817.95481 943.39962 824.80552 930.37917 829.68555 920.82031 C 832.12556 916.04089 834.04728 912.19309 835.67188 908.73828 C 836.48416 907.01088 837.20341 905.46102 838.10352 903.24414 C 838.55357 902.1357 839.05036 900.91937 839.75586 898.70703 C 840.46136 896.49469 842.23437 895.4848 842.23438 883 L 789.82031 883 L 742.23438 883 C 742.23438 870.72241 743.92965 870.05763 744.48242 868.32422 C 745.03519 866.59081 745.30221 865.98706 745.44922 865.625 C 745.74323 864.90087 745.55839 865.3741 745.17773 866.18359 C 744.41642 867.80259 742.79895 871.08369 740.62109 875.34961 C 739.47224 877.59996 738.13926 880.18089 736.67383 883 L 689.82031 883 C 689.82031 879.17306 689.92286 877.07066 690.02539 875.07617 C 689.35868 876.90325 688.71274 878.70449 687.42969 881.93164 C 683.90802 890.78938 678.36159 903.98486 671.25 920.41602 C 657.02683 953.27833 636.46784 999.32283 611.77734 1053.8926 C 574.06791 1137.2362 526.66074 1240.6118 476.98828 1348.4863 C 427.3157 1240.6115 379.90678 1137.2364 342.19727 1053.8926 C 317.50677 999.32283 296.94778 953.27833 282.72461 920.41602 C 275.61302 903.98486 270.06659 890.78938 266.54492 881.93164 C 265.26292 878.70712 264.61596 876.90902 263.94922 875.08203 C 264.05162 877.07622 264.1543 879.17588 264.1543 883 L 217.30078 883 C 215.83535 880.18089 214.50237 877.59996 213.35352 875.34961 C 211.17566 871.08369 209.55818 867.80259 208.79688 866.18359 C 208.60654 865.77885 208.46524 865.45906 208.4082 865.33008 z "
       transform="translate(0,-288)"
       id="path5109-6" />
  </g>
</svg>
