<?xml version="1.0" encoding="UTF-8" standalone="no"?>
<!--?xml version="1.0" encoding="UTF-8" standalone="no"?-->

<svg
   xmlns:dc="http://purl.org/dc/elements/1.1/"
   xmlns:cc="http://creativecommons.org/ns#"
   xmlns:rdf="http://www.w3.org/1999/02/22-rdf-syntax-ns#"
   xmlns:svg="http://www.w3.org/2000/svg"
   xmlns="http://www.w3.org/2000/svg"
   xmlns:sodipodi="http://sodipodi.sourceforge.net/DTD/sodipodi-0.dtd"
   xmlns:inkscape="http://www.inkscape.org/namespaces/inkscape"
   version="1.1"
   viewBox="0 -288 1232 2048"
   id="svg6"
   sodipodi:docname="X.svg"
   width="1232"
   height="2048"
   inkscape:version="0.92.1 r">
  <metadata
     id="metadata12">
    <rdf:rdf>
      <cc:work
         rdf:about="">
        <dc:format>image/svg+xml</dc:format>
        <dc:type
           rdf:resource="http://purl.org/dc/dcmitype/StillImage" />
        <dc:title />
      </cc:work>
    </rdf:rdf>
    <rdf:RDF>
      <cc:Work
         rdf:about="">
        <dc:format>image/svg+xml</dc:format>
        <dc:type
           rdf:resource="http://purl.org/dc/dcmitype/StillImage" />
      </cc:Work>
    </rdf:RDF>
  </metadata>
  <defs
     id="defs10" />
  <sodipodi:namedview
     pagecolor="#ffffff"
     bordercolor="#666666"
     borderopacity="1"
     objecttolerance="10"
     gridtolerance="10"
     guidetolerance="10"
     inkscape:pageopacity="0"
     inkscape:pageshadow="2"
     inkscape:window-width="1364"
     inkscape:window-height="730"
     id="namedview8"
     showgrid="false"
     inkscape:zoom="0.27015218"
     inkscape:cx="2543.5293"
     inkscape:cy="1770.6902"
     inkscape:window-x="2560"
     inkscape:window-y="18"
     inkscape:window-maximized="0"
     inkscape:current-layer="layer3"
     inkscape:measure-start="316.934,14.2978"
     inkscape:measure-end="23.8296,14.2978" />
  <g
     inkscape:groupmode="layer"
     id="layer3"
     inkscape:label="trace">
    <path
       style="color:#000000;font-style:normal;font-variant:normal;font-weight:normal;font-stretch:normal;font-size:medium;line-height:normal;font-family:sans-serif;font-variant-ligatures:normal;font-variant-position:normal;font-variant-caps:normal;font-variant-numeric:normal;font-variant-alternates:normal;font-feature-settings:normal;text-indent:0;text-align:start;text-decoration:none;text-decoration-line:none;text-decoration-style:solid;text-decoration-color:#000000;letter-spacing:normal;word-spacing:normal;text-transform:none;writing-mode:lr-tb;direction:ltr;text-orientation:mixed;dominant-baseline:auto;baseline-shift:baseline;text-anchor:start;white-space:normal;shape-padding:0;clip-rule:nonzero;display:inline;overflow:visible;visibility:visible;opacity:1;isolation:auto;mix-blend-mode:normal;color-interpolation:sRGB;color-interpolation-filters:linearRGB;solid-color:#000000;solid-opacity:1;vector-effect:none;fill:#050000;fill-opacity:1;fill-rule:evenodd;stroke:none;stroke-width:100;stroke-linecap:butt;stroke-linejoin:miter;stroke-miterlimit:4;stroke-dasharray:none;stroke-dashoffset:0;stroke-opacity:1;color-rendering:auto;image-rendering:auto;shape-rendering:auto;text-rendering:auto;enable-background:accumulate"
       d="M 193.45508 477.99609 C 193.54048 478.17329 193.76396 478.57281 194.4043 480.19141 C 194.53354 480.5181 194.78728 480.69361 195.04492 480.91797 C 194.90156 480.65618 194.51328 479.98794 194.38867 479.75781 C 193.7086 478.50188 193.28418 477.6417 193.45508 477.99609 z M 1036.5195 477.99609 C 1036.6904 477.6417 1036.2641 478.50188 1035.584 479.75781 C 1035.4588 479.989 1035.0699 480.66068 1034.9258 480.92383 C 1035.1859 480.69716 1035.4401 480.52045 1035.5703 480.19141 C 1036.2107 478.57281 1036.4341 478.17329 1036.5195 477.99609 z M 1033.5664 483.33008 C 1032.1498 485.87386 1030.8006 488.31037 1028.4277 492.42383 C 1027.4679 494.08779 1026.2872 496.1093 1025.1875 498 L 973.82031 498 C 973.82031 492.08614 974.13691 489.19228 974.50586 487.27344 C 973.36456 489.86234 971.88904 493.14149 969.51172 498.0957 C 963.84756 509.89953 955.13616 527.28843 944.00195 549.02734 C 921.73355 592.50518 889.68411 653.61658 851.20898 726.25781 C 785.84927 849.6573 701.74465 1006.6908 614.98828 1168.248 C 528.23176 1006.6906 444.12546 849.65751 378.76562 726.25781 C 340.2905 653.61658 308.24106 592.50518 285.97266 549.02734 C 274.83845 527.28843 266.12705 509.89953 260.46289 498.0957 C 258.08557 493.14149 256.61005 489.86234 255.46875 487.27344 C 255.8377 489.19228 256.1543 492.08614 256.1543 498 L 204.78711 498 C 203.68738 496.1093 202.50673 494.08779 201.54688 492.42383 C 199.17516 488.31236 197.82664 485.8774 196.41016 483.33398 C 197.11875 485.40605 197.74023 489.31952 197.74023 498 L 156.1543 498 L 97.740234 498 C 97.740234 516.45455 100.55126 514.78773 101.41797 516.97852 C 102.28467 519.1693 102.84624 520.32302 103.38086 521.43164 C 104.45009 523.64889 105.36505 525.36362 106.45312 527.37305 C 108.62927 531.3919 111.3862 536.25654 114.92578 542.39258 C 122.00494 554.66466 132.10913 571.78861 144.94727 593.32422 C 170.62354 636.39544 207.15762 696.97125 250.99023 769.33008 C 334.61218 907.37307 445.09165 1088.7723 556.45312 1271.6855 C 444.99631 1454.7745 334.65895 1636.159 250.95508 1774.7559 C 207.11305 1847.3494 170.5692 1908.2151 144.86133 1951.6699 C 132.00739 1973.3973 121.88514 1990.729 114.75391 2003.291 C 111.18829 2009.572 108.40057 2014.5925 106.15234 2018.875 C 105.02823 2021.0162 104.06305 2022.887 102.92969 2025.3711 C 102.36301 2026.6131 101.75603 2027.9385 100.89062 2030.332 C 100.02523 2032.7256 97.740234 2033.3539 97.740234 2048 L 151.88281 2048 C 151.88281 2048.0146 151.88281 2048.0264 151.88281 2048.041 L 197.74023 2048.041 C 197.73586 2062.3819 195.57002 2062.5683 194.93164 2064.334 C 194.29261 2066.1014 194.02572 2066.6213 193.9082 2066.8789 C 193.67317 2067.394 194.04737 2066.5842 194.69141 2065.3574 C 195.97947 2062.9039 198.43994 2058.436 201.71875 2052.6602 C 202.50122 2051.2818 203.48718 2049.5743 204.36523 2048.041 L 251.88281 2048.041 C 251.88281 2056.2664 251.27816 2059.6758 250.64648 2061.3398 C 251.90064 2058.7735 253.5022 2055.5502 255.67969 2051.2695 C 261.48751 2039.8522 270.25593 2023.0161 281.4375 2001.791 C 303.80063 1959.3408 335.88218 1899.1876 374.38672 1827.3027 C 440.70316 1703.4954 526.92997 1543.2773 614.98828 1379.502 C 703.04644 1543.2771 789.27156 1703.4956 855.58789 1827.3027 C 894.09243 1899.1876 926.17397 1959.3408 948.53711 2001.791 C 959.71868 2023.0161 968.4871 2039.8522 974.29492 2051.2695 C 976.4684 2055.5423 978.06656 2058.7609 979.32031 2061.3262 C 978.69045 2059.6572 978.08984 2056.2447 978.08984 2048.041 L 1025.6094 2048.041 C 1026.4874 2049.5743 1027.4734 2051.2818 1028.2559 2052.6602 C 1031.5347 2058.436 1033.9951 2062.9039 1035.2832 2065.3574 C 1035.9272 2066.5842 1036.3014 2067.394 1036.0664 2066.8789 C 1035.9489 2066.6213 1035.682 2066.1014 1035.043 2064.334 C 1034.4045 2062.5683 1032.2388 2062.3819 1032.2344 2048.041 L 1078.0898 2048.041 C 1078.0898 2048.0264 1078.0898 2048.0146 1078.0898 2048 L 1132.2344 2048 C 1132.2344 2033.3539 1129.9494 2032.7256 1129.084 2030.332 C 1128.2186 2027.9385 1127.6116 2026.6131 1127.0449 2025.3711 C 1125.9116 2022.887 1124.9464 2021.0162 1123.8223 2018.875 C 1121.574 2014.5925 1118.7863 2009.572 1115.2207 2003.291 C 1108.0895 1990.729 1097.9672 1973.3973 1085.1133 1951.6699 C 1059.4054 1908.2151 1022.8616 1847.3494 979.01953 1774.7559 C 895.31588 1636.1594 784.978 1454.7759 673.52148 1271.6875 C 784.88326 1088.7738 895.3622 907.37343 978.98438 769.33008 C 1022.817 696.97125 1059.3511 636.39544 1085.0273 593.32422 C 1097.8655 571.78861 1107.9697 554.66466 1115.0488 542.39258 C 1118.5884 536.25654 1121.3453 531.3919 1123.5215 527.37305 C 1124.6096 525.36362 1125.5245 523.64889 1126.5938 521.43164 C 1127.1283 520.32302 1127.6899 519.1693 1128.5566 516.97852 C 1129.4233 514.78773 1132.2344 516.45455 1132.2344 498 L 1073.8203 498 L 1032.2344 498 C 1032.2344 489.31566 1032.8574 485.40127 1033.5664 483.33008 z M 979.32031 2061.3262 C 979.47398 2061.7333 979.62465 2062.012 979.77344 2062.2539 C 979.63693 2061.9723 979.47224 2061.637 979.32031 2061.3262 z M 979.77344 2062.2539 C 980.0155 2062.7532 980.38638 2063.4952 980.57812 2063.8984 C 981.17422 2065.1521 981.54384 2066.0057 981.4043 2065.6738 C 981.3345 2065.5079 981.14092 2065.1127 980.62109 2063.5898 C 980.45474 2063.1025 980.13051 2062.8343 979.77344 2062.2539 z M 250.64648 2061.3398 C 250.49953 2061.6405 250.33951 2061.9651 250.20703 2062.2383 C 250.3514 2062.0016 250.49763 2061.732 250.64648 2061.3398 z M 250.20703 2062.2383 C 249.84623 2062.8299 249.51936 2063.0983 249.35156 2063.5898 C 248.83173 2065.1127 248.64008 2065.5079 248.57031 2065.6738 C 248.43077 2066.0057 248.80039 2065.1521 249.39648 2063.8984 C 249.58997 2063.4915 249.96232 2062.743 250.20703 2062.2383 z "
       transform="translate(0,-288)"
       id="path5109-6" />
  </g>
</svg>
