<?xml version="1.0" encoding="UTF-8" standalone="no"?>
<!--?xml version="1.0" encoding="UTF-8" standalone="no"?-->

<svg
   xmlns:dc="http://purl.org/dc/elements/1.1/"
   xmlns:cc="http://creativecommons.org/ns#"
   xmlns:rdf="http://www.w3.org/1999/02/22-rdf-syntax-ns#"
   xmlns:svg="http://www.w3.org/2000/svg"
   xmlns="http://www.w3.org/2000/svg"
   xmlns:sodipodi="http://sodipodi.sourceforge.net/DTD/sodipodi-0.dtd"
   xmlns:inkscape="http://www.inkscape.org/namespaces/inkscape"
   version="1.1"
   viewBox="0 -288 1208 2048"
   id="svg6"
   sodipodi:docname="Y.svg"
   width="1208"
   height="2048"
   inkscape:version="0.92.1 r">
  <metadata
     id="metadata12">
    <rdf:rdf>
      <cc:work
         rdf:about="">
        <dc:format>image/svg+xml</dc:format>
        <dc:type
           rdf:resource="http://purl.org/dc/dcmitype/StillImage" />
        <dc:title />
      </cc:work>
    </rdf:rdf>
    <rdf:RDF>
      <cc:Work
         rdf:about="">
        <dc:format>image/svg+xml</dc:format>
        <dc:type
           rdf:resource="http://purl.org/dc/dcmitype/StillImage" />
      </cc:Work>
    </rdf:RDF>
  </metadata>
  <defs
     id="defs10" />
  <sodipodi:namedview
     pagecolor="#ffffff"
     bordercolor="#666666"
     borderopacity="1"
     objecttolerance="10"
     gridtolerance="10"
     guidetolerance="10"
     inkscape:pageopacity="0"
     inkscape:pageshadow="2"
     inkscape:window-width="1364"
     inkscape:window-height="730"
     id="namedview8"
     showgrid="false"
     inkscape:zoom="0.41964569"
     inkscape:cx="-104.87293"
     inkscape:cy="1793.9213"
     inkscape:window-x="2560"
     inkscape:window-y="18"
     inkscape:window-maximized="0"
     inkscape:current-layer="layer3"
     inkscape:measure-start="997.664,1544.09"
     inkscape:measure-end="1082.98,1544.09"
     showguides="true"
     inkscape:guide-bbox="true">
    <sodipodi:guide
       position="744.02015,547.6602"
       orientation="1,0"
       id="guide3860"
       inkscape:locked="false" />
    <sodipodi:guide
       position="750.5399,497.41965"
       orientation="0,1"
       id="guide893"
       inkscape:locked="false" />
    <sodipodi:guide
       position="200.94286,1516.5898"
       orientation="0,1"
       id="guide209"
       inkscape:locked="false" />
  </sodipodi:namedview>
  <g
     inkscape:groupmode="layer"
     id="layer3"
     inkscape:label="trace">
    <path
       style="color:#000000;font-style:normal;font-variant:normal;font-weight:normal;font-stretch:normal;font-size:medium;line-height:normal;font-family:sans-serif;font-variant-ligatures:normal;font-variant-position:normal;font-variant-caps:normal;font-variant-numeric:normal;font-variant-alternates:normal;font-feature-settings:normal;text-indent:0;text-align:start;text-decoration:none;text-decoration-line:none;text-decoration-style:solid;text-decoration-color:#000000;letter-spacing:normal;word-spacing:normal;text-transform:none;writing-mode:lr-tb;direction:ltr;text-orientation:mixed;dominant-baseline:auto;baseline-shift:baseline;text-anchor:start;white-space:normal;shape-padding:0;clip-rule:nonzero;display:inline;overflow:visible;visibility:visible;opacity:1;isolation:auto;mix-blend-mode:normal;color-interpolation:sRGB;color-interpolation-filters:linearRGB;solid-color:#000000;solid-opacity:1;vector-effect:none;fill:#000000;fill-opacity:1;fill-rule:evenodd;stroke:none;stroke-width:100;stroke-linecap:butt;stroke-linejoin:miter;stroke-miterlimit:4;stroke-dasharray:none;stroke-dashoffset:0;stroke-opacity:1;color-rendering:auto;image-rendering:auto;shape-rendering:auto;text-rendering:auto;enable-background:accumulate"
       d="M 1007.9062 489.9082 C 1007.4923 491.01721 1007.2535 491.73034 1006.4434 493.68945 C 1005.9196 494.95595 1005.2722 496.46164 1004.6074 498 L 955.49805 498 C 955.49805 493.4603 955.7268 491.91815 955.93359 490.76562 C 955.58533 491.87751 955.13397 493.31764 954.19922 495.89844 C 951.8681 502.33455 947.97246 512.20183 942.91992 524.36914 C 932.81485 548.70376 918.02149 582.52123 900.23047 622.22656 C 864.64843 701.63722 816.99894 804.83439 769.34375 906.98633 C 695.23435 1065.8446 634.50043 1193.8899 605.18359 1255.6016 C 575.87182 1193.8694 515.13276 1065.7451 441.01562 906.82812 C 393.35969 804.64749 345.70755 701.435 310.12305 622.03906 C 292.3308 582.34109 277.53609 548.53842 267.42773 524.22461 C 262.37356 512.0677 258.47447 502.21152 256.14062 495.78516 C 255.21149 493.22668 254.76894 491.81543 254.41797 490.70117 C 254.62742 491.86788 254.85742 493.40812 254.85742 498 L 205.61719 498 C 205.03514 496.63675 204.44434 495.25406 203.97656 494.11133 C 203.12495 492.0309 202.84879 491.20595 202.44141 490.0918 C 202.6537 491.62409 202.83594 493.81565 202.83594 498 L 154.85742 498 L 102.83594 498 C 102.83594 512.18467 105.08048 514.42467 106.52539 518.87305 C 107.9703 523.32143 109.55626 527.41468 111.43164 531.99609 C 115.1824 541.15893 120.09012 552.03074 126.2207 565.05859 C 138.48186 591.1143 155.55462 625.47742 175.99609 665.66797 C 216.87904 746.04907 271.13522 849.48151 325.38477 951.83203 C 425.41323 1140.5519 521.49936 1318.3059 536.5 1346.0352 L 536.5 2048 L 636.5 2048 L 674 2048 L 674 1345.2949 C 689.8475 1315.9598 785.31781 1139.0979 884.85156 951.24023 C 939.12909 848.79813 993.41084 745.32181 1034.3066 665.03516 C 1054.7546 624.89183 1071.8321 590.60837 1084.0859 564.69336 C 1090.2129 551.73585 1095.1128 540.94993 1098.8535 531.9043 C 1100.7239 527.38148 1102.3021 523.35803 1103.748 518.98438 C 1105.194 514.61071 1107.5195 512.76583 1107.5195 498 L 1055.498 498 L 1007.5195 498 C 1007.5195 493.78383 1007.696 491.51765 1007.9062 489.9082 z "
       transform="translate(0,-288)"
       id="path5236-7-72-2-3" />
  </g>
</svg>
