<?xml version="1.0" encoding="UTF-8" standalone="no"?>
<!--?xml version="1.0" encoding="UTF-8" standalone="no"?-->

<svg
   xmlns:dc="http://purl.org/dc/elements/1.1/"
   xmlns:cc="http://creativecommons.org/ns#"
   xmlns:rdf="http://www.w3.org/1999/02/22-rdf-syntax-ns#"
   xmlns:svg="http://www.w3.org/2000/svg"
   xmlns="http://www.w3.org/2000/svg"
   xmlns:sodipodi="http://sodipodi.sourceforge.net/DTD/sodipodi-0.dtd"
   xmlns:inkscape="http://www.inkscape.org/namespaces/inkscape"
   version="1.1"
   viewBox="0 -288 976 2048"
   id="svg6"
   sodipodi:docname="y.svg"
   width="976"
   height="2048"
   inkscape:version="0.92.1 r">
  <metadata
     id="metadata12">
    <rdf:rdf>
      <cc:work
         rdf:about="">
        <dc:format>image/svg+xml</dc:format>
        <dc:type
           rdf:resource="http://purl.org/dc/dcmitype/StillImage" />
        <dc:title />
      </cc:work>
    </rdf:rdf>
    <rdf:RDF>
      <cc:Work
         rdf:about="">
        <dc:format>image/svg+xml</dc:format>
        <dc:type
           rdf:resource="http://purl.org/dc/dcmitype/StillImage" />
      </cc:Work>
    </rdf:RDF>
  </metadata>
  <defs
     id="defs10" />
  <sodipodi:namedview
     pagecolor="#ffffff"
     bordercolor="#666666"
     borderopacity="1"
     objecttolerance="10"
     gridtolerance="10"
     guidetolerance="10"
     inkscape:pageopacity="0"
     inkscape:pageshadow="2"
     inkscape:window-width="1364"
     inkscape:window-height="730"
     id="namedview8"
     showgrid="false"
     inkscape:zoom="0.35118682"
     inkscape:cx="-586.37869"
     inkscape:cy="1144.0251"
     inkscape:window-x="2560"
     inkscape:window-y="18"
     inkscape:window-maximized="0"
     inkscape:current-layer="layer3"
     inkscape:measure-start="505.188,-278.807"
     inkscape:measure-end="188.254,-278.807"
     showguides="true"
     inkscape:guide-bbox="true">
    <sodipodi:guide
       position="842.77032,1176.6247"
       orientation="1,0"
       id="guide4527"
       inkscape:locked="false" />
    <sodipodi:guide
       position="137.32824,1138.2237"
       orientation="1,0"
       id="guide4520"
       inkscape:locked="false" />
    <sodipodi:guide
       position="170.08397,1161.5454"
       orientation="1,0"
       id="guide4522"
       inkscape:locked="false" />
    <sodipodi:guide
       position="505.1881,1241.5236"
       orientation="1,0"
       id="guide4524"
       inkscape:locked="false" />
    <sodipodi:guide
       position="824.20725,1164.9709"
       orientation="0,1"
       id="guide4526"
       inkscape:locked="false" />
  </sodipodi:namedview>
  <g
     inkscape:groupmode="layer"
     id="layer3"
     inkscape:label="trace">
    <path
       style="color:#000000;font-style:normal;font-variant:normal;font-weight:normal;font-stretch:normal;font-size:medium;line-height:normal;font-family:sans-serif;font-variant-ligatures:normal;font-variant-position:normal;font-variant-caps:normal;font-variant-numeric:normal;font-variant-alternates:normal;font-feature-settings:normal;text-indent:0;text-align:start;text-decoration:none;text-decoration-line:none;text-decoration-style:solid;text-decoration-color:#000000;letter-spacing:normal;word-spacing:normal;text-transform:none;writing-mode:lr-tb;direction:ltr;text-orientation:mixed;dominant-baseline:auto;baseline-shift:baseline;text-anchor:start;white-space:normal;shape-padding:0;clip-rule:nonzero;display:inline;overflow:visible;visibility:visible;opacity:1;isolation:auto;mix-blend-mode:normal;color-interpolation:sRGB;color-interpolation-filters:linearRGB;solid-color:#000000;solid-opacity:1;vector-effect:none;fill:#050000;fill-opacity:1;fill-rule:evenodd;stroke:none;stroke-width:100;stroke-linecap:butt;stroke-linejoin:miter;stroke-miterlimit:4;stroke-dasharray:none;stroke-dashoffset:0;stroke-opacity:1;color-rendering:auto;image-rendering:auto;shape-rendering:auto;text-rendering:auto;enable-background:accumulate"
       d="M 775.34766 875.4082 C 774.8385 877.14111 773.99315 879.85988 772.99805 883 L 722.46875 883 C 722.46875 878.48302 722.63732 877.1636 722.79883 876.03125 C 722.42396 877.48994 721.98112 879.19826 721.23828 881.91016 C 719.39075 888.65494 716.55038 898.67028 712.92188 911.24414 C 705.66484 936.39186 695.22331 971.90171 682.6875 1014.1797 C 657.61589 1098.7356 624.14857 1210.4413 590.68164 1321.7598 C 557.6134 1431.7521 524.80915 1540.4882 500.02148 1622.5566 C 452.4319 1492.2687 397.97496 1340.5376 350.67578 1207.1484 C 317.85702 1114.5957 288.5185 1030.9913 267.44141 969.92383 C 256.90286 939.39009 248.42039 914.46057 242.66602 897.07227 C 239.78883 888.37811 237.58249 881.52358 236.23828 877.14062 C 236.07799 876.61798 236.07239 876.57131 235.9375 876.12109 C 236.0101 877.88558 236.08398 879.67599 236.08398 883 L 185.70898 883 C 184.77709 880.48222 183.8793 878.04498 183.27734 876.31836 C 183.13632 875.91384 183.15644 875.94327 183.03516 875.58594 C 183.15592 877.236 183.23828 879.59645 183.23828 883 L 83.238281 883 C 83.238281 897.85277 85.037894 897.15425 85.931641 900.23828 C 86.825387 903.32232 87.752117 906.0847 88.851562 909.23828 C 91.050455 915.54545 93.920373 923.18324 97.556641 932.56055 C 104.82918 951.31515 115.10349 976.77997 127.79102 1007.7129 C 153.16607 1069.5787 188.13592 1153.1363 226.92578 1245.4512 C 301.21526 1422.2505 389.43718 1630.9993 450.38281 1779.1934 C 439.7809 1803.2282 392.52267 1910.392 338.87305 2033 C 308.8575 2101.5959 278.84287 2170.4797 256.26758 2222.9395 C 244.97993 2249.1693 235.56249 2271.2643 228.85547 2287.3652 C 225.50196 2295.4157 222.84165 2301.9198 220.83594 2307.043 C 219.83308 2309.6045 219.00933 2311.7556 218.1875 2314.1074 C 217.77658 2315.2833 217.37246 2316.4515 216.82422 2318.3574 C 216.27598 2320.2633 214.70117 2319.2996 214.70117 2333 L 267.2832 2333 L 314.70117 2333 C 314.70117 2338.8743 314.40531 2341.6066 314.06445 2343.2285 C 315.04138 2340.738 316.51873 2337.1056 318.20508 2333 L 367.2832 2333 C 367.2832 2336.2554 367.2098 2338.4198 367.10547 2339.9355 C 367.86173 2337.4129 368.94154 2333.9256 370.53711 2329.0137 C 374.09691 2318.0548 379.50089 2302.0078 386.39648 2281.8848 C 400.18767 2241.6387 419.99318 2184.9357 443.76758 2117.3848 C 491.31638 1982.2829 554.76748 1803.7002 618.22461 1625.0723 C 681.68174 1446.4444 745.14485 1267.7726 792.7832 1132.3047 C 816.60238 1064.5707 836.45702 1007.6605 850.43164 966.79492 C 857.41895 946.36215 862.92508 929.97884 866.80664 917.97852 C 868.74742 911.97835 870.27109 907.12624 871.47852 902.98633 C 872.08223 900.91637 872.60376 899.07499 873.14648 896.84766 C 873.68921 894.62033 874.93555 895.66995 874.93555 883 L 822.46875 883 L 774.93555 883 C 774.93555 878.1178 775.14787 876.67027 775.34766 875.4082 z M 313.20117 2345.4863 C 313.12167 2345.5843 312.96923 2345.8509 312.92578 2346.002 C 312.60822 2347.1059 312.54674 2347.221 312.58984 2347.0977 C 312.62844 2346.9872 313.00577 2346.0083 313.20117 2345.4863 z "
       transform="translate(0,-288)"
       id="path5109-6" />
  </g>
</svg>
